<svg width="540" height="195" viewBox="0 0 540 195" fill="none" xmlns="http://www.w3.org/2000/svg">
<path d="M31.517 70.5645V53.1099H43.0994V56.1525H35.2074V59.5616H38.0455C39.4261 59.5616 40.6165 59.786 41.6165 60.2349C42.6222 60.6781 43.3977 61.3059 43.9432 62.1184C44.4886 62.9309 44.7614 63.8883 44.7614 64.9906C44.7614 66.0872 44.4886 67.0559 43.9432 67.8968C43.3977 68.7321 42.6222 69.3855 41.6165 69.8571C40.6165 70.3287 39.4261 70.5645 38.0455 70.5645H31.517ZM35.2074 67.5985H38.0455C38.7045 67.5985 39.2614 67.4792 39.7159 67.2406C40.1705 66.9963 40.5142 66.6752 40.7472 66.2775C40.9858 65.8741 41.1051 65.4338 41.1051 64.9565C41.1051 64.2633 40.8409 63.6781 40.3125 63.2008C39.7898 62.7179 39.0341 62.4764 38.0455 62.4764H35.2074V67.5985ZM50.8146 70.8116C49.9794 70.8116 49.2351 70.6667 48.5817 70.377C47.9283 70.0815 47.4112 69.6468 47.0305 69.073C46.6555 68.4934 46.468 67.7718 46.468 66.9082C46.468 66.1809 46.6016 65.5701 46.8686 65.0758C47.1357 64.5815 47.4993 64.1838 47.9595 63.8826C48.4197 63.5815 48.9425 63.3542 49.5277 63.2008C50.1186 63.0474 50.7379 62.9395 51.3857 62.877C52.147 62.7974 52.7607 62.7235 53.2266 62.6554C53.6925 62.5815 54.0305 62.4735 54.2408 62.3315C54.451 62.1895 54.5561 61.9792 54.5561 61.7008V61.6497C54.5561 61.1099 54.3857 60.6923 54.0447 60.3968C53.7095 60.1014 53.2322 59.9537 52.6129 59.9537C51.9595 59.9537 51.4396 60.0985 51.0533 60.3883C50.6669 60.6724 50.4112 61.0304 50.2862 61.4622L46.9283 61.1895C47.0987 60.394 47.4339 59.7065 47.9339 59.127C48.4339 58.5417 49.0788 58.0929 49.8686 57.7804C50.6641 57.4622 51.5845 57.3031 52.63 57.3031C53.3572 57.3031 54.0533 57.3883 54.718 57.5588C55.3885 57.7292 55.9822 57.9934 56.4993 58.3514C57.022 58.7093 57.4339 59.1696 57.7351 59.7321C58.0362 60.2889 58.1868 60.9565 58.1868 61.7349V70.5645H54.7436V68.7491H54.6413C54.4311 69.1582 54.1499 69.519 53.7976 69.8315C53.4453 70.1383 53.022 70.3798 52.5277 70.5559C52.0334 70.7264 51.4624 70.8116 50.8146 70.8116ZM51.8544 68.3059C52.3885 68.3059 52.8601 68.2008 53.2692 67.9906C53.6783 67.7747 53.9993 67.4849 54.2322 67.1213C54.4652 66.7576 54.5817 66.3457 54.5817 65.8855V64.4963C54.468 64.5701 54.3118 64.6383 54.1129 64.7008C53.9197 64.7576 53.701 64.8116 53.4567 64.8627C53.2124 64.9082 52.968 64.9508 52.7237 64.9906C52.4794 65.0247 52.2578 65.0559 52.0589 65.0843C51.6328 65.1468 51.2607 65.2463 50.9425 65.3826C50.6243 65.519 50.3771 65.7037 50.201 65.9366C50.0249 66.1639 49.9368 66.448 49.9368 66.7889C49.9368 67.2832 50.1158 67.661 50.4737 67.9224C50.8374 68.1781 51.2976 68.3059 51.8544 68.3059ZM60.2365 70.5645L60.2195 67.6838H60.6541C60.9609 67.6838 61.2251 67.6099 61.4467 67.4622C61.674 67.3088 61.8615 67.0616 62.0092 66.7207C62.157 66.3798 62.2734 65.9281 62.3587 65.3656C62.4439 64.7974 62.5007 64.0985 62.5291 63.269L62.7422 57.4735H72.6967V70.5645H69.2365V60.3287H66.0064L65.8018 64.3258C65.7507 65.4224 65.6172 66.3656 65.4013 67.1554C65.1911 67.9451 64.8984 68.5929 64.5234 69.0985C64.1484 69.5985 63.6967 69.9679 63.1683 70.2065C62.6399 70.4451 62.0263 70.5645 61.3274 70.5645H60.2365ZM79.2443 70.8116C78.4091 70.8116 77.6648 70.6667 77.0114 70.377C76.358 70.0815 75.8409 69.6468 75.4602 69.073C75.0852 68.4934 74.8977 67.7718 74.8977 66.9082C74.8977 66.1809 75.0313 65.5701 75.2983 65.0758C75.5653 64.5815 75.929 64.1838 76.3892 63.8826C76.8494 63.5815 77.3722 63.3542 77.9574 63.2008C78.5483 63.0474 79.1676 62.9395 79.8153 62.877C80.5767 62.7974 81.1903 62.7235 81.6562 62.6554C82.1222 62.5815 82.4602 62.4735 82.6705 62.3315C82.8807 62.1895 82.9858 61.9792 82.9858 61.7008V61.6497C82.9858 61.1099 82.8153 60.6923 82.4744 60.3968C82.1392 60.1014 81.6619 59.9537 81.0426 59.9537C80.3892 59.9537 79.8693 60.0985 79.483 60.3883C79.0966 60.6724 78.8409 61.0304 78.7159 61.4622L75.358 61.1895C75.5284 60.394 75.8636 59.7065 76.3636 59.127C76.8636 58.5417 77.5085 58.0929 78.2983 57.7804C79.0938 57.4622 80.0142 57.3031 81.0597 57.3031C81.7869 57.3031 82.483 57.3883 83.1477 57.5588C83.8182 57.7292 84.4119 57.9934 84.929 58.3514C85.4517 58.7093 85.8636 59.1696 86.1648 59.7321C86.4659 60.2889 86.6165 60.9565 86.6165 61.7349V70.5645H83.1733V68.7491H83.071C82.8608 69.1582 82.5795 69.519 82.2273 69.8315C81.875 70.1383 81.4517 70.3798 80.9574 70.5559C80.4631 70.7264 79.892 70.8116 79.2443 70.8116ZM80.2841 68.3059C80.8182 68.3059 81.2898 68.2008 81.6989 67.9906C82.108 67.7747 82.429 67.4849 82.6619 67.1213C82.8949 66.7576 83.0114 66.3457 83.0114 65.8855V64.4963C82.8977 64.5701 82.7415 64.6383 82.5426 64.7008C82.3494 64.7576 82.1307 64.8116 81.8864 64.8627C81.642 64.9082 81.3977 64.9508 81.1534 64.9906C80.9091 65.0247 80.6875 65.0559 80.4886 65.0843C80.0625 65.1468 79.6903 65.2463 79.3722 65.3826C79.054 65.519 78.8068 65.7037 78.6307 65.9366C78.4545 66.1639 78.3665 66.448 78.3665 66.7889C78.3665 67.2832 78.5455 67.661 78.9034 67.9224C79.267 68.1781 79.7273 68.3059 80.2841 68.3059ZM98.544 62.5701V65.4252H91.7088V62.5701H98.544ZM92.902 57.4735V70.5645H89.4332V57.4735H92.902ZM100.82 57.4735V70.5645H97.3764V57.4735H100.82ZM109.551 70.8201C108.21 70.8201 107.057 70.536 106.091 69.9679C105.131 69.394 104.392 68.5985 103.875 67.5815C103.364 66.5645 103.108 65.394 103.108 64.0701C103.108 62.7292 103.366 61.5531 103.884 60.5417C104.406 59.5247 105.148 58.7321 106.108 58.1639C107.068 57.59 108.21 57.3031 109.534 57.3031C110.676 57.3031 111.676 57.5105 112.534 57.9252C113.392 58.34 114.071 58.9224 114.571 59.6724C115.071 60.4224 115.347 61.3031 115.398 62.3145H111.972C111.875 61.661 111.619 61.1355 111.205 60.7377C110.795 60.3343 110.259 60.1326 109.594 60.1326C109.031 60.1326 108.54 60.286 108.119 60.5929C107.705 60.894 107.381 61.3343 107.148 61.9139C106.915 62.4934 106.798 63.1951 106.798 64.019C106.798 64.8542 106.912 65.5645 107.139 66.1497C107.372 66.7349 107.699 67.1809 108.119 67.4877C108.54 67.7946 109.031 67.948 109.594 67.948C110.009 67.948 110.381 67.8627 110.71 67.6923C111.045 67.5218 111.321 67.2747 111.537 66.9508C111.759 66.6213 111.903 66.2264 111.972 65.7662H115.398C115.341 66.7662 115.068 67.6468 114.58 68.4082C114.097 69.1639 113.429 69.7548 112.577 70.1809C111.724 70.6071 110.716 70.8201 109.551 70.8201Z" fill="black"/>
<path d="M38.8494 116.383V126.564H37.6165V117.476H32.4858V126.564H31.2528V116.383H38.8494ZM44.2797 126.724C43.5903 126.724 42.9854 126.559 42.465 126.231C41.948 125.903 41.5436 125.444 41.252 124.854C40.9636 124.264 40.8194 123.575 40.8194 122.786C40.8194 121.991 40.9636 121.296 41.252 120.703C41.5436 120.11 41.948 119.649 42.465 119.321C42.9854 118.993 43.5903 118.829 44.2797 118.829C44.969 118.829 45.5723 118.993 46.0893 119.321C46.6097 119.649 47.014 120.11 47.3024 120.703C47.594 121.296 47.7399 121.991 47.7399 122.786C47.7399 123.575 47.594 124.264 47.3024 124.854C47.014 125.444 46.6097 125.903 46.0893 126.231C45.5723 126.559 44.969 126.724 44.2797 126.724ZM44.2797 125.67C44.8033 125.67 45.2342 125.535 45.5723 125.267C45.9103 124.998 46.1606 124.645 46.323 124.208C46.4854 123.77 46.5666 123.296 46.5666 122.786C46.5666 122.276 46.4854 121.8 46.323 121.359C46.1606 120.918 45.9103 120.562 45.5723 120.29C45.2342 120.019 44.8033 119.883 44.2797 119.883C43.756 119.883 43.3251 120.019 42.987 120.29C42.649 120.562 42.3987 120.918 42.2363 121.359C42.0739 121.8 41.9927 122.276 41.9927 122.786C41.9927 123.296 42.0739 123.77 42.2363 124.208C42.3987 124.645 42.649 124.998 42.987 125.267C43.3251 125.535 43.756 125.67 44.2797 125.67ZM53.707 124.974L56.3718 118.928H57.4854L54.1843 126.564H53.2298L49.9883 118.928H51.082L53.707 124.974ZM50.7042 118.928V126.564H49.5309V118.928H50.7042ZM56.7099 126.564V118.928H57.8832V126.564H56.7099ZM62.2781 126.743C61.7942 126.743 61.355 126.652 60.9606 126.47C60.5662 126.284 60.253 126.018 60.021 125.67C59.7889 125.318 59.6729 124.894 59.6729 124.397C59.6729 123.959 59.7591 123.605 59.9315 123.333C60.1038 123.058 60.3342 122.842 60.6225 122.687C60.9109 122.531 61.229 122.415 61.5771 122.339C61.9284 122.259 62.2814 122.196 62.636 122.15C63.1 122.09 63.4762 122.045 63.7646 122.015C64.0562 121.982 64.2683 121.928 64.4009 121.851C64.5368 121.775 64.6048 121.643 64.6048 121.454V121.414C64.6048 120.923 64.4705 120.542 64.2021 120.27C63.9369 119.999 63.5342 119.863 62.994 119.863C62.4338 119.863 61.9947 119.985 61.6765 120.231C61.3583 120.476 61.1346 120.738 61.0053 121.016L59.8917 120.618C60.0906 120.154 60.3557 119.793 60.6871 119.535C61.0219 119.273 61.3865 119.09 61.7809 118.988C62.1786 118.882 62.5697 118.829 62.9542 118.829C63.1995 118.829 63.4812 118.858 63.7994 118.918C64.1209 118.974 64.4308 119.092 64.729 119.271C65.0307 119.45 65.2809 119.72 65.4798 120.081C65.6786 120.443 65.7781 120.927 65.7781 121.533V126.564H64.6048V125.53H64.5451C64.4656 125.696 64.333 125.873 64.1474 126.062C63.9618 126.251 63.7148 126.412 63.4066 126.545C63.0984 126.677 62.7222 126.743 62.2781 126.743ZM62.457 125.689C62.921 125.689 63.3121 125.598 63.6303 125.416C63.9518 125.234 64.1938 124.998 64.3562 124.71C64.5219 124.422 64.6048 124.118 64.6048 123.8V122.726C64.555 122.786 64.4457 122.841 64.2766 122.89C64.1109 122.937 63.9187 122.978 63.6999 123.015C63.4845 123.048 63.274 123.078 63.0685 123.104C62.8664 123.127 62.7023 123.147 62.5763 123.164C62.2714 123.204 61.9864 123.268 61.7212 123.358C61.4594 123.444 61.2473 123.575 61.0849 123.751C60.9258 123.923 60.8462 124.158 60.8462 124.456C60.8462 124.864 60.997 125.172 61.2987 125.381C61.6036 125.587 61.9897 125.689 62.457 125.689ZM72.6326 118.928V120.022H69.0929V126.564H67.9196V118.928H72.6326ZM76.196 126.743C75.7121 126.743 75.273 126.652 74.8786 126.47C74.4841 126.284 74.1709 126.018 73.9389 125.67C73.7069 125.318 73.5909 124.894 73.5909 124.397C73.5909 123.959 73.6771 123.605 73.8494 123.333C74.0218 123.058 74.2521 122.842 74.5405 122.687C74.8288 122.531 75.147 122.415 75.495 122.339C75.8464 122.259 76.1993 122.196 76.554 122.15C77.018 122.09 77.3942 122.045 77.6825 122.015C77.9742 121.982 78.1863 121.928 78.3189 121.851C78.4548 121.775 78.5227 121.643 78.5227 121.454V121.414C78.5227 120.923 78.3885 120.542 78.12 120.27C77.8549 119.999 77.4522 119.863 76.9119 119.863C76.3518 119.863 75.9126 119.985 75.5945 120.231C75.2763 120.476 75.0526 120.738 74.9233 121.016L73.8097 120.618C74.0085 120.154 74.2737 119.793 74.6051 119.535C74.9399 119.273 75.3045 119.09 75.6989 118.988C76.0966 118.882 76.4877 118.829 76.8722 118.829C77.1174 118.829 77.3991 118.858 77.7173 118.918C78.0388 118.974 78.3487 119.092 78.647 119.271C78.9486 119.45 79.1989 119.72 79.3977 120.081C79.5966 120.443 79.696 120.927 79.696 121.533V126.564H78.5227V125.53H78.4631C78.3835 125.696 78.2509 125.873 78.0653 126.062C77.8797 126.251 77.6328 126.412 77.3246 126.545C77.0163 126.677 76.6402 126.743 76.196 126.743ZM76.375 125.689C76.839 125.689 77.2301 125.598 77.5483 125.416C77.8698 125.234 78.1117 124.998 78.2741 124.71C78.4399 124.422 78.5227 124.118 78.5227 123.8V122.726C78.473 122.786 78.3636 122.841 78.1946 122.89C78.0289 122.937 77.8366 122.978 77.6179 123.015C77.4025 123.048 77.192 123.078 76.9865 123.104C76.7843 123.127 76.6203 123.147 76.4943 123.164C76.1894 123.204 75.9044 123.268 75.6392 123.358C75.3774 123.444 75.1652 123.575 75.0028 123.751C74.8438 123.923 74.7642 124.158 74.7642 124.456C74.7642 124.864 74.915 125.172 75.2166 125.381C75.5215 125.587 75.9077 125.689 76.375 125.689ZM85.0392 126.724C84.3034 126.724 83.6687 126.561 83.1351 126.236C82.6048 125.908 82.1955 125.451 81.9071 124.864C81.6221 124.274 81.4796 123.588 81.4796 122.806C81.4796 122.024 81.6221 121.334 81.9071 120.738C82.1955 120.138 82.5965 119.671 83.1103 119.336C83.6273 118.998 84.2305 118.829 84.9199 118.829C85.3176 118.829 85.7104 118.895 86.0982 119.028C86.486 119.16 86.839 119.376 87.1571 119.674C87.4753 119.969 87.7289 120.36 87.9178 120.847C88.1067 121.334 88.2012 121.934 88.2012 122.647V123.144H82.3148V122.13H87.008C87.008 121.699 86.9218 121.314 86.7495 120.976C86.5804 120.638 86.3385 120.372 86.0236 120.176C85.7121 119.98 85.3442 119.883 84.9199 119.883C84.4526 119.883 84.0482 119.999 83.7069 120.231C83.3688 120.459 83.1086 120.758 82.9263 121.126C82.744 121.493 82.6529 121.888 82.6529 122.309V122.985C82.6529 123.562 82.7523 124.05 82.9512 124.452C83.1533 124.849 83.4334 125.153 83.7914 125.361C84.1493 125.567 84.5653 125.67 85.0392 125.67C85.3475 125.67 85.6259 125.626 85.8745 125.54C86.1264 125.451 86.3435 125.318 86.5257 125.143C86.708 124.964 86.8489 124.742 86.9483 124.476L88.0819 124.795C87.9625 125.179 87.762 125.517 87.4803 125.809C87.1986 126.097 86.8506 126.323 86.4363 126.485C86.022 126.644 85.5563 126.724 85.0392 126.724ZM89.275 120.022V118.928H95.4796V120.022H92.9739V126.564H91.8006V120.022H89.275ZM101.129 129.428V118.928H102.262V120.141H102.401C102.487 120.009 102.607 119.84 102.759 119.634C102.915 119.425 103.137 119.24 103.425 119.077C103.717 118.912 104.112 118.829 104.609 118.829C105.252 118.829 105.818 118.989 106.309 119.311C106.799 119.632 107.182 120.088 107.457 120.678C107.732 121.268 107.87 121.964 107.87 122.766C107.87 123.575 107.732 124.276 107.457 124.869C107.182 125.459 106.801 125.916 106.314 126.241C105.827 126.563 105.265 126.724 104.629 126.724C104.138 126.724 103.745 126.642 103.45 126.48C103.155 126.314 102.928 126.127 102.769 125.918C102.61 125.706 102.487 125.53 102.401 125.391H102.302V129.428H101.129ZM102.282 122.746C102.282 123.323 102.366 123.832 102.536 124.273C102.705 124.71 102.951 125.053 103.276 125.302C103.601 125.547 103.999 125.67 104.469 125.67C104.96 125.67 105.369 125.54 105.697 125.282C106.029 125.02 106.277 124.669 106.443 124.228C106.612 123.784 106.697 123.29 106.697 122.746C106.697 122.209 106.614 121.725 106.448 121.295C106.286 120.86 106.039 120.517 105.707 120.265C105.379 120.01 104.967 119.883 104.469 119.883C103.992 119.883 103.591 120.004 103.266 120.246C102.942 120.484 102.696 120.819 102.531 121.25C102.365 121.677 102.282 122.176 102.282 122.746ZM111.907 126.743C111.423 126.743 110.984 126.652 110.589 126.47C110.195 126.284 109.882 126.018 109.65 125.67C109.418 125.318 109.302 124.894 109.302 124.397C109.302 123.959 109.388 123.605 109.56 123.333C109.733 123.058 109.963 122.842 110.251 122.687C110.54 122.531 110.858 122.415 111.206 122.339C111.557 122.259 111.91 122.196 112.265 122.15C112.729 122.09 113.105 122.045 113.393 122.015C113.685 121.982 113.897 121.928 114.03 121.851C114.166 121.775 114.234 121.643 114.234 121.454V121.414C114.234 120.923 114.099 120.542 113.831 120.27C113.566 119.999 113.163 119.863 112.623 119.863C112.063 119.863 111.624 119.985 111.305 120.231C110.987 120.476 110.763 120.738 110.634 121.016L109.521 120.618C109.719 120.154 109.985 119.793 110.316 119.535C110.651 119.273 111.015 119.09 111.41 118.988C111.808 118.882 112.199 118.829 112.583 118.829C112.828 118.829 113.11 118.858 113.428 118.918C113.75 118.974 114.06 119.092 114.358 119.271C114.66 119.45 114.91 119.72 115.109 120.081C115.308 120.443 115.407 120.927 115.407 121.533V126.564H114.234V125.53H114.174C114.094 125.696 113.962 125.873 113.776 126.062C113.591 126.251 113.344 126.412 113.036 126.545C112.727 126.677 112.351 126.743 111.907 126.743ZM112.086 125.689C112.55 125.689 112.941 125.598 113.259 125.416C113.581 125.234 113.823 124.998 113.985 124.71C114.151 124.422 114.234 124.118 114.234 123.8V122.726C114.184 122.786 114.075 122.841 113.906 122.89C113.74 122.937 113.548 122.978 113.329 123.015C113.113 123.048 112.903 123.078 112.697 123.104C112.495 123.127 112.331 123.147 112.205 123.164C111.9 123.204 111.615 123.268 111.35 123.358C111.088 123.444 110.876 123.575 110.714 123.751C110.555 123.923 110.475 124.158 110.475 124.456C110.475 124.864 110.626 125.172 110.928 125.381C111.232 125.587 111.619 125.689 112.086 125.689ZM117.071 124.616H118.324C118.351 124.96 118.506 125.222 118.791 125.401C119.08 125.58 119.454 125.67 119.915 125.67C120.386 125.67 120.788 125.573 121.123 125.381C121.458 125.186 121.625 124.871 121.625 124.437C121.625 124.181 121.562 123.959 121.436 123.77C121.31 123.578 121.133 123.429 120.904 123.323C120.676 123.217 120.405 123.164 120.094 123.164H118.781V122.11H120.094C120.561 122.11 120.906 122.004 121.128 121.792C121.353 121.58 121.466 121.314 121.466 120.996C121.466 120.655 121.345 120.381 121.103 120.176C120.861 119.967 120.518 119.863 120.074 119.863C119.627 119.863 119.254 119.964 118.955 120.166C118.657 120.365 118.5 120.622 118.483 120.937H117.25C117.263 120.526 117.389 120.163 117.628 119.848C117.867 119.53 118.191 119.281 118.602 119.102C119.013 118.92 119.484 118.829 120.014 118.829C120.551 118.829 121.017 118.923 121.411 119.112C121.809 119.298 122.116 119.551 122.331 119.873C122.55 120.191 122.659 120.552 122.659 120.956C122.659 121.387 122.538 121.735 122.296 122.001C122.054 122.266 121.751 122.455 121.387 122.567V122.647C121.675 122.667 121.925 122.76 122.137 122.925C122.353 123.088 122.52 123.301 122.639 123.567C122.759 123.828 122.818 124.118 122.818 124.437C122.818 124.901 122.694 125.305 122.445 125.65C122.197 125.991 121.856 126.256 121.421 126.445C120.987 126.631 120.492 126.724 119.935 126.724C119.395 126.724 118.911 126.636 118.483 126.46C118.056 126.281 117.716 126.034 117.464 125.719C117.215 125.401 117.084 125.033 117.071 124.616ZM130.134 116.064L130.731 116.78C130.499 117.006 130.23 117.163 129.925 117.253C129.62 117.342 129.276 117.397 128.891 117.417C128.507 117.437 128.079 117.456 127.608 117.476C127.078 117.496 126.639 117.626 126.291 117.864C125.943 118.103 125.675 118.448 125.486 118.898C125.297 119.349 125.176 119.903 125.123 120.559H125.222C125.481 120.081 125.839 119.73 126.296 119.505C126.753 119.279 127.244 119.167 127.768 119.167C128.364 119.167 128.901 119.306 129.378 119.584C129.856 119.863 130.233 120.275 130.512 120.822C130.79 121.369 130.93 122.044 130.93 122.846C130.93 123.644 130.787 124.334 130.502 124.914C130.22 125.494 129.824 125.941 129.314 126.256C128.807 126.568 128.212 126.724 127.529 126.724C126.846 126.724 126.248 126.563 125.734 126.241C125.22 125.916 124.821 125.436 124.536 124.8C124.251 124.16 124.108 123.369 124.108 122.428V121.613C124.108 119.912 124.397 118.623 124.974 117.745C125.554 116.867 126.425 116.412 127.589 116.383C128 116.369 128.366 116.366 128.687 116.373C129.009 116.379 129.289 116.364 129.528 116.328C129.766 116.291 129.968 116.204 130.134 116.064ZM127.529 125.67C127.99 125.67 128.386 125.554 128.717 125.322C129.052 125.09 129.309 124.763 129.488 124.342C129.667 123.918 129.756 123.419 129.756 122.846C129.756 122.289 129.665 121.815 129.483 121.424C129.304 121.033 129.047 120.734 128.712 120.529C128.377 120.323 127.976 120.221 127.509 120.221C127.168 120.221 126.861 120.279 126.589 120.395C126.318 120.511 126.086 120.681 125.893 120.907C125.701 121.132 125.552 121.407 125.446 121.732C125.343 122.057 125.288 122.428 125.282 122.846C125.282 123.701 125.482 124.385 125.883 124.899C126.284 125.413 126.833 125.67 127.529 125.67ZM133.898 124.834L137.577 118.928H138.929V126.564H137.756V120.658L134.096 126.564H132.724V118.928H133.898V124.834ZM140.039 120.022V118.928H146.243V120.022H143.738V126.564H142.564V120.022H140.039ZM148.969 121.692H151.156C152.051 121.692 152.736 121.919 153.21 122.373C153.684 122.827 153.921 123.403 153.921 124.099C153.921 124.556 153.815 124.972 153.602 125.346C153.39 125.718 153.079 126.014 152.668 126.236C152.257 126.455 151.753 126.564 151.156 126.564H147.955V118.928H149.128V125.471H151.156C151.62 125.471 152.002 125.348 152.3 125.103C152.598 124.858 152.747 124.543 152.747 124.158C152.747 123.754 152.598 123.424 152.3 123.169C152.002 122.914 151.62 122.786 151.156 122.786H148.969V121.692ZM33.5994 136.922C33.3343 136.926 33.0675 136.994 32.799 137.126C32.5339 137.259 32.3118 137.434 32.1328 137.653C31.9571 137.869 31.8693 138.109 31.8693 138.374H30.7159C30.7159 138.043 30.7955 137.724 30.9545 137.42C31.1136 137.115 31.3274 136.843 31.5959 136.604C31.8677 136.366 32.1759 136.177 32.5206 136.037C32.8686 135.898 33.2282 135.829 33.5994 135.829C34.2955 135.829 34.8854 136.004 35.3693 136.356C35.8565 136.707 36.2261 137.171 36.478 137.748C36.7332 138.324 36.8608 138.951 36.8608 139.627V139.905C36.8608 140.578 36.7332 141.205 36.478 141.785C36.2261 142.361 35.8565 142.825 35.3693 143.177C34.8854 143.528 34.2955 143.704 33.5994 143.704C33.0426 143.704 32.5471 143.581 32.1129 143.336C31.6787 143.087 31.3374 142.756 31.0888 142.341C30.8402 141.927 30.7159 141.466 30.7159 140.959H31.8693C31.8693 141.248 31.9505 141.518 32.1129 141.77C32.2786 142.018 32.4924 142.22 32.7543 142.376C33.0194 142.529 33.3011 142.607 33.5994 142.61C34.0436 142.607 34.4214 142.467 34.733 142.192C35.0445 141.917 35.2815 141.573 35.4439 141.158C35.6063 140.744 35.6875 140.326 35.6875 139.905V139.627C35.6875 139.196 35.6063 138.775 35.4439 138.364C35.2848 137.95 35.0495 137.607 34.7379 137.335C34.4297 137.063 34.0502 136.926 33.5994 136.922ZM36.1648 139.17V140.263H32.8239V139.17H36.1648ZM37.9719 143.564V142.471H38.2504C38.479 142.471 38.6696 142.426 38.8221 142.336C38.9746 142.244 39.0972 142.083 39.19 141.854C39.2861 141.622 39.359 141.301 39.4087 140.89C39.4618 140.475 39.4999 139.948 39.5231 139.309L39.6623 135.928H44.7532V143.564H43.5799V137.022H40.7759L40.6566 139.746C40.6301 140.373 40.5737 140.925 40.4876 141.402C40.4047 141.876 40.2771 142.273 40.1048 142.595C39.9357 142.916 39.7103 143.158 39.4286 143.321C39.1469 143.483 38.7939 143.564 38.3697 143.564H37.9719ZM50.1076 143.724C49.3718 143.724 48.7371 143.561 48.2035 143.236C47.6732 142.908 47.2638 142.451 46.9755 141.864C46.6905 141.274 46.5479 140.588 46.5479 139.806C46.5479 139.024 46.6905 138.334 46.9755 137.738C47.2638 137.138 47.6649 136.671 48.1786 136.336C48.6957 135.998 49.2989 135.829 49.9883 135.829C50.386 135.829 50.7788 135.895 51.1665 136.028C51.5543 136.16 51.9073 136.376 52.2255 136.674C52.5437 136.969 52.7972 137.36 52.9862 137.847C53.1751 138.334 53.2695 138.934 53.2695 139.647V140.144H47.3832V139.13H52.0763C52.0763 138.699 51.9902 138.314 51.8178 137.976C51.6488 137.638 51.4068 137.372 51.092 137.176C50.7804 136.98 50.4125 136.883 49.9883 136.883C49.521 136.883 49.1166 136.999 48.7752 137.231C48.4371 137.459 48.177 137.758 47.9947 138.126C47.8124 138.493 47.7212 138.888 47.7212 139.309V139.985C47.7212 140.562 47.8207 141.05 48.0195 141.452C48.2217 141.849 48.5018 142.153 48.8597 142.361C49.2177 142.567 49.6336 142.67 50.1076 142.67C50.4158 142.67 50.6942 142.626 50.9428 142.54C51.1947 142.451 51.4118 142.318 51.5941 142.143C51.7764 141.964 51.9173 141.742 52.0167 141.476L53.1502 141.795C53.0309 142.179 52.8304 142.517 52.5487 142.809C52.2669 143.097 51.9189 143.323 51.5046 143.485C51.0903 143.644 50.6246 143.724 50.1076 143.724ZM59.2305 141.974L61.8952 135.928H63.0089L59.7077 143.564H58.7532L55.5117 135.928H56.6055L59.2305 141.974ZM56.2276 135.928V143.564H55.0543V135.928H56.2276ZM62.2333 143.564V135.928H63.4066V143.564H62.2333ZM68.756 143.724C68.0202 143.724 67.3855 143.561 66.8519 143.236C66.3216 142.908 65.9123 142.451 65.6239 141.864C65.3389 141.274 65.1964 140.588 65.1964 139.806C65.1964 139.024 65.3389 138.334 65.6239 137.738C65.9123 137.138 66.3133 136.671 66.8271 136.336C67.3441 135.998 67.9473 135.829 68.6367 135.829C69.0344 135.829 69.4272 135.895 69.815 136.028C70.2028 136.16 70.5558 136.376 70.8739 136.674C71.1921 136.969 71.4457 137.36 71.6346 137.847C71.8235 138.334 71.918 138.934 71.918 139.647V140.144H66.0316V139.13H70.7248C70.7248 138.699 70.6386 138.314 70.4663 137.976C70.2972 137.638 70.0553 137.372 69.7404 137.176C69.4289 136.98 69.061 136.883 68.6367 136.883C68.1694 136.883 67.765 136.999 67.4237 137.231C67.0856 137.459 66.8254 137.758 66.6431 138.126C66.4608 138.493 66.3697 138.888 66.3697 139.309V139.985C66.3697 140.562 66.4691 141.05 66.668 141.452C66.8701 141.849 67.1502 142.153 67.5082 142.361C67.8661 142.567 68.2821 142.67 68.756 142.67C69.0643 142.67 69.3427 142.626 69.5913 142.54C69.8432 142.451 70.0603 142.318 70.2425 142.143C70.4248 141.964 70.5657 141.742 70.6651 141.476L71.7987 141.795C71.6793 142.179 71.4788 142.517 71.1971 142.809C70.9154 143.097 70.5674 143.323 70.1531 143.485C69.7388 143.644 69.2731 143.724 68.756 143.724ZM78.8136 139.209V140.303H74.5977V139.209H78.8136ZM74.8761 135.928V143.564H73.7028V135.928H74.8761ZM79.7085 135.928V143.564H78.5352V135.928H79.7085ZM80.8121 137.022V135.928H87.0167V137.022H84.511V143.564H83.3377V137.022H80.8121ZM89.7424 138.692H91.9299C92.8248 138.692 93.5092 138.919 93.9831 139.373C94.4571 139.827 94.6941 140.403 94.6941 141.099C94.6941 141.556 94.588 141.972 94.3759 142.346C94.1638 142.718 93.8522 143.014 93.4412 143.236C93.0302 143.455 92.5265 143.564 91.9299 143.564H88.7282V135.928H89.9015V142.471H91.9299C92.3939 142.471 92.775 142.348 93.0733 142.103C93.3716 141.858 93.5208 141.543 93.5208 141.158C93.5208 140.754 93.3716 140.424 93.0733 140.169C92.775 139.914 92.3939 139.786 91.9299 139.786H89.7424V138.692ZM95.9071 143.564V135.928H97.0804V143.564H95.9071ZM103.166 143.564V135.928H109.171V143.564H107.998V137.022H104.339V143.564H103.166ZM114.416 143.724C113.727 143.724 113.122 143.559 112.602 143.231C112.085 142.903 111.68 142.444 111.389 141.854C111.1 141.264 110.956 140.575 110.956 139.786C110.956 138.991 111.1 138.296 111.389 137.703C111.68 137.11 112.085 136.649 112.602 136.321C113.122 135.993 113.727 135.829 114.416 135.829C115.106 135.829 115.709 135.993 116.226 136.321C116.746 136.649 117.151 137.11 117.439 137.703C117.731 138.296 117.877 138.991 117.877 139.786C117.877 140.575 117.731 141.264 117.439 141.854C117.151 142.444 116.746 142.903 116.226 143.231C115.709 143.559 115.106 143.724 114.416 143.724ZM114.416 142.67C114.94 142.67 115.371 142.535 115.709 142.267C116.047 141.998 116.297 141.645 116.46 141.208C116.622 140.77 116.703 140.296 116.703 139.786C116.703 139.276 116.622 138.8 116.46 138.359C116.297 137.918 116.047 137.562 115.709 137.29C115.371 137.019 114.94 136.883 114.416 136.883C113.893 136.883 113.462 137.019 113.124 137.29C112.786 137.562 112.535 137.918 112.373 138.359C112.211 138.8 112.129 139.276 112.129 139.786C112.129 140.296 112.211 140.77 112.373 141.208C112.535 141.645 112.786 141.998 113.124 142.267C113.462 142.535 113.893 142.67 114.416 142.67ZM128.318 135.928V137.022H124.778V143.564H123.605V135.928H128.318ZM130.031 146.428V135.928H131.164V137.141H131.304C131.39 137.009 131.509 136.84 131.662 136.634C131.817 136.425 132.039 136.24 132.328 136.077C132.619 135.912 133.014 135.829 133.511 135.829C134.154 135.829 134.721 135.989 135.211 136.311C135.702 136.632 136.085 137.088 136.36 137.678C136.635 138.268 136.772 138.964 136.772 139.766C136.772 140.575 136.635 141.276 136.36 141.869C136.085 142.459 135.703 142.916 135.216 143.241C134.729 143.563 134.167 143.724 133.531 143.724C133.04 143.724 132.648 143.642 132.353 143.48C132.058 143.314 131.831 143.127 131.672 142.918C131.512 142.706 131.39 142.53 131.304 142.391H131.204V146.428H130.031ZM131.184 139.746C131.184 140.323 131.269 140.832 131.438 141.273C131.607 141.71 131.854 142.053 132.179 142.302C132.503 142.547 132.901 142.67 133.372 142.67C133.862 142.67 134.272 142.54 134.6 142.282C134.931 142.02 135.18 141.669 135.346 141.228C135.515 140.784 135.599 140.29 135.599 139.746C135.599 139.209 135.516 138.725 135.35 138.295C135.188 137.86 134.941 137.517 134.61 137.265C134.282 137.01 133.869 136.883 133.372 136.883C132.895 136.883 132.493 137.004 132.169 137.246C131.844 137.484 131.599 137.819 131.433 138.25C131.267 138.677 131.184 139.176 131.184 139.746ZM139.044 146.428C138.846 146.428 138.668 146.412 138.512 146.378C138.357 146.349 138.249 146.319 138.189 146.289L138.488 145.255C138.773 145.328 139.025 145.354 139.243 145.334C139.462 145.314 139.656 145.217 139.825 145.041C139.997 144.869 140.155 144.589 140.297 144.201L140.516 143.604L137.692 135.928H138.965L141.073 142.013H141.152L143.26 135.928H144.533L141.292 144.678C141.146 145.073 140.965 145.399 140.75 145.657C140.534 145.919 140.284 146.113 139.999 146.239C139.717 146.365 139.399 146.428 139.044 146.428ZM146.082 143.564V135.928H152.087V143.564H150.914V137.022H147.255V143.564H146.082ZM154.23 143.564V135.928H160.236V143.564H159.062V137.022H155.403V143.564H154.23ZM164.626 143.743C164.142 143.743 163.703 143.652 163.308 143.47C162.914 143.284 162.601 143.018 162.369 142.67C162.137 142.318 162.021 141.894 162.021 141.397C162.021 140.959 162.107 140.605 162.279 140.333C162.451 140.058 162.682 139.842 162.97 139.687C163.259 139.531 163.577 139.415 163.925 139.339C164.276 139.259 164.629 139.196 164.984 139.15C165.448 139.09 165.824 139.045 166.112 139.015C166.404 138.982 166.616 138.928 166.749 138.851C166.884 138.775 166.952 138.643 166.952 138.454V138.414C166.952 137.923 166.818 137.542 166.55 137.27C166.285 136.999 165.882 136.863 165.342 136.863C164.781 136.863 164.342 136.985 164.024 137.231C163.706 137.476 163.482 137.738 163.353 138.016L162.239 137.618C162.438 137.154 162.703 136.793 163.035 136.535C163.37 136.273 163.734 136.09 164.129 135.988C164.526 135.882 164.917 135.829 165.302 135.829C165.547 135.829 165.829 135.858 166.147 135.918C166.469 135.974 166.778 136.092 167.077 136.271C167.378 136.45 167.629 136.72 167.827 137.081C168.026 137.443 168.126 137.927 168.126 138.533V143.564H166.952V142.53H166.893C166.813 142.696 166.681 142.873 166.495 143.062C166.309 143.251 166.063 143.412 165.754 143.545C165.446 143.677 165.07 143.743 164.626 143.743ZM164.805 142.689C165.269 142.689 165.66 142.598 165.978 142.416C166.299 142.234 166.541 141.998 166.704 141.71C166.87 141.422 166.952 141.118 166.952 140.8V139.726C166.903 139.786 166.793 139.841 166.624 139.89C166.459 139.937 166.266 139.978 166.048 140.015C165.832 140.048 165.622 140.078 165.416 140.104C165.214 140.127 165.05 140.147 164.924 140.164C164.619 140.204 164.334 140.268 164.069 140.358C163.807 140.444 163.595 140.575 163.433 140.751C163.273 140.923 163.194 141.158 163.194 141.456C163.194 141.864 163.345 142.172 163.646 142.381C163.951 142.587 164.337 142.689 164.805 142.689ZM174.443 141.974L177.108 135.928H178.222L174.921 143.564H173.966L170.725 135.928H171.818L174.443 141.974ZM171.441 135.928V143.564H170.267V135.928H171.441ZM177.446 143.564V135.928H178.619V143.564H177.446Z" fill="black"/>
<rect x="210" y="0.0644531" width="150" height="124" rx="15" fill="#E8E8E8"/>
<path d="M226.639 26.2555V23.9735H237.391V26.2555H233.383V37.0645H230.647V26.2555H226.639ZM242.161 37.2562C241.151 37.2562 240.281 37.0517 239.553 36.6426C238.828 36.2292 238.27 35.6454 237.878 34.8912C237.486 34.1326 237.29 33.2356 237.29 32.2001C237.29 31.1902 237.486 30.3038 237.878 29.541C238.27 28.7782 238.822 28.1838 239.534 27.7576C240.249 27.3315 241.089 27.1184 242.052 27.1184C242.7 27.1184 243.303 27.2228 243.861 27.4316C244.423 27.6362 244.914 27.9451 245.331 28.3585C245.753 28.7718 246.081 29.2917 246.316 29.9181C246.55 30.5403 246.667 31.269 246.667 32.1042V32.8521H238.377V31.1646H244.104C244.104 30.7725 244.019 30.4252 243.848 30.1227C243.678 29.8201 243.441 29.5836 243.139 29.4132C242.84 29.2385 242.493 29.1511 242.097 29.1511C241.683 29.1511 241.317 29.247 240.997 29.4387C240.682 29.6262 240.435 29.8798 240.256 30.1994C240.077 30.5147 239.985 30.8663 239.981 31.2541V32.8585C239.981 33.3443 240.07 33.764 240.249 34.1177C240.433 34.4714 240.691 34.7441 241.023 34.9359C241.355 35.1277 241.749 35.2235 242.205 35.2235C242.508 35.2235 242.785 35.1809 243.036 35.0957C243.288 35.0105 243.503 34.8826 243.682 34.7122C243.861 34.5417 243.997 34.3329 244.091 34.0858L246.61 34.252C246.482 34.8571 246.22 35.3855 245.823 35.8372C245.431 36.2846 244.924 36.6341 244.302 36.8855C243.684 37.1326 242.97 37.2562 242.161 37.2562ZM250.544 27.2463L252.346 30.6788L254.194 27.2463H256.987L254.143 32.1554L257.064 37.0645H254.283L252.346 33.6703L250.442 37.0645H247.629L250.544 32.1554L247.731 27.2463H250.544ZM263.827 27.2463V29.2917H257.914V27.2463H263.827ZM259.256 24.894H261.979V34.0474C261.979 34.2988 262.018 34.4949 262.094 34.6355C262.171 34.7718 262.278 34.8677 262.414 34.9231C262.555 34.9785 262.716 35.0062 262.9 35.0062C263.028 35.0062 263.155 34.9956 263.283 34.9743C263.411 34.9487 263.509 34.9295 263.577 34.9167L264.006 36.943C263.869 36.9856 263.677 37.0346 263.43 37.09C263.183 37.1497 262.883 37.1859 262.529 37.1987C261.873 37.2243 261.297 37.1369 260.803 36.9366C260.313 36.7363 259.932 36.4252 259.659 36.0034C259.386 35.5815 259.252 35.0488 259.256 34.4054V24.894Z" fill="black"/>
<path d="M225.494 75.2037C224.838 75.2037 224.253 75.091 223.739 74.8656C223.229 74.6402 222.823 74.327 222.521 73.926C222.223 73.5216 222.061 73.0526 222.034 72.519H223.287C223.313 72.8471 223.426 73.1305 223.625 73.3691C223.824 73.6045 224.084 73.7868 224.406 73.916C224.727 74.0453 225.083 74.1099 225.474 74.1099C225.912 74.1099 226.3 74.0337 226.638 73.8812C226.976 73.7288 227.241 73.5166 227.433 73.2449C227.625 72.9731 227.722 72.6582 227.722 72.3002C227.722 71.9257 227.629 71.5959 227.443 71.3109C227.258 71.0225 226.986 70.7972 226.628 70.6348C226.27 70.4724 225.832 70.3912 225.315 70.3912H224.5V69.2974H225.315C225.72 69.2974 226.074 69.2245 226.379 69.0787C226.688 68.9328 226.928 68.7273 227.1 68.4622C227.276 68.197 227.364 67.8855 227.364 67.5275C227.364 67.1828 227.287 66.8829 227.135 66.6277C226.982 66.3725 226.767 66.1736 226.489 66.0311C226.214 65.8886 225.889 65.8173 225.514 65.8173C225.163 65.8173 224.831 65.8819 224.52 66.0112C224.212 66.1371 223.96 66.3211 223.764 66.563C223.569 66.8017 223.463 67.09 223.446 67.4281H222.253C222.273 66.8945 222.433 66.4271 222.735 66.0261C223.037 65.6217 223.431 65.3069 223.918 65.0815C224.409 64.8561 224.947 64.7434 225.534 64.7434C226.164 64.7434 226.704 64.871 227.155 65.1262C227.606 65.3781 227.952 65.7112 228.194 66.1255C228.436 66.5398 228.557 66.9873 228.557 67.4679C228.557 68.0413 228.406 68.5301 228.104 68.9345C227.806 69.3388 227.4 69.6189 226.886 69.7747V69.8542C227.529 69.9603 228.031 70.2337 228.393 70.6745C228.754 71.112 228.935 71.6539 228.935 72.3002C228.935 72.8538 228.784 73.3509 228.482 73.7917C228.184 74.2292 227.776 74.5739 227.259 74.8258C226.742 75.0777 226.154 75.2037 225.494 75.2037ZM230.173 77.252V73.9707H230.809C230.965 73.8083 231.099 73.6326 231.212 73.4437C231.324 73.2548 231.422 73.0311 231.505 72.7725C231.591 72.5107 231.664 72.1925 231.724 71.818C231.783 71.4402 231.836 70.9844 231.883 70.4508L232.141 67.4281H236.994V73.9707H238.167V77.252H236.994V75.0645H231.346V77.252H230.173ZM232.141 73.9707H235.82V68.5218H233.235L233.036 70.4508C232.953 71.2496 232.851 71.9473 232.728 72.5439C232.605 73.1404 232.41 73.6161 232.141 73.9707ZM242.926 75.2235C242.19 75.2235 241.555 75.0611 241.022 74.7363C240.492 74.4082 240.082 73.9508 239.794 73.3642C239.509 72.7742 239.366 72.0881 239.366 71.3059C239.366 70.5237 239.509 69.8343 239.794 69.2377C240.082 68.6378 240.483 68.1705 240.997 67.8358C241.514 67.4977 242.117 67.3287 242.807 67.3287C243.204 67.3287 243.597 67.3949 243.985 67.5275C244.373 67.6601 244.726 67.8755 245.044 68.1738C245.362 68.4688 245.616 68.8599 245.805 69.3471C245.993 69.8343 246.088 70.4342 246.088 71.1468V71.644H240.202V70.6298H244.895C244.895 70.1989 244.809 69.8145 244.636 69.4764C244.467 69.1383 244.225 68.8715 243.91 68.676C243.599 68.4804 243.231 68.3826 242.807 68.3826C242.339 68.3826 241.935 68.4986 241.594 68.7306C241.256 68.9593 240.995 69.2576 240.813 69.6255C240.631 69.9934 240.54 70.3878 240.54 70.8088V71.4849C240.54 72.0616 240.639 72.5505 240.838 72.9515C241.04 73.3493 241.32 73.6525 241.678 73.8613C242.036 74.0668 242.452 74.1696 242.926 74.1696C243.234 74.1696 243.513 74.1265 243.761 74.0403C244.013 73.9508 244.23 73.8182 244.412 73.6426C244.595 73.4636 244.736 73.2415 244.835 72.9764L245.969 73.2946C245.849 73.679 245.649 74.0171 245.367 74.3088C245.085 74.5971 244.737 74.8225 244.323 74.9849C243.909 75.144 243.443 75.2235 242.926 75.2235ZM250.975 75.2235C250.259 75.2235 249.643 75.0545 249.126 74.7164C248.608 74.3784 248.211 73.9127 247.932 73.3194C247.654 72.7261 247.515 72.0484 247.515 71.286C247.515 70.5105 247.657 69.8261 247.942 69.2328C248.231 68.6362 248.632 68.1705 249.145 67.8358C249.662 67.4977 250.266 67.3287 250.955 67.3287C251.492 67.3287 251.976 67.4281 252.407 67.627C252.838 67.8258 253.191 68.1042 253.466 68.4622C253.741 68.8201 253.912 69.2377 253.978 69.715H252.805C252.715 69.367 252.516 69.0588 252.208 68.7903C251.903 68.5185 251.492 68.3826 250.975 68.3826C250.518 68.3826 250.117 68.502 249.772 68.7406C249.43 68.9759 249.164 69.309 248.971 69.7399C248.782 70.1674 248.688 70.6696 248.688 71.2463C248.688 71.8362 248.781 72.35 248.966 72.7875C249.155 73.225 249.421 73.5647 249.762 73.8066C250.107 74.0486 250.511 74.1696 250.975 74.1696C251.28 74.1696 251.557 74.1165 251.805 74.0105C252.054 73.9044 252.264 73.752 252.437 73.5531C252.609 73.3542 252.732 73.1156 252.805 72.8372H253.978C253.912 73.2879 253.747 73.694 253.486 74.0552C253.227 74.4132 252.884 74.6982 252.456 74.9103C252.032 75.1191 251.538 75.2235 250.975 75.2235ZM256.707 70.1923H258.895C259.79 70.1923 260.474 70.4193 260.948 70.8734C261.422 71.3275 261.659 71.9025 261.659 72.5985C261.659 73.0559 261.553 73.4719 261.341 73.8464C261.129 74.2176 260.817 74.5143 260.406 74.7363C259.995 74.9551 259.491 75.0645 258.895 75.0645H255.693V67.4281H256.866V73.9707H258.895C259.359 73.9707 259.74 73.8481 260.038 73.6028C260.336 73.3575 260.486 73.0427 260.486 72.6582C260.486 72.2538 260.336 71.9241 260.038 71.6689C259.74 71.4136 259.359 71.286 258.895 71.286H256.707V70.1923ZM270.584 75.2235C269.848 75.2235 269.214 75.0611 268.68 74.7363C268.15 74.4082 267.74 73.9508 267.452 73.3642C267.167 72.7742 267.025 72.0881 267.025 71.3059C267.025 70.5237 267.167 69.8343 267.452 69.2377C267.74 68.6378 268.141 68.1705 268.655 67.8358C269.172 67.4977 269.775 67.3287 270.465 67.3287C270.863 67.3287 271.255 67.3949 271.643 67.5275C272.031 67.6601 272.384 67.8755 272.702 68.1738C273.02 68.4688 273.274 68.8599 273.463 69.3471C273.652 69.8343 273.746 70.4342 273.746 71.1468V71.644H267.86V70.6298H272.553C272.553 70.1989 272.467 69.8145 272.294 69.4764C272.125 69.1383 271.883 68.8715 271.569 68.676C271.257 68.4804 270.889 68.3826 270.465 68.3826C269.998 68.3826 269.593 68.4986 269.252 68.7306C268.914 68.9593 268.654 69.2576 268.471 69.6255C268.289 69.9934 268.198 70.3878 268.198 70.8088V71.4849C268.198 72.0616 268.297 72.5505 268.496 72.9515C268.698 73.3493 268.978 73.6525 269.336 73.8613C269.694 74.0668 270.11 74.1696 270.584 74.1696C270.892 74.1696 271.171 74.1265 271.419 74.0403C271.671 73.9508 271.888 73.8182 272.071 73.6426C272.253 73.4636 272.394 73.2415 272.493 72.9764L273.627 73.2946C273.507 73.679 273.307 74.0171 273.025 74.3088C272.743 74.5971 272.395 74.8225 271.981 74.9849C271.567 75.144 271.101 75.2235 270.584 75.2235ZM278.633 75.2235C277.917 75.2235 277.301 75.0545 276.784 74.7164C276.267 74.3784 275.869 73.9127 275.591 73.3194C275.312 72.7261 275.173 72.0484 275.173 71.286C275.173 70.5105 275.315 69.8261 275.6 69.2328C275.889 68.6362 276.29 68.1705 276.804 67.8358C277.321 67.4977 277.924 67.3287 278.613 67.3287C279.15 67.3287 279.634 67.4281 280.065 67.627C280.496 67.8258 280.849 68.1042 281.124 68.4622C281.399 68.8201 281.57 69.2377 281.636 69.715H280.463C280.373 69.367 280.174 69.0588 279.866 68.7903C279.561 68.5185 279.15 68.3826 278.633 68.3826C278.176 68.3826 277.775 68.502 277.43 68.7406C277.089 68.9759 276.822 69.309 276.63 69.7399C276.441 70.1674 276.346 70.6696 276.346 71.2463C276.346 71.8362 276.439 72.35 276.625 72.7875C276.814 73.225 277.079 73.5647 277.42 73.8066C277.765 74.0486 278.169 74.1696 278.633 74.1696C278.938 74.1696 279.215 74.1165 279.463 74.0105C279.712 73.9044 279.922 73.752 280.095 73.5531C280.267 73.3542 280.39 73.1156 280.463 72.8372H281.636C281.57 73.2879 281.406 73.694 281.144 74.0552C280.885 74.4132 280.542 74.6982 280.115 74.9103C279.69 75.1191 279.197 75.2235 278.633 75.2235ZM282.75 68.5218V67.4281H288.954V68.5218H286.449V75.0645H285.275V68.5218H282.75ZM291.68 70.1923H293.867C294.762 70.1923 295.447 70.4193 295.921 70.8734C296.395 71.3275 296.632 71.9025 296.632 72.5985C296.632 73.0559 296.526 73.4719 296.313 73.8464C296.101 74.2176 295.79 74.5143 295.379 74.7363C294.968 74.9551 294.464 75.0645 293.867 75.0645H290.666V67.4281H291.839V73.9707H293.867C294.331 73.9707 294.713 73.8481 295.011 73.6028C295.309 73.3575 295.458 73.0427 295.458 72.6582C295.458 72.2538 295.309 71.9241 295.011 71.6689C294.713 71.4136 294.331 71.286 293.867 71.286H291.68V70.1923ZM301.918 68.5218V67.4281H308.122V68.5218H305.616V75.0645H304.443V68.5218H301.918ZM312.639 75.2235C311.903 75.2235 311.268 75.0611 310.735 74.7363C310.204 74.4082 309.795 73.9508 309.507 73.3642C309.222 72.7742 309.079 72.0881 309.079 71.3059C309.079 70.5237 309.222 69.8343 309.507 69.2377C309.795 68.6378 310.196 68.1705 310.71 67.8358C311.227 67.4977 311.83 67.3287 312.52 67.3287C312.917 67.3287 313.31 67.3949 313.698 67.5275C314.086 67.6601 314.439 67.8755 314.757 68.1738C315.075 68.4688 315.328 68.8599 315.517 69.3471C315.706 69.8343 315.801 70.4342 315.801 71.1468V71.644H309.914V70.6298H314.608C314.608 70.1989 314.521 69.8145 314.349 69.4764C314.18 69.1383 313.938 68.8715 313.623 68.676C313.312 68.4804 312.944 68.3826 312.52 68.3826C312.052 68.3826 311.648 68.4986 311.306 68.7306C310.968 68.9593 310.708 69.2576 310.526 69.6255C310.344 69.9934 310.252 70.3878 310.252 70.8088V71.4849C310.252 72.0616 310.352 72.5505 310.551 72.9515C310.753 73.3493 311.033 73.6525 311.391 73.8613C311.749 74.0668 312.165 74.1696 312.639 74.1696C312.947 74.1696 313.225 74.1265 313.474 74.0403C313.726 73.9508 313.943 73.8182 314.125 73.6426C314.308 73.4636 314.449 73.2415 314.548 72.9764L315.681 73.2946C315.562 73.679 315.362 74.0171 315.08 74.3088C314.798 74.5971 314.45 74.8225 314.036 74.9849C313.622 75.144 313.156 75.2235 312.639 75.2235ZM317.586 75.0645V67.4281H318.759V70.7491H319.534L322.279 67.4281H323.79L320.708 71.1071L323.83 75.0645H322.319L319.813 71.8429H318.759V75.0645H317.586ZM327.893 75.2235C327.177 75.2235 326.561 75.0545 326.044 74.7164C325.526 74.3784 325.129 73.9127 324.85 73.3194C324.572 72.7261 324.433 72.0484 324.433 71.286C324.433 70.5105 324.575 69.8261 324.86 69.2328C325.149 68.6362 325.55 68.1705 326.063 67.8358C326.58 67.4977 327.184 67.3287 327.873 67.3287C328.41 67.3287 328.894 67.4281 329.325 67.627C329.756 67.8258 330.109 68.1042 330.384 68.4622C330.659 68.8201 330.829 69.2377 330.896 69.715H329.722C329.633 69.367 329.434 69.0588 329.126 68.7903C328.821 68.5185 328.41 68.3826 327.893 68.3826C327.436 68.3826 327.035 68.502 326.69 68.7406C326.348 68.9759 326.082 69.309 325.889 69.7399C325.7 70.1674 325.606 70.6696 325.606 71.2463C325.606 71.8362 325.699 72.35 325.884 72.7875C326.073 73.225 326.338 73.5647 326.68 73.8066C327.025 74.0486 327.429 74.1696 327.893 74.1696C328.198 74.1696 328.475 74.1165 328.723 74.0105C328.972 73.9044 329.182 73.752 329.355 73.5531C329.527 73.3542 329.65 73.1156 329.722 72.8372H330.896C330.829 73.2879 330.665 73.694 330.404 74.0552C330.145 74.4132 329.802 74.6982 329.374 74.9103C328.95 75.1191 328.456 75.2235 327.893 75.2235ZM332.009 68.5218V67.4281H338.214V68.5218H335.708V75.0645H334.535V68.5218H332.009Z" fill="black"/>
<rect x="273" y="78.0645" width="76" height="27" rx="10" fill="#B2B2CA"/>
<path d="M295.119 97.0645V86.8826H298.847C299.57 86.8826 300.168 87.002 300.642 87.2406C301.116 87.4759 301.471 87.7958 301.706 88.2001C301.941 88.6011 302.059 89.0536 302.059 89.5574C302.059 89.9816 301.981 90.3395 301.825 90.6312C301.67 90.9196 301.461 91.1516 301.199 91.3272C300.94 91.4996 300.655 91.6255 300.344 91.7051V91.8045C300.682 91.8211 301.012 91.9305 301.333 92.1326C301.658 92.3315 301.926 92.6149 302.138 92.9828C302.351 93.3507 302.457 93.7981 302.457 94.3251C302.457 94.8455 302.334 95.3128 302.089 95.7271C301.847 96.1381 301.472 96.4645 300.965 96.7065C300.458 96.9451 299.81 97.0645 299.021 97.0645H295.119ZM296.655 95.747H298.872C299.608 95.747 300.135 95.6045 300.453 95.3194C300.771 95.0344 300.93 94.6781 300.93 94.2505C300.93 93.929 300.849 93.6341 300.687 93.3656C300.524 93.0971 300.292 92.8833 299.991 92.7243C299.692 92.5652 299.338 92.4856 298.927 92.4856H296.655V95.747ZM296.655 91.2875H298.713C299.058 91.2875 299.368 91.2212 299.643 91.0886C299.921 90.956 300.142 90.7704 300.304 90.5318C300.47 90.2898 300.553 90.0048 300.553 89.6767C300.553 89.2557 300.405 88.9028 300.11 88.6177C299.815 88.3327 299.363 88.1902 298.753 88.1902H296.655V91.2875ZM308.997 93.8975V89.4281H310.488V97.0645H309.027V95.742H308.947C308.771 96.1497 308.49 96.4894 308.102 96.7612C307.717 97.0297 307.239 97.1639 306.665 97.1639C306.175 97.1639 305.74 97.0562 305.363 96.8407C304.988 96.622 304.693 96.2988 304.478 95.8713C304.266 95.4437 304.159 94.9151 304.159 94.2853V89.4281H305.646V94.1064C305.646 94.6267 305.79 95.041 306.078 95.3493C306.367 95.6575 306.741 95.8116 307.202 95.8116C307.48 95.8116 307.757 95.742 308.032 95.6028C308.311 95.4636 308.541 95.2531 308.723 94.9714C308.909 94.6897 309 94.3317 308.997 93.8975ZM316.05 89.4281V90.6213H311.879V89.4281H316.05ZM312.998 87.5985H314.484V94.8223C314.484 95.1106 314.527 95.3277 314.613 95.4735C314.7 95.6161 314.811 95.7138 314.947 95.7669C315.086 95.8166 315.237 95.8414 315.399 95.8414C315.518 95.8414 315.623 95.8332 315.712 95.8166C315.802 95.8 315.871 95.7868 315.921 95.7768L316.189 97.0048C316.103 97.0379 315.981 97.0711 315.822 97.1042C315.662 97.1407 315.464 97.1606 315.225 97.1639C314.834 97.1705 314.469 97.1009 314.131 96.9551C313.793 96.8092 313.52 96.5839 313.311 96.2789C313.102 95.974 312.998 95.5912 312.998 95.1305V87.5985ZM321.259 89.4281V90.6213H317.088V89.4281H321.259ZM318.207 87.5985H319.693V94.8223C319.693 95.1106 319.736 95.3277 319.822 95.4735C319.909 95.6161 320.02 95.7138 320.156 95.7669C320.295 95.8166 320.446 95.8414 320.608 95.8414C320.727 95.8414 320.832 95.8332 320.921 95.8166C321.011 95.8 321.08 95.7868 321.13 95.7768L321.398 97.0048C321.312 97.0379 321.19 97.0711 321.031 97.1042C320.871 97.1407 320.673 97.1606 320.434 97.1639C320.043 97.1705 319.678 97.1009 319.34 96.9551C319.002 96.8092 318.729 96.5839 318.52 96.2789C318.311 95.974 318.207 95.5912 318.207 95.1305V87.5985ZM326.038 97.2186C325.322 97.2186 324.698 97.0545 324.164 96.7264C323.63 96.3983 323.216 95.9392 322.921 95.3493C322.626 94.7593 322.479 94.0699 322.479 93.2811C322.479 92.4889 322.626 91.7962 322.921 91.2029C323.216 90.6097 323.63 90.149 324.164 89.8208C324.698 89.4927 325.322 89.3287 326.038 89.3287C326.754 89.3287 327.379 89.4927 327.912 89.8208C328.446 90.149 328.86 90.6097 329.155 91.2029C329.45 91.7962 329.598 92.4889 329.598 93.2811C329.598 94.0699 329.45 94.7593 329.155 95.3493C328.86 95.9392 328.446 96.3983 327.912 96.7264C327.379 97.0545 326.754 97.2186 326.038 97.2186ZM326.043 95.9707C326.507 95.9707 326.892 95.8481 327.197 95.6028C327.501 95.3575 327.727 95.0311 327.873 94.6234C328.022 94.2157 328.096 93.7666 328.096 93.2761C328.096 92.7889 328.022 92.3414 327.873 91.9338C327.727 91.5228 327.501 91.193 327.197 90.9444C326.892 90.6958 326.507 90.5716 326.043 90.5716C325.576 90.5716 325.188 90.6958 324.88 90.9444C324.575 91.193 324.348 91.5228 324.199 91.9338C324.053 92.3414 323.98 92.7889 323.98 93.2761C323.98 93.7666 324.053 94.2157 324.199 94.6234C324.348 95.0311 324.575 95.3575 324.88 95.6028C325.188 95.8481 325.576 95.9707 326.043 95.9707ZM332.744 92.5304V97.0645H331.257V89.4281H332.684V90.671H332.778C332.954 90.2666 333.229 89.9418 333.604 89.6966C333.982 89.4513 334.457 89.3287 335.031 89.3287C335.551 89.3287 336.007 89.438 336.398 89.6568C336.789 89.8722 337.092 90.1937 337.308 90.6213C337.523 91.0488 337.631 91.5775 337.631 92.2072V97.0645H336.144V92.3862C336.144 91.8327 336 91.4002 335.712 91.0886C335.423 90.7737 335.027 90.6163 334.523 90.6163C334.179 90.6163 333.872 90.6909 333.604 90.84C333.339 90.9892 333.128 91.2079 332.972 91.4963C332.82 91.7813 332.744 92.126 332.744 92.5304Z" fill="#121231"/>
<path d="M293.393 169.064L308.811 153.646C310.396 152.061 310.396 149.491 308.811 147.906L306.158 145.253C304.573 143.668 302.004 143.668 300.419 145.253L285 160.672L269.581 145.253C267.996 143.668 265.427 143.668 263.842 145.253L261.189 147.906C259.604 149.491 259.604 152.061 261.189 153.646L276.607 169.064L261.189 184.483C259.604 186.068 259.604 188.638 261.189 190.222L263.842 192.876C265.427 194.461 267.996 194.461 269.581 192.876L285 177.457L300.419 192.876C302.004 194.461 304.573 194.461 306.158 192.876L308.811 190.222C310.396 188.638 310.396 186.068 308.811 184.483L293.393 169.064Z" fill="#FF473E"/>
<rect x="390" y="0.0644531" width="150" height="124" rx="15" fill="#E8E8E8"/>
<path d="M446.139 26.2555V23.9735H456.891V26.2555H452.883V37.0645H450.147V26.2555H446.139ZM461.661 37.2562C460.651 37.2562 459.781 37.0517 459.053 36.6426C458.328 36.2292 457.77 35.6454 457.378 34.8912C456.986 34.1326 456.79 33.2356 456.79 32.2001C456.79 31.1902 456.986 30.3038 457.378 29.541C457.77 28.7782 458.322 28.1838 459.034 27.7576C459.749 27.3315 460.589 27.1184 461.552 27.1184C462.2 27.1184 462.803 27.2228 463.361 27.4316C463.923 27.6362 464.414 27.9451 464.831 28.3585C465.253 28.7718 465.581 29.2917 465.816 29.9181C466.05 30.5403 466.167 31.269 466.167 32.1042V32.8521H457.877V31.1646H463.604C463.604 30.7725 463.519 30.4252 463.348 30.1227C463.178 29.8201 462.941 29.5836 462.639 29.4132C462.34 29.2385 461.993 29.1511 461.597 29.1511C461.183 29.1511 460.817 29.247 460.497 29.4387C460.182 29.6262 459.935 29.8798 459.756 30.1994C459.577 30.5147 459.485 30.8663 459.481 31.2541V32.8585C459.481 33.3443 459.57 33.764 459.749 34.1177C459.933 34.4714 460.191 34.7441 460.523 34.9359C460.855 35.1277 461.249 35.2235 461.705 35.2235C462.008 35.2235 462.285 35.1809 462.536 35.0957C462.788 35.0105 463.003 34.8826 463.182 34.7122C463.361 34.5417 463.497 34.3329 463.591 34.0858L466.11 34.252C465.982 34.8571 465.72 35.3855 465.323 35.8372C464.931 36.2846 464.424 36.6341 463.802 36.8855C463.184 37.1326 462.47 37.2562 461.661 37.2562ZM470.044 27.2463L471.846 30.6788L473.694 27.2463H476.487L473.643 32.1554L476.564 37.0645H473.783L471.846 33.6703L469.942 37.0645H467.129L470.044 32.1554L467.231 27.2463H470.044ZM483.327 27.2463V29.2917H477.414V27.2463H483.327ZM478.756 24.894H481.479V34.0474C481.479 34.2988 481.518 34.4949 481.594 34.6355C481.671 34.7718 481.778 34.8677 481.914 34.9231C482.055 34.9785 482.216 35.0062 482.4 35.0062C482.528 35.0062 482.655 34.9956 482.783 34.9743C482.911 34.9487 483.009 34.9295 483.077 34.9167L483.506 36.943C483.369 36.9856 483.177 37.0346 482.93 37.09C482.683 37.1497 482.383 37.1859 482.029 37.1987C481.373 37.2243 480.797 37.1369 480.303 36.9366C479.813 36.7363 479.432 36.4252 479.159 36.0034C478.886 35.5815 478.752 35.0488 478.756 34.4054V24.894Z" fill="black"/>
<path d="M405.494 65.2037C404.838 65.2037 404.253 65.091 403.739 64.8656C403.229 64.6402 402.823 64.327 402.521 63.926C402.223 63.5216 402.061 63.0526 402.034 62.519H403.287C403.313 62.8471 403.426 63.1305 403.625 63.3691C403.824 63.6045 404.084 63.7868 404.406 63.916C404.727 64.0453 405.083 64.1099 405.474 64.1099C405.912 64.1099 406.3 64.0337 406.638 63.8812C406.976 63.7288 407.241 63.5166 407.433 63.2449C407.625 62.9731 407.722 62.6582 407.722 62.3002C407.722 61.9257 407.629 61.5959 407.443 61.3109C407.258 61.0225 406.986 60.7972 406.628 60.6348C406.27 60.4724 405.832 60.3912 405.315 60.3912H404.5V59.2974H405.315C405.72 59.2974 406.074 59.2245 406.379 59.0787C406.688 58.9328 406.928 58.7273 407.1 58.4622C407.276 58.197 407.364 57.8855 407.364 57.5275C407.364 57.1828 407.287 56.8829 407.135 56.6277C406.982 56.3725 406.767 56.1736 406.489 56.0311C406.214 55.8886 405.889 55.8173 405.514 55.8173C405.163 55.8173 404.831 55.8819 404.52 56.0112C404.212 56.1371 403.96 56.3211 403.764 56.563C403.569 56.8017 403.463 57.09 403.446 57.4281H402.253C402.273 56.8945 402.433 56.4271 402.735 56.0261C403.037 55.6217 403.431 55.3069 403.918 55.0815C404.409 54.8561 404.947 54.7434 405.534 54.7434C406.164 54.7434 406.704 54.871 407.155 55.1262C407.606 55.3781 407.952 55.7112 408.194 56.1255C408.436 56.5398 408.557 56.9873 408.557 57.4679C408.557 58.0413 408.406 58.5301 408.104 58.9345C407.806 59.3388 407.4 59.6189 406.886 59.7747V59.8542C407.529 59.9603 408.031 60.2337 408.393 60.6745C408.754 61.112 408.935 61.6539 408.935 62.3002C408.935 62.8538 408.784 63.3509 408.482 63.7917C408.184 64.2292 407.776 64.5739 407.259 64.8258C406.742 65.0777 406.154 65.2037 405.494 65.2037ZM410.173 67.252V63.9707H410.809C410.965 63.8083 411.099 63.6326 411.212 63.4437C411.324 63.2548 411.422 63.0311 411.505 62.7725C411.591 62.5107 411.664 62.1925 411.724 61.818C411.783 61.4402 411.836 60.9844 411.883 60.4508L412.141 57.4281H416.994V63.9707H418.167V67.252H416.994V65.0645H411.346V67.252H410.173ZM412.141 63.9707H415.82V58.5218H413.235L413.036 60.4508C412.953 61.2496 412.851 61.9473 412.728 62.5439C412.605 63.1404 412.41 63.6161 412.141 63.9707ZM422.926 65.2235C422.19 65.2235 421.555 65.0611 421.022 64.7363C420.492 64.4082 420.082 63.9508 419.794 63.3642C419.509 62.7742 419.366 62.0881 419.366 61.3059C419.366 60.5237 419.509 59.8343 419.794 59.2377C420.082 58.6378 420.483 58.1705 420.997 57.8358C421.514 57.4977 422.117 57.3287 422.807 57.3287C423.204 57.3287 423.597 57.3949 423.985 57.5275C424.373 57.6601 424.726 57.8755 425.044 58.1738C425.362 58.4688 425.616 58.8599 425.805 59.3471C425.993 59.8343 426.088 60.4342 426.088 61.1468V61.644H420.202V60.6298H424.895C424.895 60.1989 424.809 59.8145 424.636 59.4764C424.467 59.1383 424.225 58.8715 423.91 58.676C423.599 58.4804 423.231 58.3826 422.807 58.3826C422.339 58.3826 421.935 58.4986 421.594 58.7306C421.256 58.9593 420.995 59.2576 420.813 59.6255C420.631 59.9934 420.54 60.3878 420.54 60.8088V61.4849C420.54 62.0616 420.639 62.5505 420.838 62.9515C421.04 63.3493 421.32 63.6525 421.678 63.8613C422.036 64.0668 422.452 64.1696 422.926 64.1696C423.234 64.1696 423.513 64.1265 423.761 64.0403C424.013 63.9508 424.23 63.8182 424.412 63.6426C424.595 63.4636 424.736 63.2415 424.835 62.9764L425.969 63.2946C425.849 63.679 425.649 64.0171 425.367 64.3088C425.085 64.5971 424.737 64.8225 424.323 64.9849C423.909 65.144 423.443 65.2235 422.926 65.2235ZM430.975 65.2235C430.259 65.2235 429.643 65.0545 429.126 64.7164C428.608 64.3784 428.211 63.9127 427.932 63.3194C427.654 62.7261 427.515 62.0484 427.515 61.286C427.515 60.5105 427.657 59.8261 427.942 59.2328C428.231 58.6362 428.632 58.1705 429.145 57.8358C429.662 57.4977 430.266 57.3287 430.955 57.3287C431.492 57.3287 431.976 57.4281 432.407 57.627C432.838 57.8258 433.191 58.1042 433.466 58.4622C433.741 58.8201 433.912 59.2377 433.978 59.715H432.805C432.715 59.367 432.516 59.0588 432.208 58.7903C431.903 58.5185 431.492 58.3826 430.975 58.3826C430.518 58.3826 430.117 58.502 429.772 58.7406C429.43 58.9759 429.164 59.309 428.971 59.7399C428.782 60.1674 428.688 60.6696 428.688 61.2463C428.688 61.8362 428.781 62.35 428.966 62.7875C429.155 63.225 429.421 63.5647 429.762 63.8066C430.107 64.0486 430.511 64.1696 430.975 64.1696C431.28 64.1696 431.557 64.1165 431.805 64.0105C432.054 63.9044 432.264 63.752 432.437 63.5531C432.609 63.3542 432.732 63.1156 432.805 62.8372H433.978C433.912 63.2879 433.747 63.694 433.486 64.0552C433.227 64.4132 432.884 64.6982 432.456 64.9103C432.032 65.1191 431.538 65.2235 430.975 65.2235ZM436.707 60.1923H438.895C439.79 60.1923 440.474 60.4193 440.948 60.8734C441.422 61.3275 441.659 61.9025 441.659 62.5985C441.659 63.0559 441.553 63.4719 441.341 63.8464C441.129 64.2176 440.817 64.5143 440.406 64.7363C439.995 64.9551 439.491 65.0645 438.895 65.0645H435.693V57.4281H436.866V63.9707H438.895C439.359 63.9707 439.74 63.8481 440.038 63.6028C440.336 63.3575 440.486 63.0427 440.486 62.6582C440.486 62.2538 440.336 61.9241 440.038 61.6689C439.74 61.4136 439.359 61.286 438.895 61.286H436.707V60.1923ZM450.584 65.2235C449.848 65.2235 449.214 65.0611 448.68 64.7363C448.15 64.4082 447.74 63.9508 447.452 63.3642C447.167 62.7742 447.025 62.0881 447.025 61.3059C447.025 60.5237 447.167 59.8343 447.452 59.2377C447.74 58.6378 448.141 58.1705 448.655 57.8358C449.172 57.4977 449.775 57.3287 450.465 57.3287C450.863 57.3287 451.255 57.3949 451.643 57.5275C452.031 57.6601 452.384 57.8755 452.702 58.1738C453.02 58.4688 453.274 58.8599 453.463 59.3471C453.652 59.8343 453.746 60.4342 453.746 61.1468V61.644H447.86V60.6298H452.553C452.553 60.1989 452.467 59.8145 452.294 59.4764C452.125 59.1383 451.883 58.8715 451.569 58.676C451.257 58.4804 450.889 58.3826 450.465 58.3826C449.998 58.3826 449.593 58.4986 449.252 58.7306C448.914 58.9593 448.654 59.2576 448.471 59.6255C448.289 59.9934 448.198 60.3878 448.198 60.8088V61.4849C448.198 62.0616 448.297 62.5505 448.496 62.9515C448.698 63.3493 448.978 63.6525 449.336 63.8613C449.694 64.0668 450.11 64.1696 450.584 64.1696C450.892 64.1696 451.171 64.1265 451.419 64.0403C451.671 63.9508 451.888 63.8182 452.071 63.6426C452.253 63.4636 452.394 63.2415 452.493 62.9764L453.627 63.2946C453.507 63.679 453.307 64.0171 453.025 64.3088C452.743 64.5971 452.395 64.8225 451.981 64.9849C451.567 65.144 451.101 65.2235 450.584 65.2235ZM458.633 65.2235C457.917 65.2235 457.301 65.0545 456.784 64.7164C456.267 64.3784 455.869 63.9127 455.591 63.3194C455.312 62.7261 455.173 62.0484 455.173 61.286C455.173 60.5105 455.315 59.8261 455.6 59.2328C455.889 58.6362 456.29 58.1705 456.804 57.8358C457.321 57.4977 457.924 57.3287 458.613 57.3287C459.15 57.3287 459.634 57.4281 460.065 57.627C460.496 57.8258 460.849 58.1042 461.124 58.4622C461.399 58.8201 461.57 59.2377 461.636 59.715H460.463C460.373 59.367 460.174 59.0588 459.866 58.7903C459.561 58.5185 459.15 58.3826 458.633 58.3826C458.176 58.3826 457.775 58.502 457.43 58.7406C457.089 58.9759 456.822 59.309 456.63 59.7399C456.441 60.1674 456.346 60.6696 456.346 61.2463C456.346 61.8362 456.439 62.35 456.625 62.7875C456.814 63.225 457.079 63.5647 457.42 63.8066C457.765 64.0486 458.169 64.1696 458.633 64.1696C458.938 64.1696 459.215 64.1165 459.463 64.0105C459.712 63.9044 459.922 63.752 460.095 63.5531C460.267 63.3542 460.39 63.1156 460.463 62.8372H461.636C461.57 63.2879 461.406 63.694 461.144 64.0552C460.885 64.4132 460.542 64.6982 460.115 64.9103C459.69 65.1191 459.197 65.2235 458.633 65.2235ZM462.75 58.5218V57.4281H468.954V58.5218H466.449V65.0645H465.275V58.5218H462.75ZM471.68 60.1923H473.867C474.762 60.1923 475.447 60.4193 475.921 60.8734C476.395 61.3275 476.632 61.9025 476.632 62.5985C476.632 63.0559 476.526 63.4719 476.313 63.8464C476.101 64.2176 475.79 64.5143 475.379 64.7363C474.968 64.9551 474.464 65.0645 473.867 65.0645H470.666V57.4281H471.839V63.9707H473.867C474.331 63.9707 474.713 63.8481 475.011 63.6028C475.309 63.3575 475.458 63.0427 475.458 62.6582C475.458 62.2538 475.309 61.9241 475.011 61.6689C474.713 61.4136 474.331 61.286 473.867 61.286H471.68V60.1923ZM481.918 58.5218V57.4281H488.122V58.5218H485.616V65.0645H484.443V58.5218H481.918ZM492.639 65.2235C491.903 65.2235 491.268 65.0611 490.735 64.7363C490.204 64.4082 489.795 63.9508 489.507 63.3642C489.222 62.7742 489.079 62.0881 489.079 61.3059C489.079 60.5237 489.222 59.8343 489.507 59.2377C489.795 58.6378 490.196 58.1705 490.71 57.8358C491.227 57.4977 491.83 57.3287 492.52 57.3287C492.917 57.3287 493.31 57.3949 493.698 57.5275C494.086 57.6601 494.439 57.8755 494.757 58.1738C495.075 58.4688 495.328 58.8599 495.517 59.3471C495.706 59.8343 495.801 60.4342 495.801 61.1468V61.644H489.914V60.6298H494.608C494.608 60.1989 494.521 59.8145 494.349 59.4764C494.18 59.1383 493.938 58.8715 493.623 58.676C493.312 58.4804 492.944 58.3826 492.52 58.3826C492.052 58.3826 491.648 58.4986 491.306 58.7306C490.968 58.9593 490.708 59.2576 490.526 59.6255C490.344 59.9934 490.252 60.3878 490.252 60.8088V61.4849C490.252 62.0616 490.352 62.5505 490.551 62.9515C490.753 63.3493 491.033 63.6525 491.391 63.8613C491.749 64.0668 492.165 64.1696 492.639 64.1696C492.947 64.1696 493.225 64.1265 493.474 64.0403C493.726 63.9508 493.943 63.8182 494.125 63.6426C494.308 63.4636 494.449 63.2415 494.548 62.9764L495.681 63.2946C495.562 63.679 495.362 64.0171 495.08 64.3088C494.798 64.5971 494.45 64.8225 494.036 64.9849C493.622 65.144 493.156 65.2235 492.639 65.2235ZM497.586 65.0645V57.4281H498.759V60.7491H499.534L502.279 57.4281H503.79L500.708 61.1071L503.83 65.0645H502.319L499.813 61.8429H498.759V65.0645H497.586ZM507.893 65.2235C507.177 65.2235 506.561 65.0545 506.044 64.7164C505.526 64.3784 505.129 63.9127 504.85 63.3194C504.572 62.7261 504.433 62.0484 504.433 61.286C504.433 60.5105 504.575 59.8261 504.86 59.2328C505.149 58.6362 505.55 58.1705 506.063 57.8358C506.58 57.4977 507.184 57.3287 507.873 57.3287C508.41 57.3287 508.894 57.4281 509.325 57.627C509.756 57.8258 510.109 58.1042 510.384 58.4622C510.659 58.8201 510.829 59.2377 510.896 59.715H509.722C509.633 59.367 509.434 59.0588 509.126 58.7903C508.821 58.5185 508.41 58.3826 507.893 58.3826C507.436 58.3826 507.035 58.502 506.69 58.7406C506.348 58.9759 506.082 59.309 505.889 59.7399C505.7 60.1674 505.606 60.6696 505.606 61.2463C505.606 61.8362 505.699 62.35 505.884 62.7875C506.073 63.225 506.338 63.5647 506.68 63.8066C507.025 64.0486 507.429 64.1696 507.893 64.1696C508.198 64.1696 508.475 64.1165 508.723 64.0105C508.972 63.9044 509.182 63.752 509.355 63.5531C509.527 63.3542 509.65 63.1156 509.722 62.8372H510.896C510.829 63.2879 510.665 63.694 510.404 64.0552C510.145 64.4132 509.802 64.6982 509.374 64.9103C508.95 65.1191 508.456 65.2235 507.893 65.2235ZM512.009 58.5218V57.4281H518.214V58.5218H515.708V65.0645H514.535V58.5218H512.009Z" fill="black"/>
<rect x="432.5" y="78.0645" width="65" height="27" rx="10" fill="#B2B2CA"/>
<path d="M443.619 97.0645V86.8826H447.347C448.07 86.8826 448.668 87.002 449.142 87.2406C449.616 87.4759 449.971 87.7958 450.206 88.2001C450.441 88.6011 450.559 89.0536 450.559 89.5574C450.559 89.9816 450.481 90.3395 450.325 90.6312C450.17 90.9196 449.961 91.1516 449.699 91.3272C449.44 91.4996 449.155 91.6255 448.844 91.7051V91.8045C449.182 91.8211 449.512 91.9305 449.833 92.1326C450.158 92.3315 450.426 92.6149 450.638 92.9828C450.851 93.3507 450.957 93.7981 450.957 94.3251C450.957 94.8455 450.834 95.3128 450.589 95.7271C450.347 96.1381 449.972 96.4645 449.465 96.7065C448.958 96.9451 448.31 97.0645 447.521 97.0645H443.619ZM445.155 95.747H447.372C448.108 95.747 448.635 95.6045 448.953 95.3194C449.271 95.0344 449.43 94.6781 449.43 94.2505C449.43 93.929 449.349 93.6341 449.187 93.3656C449.024 93.0971 448.792 92.8833 448.491 92.7243C448.192 92.5652 447.838 92.4856 447.427 92.4856H445.155V95.747ZM445.155 91.2875H447.213C447.558 91.2875 447.868 91.2212 448.143 91.0886C448.421 90.956 448.642 90.7704 448.804 90.5318C448.97 90.2898 449.053 90.0048 449.053 89.6767C449.053 89.2557 448.905 88.9028 448.61 88.6177C448.315 88.3327 447.863 88.1902 447.253 88.1902H445.155V91.2875ZM457.497 93.8975V89.4281H458.988V97.0645H457.527V95.742H457.447C457.271 96.1497 456.99 96.4894 456.602 96.7612C456.217 97.0297 455.739 97.1639 455.165 97.1639C454.675 97.1639 454.24 97.0562 453.863 96.8407C453.488 96.622 453.193 96.2988 452.978 95.8713C452.766 95.4437 452.659 94.9151 452.659 94.2853V89.4281H454.146V94.1064C454.146 94.6267 454.29 95.041 454.578 95.3493C454.867 95.6575 455.241 95.8116 455.702 95.8116C455.98 95.8116 456.257 95.742 456.532 95.6028C456.811 95.4636 457.041 95.2531 457.223 94.9714C457.409 94.6897 457.5 94.3317 457.497 93.8975ZM464.55 89.4281V90.6213H460.379V89.4281H464.55ZM461.498 87.5985H462.984V94.8223C462.984 95.1106 463.027 95.3277 463.113 95.4735C463.2 95.6161 463.311 95.7138 463.447 95.7669C463.586 95.8166 463.737 95.8414 463.899 95.8414C464.018 95.8414 464.123 95.8332 464.212 95.8166C464.302 95.8 464.371 95.7868 464.421 95.7768L464.689 97.0048C464.603 97.0379 464.481 97.0711 464.322 97.1042C464.162 97.1407 463.964 97.1606 463.725 97.1639C463.334 97.1705 462.969 97.1009 462.631 96.9551C462.293 96.8092 462.02 96.5839 461.811 96.2789C461.602 95.974 461.498 95.5912 461.498 95.1305V87.5985ZM469.759 89.4281V90.6213H465.588V89.4281H469.759ZM466.707 87.5985H468.193V94.8223C468.193 95.1106 468.236 95.3277 468.322 95.4735C468.409 95.6161 468.52 95.7138 468.656 95.7669C468.795 95.8166 468.946 95.8414 469.108 95.8414C469.227 95.8414 469.332 95.8332 469.421 95.8166C469.511 95.8 469.58 95.7868 469.63 95.7768L469.898 97.0048C469.812 97.0379 469.69 97.0711 469.531 97.1042C469.371 97.1407 469.173 97.1606 468.934 97.1639C468.543 97.1705 468.178 97.1009 467.84 96.9551C467.502 96.8092 467.229 96.5839 467.02 96.2789C466.811 95.974 466.707 95.5912 466.707 95.1305V87.5985ZM474.538 97.2186C473.822 97.2186 473.198 97.0545 472.664 96.7264C472.13 96.3983 471.716 95.9392 471.421 95.3493C471.126 94.7593 470.979 94.0699 470.979 93.2811C470.979 92.4889 471.126 91.7962 471.421 91.2029C471.716 90.6097 472.13 90.149 472.664 89.8208C473.198 89.4927 473.822 89.3287 474.538 89.3287C475.254 89.3287 475.879 89.4927 476.412 89.8208C476.946 90.149 477.36 90.6097 477.655 91.2029C477.95 91.7962 478.098 92.4889 478.098 93.2811C478.098 94.0699 477.95 94.7593 477.655 95.3493C477.36 95.9392 476.946 96.3983 476.412 96.7264C475.879 97.0545 475.254 97.2186 474.538 97.2186ZM474.543 95.9707C475.007 95.9707 475.392 95.8481 475.697 95.6028C476.001 95.3575 476.227 95.0311 476.373 94.6234C476.522 94.2157 476.596 93.7666 476.596 93.2761C476.596 92.7889 476.522 92.3414 476.373 91.9338C476.227 91.5228 476.001 91.193 475.697 90.9444C475.392 90.6958 475.007 90.5716 474.543 90.5716C474.076 90.5716 473.688 90.6958 473.38 90.9444C473.075 91.193 472.848 91.5228 472.699 91.9338C472.553 92.3414 472.48 92.7889 472.48 93.2761C472.48 93.7666 472.553 94.2157 472.699 94.6234C472.848 95.0311 473.075 95.3575 473.38 95.6028C473.688 95.8481 474.076 95.9707 474.543 95.9707ZM481.244 92.5304V97.0645H479.757V89.4281H481.184V90.671H481.278C481.454 90.2666 481.729 89.9418 482.104 89.6966C482.482 89.4513 482.957 89.3287 483.531 89.3287C484.051 89.3287 484.507 89.438 484.898 89.6568C485.289 89.8722 485.592 90.1937 485.808 90.6213C486.023 91.0488 486.131 91.5775 486.131 92.2072V97.0645H484.644V92.3862C484.644 91.8327 484.5 91.4002 484.212 91.0886C483.923 90.7737 483.527 90.6163 483.023 90.6163C482.679 90.6163 482.372 90.6909 482.104 90.84C481.839 90.9892 481.628 91.2079 481.472 91.4963C481.32 91.7813 481.244 92.126 481.244 92.5304Z" fill="#121231"/>
<path d="M489.014 148.796L481.316 144.334C480.368 143.784 479.15 144.102 478.597 145.044L459.724 177.147L447.298 169.945C446.529 169.499 445.542 169.756 445.093 170.52L440.22 178.809C439.771 179.572 440.031 180.552 440.799 180.998L462.964 193.846C463.733 194.292 464.72 194.034 465.169 193.271L465.348 192.965C465.352 192.959 465.356 192.954 465.36 192.948L489.729 151.496C490.282 150.555 489.962 149.346 489.014 148.796Z" fill="#61A05F"/>
</svg>
