<svg width="510" height="311" viewBox="0 0 510 311" fill="none" xmlns="http://www.w3.org/2000/svg">
<rect x="1.5" y="233.499" width="305.372" height="73" rx="13.5" fill="#4C4C4C"/>
<rect x="1.5" y="233.499" width="305.372" height="73" rx="13.5" stroke="#252525" stroke-width="3"/>
<path d="M36.5092 259.181V280.999H31.8963V259.181H36.5092ZM44.7576 271.539V280.999H40.2193V264.635H44.5446V267.522H44.7363C45.0985 266.571 45.7058 265.818 46.5581 265.264C47.4103 264.703 48.4437 264.422 49.6582 264.422C50.7946 264.422 51.7853 264.671 52.6305 265.168C53.4757 265.665 54.1326 266.375 54.6014 267.299C55.0701 268.215 55.3045 269.309 55.3045 270.58V280.999H50.7662V271.39C50.7733 270.388 50.5176 269.607 49.9991 269.046C49.4806 268.478 48.7669 268.194 47.8578 268.194C47.247 268.194 46.7072 268.325 46.2385 268.588C45.7768 268.851 45.4146 269.234 45.1518 269.738C44.8961 270.236 44.7647 270.836 44.7576 271.539ZM58.8814 287.135V264.635H63.3558V267.384H63.5582C63.7571 266.944 64.0447 266.496 64.4212 266.042C64.8047 265.58 65.3018 265.196 65.9126 264.891C66.5305 264.579 67.2976 264.422 68.2138 264.422C69.407 264.422 70.5078 264.735 71.5163 265.36C72.5249 265.978 73.331 266.912 73.9347 268.162C74.5384 269.405 74.8402 270.964 74.8402 272.839C74.8402 274.664 74.5455 276.205 73.956 277.462C73.3736 278.712 72.5781 279.66 71.5696 280.307C70.5682 280.946 69.446 281.265 68.2031 281.265C67.3224 281.265 66.5732 281.12 65.9553 280.829C65.3445 280.537 64.8438 280.172 64.4531 279.731C64.0625 279.284 63.7642 278.833 63.5582 278.378H63.4197V287.135H58.8814ZM63.3239 272.817C63.3239 273.79 63.4588 274.639 63.7287 275.363C63.9986 276.088 64.3892 276.652 64.9006 277.057C65.4119 277.455 66.0334 277.654 66.7649 277.654C67.5036 277.654 68.1286 277.451 68.6399 277.047C69.1513 276.635 69.5384 276.066 69.8011 275.342C70.071 274.611 70.206 273.769 70.206 272.817C70.206 271.873 70.0746 271.042 69.8118 270.324C69.549 269.607 69.1619 269.046 68.6506 268.641C68.1392 268.236 67.5107 268.034 66.7649 268.034C66.0263 268.034 65.4013 268.229 64.8899 268.62C64.3857 269.01 63.9986 269.564 63.7287 270.282C63.4588 270.999 63.3239 271.844 63.3239 272.817ZM88.3594 274.032V264.635H92.8977V280.999H88.5405V278.027H88.37C88.0007 278.986 87.3864 279.756 86.527 280.339C85.6747 280.921 84.6342 281.212 83.4055 281.212C82.3118 281.212 81.3494 280.964 80.5185 280.466C79.6875 279.969 79.0376 279.263 78.5689 278.346C78.1072 277.43 77.8729 276.333 77.8658 275.054V264.635H82.4041V274.245C82.4112 275.211 82.6705 275.974 83.1818 276.535C83.6932 277.096 84.3786 277.377 85.2379 277.377C85.7848 277.377 86.2962 277.253 86.772 277.004C87.2479 276.748 87.6314 276.372 87.9226 275.875C88.2209 275.378 88.3665 274.763 88.3594 274.032ZM105.232 264.635V268.044H95.3773V264.635H105.232ZM97.6145 260.715H102.153V275.971C102.153 276.39 102.217 276.716 102.345 276.951C102.472 277.178 102.65 277.338 102.877 277.43C103.112 277.522 103.382 277.569 103.687 277.569C103.9 277.569 104.113 277.551 104.326 277.515C104.539 277.473 104.703 277.441 104.816 277.419L105.53 280.797C105.303 280.868 104.983 280.949 104.571 281.042C104.159 281.141 103.659 281.201 103.069 281.223C101.975 281.265 101.017 281.12 100.193 280.786C99.3759 280.452 98.7402 279.934 98.2857 279.231C97.8311 278.527 97.6074 277.64 97.6145 276.567V260.715ZM110.841 281.276C110.138 281.276 109.534 281.027 109.03 280.53C108.532 280.026 108.284 279.422 108.284 278.719C108.284 278.023 108.532 277.427 109.03 276.929C109.534 276.432 110.138 276.184 110.841 276.184C111.523 276.184 112.119 276.432 112.631 276.929C113.142 277.427 113.398 278.023 113.398 278.719C113.398 279.188 113.277 279.618 113.035 280.008C112.801 280.392 112.492 280.701 112.108 280.935C111.725 281.162 111.302 281.276 110.841 281.276ZM119.776 281.276C119.073 281.276 118.469 281.027 117.965 280.53C117.468 280.026 117.219 279.422 117.219 278.719C117.219 278.023 117.468 277.427 117.965 276.929C118.469 276.432 119.073 276.184 119.776 276.184C120.458 276.184 121.055 276.432 121.566 276.929C122.077 277.427 122.333 278.023 122.333 278.719C122.333 279.188 122.212 279.618 121.971 280.008C121.737 280.392 121.428 280.701 121.044 280.935C120.661 281.162 120.238 281.276 119.776 281.276ZM128.712 281.276C128.009 281.276 127.405 281.027 126.901 280.53C126.404 280.026 126.155 279.422 126.155 278.719C126.155 278.023 126.404 277.427 126.901 276.929C127.405 276.432 128.009 276.184 128.712 276.184C129.394 276.184 129.99 276.432 130.502 276.929C131.013 277.427 131.269 278.023 131.269 278.719C131.269 279.188 131.148 279.618 130.906 280.008C130.672 280.392 130.363 280.701 129.98 280.935C129.596 281.162 129.173 281.276 128.712 281.276Z" fill="white" fill-opacity="0.5"/>
<rect x="319.154" y="212.064" width="190.846" height="98" rx="15" fill="#4C4C4C"/>
<path d="M392.111 251.064V240.155H393.731V241.803H393.844C394.043 241.263 394.403 240.825 394.924 240.489C395.445 240.153 396.032 239.985 396.685 239.985C396.808 239.985 396.962 239.987 397.147 239.992C397.331 239.997 397.471 240.004 397.566 240.013V241.718C397.509 241.704 397.379 241.682 397.175 241.654C396.976 241.621 396.766 241.604 396.543 241.604C396.013 241.604 395.539 241.715 395.123 241.938C394.711 242.156 394.384 242.459 394.142 242.847C393.906 243.231 393.787 243.669 393.787 244.161V251.064H392.111ZM402.763 251.32C402.072 251.32 401.444 251.19 400.881 250.93C400.317 250.664 399.87 250.283 399.538 249.786C399.207 249.284 399.041 248.678 399.041 247.968C399.041 247.343 399.164 246.836 399.411 246.448C399.657 246.055 399.986 245.747 400.398 245.525C400.81 245.302 401.264 245.136 401.761 245.028C402.263 244.914 402.768 244.824 403.274 244.758C403.937 244.672 404.475 244.608 404.886 244.566C405.303 244.519 405.606 244.44 405.796 244.331C405.99 244.223 406.087 244.033 406.087 243.763V243.706C406.087 243.006 405.895 242.461 405.511 242.073C405.133 241.685 404.557 241.491 403.786 241.491C402.985 241.491 402.358 241.666 401.903 242.016C401.449 242.367 401.129 242.741 400.945 243.138L399.354 242.57C399.638 241.907 400.017 241.391 400.49 241.022C400.968 240.648 401.489 240.387 402.053 240.241C402.621 240.089 403.18 240.013 403.729 240.013C404.079 240.013 404.482 240.056 404.936 240.141C405.395 240.222 405.838 240.39 406.264 240.645C406.695 240.901 407.053 241.287 407.337 241.803C407.621 242.319 407.763 243.01 407.763 243.877V251.064H406.087V249.587H406.002C405.888 249.824 405.698 250.077 405.433 250.347C405.168 250.617 404.815 250.847 404.375 251.036C403.935 251.225 403.397 251.32 402.763 251.32ZM403.019 249.814C403.681 249.814 404.24 249.684 404.695 249.424C405.154 249.163 405.5 248.827 405.732 248.415C405.968 248.003 406.087 247.57 406.087 247.116V245.581C406.016 245.667 405.859 245.745 405.618 245.816C405.381 245.882 405.107 245.941 404.794 245.993C404.486 246.041 404.186 246.083 403.892 246.121C403.603 246.154 403.369 246.183 403.189 246.206C402.753 246.263 402.346 246.356 401.967 246.483C401.593 246.607 401.29 246.794 401.058 247.045C400.831 247.291 400.717 247.627 400.717 248.053C400.717 248.635 400.933 249.076 401.364 249.374C401.799 249.668 402.351 249.814 403.019 249.814ZM414.941 251.292C414.032 251.292 413.23 251.062 412.534 250.603C411.838 250.139 411.293 249.485 410.9 248.643C410.507 247.795 410.311 246.794 410.311 245.638C410.311 244.492 410.507 243.498 410.9 242.655C411.293 241.813 411.84 241.162 412.541 240.702C413.242 240.243 414.051 240.013 414.97 240.013C415.68 240.013 416.241 240.132 416.653 240.368C417.07 240.6 417.387 240.866 417.605 241.164C417.827 241.457 418 241.699 418.123 241.888H418.265V236.519H419.941V251.064H418.322V249.388H418.123C418 249.587 417.825 249.838 417.598 250.141C417.37 250.439 417.046 250.707 416.625 250.944C416.203 251.176 415.642 251.292 414.941 251.292ZM415.169 249.786C415.841 249.786 416.409 249.611 416.873 249.26C417.337 248.905 417.69 248.415 417.932 247.79C418.173 247.161 418.294 246.434 418.294 245.61C418.294 244.796 418.175 244.083 417.939 243.472C417.702 242.857 417.352 242.378 416.888 242.037C416.424 241.692 415.851 241.519 415.169 241.519C414.459 241.519 413.867 241.701 413.393 242.066C412.924 242.426 412.572 242.916 412.335 243.536C412.103 244.152 411.987 244.843 411.987 245.61C411.987 246.386 412.105 247.092 412.342 247.726C412.584 248.356 412.939 248.858 413.407 249.232C413.881 249.601 414.468 249.786 415.169 249.786ZM423.244 251.064V240.155H424.92V251.064H423.244ZM424.096 238.337C423.77 238.337 423.488 238.226 423.251 238.003C423.019 237.781 422.903 237.513 422.903 237.201C422.903 236.888 423.019 236.621 423.251 236.398C423.488 236.176 423.77 236.064 424.096 236.064C424.423 236.064 424.702 236.176 424.934 236.398C425.171 236.621 425.29 236.888 425.29 237.201C425.29 237.513 425.171 237.781 424.934 238.003C424.702 238.226 424.423 238.337 424.096 238.337ZM432.422 251.292C431.437 251.292 430.573 251.057 429.83 250.589C429.091 250.12 428.513 249.464 428.097 248.621C427.685 247.778 427.479 246.794 427.479 245.667C427.479 244.53 427.685 243.538 428.097 242.691C428.513 241.843 429.091 241.185 429.83 240.716C430.573 240.248 431.437 240.013 432.422 240.013C433.407 240.013 434.269 240.248 435.007 240.716C435.751 241.185 436.328 241.843 436.74 242.691C437.157 243.538 437.365 244.53 437.365 245.667C437.365 246.794 437.157 247.778 436.74 248.621C436.328 249.464 435.751 250.12 435.007 250.589C434.269 251.057 433.407 251.292 432.422 251.292ZM432.422 249.786C433.17 249.786 433.786 249.594 434.269 249.211C434.752 248.827 435.109 248.323 435.341 247.698C435.573 247.073 435.689 246.396 435.689 245.667C435.689 244.938 435.573 244.258 435.341 243.628C435.109 242.999 434.752 242.49 434.269 242.101C433.786 241.713 433.17 241.519 432.422 241.519C431.674 241.519 431.058 241.713 430.575 242.101C430.092 242.49 429.735 242.999 429.503 243.628C429.271 244.258 429.155 244.938 429.155 245.667C429.155 246.396 429.271 247.073 429.503 247.698C429.735 248.323 430.092 248.827 430.575 249.211C431.058 249.594 431.674 249.786 432.422 249.786Z" fill="white"/>
<path d="M356.577 278.064C356.577 274.198 359.711 271.064 363.577 271.064C367.443 271.064 370.577 274.198 370.577 278.064C370.577 281.93 367.443 285.064 363.577 285.064C359.711 285.064 356.577 281.93 356.577 278.064Z" fill="#AAAAAA" stroke="#E0E0E0"/>
<path d="M383.691 289.155C383.407 289.155 383.153 289.132 382.931 289.084C382.708 289.042 382.554 288.999 382.469 288.956L382.895 287.479C383.303 287.583 383.662 287.621 383.975 287.593C384.287 287.564 384.564 287.425 384.806 287.174C385.052 286.928 385.277 286.528 385.481 285.974L385.793 285.121L381.759 274.155H383.577L386.589 282.849H386.702L389.714 274.155H391.532L386.901 286.655C386.693 287.219 386.435 287.685 386.127 288.055C385.819 288.429 385.462 288.706 385.054 288.885C384.652 289.065 384.197 289.155 383.691 289.155ZM397.927 285.292C396.876 285.292 395.969 285.06 395.207 284.596C394.45 284.127 393.865 283.474 393.453 282.635C393.046 281.793 392.842 280.813 392.842 279.695C392.842 278.578 393.046 277.593 393.453 276.741C393.865 275.884 394.438 275.216 395.172 274.738C395.91 274.255 396.772 274.013 397.757 274.013C398.325 274.013 398.886 274.108 399.44 274.297C399.994 274.487 400.498 274.795 400.953 275.221C401.407 275.642 401.77 276.201 402.04 276.897C402.309 277.593 402.444 278.45 402.444 279.468V280.178H394.035V278.729H400.74C400.74 278.114 400.617 277.564 400.37 277.081C400.129 276.599 399.783 276.217 399.334 275.938C398.888 275.659 398.363 275.519 397.757 275.519C397.089 275.519 396.512 275.685 396.024 276.016C395.541 276.343 395.169 276.769 394.909 277.295C394.648 277.82 394.518 278.384 394.518 278.985V279.951C394.518 280.775 394.66 281.473 394.944 282.046C395.233 282.614 395.633 283.047 396.145 283.346C396.656 283.639 397.25 283.786 397.927 283.786C398.368 283.786 398.765 283.724 399.12 283.601C399.48 283.474 399.79 283.284 400.051 283.033C400.311 282.778 400.513 282.46 400.655 282.081L402.274 282.536C402.103 283.085 401.817 283.568 401.415 283.985C401.012 284.397 400.515 284.719 399.923 284.951C399.331 285.178 398.666 285.292 397.927 285.292ZM412.721 276.599L411.216 277.025C411.121 276.774 410.981 276.53 410.797 276.293C410.617 276.052 410.37 275.853 410.058 275.697C409.745 275.54 409.345 275.462 408.858 275.462C408.19 275.462 407.634 275.616 407.189 275.924C406.748 276.227 406.528 276.613 406.528 277.081C406.528 277.498 406.68 277.827 406.983 278.069C407.286 278.31 407.759 278.511 408.403 278.672L410.022 279.07C410.998 279.307 411.725 279.669 412.203 280.157C412.681 280.64 412.92 281.262 412.92 282.025C412.92 282.65 412.74 283.208 412.38 283.701C412.025 284.193 411.528 284.581 410.889 284.866C410.25 285.15 409.506 285.292 408.659 285.292C407.546 285.292 406.625 285.05 405.896 284.567C405.167 284.084 404.705 283.379 404.511 282.451L406.102 282.053C406.254 282.64 406.54 283.081 406.961 283.374C407.388 283.668 407.944 283.814 408.63 283.814C409.412 283.814 410.032 283.649 410.491 283.317C410.955 282.981 411.187 282.579 411.187 282.11C411.187 281.731 411.055 281.414 410.79 281.158C410.524 280.898 410.117 280.704 409.568 280.576L407.75 280.15C406.751 279.913 406.017 279.546 405.548 279.049C405.084 278.547 404.852 277.92 404.852 277.167C404.852 276.551 405.025 276.007 405.37 275.533C405.721 275.06 406.197 274.688 406.798 274.418C407.404 274.148 408.091 274.013 408.858 274.013C409.937 274.013 410.785 274.25 411.4 274.724C412.021 275.197 412.461 275.822 412.721 276.599Z" fill="#030202"/>
<path d="M424.577 278.064C424.577 274.198 427.711 271.064 431.577 271.064C435.443 271.064 438.577 274.198 438.577 278.064C438.577 281.93 435.443 285.064 431.577 285.064C427.711 285.064 424.577 281.93 424.577 278.064Z" fill="#181313" stroke="#E0E0E0"/>
<circle cx="431.577" cy="278.064" r="4.5" fill="#413838"/>
<path d="M452.287 278.502V285.064H450.611V274.155H452.231V275.86H452.373C452.628 275.306 453.017 274.861 453.537 274.525C454.058 274.184 454.731 274.013 455.554 274.013C456.293 274.013 456.939 274.165 457.493 274.468C458.047 274.766 458.478 275.221 458.786 275.831C459.094 276.438 459.248 277.205 459.248 278.133V285.064H457.571V278.246C457.571 277.389 457.349 276.722 456.904 276.243C456.459 275.76 455.848 275.519 455.071 275.519C454.536 275.519 454.058 275.635 453.637 275.867C453.22 276.099 452.891 276.438 452.65 276.883C452.408 277.328 452.287 277.867 452.287 278.502ZM466.742 285.292C465.757 285.292 464.893 285.057 464.15 284.589C463.411 284.12 462.834 283.464 462.417 282.621C462.005 281.778 461.799 280.794 461.799 279.667C461.799 278.53 462.005 277.538 462.417 276.691C462.834 275.843 463.411 275.185 464.15 274.716C464.893 274.248 465.757 274.013 466.742 274.013C467.727 274.013 468.589 274.248 469.328 274.716C470.071 275.185 470.649 275.843 471.06 276.691C471.477 277.538 471.685 278.53 471.685 279.667C471.685 280.794 471.477 281.778 471.06 282.621C470.649 283.464 470.071 284.12 469.328 284.589C468.589 285.057 467.727 285.292 466.742 285.292ZM466.742 283.786C467.49 283.786 468.106 283.594 468.589 283.211C469.072 282.827 469.429 282.323 469.661 281.698C469.893 281.073 470.009 280.396 470.009 279.667C470.009 278.938 469.893 278.258 469.661 277.628C469.429 276.999 469.072 276.49 468.589 276.101C468.106 275.713 467.49 275.519 466.742 275.519C465.994 275.519 465.379 275.713 464.896 276.101C464.413 276.49 464.055 276.999 463.823 277.628C463.591 278.258 463.475 278.938 463.475 279.667C463.475 280.396 463.591 281.073 463.823 281.698C464.055 282.323 464.413 282.827 464.896 283.211C465.379 283.594 465.994 283.786 466.742 283.786Z" fill="#030202"/>
<rect x="0.5" y="0.499023" width="213.567" height="211" rx="4.5" stroke="#9747FF" stroke-dasharray="10 5"/>
<rect x="21.5" y="21.499" width="156" height="73" rx="13.5" fill="#4C4C4C"/>
<rect x="21.5" y="21.499" width="156" height="73" rx="13.5" stroke="white" stroke-width="3"/>
<path d="M51.8963 68.999V47.1808H60.6321C62.2372 47.1808 63.576 47.4188 64.6484 47.8946C65.7209 48.3705 66.527 49.031 67.0668 49.8762C67.6065 50.7142 67.8764 51.6801 67.8764 52.7739C67.8764 53.6262 67.706 54.3754 67.3651 55.0218C67.0241 55.661 66.5554 56.1865 65.9588 56.5985C65.3693 57.0033 64.6946 57.2909 63.9347 57.4614V57.6744C64.7656 57.71 65.5433 57.9443 66.2678 58.3776C66.9993 58.8108 67.5923 59.4181 68.0469 60.1993C68.5014 60.9735 68.7287 61.8968 68.7287 62.9692C68.7287 64.1269 68.4411 65.1602 67.8658 66.0693C67.2976 66.9713 66.456 67.6851 65.3409 68.2107C64.2259 68.7362 62.8516 68.999 61.218 68.999H51.8963ZM56.5092 65.2277H60.2699C61.5554 65.2277 62.4929 64.9827 63.0824 64.4926C63.6719 63.9955 63.9666 63.335 63.9666 62.5111C63.9666 61.9074 63.821 61.3747 63.5298 60.9131C63.2386 60.4514 62.8232 60.0892 62.2834 59.8264C61.7507 59.5637 61.1151 59.4323 60.3764 59.4323H56.5092V65.2277ZM56.5092 56.3108H59.929C60.5611 56.3108 61.1222 56.2007 61.6122 55.9806C62.1094 55.7533 62.5 55.4337 62.7841 55.0218C63.0753 54.6098 63.2209 54.1162 63.2209 53.5409C63.2209 52.7526 62.9403 52.1169 62.3793 51.634C61.8253 51.151 61.0369 50.9095 60.0142 50.9095H56.5092V56.3108ZM82.1387 62.0317V52.6354H86.677V68.999H82.3198V66.0267H82.1493C81.78 66.9855 81.1657 67.7561 80.3063 68.3385C79.454 68.9209 78.4135 69.2121 77.1848 69.2121C76.0911 69.2121 75.1287 68.9635 74.2978 68.4664C73.4668 67.9692 72.8169 67.2625 72.3482 66.3463C71.8865 65.4301 71.6522 64.3328 71.6451 63.0544V52.6354H76.1834V62.2448C76.1905 63.2107 76.4498 63.9742 76.9611 64.5352C77.4725 65.0963 78.1578 65.3769 79.0172 65.3769C79.5641 65.3769 80.0755 65.2526 80.5513 65.004C81.0272 64.7483 81.4107 64.3719 81.7019 63.8747C82.0002 63.3776 82.1458 62.7632 82.1387 62.0317ZM99.011 52.6354V56.0445H89.1566V52.6354H99.011ZM91.3938 48.7149H95.9322V63.9706C95.9322 64.3896 95.9961 64.7164 96.1239 64.9507C96.2518 65.178 96.4293 65.3378 96.6566 65.4301C96.891 65.5225 97.1609 65.5686 97.4663 65.5686C97.6793 65.5686 97.8924 65.5509 98.1055 65.5154C98.3185 65.4727 98.4819 65.4408 98.5955 65.4195L99.3093 68.7966C99.082 68.8676 98.7624 68.9493 98.3505 69.0416C97.9386 69.1411 97.4379 69.2014 96.8484 69.2227C95.7546 69.2654 94.7958 69.1198 93.9719 68.786C93.1552 68.4521 92.5195 67.9337 92.065 67.2306C91.6104 66.5274 91.3867 65.6396 91.3938 64.5672V48.7149ZM110.671 52.6354V56.0445H100.817V52.6354H110.671ZM103.054 48.7149H107.592V63.9706C107.592 64.3896 107.656 64.7164 107.784 64.9507C107.912 65.178 108.089 65.3378 108.317 65.4301C108.551 65.5225 108.821 65.5686 109.126 65.5686C109.339 65.5686 109.553 65.5509 109.766 65.5154C109.979 65.4727 110.142 65.4408 110.256 65.4195L110.969 68.7966C110.742 68.8676 110.423 68.9493 110.011 69.0416C109.599 69.1411 109.098 69.2014 108.509 69.2227C107.415 69.2654 106.456 69.1198 105.632 68.786C104.815 68.4521 104.18 67.9337 103.725 67.2306C103.271 66.5274 103.047 65.6396 103.054 64.5672V48.7149ZM120.845 69.3186C119.19 69.3186 117.759 68.9671 116.552 68.2639C115.352 67.5537 114.425 66.5665 113.771 65.3023C113.118 64.031 112.791 62.5573 112.791 60.8811C112.791 59.1908 113.118 57.7135 113.771 56.4493C114.425 55.178 115.352 54.1908 116.552 53.4877C117.759 52.7774 119.19 52.4223 120.845 52.4223C122.5 52.4223 123.928 52.7774 125.128 53.4877C126.335 54.1908 127.266 55.178 127.919 56.4493C128.572 57.7135 128.899 59.1908 128.899 60.8811C128.899 62.5573 128.572 64.031 127.919 65.3023C127.266 66.5665 126.335 67.5537 125.128 68.2639C123.928 68.9671 122.5 69.3186 120.845 69.3186ZM120.866 65.803C121.619 65.803 122.248 65.5899 122.752 65.1638C123.256 64.7306 123.636 64.1411 123.892 63.3953C124.155 62.6496 124.286 61.8009 124.286 60.8492C124.286 59.8975 124.155 59.0487 123.892 58.303C123.636 57.5573 123.256 56.9678 122.752 56.5345C122.248 56.1013 121.619 55.8847 120.866 55.8847C120.107 55.8847 119.467 56.1013 118.949 56.5345C118.438 56.9678 118.05 57.5573 117.788 58.303C117.532 59.0487 117.404 59.8975 117.404 60.8492C117.404 61.8009 117.532 62.6496 117.788 63.3953C118.05 64.1411 118.438 64.7306 118.949 65.1638C119.467 65.5899 120.107 65.803 120.866 65.803ZM136.388 59.5388V68.999H131.85V52.6354H136.175V55.5225H136.367C136.729 54.5708 137.337 53.8179 138.189 53.2639C139.041 52.7029 140.075 52.4223 141.289 52.4223C142.425 52.4223 143.416 52.6709 144.261 53.1681C145.107 53.6652 145.763 54.3754 146.232 55.2987C146.701 56.2149 146.935 57.3087 146.935 58.58V68.999H142.397V59.3896C142.404 58.3882 142.148 57.607 141.63 57.0459C141.112 56.4777 140.398 56.1936 139.489 56.1936C138.878 56.1936 138.338 56.325 137.869 56.5878C137.408 56.8506 137.045 57.2341 136.783 57.7384C136.527 58.2355 136.396 58.8357 136.388 59.5388Z" fill="white"/>
<rect x="21.5" y="117.499" width="156" height="73" rx="13.5" fill="white"/>
<rect x="21.5" y="117.499" width="156" height="73" rx="13.5" stroke="#4C4C4C" stroke-width="3"/>
<path d="M51.8963 164.999V143.181H60.6321C62.2372 143.181 63.576 143.419 64.6484 143.895C65.7209 144.37 66.527 145.031 67.0668 145.876C67.6065 146.714 67.8764 147.68 67.8764 148.774C67.8764 149.626 67.706 150.375 67.3651 151.022C67.0241 151.661 66.5554 152.187 65.9588 152.598C65.3693 153.003 64.6946 153.291 63.9347 153.461V153.674C64.7656 153.71 65.5433 153.944 66.2678 154.378C66.9993 154.811 67.5923 155.418 68.0469 156.199C68.5014 156.973 68.7287 157.897 68.7287 158.969C68.7287 160.127 68.4411 161.16 67.8658 162.069C67.2976 162.971 66.456 163.685 65.3409 164.211C64.2259 164.736 62.8516 164.999 61.218 164.999H51.8963ZM56.5092 161.228H60.2699C61.5554 161.228 62.4929 160.983 63.0824 160.493C63.6719 159.995 63.9666 159.335 63.9666 158.511C63.9666 157.907 63.821 157.375 63.5298 156.913C63.2386 156.451 62.8232 156.089 62.2834 155.826C61.7507 155.564 61.1151 155.432 60.3764 155.432H56.5092V161.228ZM56.5092 152.311H59.929C60.5611 152.311 61.1222 152.201 61.6122 151.981C62.1094 151.753 62.5 151.434 62.7841 151.022C63.0753 150.61 63.2209 150.116 63.2209 149.541C63.2209 148.753 62.9403 148.117 62.3793 147.634C61.8253 147.151 61.0369 146.91 60.0142 146.91H56.5092V152.311ZM82.1387 158.032V148.635H86.677V164.999H82.3198V162.027H82.1493C81.78 162.986 81.1657 163.756 80.3063 164.339C79.454 164.921 78.4135 165.212 77.1848 165.212C76.0911 165.212 75.1287 164.964 74.2978 164.466C73.4668 163.969 72.8169 163.263 72.3482 162.346C71.8865 161.43 71.6522 160.333 71.6451 159.054V148.635H76.1834V158.245C76.1905 159.211 76.4498 159.974 76.9611 160.535C77.4725 161.096 78.1578 161.377 79.0172 161.377C79.5641 161.377 80.0755 161.253 80.5513 161.004C81.0272 160.748 81.4107 160.372 81.7019 159.875C82.0002 159.378 82.1458 158.763 82.1387 158.032ZM99.011 148.635V152.044H89.1566V148.635H99.011ZM91.3938 144.715H95.9322V159.971C95.9322 160.39 95.9961 160.716 96.1239 160.951C96.2518 161.178 96.4293 161.338 96.6566 161.43C96.891 161.522 97.1609 161.569 97.4663 161.569C97.6793 161.569 97.8924 161.551 98.1055 161.515C98.3185 161.473 98.4819 161.441 98.5955 161.419L99.3093 164.797C99.082 164.868 98.7624 164.949 98.3505 165.042C97.9386 165.141 97.4379 165.201 96.8484 165.223C95.7546 165.265 94.7958 165.12 93.9719 164.786C93.1552 164.452 92.5195 163.934 92.065 163.231C91.6104 162.527 91.3867 161.64 91.3938 160.567V144.715ZM110.671 148.635V152.044H100.817V148.635H110.671ZM103.054 144.715H107.592V159.971C107.592 160.39 107.656 160.716 107.784 160.951C107.912 161.178 108.089 161.338 108.317 161.43C108.551 161.522 108.821 161.569 109.126 161.569C109.339 161.569 109.553 161.551 109.766 161.515C109.979 161.473 110.142 161.441 110.256 161.419L110.969 164.797C110.742 164.868 110.423 164.949 110.011 165.042C109.599 165.141 109.098 165.201 108.509 165.223C107.415 165.265 106.456 165.12 105.632 164.786C104.815 164.452 104.18 163.934 103.725 163.231C103.271 162.527 103.047 161.64 103.054 160.567V144.715ZM120.845 165.319C119.19 165.319 117.759 164.967 116.552 164.264C115.352 163.554 114.425 162.566 113.771 161.302C113.118 160.031 112.791 158.557 112.791 156.881C112.791 155.191 113.118 153.714 113.771 152.449C114.425 151.178 115.352 150.191 116.552 149.488C117.759 148.777 119.19 148.422 120.845 148.422C122.5 148.422 123.928 148.777 125.128 149.488C126.335 150.191 127.266 151.178 127.919 152.449C128.572 153.714 128.899 155.191 128.899 156.881C128.899 158.557 128.572 160.031 127.919 161.302C127.266 162.566 126.335 163.554 125.128 164.264C123.928 164.967 122.5 165.319 120.845 165.319ZM120.866 161.803C121.619 161.803 122.248 161.59 122.752 161.164C123.256 160.731 123.636 160.141 123.892 159.395C124.155 158.65 124.286 157.801 124.286 156.849C124.286 155.897 124.155 155.049 123.892 154.303C123.636 153.557 123.256 152.968 122.752 152.535C122.248 152.101 121.619 151.885 120.866 151.885C120.107 151.885 119.467 152.101 118.949 152.535C118.438 152.968 118.05 153.557 117.788 154.303C117.532 155.049 117.404 155.897 117.404 156.849C117.404 157.801 117.532 158.65 117.788 159.395C118.05 160.141 118.438 160.731 118.949 161.164C119.467 161.59 120.107 161.803 120.866 161.803ZM136.388 155.539V164.999H131.85V148.635H136.175V151.522H136.367C136.729 150.571 137.337 149.818 138.189 149.264C139.041 148.703 140.075 148.422 141.289 148.422C142.425 148.422 143.416 148.671 144.261 149.168C145.107 149.665 145.763 150.375 146.232 151.299C146.701 152.215 146.935 153.309 146.935 154.58V164.999H142.397V155.39C142.404 154.388 142.148 153.607 141.63 153.046C141.112 152.478 140.398 152.194 139.489 152.194C138.878 152.194 138.338 152.325 137.869 152.588C137.408 152.851 137.045 153.234 136.783 153.738C136.527 154.236 136.396 154.836 136.388 155.539Z" fill="#4C4C4C"/>
<rect x="236.631" y="12.499" width="236.209" height="187" rx="4.5" stroke="#9747FF" stroke-dasharray="10 5"/>
<rect x="257.631" y="33.499" width="177" height="61" rx="13.5" fill="#4C4C4C"/>
<rect x="257.631" y="33.499" width="177" height="61" rx="13.5" stroke="#E0E0E0" stroke-width="3"/>
<path d="M286.631 56.999H300.631V70.999H286.631V56.999Z" fill="#AAAAAA" stroke="#E0E0E0"/>
<path d="M324.597 60.999H322.836C322.731 60.4924 322.549 60.0473 322.289 59.6638C322.033 59.2803 321.721 58.9583 321.351 58.6979C320.987 58.4327 320.582 58.2339 320.137 58.1013C319.692 57.9687 319.228 57.9024 318.745 57.9024C317.864 57.9024 317.066 58.125 316.351 58.57C315.641 59.0151 315.075 59.6709 314.654 60.5374C314.237 61.4039 314.029 62.4668 314.029 63.7263C314.029 64.9858 314.237 66.0487 314.654 66.9152C315.075 67.7817 315.641 68.4375 316.351 68.8825C317.066 69.3276 317.864 69.5502 318.745 69.5502C319.228 69.5502 319.692 69.4839 320.137 69.3513C320.582 69.2187 320.987 69.0222 321.351 68.7618C321.721 68.4967 322.033 68.1723 322.289 67.7888C322.549 67.4005 322.731 66.9555 322.836 66.4536H324.597C324.464 67.1969 324.223 67.8622 323.873 68.4493C323.522 69.0364 323.087 69.536 322.566 69.9479C322.045 70.3551 321.46 70.6652 320.812 70.8783C320.168 71.0914 319.479 71.1979 318.745 71.1979C317.504 71.1979 316.401 70.8949 315.435 70.2888C314.469 69.6827 313.709 68.821 313.155 67.7036C312.601 66.5861 312.324 65.2604 312.324 63.7263C312.324 62.1922 312.601 60.8664 313.155 59.749C313.709 58.6316 314.469 57.7699 315.435 57.1638C316.401 56.5577 317.504 56.2547 318.745 56.2547C319.479 56.2547 320.168 56.3612 320.812 56.5743C321.46 56.7874 322.045 57.0999 322.566 57.5118C323.087 57.919 323.522 58.4162 323.873 59.0033C324.223 59.5857 324.464 60.2509 324.597 60.999ZM328.892 64.4365V70.999H327.216V56.4536H328.892V61.7945H329.034C329.29 61.231 329.673 60.7836 330.185 60.4521C330.701 60.116 331.387 59.9479 332.244 59.9479C332.988 59.9479 333.639 60.097 334.198 60.3953C334.756 60.6889 335.189 61.1411 335.497 61.7519C335.81 62.3579 335.966 63.1297 335.966 64.0672V70.999H334.29V64.1808C334.29 63.3144 334.065 62.6444 333.615 62.1709C333.17 61.6927 332.552 61.4536 331.761 61.4536C331.212 61.4536 330.72 61.5696 330.284 61.8016C329.853 62.0336 329.512 62.3721 329.261 62.8172C329.015 63.2623 328.892 63.8021 328.892 64.4365ZM343.606 71.2263C342.555 71.2263 341.648 70.9943 340.886 70.5303C340.128 70.0615 339.544 69.4081 339.132 68.57C338.725 67.7272 338.521 66.7471 338.521 65.6297C338.521 64.5123 338.725 63.5274 339.132 62.6752C339.544 61.8182 340.117 61.1505 340.851 60.6723C341.589 60.1894 342.451 59.9479 343.436 59.9479C344.004 59.9479 344.565 60.0426 345.119 60.232C345.673 60.4214 346.177 60.7291 346.632 61.1553C347.086 61.5767 347.449 62.1354 347.718 62.8314C347.988 63.5274 348.123 64.3844 348.123 65.4024V66.1127H339.714V64.6638H346.419C346.419 64.0483 346.296 63.499 346.049 63.0161C345.808 62.5331 345.462 62.152 345.012 61.8726C344.567 61.5932 344.042 61.4536 343.436 61.4536C342.768 61.4536 342.191 61.6193 341.703 61.9507C341.22 62.2774 340.848 62.7036 340.588 63.2291C340.327 63.7547 340.197 64.3182 340.197 64.9195V65.8854C340.197 66.7093 340.339 67.4076 340.623 67.9806C340.912 68.5487 341.312 68.982 341.824 69.2803C342.335 69.5738 342.929 69.7206 343.606 69.7206C344.047 69.7206 344.444 69.6591 344.799 69.536C345.159 69.4081 345.469 69.2187 345.73 68.9678C345.99 68.7121 346.191 68.3949 346.334 68.0161L347.953 68.4706C347.782 69.0199 347.496 69.5028 347.093 69.9195C346.691 70.3314 346.194 70.6534 345.602 70.8854C345.01 71.1127 344.345 71.2263 343.606 71.2263ZM355.105 71.2263C354.082 71.2263 353.201 70.9848 352.463 70.5019C351.724 70.0189 351.156 69.3537 350.758 68.5061C350.361 67.6586 350.162 66.6903 350.162 65.6013C350.162 64.4933 350.365 63.5156 350.772 62.6681C351.184 61.8158 351.757 61.1505 352.491 60.6723C353.23 60.1894 354.092 59.9479 355.076 59.9479C355.843 59.9479 356.535 60.0899 357.15 60.374C357.766 60.6581 358.27 61.0558 358.663 61.5672C359.056 62.0786 359.3 62.6752 359.395 63.357H357.718C357.591 62.8598 357.307 62.4195 356.866 62.036C356.431 61.6477 355.843 61.4536 355.105 61.4536C354.451 61.4536 353.878 61.624 353.386 61.9649C352.898 62.3011 352.517 62.777 352.243 63.3925C351.973 64.0033 351.838 64.7206 351.838 65.5445C351.838 66.3873 351.97 67.1212 352.236 67.7462C352.505 68.3712 352.884 68.8565 353.372 69.2021C353.864 69.5478 354.442 69.7206 355.105 69.7206C355.54 69.7206 355.936 69.6449 356.291 69.4933C356.646 69.3418 356.947 69.124 357.193 68.8399C357.439 68.5558 357.614 68.2149 357.718 67.8172H359.395C359.3 68.4611 359.066 69.0412 358.691 69.5573C358.322 70.0686 357.832 70.4758 357.221 70.7789C356.615 71.0771 355.91 71.2263 355.105 71.2263ZM363.407 67.0218L363.379 64.9479H363.72L368.493 60.0899H370.566L365.481 65.232H365.339L363.407 67.0218ZM361.845 70.999V56.4536H363.521V70.999H361.845ZM368.777 70.999L364.515 65.6013L365.709 64.4365L370.907 70.999H368.777ZM372.951 70.999V56.4536H374.627V61.8229H374.769C374.892 61.6335 375.063 61.392 375.281 61.0985C375.503 60.8002 375.82 60.535 376.232 60.303C376.649 60.0663 377.212 59.9479 377.923 59.9479C378.841 59.9479 379.651 60.1775 380.352 60.6368C381.052 61.0961 381.599 61.7471 381.992 62.5899C382.385 63.4327 382.582 64.4271 382.582 65.5729C382.582 66.7282 382.385 67.7296 381.992 68.5771C381.599 69.42 381.055 70.0734 380.359 70.5374C379.663 70.9967 378.86 71.2263 377.951 71.2263C377.25 71.2263 376.689 71.1103 376.268 70.8783C375.846 70.6415 375.522 70.374 375.295 70.0757C375.068 69.7727 374.892 69.5218 374.769 69.3229H374.57V70.999H372.951ZM374.599 65.5445C374.599 66.3683 374.72 67.0951 374.961 67.7249C375.202 68.3499 375.555 68.8399 376.019 69.195C376.483 69.5454 377.051 69.7206 377.724 69.7206C378.425 69.7206 379.009 69.536 379.478 69.1666C379.952 68.7926 380.307 68.2907 380.543 67.661C380.785 67.0265 380.906 66.321 380.906 65.5445C380.906 64.7774 380.787 64.0861 380.55 63.4706C380.318 62.8503 379.966 62.3603 379.492 62.0004C379.024 61.6359 378.434 61.4536 377.724 61.4536C377.042 61.4536 376.469 61.6264 376.005 61.972C375.541 62.3129 375.191 62.7912 374.954 63.4067C374.717 64.0175 374.599 64.7301 374.599 65.5445ZM389.577 71.2263C388.593 71.2263 387.729 70.9919 386.985 70.5232C386.247 70.0544 385.669 69.3986 385.252 68.5558C384.84 67.713 384.634 66.7282 384.634 65.6013C384.634 64.4649 384.84 63.473 385.252 62.6254C385.669 61.7779 386.247 61.1198 386.985 60.651C387.729 60.1823 388.593 59.9479 389.577 59.9479C390.562 59.9479 391.424 60.1823 392.163 60.651C392.906 61.1198 393.484 61.7779 393.896 62.6254C394.312 63.473 394.521 64.4649 394.521 65.6013C394.521 66.7282 394.312 67.713 393.896 68.5558C393.484 69.3986 392.906 70.0544 392.163 70.5232C391.424 70.9919 390.562 71.2263 389.577 71.2263ZM389.577 69.7206C390.326 69.7206 390.941 69.5289 391.424 69.1453C391.907 68.7618 392.265 68.2575 392.497 67.6325C392.729 67.0075 392.845 66.3305 392.845 65.6013C392.845 64.8721 392.729 64.1927 392.497 63.5629C392.265 62.9332 391.907 62.4242 391.424 62.036C390.941 61.6477 390.326 61.4536 389.577 61.4536C388.829 61.4536 388.214 61.6477 387.731 62.036C387.248 62.4242 386.89 62.9332 386.658 63.5629C386.426 64.1927 386.31 64.8721 386.31 65.6013C386.31 66.3305 386.426 67.0075 386.658 67.6325C386.89 68.2575 387.248 68.7618 387.731 69.1453C388.214 69.5289 388.829 69.7206 389.577 69.7206ZM397.88 60.0899L400.494 64.5502L403.107 60.0899H405.039L401.516 65.5445L405.039 70.999H403.107L400.494 66.7661L397.88 70.999H395.948L399.414 65.5445L395.948 60.0899H397.88Z" fill="#030202"/>
<rect x="257.631" y="117.499" width="177" height="61" rx="13.5" fill="#4C4C4C"/>
<rect x="257.631" y="117.499" width="177" height="61" rx="13.5" stroke="white" stroke-width="3"/>
<path d="M286.631 140.999H300.631V154.999H286.631V140.999Z" fill="#130101" stroke="#E0E0E0"/>
<path d="M324.597 144.999H322.836C322.731 144.492 322.549 144.047 322.289 143.664C322.033 143.28 321.721 142.958 321.351 142.698C320.987 142.433 320.582 142.234 320.137 142.101C319.692 141.969 319.228 141.902 318.745 141.902C317.864 141.902 317.066 142.125 316.351 142.57C315.641 143.015 315.075 143.671 314.654 144.537C314.237 145.404 314.029 146.467 314.029 147.726C314.029 148.986 314.237 150.049 314.654 150.915C315.075 151.782 315.641 152.437 316.351 152.883C317.066 153.328 317.864 153.55 318.745 153.55C319.228 153.55 319.692 153.484 320.137 153.351C320.582 153.219 320.987 153.022 321.351 152.762C321.721 152.497 322.033 152.172 322.289 151.789C322.549 151.401 322.731 150.955 322.836 150.454H324.597C324.464 151.197 324.223 151.862 323.873 152.449C323.522 153.036 323.087 153.536 322.566 153.948C322.045 154.355 321.46 154.665 320.812 154.878C320.168 155.091 319.479 155.198 318.745 155.198C317.504 155.198 316.401 154.895 315.435 154.289C314.469 153.683 313.709 152.821 313.155 151.704C312.601 150.586 312.324 149.26 312.324 147.726C312.324 146.192 312.601 144.866 313.155 143.749C313.709 142.632 314.469 141.77 315.435 141.164C316.401 140.558 317.504 140.255 318.745 140.255C319.479 140.255 320.168 140.361 320.812 140.574C321.46 140.787 322.045 141.1 322.566 141.512C323.087 141.919 323.522 142.416 323.873 143.003C324.223 143.586 324.464 144.251 324.597 144.999ZM328.892 148.437V154.999H327.216V140.454H328.892V145.794H329.034C329.29 145.231 329.673 144.784 330.185 144.452C330.701 144.116 331.387 143.948 332.244 143.948C332.988 143.948 333.639 144.097 334.198 144.395C334.756 144.689 335.189 145.141 335.497 145.752C335.81 146.358 335.966 147.13 335.966 148.067V154.999H334.29V148.181C334.29 147.314 334.065 146.644 333.615 146.171C333.17 145.693 332.552 145.454 331.761 145.454C331.212 145.454 330.72 145.57 330.284 145.802C329.853 146.034 329.512 146.372 329.261 146.817C329.015 147.262 328.892 147.802 328.892 148.437ZM343.606 155.226C342.555 155.226 341.648 154.994 340.886 154.53C340.128 154.062 339.544 153.408 339.132 152.57C338.725 151.727 338.521 150.747 338.521 149.63C338.521 148.512 338.725 147.527 339.132 146.675C339.544 145.818 340.117 145.151 340.851 144.672C341.589 144.189 342.451 143.948 343.436 143.948C344.004 143.948 344.565 144.043 345.119 144.232C345.673 144.421 346.177 144.729 346.632 145.155C347.086 145.577 347.449 146.135 347.718 146.831C347.988 147.527 348.123 148.384 348.123 149.402V150.113H339.714V148.664H346.419C346.419 148.048 346.296 147.499 346.049 147.016C345.808 146.533 345.462 146.152 345.012 145.873C344.567 145.593 344.042 145.454 343.436 145.454C342.768 145.454 342.191 145.619 341.703 145.951C341.22 146.277 340.848 146.704 340.588 147.229C340.327 147.755 340.197 148.318 340.197 148.919V149.885C340.197 150.709 340.339 151.408 340.623 151.981C340.912 152.549 341.312 152.982 341.824 153.28C342.335 153.574 342.929 153.721 343.606 153.721C344.047 153.721 344.444 153.659 344.799 153.536C345.159 153.408 345.469 153.219 345.73 152.968C345.99 152.712 346.191 152.395 346.334 152.016L347.953 152.471C347.782 153.02 347.496 153.503 347.093 153.919C346.691 154.331 346.194 154.653 345.602 154.885C345.01 155.113 344.345 155.226 343.606 155.226ZM355.105 155.226C354.082 155.226 353.201 154.985 352.463 154.502C351.724 154.019 351.156 153.354 350.758 152.506C350.361 151.659 350.162 150.69 350.162 149.601C350.162 148.493 350.365 147.516 350.772 146.668C351.184 145.816 351.757 145.151 352.491 144.672C353.23 144.189 354.092 143.948 355.076 143.948C355.843 143.948 356.535 144.09 357.15 144.374C357.766 144.658 358.27 145.056 358.663 145.567C359.056 146.079 359.3 146.675 359.395 147.357H357.718C357.591 146.86 357.307 146.419 356.866 146.036C356.431 145.648 355.843 145.454 355.105 145.454C354.451 145.454 353.878 145.624 353.386 145.965C352.898 146.301 352.517 146.777 352.243 147.392C351.973 148.003 351.838 148.721 351.838 149.544C351.838 150.387 351.97 151.121 352.236 151.746C352.505 152.371 352.884 152.857 353.372 153.202C353.864 153.548 354.442 153.721 355.105 153.721C355.54 153.721 355.936 153.645 356.291 153.493C356.646 153.342 356.947 153.124 357.193 152.84C357.439 152.556 357.614 152.215 357.718 151.817H359.395C359.3 152.461 359.066 153.041 358.691 153.557C358.322 154.069 357.832 154.476 357.221 154.779C356.615 155.077 355.91 155.226 355.105 155.226ZM363.407 151.022L363.379 148.948H363.72L368.493 144.09H370.566L365.481 149.232H365.339L363.407 151.022ZM361.845 154.999V140.454H363.521V154.999H361.845ZM368.777 154.999L364.515 149.601L365.709 148.437L370.907 154.999H368.777ZM372.951 154.999V140.454H374.627V145.823H374.769C374.892 145.633 375.063 145.392 375.281 145.098C375.503 144.8 375.82 144.535 376.232 144.303C376.649 144.066 377.212 143.948 377.923 143.948C378.841 143.948 379.651 144.178 380.352 144.637C381.052 145.096 381.599 145.747 381.992 146.59C382.385 147.433 382.582 148.427 382.582 149.573C382.582 150.728 382.385 151.73 381.992 152.577C381.599 153.42 381.055 154.073 380.359 154.537C379.663 154.997 378.86 155.226 377.951 155.226C377.25 155.226 376.689 155.11 376.268 154.878C375.846 154.642 375.522 154.374 375.295 154.076C375.068 153.773 374.892 153.522 374.769 153.323H374.57V154.999H372.951ZM374.599 149.544C374.599 150.368 374.72 151.095 374.961 151.725C375.202 152.35 375.555 152.84 376.019 153.195C376.483 153.545 377.051 153.721 377.724 153.721C378.425 153.721 379.009 153.536 379.478 153.167C379.952 152.793 380.307 152.291 380.543 151.661C380.785 151.026 380.906 150.321 380.906 149.544C380.906 148.777 380.787 148.086 380.55 147.471C380.318 146.85 379.966 146.36 379.492 146C379.024 145.636 378.434 145.454 377.724 145.454C377.042 145.454 376.469 145.626 376.005 145.972C375.541 146.313 375.191 146.791 374.954 147.407C374.717 148.017 374.599 148.73 374.599 149.544ZM389.577 155.226C388.593 155.226 387.729 154.992 386.985 154.523C386.247 154.054 385.669 153.399 385.252 152.556C384.84 151.713 384.634 150.728 384.634 149.601C384.634 148.465 384.84 147.473 385.252 146.625C385.669 145.778 386.247 145.12 386.985 144.651C387.729 144.182 388.593 143.948 389.577 143.948C390.562 143.948 391.424 144.182 392.163 144.651C392.906 145.12 393.484 145.778 393.896 146.625C394.312 147.473 394.521 148.465 394.521 149.601C394.521 150.728 394.312 151.713 393.896 152.556C393.484 153.399 392.906 154.054 392.163 154.523C391.424 154.992 390.562 155.226 389.577 155.226ZM389.577 153.721C390.326 153.721 390.941 153.529 391.424 153.145C391.907 152.762 392.265 152.258 392.497 151.633C392.729 151.008 392.845 150.33 392.845 149.601C392.845 148.872 392.729 148.193 392.497 147.563C392.265 146.933 391.907 146.424 391.424 146.036C390.941 145.648 390.326 145.454 389.577 145.454C388.829 145.454 388.214 145.648 387.731 146.036C387.248 146.424 386.89 146.933 386.658 147.563C386.426 148.193 386.31 148.872 386.31 149.601C386.31 150.33 386.426 151.008 386.658 151.633C386.89 152.258 387.248 152.762 387.731 153.145C388.214 153.529 388.829 153.721 389.577 153.721ZM397.88 144.09L400.494 148.55L403.107 144.09H405.039L401.516 149.544L405.039 154.999H403.107L400.494 150.766L397.88 154.999H395.948L399.414 149.544L395.948 144.09H397.88Z" fill="#030202"/>
</svg>
