<svg width="540" height="190" viewBox="0 0 540 190" fill="none" xmlns="http://www.w3.org/2000/svg">
<path d="M42.0767 59.5645L36.4688 52.1241H35.2074V59.5645H31.517V42.1099H35.2074V49.0815H35.9489L41.7443 42.1099H46.3381L39.5284 50.2065L46.6534 59.5645H42.0767ZM53.3949 59.8201C52.071 59.8201 50.9261 59.5389 49.9602 58.9764C49 58.4082 48.2585 57.6184 47.7358 56.6071C47.2131 55.59 46.9517 54.411 46.9517 53.0701C46.9517 51.7179 47.2131 50.536 47.7358 49.5247C48.2585 48.5076 49 47.7179 49.9602 47.1554C50.9261 46.5872 52.071 46.3031 53.3949 46.3031C54.7188 46.3031 55.8608 46.5872 56.821 47.1554C57.7869 47.7179 58.5312 48.5076 59.054 49.5247C59.5767 50.536 59.8381 51.7179 59.8381 53.0701C59.8381 54.411 59.5767 55.59 59.054 56.6071C58.5312 57.6184 57.7869 58.4082 56.821 58.9764C55.8608 59.5389 54.7188 59.8201 53.3949 59.8201ZM53.4119 57.0076C54.0142 57.0076 54.517 56.8372 54.9205 56.4963C55.3239 56.1497 55.6278 55.6781 55.8324 55.0815C56.0426 54.4849 56.1477 53.8059 56.1477 53.0446C56.1477 52.2832 56.0426 51.6042 55.8324 51.0076C55.6278 50.411 55.3239 49.9395 54.9205 49.5929C54.517 49.2463 54.0142 49.073 53.4119 49.073C52.804 49.073 52.2926 49.2463 51.8778 49.5929C51.4688 49.9395 51.1591 50.411 50.9489 51.0076C50.7443 51.6042 50.642 52.2832 50.642 53.0446C50.642 53.8059 50.7443 54.4849 50.9489 55.0815C51.1591 55.6781 51.4688 56.1497 51.8778 56.4963C52.2926 56.8372 52.804 57.0076 53.4119 57.0076ZM71.3097 51.5701V54.4252H64.4744V51.5701H71.3097ZM65.6676 46.4735V59.5645H62.1989V46.4735H65.6676ZM73.5852 46.4735V59.5645H70.142V46.4735H73.5852ZM75.0874 49.3287V46.4735H86.951V49.3287H82.7322V59.5645H79.272V49.3287H75.0874ZM89.152 64.4735V46.4735H92.7315V48.6724H92.8935C93.0526 48.3201 93.2827 47.9622 93.5838 47.5985C93.8906 47.2292 94.2884 46.9224 94.777 46.6781C95.2713 46.4281 95.8849 46.3031 96.6179 46.3031C97.5724 46.3031 98.4531 46.5531 99.2599 47.0531C100.067 47.5474 100.712 48.2946 101.195 49.2946C101.678 50.2889 101.919 51.536 101.919 53.036C101.919 54.4963 101.683 55.7292 101.212 56.7349C100.746 57.7349 100.109 58.4934 99.3026 59.0105C98.5014 59.5218 97.6037 59.7775 96.6094 59.7775C95.9048 59.7775 95.3054 59.661 94.8111 59.4281C94.3224 59.1951 93.9219 58.9025 93.6094 58.5502C93.2969 58.1923 93.0582 57.8315 92.8935 57.4679H92.7827V64.4735H89.152ZM92.706 53.019C92.706 53.7974 92.8139 54.4764 93.0298 55.0559C93.2457 55.6355 93.5582 56.0872 93.9673 56.411C94.3764 56.7292 94.8736 56.8883 95.4588 56.8883C96.0497 56.8883 96.5497 56.7264 96.9588 56.4025C97.3679 56.073 97.6776 55.6184 97.8878 55.0389C98.1037 54.4537 98.2116 53.7804 98.2116 53.019C98.2116 52.2633 98.1065 51.5985 97.8963 51.0247C97.6861 50.4508 97.3764 50.002 96.9673 49.6781C96.5582 49.3542 96.0554 49.1923 95.4588 49.1923C94.8679 49.1923 94.3679 49.3485 93.9588 49.661C93.5554 49.9735 93.2457 50.4167 93.0298 50.9906C92.8139 51.5645 92.706 52.2406 92.706 53.019ZM108.072 59.8116C107.237 59.8116 106.493 59.6667 105.839 59.377C105.186 59.0815 104.669 58.6468 104.288 58.073C103.913 57.4934 103.726 56.7718 103.726 55.9082C103.726 55.1809 103.859 54.5701 104.126 54.0758C104.393 53.5815 104.757 53.1838 105.217 52.8826C105.678 52.5815 106.2 52.3542 106.786 52.2008C107.376 52.0474 107.996 51.9395 108.643 51.877C109.405 51.7974 110.018 51.7235 110.484 51.6554C110.95 51.5815 111.288 51.4735 111.499 51.3315C111.709 51.1895 111.814 50.9792 111.814 50.7008V50.6497C111.814 50.1099 111.643 49.6923 111.303 49.3968C110.967 49.1014 110.49 48.9537 109.871 48.9537C109.217 48.9537 108.697 49.0985 108.311 49.3883C107.925 49.6724 107.669 50.0304 107.544 50.4622L104.186 50.1895C104.357 49.394 104.692 48.7065 105.192 48.127C105.692 47.5417 106.337 47.0929 107.126 46.7804C107.922 46.4622 108.842 46.3031 109.888 46.3031C110.615 46.3031 111.311 46.3883 111.976 46.5588C112.646 46.7292 113.24 46.9934 113.757 47.3514C114.28 47.7093 114.692 48.1696 114.993 48.7321C115.294 49.2889 115.445 49.9565 115.445 50.7349V59.5645H112.001V57.7491H111.899C111.689 58.1582 111.408 58.519 111.055 58.8315C110.703 59.1383 110.28 59.3798 109.786 59.5559C109.291 59.7264 108.72 59.8116 108.072 59.8116ZM109.112 57.3059C109.646 57.3059 110.118 57.2008 110.527 56.9906C110.936 56.7747 111.257 56.4849 111.49 56.1213C111.723 55.7576 111.839 55.3457 111.839 54.8855V53.4963C111.726 53.5701 111.57 53.6383 111.371 53.7008C111.178 53.7576 110.959 53.8116 110.714 53.8627C110.47 53.9082 110.226 53.9508 109.982 53.9906C109.737 54.0247 109.516 54.0559 109.317 54.0843C108.891 54.1468 108.518 54.2463 108.2 54.3826C107.882 54.519 107.635 54.7037 107.459 54.9366C107.283 55.1639 107.195 55.448 107.195 55.7889C107.195 56.2832 107.374 56.661 107.732 56.9224C108.095 57.1781 108.555 57.3059 109.112 57.3059ZM124.176 59.8201C122.835 59.8201 121.682 59.536 120.716 58.9679C119.756 58.394 119.017 57.5985 118.5 56.5815C117.989 55.5645 117.733 54.394 117.733 53.0701C117.733 51.7292 117.991 50.5531 118.509 49.5417C119.031 48.5247 119.773 47.7321 120.733 47.1639C121.693 46.59 122.835 46.3031 124.159 46.3031C125.301 46.3031 126.301 46.5105 127.159 46.9252C128.017 47.34 128.696 47.9224 129.196 48.6724C129.696 49.4224 129.972 50.3031 130.023 51.3145H126.597C126.5 50.661 126.244 50.1355 125.83 49.7377C125.42 49.3343 124.884 49.1326 124.219 49.1326C123.656 49.1326 123.165 49.286 122.744 49.5929C122.33 49.894 122.006 50.3343 121.773 50.9139C121.54 51.4934 121.423 52.1951 121.423 53.019C121.423 53.8542 121.537 54.5645 121.764 55.1497C121.997 55.7349 122.324 56.1809 122.744 56.4877C123.165 56.7946 123.656 56.948 124.219 56.948C124.634 56.948 125.006 56.8627 125.335 56.6923C125.67 56.5218 125.946 56.2747 126.162 55.9508C126.384 55.6213 126.528 55.2264 126.597 54.7662H130.023C129.966 55.7662 129.693 56.6468 129.205 57.4082C128.722 58.1639 128.054 58.7548 127.202 59.1809C126.349 59.6071 125.341 59.8201 124.176 59.8201ZM131.455 49.3287V46.4735H143.318V49.3287H139.099V59.5645H135.639V49.3287H131.455Z" fill="black"/>
<path d="M30.358 118.03V114.471H31.0142C31.2396 114.265 31.4517 113.975 31.6506 113.601C31.8527 113.223 32.0234 112.719 32.1626 112.089C32.3052 111.456 32.3996 110.653 32.446 109.678L32.6648 105.383H38.7102V114.471H39.8835V118.01H38.7102V115.564H31.5312V118.03H30.358ZM32.4858 114.471H37.5369V106.476H33.7784L33.6193 109.678C33.5795 110.421 33.5099 111.093 33.4105 111.697C33.3111 112.296 33.1835 112.828 33.0277 113.292C32.8719 113.753 32.6913 114.146 32.4858 114.471ZM44.7892 115.724C44.0534 115.724 43.4187 115.561 42.8851 115.236C42.3548 114.908 41.9455 114.451 41.6571 113.864C41.3721 113.274 41.2296 112.588 41.2296 111.806C41.2296 111.024 41.3721 110.334 41.6571 109.738C41.9455 109.138 42.3465 108.671 42.8603 108.336C43.3773 107.998 43.9805 107.829 44.6699 107.829C45.0676 107.829 45.4604 107.895 45.8482 108.028C46.236 108.16 46.589 108.376 46.9071 108.674C47.2253 108.969 47.4789 109.36 47.6678 109.847C47.8567 110.334 47.9512 110.934 47.9512 111.647V112.144H42.0648V111.13H46.758C46.758 110.699 46.6718 110.314 46.4995 109.976C46.3304 109.638 46.0885 109.372 45.7736 109.176C45.4621 108.98 45.0942 108.883 44.6699 108.883C44.2026 108.883 43.7982 108.999 43.4569 109.231C43.1188 109.459 42.8586 109.758 42.6763 110.126C42.494 110.493 42.4029 110.888 42.4029 111.309V111.985C42.4029 112.562 42.5023 113.05 42.7012 113.452C42.9033 113.849 43.1834 114.153 43.5414 114.361C43.8993 114.567 44.3153 114.67 44.7892 114.67C45.0975 114.67 45.3759 114.626 45.6245 114.54C45.8764 114.451 46.0935 114.318 46.2757 114.143C46.458 113.964 46.5989 113.742 46.6983 113.476L47.8319 113.795C47.7125 114.179 47.512 114.517 47.2303 114.809C46.9486 115.097 46.6006 115.323 46.1863 115.485C45.772 115.644 45.3063 115.724 44.7892 115.724ZM49.0598 115.564V114.471H49.3382C49.5669 114.471 49.7575 114.426 49.91 114.336C50.0624 114.244 50.1851 114.083 50.2779 113.854C50.374 113.622 50.4469 113.301 50.4966 112.89C50.5497 112.475 50.5878 111.948 50.611 111.309L50.7502 107.928H55.8411V115.564H54.6678V109.022H51.8638L51.7445 111.746C51.718 112.373 51.6616 112.925 51.5755 113.402C51.4926 113.876 51.365 114.273 51.1926 114.595C51.0236 114.916 50.7982 115.158 50.5165 115.321C50.2348 115.483 49.8818 115.564 49.4576 115.564H49.0598ZM60.2409 115.743C59.757 115.743 59.3179 115.652 58.9235 115.47C58.5291 115.284 58.2158 115.018 57.9838 114.67C57.7518 114.318 57.6358 113.894 57.6358 113.397C57.6358 112.959 57.722 112.605 57.8944 112.333C58.0667 112.058 58.2971 111.842 58.5854 111.687C58.8738 111.531 59.1919 111.415 59.54 111.339C59.8913 111.259 60.2443 111.196 60.5989 111.15C61.0629 111.09 61.4391 111.045 61.7275 111.015C62.0191 110.982 62.2312 110.928 62.3638 110.851C62.4997 110.775 62.5676 110.643 62.5676 110.454V110.414C62.5676 109.923 62.4334 109.542 62.165 109.27C61.8998 108.999 61.4971 108.863 60.9569 108.863C60.3967 108.863 59.9576 108.985 59.6394 109.231C59.3212 109.476 59.0975 109.738 58.9682 110.016L57.8546 109.618C58.0534 109.154 58.3186 108.793 58.65 108.535C58.9848 108.273 59.3494 108.09 59.7438 107.988C60.1415 107.882 60.5326 107.829 60.9171 107.829C61.1623 107.829 61.4441 107.858 61.7623 107.918C62.0837 107.974 62.3936 108.092 62.6919 108.271C62.9935 108.45 63.2438 108.72 63.4426 109.081C63.6415 109.443 63.7409 109.927 63.7409 110.533V115.564H62.5676V114.53H62.508C62.4284 114.696 62.2959 114.873 62.1103 115.062C61.9247 115.251 61.6777 115.412 61.3695 115.545C61.0613 115.677 60.6851 115.743 60.2409 115.743ZM60.4199 114.689C60.8839 114.689 61.275 114.598 61.5932 114.416C61.9147 114.234 62.1567 113.998 62.3191 113.71C62.4848 113.422 62.5676 113.118 62.5676 112.8V111.726C62.5179 111.786 62.4086 111.841 62.2395 111.89C62.0738 111.937 61.8816 111.978 61.6628 112.015C61.4474 112.048 61.2369 112.078 61.0314 112.104C60.8292 112.127 60.6652 112.147 60.5392 112.164C60.2343 112.204 59.9493 112.268 59.6841 112.358C59.4223 112.444 59.2102 112.575 59.0478 112.751C58.8887 112.923 58.8091 113.158 58.8091 113.456C58.8091 113.864 58.9599 114.172 59.2615 114.381C59.5665 114.587 59.9526 114.689 60.4199 114.689ZM69.0842 115.724C68.3484 115.724 67.7137 115.561 67.18 115.236C66.6497 114.908 66.2404 114.451 65.9521 113.864C65.667 113.274 65.5245 112.588 65.5245 111.806C65.5245 111.024 65.667 110.334 65.9521 109.738C66.2404 109.138 66.6415 108.671 67.1552 108.336C67.6722 107.998 68.2754 107.829 68.9648 107.829C69.3626 107.829 69.7553 107.895 70.1431 108.028C70.5309 108.16 70.8839 108.376 71.2021 108.674C71.5202 108.969 71.7738 109.36 71.9627 109.847C72.1516 110.334 72.2461 110.934 72.2461 111.647V112.144H66.3597V111.13H71.0529C71.0529 110.699 70.9667 110.314 70.7944 109.976C70.6254 109.638 70.3834 109.372 70.0685 109.176C69.757 108.98 69.3891 108.883 68.9648 108.883C68.4975 108.883 68.0932 108.999 67.7518 109.231C67.4137 109.459 67.1535 109.758 66.9712 110.126C66.7889 110.493 66.6978 110.888 66.6978 111.309V111.985C66.6978 112.562 66.7972 113.05 66.9961 113.452C67.1983 113.849 67.4783 114.153 67.8363 114.361C68.1942 114.567 68.6102 114.67 69.0842 114.67C69.3924 114.67 69.6708 114.626 69.9194 114.54C70.1713 114.451 70.3884 114.318 70.5707 114.143C70.753 113.964 70.8938 113.742 70.9933 113.476L72.1268 113.795C72.0075 114.179 71.8069 114.517 71.5252 114.809C71.2435 115.097 70.8955 115.323 70.4812 115.485C70.0669 115.644 69.6012 115.724 69.0842 115.724ZM73.32 109.022V107.928H79.5245V109.022H77.0188V115.564H75.8455V109.022H73.32ZM87.699 108.922C87.4339 108.926 87.1671 108.994 86.8986 109.126C86.6335 109.259 86.4114 109.434 86.2324 109.653C86.0568 109.869 85.9689 110.109 85.9689 110.374H84.8155C84.8155 110.043 84.8951 109.724 85.0542 109.42C85.2132 109.115 85.427 108.843 85.6955 108.604C85.9673 108.366 86.2755 108.177 86.6202 108.037C86.9682 107.898 87.3278 107.829 87.699 107.829C88.3951 107.829 88.985 108.004 89.4689 108.356C89.9561 108.707 90.3257 109.171 90.5776 109.748C90.8328 110.324 90.9604 110.951 90.9604 111.627V111.905C90.9604 112.578 90.8328 113.205 90.5776 113.785C90.3257 114.361 89.9561 114.825 89.4689 115.177C88.985 115.528 88.3951 115.704 87.699 115.704C87.1422 115.704 86.6467 115.581 86.2125 115.336C85.7783 115.087 85.437 114.756 85.1884 114.341C84.9398 113.927 84.8155 113.466 84.8155 112.959H85.9689C85.9689 113.248 86.0501 113.518 86.2125 113.77C86.3783 114.018 86.592 114.22 86.8539 114.376C87.119 114.529 87.4007 114.607 87.699 114.61C88.1432 114.607 88.521 114.467 88.8326 114.192C89.1441 113.917 89.3811 113.573 89.5435 113.158C89.7059 112.744 89.7871 112.326 89.7871 111.905V111.627C89.7871 111.196 89.7059 110.775 89.5435 110.364C89.3844 109.95 89.1491 109.607 88.8375 109.335C88.5293 109.063 88.1498 108.926 87.699 108.922ZM90.2644 111.17V112.263H86.9235V111.17H90.2644ZM92.0716 115.564V114.471H92.35C92.5787 114.471 92.7692 114.426 92.9217 114.336C93.0742 114.244 93.1968 114.083 93.2896 113.854C93.3857 113.622 93.4586 113.301 93.5083 112.89C93.5614 112.475 93.5995 111.948 93.6227 111.309L93.7619 107.928H98.8528V115.564H97.6795V109.022H94.8755L94.7562 111.746C94.7297 112.373 94.6734 112.925 94.5872 113.402C94.5043 113.876 94.3767 114.273 94.2044 114.595C94.0353 114.916 93.81 115.158 93.5282 115.321C93.2465 115.483 92.8935 115.564 92.4693 115.564H92.0716ZM104.207 115.724C103.471 115.724 102.837 115.561 102.303 115.236C101.773 114.908 101.363 114.451 101.075 113.864C100.79 113.274 100.648 112.588 100.648 111.806C100.648 111.024 100.79 110.334 101.075 109.738C101.363 109.138 101.765 108.671 102.278 108.336C102.795 107.998 103.398 107.829 104.088 107.829C104.486 107.829 104.878 107.895 105.266 108.028C105.654 108.16 106.007 108.376 106.325 108.674C106.643 108.969 106.897 109.36 107.086 109.847C107.275 110.334 107.369 110.934 107.369 111.647V112.144H101.483V111.13H106.176C106.176 110.699 106.09 110.314 105.917 109.976C105.748 109.638 105.506 109.372 105.192 109.176C104.88 108.98 104.512 108.883 104.088 108.883C103.621 108.883 103.216 108.999 102.875 109.231C102.537 109.459 102.277 109.758 102.094 110.126C101.912 110.493 101.821 110.888 101.821 111.309V111.985C101.821 112.562 101.92 113.05 102.119 113.452C102.321 113.849 102.601 114.153 102.959 114.361C103.317 114.567 103.733 114.67 104.207 114.67C104.515 114.67 104.794 114.626 105.042 114.54C105.294 114.451 105.511 114.318 105.694 114.143C105.876 113.964 106.017 113.742 106.116 113.476L107.25 113.795C107.131 114.179 106.93 114.517 106.648 114.809C106.367 115.097 106.019 115.323 105.604 115.485C105.19 115.644 104.724 115.724 104.207 115.724ZM113.33 113.974L115.995 107.928H117.108L113.807 115.564H112.853L109.611 107.928H110.705L113.33 113.974ZM110.327 107.928V115.564H109.154V107.928H110.327ZM116.333 115.564V107.928H117.506V115.564H116.333ZM122.856 115.724C122.12 115.724 121.485 115.561 120.952 115.236C120.421 114.908 120.012 114.451 119.724 113.864C119.439 113.274 119.296 112.588 119.296 111.806C119.296 111.024 119.439 110.334 119.724 109.738C120.012 109.138 120.413 108.671 120.927 108.336C121.444 107.998 122.047 107.829 122.736 107.829C123.134 107.829 123.527 107.895 123.915 108.028C124.302 108.16 124.655 108.376 124.974 108.674C125.292 108.969 125.545 109.36 125.734 109.847C125.923 110.334 126.018 110.934 126.018 111.647V112.144H120.131V111.13H124.824C124.824 110.699 124.738 110.314 124.566 109.976C124.397 109.638 124.155 109.372 123.84 109.176C123.528 108.98 123.161 108.883 122.736 108.883C122.269 108.883 121.865 108.999 121.523 109.231C121.185 109.459 120.925 109.758 120.743 110.126C120.56 110.493 120.469 110.888 120.469 111.309V111.985C120.469 112.562 120.569 113.05 120.768 113.452C120.97 113.849 121.25 114.153 121.608 114.361C121.966 114.567 122.382 114.67 122.856 114.67C123.164 114.67 123.442 114.626 123.691 114.54C123.943 114.451 124.16 114.318 124.342 114.143C124.524 113.964 124.665 113.742 124.765 113.476L125.898 113.795C125.779 114.179 125.578 114.517 125.297 114.809C125.015 115.097 124.667 115.323 124.253 115.485C123.838 115.644 123.373 115.724 122.856 115.724ZM132.913 111.209V112.303H128.697V111.209H132.913ZM128.976 107.928V115.564H127.802V107.928H128.976ZM133.808 107.928V115.564H132.635V107.928H133.808ZM134.912 109.022V107.928H141.116V109.022H138.611V115.564H137.437V109.022H134.912ZM143.842 110.692H146.029C146.924 110.692 147.609 110.919 148.083 111.373C148.557 111.827 148.794 112.403 148.794 113.099C148.794 113.556 148.688 113.972 148.475 114.346C148.263 114.718 147.952 115.014 147.541 115.236C147.13 115.455 146.626 115.564 146.029 115.564H142.828V107.928H144.001V114.471H146.029C146.493 114.471 146.875 114.348 147.173 114.103C147.471 113.858 147.62 113.543 147.62 113.158C147.62 112.754 147.471 112.424 147.173 112.169C146.875 111.914 146.493 111.786 146.029 111.786H143.842V110.692ZM150.007 115.564V107.928H151.18V115.564H150.007ZM30.5966 130.616H31.8494C31.8759 130.96 32.0317 131.222 32.3168 131.401C32.6051 131.58 32.9796 131.67 33.4403 131.67C33.911 131.67 34.3137 131.573 34.6484 131.381C34.9832 131.186 35.1506 130.871 35.1506 130.437C35.1506 130.181 35.0876 129.959 34.9616 129.77C34.8357 129.578 34.6584 129.429 34.4297 129.323C34.201 129.217 33.9309 129.164 33.6193 129.164H32.3068V128.11H33.6193C34.0866 128.11 34.4313 128.004 34.6534 127.792C34.8788 127.58 34.9915 127.314 34.9915 126.996C34.9915 126.655 34.8705 126.381 34.6286 126.176C34.3866 125.967 34.0436 125.863 33.5994 125.863C33.152 125.863 32.7791 125.964 32.4808 126.166C32.1825 126.365 32.0251 126.622 32.0085 126.937H30.7756C30.7888 126.526 30.9148 126.163 31.1534 125.848C31.392 125.53 31.7169 125.281 32.1278 125.102C32.5388 124.92 33.0095 124.829 33.5398 124.829C34.0767 124.829 34.5424 124.923 34.9368 125.112C35.3345 125.298 35.6411 125.551 35.8565 125.873C36.0753 126.191 36.1847 126.552 36.1847 126.956C36.1847 127.387 36.0637 127.735 35.8217 128.001C35.5798 128.266 35.2765 128.455 34.9119 128.567V128.647C35.2003 128.667 35.4505 128.76 35.6626 128.925C35.8781 129.088 36.0455 129.301 36.1648 129.567C36.2841 129.828 36.3438 130.118 36.3438 130.437C36.3438 130.901 36.2195 131.305 35.9709 131.65C35.7223 131.991 35.3809 132.256 34.9467 132.445C34.5125 132.631 34.017 132.724 33.4602 132.724C32.92 132.724 32.4361 132.636 32.0085 132.46C31.581 132.281 31.2412 132.034 30.9893 131.719C30.7408 131.401 30.6098 131.033 30.5966 130.616ZM40.239 132.743C39.7551 132.743 39.3159 132.652 38.9215 132.47C38.5271 132.284 38.2139 132.018 37.9819 131.67C37.7499 131.318 37.6339 130.894 37.6339 130.397C37.6339 129.959 37.7201 129.605 37.8924 129.333C38.0647 129.058 38.2951 128.842 38.5835 128.687C38.8718 128.531 39.19 128.415 39.538 128.339C39.8893 128.259 40.2423 128.196 40.5969 128.15C41.061 128.09 41.4371 128.045 41.7255 128.015C42.0172 127.982 42.2293 127.928 42.3619 127.851C42.4978 127.775 42.5657 127.643 42.5657 127.454V127.414C42.5657 126.923 42.4315 126.542 42.163 126.27C41.8978 125.999 41.4951 125.863 40.9549 125.863C40.3948 125.863 39.9556 125.985 39.6374 126.231C39.3192 126.476 39.0955 126.738 38.9663 127.016L37.8526 126.618C38.0515 126.154 38.3166 125.793 38.6481 125.535C38.9828 125.273 39.3474 125.09 39.7418 124.988C40.1396 124.882 40.5307 124.829 40.9151 124.829C41.1604 124.829 41.4421 124.858 41.7603 124.918C42.0818 124.974 42.3917 125.092 42.69 125.271C42.9916 125.45 43.2418 125.72 43.4407 126.081C43.6396 126.443 43.739 126.927 43.739 127.533V132.564H42.5657V131.53H42.506C42.4265 131.696 42.2939 131.873 42.1083 132.062C41.9227 132.251 41.6758 132.412 41.3675 132.545C41.0593 132.677 40.6831 132.743 40.239 132.743ZM40.418 131.689C40.882 131.689 41.2731 131.598 41.5913 131.416C41.9128 131.234 42.1547 130.998 42.3171 130.71C42.4828 130.422 42.5657 130.118 42.5657 129.8V128.726C42.516 128.786 42.4066 128.841 42.2376 128.89C42.0719 128.937 41.8796 128.978 41.6609 129.015C41.4454 129.048 41.235 129.078 41.0295 129.104C40.8273 129.127 40.6632 129.147 40.5373 129.164C40.2324 129.204 39.9473 129.268 39.6822 129.358C39.4203 129.444 39.2082 129.575 39.0458 129.751C38.8867 129.923 38.8072 130.158 38.8072 130.456C38.8072 130.864 38.958 131.172 39.2596 131.381C39.5645 131.587 39.9506 131.689 40.418 131.689ZM50.0566 130.974L52.7214 124.928H53.835L50.5339 132.564H49.5794L46.3379 124.928H47.4316L50.0566 130.974ZM47.0538 124.928V132.564H45.8805V124.928H47.0538ZM53.0595 132.564V124.928H54.2328V132.564H53.0595ZM59.5822 132.724C58.8464 132.724 58.2117 132.561 57.6781 132.236C57.1478 131.908 56.7385 131.451 56.4501 130.864C56.1651 130.274 56.0225 129.588 56.0225 128.806C56.0225 128.024 56.1651 127.334 56.4501 126.738C56.7385 126.138 57.1395 125.671 57.6532 125.336C58.1703 124.998 58.7735 124.829 59.4629 124.829C59.8606 124.829 60.2534 124.895 60.6412 125.028C61.0289 125.16 61.3819 125.376 61.7001 125.674C62.0183 125.969 62.2718 126.36 62.4608 126.847C62.6497 127.334 62.7441 127.934 62.7441 128.647V129.144H56.8578V128.13H61.551C61.551 127.699 61.4648 127.314 61.2924 126.976C61.1234 126.638 60.8815 126.372 60.5666 126.176C60.255 125.98 59.8871 125.883 59.4629 125.883C58.9956 125.883 58.5912 125.999 58.2498 126.231C57.9118 126.459 57.6516 126.758 57.4693 127.126C57.287 127.493 57.1958 127.888 57.1958 128.309V128.985C57.1958 129.562 57.2953 130.05 57.4941 130.452C57.6963 130.849 57.9764 131.153 58.3343 131.361C58.6923 131.567 59.1083 131.67 59.5822 131.67C59.8904 131.67 60.1689 131.626 60.4174 131.54C60.6693 131.451 60.8864 131.318 61.0687 131.143C61.251 130.964 61.3919 130.742 61.4913 130.476L62.6248 130.795C62.5055 131.179 62.305 131.517 62.0233 131.809C61.7415 132.097 61.3935 132.323 60.9792 132.485C60.5649 132.644 60.0993 132.724 59.5822 132.724ZM63.818 126.022V124.928H70.0225V126.022H67.5169V132.564H66.3436V126.022H63.818ZM76.8448 128.209V129.303H72.6289V128.209H76.8448ZM72.9073 124.928V132.564H71.734V124.928H72.9073ZM77.7397 124.928V132.564H76.5664V124.928H77.7397ZM80.8967 127.692H83.0842C83.979 127.692 84.6635 127.919 85.1374 128.373C85.6114 128.827 85.8484 129.403 85.8484 130.099C85.8484 130.556 85.7423 130.972 85.5302 131.346C85.3181 131.718 85.0065 132.014 84.5955 132.236C84.1845 132.455 83.6808 132.564 83.0842 132.564H79.8825V124.928H81.0558V131.471H83.0842C83.5482 131.471 83.9293 131.348 84.2276 131.103C84.5259 130.858 84.6751 130.543 84.6751 130.158C84.6751 129.754 84.5259 129.424 84.2276 129.169C83.9293 128.914 83.5482 128.786 83.0842 128.786H80.8967V127.692ZM87.0614 132.564V124.928H88.2347V132.564H87.0614ZM94.5586 130.974L97.2234 124.928H98.337L95.0359 132.564H94.0813L90.8398 124.928H91.9336L94.5586 130.974ZM91.5558 124.928V132.564H90.3825V124.928H91.5558ZM97.5614 132.564V124.928H98.7347V132.564H97.5614ZM102.056 130.834L105.735 124.928H107.087V132.564H105.914V126.658L102.255 132.564H100.882V124.928H102.056V130.834ZM114.347 130.834L118.026 124.928H119.378V132.564H118.205V126.658L114.546 132.564H113.173V124.928H114.347V130.834ZM36.9602 141.928V149.564H35.7869V141.928H36.9602ZM36.5028 145.567V146.661C36.2377 146.76 35.9742 146.848 35.7124 146.925C35.4505 146.997 35.1754 147.055 34.8871 147.099C34.5987 147.138 34.2822 147.158 33.9375 147.158C33.0724 147.158 32.3781 146.925 31.8544 146.457C31.334 145.99 31.0739 145.289 31.0739 144.354V141.908H32.2472V144.354C32.2472 144.745 32.3217 145.067 32.4709 145.319C32.62 145.571 32.8222 145.758 33.0774 145.881C33.3326 146.003 33.6193 146.064 33.9375 146.064C34.4347 146.064 34.8838 146.02 35.2848 145.93C35.6892 145.837 36.0952 145.716 36.5028 145.567ZM40.2862 147.834L43.9652 141.928H45.3175V149.564H44.1442V143.658L40.4851 149.564H39.1129V141.928H40.2862V147.834ZM46.4274 143.022V141.928H52.6319V143.022H50.1262V149.564H48.9529V143.022H46.4274ZM56.1941 149.743C55.7102 149.743 55.271 149.652 54.8766 149.47C54.4822 149.284 54.169 149.018 53.937 148.67C53.705 148.318 53.589 147.894 53.589 147.397C53.589 146.959 53.6751 146.605 53.8475 146.333C54.0198 146.058 54.2502 145.842 54.5385 145.687C54.8269 145.531 55.1451 145.415 55.4931 145.339C55.8444 145.259 56.1974 145.196 56.552 145.15C57.016 145.09 57.3922 145.045 57.6806 145.015C57.9722 144.982 58.1844 144.928 58.3169 144.851C58.4528 144.775 58.5208 144.643 58.5208 144.454V144.414C58.5208 143.923 58.3865 143.542 58.1181 143.27C57.8529 142.999 57.4502 142.863 56.91 142.863C56.3498 142.863 55.9107 142.985 55.5925 143.231C55.2743 143.476 55.0506 143.738 54.9213 144.016L53.8077 143.618C54.0066 143.154 54.2717 142.793 54.6032 142.535C54.9379 142.273 55.3025 142.09 55.6969 141.988C56.0946 141.882 56.4857 141.829 56.8702 141.829C57.1155 141.829 57.3972 141.858 57.7154 141.918C58.0369 141.974 58.3468 142.092 58.6451 142.271C58.9467 142.45 59.1969 142.72 59.3958 143.081C59.5946 143.443 59.6941 143.927 59.6941 144.533V149.564H58.5208V148.53H58.4611C58.3816 148.696 58.249 148.873 58.0634 149.062C57.8778 149.251 57.6309 149.412 57.3226 149.545C57.0144 149.677 56.6382 149.743 56.1941 149.743ZM56.373 148.689C56.8371 148.689 57.2282 148.598 57.5463 148.416C57.8678 148.234 58.1098 147.998 58.2722 147.71C58.4379 147.422 58.5208 147.118 58.5208 146.8V145.726C58.4711 145.786 58.3617 145.841 58.1926 145.89C58.0269 145.937 57.8347 145.978 57.6159 146.015C57.4005 146.048 57.19 146.078 56.9846 146.104C56.7824 146.127 56.6183 146.147 56.4924 146.164C56.1874 146.204 55.9024 146.268 55.6373 146.358C55.3754 146.444 55.1633 146.575 55.0009 146.751C54.8418 146.923 54.7623 147.158 54.7623 147.456C54.7623 147.864 54.9131 148.172 55.2147 148.381C55.5196 148.587 55.9057 148.689 56.373 148.689ZM67.5032 139.064L68.0998 139.78C67.8678 140.006 67.5993 140.163 67.2944 140.253C66.9895 140.342 66.6448 140.397 66.2603 140.417C65.8758 140.437 65.4483 140.456 64.9776 140.476C64.4473 140.496 64.0082 140.626 63.6602 140.864C63.3121 141.103 63.0437 141.448 62.8548 141.898C62.6658 142.349 62.5449 142.903 62.4918 143.559H62.5913C62.8498 143.081 63.2077 142.73 63.6651 142.505C64.1225 142.279 64.613 142.167 65.1367 142.167C65.7333 142.167 66.2702 142.306 66.7475 142.584C67.2248 142.863 67.6026 143.275 67.881 143.822C68.1594 144.369 68.2987 145.044 68.2987 145.846C68.2987 146.644 68.1561 147.334 67.8711 147.914C67.5894 148.494 67.1933 148.941 66.6829 149.256C66.1758 149.568 65.5808 149.724 64.8981 149.724C64.2153 149.724 63.6171 149.563 63.1033 149.241C62.5896 148.916 62.1902 148.436 61.9052 147.8C61.6201 147.16 61.4776 146.369 61.4776 145.428V144.613C61.4776 142.912 61.766 141.623 62.3427 140.745C62.9227 139.867 63.7944 139.412 64.9577 139.383C65.3687 139.369 65.735 139.366 66.0565 139.373C66.378 139.379 66.658 139.364 66.8967 139.328C67.1353 139.291 67.3375 139.204 67.5032 139.064ZM64.8981 148.67C65.3588 148.67 65.7549 148.554 66.0863 148.322C66.421 148.09 66.6779 147.763 66.8569 147.342C67.0359 146.918 67.1254 146.419 67.1254 145.846C67.1254 145.289 67.0342 144.815 66.8519 144.424C66.6729 144.033 66.4161 143.734 66.0813 143.529C65.7466 143.323 65.3455 143.221 64.8782 143.221C64.5368 143.221 64.2302 143.279 63.9585 143.395C63.6867 143.511 63.4547 143.681 63.2624 143.907C63.0702 144.132 62.921 144.407 62.815 144.732C62.7122 145.057 62.6576 145.428 62.6509 145.846C62.6509 146.701 62.8514 147.385 63.2525 147.899C63.6535 148.413 64.2021 148.67 64.8981 148.67ZM73.2951 149.724C72.5593 149.724 71.9246 149.561 71.391 149.236C70.8607 148.908 70.4513 148.451 70.163 147.864C69.878 147.274 69.7354 146.588 69.7354 145.806C69.7354 145.024 69.878 144.334 70.163 143.738C70.4513 143.138 70.8524 142.671 71.3661 142.336C71.8832 141.998 72.4864 141.829 73.1758 141.829C73.5735 141.829 73.9663 141.895 74.354 142.028C74.7418 142.16 75.0948 142.376 75.413 142.674C75.7312 142.969 75.9847 143.36 76.1737 143.847C76.3626 144.334 76.457 144.934 76.457 145.647V146.144H70.5707V145.13H75.2638C75.2638 144.699 75.1777 144.314 75.0053 143.976C74.8363 143.638 74.5943 143.372 74.2795 143.176C73.9679 142.98 73.6 142.883 73.1758 142.883C72.7085 142.883 72.3041 142.999 71.9627 143.231C71.6246 143.459 71.3645 143.758 71.1822 144.126C70.9999 144.493 70.9087 144.888 70.9087 145.309V145.985C70.9087 146.562 71.0082 147.05 71.207 147.452C71.4092 147.849 71.6893 148.153 72.0472 148.361C72.4052 148.567 72.8211 148.67 73.2951 148.67C73.6033 148.67 73.8817 148.626 74.1303 148.54C74.3822 148.451 74.5993 148.318 74.7816 148.143C74.9639 147.964 75.1048 147.742 75.2042 147.476L76.3377 147.795C76.2184 148.179 76.0179 148.517 75.7362 148.809C75.4544 149.097 75.1064 149.323 74.6921 149.485C74.2778 149.644 73.8121 149.724 73.2951 149.724ZM77.5657 149.564V148.471H77.8441C78.0728 148.471 78.2634 148.426 78.4158 148.336C78.5683 148.244 78.6909 148.083 78.7837 147.854C78.8799 147.622 78.9528 147.301 79.0025 146.89C79.0555 146.475 79.0936 145.948 79.1168 145.309L79.256 141.928H84.3469V149.564H83.1737V143.022H80.3697L80.2504 145.746C80.2238 146.373 80.1675 146.925 80.0813 147.402C79.9985 147.876 79.8709 148.273 79.6985 148.595C79.5295 148.916 79.3041 149.158 79.0224 149.321C78.7406 149.483 78.3877 149.564 77.9634 149.564H77.5657ZM87.5138 144.692H89.7013C90.5962 144.692 91.2807 144.919 91.7546 145.373C92.2286 145.827 92.4656 146.403 92.4656 147.099C92.4656 147.556 92.3595 147.972 92.1474 148.346C91.9353 148.718 91.6237 149.014 91.2127 149.236C90.8017 149.455 90.2979 149.564 89.7013 149.564H86.4996V141.928H87.6729V148.471H89.7013C90.1654 148.471 90.5465 148.348 90.8448 148.103C91.1431 147.858 91.2923 147.543 91.2923 147.158C91.2923 146.754 91.1431 146.424 90.8448 146.169C90.5465 145.914 90.1654 145.786 89.7013 145.786H87.5138V144.692ZM99.3624 145.209V146.303H95.1465V145.209H99.3624ZM95.4249 141.928V149.564H94.2516V141.928H95.4249ZM100.257 141.928V149.564H99.084V141.928H100.257ZM103.414 144.692H105.602C106.497 144.692 107.181 144.919 107.655 145.373C108.129 145.827 108.366 146.403 108.366 147.099C108.366 147.556 108.26 147.972 108.048 148.346C107.836 148.718 107.524 149.014 107.113 149.236C106.702 149.455 106.198 149.564 105.602 149.564H102.4V141.928H103.573V148.471H105.602C106.066 148.471 106.447 148.348 106.745 148.103C107.044 147.858 107.193 147.543 107.193 147.158C107.193 146.754 107.044 146.424 106.745 146.169C106.447 145.914 106.066 145.786 105.602 145.786H103.414V144.692ZM109.579 149.564V141.928H110.752V149.564H109.579ZM117.076 147.974L119.741 141.928H120.855L117.553 149.564H116.599L113.357 141.928H114.451L117.076 147.974ZM114.073 141.928V149.564H112.9V141.928H114.073ZM120.079 149.564V141.928H121.252V149.564H120.079ZM124.573 147.834L128.252 141.928H129.605V149.564H128.431V143.658L124.772 149.564H123.4V141.928H124.573V147.834Z" fill="black"/>
<rect x="210" y="0.0644531" width="150" height="119" rx="15" fill="#A89797"/>
<path d="M259.852 42.6525V39.6099H274.188V42.6525H268.844V57.0645H265.196V42.6525H259.852ZM280.548 57.3201C279.201 57.3201 278.042 57.0474 277.07 56.502C276.104 55.9508 275.36 55.1724 274.837 54.1667C274.315 53.1554 274.053 51.9593 274.053 50.5787C274.053 49.2321 274.315 48.0502 274.837 47.0332C275.36 46.0162 276.096 45.2235 277.045 44.6554C277.999 44.0872 279.119 43.8031 280.403 43.8031C281.266 43.8031 282.07 43.9423 282.815 44.2207C283.565 44.4934 284.218 44.9054 284.775 45.4565C285.337 46.0076 285.775 46.7008 286.087 47.536C286.4 48.3656 286.556 49.3372 286.556 50.4508V51.448H275.502V49.198H283.138C283.138 48.6752 283.025 48.2122 282.798 47.8088C282.57 47.4054 282.255 47.09 281.852 46.8627C281.454 46.6298 280.991 46.5133 280.462 46.5133C279.911 46.5133 279.423 46.6412 278.996 46.8968C278.576 47.1468 278.246 47.4849 278.008 47.911C277.769 48.3315 277.647 48.8002 277.641 49.3173V51.4565C277.641 52.1042 277.761 52.6639 277.999 53.1355C278.244 53.6071 278.587 53.9707 279.031 54.2264C279.474 54.4821 279.999 54.6099 280.607 54.6099C281.011 54.6099 281.38 54.5531 281.715 54.4395C282.05 54.3258 282.337 54.1554 282.576 53.9281C282.815 53.7008 282.996 53.4224 283.121 53.0929L286.479 53.3145C286.309 54.1213 285.96 54.8258 285.431 55.4281C284.908 56.0247 284.232 56.4906 283.403 56.8258C282.579 57.1554 281.627 57.3201 280.548 57.3201ZM291.725 43.9735L294.129 48.5502L296.592 43.9735H300.316L296.523 50.519L300.418 57.0645H296.711L294.129 52.5389L291.589 57.0645H287.839L291.725 50.519L287.975 43.9735H291.725ZM309.435 43.9735V46.7008H301.552V43.9735H309.435ZM303.342 40.8372H306.972V53.0417C306.972 53.377 307.023 53.6383 307.126 53.8258C307.228 54.0076 307.37 54.1355 307.552 54.2093C307.739 54.2832 307.955 54.3201 308.2 54.3201C308.37 54.3201 308.54 54.3059 308.711 54.2775C308.881 54.2434 309.012 54.2179 309.103 54.2008L309.674 56.9025C309.492 56.9593 309.237 57.0247 308.907 57.0985C308.577 57.1781 308.177 57.2264 307.705 57.2434C306.83 57.2775 306.063 57.161 305.404 56.894C304.751 56.627 304.242 56.2122 303.879 55.6497C303.515 55.0872 303.336 54.377 303.342 53.519V40.8372Z" fill="#8B8484"/>
<rect x="237.5" y="63.0645" width="95" height="22" rx="10" fill="#B2B2CA"/>
<path d="M263.619 79.5645V69.3826H267.347C268.07 69.3826 268.668 69.502 269.142 69.7406C269.616 69.9759 269.971 70.2958 270.206 70.7001C270.441 71.1011 270.559 71.5536 270.559 72.0574C270.559 72.4816 270.481 72.8395 270.325 73.1312C270.17 73.4196 269.961 73.6516 269.699 73.8272C269.44 73.9996 269.155 74.1255 268.844 74.2051V74.3045C269.182 74.3211 269.512 74.4305 269.833 74.6326C270.158 74.8315 270.426 75.1149 270.638 75.4828C270.851 75.8507 270.957 76.2981 270.957 76.8251C270.957 77.3455 270.834 77.8128 270.589 78.2271C270.347 78.6381 269.972 78.9645 269.465 79.2065C268.958 79.4451 268.31 79.5645 267.521 79.5645H263.619ZM265.155 78.247H267.372C268.108 78.247 268.635 78.1045 268.953 77.8194C269.271 77.5344 269.43 77.1781 269.43 76.7505C269.43 76.429 269.349 76.1341 269.187 75.8656C269.024 75.5971 268.792 75.3833 268.491 75.2243C268.192 75.0652 267.838 74.9856 267.427 74.9856H265.155V78.247ZM265.155 73.7875H267.213C267.558 73.7875 267.868 73.7212 268.143 73.5886C268.421 73.456 268.642 73.2704 268.804 73.0318C268.97 72.7898 269.053 72.5048 269.053 72.1767C269.053 71.7557 268.905 71.4028 268.61 71.1177C268.315 70.8327 267.863 70.6902 267.253 70.6902H265.155V73.7875ZM277.497 76.3975V71.9281H278.988V79.5645H277.527V78.242H277.447C277.271 78.6497 276.99 78.9894 276.602 79.2612C276.217 79.5297 275.739 79.6639 275.165 79.6639C274.675 79.6639 274.24 79.5562 273.863 79.3407C273.488 79.122 273.193 78.7988 272.978 78.3713C272.766 77.9437 272.659 77.4151 272.659 76.7853V71.9281H274.146V76.6064C274.146 77.1267 274.29 77.541 274.578 77.8493C274.867 78.1575 275.241 78.3116 275.702 78.3116C275.98 78.3116 276.257 78.242 276.532 78.1028C276.811 77.9636 277.041 77.7531 277.223 77.4714C277.409 77.1897 277.5 76.8317 277.497 76.3975ZM284.55 71.9281V73.1213H280.379V71.9281H284.55ZM281.498 70.0985H282.984V77.3223C282.984 77.6106 283.027 77.8277 283.113 77.9735C283.2 78.1161 283.311 78.2138 283.447 78.2669C283.586 78.3166 283.737 78.3414 283.899 78.3414C284.018 78.3414 284.123 78.3332 284.212 78.3166C284.302 78.3 284.371 78.2868 284.421 78.2768L284.689 79.5048C284.603 79.5379 284.481 79.5711 284.322 79.6042C284.162 79.6407 283.964 79.6606 283.725 79.6639C283.334 79.6705 282.969 79.6009 282.631 79.4551C282.293 79.3092 282.02 79.0839 281.811 78.7789C281.602 78.474 281.498 78.0912 281.498 77.6305V70.0985ZM289.759 71.9281V73.1213H285.588V71.9281H289.759ZM286.707 70.0985H288.193V77.3223C288.193 77.6106 288.236 77.8277 288.322 77.9735C288.409 78.1161 288.52 78.2138 288.656 78.2669C288.795 78.3166 288.946 78.3414 289.108 78.3414C289.227 78.3414 289.332 78.3332 289.421 78.3166C289.511 78.3 289.58 78.2868 289.63 78.2768L289.898 79.5048C289.812 79.5379 289.69 79.5711 289.531 79.6042C289.371 79.6407 289.173 79.6606 288.934 79.6639C288.543 79.6705 288.178 79.6009 287.84 79.4551C287.502 79.3092 287.229 79.0839 287.02 78.7789C286.811 78.474 286.707 78.0912 286.707 77.6305V70.0985ZM294.538 79.7186C293.822 79.7186 293.198 79.5545 292.664 79.2264C292.13 78.8983 291.716 78.4392 291.421 77.8493C291.126 77.2593 290.979 76.5699 290.979 75.7811C290.979 74.9889 291.126 74.2962 291.421 73.7029C291.716 73.1097 292.13 72.649 292.664 72.3208C293.198 71.9927 293.822 71.8287 294.538 71.8287C295.254 71.8287 295.879 71.9927 296.412 72.3208C296.946 72.649 297.36 73.1097 297.655 73.7029C297.95 74.2962 298.098 74.9889 298.098 75.7811C298.098 76.5699 297.95 77.2593 297.655 77.8493C297.36 78.4392 296.946 78.8983 296.412 79.2264C295.879 79.5545 295.254 79.7186 294.538 79.7186ZM294.543 78.4707C295.007 78.4707 295.392 78.3481 295.697 78.1028C296.001 77.8575 296.227 77.5311 296.373 77.1234C296.522 76.7157 296.596 76.2666 296.596 75.7761C296.596 75.2889 296.522 74.8414 296.373 74.4338C296.227 74.0228 296.001 73.693 295.697 73.4444C295.392 73.1958 295.007 73.0716 294.543 73.0716C294.076 73.0716 293.688 73.1958 293.38 73.4444C293.075 73.693 292.848 74.0228 292.699 74.4338C292.553 74.8414 292.48 75.2889 292.48 75.7761C292.48 76.2666 292.553 76.7157 292.699 77.1234C292.848 77.5311 293.075 77.8575 293.38 78.1028C293.688 78.3481 294.076 78.4707 294.543 78.4707ZM301.244 75.0304V79.5645H299.757V71.9281H301.184V73.171H301.278C301.454 72.7666 301.729 72.4418 302.104 72.1966C302.482 71.9513 302.957 71.8287 303.531 71.8287C304.051 71.8287 304.507 71.938 304.898 72.1568C305.289 72.3722 305.592 72.6937 305.808 73.1213C306.023 73.5488 306.131 74.0775 306.131 74.7072V79.5645H304.644V74.8862C304.644 74.3327 304.5 73.9002 304.212 73.5886C303.923 73.2737 303.527 73.1163 303.023 73.1163C302.679 73.1163 302.372 73.1909 302.104 73.34C301.839 73.4892 301.628 73.7079 301.472 73.9963C301.32 74.2813 301.244 74.626 301.244 75.0304Z" fill="#8B8484"/>
<path d="M293.393 164.064L308.811 148.646C310.396 147.061 310.396 144.491 308.811 142.906L306.158 140.253C304.573 138.668 302.004 138.668 300.419 140.253L285 155.672L269.581 140.253C267.996 138.668 265.427 138.668 263.842 140.253L261.189 142.906C259.604 144.491 259.604 147.061 261.189 148.646L276.607 164.064L261.189 179.483C259.604 181.068 259.604 183.638 261.189 185.222L263.842 187.876C265.427 189.461 267.996 189.461 269.581 187.876L285 172.457L300.419 187.876C302.004 189.461 304.573 189.461 306.158 187.876L308.811 185.222C310.396 183.638 310.396 181.068 308.811 179.483L293.393 164.064Z" fill="#FF473E"/>
<rect x="390" y="0.0644531" width="150" height="119" rx="15" fill="#E8E8E8"/>
<path d="M439.852 42.6525V39.6099H454.188V42.6525H448.844V57.0645H445.196V42.6525H439.852ZM460.548 57.3201C459.201 57.3201 458.042 57.0474 457.07 56.502C456.104 55.9508 455.36 55.1724 454.837 54.1667C454.315 53.1554 454.053 51.9593 454.053 50.5787C454.053 49.2321 454.315 48.0502 454.837 47.0332C455.36 46.0162 456.096 45.2235 457.045 44.6554C457.999 44.0872 459.119 43.8031 460.403 43.8031C461.266 43.8031 462.07 43.9423 462.815 44.2207C463.565 44.4934 464.218 44.9054 464.775 45.4565C465.337 46.0076 465.775 46.7008 466.087 47.536C466.4 48.3656 466.556 49.3372 466.556 50.4508V51.448H455.502V49.198H463.138C463.138 48.6752 463.025 48.2122 462.798 47.8088C462.57 47.4054 462.255 47.09 461.852 46.8627C461.454 46.6298 460.991 46.5133 460.462 46.5133C459.911 46.5133 459.423 46.6412 458.996 46.8968C458.576 47.1468 458.246 47.4849 458.008 47.911C457.769 48.3315 457.647 48.8002 457.641 49.3173V51.4565C457.641 52.1042 457.761 52.6639 457.999 53.1355C458.244 53.6071 458.587 53.9707 459.031 54.2264C459.474 54.4821 459.999 54.6099 460.607 54.6099C461.011 54.6099 461.38 54.5531 461.715 54.4395C462.05 54.3258 462.337 54.1554 462.576 53.9281C462.815 53.7008 462.996 53.4224 463.121 53.0929L466.479 53.3145C466.309 54.1213 465.96 54.8258 465.431 55.4281C464.908 56.0247 464.232 56.4906 463.403 56.8258C462.579 57.1554 461.627 57.3201 460.548 57.3201ZM471.725 43.9735L474.129 48.5502L476.592 43.9735H480.316L476.523 50.519L480.418 57.0645H476.711L474.129 52.5389L471.589 57.0645H467.839L471.725 50.519L467.975 43.9735H471.725ZM489.435 43.9735V46.7008H481.552V43.9735H489.435ZM483.342 40.8372H486.972V53.0417C486.972 53.377 487.023 53.6383 487.126 53.8258C487.228 54.0076 487.37 54.1355 487.552 54.2093C487.739 54.2832 487.955 54.3201 488.2 54.3201C488.37 54.3201 488.54 54.3059 488.711 54.2775C488.881 54.2434 489.012 54.2179 489.103 54.2008L489.674 56.9025C489.492 56.9593 489.237 57.0247 488.907 57.0985C488.577 57.1781 488.177 57.2264 487.705 57.2434C486.83 57.2775 486.063 57.161 485.404 56.894C484.751 56.627 484.242 56.2122 483.879 55.6497C483.515 55.0872 483.336 54.377 483.342 53.519V40.8372Z" fill="black"/>
<rect x="417.5" y="63.0645" width="95" height="22" rx="10" fill="#B2B2CA"/>
<path d="M443.619 79.5645V69.3826H447.347C448.07 69.3826 448.668 69.502 449.142 69.7406C449.616 69.9759 449.971 70.2958 450.206 70.7001C450.441 71.1011 450.559 71.5536 450.559 72.0574C450.559 72.4816 450.481 72.8395 450.325 73.1312C450.17 73.4196 449.961 73.6516 449.699 73.8272C449.44 73.9996 449.155 74.1255 448.844 74.2051V74.3045C449.182 74.3211 449.512 74.4305 449.833 74.6326C450.158 74.8315 450.426 75.1149 450.638 75.4828C450.851 75.8507 450.957 76.2981 450.957 76.8251C450.957 77.3455 450.834 77.8128 450.589 78.2271C450.347 78.6381 449.972 78.9645 449.465 79.2065C448.958 79.4451 448.31 79.5645 447.521 79.5645H443.619ZM445.155 78.247H447.372C448.108 78.247 448.635 78.1045 448.953 77.8194C449.271 77.5344 449.43 77.1781 449.43 76.7505C449.43 76.429 449.349 76.1341 449.187 75.8656C449.024 75.5971 448.792 75.3833 448.491 75.2243C448.192 75.0652 447.838 74.9856 447.427 74.9856H445.155V78.247ZM445.155 73.7875H447.213C447.558 73.7875 447.868 73.7212 448.143 73.5886C448.421 73.456 448.642 73.2704 448.804 73.0318C448.97 72.7898 449.053 72.5048 449.053 72.1767C449.053 71.7557 448.905 71.4028 448.61 71.1177C448.315 70.8327 447.863 70.6902 447.253 70.6902H445.155V73.7875ZM457.497 76.3975V71.9281H458.988V79.5645H457.527V78.242H457.447C457.271 78.6497 456.99 78.9894 456.602 79.2612C456.217 79.5297 455.739 79.6639 455.165 79.6639C454.675 79.6639 454.24 79.5562 453.863 79.3407C453.488 79.122 453.193 78.7988 452.978 78.3713C452.766 77.9437 452.659 77.4151 452.659 76.7853V71.9281H454.146V76.6064C454.146 77.1267 454.29 77.541 454.578 77.8493C454.867 78.1575 455.241 78.3116 455.702 78.3116C455.98 78.3116 456.257 78.242 456.532 78.1028C456.811 77.9636 457.041 77.7531 457.223 77.4714C457.409 77.1897 457.5 76.8317 457.497 76.3975ZM464.55 71.9281V73.1213H460.379V71.9281H464.55ZM461.498 70.0985H462.984V77.3223C462.984 77.6106 463.027 77.8277 463.113 77.9735C463.2 78.1161 463.311 78.2138 463.447 78.2669C463.586 78.3166 463.737 78.3414 463.899 78.3414C464.018 78.3414 464.123 78.3332 464.212 78.3166C464.302 78.3 464.371 78.2868 464.421 78.2768L464.689 79.5048C464.603 79.5379 464.481 79.5711 464.322 79.6042C464.162 79.6407 463.964 79.6606 463.725 79.6639C463.334 79.6705 462.969 79.6009 462.631 79.4551C462.293 79.3092 462.02 79.0839 461.811 78.7789C461.602 78.474 461.498 78.0912 461.498 77.6305V70.0985ZM469.759 71.9281V73.1213H465.588V71.9281H469.759ZM466.707 70.0985H468.193V77.3223C468.193 77.6106 468.236 77.8277 468.322 77.9735C468.409 78.1161 468.52 78.2138 468.656 78.2669C468.795 78.3166 468.946 78.3414 469.108 78.3414C469.227 78.3414 469.332 78.3332 469.421 78.3166C469.511 78.3 469.58 78.2868 469.63 78.2768L469.898 79.5048C469.812 79.5379 469.69 79.5711 469.531 79.6042C469.371 79.6407 469.173 79.6606 468.934 79.6639C468.543 79.6705 468.178 79.6009 467.84 79.4551C467.502 79.3092 467.229 79.0839 467.02 78.7789C466.811 78.474 466.707 78.0912 466.707 77.6305V70.0985ZM474.538 79.7186C473.822 79.7186 473.198 79.5545 472.664 79.2264C472.13 78.8983 471.716 78.4392 471.421 77.8493C471.126 77.2593 470.979 76.5699 470.979 75.7811C470.979 74.9889 471.126 74.2962 471.421 73.7029C471.716 73.1097 472.13 72.649 472.664 72.3208C473.198 71.9927 473.822 71.8287 474.538 71.8287C475.254 71.8287 475.879 71.9927 476.412 72.3208C476.946 72.649 477.36 73.1097 477.655 73.7029C477.95 74.2962 478.098 74.9889 478.098 75.7811C478.098 76.5699 477.95 77.2593 477.655 77.8493C477.36 78.4392 476.946 78.8983 476.412 79.2264C475.879 79.5545 475.254 79.7186 474.538 79.7186ZM474.543 78.4707C475.007 78.4707 475.392 78.3481 475.697 78.1028C476.001 77.8575 476.227 77.5311 476.373 77.1234C476.522 76.7157 476.596 76.2666 476.596 75.7761C476.596 75.2889 476.522 74.8414 476.373 74.4338C476.227 74.0228 476.001 73.693 475.697 73.4444C475.392 73.1958 475.007 73.0716 474.543 73.0716C474.076 73.0716 473.688 73.1958 473.38 73.4444C473.075 73.693 472.848 74.0228 472.699 74.4338C472.553 74.8414 472.48 75.2889 472.48 75.7761C472.48 76.2666 472.553 76.7157 472.699 77.1234C472.848 77.5311 473.075 77.8575 473.38 78.1028C473.688 78.3481 474.076 78.4707 474.543 78.4707ZM481.244 75.0304V79.5645H479.757V71.9281H481.184V73.171H481.278C481.454 72.7666 481.729 72.4418 482.104 72.1966C482.482 71.9513 482.957 71.8287 483.531 71.8287C484.051 71.8287 484.507 71.938 484.898 72.1568C485.289 72.3722 485.592 72.6937 485.808 73.1213C486.023 73.5488 486.131 74.0775 486.131 74.7072V79.5645H484.644V74.8862C484.644 74.3327 484.5 73.9002 484.212 73.5886C483.923 73.2737 483.527 73.1163 483.023 73.1163C482.679 73.1163 482.372 73.1909 482.104 73.34C481.839 73.4892 481.628 73.7079 481.472 73.9963C481.32 74.2813 481.244 74.626 481.244 75.0304Z" fill="#121231"/>
<path d="M489.014 143.796L481.316 139.334C480.368 138.784 479.15 139.102 478.597 140.044L459.724 172.147L447.298 164.945C446.529 164.499 445.542 164.756 445.093 165.52L440.22 173.809C439.771 174.572 440.031 175.552 440.799 175.998L462.964 188.846C463.733 189.292 464.72 189.034 465.169 188.271L465.348 187.965C465.352 187.959 465.356 187.954 465.36 187.948L489.729 146.496C490.282 145.555 489.962 144.346 489.014 143.796Z" fill="#61A05F"/>
</svg>
