<svg width="510" height="346" viewBox="0 0 510 346" fill="none" xmlns="http://www.w3.org/2000/svg">
<rect y="0.570312" width="510" height="344.636" rx="10.303" fill="#9D9797"/>
<rect x="5.15161" y="5.72192" width="90.2121" height="48.6061" rx="5.15151" fill="#757575"/>
<path d="M30.3655 21.1654V38.0249H27.9041V21.1654H30.3655ZM39.0032 38.2801C37.8177 38.2801 36.7832 38.0084 35.8996 37.4651C35.016 36.9218 34.33 36.1617 33.8416 35.1848C33.3531 34.2079 33.1089 33.0664 33.1089 31.7602C33.1089 30.4486 33.3531 29.3015 33.8416 28.3192C34.33 27.3368 35.016 26.5739 35.8996 26.0306C36.7832 25.4873 37.8177 25.2156 39.0032 25.2156C40.1886 25.2156 41.2231 25.4873 42.1067 26.0306C42.9903 26.5739 43.6763 27.3368 44.1647 28.3192C44.6532 29.3015 44.8974 30.4486 44.8974 31.7602C44.8974 33.0664 44.6532 34.2079 44.1647 35.1848C43.6763 36.1617 42.9903 36.9218 42.1067 37.4651C41.2231 38.0084 40.1886 38.2801 39.0032 38.2801ZM39.0114 36.2138C39.7797 36.2138 40.4163 36.0108 40.9212 35.6046C41.4262 35.1985 41.7993 34.6579 42.0408 33.9829C42.2878 33.3079 42.4113 32.5642 42.4113 31.752C42.4113 30.9452 42.2878 30.2043 42.0408 29.5293C41.7993 28.8488 41.4262 28.3027 40.9212 27.8911C40.4163 27.4795 39.7797 27.2737 39.0114 27.2737C38.2376 27.2737 37.5954 27.4795 37.0851 27.8911C36.5801 28.3027 36.2042 28.8488 35.9572 29.5293C35.7158 30.2043 35.595 30.9452 35.595 31.752C35.595 32.5642 35.7158 33.3079 35.9572 33.9829C36.2042 34.6579 36.5801 35.1985 37.0851 35.6046C37.5954 36.0108 38.2376 36.2138 39.0114 36.2138ZM52.9464 43.0301C51.9421 43.0301 51.0777 42.8984 50.3533 42.6349C49.6343 42.3715 49.0471 42.023 48.5916 41.5894C48.1361 41.1559 47.7958 40.6812 47.5708 40.1653L49.6865 39.2927C49.8346 39.5341 50.0322 39.7893 50.2792 40.0583C50.5316 40.3327 50.8719 40.5659 51.3 40.758C51.7335 40.9501 52.2906 41.0461 52.9711 41.0461C53.9041 41.0461 54.6752 40.8184 55.2843 40.3628C55.8935 39.9128 56.1981 39.1939 56.1981 38.206V35.7199H56.0417C55.8935 35.9888 55.6795 36.2879 55.3996 36.6172C55.1252 36.9465 54.7465 37.2319 54.2636 37.4733C53.7806 37.7148 53.1522 37.8356 52.3784 37.8356C51.3795 37.8356 50.4795 37.6023 49.6782 37.1358C48.8825 36.6638 48.2513 35.9696 47.7848 35.0531C47.3238 34.1311 47.0933 32.9978 47.0933 31.6532C47.0933 30.3086 47.3211 29.1561 47.7766 28.1957C48.2376 27.2353 48.8687 26.4999 49.67 25.9895C50.4713 25.4736 51.3795 25.2156 52.3948 25.2156C53.1796 25.2156 53.8135 25.3473 54.2965 25.6108C54.7794 25.8687 55.1554 26.1706 55.4243 26.5163C55.6987 26.8621 55.91 27.1667 56.0582 27.4301H56.2393V25.3803H58.6513V38.3048C58.6513 39.3914 58.3988 40.2833 57.8939 40.9803C57.389 41.6772 56.7058 42.1931 55.8441 42.5279C54.988 42.8627 54.0221 43.0301 52.9464 43.0301ZM52.9217 35.794C53.6297 35.794 54.2279 35.6293 54.7163 35.3001C55.2103 34.9653 55.5834 34.4878 55.8359 33.8677C56.0938 33.242 56.2228 32.4929 56.2228 31.6203C56.2228 30.7696 56.0966 30.0205 55.8441 29.3729C55.5917 28.7253 55.2212 28.2204 54.7328 27.8582C54.2443 27.4905 53.6407 27.3066 52.9217 27.3066C52.1808 27.3066 51.5634 27.4987 51.0695 27.8829C50.5755 28.2615 50.2023 28.7774 49.9499 29.4305C49.7029 30.0836 49.5794 30.8135 49.5794 31.6203C49.5794 32.449 49.7057 33.1761 49.9581 33.8018C50.2106 34.4274 50.5838 34.9159 51.0777 35.2671C51.5771 35.6184 52.1918 35.794 52.9217 35.794ZM67.2786 38.2801C66.0932 38.2801 65.0587 38.0084 64.1751 37.4651C63.2915 36.9218 62.6055 36.1617 62.1171 35.1848C61.6286 34.2079 61.3844 33.0664 61.3844 31.7602C61.3844 30.4486 61.6286 29.3015 62.1171 28.3192C62.6055 27.3368 63.2915 26.5739 64.1751 26.0306C65.0587 25.4873 66.0932 25.2156 67.2786 25.2156C68.4641 25.2156 69.4986 25.4873 70.3822 26.0306C71.2657 26.5739 71.9518 27.3368 72.4402 28.3192C72.9286 29.3015 73.1729 30.4486 73.1729 31.7602C73.1729 33.0664 72.9286 34.2079 72.4402 35.1848C71.9518 36.1617 71.2657 36.9218 70.3822 37.4651C69.4986 38.0084 68.4641 38.2801 67.2786 38.2801ZM67.2869 36.2138C68.0552 36.2138 68.6918 36.0108 69.1967 35.6046C69.7016 35.1985 70.0748 34.6579 70.3163 33.9829C70.5633 33.3079 70.6868 32.5642 70.6868 31.752C70.6868 30.9452 70.5633 30.2043 70.3163 29.5293C70.0748 28.8488 69.7016 28.3027 69.1967 27.8911C68.6918 27.4795 68.0552 27.2737 67.2869 27.2737C66.513 27.2737 65.8709 27.4795 65.3605 27.8911C64.8556 28.3027 64.4797 28.8488 64.2327 29.5293C63.9912 30.2043 63.8705 30.9452 63.8705 31.752C63.8705 32.5642 63.9912 33.3079 64.2327 33.9829C64.4797 34.6579 64.8556 35.1985 65.3605 35.6046C65.8709 36.0108 66.513 36.2138 67.2869 36.2138Z" fill="white"/>
<rect x="387.636" y="5.72192" width="117.212" height="48.6061" rx="5.15151" fill="#757575"/>
<path d="M419.566 28.4673L417.335 28.8625C417.242 28.5771 417.093 28.3054 416.89 28.0475C416.693 27.7896 416.424 27.5783 416.084 27.4136C415.743 27.249 415.318 27.1667 414.808 27.1667C414.111 27.1667 413.529 27.3231 413.062 27.6359C412.596 27.9432 412.363 28.3411 412.363 28.8296C412.363 29.2521 412.519 29.5924 412.832 29.8503C413.145 30.1083 413.65 30.3196 414.347 30.4842L416.355 30.9452C417.519 31.2141 418.386 31.6285 418.957 32.1883C419.527 32.7481 419.813 33.4753 419.813 34.3698C419.813 35.1272 419.593 35.8022 419.154 36.3949C418.721 36.9822 418.114 37.4432 417.335 37.7779C416.561 38.1127 415.664 38.2801 414.643 38.2801C413.227 38.2801 412.072 37.9783 411.177 37.3746C410.283 36.7654 409.734 35.901 409.531 34.7814L411.91 34.4192C412.058 35.0394 412.363 35.5086 412.824 35.8269C413.285 36.1397 413.886 36.2961 414.627 36.2961C415.433 36.2961 416.078 36.1288 416.561 35.794C417.044 35.4537 417.285 35.0394 417.285 34.5509C417.285 34.1558 417.137 33.8237 416.841 33.5548C416.55 33.2859 416.103 33.0829 415.499 32.9456L413.359 32.4764C412.179 32.2075 411.306 31.7794 410.741 31.1922C410.181 30.605 409.901 29.8613 409.901 28.9613C409.901 28.2149 410.11 27.5618 410.527 27.002C410.944 26.4422 411.52 26.0059 412.256 25.6931C412.991 25.3748 413.833 25.2156 414.783 25.2156C416.149 25.2156 417.225 25.512 418.01 26.1047C418.795 26.6919 419.313 27.4795 419.566 28.4673ZM430.529 32.781V25.3803H432.999V38.0249H430.578V35.8351H430.447C430.156 36.5102 429.689 37.0727 429.047 37.5227C428.411 37.9673 427.618 38.1895 426.668 38.1895C425.856 38.1895 425.137 38.0112 424.511 37.6545C423.891 37.2922 423.403 36.7571 423.046 36.0492C422.695 35.3412 422.519 34.4659 422.519 33.4231V25.3803H424.981V33.1268C424.981 33.9884 425.219 34.6744 425.697 35.1848C426.174 35.6952 426.794 35.9504 427.557 35.9504C428.018 35.9504 428.476 35.8351 428.932 35.6046C429.393 35.3741 429.774 35.0256 430.076 34.5592C430.384 34.0927 430.535 33.4999 430.529 32.781ZM436.504 38.0249V21.1654H438.965V27.4301H439.113C439.256 27.1667 439.462 26.8621 439.731 26.5163C439.999 26.1706 440.373 25.8687 440.85 25.6108C441.328 25.3473 441.959 25.2156 442.744 25.2156C443.764 25.2156 444.675 25.4736 445.477 25.9895C446.278 26.5053 446.906 27.249 447.362 28.2204C447.823 29.1918 448.053 30.3607 448.053 31.7273C448.053 33.0938 447.826 34.2655 447.37 35.2424C446.914 36.2138 446.289 36.963 445.493 37.4898C444.697 38.0112 443.789 38.2719 442.768 38.2719C442 38.2719 441.371 38.1429 440.883 37.885C440.4 37.627 440.021 37.3252 439.747 36.9794C439.473 36.6337 439.261 36.3263 439.113 36.0574H438.907V38.0249H436.504ZM438.916 31.7026C438.916 32.5917 439.045 33.371 439.302 34.0405C439.56 34.7101 439.934 35.2342 440.422 35.6129C440.91 35.9861 441.509 36.1727 442.217 36.1727C442.952 36.1727 443.567 35.9778 444.061 35.5882C444.555 35.193 444.928 34.6579 445.18 33.9829C445.438 33.3079 445.567 32.5478 445.567 31.7026C445.567 30.8684 445.441 30.1193 445.188 29.4552C444.942 28.7911 444.568 28.267 444.069 27.8829C443.575 27.4987 442.958 27.3066 442.217 27.3066C441.503 27.3066 440.9 27.4905 440.406 27.8582C439.917 28.2259 439.547 28.739 439.294 29.3976C439.042 30.0562 438.916 30.8245 438.916 31.7026ZM450.817 38.0249V25.3803H453.18V27.4383H453.336C453.6 26.7413 454.031 26.198 454.629 25.8083C455.227 25.4132 455.943 25.2156 456.777 25.2156C457.622 25.2156 458.33 25.4132 458.901 25.8083C459.477 26.2035 459.903 26.7468 460.177 27.4383H460.309C460.611 26.7633 461.091 26.2254 461.75 25.8248C462.408 25.4187 463.193 25.2156 464.104 25.2156C465.251 25.2156 466.187 25.5751 466.911 26.294C467.641 27.013 468.006 28.0969 468.006 29.5458V38.0249H465.545V29.7763C465.545 28.9201 465.311 28.3 464.845 27.9158C464.378 27.5316 463.821 27.3395 463.174 27.3395C462.372 27.3395 461.75 27.5865 461.305 28.0804C460.86 28.5689 460.638 29.1973 460.638 29.9656V38.0249H458.185V29.6198C458.185 28.9338 457.971 28.3823 457.543 27.9652C457.115 27.5481 456.558 27.3395 455.872 27.3395C455.405 27.3395 454.974 27.463 454.579 27.71C454.19 27.9515 453.874 28.289 453.633 28.7225C453.397 29.1561 453.279 29.6583 453.279 30.229V38.0249H450.817ZM471.305 38.0249V25.3803H473.766V38.0249H471.305ZM472.548 23.4292C472.12 23.4292 471.752 23.2866 471.445 23.0012C471.143 22.7103 470.992 22.3646 470.992 21.9639C470.992 21.5578 471.143 21.212 471.445 20.9267C471.752 20.6358 472.12 20.4904 472.548 20.4904C472.976 20.4904 473.341 20.6358 473.643 20.9267C473.95 21.212 474.104 21.5578 474.104 21.9639C474.104 22.3646 473.95 22.7103 473.643 23.0012C473.341 23.2866 472.976 23.4292 472.548 23.4292ZM482.98 25.3803V27.356H476.074V25.3803H482.98ZM477.926 22.3508H480.387V34.3122C480.387 34.7897 480.459 35.1491 480.601 35.3906C480.744 35.6266 480.928 35.7885 481.153 35.8763C481.383 35.9586 481.633 35.9998 481.902 35.9998C482.099 35.9998 482.272 35.9861 482.421 35.9586C482.569 35.9312 482.684 35.9092 482.766 35.8928L483.211 37.9261C483.068 37.981 482.865 38.0359 482.602 38.0908C482.338 38.1511 482.009 38.1841 481.614 38.1895C480.966 38.2005 480.363 38.0853 479.803 37.8438C479.243 37.6023 478.79 37.2291 478.444 36.7242C478.099 36.2193 477.926 35.5854 477.926 34.8226V22.3508Z" fill="white"/>
<rect x="5.15161" y="84.2065" width="123.636" height="184.424" rx="10.303" fill="#757575"/>
<path d="M19.6783 98.8897V99.7678H16.5026V98.8897H19.6783ZM17.3733 104.51V98.2384C17.3733 97.8872 17.4502 97.5957 17.6038 97.364C17.7575 97.1298 17.9612 96.9554 18.2148 96.8408C18.4685 96.7237 18.7441 96.6652 19.0417 96.6652C19.2612 96.6652 19.4491 96.6835 19.6052 96.7201C19.7613 96.7542 19.8771 96.7859 19.9527 96.8152L19.6966 97.7006C19.6454 97.686 19.5796 97.6689 19.4991 97.6494C19.4186 97.6274 19.321 97.6164 19.2064 97.6164C18.9405 97.6164 18.7502 97.6823 18.6356 97.814C18.5234 97.9457 18.4673 98.136 18.4673 98.3848V104.51H17.3733ZM20.8071 104.51V98.8897H21.901V104.51H20.8071ZM21.3595 98.0226C21.1693 98.0226 21.0059 97.9591 20.8693 97.8323C20.7351 97.703 20.668 97.5494 20.668 97.3713C20.668 97.1908 20.7351 97.0371 20.8693 96.9103C21.0059 96.781 21.1693 96.7164 21.3595 96.7164C21.5498 96.7164 21.712 96.781 21.8461 96.9103C21.9827 97.0371 22.051 97.1908 22.051 97.3713C22.051 97.5494 21.9827 97.703 21.8461 97.8323C21.712 97.9591 21.5498 98.0226 21.3595 98.0226ZM24.4667 97.0164V104.51H23.3728V97.0164H24.4667ZM28.5618 98.8897V99.7678H25.4921V98.8897H28.5618ZM26.3153 97.5433H27.4093V102.859C27.4093 103.072 27.441 103.231 27.5044 103.339C27.5678 103.444 27.6495 103.516 27.7495 103.555C27.852 103.591 27.963 103.609 28.0825 103.609C28.1703 103.609 28.2471 103.603 28.313 103.591C28.3788 103.579 28.4301 103.569 28.4667 103.562L28.6642 104.466C28.6008 104.49 28.5106 104.514 28.3935 104.539C28.2764 104.566 28.13 104.58 27.9544 104.583C27.6666 104.588 27.3983 104.536 27.1495 104.429C26.9007 104.322 26.6995 104.156 26.5458 103.931C26.3921 103.707 26.3153 103.425 26.3153 103.086V97.5433ZM32.1336 104.623C31.5799 104.623 31.1031 104.505 30.7031 104.268C30.3055 104.029 29.9981 103.694 29.7811 103.262C29.5664 102.828 29.4591 102.319 29.4591 101.736C29.4591 101.161 29.5664 100.653 29.7811 100.214C29.9981 99.7751 30.3006 99.4324 30.6884 99.186C31.0787 98.9397 31.5348 98.8165 32.0568 98.8165C32.3739 98.8165 32.6812 98.869 32.9788 98.9738C33.2764 99.0787 33.5435 99.2434 33.7801 99.4678C34.0167 99.6922 34.2033 99.9837 34.3399 100.342C34.4764 100.698 34.5447 101.131 34.5447 101.641V102.029H30.0774V101.209H33.4727C33.4727 100.922 33.4142 100.667 33.2971 100.445C33.18 100.22 33.0154 100.043 32.8032 99.9141C32.5934 99.7849 32.3471 99.7202 32.0641 99.7202C31.7568 99.7202 31.4885 99.7958 31.2592 99.9471C31.0323 100.096 30.8567 100.291 30.7323 100.532C30.6104 100.772 30.5494 101.031 30.5494 101.312V101.952C30.5494 102.328 30.6152 102.647 30.747 102.911C30.8811 103.174 31.0677 103.375 31.3068 103.514C31.5458 103.651 31.8251 103.719 32.1446 103.719C32.3519 103.719 32.541 103.69 32.7117 103.631C32.8825 103.57 33.03 103.48 33.1544 103.361C33.2788 103.241 33.3739 103.094 33.4398 102.918L34.4752 103.105C34.3923 103.409 34.2435 103.677 34.0289 103.906C33.8167 104.133 33.5496 104.31 33.2276 104.436C32.9081 104.561 32.5434 104.623 32.1336 104.623ZM35.7585 104.51V98.8897H36.8159V99.7824H36.8744C36.9769 99.48 37.1574 99.2421 37.4159 99.069C37.6769 98.8933 37.9721 98.8055 38.3014 98.8055C38.3697 98.8055 38.4501 98.808 38.5428 98.8129C38.638 98.8177 38.7124 98.8238 38.766 98.8311V99.8775C38.7221 99.8654 38.6441 99.8519 38.5319 99.8373C38.4197 99.8202 38.3075 99.8117 38.1953 99.8117C37.9367 99.8117 37.7062 99.8666 37.5038 99.9763C37.3037 100.084 37.1452 100.234 37.0281 100.426C36.911 100.617 36.8525 100.834 36.8525 101.078V104.51H35.7585ZM44.8615 104.623C44.3078 104.623 43.8309 104.505 43.4309 104.268C43.0333 104.029 42.726 103.694 42.5089 103.262C42.2943 102.828 42.1869 102.319 42.1869 101.736C42.1869 101.161 42.2943 100.653 42.5089 100.214C42.726 99.7751 43.0285 99.4324 43.4163 99.186C43.8066 98.9397 44.2627 98.8165 44.7847 98.8165C45.1018 98.8165 45.4091 98.869 45.7067 98.9738C46.0042 99.0787 46.2713 99.2434 46.5079 99.4678C46.7445 99.6922 46.9311 99.9837 47.0677 100.342C47.2043 100.698 47.2726 101.131 47.2726 101.641V102.029H42.8053V101.209H46.2006C46.2006 100.922 46.1421 100.667 46.025 100.445C45.9079 100.22 45.7433 100.043 45.531 99.9141C45.3213 99.7849 45.0749 99.7202 44.792 99.7202C44.4846 99.7202 44.2163 99.7958 43.9871 99.9471C43.7602 100.096 43.5846 100.291 43.4602 100.532C43.3382 100.772 43.2773 101.031 43.2773 101.312V101.952C43.2773 102.328 43.3431 102.647 43.4748 102.911C43.609 103.174 43.7956 103.375 44.0346 103.514C44.2737 103.651 44.5529 103.719 44.8725 103.719C45.0798 103.719 45.2688 103.69 45.4396 103.631C45.6103 103.57 45.7579 103.48 45.8823 103.361C46.0067 103.241 46.1018 103.094 46.1677 102.918L47.2031 103.105C47.1202 103.409 46.9714 103.677 46.7567 103.906C46.5445 104.133 46.2774 104.31 45.9555 104.436C45.6359 104.561 45.2713 104.623 44.8615 104.623ZM49.5804 97.0164V104.51H48.4864V97.0164H49.5804ZM53.4742 104.623C52.9205 104.623 52.4436 104.505 52.0436 104.268C51.646 104.029 51.3387 103.694 51.1216 103.262C50.907 102.828 50.7996 102.319 50.7996 101.736C50.7996 101.161 50.907 100.653 51.1216 100.214C51.3387 99.7751 51.6411 99.4324 52.029 99.186C52.4192 98.9397 52.8754 98.8165 53.3973 98.8165C53.7144 98.8165 54.0218 98.869 54.3193 98.9738C54.6169 99.0787 54.884 99.2434 55.1206 99.4678C55.3572 99.6922 55.5438 99.9837 55.6804 100.342C55.817 100.698 55.8853 101.131 55.8853 101.641V102.029H51.418V101.209H54.8133C54.8133 100.922 54.7547 100.667 54.6377 100.445C54.5206 100.22 54.3559 100.043 54.1437 99.9141C53.934 99.7849 53.6876 99.7202 53.4047 99.7202C53.0973 99.7202 52.829 99.7958 52.5997 99.9471C52.3729 100.096 52.1973 100.291 52.0729 100.532C51.9509 100.772 51.8899 101.031 51.8899 101.312V101.952C51.8899 102.328 51.9558 102.647 52.0875 102.911C52.2217 103.174 52.4083 103.375 52.6473 103.514C52.8863 103.651 53.1656 103.719 53.4852 103.719C53.6925 103.719 53.8815 103.69 54.0523 103.631C54.223 103.57 54.3706 103.48 54.495 103.361C54.6194 103.241 54.7145 103.094 54.7804 102.918L55.8158 103.105C55.7328 103.409 55.5841 103.677 55.3694 103.906C55.1572 104.133 54.8901 104.31 54.5681 104.436C54.2486 104.561 53.884 104.623 53.4742 104.623ZM57.0991 104.51V98.8897H58.1491V99.8044H58.2187C58.3357 99.4946 58.5272 99.2531 58.7931 99.0799C59.059 98.9043 59.3773 98.8165 59.748 98.8165C60.1236 98.8165 60.4383 98.9043 60.692 99.0799C60.9481 99.2556 61.1371 99.497 61.2591 99.8044H61.3176C61.4518 99.5044 61.6652 99.2653 61.9579 99.0873C62.2506 98.9068 62.5994 98.8165 63.0043 98.8165C63.5141 98.8165 63.93 98.9763 64.2519 99.2958C64.5763 99.6153 64.7385 100.097 64.7385 100.741V104.51H63.6446V100.843C63.6446 100.463 63.5409 100.187 63.3336 100.017C63.1263 99.8458 62.8787 99.7605 62.5909 99.7605C62.2347 99.7605 61.9579 99.8702 61.7603 100.09C61.5628 100.307 61.464 100.586 61.464 100.928V104.51H60.3737V100.774C60.3737 100.469 60.2785 100.224 60.0883 100.039C59.898 99.8532 59.6504 99.7605 59.3456 99.7605C59.1382 99.7605 58.9467 99.8154 58.7711 99.9251C58.5979 100.032 58.4577 100.182 58.3504 100.375C58.2455 100.568 58.193 100.791 58.193 101.045V104.51H57.0991ZM68.6269 104.623C68.0732 104.623 67.5963 104.505 67.1963 104.268C66.7987 104.029 66.4914 103.694 66.2743 103.262C66.0597 102.828 65.9523 102.319 65.9523 101.736C65.9523 101.161 66.0597 100.653 66.2743 100.214C66.4914 99.7751 66.7938 99.4324 67.1817 99.186C67.5719 98.9397 68.0281 98.8165 68.55 98.8165C68.8671 98.8165 69.1745 98.869 69.472 98.9738C69.7696 99.0787 70.0367 99.2434 70.2733 99.4678C70.5099 99.6922 70.6965 99.9837 70.8331 100.342C70.9697 100.698 71.038 101.131 71.038 101.641V102.029H66.5707V101.209H69.966C69.966 100.922 69.9074 100.667 69.7904 100.445C69.6733 100.22 69.5086 100.043 69.2964 99.9141C69.0867 99.7849 68.8403 99.7202 68.5574 99.7202C68.25 99.7202 67.9817 99.7958 67.7524 99.9471C67.5256 100.096 67.35 100.291 67.2256 100.532C67.1036 100.772 67.0426 101.031 67.0426 101.312V101.952C67.0426 102.328 67.1085 102.647 67.2402 102.911C67.3744 103.174 67.561 103.375 67.8 103.514C68.039 103.651 68.3183 103.719 68.6379 103.719C68.8452 103.719 69.0342 103.69 69.205 103.631C69.3757 103.57 69.5233 103.48 69.6477 103.361C69.7721 103.241 69.8672 103.094 69.933 102.918L70.9685 103.105C70.8855 103.409 70.7368 103.677 70.5221 103.906C70.3099 104.133 70.0428 104.31 69.7208 104.436C69.4013 104.561 69.0367 104.623 68.6269 104.623ZM73.3457 101.173V104.51H72.2518V98.8897H73.3018V99.8044H73.3714C73.5006 99.5068 73.7031 99.2678 73.9787 99.0873C74.2568 98.9068 74.6068 98.8165 75.0288 98.8165C75.4117 98.8165 75.7471 98.897 76.0349 99.058C76.3227 99.2165 76.5459 99.4531 76.7045 99.7678C76.863 100.082 76.9423 100.471 76.9423 100.935V104.51H75.8483V101.067C75.8483 100.659 75.7422 100.341 75.53 100.112C75.3178 99.88 75.0263 99.7641 74.6556 99.7641C74.4019 99.7641 74.1763 99.819 73.9787 99.9288C73.7836 100.039 73.6287 100.2 73.514 100.412C73.4018 100.621 73.3457 100.875 73.3457 101.173ZM81.0328 98.8897V99.7678H77.9631V98.8897H81.0328ZM78.7863 97.5433H79.8803V102.859C79.8803 103.072 79.912 103.231 79.9754 103.339C80.0388 103.444 80.1205 103.516 80.2205 103.555C80.323 103.591 80.434 103.609 80.5535 103.609C80.6413 103.609 80.7181 103.603 80.784 103.591C80.8498 103.579 80.9011 103.569 80.9376 103.562L81.1352 104.466C81.0718 104.49 80.9815 104.514 80.8645 104.539C80.7474 104.566 80.601 104.58 80.4254 104.583C80.1376 104.588 79.8693 104.536 79.6205 104.429C79.3717 104.322 79.1705 104.156 79.0168 103.931C78.8631 103.707 78.7863 103.425 78.7863 103.086V97.5433ZM86.3636 100.262L85.3721 100.437C85.3306 100.311 85.2647 100.19 85.1745 100.075C85.0867 99.9605 84.9671 99.8666 84.8159 99.7934C84.6647 99.7202 84.4757 99.6836 84.2488 99.6836C83.939 99.6836 83.6805 99.7532 83.4732 99.8922C83.2658 100.029 83.1622 100.206 83.1622 100.423C83.1622 100.611 83.2317 100.762 83.3707 100.876C83.5097 100.991 83.7342 101.085 84.0439 101.158L84.9367 101.363C85.4538 101.483 85.8392 101.667 86.0928 101.915C86.3465 102.164 86.4733 102.487 86.4733 102.885C86.4733 103.222 86.3758 103.522 86.1806 103.785C85.9879 104.046 85.7184 104.251 85.3721 104.4C85.0281 104.549 84.6293 104.623 84.1756 104.623C83.5463 104.623 83.0329 104.489 82.6353 104.22C82.2377 103.95 81.9938 103.566 81.9036 103.068L82.9609 102.907C83.0268 103.183 83.1622 103.391 83.3671 103.533C83.5719 103.672 83.839 103.741 84.1683 103.741C84.5269 103.741 84.8135 103.667 85.0281 103.518C85.2428 103.367 85.3501 103.183 85.3501 102.966C85.3501 102.79 85.2842 102.642 85.1525 102.523C85.0233 102.403 84.8245 102.313 84.5562 102.252L83.6049 102.044C83.0805 101.924 82.6926 101.734 82.4414 101.473C82.1926 101.212 82.0682 100.881 82.0682 100.481C82.0682 100.15 82.1609 99.8593 82.3463 99.6105C82.5316 99.3617 82.7878 99.1678 83.1146 99.0287C83.4415 98.8872 83.8159 98.8165 84.2378 98.8165C84.8452 98.8165 85.3233 98.9482 85.6721 99.2117C86.0209 99.4726 86.2514 99.8227 86.3636 100.262Z" fill="#030202"/>
<path d="M15.4546 122.222C15.4546 117.243 19.4908 113.207 24.4697 113.207H109.985C114.964 113.207 119 117.243 119 122.222C119 127.201 114.964 131.237 109.985 131.237H24.4697C19.4908 131.237 15.4546 127.201 15.4546 122.222Z" fill="#D9D9D9"/>
<ellipse cx="105.915" cy="121.152" rx="3.4128" ry="3.35573" stroke="black" stroke-width="1.0303"/>
<path d="M108.364 123.56L112.801 127.923" stroke="black" stroke-width="1.0303"/>
<path d="M19.9815 147.934V140.441H21.0754V143.225H21.1413C21.2047 143.108 21.2962 142.973 21.4157 142.819C21.5352 142.665 21.7011 142.531 21.9133 142.416C22.1255 142.299 22.406 142.241 22.7548 142.241C23.2085 142.241 23.6134 142.355 23.9695 142.585C24.3256 142.814 24.6049 143.145 24.8074 143.576C25.0122 144.008 25.1147 144.528 25.1147 145.135C25.1147 145.742 25.0135 146.263 24.811 146.697C24.6086 147.129 24.3305 147.462 23.9768 147.696C23.6231 147.928 23.2195 148.044 22.7658 148.044C22.4243 148.044 22.145 147.986 21.9279 147.872C21.7133 147.757 21.545 147.623 21.423 147.469C21.3011 147.316 21.2071 147.179 21.1413 147.059H21.0498V147.934H19.9815ZM21.0535 145.124C21.0535 145.519 21.1108 145.865 21.2254 146.163C21.3401 146.461 21.5059 146.694 21.723 146.862C21.9401 147.028 22.206 147.111 22.5206 147.111C22.8475 147.111 23.1207 147.024 23.3402 146.851C23.5597 146.675 23.7256 146.437 23.8378 146.137C23.9524 145.837 24.0097 145.5 24.0097 145.124C24.0097 144.753 23.9536 144.42 23.8414 144.125C23.7317 143.83 23.5658 143.597 23.3439 143.426C23.1243 143.256 22.8499 143.17 22.5206 143.17C22.2035 143.17 21.9352 143.252 21.7157 143.415C21.4986 143.579 21.334 143.807 21.2218 144.099C21.1096 144.392 21.0535 144.734 21.0535 145.124ZM26.8434 150.041C26.68 150.041 26.5312 150.028 26.3971 150.001C26.2629 149.977 26.1629 149.95 26.0971 149.921L26.3605 149.024C26.5605 149.078 26.7386 149.101 26.8947 149.094C27.0508 149.086 27.1886 149.028 27.3081 148.918C27.4301 148.808 27.5374 148.629 27.6301 148.38L27.7654 148.007L25.7092 142.314H26.88L28.3033 146.675H28.3618L29.7851 142.314H30.9595L28.6435 148.684C28.5362 148.977 28.3996 149.224 28.2338 149.427C28.0679 149.631 27.8703 149.785 27.6411 149.888C27.4118 149.99 27.1459 150.041 26.8434 150.041ZM37.3376 142.314V143.192H34.268V142.314H37.3376ZM35.0912 140.968H36.1851V146.284C36.1851 146.496 36.2168 146.656 36.2803 146.763C36.3437 146.868 36.4254 146.94 36.5254 146.979C36.6278 147.015 36.7388 147.034 36.8583 147.034C36.9462 147.034 37.023 147.028 37.0888 147.015C37.1547 147.003 37.2059 146.994 37.2425 146.986L37.4401 147.89C37.3767 147.914 37.2864 147.939 37.1693 147.963C37.0523 147.99 36.9059 148.005 36.7303 148.007C36.4425 148.012 36.1742 147.961 35.9254 147.853C35.6766 147.746 35.4753 147.58 35.3217 147.356C35.168 147.131 35.0912 146.85 35.0912 146.511V140.968ZM39.2393 150.041C39.0759 150.041 38.9271 150.028 38.7929 150.001C38.6588 149.977 38.5588 149.95 38.4929 149.921L38.7563 149.024C38.9563 149.078 39.1344 149.101 39.2905 149.094C39.4466 149.086 39.5844 149.028 39.7039 148.918C39.8259 148.808 39.9332 148.629 40.0259 148.38L40.1613 148.007L38.1051 142.314H39.2759L40.6991 146.675H40.7577L42.1809 142.314H43.3554L41.0394 148.684C40.9321 148.977 40.7955 149.224 40.6296 149.427C40.4637 149.631 40.2662 149.785 40.0369 149.888C39.8076 149.99 39.5417 150.041 39.2393 150.041ZM44.3835 150.041V142.314H45.4518V143.225H45.5433C45.6067 143.108 45.6982 142.973 45.8177 142.819C45.9372 142.665 46.1031 142.531 46.3153 142.416C46.5275 142.299 46.808 142.241 47.1568 142.241C47.6105 142.241 48.0154 142.355 48.3715 142.585C48.7276 142.814 49.0069 143.145 49.2094 143.576C49.4142 144.008 49.5167 144.528 49.5167 145.135C49.5167 145.742 49.4155 146.263 49.213 146.697C49.0106 147.129 48.7325 147.462 48.3788 147.696C48.0251 147.928 47.6215 148.044 47.1678 148.044C46.8263 148.044 46.547 147.986 46.3299 147.872C46.1153 147.757 45.947 147.623 45.825 147.469C45.7031 147.316 45.6092 147.179 45.5433 147.059H45.4774V150.041H44.3835ZM45.4555 145.124C45.4555 145.519 45.5128 145.865 45.6274 146.163C45.7421 146.461 45.908 146.694 46.125 146.862C46.3421 147.028 46.608 147.111 46.9226 147.111C47.2495 147.111 47.5227 147.024 47.7422 146.851C47.9617 146.675 48.1276 146.437 48.2398 146.137C48.3544 145.837 48.4118 145.5 48.4118 145.124C48.4118 144.753 48.3557 144.42 48.2435 144.125C48.1337 143.83 47.9678 143.597 47.7459 143.426C47.5263 143.256 47.2519 143.17 46.9226 143.17C46.6056 143.17 46.3372 143.252 46.1177 143.415C45.9006 143.579 45.736 143.807 45.6238 144.099C45.5116 144.392 45.4555 144.734 45.4555 145.124ZM53.1645 148.047C52.6108 148.047 52.1339 147.929 51.7339 147.692C51.3363 147.453 51.029 147.118 50.8119 146.686C50.5972 146.252 50.4899 145.743 50.4899 145.161C50.4899 144.585 50.5972 144.078 50.8119 143.638C51.029 143.199 51.3314 142.857 51.7193 142.61C52.1095 142.364 52.5656 142.241 53.0876 142.241C53.4047 142.241 53.7121 142.293 54.0096 142.398C54.3072 142.503 54.5743 142.668 54.8109 142.892C55.0475 143.116 55.2341 143.408 55.3707 143.767C55.5073 144.123 55.5756 144.556 55.5756 145.065V145.453H51.1082V144.634H54.5036C54.5036 144.346 54.445 144.091 54.3279 143.869C54.2109 143.645 54.0462 143.468 53.834 143.338C53.6242 143.209 53.3779 143.145 53.0949 143.145C52.7876 143.145 52.5193 143.22 52.29 143.371C52.0632 143.52 51.8876 143.715 51.7632 143.957C51.6412 144.196 51.5802 144.456 51.5802 144.736V145.376C51.5802 145.752 51.6461 146.072 51.7778 146.335C51.912 146.598 52.0985 146.8 52.3376 146.939C52.5766 147.075 52.8559 147.144 53.1754 147.144C53.3828 147.144 53.5718 147.114 53.7425 147.056C53.9133 146.995 54.0609 146.905 54.1853 146.785C54.3097 146.665 54.4048 146.518 54.4706 146.342L55.5061 146.529C55.4231 146.834 55.2743 147.101 55.0597 147.33C54.8475 147.557 54.5804 147.734 54.2584 147.861C53.9389 147.985 53.5742 148.047 53.1645 148.047Z" fill="#030202"/>
<path d="M72.5332 142.262L76.5514 146.28L80.5696 142.262" stroke="black" stroke-width="1.54545" stroke-linecap="round" stroke-linejoin="round"/>
<path d="M15.7122 159.388H22.9243V166.601H15.7122V159.388Z" fill="#130101" stroke="#E0E0E0" stroke-width="0.515152"/>
<path d="M30.7863 166.994V159.501H31.6497V162.267H31.7229C31.7863 162.17 31.8741 162.045 31.9863 161.894C32.101 161.74 32.2644 161.604 32.4766 161.484C32.6913 161.362 32.9815 161.301 33.3474 161.301C33.8206 161.301 34.2377 161.42 34.5987 161.656C34.9597 161.893 35.2414 162.228 35.4439 162.662C35.6463 163.097 35.7475 163.609 35.7475 164.199C35.7475 164.794 35.6463 165.31 35.4439 165.747C35.2414 166.181 34.9609 166.518 34.6023 166.757C34.2438 166.993 33.8304 167.111 33.362 167.111C33.001 167.111 32.712 167.052 32.4949 166.932C32.2778 166.81 32.1107 166.672 31.9937 166.519C31.8766 166.363 31.7863 166.233 31.7229 166.131H31.6205V166.994H30.7863ZM31.6351 164.184C31.6351 164.609 31.6973 164.983 31.8217 165.308C31.9461 165.63 32.1278 165.882 32.3669 166.065C32.6059 166.246 32.8986 166.336 33.245 166.336C33.6059 166.336 33.9072 166.241 34.1487 166.05C34.3926 165.858 34.5755 165.599 34.6975 165.275C34.8219 164.948 34.8841 164.584 34.8841 164.184C34.8841 163.789 34.8231 163.433 34.7011 163.116C34.5816 162.797 34.3999 162.544 34.156 162.359C33.9145 162.171 33.6108 162.077 33.245 162.077C32.8937 162.077 32.5986 162.166 32.3595 162.344C32.1205 162.52 31.94 162.766 31.818 163.083C31.6961 163.398 31.6351 163.765 31.6351 164.184ZM40.61 164.697V161.375H41.4735V166.994H40.61V166.043H40.5515C40.4198 166.328 40.2149 166.571 39.9368 166.771C39.6587 166.969 39.3075 167.068 38.8831 167.068C38.5318 167.068 38.2196 166.991 37.9464 166.837C37.6733 166.681 37.4586 166.447 37.3025 166.135C37.1464 165.82 37.0683 165.424 37.0683 164.945V161.375H37.9318V164.887C37.9318 165.297 38.0464 165.624 38.2757 165.867C38.5074 166.111 38.8026 166.233 39.1611 166.233C39.3758 166.233 39.5941 166.178 39.8161 166.069C40.0405 165.959 40.2283 165.791 40.3795 165.564C40.5332 165.337 40.61 165.048 40.61 164.697ZM45.499 161.375V162.106H42.5866V161.375H45.499ZM43.4355 160.028H44.2989V165.385C44.2989 165.628 44.3343 165.811 44.405 165.933C44.4782 166.053 44.5709 166.133 44.6831 166.175C44.7977 166.214 44.9185 166.233 45.0453 166.233C45.1405 166.233 45.2185 166.228 45.2795 166.219C45.3405 166.207 45.3892 166.197 45.4258 166.189L45.6015 166.965C45.5429 166.987 45.4612 167.009 45.3563 167.031C45.2514 167.055 45.1185 167.068 44.9575 167.068C44.7136 167.068 44.4746 167.015 44.2404 166.91C44.0087 166.805 43.816 166.646 43.6623 166.431C43.5111 166.216 43.4355 165.946 43.4355 165.619V160.028ZM49.2419 161.375V162.106H46.3295V161.375H49.2419ZM47.1784 160.028H48.0418V165.385C48.0418 165.628 48.0772 165.811 48.1479 165.933C48.2211 166.053 48.3138 166.133 48.426 166.175C48.5406 166.214 48.6614 166.233 48.7882 166.233C48.8833 166.233 48.9614 166.228 49.0224 166.219C49.0834 166.207 49.1321 166.197 49.1687 166.189L49.3444 166.965C49.2858 166.987 49.2041 167.009 49.0992 167.031C48.9943 167.055 48.8614 167.068 48.7004 167.068C48.4565 167.068 48.2175 167.015 47.9833 166.91C47.7516 166.805 47.5589 166.646 47.4052 166.431C47.254 166.216 47.1784 165.946 47.1784 165.619V160.028ZM52.7634 167.111C52.2561 167.111 51.811 166.991 51.428 166.749C51.0475 166.508 50.7499 166.17 50.5353 165.736C50.3231 165.302 50.217 164.794 50.217 164.214C50.217 163.628 50.3231 163.117 50.5353 162.681C50.7499 162.244 51.0475 161.905 51.428 161.664C51.811 161.422 52.2561 161.301 52.7634 161.301C53.2708 161.301 53.7147 161.422 54.0952 161.664C54.4782 161.905 54.7758 162.244 54.988 162.681C55.2026 163.117 55.3099 163.628 55.3099 164.214C55.3099 164.794 55.2026 165.302 54.988 165.736C54.7758 166.17 54.4782 166.508 54.0952 166.749C53.7147 166.991 53.2708 167.111 52.7634 167.111ZM52.7634 166.336C53.1488 166.336 53.4659 166.237 53.7147 166.039C53.9635 165.842 54.1477 165.582 54.2672 165.26C54.3867 164.938 54.4465 164.589 54.4465 164.214C54.4465 163.838 54.3867 163.488 54.2672 163.164C54.1477 162.839 53.9635 162.577 53.7147 162.377C53.4659 162.177 53.1488 162.077 52.7634 162.077C52.3781 162.077 52.061 162.177 51.8122 162.377C51.5634 162.577 51.3792 162.839 51.2597 163.164C51.1402 163.488 51.0804 163.838 51.0804 164.214C51.0804 164.589 51.1402 164.938 51.2597 165.26C51.3792 165.582 51.5634 165.842 51.8122 166.039C52.061 166.237 52.3781 166.336 52.7634 166.336ZM57.4915 163.614V166.994H56.628V161.375H57.4622V162.253H57.5354C57.6671 161.967 57.8671 161.738 58.1354 161.565C58.4037 161.389 58.7501 161.301 59.1745 161.301C59.555 161.301 59.8879 161.379 60.1733 161.536C60.4587 161.689 60.6807 161.923 60.8392 162.238C60.9978 162.55 61.077 162.945 61.077 163.423V166.994H60.2136V163.482C60.2136 163.04 60.0989 162.697 59.8696 162.45C59.6404 162.201 59.3257 162.077 58.9257 162.077C58.6501 162.077 58.4037 162.137 58.1866 162.256C57.972 162.376 57.8025 162.55 57.6781 162.78C57.5537 163.009 57.4915 163.287 57.4915 163.614ZM66.6356 162.633L65.8599 162.853C65.8111 162.723 65.7392 162.598 65.6441 162.476C65.5514 162.351 65.4245 162.249 65.2636 162.168C65.1026 162.088 64.8965 162.048 64.6452 162.048C64.3013 162.048 64.0147 162.127 63.7854 162.286C63.5586 162.442 63.4452 162.64 63.4452 162.882C63.4452 163.097 63.5232 163.266 63.6793 163.391C63.8354 163.515 64.0793 163.619 64.4111 163.702L65.2453 163.906C65.7477 164.028 66.1221 164.215 66.3685 164.466C66.6149 164.715 66.738 165.036 66.738 165.428C66.738 165.75 66.6453 166.038 66.46 166.292C66.277 166.546 66.0209 166.746 65.6916 166.892C65.3623 167.038 64.9794 167.111 64.5428 167.111C63.9696 167.111 63.4952 166.987 63.1195 166.738C62.7439 166.489 62.5061 166.126 62.4061 165.648L63.2256 165.443C63.3037 165.746 63.4513 165.972 63.6683 166.124C63.8879 166.275 64.1745 166.35 64.5281 166.35C64.9306 166.35 65.2501 166.265 65.4867 166.094C65.7258 165.921 65.8453 165.714 65.8453 165.472C65.8453 165.277 65.777 165.114 65.6404 164.982C65.5038 164.848 65.294 164.748 65.0111 164.682L64.0745 164.463C63.5598 164.341 63.1817 164.152 62.9403 163.895C62.7012 163.637 62.5817 163.314 62.5817 162.926C62.5817 162.609 62.6707 162.328 62.8488 162.084C63.0293 161.84 63.2744 161.649 63.5842 161.51C63.8964 161.371 64.2501 161.301 64.6452 161.301C65.2014 161.301 65.638 161.423 65.9551 161.667C66.2746 161.911 66.5014 162.233 66.6356 162.633Z" fill="#030202"/>
<rect x="15.4546" y="177.828" width="7.72727" height="7.72727" fill="#D9D9D9"/>
<path d="M32.9376 187.916C32.5205 187.916 32.162 187.862 31.8619 187.755C31.5619 187.65 31.3119 187.511 31.1119 187.338C30.9143 187.167 30.757 186.984 30.6399 186.789L31.3278 186.306C31.4058 186.409 31.5046 186.526 31.6241 186.657C31.7436 186.791 31.9071 186.907 32.1144 187.005C32.3242 187.105 32.5986 187.155 32.9376 187.155C33.3913 187.155 33.7657 187.045 34.0609 186.826C34.356 186.606 34.5036 186.262 34.5036 185.794V184.652H34.4304C34.367 184.755 34.2767 184.882 34.1596 185.033C34.045 185.182 33.8791 185.315 33.662 185.432C33.4474 185.546 33.1571 185.604 32.7913 185.604C32.3376 185.604 31.9302 185.496 31.5692 185.282C31.2107 185.067 30.9265 184.755 30.7168 184.345C30.5094 183.935 30.4058 183.438 30.4058 182.852C30.4058 182.277 30.507 181.775 30.7094 181.348C30.9119 180.919 31.1936 180.587 31.5546 180.353C31.9156 180.117 32.3327 179.998 32.8059 179.998C33.1718 179.998 33.462 180.059 33.6767 180.181C33.8938 180.301 34.0596 180.437 34.1743 180.591C34.2914 180.742 34.3816 180.867 34.445 180.964H34.5328V180.072H35.367V185.852C35.367 186.335 35.2573 186.728 35.0377 187.031C34.8207 187.335 34.528 187.559 34.1596 187.7C33.7938 187.844 33.3864 187.916 32.9376 187.916ZM32.9083 184.828C33.2547 184.828 33.5474 184.749 33.7864 184.59C34.0255 184.432 34.2072 184.204 34.3316 183.906C34.456 183.608 34.5182 183.252 34.5182 182.838C34.5182 182.433 34.4572 182.075 34.3353 181.766C34.2133 181.456 34.0328 181.213 33.7938 181.037C33.5547 180.862 33.2596 180.774 32.9083 180.774C32.5425 180.774 32.2376 180.867 31.9937 181.052C31.7522 181.237 31.5705 181.486 31.4485 181.799C31.329 182.111 31.2692 182.457 31.2692 182.838C31.2692 183.228 31.3302 183.573 31.4522 183.873C31.5766 184.171 31.7595 184.405 32.001 184.575C32.2449 184.744 32.5474 184.828 32.9083 184.828ZM36.9476 185.691V180.072H37.7818V180.92H37.8403C37.9428 180.642 38.1282 180.417 38.3965 180.244C38.6648 180.07 38.9672 179.984 39.3038 179.984C39.3673 179.984 39.4465 179.985 39.5417 179.987C39.6368 179.99 39.7087 179.994 39.7575 179.998V180.876C39.7283 180.869 39.6612 180.858 39.5563 180.844C39.4538 180.826 39.3453 180.818 39.2307 180.818C38.9575 180.818 38.7136 180.875 38.4989 180.99C38.2867 181.102 38.1184 181.258 37.994 181.458C37.872 181.656 37.8111 181.881 37.8111 182.135V185.691H36.9476ZM40.7811 185.691V180.072H41.6445V185.691H40.7811ZM41.2201 179.135C41.0518 179.135 40.9067 179.078 40.7847 178.963C40.6652 178.848 40.6054 178.711 40.6054 178.55C40.6054 178.389 40.6652 178.251 40.7847 178.136C40.9067 178.021 41.0518 177.964 41.2201 177.964C41.3884 177.964 41.5323 178.021 41.6518 178.136C41.7738 178.251 41.8348 178.389 41.8348 178.55C41.8348 178.711 41.7738 178.848 41.6518 178.963C41.5323 179.078 41.3884 179.135 41.2201 179.135ZM45.3481 185.808C44.8798 185.808 44.4663 185.69 44.1078 185.454C43.7492 185.215 43.4687 184.878 43.2663 184.444C43.0638 184.007 42.9626 183.491 42.9626 182.896C42.9626 182.306 43.0638 181.794 43.2663 181.359C43.4687 180.925 43.7504 180.59 44.1114 180.353C44.4724 180.117 44.8895 179.998 45.3627 179.998C45.7286 179.998 46.0176 180.059 46.2298 180.181C46.4445 180.301 46.6079 180.437 46.7201 180.591C46.8348 180.742 46.9238 180.867 46.9872 180.964H47.0604V178.198H47.9238V185.691H47.0896V184.828H46.9872C46.9238 184.93 46.8335 185.06 46.7165 185.216C46.5994 185.369 46.4323 185.507 46.2152 185.629C45.9981 185.749 45.7091 185.808 45.3481 185.808ZM45.4652 185.033C45.8115 185.033 46.1042 184.943 46.3433 184.762C46.5823 184.579 46.764 184.327 46.8884 184.005C47.0128 183.68 47.075 183.306 47.075 182.881C47.075 182.462 47.014 182.095 46.8921 181.78C46.7701 181.463 46.5896 181.217 46.3506 181.041C46.1115 180.863 45.8164 180.774 45.4652 180.774C45.0993 180.774 44.7944 180.868 44.5505 181.056C44.309 181.241 44.1273 181.494 44.0053 181.813C43.8858 182.13 43.826 182.486 43.826 182.881C43.826 183.282 43.887 183.645 44.009 183.972C44.1334 184.296 44.3163 184.555 44.5578 184.747C44.8017 184.938 45.1042 185.033 45.4652 185.033ZM53.6059 181.33L52.8302 181.55C52.7814 181.42 52.7095 181.295 52.6144 181.173C52.5217 181.048 52.3948 180.946 52.2338 180.866C52.0729 180.785 51.8668 180.745 51.6155 180.745C51.2716 180.745 50.985 180.824 50.7557 180.983C50.5289 181.139 50.4154 181.337 50.4154 181.579C50.4154 181.794 50.4935 181.963 50.6496 182.088C50.8057 182.212 51.0496 182.316 51.3814 182.399L52.2156 182.603C52.718 182.725 53.0924 182.912 53.3388 183.163C53.5851 183.412 53.7083 183.733 53.7083 184.125C53.7083 184.447 53.6156 184.735 53.4303 184.989C53.2473 185.243 52.9912 185.443 52.6619 185.589C52.3326 185.735 51.9497 185.808 51.5131 185.808C50.9399 185.808 50.4655 185.684 50.0898 185.435C49.7142 185.186 49.4764 184.823 49.3764 184.345L50.1959 184.14C50.274 184.443 50.4215 184.669 50.6386 184.821C50.8582 184.972 51.1448 185.047 51.4984 185.047C51.9009 185.047 52.2204 184.962 52.457 184.791C52.6961 184.618 52.8156 184.411 52.8156 184.169C52.8156 183.974 52.7473 183.811 52.6107 183.679C52.4741 183.545 52.2643 183.445 51.9814 183.379L51.0448 183.16C50.5301 183.038 50.152 182.849 49.9105 182.592C49.6715 182.334 49.552 182.011 49.552 181.623C49.552 181.306 49.641 181.025 49.8191 180.781C49.9996 180.537 50.2447 180.346 50.5545 180.207C50.8667 180.068 51.2204 179.998 51.6155 179.998C52.1716 179.998 52.6083 180.12 52.9253 180.364C53.2449 180.608 53.4717 180.93 53.6059 181.33Z" fill="#030202"/>
<rect x="15.4546" y="196.525" width="7.72727" height="7.72727" fill="#D9D9D9"/>
<path d="M33.1132 198.769V199.501H30.2009V198.769H33.1132ZM31.0497 197.422H31.9132V202.779C31.9132 203.023 31.9485 203.206 32.0193 203.328C32.0924 203.447 32.1851 203.528 32.2973 203.569C32.412 203.608 32.5327 203.628 32.6596 203.628C32.7547 203.628 32.8327 203.623 32.8937 203.613C32.9547 203.601 33.0035 203.591 33.0401 203.584L33.2157 204.359C33.1571 204.381 33.0754 204.403 32.9705 204.425C32.8657 204.45 32.7327 204.462 32.5717 204.462C32.3278 204.462 32.0888 204.409 31.8546 204.305C31.6229 204.2 31.4302 204.04 31.2765 203.825C31.1253 203.611 31.0497 203.34 31.0497 203.013V197.422ZM36.6348 204.506C36.1274 204.506 35.6823 204.385 35.2993 204.144C34.9188 203.902 34.6213 203.564 34.4066 203.13C34.1944 202.696 34.0883 202.189 34.0883 201.608C34.0883 201.023 34.1944 200.512 34.4066 200.075C34.6213 199.638 34.9188 199.299 35.2993 199.058C35.6823 198.816 36.1274 198.696 36.6348 198.696C37.1421 198.696 37.5861 198.816 37.9666 199.058C38.3495 199.299 38.6471 199.638 38.8593 200.075C39.0739 200.512 39.1813 201.023 39.1813 201.608C39.1813 202.189 39.0739 202.696 38.8593 203.13C38.6471 203.564 38.3495 203.902 37.9666 204.144C37.5861 204.385 37.1421 204.506 36.6348 204.506ZM36.6348 203.73C37.0202 203.73 37.3373 203.631 37.5861 203.434C37.8348 203.236 38.019 202.976 38.1385 202.654C38.258 202.332 38.3178 201.984 38.3178 201.608C38.3178 201.232 38.258 200.882 38.1385 200.558C38.019 200.234 37.8348 199.971 37.5861 199.771C37.3373 199.571 37.0202 199.471 36.6348 199.471C36.2494 199.471 35.9323 199.571 35.6835 199.771C35.4347 199.971 35.2506 200.234 35.131 200.558C35.0115 200.882 34.9518 201.232 34.9518 201.608C34.9518 201.984 35.0115 202.332 35.131 202.654C35.2506 202.976 35.4347 203.236 35.6835 203.434C35.9323 203.631 36.2494 203.73 36.6348 203.73ZM42.7678 206.613C42.3507 206.613 41.9921 206.56 41.6921 206.452C41.3921 206.347 41.1421 206.208 40.942 206.035C40.7445 205.864 40.5871 205.681 40.4701 205.486L41.1579 205.003C41.236 205.106 41.3347 205.223 41.4543 205.355C41.5738 205.489 41.7372 205.605 41.9445 205.702C42.1543 205.802 42.4287 205.852 42.7678 205.852C43.2214 205.852 43.5959 205.742 43.891 205.523C44.1861 205.303 44.3337 204.959 44.3337 204.491V203.35H44.2605C44.1971 203.452 44.1069 203.579 43.9898 203.73C43.8751 203.879 43.7093 204.012 43.4922 204.129C43.2775 204.244 42.9873 204.301 42.6214 204.301C42.1677 204.301 41.7604 204.194 41.3994 203.979C41.0408 203.764 40.7567 203.452 40.5469 203.042C40.3396 202.632 40.2359 202.135 40.2359 201.549C40.2359 200.974 40.3371 200.473 40.5396 200.046C40.742 199.616 41.0238 199.285 41.3847 199.051C41.7457 198.814 42.1628 198.696 42.636 198.696C43.0019 198.696 43.2922 198.757 43.5068 198.879C43.7239 198.998 43.8898 199.135 44.0044 199.288C44.1215 199.44 44.2117 199.564 44.2752 199.662H44.363V198.769H45.1972V204.55C45.1972 205.033 45.0874 205.425 44.8679 205.728C44.6508 206.033 44.3581 206.256 43.9898 206.397C43.6239 206.541 43.2166 206.613 42.7678 206.613ZM42.7385 203.525C43.0848 203.525 43.3775 203.446 43.6166 203.287C43.8556 203.129 44.0373 202.901 44.1617 202.603C44.2861 202.306 44.3483 201.95 44.3483 201.535C44.3483 201.13 44.2874 200.773 44.1654 200.463C44.0434 200.153 43.8629 199.91 43.6239 199.735C43.3849 199.559 43.0897 199.471 42.7385 199.471C42.3726 199.471 42.0677 199.564 41.8238 199.749C41.5823 199.935 41.4006 200.184 41.2786 200.496C41.1591 200.808 41.0994 201.154 41.0994 201.535C41.0994 201.925 41.1603 202.27 41.2823 202.57C41.4067 202.868 41.5896 203.102 41.8311 203.273C42.075 203.441 42.3775 203.525 42.7385 203.525ZM49.0462 206.613C48.6291 206.613 48.2705 206.56 47.9705 206.452C47.6705 206.347 47.4205 206.208 47.2204 206.035C47.0229 205.864 46.8656 205.681 46.7485 205.486L47.4363 205.003C47.5144 205.106 47.6132 205.223 47.7327 205.355C47.8522 205.489 48.0156 205.605 48.2229 205.702C48.4327 205.802 48.7071 205.852 49.0462 205.852C49.4998 205.852 49.8743 205.742 50.1694 205.523C50.4645 205.303 50.6121 204.959 50.6121 204.491V203.35H50.5389C50.4755 203.452 50.3853 203.579 50.2682 203.73C50.1535 203.879 49.9877 204.012 49.7706 204.129C49.5559 204.244 49.2657 204.301 48.8998 204.301C48.4461 204.301 48.0388 204.194 47.6778 203.979C47.3192 203.764 47.0351 203.452 46.8253 203.042C46.618 202.632 46.5143 202.135 46.5143 201.549C46.5143 200.974 46.6155 200.473 46.818 200.046C47.0204 199.616 47.3022 199.285 47.6632 199.051C48.0242 198.814 48.4413 198.696 48.9144 198.696C49.2803 198.696 49.5706 198.757 49.7852 198.879C50.0023 198.998 50.1682 199.135 50.2828 199.288C50.3999 199.44 50.4901 199.564 50.5536 199.662H50.6414V198.769H51.4756V204.55C51.4756 205.033 51.3658 205.425 51.1463 205.728C50.9292 206.033 50.6365 206.256 50.2682 206.397C49.9023 206.541 49.495 206.613 49.0462 206.613ZM49.0169 203.525C49.3633 203.525 49.656 203.446 49.895 203.287C50.134 203.129 50.3157 202.901 50.4401 202.603C50.5645 202.306 50.6267 201.95 50.6267 201.535C50.6267 201.13 50.5658 200.773 50.4438 200.463C50.3218 200.153 50.1413 199.91 49.9023 199.735C49.6633 199.559 49.3681 199.471 49.0169 199.471C48.651 199.471 48.3461 199.564 48.1022 199.749C47.8607 199.935 47.679 200.184 47.5571 200.496C47.4375 200.808 47.3778 201.154 47.3778 201.535C47.3778 201.925 47.4388 202.27 47.5607 202.57C47.6851 202.868 47.868 203.102 48.1095 203.273C48.3534 203.441 48.6559 203.525 49.0169 203.525ZM53.9196 196.896V204.389H53.0561V196.896H53.9196ZM57.8573 204.506C57.3158 204.506 56.8487 204.386 56.456 204.147C56.0658 203.906 55.7645 203.569 55.5523 203.137C55.3426 202.703 55.2377 202.198 55.2377 201.623C55.2377 201.047 55.3426 200.54 55.5523 200.101C55.7645 199.659 56.0597 199.315 56.4377 199.069C56.8183 198.82 57.2622 198.696 57.7695 198.696C58.0622 198.696 58.3513 198.744 58.6367 198.842C58.922 198.94 59.1818 199.098 59.416 199.318C59.6501 199.535 59.8367 199.823 59.9758 200.181C60.1148 200.54 60.1843 200.981 60.1843 201.506V201.871H55.8523V201.125H59.3062C59.3062 200.808 59.2428 200.525 59.1159 200.276C58.9916 200.027 58.8135 199.831 58.5818 199.687C58.3525 199.543 58.0817 199.471 57.7695 199.471C57.4256 199.471 57.128 199.557 56.8768 199.727C56.628 199.896 56.4365 200.115 56.3024 200.386C56.1682 200.657 56.1011 200.947 56.1011 201.257V201.754C56.1011 202.179 56.1743 202.539 56.3207 202.834C56.4695 203.126 56.6756 203.35 56.939 203.503C57.2024 203.654 57.5085 203.73 57.8573 203.73C58.0842 203.73 58.2891 203.698 58.472 203.635C58.6574 203.569 58.8172 203.472 58.9513 203.342C59.0855 203.211 59.1891 203.047 59.2623 202.852L60.0965 203.086C60.0087 203.369 59.8611 203.618 59.6538 203.833C59.4465 204.045 59.1903 204.211 58.8854 204.33C58.5806 204.447 58.2378 204.506 57.8573 204.506ZM68.3762 200.027L67.6006 200.247C67.5518 200.118 67.4798 199.992 67.3847 199.87C67.292 199.746 67.1652 199.643 67.0042 199.563C66.8432 199.482 66.6371 199.442 66.3859 199.442C66.042 199.442 65.7554 199.521 65.5261 199.68C65.2992 199.836 65.1858 200.035 65.1858 200.276C65.1858 200.491 65.2639 200.66 65.42 200.785C65.5761 200.909 65.82 201.013 66.1517 201.096L66.9859 201.301C67.4884 201.423 67.8628 201.609 68.1091 201.86C68.3555 202.109 68.4787 202.43 68.4787 202.823C68.4787 203.145 68.386 203.433 68.2006 203.686C68.0177 203.94 67.7616 204.14 67.4323 204.286C67.103 204.433 66.72 204.506 66.2834 204.506C65.7102 204.506 65.2358 204.381 64.8602 204.133C64.4845 203.884 64.2467 203.52 64.1467 203.042L64.9663 202.837C65.0443 203.14 65.1919 203.367 65.409 203.518C65.6285 203.669 65.9151 203.745 66.2688 203.745C66.6713 203.745 66.9908 203.659 67.2274 203.489C67.4664 203.315 67.5859 203.108 67.5859 202.867C67.5859 202.672 67.5176 202.508 67.3811 202.376C67.2445 202.242 67.0347 202.142 66.7518 202.076L65.8151 201.857C65.3004 201.735 64.9224 201.546 64.6809 201.29C64.4419 201.031 64.3223 200.708 64.3223 200.32C64.3223 200.003 64.4114 199.723 64.5894 199.479C64.7699 199.235 65.0151 199.043 65.3248 198.904C65.6371 198.765 65.9907 198.696 66.3859 198.696C66.942 198.696 67.3786 198.818 67.6957 199.062C68.0152 199.305 68.2421 199.627 68.3762 200.027ZM71.0517 204.389L69.3394 198.769H70.2468L71.4615 203.072H71.52L72.7201 198.769H73.6421L74.8275 203.057H74.8861L76.1008 198.769H77.0081L75.2958 204.389H74.447L73.2177 200.071H73.1299L71.9005 204.389H71.0517ZM78.1497 204.389V198.769H79.0131V204.389H78.1497ZM78.5887 197.832C78.4204 197.832 78.2753 197.775 78.1533 197.66C78.0338 197.546 77.974 197.408 77.974 197.247C77.974 197.086 78.0338 196.948 78.1533 196.833C78.2753 196.719 78.4204 196.661 78.5887 196.661C78.757 196.661 78.9009 196.719 79.0204 196.833C79.1424 196.948 79.2034 197.086 79.2034 197.247C79.2034 197.408 79.1424 197.546 79.0204 197.66C78.9009 197.775 78.757 197.832 78.5887 197.832ZM83.0387 198.769V199.501H80.1263V198.769H83.0387ZM80.9751 197.422H81.8386V202.779C81.8386 203.023 81.874 203.206 81.9447 203.328C82.0179 203.447 82.1106 203.528 82.2228 203.569C82.3374 203.608 82.4581 203.628 82.585 203.628C82.6801 203.628 82.7582 203.623 82.8191 203.613C82.8801 203.601 82.9289 203.591 82.9655 203.584L83.1411 204.359C83.0826 204.381 83.0009 204.403 82.896 204.425C82.7911 204.45 82.6582 204.462 82.4972 204.462C82.2532 204.462 82.0142 204.409 81.7801 204.305C81.5483 204.2 81.3556 204.04 81.202 203.825C81.0507 203.611 80.9751 203.34 80.9751 203.013V197.422ZM86.5602 204.506C86.0333 204.506 85.5797 204.381 85.1991 204.133C84.8186 203.884 84.5259 203.541 84.321 203.104C84.1162 202.668 84.0137 202.169 84.0137 201.608C84.0137 201.037 84.1186 200.534 84.3284 200.097C84.5406 199.658 84.8357 199.315 85.2138 199.069C85.5943 198.82 86.0382 198.696 86.5456 198.696C86.9407 198.696 87.2968 198.769 87.6139 198.915C87.931 199.062 88.1908 199.266 88.3932 199.53C88.5957 199.793 88.7213 200.101 88.7701 200.452H87.9066C87.8408 200.196 87.6944 199.969 87.4676 199.771C87.2432 199.571 86.9407 199.471 86.5602 199.471C86.2236 199.471 85.9285 199.559 85.6748 199.735C85.4236 199.908 85.2272 200.153 85.0857 200.47C84.9467 200.785 84.8772 201.154 84.8772 201.579C84.8772 202.013 84.9455 202.391 85.0821 202.713C85.2211 203.035 85.4162 203.285 85.6675 203.463C85.9211 203.641 86.2187 203.73 86.5602 203.73C86.7846 203.73 86.9883 203.691 87.1712 203.613C87.3541 203.535 87.509 203.423 87.6359 203.276C87.7627 203.13 87.853 202.954 87.9066 202.75H88.7701C88.7213 203.081 88.6006 203.38 88.4079 203.646C88.2176 203.909 87.9652 204.119 87.6505 204.275C87.3383 204.429 86.9749 204.506 86.5602 204.506ZM90.8958 201.008V204.389H90.0324V196.896H90.8958V199.647H90.969C91.1007 199.357 91.2983 199.126 91.5617 198.955C91.8276 198.782 92.1813 198.696 92.6227 198.696C93.0057 198.696 93.3411 198.772 93.6289 198.926C93.9167 199.077 94.1399 199.31 94.2984 199.625C94.4594 199.937 94.5399 200.335 94.5399 200.818V204.389H93.6765V200.876C93.6765 200.43 93.5606 200.085 93.3289 199.841C93.0996 199.594 92.7813 199.471 92.3739 199.471C92.091 199.471 91.8373 199.531 91.6129 199.651C91.391 199.77 91.2153 199.945 91.0861 200.174C90.9592 200.403 90.8958 200.681 90.8958 201.008ZM98.4758 204.506C97.9343 204.506 97.4672 204.386 97.0745 204.147C96.6843 203.906 96.383 203.569 96.1708 203.137C95.961 202.703 95.8562 202.198 95.8562 201.623C95.8562 201.047 95.961 200.54 96.1708 200.101C96.383 199.659 96.6782 199.315 97.0562 199.069C97.4367 198.82 97.8807 198.696 98.388 198.696C98.6807 198.696 98.9698 198.744 99.2551 198.842C99.5405 198.94 99.8003 199.098 100.034 199.318C100.269 199.535 100.455 199.823 100.594 200.181C100.733 200.54 100.803 200.981 100.803 201.506V201.871H96.4708V201.125H99.9247C99.9247 200.808 99.8613 200.525 99.7344 200.276C99.61 200.027 99.432 199.831 99.2003 199.687C98.971 199.543 98.7002 199.471 98.388 199.471C98.0441 199.471 97.7465 199.557 97.4953 199.727C97.2465 199.896 97.055 200.115 96.9209 200.386C96.7867 200.657 96.7196 200.947 96.7196 201.257V201.754C96.7196 202.179 96.7928 202.539 96.9391 202.834C97.0879 203.126 97.294 203.35 97.5575 203.503C97.8209 203.654 98.127 203.73 98.4758 203.73C98.7027 203.73 98.9076 203.698 99.0905 203.635C99.2759 203.569 99.4356 203.472 99.5698 203.342C99.7039 203.211 99.8076 203.047 99.8808 202.852L100.715 203.086C100.627 203.369 100.48 203.618 100.272 203.833C100.065 204.045 99.8088 204.211 99.5039 204.33C99.199 204.447 98.8563 204.506 98.4758 204.506ZM106.097 200.027L105.321 200.247C105.273 200.118 105.201 199.992 105.105 199.87C105.013 199.746 104.886 199.643 104.725 199.563C104.564 199.482 104.358 199.442 104.107 199.442C103.763 199.442 103.476 199.521 103.247 199.68C103.02 199.836 102.907 200.035 102.907 200.276C102.907 200.491 102.985 200.66 103.141 200.785C103.297 200.909 103.541 201.013 103.872 201.096L104.707 201.301C105.209 201.423 105.584 201.609 105.83 201.86C106.076 202.109 106.199 202.43 106.199 202.823C106.199 203.145 106.107 203.433 105.921 203.686C105.738 203.94 105.482 204.14 105.153 204.286C104.824 204.433 104.441 204.506 104.004 204.506C103.431 204.506 102.957 204.381 102.581 204.133C102.205 203.884 101.967 203.52 101.867 203.042L102.687 202.837C102.765 203.14 102.913 203.367 103.13 203.518C103.349 203.669 103.636 203.745 103.99 203.745C104.392 203.745 104.712 203.659 104.948 203.489C105.187 203.315 105.307 203.108 105.307 202.867C105.307 202.672 105.238 202.508 105.102 202.376C104.965 202.242 104.755 202.142 104.473 202.076L103.536 201.857C103.021 201.735 102.643 201.546 102.402 201.29C102.163 201.031 102.043 200.708 102.043 200.32C102.043 200.003 102.132 199.723 102.31 199.479C102.491 199.235 102.736 199.043 103.046 198.904C103.358 198.765 103.711 198.696 104.107 198.696C104.663 198.696 105.099 198.818 105.416 199.062C105.736 199.305 105.963 199.627 106.097 200.027Z" fill="#030202"/>
<rect x="15.4546" y="215.222" width="7.72727" height="7.72727" fill="#D9D9D9"/>
<path d="M31.5327 215.592V223.085H30.6692V215.592H31.5327ZM33.1142 223.085V217.466H33.9776V223.085H33.1142ZM33.5532 216.529C33.3849 216.529 33.2398 216.472 33.1178 216.357C32.9983 216.242 32.9385 216.105 32.9385 215.944C32.9385 215.783 32.9983 215.645 33.1178 215.53C33.2398 215.415 33.3849 215.358 33.5532 215.358C33.7215 215.358 33.8654 215.415 33.9849 215.53C34.1069 215.645 34.1679 215.783 34.1679 215.944C34.1679 216.105 34.1069 216.242 33.9849 216.357C33.8654 216.472 33.7215 216.529 33.5532 216.529ZM36.4226 219.705V223.085H35.5591V217.466H36.3933V218.344H36.4665C36.5982 218.058 36.7982 217.829 37.0665 217.656C37.3348 217.48 37.6812 217.392 38.1056 217.392C38.4861 217.392 38.8191 217.47 39.1044 217.627C39.3898 217.78 39.6118 218.014 39.7703 218.329C39.9289 218.641 40.0081 219.036 40.0081 219.515V223.085H39.1447V219.573C39.1447 219.132 39.03 218.788 38.8008 218.541C38.5715 218.292 38.2568 218.168 37.8568 218.168C37.5812 218.168 37.3348 218.228 37.1177 218.347C36.9031 218.467 36.7336 218.641 36.6092 218.871C36.4848 219.1 36.4226 219.378 36.4226 219.705ZM42.3909 221.037L42.3763 219.968H42.5519L45.0106 217.466H46.0789L43.4593 220.115H43.3861L42.3909 221.037ZM41.586 223.085V215.592H42.4494V223.085H41.586ZM45.1569 223.085L42.9617 220.305L43.5763 219.705L46.2545 223.085H45.1569ZM51.171 218.724L50.3953 218.944C50.3465 218.814 50.2746 218.689 50.1795 218.567C50.0868 218.443 49.9599 218.34 49.799 218.26C49.638 218.179 49.4319 218.139 49.1806 218.139C48.8367 218.139 48.5501 218.218 48.3208 218.377C48.094 218.533 47.9806 218.732 47.9806 218.973C47.9806 219.188 48.0586 219.357 48.2147 219.482C48.3708 219.606 48.6147 219.71 48.9465 219.793L49.7807 219.997C50.2831 220.119 50.6575 220.306 50.9039 220.557C51.1502 220.806 51.2734 221.127 51.2734 221.52C51.2734 221.841 51.1807 222.129 50.9954 222.383C50.8124 222.637 50.5563 222.837 50.227 222.983C49.8977 223.129 49.5148 223.203 49.0782 223.203C48.505 223.203 48.0306 223.078 47.6549 222.829C47.2793 222.581 47.0415 222.217 46.9415 221.739L47.761 221.534C47.8391 221.837 47.9867 222.063 48.2037 222.215C48.4233 222.366 48.7099 222.442 49.0635 222.442C49.466 222.442 49.7855 222.356 50.0221 222.185C50.2612 222.012 50.3807 221.805 50.3807 221.563C50.3807 221.368 50.3124 221.205 50.1758 221.073C50.0392 220.939 49.8294 220.839 49.5465 220.773L48.6099 220.554C48.0952 220.432 47.7171 220.243 47.4756 219.986C47.2366 219.728 47.1171 219.405 47.1171 219.017C47.1171 218.7 47.2061 218.419 47.3842 218.175C47.5647 217.931 47.8098 217.74 48.1196 217.601C48.4318 217.462 48.7855 217.392 49.1806 217.392C49.7368 217.392 50.1734 217.514 50.4905 217.758C50.81 218.002 51.0368 218.324 51.171 218.724Z" fill="#030202"/>
<rect x="15.4546" y="233.919" width="7.72727" height="7.72727" fill="#D9D9D9"/>
<path d="M32.7913 241.899C32.3229 241.899 31.9095 241.781 31.551 241.544C31.1924 241.305 30.9119 240.969 30.7094 240.535C30.507 240.098 30.4058 239.582 30.4058 238.987C30.4058 238.397 30.507 237.884 30.7094 237.45C30.9119 237.016 31.1936 236.681 31.5546 236.444C31.9156 236.208 32.3327 236.089 32.8059 236.089C33.1718 236.089 33.4608 236.15 33.673 236.272C33.8877 236.392 34.0511 236.528 34.1633 236.682C34.2779 236.833 34.367 236.958 34.4304 237.055H34.5036V234.289H35.367V241.782H34.5328V240.919H34.4304C34.367 241.021 34.2767 241.15 34.1596 241.307C34.0426 241.46 33.8755 241.598 33.6584 241.72C33.4413 241.84 33.1523 241.899 32.7913 241.899ZM32.9083 241.124C33.2547 241.124 33.5474 241.033 33.7864 240.853C34.0255 240.67 34.2072 240.418 34.3316 240.096C34.456 239.771 34.5182 239.397 34.5182 238.972C34.5182 238.553 34.4572 238.186 34.3353 237.871C34.2133 237.554 34.0328 237.308 33.7938 237.132C33.5547 236.954 33.2596 236.865 32.9083 236.865C32.5425 236.865 32.2376 236.959 31.9937 237.147C31.7522 237.332 31.5705 237.584 31.4485 237.904C31.329 238.221 31.2692 238.577 31.2692 238.972C31.2692 239.372 31.3302 239.736 31.4522 240.063C31.5766 240.387 31.7595 240.646 32.001 240.838C32.2449 241.029 32.5474 241.124 32.9083 241.124ZM37.0683 241.782V236.162H37.9025V237.011H37.9611C38.0635 236.733 38.2489 236.508 38.5172 236.334C38.7855 236.161 39.088 236.075 39.4246 236.075C39.488 236.075 39.5673 236.076 39.6624 236.078C39.7575 236.081 39.8295 236.084 39.8783 236.089V236.967C39.849 236.96 39.7819 236.949 39.677 236.934C39.5746 236.917 39.466 236.909 39.3514 236.909C39.0782 236.909 38.8343 236.966 38.6197 237.081C38.4074 237.193 38.2391 237.349 38.1147 237.549C37.9928 237.747 37.9318 237.972 37.9318 238.226V241.782H37.0683ZM43.0138 241.899C42.5065 241.899 42.0613 241.779 41.6784 241.537C41.2979 241.296 41.0003 240.958 40.7856 240.524C40.5734 240.089 40.4673 239.582 40.4673 239.002C40.4673 238.416 40.5734 237.905 40.7856 237.469C41.0003 237.032 41.2979 236.693 41.6784 236.451C42.0613 236.21 42.5065 236.089 43.0138 236.089C43.5212 236.089 43.9651 236.21 44.3456 236.451C44.7285 236.693 45.0261 237.032 45.2383 237.469C45.453 237.905 45.5603 238.416 45.5603 239.002C45.5603 239.582 45.453 240.089 45.2383 240.524C45.0261 240.958 44.7285 241.296 44.3456 241.537C43.9651 241.779 43.5212 241.899 43.0138 241.899ZM43.0138 241.124C43.3992 241.124 43.7163 241.025 43.9651 240.827C44.2139 240.63 44.398 240.37 44.5175 240.048C44.6371 239.726 44.6968 239.377 44.6968 239.002C44.6968 238.626 44.6371 238.276 44.5175 237.952C44.398 237.627 44.2139 237.365 43.9651 237.165C43.7163 236.965 43.3992 236.865 43.0138 236.865C42.6284 236.865 42.3113 236.965 42.0625 237.165C41.8137 237.365 41.6296 237.627 41.5101 237.952C41.3905 238.276 41.3308 238.626 41.3308 239.002C41.3308 239.377 41.3905 239.726 41.5101 240.048C41.6296 240.37 41.8137 240.63 42.0625 240.827C42.3113 241.025 42.6284 241.124 43.0138 241.124ZM46.8784 243.89V236.162H47.7125V237.055H47.815C47.8784 236.958 47.9662 236.833 48.0784 236.682C48.1931 236.528 48.3565 236.392 48.5687 236.272C48.7833 236.15 49.0736 236.089 49.4395 236.089C49.9127 236.089 50.3298 236.208 50.6908 236.444C51.0518 236.681 51.3335 237.016 51.5359 237.45C51.7384 237.884 51.8396 238.397 51.8396 238.987C51.8396 239.582 51.7384 240.098 51.5359 240.535C51.3335 240.969 51.053 241.305 50.6944 241.544C50.3359 241.781 49.9224 241.899 49.4541 241.899C49.0931 241.899 48.8041 241.84 48.587 241.72C48.3699 241.598 48.2028 241.46 48.0857 241.307C47.9687 241.15 47.8784 241.021 47.815 240.919H47.7418V243.89H46.8784ZM47.7272 238.972C47.7272 239.397 47.7894 239.771 47.9138 240.096C48.0382 240.418 48.2199 240.67 48.4589 240.853C48.698 241.033 48.9907 241.124 49.337 241.124C49.698 241.124 49.9993 241.029 50.2407 240.838C50.4847 240.646 50.6676 240.387 50.7896 240.063C50.914 239.736 50.9762 239.372 50.9762 238.972C50.9762 238.577 50.9152 238.221 50.7932 237.904C50.6737 237.584 50.492 237.332 50.2481 237.147C50.0066 236.959 49.7029 236.865 49.337 236.865C48.9858 236.865 48.6907 236.954 48.4516 237.132C48.2126 237.308 48.0321 237.554 47.9101 237.871C47.7882 238.186 47.7272 238.553 47.7272 238.972ZM55.2788 241.899C54.8105 241.899 54.3971 241.781 54.0385 241.544C53.68 241.305 53.3995 240.969 53.197 240.535C52.9946 240.098 52.8933 239.582 52.8933 238.987C52.8933 238.397 52.9946 237.884 53.197 237.45C53.3995 237.016 53.6812 236.681 54.0422 236.444C54.4032 236.208 54.8203 236.089 55.2935 236.089C55.6593 236.089 55.9484 236.15 56.1606 236.272C56.3752 236.392 56.5387 236.528 56.6509 236.682C56.7655 236.833 56.8545 236.958 56.918 237.055H56.9911V234.289H57.8546V241.782H57.0204V240.919H56.918C56.8545 241.021 56.7643 241.15 56.6472 241.307C56.5301 241.46 56.363 241.598 56.146 241.72C55.9289 241.84 55.6398 241.899 55.2788 241.899ZM55.3959 241.124C55.7423 241.124 56.035 241.033 56.274 240.853C56.5131 240.67 56.6948 240.418 56.8192 240.096C56.9436 239.771 57.0058 239.397 57.0058 238.972C57.0058 238.553 56.9448 238.186 56.8228 237.871C56.7009 237.554 56.5204 237.308 56.2813 237.132C56.0423 236.954 55.7472 236.865 55.3959 236.865C55.03 236.865 54.7251 236.959 54.4812 237.147C54.2398 237.332 54.058 237.584 53.9361 237.904C53.8166 238.221 53.7568 238.577 53.7568 238.972C53.7568 239.372 53.8178 239.736 53.9397 240.063C54.0641 240.387 54.2471 240.646 54.4885 240.838C54.7325 241.029 55.0349 241.124 55.3959 241.124ZM61.839 241.899C61.3316 241.899 60.8865 241.779 60.5035 241.537C60.123 241.296 59.8254 240.958 59.6108 240.524C59.3986 240.089 59.2925 239.582 59.2925 239.002C59.2925 238.416 59.3986 237.905 59.6108 237.469C59.8254 237.032 60.123 236.693 60.5035 236.451C60.8865 236.21 61.3316 236.089 61.839 236.089C62.3463 236.089 62.7902 236.21 63.1708 236.451C63.5537 236.693 63.8513 237.032 64.0635 237.469C64.2781 237.905 64.3855 238.416 64.3855 239.002C64.3855 239.582 64.2781 240.089 64.0635 240.524C63.8513 240.958 63.5537 241.296 63.1708 241.537C62.7902 241.779 62.3463 241.899 61.839 241.899ZM61.839 241.124C62.2244 241.124 62.5414 241.025 62.7902 240.827C63.039 240.63 63.2232 240.37 63.3427 240.048C63.4622 239.726 63.522 239.377 63.522 239.002C63.522 238.626 63.4622 238.276 63.3427 237.952C63.2232 237.627 63.039 237.365 62.7902 237.165C62.5414 236.965 62.2244 236.865 61.839 236.865C61.4536 236.865 61.1365 236.965 60.8877 237.165C60.6389 237.365 60.4547 237.627 60.3352 237.952C60.2157 238.276 60.1559 238.626 60.1559 239.002C60.1559 239.377 60.2157 239.726 60.3352 240.048C60.4547 240.37 60.6389 240.63 60.8877 240.827C61.1365 241.025 61.4536 241.124 61.839 241.124ZM66.7856 241.782L65.0733 236.162H65.9807L67.1954 240.465H67.2539L68.454 236.162H69.376L70.5614 240.45H70.62L71.8347 236.162H72.742L71.0297 241.782H70.1809L68.9516 237.465H68.8638L67.6344 241.782H66.7856ZM74.747 238.402V241.782H73.8836V236.162H74.7178V237.04H74.7909C74.9226 236.755 75.1227 236.526 75.391 236.353C75.6593 236.177 76.0056 236.089 76.43 236.089C76.8106 236.089 77.1435 236.167 77.4289 236.323C77.7143 236.477 77.9362 236.711 78.0948 237.026C78.2533 237.338 78.3326 237.733 78.3326 238.211V241.782H77.4691V238.27C77.4691 237.828 77.3545 237.484 77.1252 237.238C76.8959 236.989 76.5813 236.865 76.1813 236.865C75.9056 236.865 75.6593 236.925 75.4422 237.044C75.2275 237.164 75.058 237.338 74.9336 237.567C74.8092 237.797 74.747 238.075 74.747 238.402ZM82.8082 241.782V236.162H83.6424V237.04H83.7155C83.8326 236.74 84.0216 236.508 84.2826 236.342C84.5436 236.173 84.8571 236.089 85.2229 236.089C85.5937 236.089 85.9022 236.173 86.1486 236.342C86.3974 236.508 86.5913 236.74 86.7303 237.04H86.7889C86.9328 236.75 87.1486 236.52 87.4365 236.349C87.7243 236.176 88.0694 236.089 88.4719 236.089C88.9744 236.089 89.3854 236.247 89.7049 236.561C90.0244 236.873 90.1842 237.36 90.1842 238.021V241.782H89.3207V238.021C89.3207 237.606 89.2073 237.31 88.9805 237.132C88.7536 236.954 88.4865 236.865 88.1792 236.865C87.7841 236.865 87.4779 236.984 87.2609 237.223C87.0438 237.46 86.9352 237.76 86.9352 238.123V241.782H86.0571V237.933C86.0571 237.614 85.9535 237.356 85.7461 237.161C85.5388 236.964 85.2717 236.865 84.9449 236.865C84.7205 236.865 84.5107 236.925 84.3156 237.044C84.1229 237.164 83.9668 237.33 83.8472 237.542C83.7302 237.752 83.6716 237.994 83.6716 238.27V241.782H82.8082ZM94.1192 241.899C93.5777 241.899 93.1106 241.78 92.7179 241.541C92.3276 241.299 92.0264 240.963 91.8142 240.531C91.6044 240.097 91.4995 239.592 91.4995 239.016C91.4995 238.441 91.6044 237.933 91.8142 237.494C92.0264 237.053 92.3215 236.709 92.6996 236.462C93.0801 236.214 93.524 236.089 94.0314 236.089C94.3241 236.089 94.6131 236.138 94.8985 236.236C95.1839 236.333 95.4436 236.492 95.6778 236.711C95.912 236.928 96.0986 237.216 96.2376 237.575C96.3766 237.933 96.4461 238.375 96.4461 238.899V239.265H92.1142V238.519H95.568C95.568 238.202 95.5046 237.919 95.3778 237.67C95.2534 237.421 95.0753 237.225 94.8436 237.081C94.6143 236.937 94.3436 236.865 94.0314 236.865C93.6874 236.865 93.3899 236.95 93.1386 237.121C92.8898 237.289 92.6984 237.509 92.5642 237.78C92.43 238.05 92.363 238.341 92.363 238.65V239.148C92.363 239.572 92.4361 239.932 92.5825 240.227C92.7313 240.52 92.9374 240.743 93.2008 240.897C93.4643 241.048 93.7704 241.124 94.1192 241.124C94.346 241.124 94.5509 241.092 94.7338 241.029C94.9192 240.963 95.079 240.865 95.2131 240.736C95.3473 240.604 95.451 240.441 95.5241 240.246L96.3583 240.48C96.2705 240.763 96.1229 241.011 95.9156 241.226C95.7083 241.438 95.4522 241.604 95.1473 241.724C94.8424 241.841 94.4997 241.899 94.1192 241.899ZM98.6231 238.402V241.782H97.7596V236.162H98.5938V237.04H98.667C98.7987 236.755 98.9987 236.526 99.267 236.353C99.5353 236.177 99.8817 236.089 100.306 236.089C100.687 236.089 101.02 236.167 101.305 236.323C101.59 236.477 101.812 236.711 101.971 237.026C102.129 237.338 102.209 237.733 102.209 238.211V241.782H101.345V238.27C101.345 237.828 101.231 237.484 101.001 237.238C100.772 236.989 100.457 236.865 100.057 236.865C99.7817 236.865 99.5353 236.925 99.3183 237.044C99.1036 237.164 98.9341 237.338 98.8097 237.567C98.6853 237.797 98.6231 238.075 98.6231 238.402ZM107.328 239.485V236.162H108.192V241.782H107.328V240.831H107.27C107.138 241.116 106.933 241.359 106.655 241.559C106.377 241.757 106.026 241.855 105.601 241.855C105.25 241.855 104.938 241.779 104.665 241.625C104.391 241.469 104.177 241.235 104.021 240.922C103.865 240.608 103.786 240.211 103.786 239.733V236.162H104.65V239.675C104.65 240.085 104.765 240.411 104.994 240.655C105.226 240.899 105.521 241.021 105.879 241.021C106.094 241.021 106.312 240.966 106.534 240.857C106.759 240.747 106.946 240.578 107.098 240.352C107.251 240.125 107.328 239.836 107.328 239.485ZM113.754 237.421L112.978 237.641C112.929 237.511 112.857 237.386 112.762 237.264C112.67 237.139 112.543 237.037 112.382 236.956C112.221 236.876 112.015 236.836 111.763 236.836C111.42 236.836 111.133 236.915 110.904 237.073C110.677 237.23 110.563 237.428 110.563 237.67C110.563 237.884 110.641 238.054 110.798 238.178C110.954 238.303 111.198 238.406 111.529 238.489L112.364 238.694C112.866 238.816 113.24 239.003 113.487 239.254C113.733 239.503 113.856 239.824 113.856 240.216C113.856 240.538 113.764 240.826 113.578 241.08C113.395 241.333 113.139 241.533 112.81 241.68C112.481 241.826 112.098 241.899 111.661 241.899C111.088 241.899 110.613 241.775 110.238 241.526C109.862 241.277 109.624 240.914 109.524 240.436L110.344 240.231C110.422 240.533 110.57 240.76 110.787 240.911C111.006 241.063 111.293 241.138 111.646 241.138C112.049 241.138 112.368 241.053 112.605 240.882C112.844 240.709 112.964 240.502 112.964 240.26C112.964 240.065 112.895 239.902 112.759 239.77C112.622 239.636 112.412 239.536 112.129 239.47L111.193 239.25C110.678 239.128 110.3 238.939 110.058 238.683C109.819 238.425 109.7 238.102 109.7 237.714C109.7 237.397 109.789 237.116 109.967 236.872C110.148 236.628 110.393 236.437 110.702 236.298C111.015 236.159 111.368 236.089 111.763 236.089C112.32 236.089 112.756 236.211 113.073 236.455C113.393 236.699 113.62 237.021 113.754 237.421Z" fill="#030202"/>
<path d="M206.296 156.219V145.33H211.165C212.389 145.33 213.343 145.574 214.027 146.061C214.712 146.538 215.054 147.228 215.054 148.13C215.054 149.022 214.727 149.711 214.074 150.199C213.421 150.676 212.56 150.914 211.492 150.914L211.772 150.354C212.985 150.354 213.924 150.598 214.587 151.085C215.251 151.573 215.583 152.278 215.583 153.201C215.583 154.145 215.236 154.886 214.541 155.425C213.846 155.954 212.819 156.219 211.461 156.219H206.296ZM208.287 154.663H211.399C212.104 154.663 212.638 154.534 213.001 154.274C213.364 154.005 213.545 153.595 213.545 153.045C213.545 152.496 213.364 152.097 213.001 151.848C212.638 151.588 212.104 151.459 211.399 151.459H208.287V154.663ZM208.287 149.981H210.994C211.647 149.981 212.145 149.851 212.487 149.592C212.83 149.322 213.001 148.939 213.001 148.441C213.001 147.922 212.83 147.534 212.487 147.274C212.145 147.015 211.647 146.885 210.994 146.885H208.287V149.981ZM226.053 156.219V147.912H227.998V156.219H226.053ZM221.713 150.65C222.781 150.65 223.59 150.888 224.14 151.365C224.7 151.842 224.98 152.517 224.98 153.388C224.98 154.29 224.669 154.995 224.047 155.503C223.435 156.001 222.564 156.245 221.433 156.234L217.669 156.219V147.912H219.613V150.634L221.713 150.65ZM221.262 154.803C221.833 154.814 222.268 154.694 222.569 154.445C222.87 154.197 223.02 153.834 223.02 153.357C223.02 152.879 222.87 152.537 222.569 152.33C222.278 152.112 221.843 151.998 221.262 151.988L219.613 151.972V154.788L221.262 154.803ZM230.612 156.219V147.912H236.989V149.561H232.105L232.556 149.125V156.219H230.612ZM236.629 156.203L236.722 154.57C236.795 154.58 236.862 154.591 236.925 154.601C236.987 154.611 237.044 154.617 237.096 154.617C237.417 154.617 237.666 154.518 237.842 154.321C238.019 154.124 238.148 153.859 238.231 153.528C238.325 153.185 238.387 152.807 238.418 152.392C238.46 151.967 238.491 151.542 238.511 151.117L238.651 147.912H245.371V156.219H243.427V149.032L243.878 149.561H239.927L240.347 149.017L240.238 151.21C240.207 151.946 240.145 152.631 240.051 153.263C239.968 153.885 239.834 154.43 239.647 154.897C239.471 155.363 239.222 155.726 238.9 155.985C238.589 156.245 238.19 156.374 237.702 156.374C237.547 156.374 237.376 156.359 237.189 156.328C237.013 156.297 236.826 156.255 236.629 156.203ZM253.263 156.219V153.388L253.543 153.714H251.054C249.914 153.714 249.017 153.476 248.363 152.999C247.72 152.511 247.399 151.811 247.399 150.899C247.399 149.924 247.741 149.182 248.426 148.674C249.12 148.166 250.043 147.912 251.194 147.912H255.006V156.219H253.263ZM247.29 156.219L249.53 153.045H251.521L249.374 156.219H247.29ZM253.263 152.765V149.032L253.543 149.545H251.257C250.655 149.545 250.189 149.659 249.857 149.888C249.535 150.105 249.374 150.463 249.374 150.961C249.374 151.894 249.981 152.361 251.194 152.361H253.543L253.263 152.765ZM263.314 155.317V149.561H260.126L260.079 150.899C260.058 151.376 260.027 151.837 259.986 152.283C259.944 152.719 259.877 153.123 259.783 153.497C259.69 153.859 259.555 154.16 259.379 154.399C259.203 154.637 258.969 154.793 258.679 154.865L256.75 154.57C257.061 154.57 257.31 154.471 257.497 154.274C257.694 154.067 257.844 153.787 257.948 153.434C258.062 153.071 258.145 152.662 258.197 152.205C258.249 151.739 258.285 151.257 258.306 150.759L258.414 147.912H265.259V155.317H263.314ZM256.454 158.07V154.57H266.488V158.07H264.668V156.219H258.259V158.07H256.454ZM268.224 156.219V147.912H270.169V153.388L274.758 147.912H276.531V156.219H274.587V150.743L270.013 156.219H268.224ZM280.873 156.219V149.094L281.325 149.561H277.949V147.912H285.727V149.561H282.367L282.818 149.094V156.219H280.873ZM290.223 156.203L290.316 154.57C290.389 154.58 290.456 154.591 290.518 154.601C290.581 154.611 290.638 154.617 290.69 154.617C291.011 154.617 291.26 154.518 291.436 154.321C291.613 154.124 291.742 153.859 291.825 153.528C291.918 153.185 291.981 152.807 292.012 152.392C292.053 151.967 292.084 151.542 292.105 151.117L292.245 147.912H298.965V156.219H297.021V149.032L297.472 149.561H293.521L293.941 149.017L293.832 151.21C293.801 151.946 293.738 152.631 293.645 153.263C293.562 153.885 293.427 154.43 293.241 154.897C293.064 155.363 292.815 155.726 292.494 155.985C292.183 156.245 291.784 156.374 291.296 156.374C291.141 156.374 290.97 156.359 290.783 156.328C290.607 156.297 290.42 156.255 290.223 156.203ZM302.33 159.345C301.926 159.345 301.522 159.278 301.117 159.143C300.713 159.008 300.376 158.822 300.106 158.583L300.884 157.152C301.081 157.328 301.304 157.468 301.553 157.572C301.802 157.676 302.056 157.728 302.315 157.728C302.667 157.728 302.953 157.639 303.17 157.463C303.388 157.287 303.59 156.991 303.777 156.577L304.259 155.488L304.415 155.254L307.557 147.912H309.424L305.535 156.888C305.276 157.51 304.985 158.002 304.664 158.365C304.353 158.728 304 158.982 303.606 159.128C303.222 159.273 302.797 159.345 302.33 159.345ZM304.042 156.514L300.293 147.912H302.315L305.364 155.083L304.042 156.514ZM316.017 152.937C315.622 153.123 315.202 153.279 314.757 153.403C314.321 153.517 313.86 153.574 313.372 153.574C312.325 153.574 311.511 153.331 310.93 152.843C310.349 152.356 310.059 151.599 310.059 150.572V147.912H312.003V150.448C312.003 150.997 312.159 151.397 312.47 151.645C312.791 151.894 313.232 152.019 313.792 152.019C314.165 152.019 314.539 151.972 314.912 151.879C315.285 151.785 315.654 151.656 316.017 151.49V152.937ZM315.877 156.219V147.912H317.821V156.219H315.877ZM326.02 154.57L325.6 155.037V147.912H327.545V155.037L327.078 154.57H331.185L330.734 155.037V147.912H332.678V156.219H320.436V147.912H322.38V155.037L321.929 154.57H326.02ZM339.166 156.328C338.243 156.328 337.434 156.146 336.739 155.783C336.055 155.41 335.521 154.902 335.137 154.259C334.764 153.616 334.577 152.885 334.577 152.065C334.577 151.236 334.758 150.505 335.121 149.872C335.495 149.229 336.003 148.726 336.646 148.363C337.299 148 338.041 147.819 338.87 147.819C339.679 147.819 340.4 147.995 341.033 148.348C341.665 148.7 342.163 149.198 342.526 149.841C342.889 150.484 343.07 151.241 343.07 152.112C343.07 152.195 343.065 152.288 343.055 152.392C343.055 152.496 343.05 152.594 343.039 152.688H336.117V151.397H342.013L341.25 151.801C341.261 151.324 341.162 150.904 340.955 150.541C340.747 150.178 340.462 149.893 340.099 149.685C339.747 149.478 339.337 149.374 338.87 149.374C338.393 149.374 337.973 149.478 337.61 149.685C337.258 149.893 336.978 150.183 336.77 150.557C336.573 150.919 336.475 151.35 336.475 151.848V152.159C336.475 152.657 336.589 153.097 336.817 153.481C337.045 153.865 337.367 154.16 337.781 154.368C338.196 154.575 338.673 154.679 339.213 154.679C339.679 154.679 340.099 154.606 340.473 154.461C340.846 154.316 341.178 154.088 341.468 153.777L342.51 154.974C342.137 155.41 341.665 155.747 341.095 155.985C340.535 156.214 339.892 156.328 339.166 156.328Z" fill="#710909"/>
<rect x="45.197" y="291.449" width="80.2121" height="48.6061" rx="5.15151" fill="#757575"/>
<path d="M70.2669 306.893V323.752H67.8055V306.893H70.2669ZM73.5783 323.752V311.108H76.0397V323.752H73.5783ZM74.8214 309.157C74.3933 309.157 74.0256 309.014 73.7182 308.729C73.4164 308.438 73.2655 308.092 73.2655 307.691C73.2655 307.285 73.4164 306.94 73.7182 306.654C74.0256 306.363 74.3933 306.218 74.8214 306.218C75.2494 306.218 75.6144 306.363 75.9162 306.654C76.2236 306.94 76.3772 307.285 76.3772 307.691C76.3772 308.092 76.2236 308.438 75.9162 308.729C75.6144 309.014 75.2494 309.157 74.8214 309.157ZM81.8125 316.245V323.752H79.3511V311.108H81.7137V313.166H81.8702C82.161 312.496 82.6165 311.958 83.2367 311.552C83.8623 311.146 84.6499 310.943 85.5993 310.943C86.461 310.943 87.2156 311.124 87.8632 311.486C88.5108 311.843 89.0129 312.376 89.3697 313.084C89.7264 313.792 89.9048 314.667 89.9048 315.71V323.752H87.4433V316.006C87.4433 315.089 87.2046 314.373 86.7271 313.857C86.2497 313.336 85.5938 313.075 84.7597 313.075C84.1889 313.075 83.6812 313.199 83.2367 313.446C82.7977 313.693 82.4492 314.055 82.1912 314.532C81.9388 315.004 81.8125 315.575 81.8125 316.245ZM95.4697 319.463L95.4533 316.459H95.8813L100.919 311.108H103.867L98.1205 317.2H97.7336L95.4697 319.463ZM93.2059 323.752V306.893H95.6673V323.752H93.2059ZM101.191 323.752L96.6634 317.743L98.3592 316.022L104.212 323.752H101.191Z" fill="white"/>
<rect x="130.045" y="291.449" width="80.2121" height="48.6061" rx="5.15151" fill="#757575"/>
<path d="M155.115 306.893V323.752H152.654V306.893H155.115ZM158.427 323.752V311.108H160.888V323.752H158.427ZM159.67 309.157C159.242 309.157 158.874 309.014 158.567 308.729C158.265 308.438 158.114 308.092 158.114 307.691C158.114 307.285 158.265 306.94 158.567 306.654C158.874 306.363 159.242 306.218 159.67 306.218C160.098 306.218 160.463 306.363 160.765 306.654C161.072 306.94 161.226 307.285 161.226 307.691C161.226 308.092 161.072 308.438 160.765 308.729C160.463 309.014 160.098 309.157 159.67 309.157ZM166.661 316.245V323.752H164.2V311.108H166.562V313.166H166.719C167.009 312.496 167.465 311.958 168.085 311.552C168.711 311.146 169.498 310.943 170.448 310.943C171.309 310.943 172.064 311.124 172.712 311.486C173.359 311.843 173.861 312.376 174.218 313.084C174.575 313.792 174.753 314.667 174.753 315.71V323.752H172.292V316.006C172.292 315.089 172.053 314.373 171.576 313.857C171.098 313.336 170.442 313.075 169.608 313.075C169.037 313.075 168.53 313.199 168.085 313.446C167.646 313.693 167.298 314.055 167.04 314.532C166.787 315.004 166.661 315.575 166.661 316.245ZM180.318 319.463L180.302 316.459H180.73L185.768 311.108H188.715L182.969 317.2H182.582L180.318 319.463ZM178.054 323.752V306.893H180.516V323.752H178.054ZM186.039 323.752L181.512 317.743L183.208 316.022L189.061 323.752H186.039Z" fill="white"/>
<rect x="214.894" y="291.449" width="80.2121" height="48.6061" rx="5.15151" fill="#757575"/>
<path d="M239.964 306.893V323.752H237.503V306.893H239.964ZM243.275 323.752V311.108H245.737V323.752H243.275ZM244.518 309.157C244.09 309.157 243.723 309.014 243.415 308.729C243.113 308.438 242.962 308.092 242.962 307.691C242.962 307.285 243.113 306.94 243.415 306.654C243.723 306.363 244.09 306.218 244.518 306.218C244.946 306.218 245.311 306.363 245.613 306.654C245.921 306.94 246.074 307.285 246.074 307.691C246.074 308.092 245.921 308.438 245.613 308.729C245.311 309.014 244.946 309.157 244.518 309.157ZM251.51 316.245V323.752H249.048V311.108H251.411V313.166H251.567C251.858 312.496 252.314 311.958 252.934 311.552C253.559 311.146 254.347 310.943 255.296 310.943C256.158 310.943 256.913 311.124 257.56 311.486C258.208 311.843 258.71 312.376 259.067 313.084C259.423 313.792 259.602 314.667 259.602 315.71V323.752H257.14V316.006C257.14 315.089 256.902 314.373 256.424 313.857C255.947 313.336 255.291 313.075 254.457 313.075C253.886 313.075 253.378 313.199 252.934 313.446C252.495 313.693 252.146 314.055 251.888 314.532C251.636 315.004 251.51 315.575 251.51 316.245ZM265.167 319.463L265.15 316.459H265.578L270.616 311.108H273.564L267.818 317.2H267.431L265.167 319.463ZM262.903 323.752V306.893H265.364V323.752H262.903ZM270.888 323.752L266.36 317.743L268.056 316.022L273.909 323.752H270.888Z" fill="white"/>
<rect x="299.742" y="291.449" width="80.2121" height="48.6061" rx="5.15151" fill="#757575"/>
<path d="M324.812 306.893V323.752H322.351V306.893H324.812ZM328.124 323.752V311.108H330.585V323.752H328.124ZM329.367 309.157C328.939 309.157 328.571 309.014 328.264 308.729C327.962 308.438 327.811 308.092 327.811 307.691C327.811 307.285 327.962 306.94 328.264 306.654C328.571 306.363 328.939 306.218 329.367 306.218C329.795 306.218 330.16 306.363 330.462 306.654C330.769 306.94 330.923 307.285 330.923 307.691C330.923 308.092 330.769 308.438 330.462 308.729C330.16 309.014 329.795 309.157 329.367 309.157ZM336.358 316.245V323.752H333.897V311.108H336.259V313.166H336.416C336.706 312.496 337.162 311.958 337.782 311.552C338.408 311.146 339.195 310.943 340.145 310.943C341.006 310.943 341.761 311.124 342.409 311.486C343.056 311.843 343.558 312.376 343.915 313.084C344.272 313.792 344.45 314.667 344.45 315.71V323.752H341.989V316.006C341.989 315.089 341.75 314.373 341.273 313.857C340.795 313.336 340.139 313.075 339.305 313.075C338.734 313.075 338.227 313.199 337.782 313.446C337.343 313.693 336.995 314.055 336.737 314.532C336.484 315.004 336.358 315.575 336.358 316.245ZM350.015 319.463L349.999 316.459H350.427L355.465 311.108H358.412L352.666 317.2H352.279L350.015 319.463ZM347.751 323.752V306.893H350.213V323.752H347.751ZM355.736 323.752L351.209 317.743L352.905 316.022L358.758 323.752H355.736Z" fill="white"/>
<rect x="384.591" y="291.449" width="80.2121" height="48.6061" rx="5.15151" fill="#757575"/>
<path d="M409.661 306.893V323.752H407.199V306.893H409.661ZM412.972 323.752V311.108H415.434V323.752H412.972ZM414.215 309.157C413.787 309.157 413.419 309.014 413.112 308.729C412.81 308.438 412.659 308.092 412.659 307.691C412.659 307.285 412.81 306.94 413.112 306.654C413.419 306.363 413.787 306.218 414.215 306.218C414.643 306.218 415.008 306.363 415.31 306.654C415.617 306.94 415.771 307.285 415.771 307.691C415.771 308.092 415.617 308.438 415.31 308.729C415.008 309.014 414.643 309.157 414.215 309.157ZM421.206 316.245V323.752H418.745V311.108H421.108V313.166H421.264C421.555 312.496 422.01 311.958 422.631 311.552C423.256 311.146 424.044 310.943 424.993 310.943C425.855 310.943 426.609 311.124 427.257 311.486C427.905 311.843 428.407 312.376 428.763 313.084C429.12 313.792 429.299 314.667 429.299 315.71V323.752H426.837V316.006C426.837 315.089 426.598 314.373 426.121 313.857C425.643 313.336 424.988 313.075 424.153 313.075C423.583 313.075 423.075 313.199 422.631 313.446C422.191 313.693 421.843 314.055 421.585 314.532C421.333 315.004 421.206 315.575 421.206 316.245ZM434.864 319.463L434.847 316.459H435.275L440.313 311.108H443.26L437.514 317.2H437.127L434.864 319.463ZM432.6 323.752V306.893H435.061V323.752H432.6ZM440.585 323.752L436.057 317.743L437.753 316.022L443.606 323.752H440.585Z" fill="white"/>
</svg>
