<svg width="510" height="200" viewBox="0 0 510 200" fill="none" xmlns="http://www.w3.org/2000/svg">
<rect width="510" height="200" fill="#7B808D"/>
<rect x="30" y="10" width="60" height="20" fill="#833233"/>
<rect x="400" y="10" width="20" height="20" fill="#2B495D"/>
<rect x="430" y="10" width="20" height="20" fill="#2B495D"/>
<rect x="460" y="10" width="20" height="20" fill="#2B495D"/>
<rect x="30.5" y="40.5" width="449" height="124" stroke="#2B495D"/>
<path d="M215.544 97.7628V96.5909H223.726V97.7628H220.295V107.5H218.974V97.7628H215.544ZM227.838 107.67C227.049 107.67 226.369 107.496 225.798 107.148C225.229 106.797 224.791 106.307 224.482 105.678C224.177 105.046 224.024 104.311 224.024 103.473C224.024 102.635 224.177 101.896 224.482 101.257C224.791 100.614 225.221 100.114 225.771 99.755C226.325 99.3928 226.971 99.2116 227.71 99.2116C228.136 99.2116 228.557 99.2827 228.972 99.4247C229.388 99.5668 229.766 99.7976 230.107 100.117C230.448 100.433 230.72 100.852 230.922 101.374C231.124 101.896 231.226 102.539 231.226 103.303V103.835H224.919V102.749H229.947C229.947 102.287 229.855 101.875 229.67 101.513C229.489 101.151 229.23 100.865 228.892 100.655C228.559 100.446 228.165 100.341 227.71 100.341C227.209 100.341 226.776 100.465 226.41 100.714C226.048 100.959 225.769 101.278 225.574 101.673C225.379 102.067 225.281 102.489 225.281 102.94V103.665C225.281 104.283 225.388 104.806 225.601 105.236C225.817 105.662 226.117 105.987 226.501 106.211C226.884 106.431 227.33 106.541 227.838 106.541C228.168 106.541 228.466 106.495 228.733 106.403C229.003 106.307 229.235 106.165 229.43 105.977C229.626 105.785 229.777 105.547 229.883 105.263L231.098 105.604C230.97 106.016 230.755 106.378 230.453 106.69C230.151 106.999 229.778 107.241 229.335 107.415C228.891 107.585 228.392 107.67 227.838 107.67ZM232.413 107.5V106.328H232.712C232.957 106.328 233.161 106.28 233.324 106.184C233.488 106.085 233.619 105.913 233.718 105.668C233.821 105.419 233.9 105.075 233.953 104.634C234.01 104.19 234.051 103.626 234.075 102.94L234.225 99.3182H239.679V107.5H238.422V100.49H235.418L235.29 103.409C235.261 104.08 235.201 104.672 235.109 105.183C235.02 105.691 234.883 106.117 234.699 106.461C234.517 106.806 234.276 107.065 233.974 107.239C233.672 107.413 233.294 107.5 232.84 107.5H232.413ZM245.309 107.67C244.571 107.67 243.923 107.495 243.365 107.143C242.811 106.792 242.378 106.3 242.065 105.668C241.756 105.036 241.602 104.297 241.602 103.452C241.602 102.599 241.756 101.855 242.065 101.22C242.378 100.584 242.811 100.091 243.365 99.739C243.923 99.3874 244.571 99.2116 245.309 99.2116C246.048 99.2116 246.694 99.3874 247.248 99.739C247.806 100.091 248.239 100.584 248.548 101.22C248.861 101.855 249.017 102.599 249.017 103.452C249.017 104.297 248.861 105.036 248.548 105.668C248.239 106.3 247.806 106.792 247.248 107.143C246.694 107.495 246.048 107.67 245.309 107.67ZM245.309 106.541C245.87 106.541 246.332 106.397 246.694 106.11C247.057 105.822 247.325 105.444 247.499 104.975C247.673 104.506 247.76 103.999 247.76 103.452C247.76 102.905 247.673 102.395 247.499 101.923C247.325 101.451 247.057 101.069 246.694 100.778C246.332 100.487 245.87 100.341 245.309 100.341C244.748 100.341 244.287 100.487 243.924 100.778C243.562 101.069 243.294 101.451 243.12 101.923C242.946 102.395 242.859 102.905 242.859 103.452C242.859 103.999 242.946 104.506 243.12 104.975C243.294 105.444 243.562 105.822 243.924 106.11C244.287 106.397 244.748 106.541 245.309 106.541ZM258.478 107.67C257.711 107.67 257.051 107.489 256.497 107.127C255.943 106.765 255.517 106.266 255.218 105.63C254.92 104.995 254.771 104.268 254.771 103.452C254.771 102.621 254.924 101.887 255.229 101.252C255.538 100.613 255.968 100.114 256.518 99.755C257.072 99.3928 257.718 99.2116 258.457 99.2116C259.032 99.2116 259.551 99.3182 260.012 99.5312C260.474 99.7443 260.852 100.043 261.147 100.426C261.442 100.81 261.625 101.257 261.696 101.768H260.439C260.343 101.396 260.13 101.065 259.799 100.778C259.473 100.487 259.032 100.341 258.478 100.341C257.988 100.341 257.559 100.469 257.189 100.724C256.824 100.977 256.538 101.333 256.332 101.795C256.129 102.253 256.028 102.791 256.028 103.409C256.028 104.041 256.127 104.592 256.326 105.06C256.529 105.529 256.813 105.893 257.179 106.152C257.548 106.412 257.981 106.541 258.478 106.541C258.805 106.541 259.102 106.484 259.368 106.371C259.634 106.257 259.86 106.094 260.044 105.881C260.229 105.668 260.36 105.412 260.439 105.114H261.696C261.625 105.597 261.449 106.032 261.168 106.419C260.891 106.802 260.524 107.108 260.066 107.335C259.611 107.559 259.082 107.67 258.478 107.67ZM265.941 107.692C265.423 107.692 264.952 107.594 264.529 107.399C264.107 107.2 263.771 106.914 263.523 106.541C263.274 106.165 263.15 105.71 263.15 105.178C263.15 104.709 263.242 104.329 263.427 104.038C263.612 103.743 263.858 103.512 264.167 103.345C264.476 103.178 264.817 103.054 265.19 102.972C265.566 102.887 265.945 102.82 266.325 102.77C266.822 102.706 267.225 102.658 267.534 102.626C267.846 102.591 268.074 102.532 268.216 102.45C268.361 102.369 268.434 102.227 268.434 102.024V101.982C268.434 101.456 268.29 101.048 268.002 100.756C267.718 100.465 267.287 100.32 266.708 100.32C266.108 100.32 265.637 100.451 265.297 100.714C264.956 100.977 264.716 101.257 264.577 101.555L263.384 101.129C263.597 100.632 263.881 100.245 264.237 99.968C264.595 99.6875 264.986 99.4922 265.408 99.3821C265.835 99.2685 266.254 99.2116 266.665 99.2116C266.928 99.2116 267.23 99.2436 267.571 99.3075C267.915 99.3679 268.248 99.494 268.567 99.6857C268.89 99.8775 269.158 100.167 269.371 100.554C269.585 100.941 269.691 101.46 269.691 102.109V107.5H268.434V106.392H268.37C268.285 106.57 268.143 106.76 267.944 106.962C267.745 107.164 267.48 107.337 267.15 107.479C266.82 107.621 266.417 107.692 265.941 107.692ZM266.133 106.562C266.63 106.562 267.049 106.465 267.39 106.27C267.734 106.074 267.994 105.822 268.168 105.513C268.345 105.204 268.434 104.879 268.434 104.538V103.388C268.381 103.452 268.263 103.51 268.082 103.564C267.905 103.613 267.699 103.658 267.464 103.697C267.234 103.732 267.008 103.764 266.788 103.793C266.571 103.817 266.396 103.839 266.261 103.857C265.934 103.899 265.629 103.968 265.344 104.064C265.064 104.157 264.837 104.297 264.663 104.485C264.492 104.67 264.407 104.922 264.407 105.241C264.407 105.678 264.569 106.009 264.892 106.232C265.218 106.452 265.632 106.562 266.133 106.562ZM273.243 105.646L277.184 99.3182H278.633V107.5H277.376V101.172L273.456 107.5H271.986V99.3182H273.243V105.646ZM276.353 96.5909H277.525C277.525 97.1662 277.326 97.6367 276.929 98.0025C276.531 98.3683 275.991 98.5511 275.309 98.5511C274.638 98.5511 274.104 98.3683 273.706 98.0025C273.312 97.6367 273.115 97.1662 273.115 96.5909H274.287C274.287 96.8679 274.363 97.1112 274.516 97.3207C274.672 97.5302 274.937 97.6349 275.309 97.6349C275.682 97.6349 275.949 97.5302 276.108 97.3207C276.272 97.1112 276.353 96.8679 276.353 96.5909ZM279.822 100.49V99.3182H286.47V100.49H283.786V107.5H282.528V100.49H279.822ZM290.287 107.692C289.768 107.692 289.298 107.594 288.875 107.399C288.453 107.2 288.117 106.914 287.868 106.541C287.62 106.165 287.496 105.71 287.496 105.178C287.496 104.709 287.588 104.329 287.773 104.038C287.957 103.743 288.204 103.512 288.513 103.345C288.822 103.178 289.163 103.054 289.536 102.972C289.912 102.887 290.29 102.82 290.67 102.77C291.167 102.706 291.57 102.658 291.879 102.626C292.192 102.591 292.419 102.532 292.561 102.45C292.707 102.369 292.78 102.227 292.78 102.024V101.982C292.78 101.456 292.636 101.048 292.348 100.756C292.064 100.465 291.633 100.32 291.054 100.32C290.454 100.32 289.983 100.451 289.642 100.714C289.301 100.977 289.062 101.257 288.923 101.555L287.73 101.129C287.943 100.632 288.227 100.245 288.582 99.968C288.941 99.6875 289.331 99.4922 289.754 99.3821C290.18 99.2685 290.599 99.2116 291.011 99.2116C291.274 99.2116 291.576 99.2436 291.917 99.3075C292.261 99.3679 292.593 99.494 292.913 99.6857C293.236 99.8775 293.504 100.167 293.717 100.554C293.93 100.941 294.037 101.46 294.037 102.109V107.5H292.78V106.392H292.716C292.631 106.57 292.488 106.76 292.29 106.962C292.091 107.164 291.826 107.337 291.496 107.479C291.166 107.621 290.763 107.692 290.287 107.692ZM290.479 106.562C290.976 106.562 291.395 106.465 291.736 106.27C292.08 106.074 292.339 105.822 292.513 105.513C292.691 105.204 292.78 104.879 292.78 104.538V103.388C292.726 103.452 292.609 103.51 292.428 103.564C292.251 103.613 292.045 103.658 291.81 103.697C291.579 103.732 291.354 103.764 291.134 103.793C290.917 103.817 290.741 103.839 290.606 103.857C290.28 103.899 289.974 103.968 289.69 104.064C289.41 104.157 289.182 104.297 289.008 104.485C288.838 104.67 288.753 104.922 288.753 105.241C288.753 105.678 288.914 106.009 289.237 106.232C289.564 106.452 289.978 106.562 290.479 106.562Z" fill="black"/>
<rect width="450" height="15" transform="translate(30 175)" fill="#7B808D"/>
<rect x="30" y="175" width="30" height="10" fill="#833233"/>
<rect x="70" y="175" width="30" height="5" fill="#2B495D"/>
<rect x="110" y="175" width="30" height="5" fill="#2B495D"/>
<rect x="150" y="175" width="30" height="5" fill="#2B495D"/>
<rect x="70" y="185" width="30" height="5" fill="#2B495D"/>
<rect x="110" y="185" width="30" height="5" fill="#2B495D"/>
<rect x="150" y="185" width="30" height="5" fill="#2B495D"/>
<rect x="415" y="175" width="15" height="10" fill="#2B495D"/>
<rect x="440" y="175" width="15" height="10" fill="#2B495D"/>
<rect x="465" y="175" width="15" height="10" fill="#2B495D"/>
</svg>
