<svg width="510" height="265" viewBox="0 0 510 265" fill="none" xmlns="http://www.w3.org/2000/svg">
<rect width="510" height="265" fill="#7B808D"/>
<rect x="30" y="10" width="60" height="20" fill="#833233"/>
<rect x="400" y="10" width="20" height="20" fill="#2B495D"/>
<rect x="430" y="10" width="20" height="20" fill="#2B495D"/>
<rect x="460" y="10" width="20" height="20" fill="#2B495D"/>
<rect width="117" height="25" transform="translate(30 40)" fill="#2B495D"/>
<path d="M63.3478 49.3125H64.7285C65.3762 49.3125 65.9515 49.4574 66.4544 49.7472C66.9572 50.0369 67.3521 50.4403 67.639 50.9574C67.926 51.4744 68.0694 52.0739 68.0694 52.7557C68.0694 53.4375 67.926 54.0384 67.639 54.5582C67.3521 55.0781 66.9572 55.4844 66.4544 55.777C65.9515 56.0696 65.3762 56.2159 64.7285 56.2159H63.3478C62.7001 56.2159 62.1248 56.071 61.622 55.7812C61.1191 55.4915 60.7243 55.0881 60.4373 54.571C60.1504 54.054 60.0069 53.4545 60.0069 52.7727C60.0069 52.0909 60.1504 51.4901 60.4373 50.9702C60.7243 50.4503 61.1191 50.044 61.622 49.7514C62.1248 49.4588 62.7001 49.3125 63.3478 49.3125ZM63.3478 50.25C62.8535 50.25 62.4359 50.3537 62.095 50.5611C61.7569 50.7685 61.4998 51.0611 61.3237 51.4389C61.1504 51.8168 61.0637 52.2614 61.0637 52.7727C61.0637 53.2784 61.1504 53.7188 61.3237 54.0938C61.4998 54.4688 61.7569 54.7599 62.095 54.9673C62.4359 55.1747 62.8535 55.2784 63.3478 55.2784H64.7285C65.2228 55.2784 65.639 55.1747 65.9771 54.9673C66.318 54.7599 66.5751 54.4673 66.7484 54.0895C66.9245 53.7116 67.0126 53.267 67.0126 52.7557C67.0126 52.25 66.9245 51.8097 66.7484 51.4347C66.5751 51.0597 66.318 50.7685 65.9771 50.5611C65.639 50.3537 65.2228 50.25 64.7285 50.25H63.3478ZM64.5751 48.1193V57.358H63.5183V48.1193H64.5751ZM70.7093 55.517L73.8627 50.4545H75.0218V57H74.0162V51.9375L70.8798 57H69.7037V50.4545H70.7093V55.517ZM76.2843 57V56.0625H76.5229C76.7189 56.0625 76.8823 56.0241 77.013 55.9474C77.1436 55.8679 77.2488 55.7301 77.3283 55.5341C77.4107 55.3352 77.4732 55.0597 77.5158 54.7074C77.5613 54.3523 77.5939 53.9006 77.6138 53.3523L77.7331 50.4545H82.0968V57H81.0911V51.392H78.6877L78.5854 53.7273C78.5627 54.2642 78.5144 54.7372 78.4405 55.1463C78.3695 55.5526 78.2601 55.8935 78.1124 56.169C77.9675 56.4446 77.7743 56.652 77.5328 56.7912C77.2914 56.9304 76.9888 57 76.6252 57H76.2843ZM84.8113 52.8239H86.6863C87.4533 52.8239 88.04 53.0185 88.4462 53.4077C88.8525 53.7969 89.0556 54.2898 89.0556 54.8864C89.0556 55.2784 88.9647 55.6349 88.7828 55.956C88.601 56.2741 88.334 56.5284 87.9817 56.7188C87.6294 56.9062 87.1976 57 86.6863 57H83.9419V50.4545H84.9476V56.0625H86.6863C87.084 56.0625 87.4107 55.9574 87.6664 55.7472C87.9221 55.5369 88.0499 55.267 88.0499 54.9375C88.0499 54.5909 87.9221 54.3082 87.6664 54.0895C87.4107 53.8707 87.084 53.7614 86.6863 53.7614H84.8113V52.8239ZM89.5318 51.392V50.4545H94.85V51.392H92.7022V57H91.6966V51.392H89.5318ZM96.3169 59.4545V50.4545H97.2885V51.4943H97.4078C97.4817 51.3807 97.584 51.2358 97.7147 51.0597C97.8482 50.8807 98.0385 50.7216 98.2857 50.5824C98.5357 50.4403 98.8738 50.3693 99.2999 50.3693C99.851 50.3693 100.337 50.5071 100.757 50.7827C101.178 51.0582 101.506 51.4489 101.742 51.9545C101.977 52.4602 102.095 53.0568 102.095 53.7443C102.095 54.4375 101.977 55.0384 101.742 55.5469C101.506 56.0526 101.179 56.4446 100.762 56.723C100.344 56.9986 99.8624 57.1364 99.3169 57.1364C98.8965 57.1364 98.5598 57.0668 98.307 56.9276C98.0542 56.7855 97.8596 56.625 97.7232 56.446C97.5868 56.2642 97.4817 56.1136 97.4078 55.9943H97.3226V59.4545H96.3169ZM97.3056 53.7273C97.3056 54.2216 97.378 54.6577 97.5229 55.0355C97.6678 55.4105 97.8794 55.7045 98.1578 55.9176C98.4363 56.1278 98.7772 56.233 99.1806 56.233C99.601 56.233 99.9519 56.1222 100.233 55.9006C100.517 55.6761 100.73 55.375 100.872 54.9972C101.017 54.6165 101.09 54.1932 101.09 53.7273C101.09 53.267 101.019 52.8523 100.877 52.483C100.737 52.1108 100.526 51.8168 100.242 51.6009C99.9604 51.3821 99.6067 51.2727 99.1806 51.2727C98.7715 51.2727 98.4277 51.3764 98.1493 51.5838C97.8709 51.7884 97.6607 52.0753 97.5186 52.4446C97.3766 52.8111 97.3056 53.2386 97.3056 53.7273Z" fill="#D6D0D0"/>
<path d="M134 51L137.25 54.25L140.5 51" stroke="#D6D0D0" stroke-width="1.54545" stroke-linecap="round" stroke-linejoin="round"/>
<rect width="117" height="145" transform="translate(30 70)" fill="#2B495D"/>
<path d="M38.4239 84.0975L38.6314 84.305L38.8102 84.0724L41.386 80.724L40.9777 80.4099L38.5808 83.5258L36.7276 81.6727L36.3633 82.0369L38.4239 84.0975ZM35.2576 78.8941H42.4697V86.1062H35.2576V78.8941Z" fill="#7B808D" stroke="#D6D0D0" stroke-width="0.515152"/>
<path d="M53.7841 87V78.2727H56.8352C57.4432 78.2727 57.9446 78.3778 58.3395 78.5881C58.7344 78.7955 59.0284 79.0753 59.2216 79.4276C59.4148 79.777 59.5114 80.1648 59.5114 80.5909C59.5114 80.9659 59.4446 81.2756 59.3111 81.5199C59.1804 81.7642 59.0071 81.9574 58.7912 82.0994C58.5781 82.2415 58.3466 82.3466 58.0966 82.4148V82.5C58.3637 82.517 58.6321 82.6108 58.902 82.7812C59.1719 82.9517 59.3977 83.196 59.5796 83.5142C59.7614 83.8324 59.8523 84.2216 59.8523 84.6818C59.8523 85.1193 59.7529 85.5128 59.554 85.8622C59.3551 86.2116 59.0412 86.4886 58.6122 86.6932C58.1833 86.8977 57.625 87 56.9375 87H53.7841ZM54.8409 86.0625H56.9375C57.6279 86.0625 58.1179 85.929 58.4077 85.6619C58.7003 85.392 58.8466 85.0653 58.8466 84.6818C58.8466 84.3864 58.7713 84.1136 58.6208 83.8636C58.4702 83.6108 58.2557 83.4091 57.9773 83.2585C57.6989 83.1051 57.3693 83.0284 56.9887 83.0284H54.8409V86.0625ZM54.8409 82.108H56.8012C57.1193 82.108 57.4063 82.0455 57.662 81.9205C57.9205 81.7955 58.125 81.6193 58.2756 81.392C58.429 81.1648 58.5057 80.8977 58.5057 80.5909C58.5057 80.2074 58.3722 79.8821 58.1051 79.6151C57.8381 79.3452 57.4148 79.2102 56.8352 79.2102H54.8409V82.108ZM64.1968 87.1364C63.5661 87.1364 63.022 86.9972 62.5647 86.7188C62.1101 86.4375 61.7593 86.0455 61.5121 85.5426C61.2678 85.0369 61.1456 84.4489 61.1456 83.7784C61.1456 83.108 61.2678 82.517 61.5121 82.0057C61.7593 81.4915 62.103 81.0909 62.5433 80.804C62.9865 80.5142 63.5036 80.3693 64.0945 80.3693C64.4354 80.3693 64.772 80.4261 65.1044 80.5398C65.4368 80.6534 65.7394 80.8381 66.0121 81.0938C66.2848 81.3466 66.5022 81.6818 66.6641 82.0994C66.826 82.517 66.907 83.0312 66.907 83.642V84.0682H61.8615V83.1989H65.8843C65.8843 82.8295 65.8104 82.5 65.6627 82.2102C65.5178 81.9205 65.3104 81.6918 65.0405 81.5241C64.7735 81.3565 64.4581 81.2727 64.0945 81.2727C63.6939 81.2727 63.3473 81.3722 63.0547 81.571C62.7649 81.767 62.5419 82.0227 62.3857 82.3381C62.2294 82.6534 62.1513 82.9915 62.1513 83.3523V83.9318C62.1513 84.4261 62.2365 84.8452 62.407 85.1889C62.5803 85.5298 62.8203 85.7898 63.1272 85.9688C63.434 86.1449 63.7905 86.233 64.1968 86.233C64.461 86.233 64.6996 86.196 64.9127 86.1222C65.1286 86.0455 65.3147 85.9318 65.4709 85.7812C65.6272 85.6278 65.7479 85.4375 65.8331 85.2102L66.8047 85.483C66.7024 85.8125 66.5306 86.1023 66.2891 86.3523C66.0476 86.5994 65.7493 86.7926 65.3942 86.9318C65.0391 87.0682 64.6399 87.1364 64.1968 87.1364ZM72.8175 83.267V84.2045H69.2039V83.267H72.8175ZM69.4425 80.4545V87H68.4368V80.4545H69.4425ZM73.5845 80.4545V87H72.5789V80.4545H73.5845ZM74.5306 81.392V80.4545H79.8487V81.392H77.701V87H76.6953V81.392H74.5306ZM82.3214 85.517L85.4748 80.4545H86.6339V87H85.6282V81.9375L82.4919 87H81.3157V80.4545H82.3214V85.517ZM87.8963 87V86.0625H88.135C88.331 86.0625 88.4943 86.0241 88.625 85.9474C88.7557 85.8679 88.8608 85.7301 88.9404 85.5341C89.0227 85.3352 89.0852 85.0597 89.1279 84.7074C89.1733 84.3523 89.206 83.9006 89.2259 83.3523L89.3452 80.4545H93.7088V87H92.7031V81.392H90.2997L90.1975 83.7273C90.1747 84.2642 90.1264 84.7372 90.0526 85.1463C89.9816 85.5526 89.8722 85.8935 89.7245 86.169C89.5796 86.4446 89.3864 86.652 89.1449 86.7912C88.9034 86.9304 88.6009 87 88.2372 87H87.8963ZM99.4915 87V81.375H97.7529C97.3608 81.375 97.0526 81.4659 96.8281 81.6477C96.6037 81.8295 96.4915 82.0795 96.4915 82.3977C96.4915 82.7102 96.5924 82.956 96.7941 83.1349C96.9986 83.3139 97.2784 83.4034 97.6335 83.4034H99.7472V84.3409H97.6335C97.1904 84.3409 96.8083 84.2628 96.4872 84.1065C96.1662 83.9503 95.9191 83.7273 95.7458 83.4375C95.5725 83.1449 95.4858 82.7983 95.4858 82.3977C95.4858 81.9943 95.5767 81.6477 95.7585 81.358C95.9404 81.0682 96.2003 80.8452 96.5384 80.6889C96.8793 80.5327 97.2841 80.4545 97.7529 80.4545H100.446V87H99.4915ZM95.1279 87L96.9858 83.7443H98.0767L96.2188 87H95.1279ZM101.402 81.392V80.4545H106.72V81.392H104.572V87H103.566V81.392H101.402ZM110.506 87.1364C109.915 87.1364 109.397 86.9957 108.951 86.7145C108.507 86.4332 108.161 86.0398 107.911 85.5341C107.664 85.0284 107.54 84.4375 107.54 83.7614C107.54 83.0795 107.664 82.4844 107.911 81.9759C108.161 81.4673 108.507 81.0724 108.951 80.7912C109.397 80.5099 109.915 80.3693 110.506 80.3693C111.097 80.3693 111.614 80.5099 112.057 80.7912C112.503 81.0724 112.85 81.4673 113.097 81.9759C113.347 82.4844 113.472 83.0795 113.472 83.7614C113.472 84.4375 113.347 85.0284 113.097 85.5341C112.85 86.0398 112.503 86.4332 112.057 86.7145C111.614 86.9957 111.097 87.1364 110.506 87.1364ZM110.506 86.233C110.955 86.233 111.324 86.1179 111.614 85.8878C111.904 85.6577 112.118 85.3551 112.257 84.9801C112.397 84.6051 112.466 84.1989 112.466 83.7614C112.466 83.3239 112.397 82.9162 112.257 82.5384C112.118 82.1605 111.904 81.8551 111.614 81.6222C111.324 81.3892 110.955 81.2727 110.506 81.2727C110.057 81.2727 109.688 81.3892 109.398 81.6222C109.108 81.8551 108.894 82.1605 108.755 82.5384C108.615 82.9162 108.546 83.3239 108.546 83.7614C108.546 84.1989 108.615 84.6051 108.755 84.9801C108.894 85.3551 109.108 85.6577 109.398 85.8878C109.688 86.1179 110.057 86.233 110.506 86.233ZM115.007 89.4545V80.4545H115.979V81.4943H116.098C116.172 81.3807 116.274 81.2358 116.405 81.0597C116.538 80.8807 116.729 80.7216 116.976 80.5824C117.226 80.4403 117.564 80.3693 117.99 80.3693C118.541 80.3693 119.027 80.5071 119.447 80.7827C119.868 81.0582 120.196 81.4489 120.432 81.9545C120.668 82.4602 120.786 83.0568 120.786 83.7443C120.786 84.4375 120.668 85.0384 120.432 85.5469C120.196 86.0526 119.869 86.4446 119.452 86.723C119.034 86.9986 118.553 87.1364 118.007 87.1364C117.587 87.1364 117.25 87.0668 116.997 86.9276C116.744 86.7855 116.55 86.625 116.413 86.446C116.277 86.2642 116.172 86.1136 116.098 85.9943H116.013V89.4545H115.007ZM115.996 83.7273C115.996 84.2216 116.068 84.6577 116.213 85.0355C116.358 85.4105 116.57 85.7045 116.848 85.9176C117.126 86.1278 117.467 86.233 117.871 86.233C118.291 86.233 118.642 86.1222 118.923 85.9006C119.207 85.6761 119.42 85.375 119.563 84.9972C119.707 84.6165 119.78 84.1932 119.78 83.7273C119.78 83.267 119.709 82.8523 119.567 82.483C119.428 82.1108 119.216 81.8168 118.932 81.6009C118.651 81.3821 118.297 81.2727 117.871 81.2727C117.462 81.2727 117.118 81.3764 116.84 81.5838C116.561 81.7884 116.351 82.0753 116.209 82.4446C116.067 82.8111 115.996 83.2386 115.996 83.7273ZM123.189 82.8239H125.064C125.831 82.8239 126.418 83.0185 126.824 83.4077C127.23 83.7969 127.433 84.2898 127.433 84.8864C127.433 85.2784 127.342 85.6349 127.161 85.956C126.979 86.2741 126.712 86.5284 126.359 86.7188C126.007 86.9062 125.575 87 125.064 87H122.32V80.4545H123.325V86.0625H125.064C125.462 86.0625 125.788 85.9574 126.044 85.7472C126.3 85.5369 126.428 85.267 126.428 84.9375C126.428 84.5909 126.3 84.3082 126.044 84.0895C125.788 83.8707 125.462 83.7614 125.064 83.7614H123.189V82.8239ZM128.473 87V80.4545H129.479V87H128.473Z" fill="#D6D0D0"/>
<path d="M38.4239 104.098L38.6314 104.305L38.8102 104.072L41.386 100.724L40.9777 100.41L38.5808 103.526L36.7276 101.673L36.3633 102.037L38.4239 104.098ZM35.2576 98.8941H42.4697V106.106H35.2576V98.8941Z" fill="#7B808D" stroke="#D6D0D0" stroke-width="0.515152"/>
<path d="M53.7841 107V98.2727H54.8409V102.159H59.4943V98.2727H60.5512V107H59.4943V103.097H54.8409V107H53.7841ZM65.1897 107.136C64.5987 107.136 64.0803 106.996 63.6343 106.714C63.1911 106.433 62.8445 106.04 62.5945 105.534C62.3473 105.028 62.2237 104.437 62.2237 103.761C62.2237 103.08 62.3473 102.484 62.5945 101.976C62.8445 101.467 63.1911 101.072 63.6343 100.791C64.0803 100.51 64.5987 100.369 65.1897 100.369C65.7806 100.369 66.2976 100.51 66.7408 100.791C67.1868 101.072 67.5334 101.467 67.7806 101.976C68.0306 102.484 68.1556 103.08 68.1556 103.761C68.1556 104.437 68.0306 105.028 67.7806 105.534C67.5334 106.04 67.1868 106.433 66.7408 106.714C66.2976 106.996 65.7806 107.136 65.1897 107.136ZM65.1897 106.233C65.6385 106.233 66.0078 106.118 66.2976 105.888C66.5874 105.658 66.8019 105.355 66.9411 104.98C67.0803 104.605 67.1499 104.199 67.1499 103.761C67.1499 103.324 67.0803 102.916 66.9411 102.538C66.8019 102.161 66.5874 101.855 66.2976 101.622C66.0078 101.389 65.6385 101.273 65.1897 101.273C64.7408 101.273 64.3715 101.389 64.0817 101.622C63.7919 101.855 63.5774 102.161 63.4382 102.538C63.299 102.916 63.2294 103.324 63.2294 103.761C63.2294 104.199 63.299 104.605 63.4382 104.98C63.5774 105.355 63.7919 105.658 64.0817 105.888C64.3715 106.118 64.7408 106.233 65.1897 106.233ZM69.0121 107L71.6712 103.676L69.0462 100.455H70.2394L72.4212 103.25H72.9666V100.455H73.9723V103.25H74.5007L76.6826 100.455H77.8757L75.2678 103.676L77.9098 107H76.6996L74.4837 104.188H73.9723V107H72.9666V104.188H72.4553L70.2223 107H69.0121ZM80.3527 105.517L83.5061 100.455H84.6652V107H83.6595V101.938L80.5231 107H79.347V100.455H80.3527V105.517Z" fill="#D6D0D0"/>
<rect x="35" y="118.636" width="7.72727" height="7.72727" fill="#D6D0D0"/>
<path d="M59.1193 122.278V123.216H55.5227V122.278H59.1193ZM53.4432 124.273H54.5341C54.6279 124.886 54.8352 125.358 55.1563 125.688C55.4773 126.017 55.9915 126.182 56.6989 126.182C57.1989 126.182 57.6165 126.041 57.9517 125.76C58.2898 125.479 58.5426 125.107 58.7102 124.643C58.8807 124.18 58.9659 123.676 58.9659 123.131V122.159C58.9659 121.557 58.8708 121.027 58.6804 120.57C58.4929 120.109 58.2216 119.751 57.8665 119.496C57.5142 119.237 57.0909 119.108 56.5966 119.108C56.1648 119.108 55.8068 119.185 55.5227 119.338C55.2387 119.491 55.0171 119.712 54.858 119.999C54.6989 120.286 54.5909 120.631 54.5341 121.034H53.4432C53.5 120.477 53.652 119.983 53.8992 119.551C54.1492 119.116 54.4972 118.776 54.9432 118.528C55.3921 118.278 55.9432 118.153 56.5966 118.153C57.3068 118.153 57.9205 118.32 58.4375 118.652C58.9546 118.982 59.3537 119.446 59.635 120.045C59.9162 120.642 60.0568 121.341 60.0568 122.142V123.148C60.0568 123.949 59.9176 124.648 59.6392 125.244C59.3608 125.838 58.9702 126.3 58.4674 126.629C57.9645 126.956 57.375 127.119 56.6989 127.119C56.0057 127.119 55.429 126.994 54.9688 126.744C54.5114 126.491 54.1577 126.151 53.9077 125.722C53.6605 125.29 53.5057 124.807 53.4432 124.273ZM61.119 127V126.062H61.3576C61.5536 126.062 61.717 126.024 61.8477 125.947C61.9784 125.868 62.0835 125.73 62.163 125.534C62.2454 125.335 62.3079 125.06 62.3505 124.707C62.396 124.352 62.4286 123.901 62.4485 123.352L62.5678 120.455H66.9315V127H65.9258V121.392H63.5224L63.4201 123.727C63.3974 124.264 63.3491 124.737 63.2752 125.146C63.2042 125.553 63.0948 125.893 62.9471 126.169C62.8022 126.445 62.609 126.652 62.3676 126.791C62.1261 126.93 61.8235 127 61.4599 127H61.119ZM71.521 127.136C70.8903 127.136 70.3463 126.997 69.8889 126.719C69.4343 126.438 69.0835 126.045 68.8363 125.543C68.592 125.037 68.4698 124.449 68.4698 123.778C68.4698 123.108 68.592 122.517 68.8363 122.006C69.0835 121.491 69.4272 121.091 69.8676 120.804C70.3107 120.514 70.8278 120.369 71.4187 120.369C71.7596 120.369 72.0963 120.426 72.4286 120.54C72.761 120.653 73.0636 120.838 73.3363 121.094C73.609 121.347 73.8264 121.682 73.9883 122.099C74.1502 122.517 74.2312 123.031 74.2312 123.642V124.068H69.1857V123.199H73.2085C73.2085 122.83 73.1346 122.5 72.9869 122.21C72.842 121.92 72.6346 121.692 72.3647 121.524C72.0977 121.357 71.7823 121.273 71.4187 121.273C71.0181 121.273 70.6715 121.372 70.3789 121.571C70.0892 121.767 69.8661 122.023 69.7099 122.338C69.5536 122.653 69.4755 122.991 69.4755 123.352V123.932C69.4755 124.426 69.5607 124.845 69.7312 125.189C69.9045 125.53 70.1446 125.79 70.4514 125.969C70.7582 126.145 71.1147 126.233 71.521 126.233C71.7852 126.233 72.0238 126.196 72.2369 126.122C72.4528 126.045 72.6389 125.932 72.7951 125.781C72.9514 125.628 73.0721 125.437 73.1573 125.21L74.1289 125.483C74.0267 125.812 73.8548 126.102 73.6133 126.352C73.3718 126.599 73.0735 126.793 72.7184 126.932C72.3633 127.068 71.9642 127.136 71.521 127.136ZM75.761 127V120.455H76.7667V123.301H77.4315L79.7838 120.455H81.0792L78.4372 123.608L81.1133 127H79.8178L77.6701 124.239H76.7667V127H75.761ZM81.8313 121.392V120.455H87.1495V121.392H85.0018V127H83.9961V121.392H81.8313ZM88.6165 129.455V120.455H89.5881V121.494H89.7074C89.7813 121.381 89.8835 121.236 90.0142 121.06C90.1477 120.881 90.3381 120.722 90.5852 120.582C90.8352 120.44 91.1733 120.369 91.5995 120.369C92.1506 120.369 92.6364 120.507 93.0568 120.783C93.4773 121.058 93.8054 121.449 94.0412 121.955C94.277 122.46 94.3949 123.057 94.3949 123.744C94.3949 124.438 94.277 125.038 94.0412 125.547C93.8054 126.053 93.4787 126.445 93.0611 126.723C92.6435 126.999 92.162 127.136 91.6165 127.136C91.196 127.136 90.8594 127.067 90.6066 126.928C90.3537 126.786 90.1591 126.625 90.0227 126.446C89.8864 126.264 89.7813 126.114 89.7074 125.994H89.6222V129.455H88.6165ZM89.6051 123.727C89.6051 124.222 89.6776 124.658 89.8225 125.036C89.9674 125.411 90.179 125.705 90.4574 125.918C90.7358 126.128 91.0767 126.233 91.4801 126.233C91.9006 126.233 92.2514 126.122 92.5327 125.901C92.8168 125.676 93.0299 125.375 93.1719 124.997C93.3168 124.616 93.3892 124.193 93.3892 123.727C93.3892 123.267 93.3182 122.852 93.1762 122.483C93.037 122.111 92.8253 121.817 92.5412 121.601C92.26 121.382 91.9063 121.273 91.4801 121.273C91.071 121.273 90.7273 121.376 90.4489 121.584C90.1705 121.788 89.9602 122.075 89.8182 122.445C89.6762 122.811 89.6051 123.239 89.6051 123.727ZM98.5881 127.136C97.9972 127.136 97.4787 126.996 97.0327 126.714C96.5895 126.433 96.2429 126.04 95.9929 125.534C95.7458 125.028 95.6222 124.437 95.6222 123.761C95.6222 123.08 95.7458 122.484 95.9929 121.976C96.2429 121.467 96.5895 121.072 97.0327 120.791C97.4787 120.51 97.9972 120.369 98.5881 120.369C99.179 120.369 99.696 120.51 100.139 120.791C100.585 121.072 100.932 121.467 101.179 121.976C101.429 122.484 101.554 123.08 101.554 123.761C101.554 124.437 101.429 125.028 101.179 125.534C100.932 126.04 100.585 126.433 100.139 126.714C99.696 126.996 99.179 127.136 98.5881 127.136ZM98.5881 126.233C99.037 126.233 99.4063 126.118 99.696 125.888C99.9858 125.658 100.2 125.355 100.34 124.98C100.479 124.605 100.548 124.199 100.548 123.761C100.548 123.324 100.479 122.916 100.34 122.538C100.2 122.161 99.9858 121.855 99.696 121.622C99.4063 121.389 99.037 121.273 98.5881 121.273C98.1392 121.273 97.7699 121.389 97.4801 121.622C97.1904 121.855 96.9759 122.161 96.8367 122.538C96.6975 122.916 96.6279 123.324 96.6279 123.761C96.6279 124.199 96.6975 124.605 96.8367 124.98C96.9759 125.355 97.1904 125.658 97.4801 125.888C97.7699 126.118 98.1392 126.233 98.5881 126.233ZM107.47 123.267V124.205H103.856V123.267H107.47ZM104.095 120.455V127H103.089V120.455H104.095ZM108.237 120.455V127H107.231V120.455H108.237ZM111.079 125.517L114.233 120.455H115.392V127H114.386V121.938L111.25 127H110.074V120.455H111.079V125.517ZM117.234 127V120.455H118.239V123.301H118.904L121.256 120.455H122.552L119.91 123.608L122.586 127H121.291L119.143 124.239H118.239V127H117.234ZM125.605 127.153C125.19 127.153 124.814 127.075 124.476 126.919C124.138 126.76 123.869 126.531 123.67 126.233C123.472 125.932 123.372 125.568 123.372 125.142C123.372 124.767 123.446 124.463 123.594 124.23C123.741 123.994 123.939 123.81 124.186 123.676C124.433 123.543 124.706 123.443 125.004 123.378C125.305 123.31 125.608 123.256 125.912 123.216C126.31 123.165 126.632 123.126 126.879 123.101C127.129 123.072 127.311 123.026 127.425 122.96C127.541 122.895 127.599 122.781 127.599 122.619V122.585C127.599 122.165 127.484 121.838 127.254 121.605C127.027 121.372 126.682 121.256 126.219 121.256C125.739 121.256 125.362 121.361 125.09 121.571C124.817 121.781 124.625 122.006 124.514 122.244L123.56 121.903C123.73 121.506 123.957 121.196 124.241 120.974C124.528 120.75 124.841 120.594 125.179 120.506C125.52 120.415 125.855 120.369 126.185 120.369C126.395 120.369 126.636 120.395 126.909 120.446C127.185 120.494 127.45 120.595 127.706 120.749C127.965 120.902 128.179 121.134 128.349 121.443C128.52 121.753 128.605 122.168 128.605 122.688V127H127.599V126.114H127.548C127.48 126.256 127.366 126.408 127.207 126.57C127.048 126.732 126.837 126.869 126.572 126.983C126.308 127.097 125.986 127.153 125.605 127.153ZM125.759 126.25C126.156 126.25 126.491 126.172 126.764 126.016C127.04 125.859 127.247 125.658 127.386 125.411C127.528 125.163 127.599 124.903 127.599 124.631V123.71C127.557 123.761 127.463 123.808 127.318 123.851C127.176 123.891 127.011 123.926 126.824 123.957C126.639 123.986 126.459 124.011 126.283 124.034C126.109 124.054 125.969 124.071 125.861 124.085C125.599 124.119 125.355 124.175 125.128 124.251C124.903 124.325 124.722 124.437 124.582 124.588C124.446 124.736 124.378 124.937 124.378 125.193C124.378 125.543 124.507 125.807 124.766 125.986C125.027 126.162 125.358 126.25 125.759 126.25Z" fill="#D6D0D0"/>
<rect x="35" y="138.636" width="7.72727" height="7.72727" fill="#D6D0D0"/>
<path d="M60.8068 141H59.75C59.6875 140.696 59.5781 140.429 59.4219 140.199C59.2685 139.969 59.081 139.776 58.8594 139.619C58.6406 139.46 58.3977 139.341 58.1307 139.261C57.8637 139.182 57.5852 139.142 57.2955 139.142C56.7671 139.142 56.2884 139.276 55.8594 139.543C55.4333 139.81 55.0938 140.203 54.8409 140.723C54.5909 141.243 54.4659 141.881 54.4659 142.636C54.4659 143.392 54.5909 144.03 54.8409 144.55C55.0938 145.07 55.4333 145.463 55.8594 145.73C56.2884 145.997 56.7671 146.131 57.2955 146.131C57.5852 146.131 57.8637 146.091 58.1307 146.011C58.3977 145.932 58.6406 145.814 58.8594 145.658C59.081 145.499 59.2685 145.304 59.4219 145.074C59.5781 144.841 59.6875 144.574 59.75 144.273H60.8068C60.7273 144.719 60.5824 145.118 60.3722 145.47C60.162 145.822 59.9006 146.122 59.5881 146.369C59.2756 146.614 58.9247 146.8 58.5355 146.928C58.1492 147.055 57.7358 147.119 57.2955 147.119C56.5512 147.119 55.8892 146.938 55.3097 146.574C54.7301 146.21 54.2742 145.693 53.9418 145.023C53.6094 144.352 53.4432 143.557 53.4432 142.636C53.4432 141.716 53.6094 140.92 53.9418 140.25C54.2742 139.58 54.7301 139.062 55.3097 138.699C55.8892 138.335 56.5512 138.153 57.2955 138.153C57.7358 138.153 58.1492 138.217 58.5355 138.345C58.9247 138.473 59.2756 138.661 59.5881 138.908C59.9006 139.152 60.162 139.45 60.3722 139.803C60.5824 140.152 60.7273 140.551 60.8068 141ZM65.0373 147.136C64.4464 147.136 63.9279 146.996 63.4819 146.714C63.0387 146.433 62.6921 146.04 62.4421 145.534C62.195 145.028 62.0714 144.437 62.0714 143.761C62.0714 143.08 62.195 142.484 62.4421 141.976C62.6921 141.467 63.0387 141.072 63.4819 140.791C63.9279 140.51 64.4464 140.369 65.0373 140.369C65.6282 140.369 66.1453 140.51 66.5884 140.791C67.0345 141.072 67.3811 141.467 67.6282 141.976C67.8782 142.484 68.0032 143.08 68.0032 143.761C68.0032 144.437 67.8782 145.028 67.6282 145.534C67.3811 146.04 67.0345 146.433 66.5884 146.714C66.1453 146.996 65.6282 147.136 65.0373 147.136ZM65.0373 146.233C65.4862 146.233 65.8555 146.118 66.1453 145.888C66.435 145.658 66.6495 145.355 66.7887 144.98C66.9279 144.605 66.9975 144.199 66.9975 143.761C66.9975 143.324 66.9279 142.916 66.7887 142.538C66.6495 142.161 66.435 141.855 66.1453 141.622C65.8555 141.389 65.4862 141.273 65.0373 141.273C64.5884 141.273 64.2191 141.389 63.9294 141.622C63.6396 141.855 63.4251 142.161 63.2859 142.538C63.1467 142.916 63.0771 143.324 63.0771 143.761C63.0771 144.199 63.1467 144.605 63.2859 144.98C63.4251 145.355 63.6396 145.658 63.9294 145.888C64.2191 146.118 64.5884 146.233 65.0373 146.233ZM74.3963 138L74.9077 138.614C74.7088 138.807 74.4787 138.942 74.2174 139.018C73.956 139.095 73.6605 139.142 73.331 139.159C73.0014 139.176 72.635 139.193 72.2316 139.21C71.777 139.227 71.4006 139.338 71.1023 139.543C70.804 139.747 70.5739 140.043 70.412 140.429C70.25 140.815 70.1463 141.29 70.1009 141.852H70.1861C70.4077 141.443 70.7145 141.142 71.1066 140.949C71.4986 140.756 71.9191 140.659 72.3679 140.659C72.8793 140.659 73.3395 140.778 73.7486 141.017C74.1577 141.256 74.4816 141.609 74.7202 142.078C74.9588 142.547 75.0781 143.125 75.0781 143.812C75.0781 144.497 74.956 145.088 74.7117 145.585C74.4702 146.082 74.1307 146.466 73.6932 146.736C73.2585 147.003 72.7486 147.136 72.1634 147.136C71.5781 147.136 71.0654 146.999 70.625 146.723C70.1847 146.445 69.8424 146.033 69.598 145.487C69.3537 144.939 69.2316 144.261 69.2316 143.455V142.756C69.2316 141.298 69.4787 140.193 69.973 139.44C70.4702 138.687 71.2174 138.298 72.2145 138.273C72.5668 138.261 72.8807 138.259 73.1563 138.264C73.4318 138.27 73.6719 138.257 73.8764 138.226C74.081 138.195 74.2543 138.119 74.3963 138ZM72.1634 146.233C72.5583 146.233 72.8977 146.134 73.1818 145.935C73.4688 145.736 73.6889 145.456 73.8424 145.095C73.9958 144.732 74.0725 144.304 74.0725 143.812C74.0725 143.335 73.9943 142.929 73.8381 142.594C73.6847 142.259 73.4645 142.003 73.1776 141.827C72.8906 141.651 72.5469 141.562 72.1463 141.562C71.8537 141.562 71.5909 141.612 71.358 141.712C71.125 141.811 70.9262 141.957 70.7614 142.151C70.5966 142.344 70.4688 142.58 70.3779 142.858C70.2898 143.136 70.2429 143.455 70.2372 143.812C70.2372 144.545 70.4091 145.132 70.7529 145.572C71.0966 146.013 71.5668 146.233 72.1634 146.233ZM78.5426 147.153C78.1279 147.153 77.7514 147.075 77.4134 146.919C77.0753 146.76 76.8068 146.531 76.608 146.233C76.4091 145.932 76.3097 145.568 76.3097 145.142C76.3097 144.767 76.3835 144.463 76.5313 144.23C76.679 143.994 76.8764 143.81 77.1236 143.676C77.3708 143.543 77.6435 143.443 77.9418 143.378C78.2429 143.31 78.5455 143.256 78.8495 143.216C79.2472 143.165 79.5696 143.126 79.8168 143.101C80.0668 143.072 80.2486 143.026 80.3622 142.96C80.4787 142.895 80.537 142.781 80.537 142.619V142.585C80.537 142.165 80.4219 141.838 80.1918 141.605C79.9645 141.372 79.6193 141.256 79.1563 141.256C78.6762 141.256 78.2997 141.361 78.027 141.571C77.7543 141.781 77.5625 142.006 77.4517 142.244L76.4972 141.903C76.6676 141.506 76.8949 141.196 77.179 140.974C77.4659 140.75 77.7784 140.594 78.1165 140.506C78.4574 140.415 78.7926 140.369 79.1222 140.369C79.3324 140.369 79.5739 140.395 79.8466 140.446C80.1222 140.494 80.3878 140.595 80.6435 140.749C80.902 140.902 81.1165 141.134 81.287 141.443C81.4574 141.753 81.5426 142.168 81.5426 142.688V147H80.537V146.114H80.4858C80.4176 146.256 80.304 146.408 80.1449 146.57C79.9858 146.732 79.7742 146.869 79.51 146.983C79.2458 147.097 78.9233 147.153 78.5426 147.153ZM78.696 146.25C79.0938 146.25 79.429 146.172 79.7017 146.016C79.9773 145.859 80.1847 145.658 80.3239 145.411C80.4659 145.163 80.537 144.903 80.537 144.631V143.71C80.4943 143.761 80.4006 143.808 80.2557 143.851C80.1137 143.891 79.9489 143.926 79.7614 143.957C79.5767 143.986 79.3963 144.011 79.2202 144.034C79.0469 144.054 78.9063 144.071 78.7983 144.085C78.537 144.119 78.2926 144.175 78.0654 144.251C77.8409 144.325 77.6591 144.437 77.5199 144.588C77.3835 144.736 77.3154 144.937 77.3154 145.193C77.3154 145.543 77.4446 145.807 77.7031 145.986C77.9645 146.162 78.2955 146.25 78.696 146.25ZM83.3782 147V140.455H84.3839V143.301H85.0487L87.4009 140.455H88.6964L86.0544 143.608L88.7305 147H87.435L85.2873 144.239H84.3839V147H83.3782ZM90.8292 145.517L93.9826 140.455H95.1417V147H94.136V141.938L90.9997 147H89.8235V140.455H90.8292V145.517Z" fill="#D6D0D0"/>
<rect x="35" y="158.636" width="7.72727" height="7.72727" fill="#D6D0D0"/>
<path d="M54.2443 167.119V166.131H54.7898C55 166.131 55.1762 166.089 55.3182 166.007C55.4631 165.925 55.5824 165.818 55.6762 165.688C55.7727 165.557 55.8523 165.42 55.9148 165.278L56.0512 164.955L53.0341 158.273H54.1762L56.5796 163.693L58.7784 158.273H59.9034L56.8864 165.585C56.7671 165.858 56.6307 166.111 56.4773 166.344C56.3267 166.577 56.1208 166.764 55.8594 166.906C55.6009 167.048 55.25 167.119 54.8068 167.119H54.2443ZM60.6556 167V160.455H61.6612V163.301H62.326L64.6783 160.455H65.9737L63.3317 163.608L66.0078 167H64.7124L62.5647 164.239H61.6612V167H60.6556ZM67.1009 169.455V160.455H68.0725V161.494H68.1918C68.2656 161.381 68.3679 161.236 68.4986 161.06C68.6321 160.881 68.8225 160.722 69.0696 160.582C69.3196 160.44 69.6577 160.369 70.0838 160.369C70.635 160.369 71.1208 160.507 71.5412 160.783C71.9617 161.058 72.2898 161.449 72.5256 161.955C72.7614 162.46 72.8793 163.057 72.8793 163.744C72.8793 164.438 72.7614 165.038 72.5256 165.547C72.2898 166.053 71.9631 166.445 71.5455 166.723C71.1279 166.999 70.6463 167.136 70.1009 167.136C69.6804 167.136 69.3438 167.067 69.0909 166.928C68.8381 166.786 68.6435 166.625 68.5071 166.446C68.3708 166.264 68.2656 166.114 68.1918 165.994H68.1066V169.455H67.1009ZM68.0895 163.727C68.0895 164.222 68.162 164.658 68.3068 165.036C68.4517 165.411 68.6634 165.705 68.9418 165.918C69.2202 166.128 69.5611 166.233 69.9645 166.233C70.385 166.233 70.7358 166.122 71.0171 165.901C71.3012 165.676 71.5142 165.375 71.6563 164.997C71.8012 164.616 71.8736 164.193 71.8736 163.727C71.8736 163.267 71.8026 162.852 71.6605 162.483C71.5213 162.111 71.3097 161.817 71.0256 161.601C70.7443 161.382 70.3906 161.273 69.9645 161.273C69.5554 161.273 69.2117 161.376 68.9333 161.584C68.6549 161.788 68.4446 162.075 68.3026 162.445C68.1605 162.811 68.0895 163.239 68.0895 163.727ZM76.3395 167.153C75.9247 167.153 75.5483 167.075 75.2102 166.919C74.8722 166.76 74.6037 166.531 74.4049 166.233C74.206 165.932 74.1066 165.568 74.1066 165.142C74.1066 164.767 74.1804 164.463 74.3281 164.23C74.4759 163.994 74.6733 163.81 74.9205 163.676C75.1676 163.543 75.4404 163.443 75.7387 163.378C76.0398 163.31 76.3424 163.256 76.6463 163.216C77.0441 163.165 77.3665 163.126 77.6137 163.101C77.8637 163.072 78.0455 163.026 78.1591 162.96C78.2756 162.895 78.3338 162.781 78.3338 162.619V162.585C78.3338 162.165 78.2188 161.838 77.9887 161.605C77.7614 161.372 77.4162 161.256 76.9531 161.256C76.473 161.256 76.0966 161.361 75.8239 161.571C75.5512 161.781 75.3594 162.006 75.2486 162.244L74.2941 161.903C74.4645 161.506 74.6918 161.196 74.9759 160.974C75.2628 160.75 75.5753 160.594 75.9134 160.506C76.2543 160.415 76.5895 160.369 76.9191 160.369C77.1293 160.369 77.3708 160.395 77.6435 160.446C77.9191 160.494 78.1847 160.595 78.4404 160.749C78.6989 160.902 78.9134 161.134 79.0838 161.443C79.2543 161.753 79.3395 162.168 79.3395 162.688V167H78.3338V166.114H78.2827C78.2145 166.256 78.1009 166.408 77.9418 166.57C77.7827 166.732 77.571 166.869 77.3068 166.983C77.0426 167.097 76.7202 167.153 76.3395 167.153ZM76.4929 166.25C76.8906 166.25 77.2259 166.172 77.4986 166.016C77.7742 165.859 77.9816 165.658 78.1208 165.411C78.2628 165.163 78.3338 164.903 78.3338 164.631V163.71C78.2912 163.761 78.1975 163.808 78.0526 163.851C77.9105 163.891 77.7458 163.926 77.5583 163.957C77.3736 163.986 77.1932 164.011 77.0171 164.034C76.8438 164.054 76.7031 164.071 76.5952 164.085C76.3338 164.119 76.0895 164.175 75.8622 164.251C75.6378 164.325 75.456 164.437 75.3168 164.588C75.1804 164.736 75.1122 164.937 75.1122 165.193C75.1122 165.543 75.2415 165.807 75.5 165.986C75.7614 166.162 76.0924 166.25 76.4929 166.25ZM81.1751 160.455H82.1808V166.062H84.6524V160.455H85.658V166.062H88.1296V160.455H89.1353V167H81.1751V160.455ZM93.7163 167.136C93.0856 167.136 92.5416 166.997 92.0842 166.719C91.6296 166.438 91.2788 166.045 91.0316 165.543C90.7873 165.037 90.6652 164.449 90.6652 163.778C90.6652 163.108 90.7873 162.517 91.0316 162.006C91.2788 161.491 91.6225 161.091 92.0629 160.804C92.5061 160.514 93.0231 160.369 93.614 160.369C93.9549 160.369 94.2916 160.426 94.624 160.54C94.9563 160.653 95.2589 160.838 95.5316 161.094C95.8044 161.347 96.0217 161.682 96.1836 162.099C96.3455 162.517 96.4265 163.031 96.4265 163.642V164.068H91.3811V163.199H95.4038C95.4038 162.83 95.3299 162.5 95.1822 162.21C95.0373 161.92 94.8299 161.692 94.56 161.524C94.293 161.357 93.9777 161.273 93.614 161.273C93.2134 161.273 92.8669 161.372 92.5742 161.571C92.2845 161.767 92.0615 162.023 91.9052 162.338C91.749 162.653 91.6708 162.991 91.6708 163.352V163.932C91.6708 164.426 91.7561 164.845 91.9265 165.189C92.0998 165.53 92.3399 165.79 92.6467 165.969C92.9535 166.145 93.31 166.233 93.7163 166.233C93.9805 166.233 94.2191 166.196 94.4322 166.122C94.6481 166.045 94.8342 165.932 94.9904 165.781C95.1467 165.628 95.2674 165.437 95.3527 165.21L96.3242 165.483C96.222 165.812 96.0501 166.102 95.8086 166.352C95.5671 166.599 95.2688 166.793 94.9137 166.932C94.5586 167.068 94.1595 167.136 93.7163 167.136ZM102.337 163.267V164.205H98.7234V163.267H102.337ZM98.962 160.455V167H97.9563V160.455H98.962ZM103.104 160.455V167H102.098V160.455H103.104ZM105.946 165.517L109.1 160.455H110.259V167H109.253V161.938L106.117 167H104.941V160.455H105.946V165.517ZM116.038 167V161.375H114.3C113.908 161.375 113.599 161.466 113.375 161.648C113.151 161.83 113.038 162.08 113.038 162.398C113.038 162.71 113.139 162.956 113.341 163.135C113.545 163.314 113.825 163.403 114.18 163.403H116.294V164.341H114.18C113.737 164.341 113.355 164.263 113.034 164.107C112.713 163.95 112.466 163.727 112.293 163.438C112.119 163.145 112.033 162.798 112.033 162.398C112.033 161.994 112.124 161.648 112.305 161.358C112.487 161.068 112.747 160.845 113.085 160.689C113.426 160.533 113.831 160.455 114.3 160.455H116.993V167H116.038ZM111.675 167L113.533 163.744H114.624L112.766 167H111.675Z" fill="#D6D0D0"/>
<rect x="35" y="178.636" width="7.72727" height="7.72727" fill="#D6D0D0"/>
<path d="M60.8068 181H59.75C59.6875 180.696 59.5781 180.429 59.4219 180.199C59.2685 179.969 59.081 179.776 58.8594 179.619C58.6406 179.46 58.3977 179.341 58.1307 179.261C57.8637 179.182 57.5852 179.142 57.2955 179.142C56.7671 179.142 56.2884 179.276 55.8594 179.543C55.4333 179.81 55.0938 180.203 54.8409 180.723C54.5909 181.243 54.4659 181.881 54.4659 182.636C54.4659 183.392 54.5909 184.03 54.8409 184.55C55.0938 185.07 55.4333 185.463 55.8594 185.73C56.2884 185.997 56.7671 186.131 57.2955 186.131C57.5852 186.131 57.8637 186.091 58.1307 186.011C58.3977 185.932 58.6406 185.814 58.8594 185.658C59.081 185.499 59.2685 185.304 59.4219 185.074C59.5781 184.841 59.6875 184.574 59.75 184.273H60.8068C60.7273 184.719 60.5824 185.118 60.3722 185.47C60.162 185.822 59.9006 186.122 59.5881 186.369C59.2756 186.614 58.9247 186.8 58.5355 186.928C58.1492 187.055 57.7358 187.119 57.2955 187.119C56.5512 187.119 55.8892 186.938 55.3097 186.574C54.7301 186.21 54.2742 185.693 53.9418 185.023C53.6094 184.352 53.4432 183.557 53.4432 182.636C53.4432 181.716 53.6094 180.92 53.9418 180.25C54.2742 179.58 54.7301 179.062 55.3097 178.699C55.8892 178.335 56.5512 178.153 57.2955 178.153C57.7358 178.153 58.1492 178.217 58.5355 178.345C58.9247 178.473 59.2756 178.661 59.5881 178.908C59.9006 179.152 60.162 179.45 60.3722 179.803C60.5824 180.152 60.7273 180.551 60.8068 181ZM62.0032 181.392V180.455H67.3214V181.392H65.1737V187H64.168V181.392H62.0032ZM70.3747 187.153C69.9599 187.153 69.5835 187.075 69.2454 186.919C68.9073 186.76 68.6389 186.531 68.44 186.233C68.2411 185.932 68.1417 185.568 68.1417 185.142C68.1417 184.767 68.2156 184.463 68.3633 184.23C68.511 183.994 68.7085 183.81 68.9556 183.676C69.2028 183.543 69.4755 183.443 69.7738 183.378C70.075 183.31 70.3775 183.256 70.6815 183.216C71.0792 183.165 71.4017 183.126 71.6488 183.101C71.8988 183.072 72.0806 183.026 72.1943 182.96C72.3107 182.895 72.369 182.781 72.369 182.619V182.585C72.369 182.165 72.2539 181.838 72.0238 181.605C71.7965 181.372 71.4514 181.256 70.9883 181.256C70.5082 181.256 70.1318 181.361 69.859 181.571C69.5863 181.781 69.3946 182.006 69.2838 182.244L68.3292 181.903C68.4997 181.506 68.7269 181.196 69.011 180.974C69.298 180.75 69.6105 180.594 69.9485 180.506C70.2894 180.415 70.6247 180.369 70.9542 180.369C71.1644 180.369 71.4059 180.395 71.6786 180.446C71.9542 180.494 72.2198 180.595 72.4755 180.749C72.734 180.902 72.9485 181.134 73.119 181.443C73.2894 181.753 73.3747 182.168 73.3747 182.688V187H72.369V186.114H72.3178C72.2497 186.256 72.136 186.408 71.9769 186.57C71.8178 186.732 71.6062 186.869 71.342 186.983C71.0778 187.097 70.7553 187.153 70.3747 187.153ZM70.5281 186.25C70.9258 186.25 71.261 186.172 71.5338 186.016C71.8093 185.859 72.0167 185.658 72.1559 185.411C72.298 185.163 72.369 184.903 72.369 184.631V183.71C72.3264 183.761 72.2326 183.808 72.0877 183.851C71.9457 183.891 71.7809 183.926 71.5934 183.957C71.4088 183.986 71.2284 184.011 71.0522 184.034C70.8789 184.054 70.7383 184.071 70.6303 184.085C70.369 184.119 70.1247 184.175 69.8974 184.251C69.673 184.325 69.4911 184.437 69.3519 184.588C69.2156 184.736 69.1474 184.937 69.1474 185.193C69.1474 185.543 69.2767 185.807 69.5352 185.986C69.7965 186.162 70.1275 186.25 70.5281 186.25ZM74.3196 181.392V180.455H79.6378V181.392H77.4901V187H76.4844V181.392H74.3196ZM81.9741 182.824H83.8491C84.6161 182.824 85.2028 183.018 85.609 183.408C86.0153 183.797 86.2184 184.29 86.2184 184.886C86.2184 185.278 86.1275 185.635 85.9457 185.956C85.7639 186.274 85.4968 186.528 85.1446 186.719C84.7923 186.906 84.3605 187 83.8491 187H81.1048V180.455H82.1105V186.062H83.8491C84.2468 186.062 84.5735 185.957 84.8292 185.747C85.0849 185.537 85.2127 185.267 85.2127 184.938C85.2127 184.591 85.0849 184.308 84.8292 184.089C84.5735 183.871 84.2468 183.761 83.8491 183.761H81.9741V182.824ZM88.755 185.517L91.9084 180.455H93.0675V187H92.0618V181.938L88.9254 187H87.7493V180.455H88.755V185.517Z" fill="#D6D0D0"/>
<rect x="35" y="198.636" width="7.72727" height="7.72727" fill="#D6D0D0"/>
<path d="M60.3125 198.273V207H59.2557V199.21H54.858V207H53.8012V198.273H60.3125ZM62.3079 209.455V200.455H63.2795V201.494H63.3988C63.4727 201.381 63.575 201.236 63.7056 201.06C63.8392 200.881 64.0295 200.722 64.2767 200.582C64.5267 200.44 64.8647 200.369 65.2909 200.369C65.842 200.369 66.3278 200.507 66.7482 200.783C67.1687 201.058 67.4968 201.449 67.7326 201.955C67.9684 202.46 68.0863 203.057 68.0863 203.744C68.0863 204.438 67.9684 205.038 67.7326 205.547C67.4968 206.053 67.1701 206.445 66.7525 206.723C66.3349 206.999 65.8534 207.136 65.3079 207.136C64.8875 207.136 64.5508 207.067 64.298 206.928C64.0451 206.786 63.8505 206.625 63.7142 206.446C63.5778 206.264 63.4727 206.114 63.3988 205.994H63.3136V209.455H62.3079ZM63.2965 203.727C63.2965 204.222 63.369 204.658 63.5139 205.036C63.6588 205.411 63.8704 205.705 64.1488 205.918C64.4272 206.128 64.7681 206.233 65.1715 206.233C65.592 206.233 65.9428 206.122 66.2241 205.901C66.5082 205.676 66.7213 205.375 66.8633 204.997C67.0082 204.616 67.0806 204.193 67.0806 203.727C67.0806 203.267 67.0096 202.852 66.8676 202.483C66.7284 202.111 66.5167 201.817 66.2326 201.601C65.9514 201.382 65.5977 201.273 65.1715 201.273C64.7625 201.273 64.4187 201.376 64.1403 201.584C63.8619 201.788 63.6517 202.075 63.5096 202.445C63.3676 202.811 63.2965 203.239 63.2965 203.727ZM72.2795 207.136C71.6886 207.136 71.1701 206.996 70.7241 206.714C70.2809 206.433 69.9343 206.04 69.6843 205.534C69.4372 205.028 69.3136 204.437 69.3136 203.761C69.3136 203.08 69.4372 202.484 69.6843 201.976C69.9343 201.467 70.2809 201.072 70.7241 200.791C71.1701 200.51 71.6886 200.369 72.2795 200.369C72.8704 200.369 73.3875 200.51 73.8306 200.791C74.2767 201.072 74.6232 201.467 74.8704 201.976C75.1204 202.484 75.2454 203.08 75.2454 203.761C75.2454 204.437 75.1204 205.028 74.8704 205.534C74.6232 206.04 74.2767 206.433 73.8306 206.714C73.3875 206.996 72.8704 207.136 72.2795 207.136ZM72.2795 206.233C72.7284 206.233 73.0977 206.118 73.3875 205.888C73.6772 205.658 73.8917 205.355 74.0309 204.98C74.1701 204.605 74.2397 204.199 74.2397 203.761C74.2397 203.324 74.1701 202.916 74.0309 202.538C73.8917 202.161 73.6772 201.855 73.3875 201.622C73.0977 201.389 72.7284 201.273 72.2795 201.273C71.8306 201.273 71.4613 201.389 71.1715 201.622C70.8818 201.855 70.6673 202.161 70.5281 202.538C70.3889 202.916 70.3193 203.324 70.3193 203.761C70.3193 204.199 70.3889 204.605 70.5281 204.98C70.6673 205.355 70.8818 205.658 71.1715 205.888C71.4613 206.118 71.8306 206.233 72.2795 206.233ZM81.826 200.455V207H80.8203V200.455H81.826ZM81.434 203.574V204.511C81.2067 204.597 80.9808 204.672 80.7564 204.737C80.532 204.8 80.2962 204.849 80.049 204.886C79.8019 204.92 79.5306 204.938 79.2351 204.938C78.4936 204.938 77.8985 204.737 77.4496 204.337C77.0036 203.936 76.7806 203.335 76.7806 202.534V200.438H77.7862V202.534C77.7862 202.869 77.8502 203.145 77.978 203.361C78.1058 203.577 78.2791 203.737 78.4979 203.842C78.7166 203.947 78.9624 204 79.2351 204C79.6612 204 80.0462 203.962 80.3899 203.885C80.7365 203.805 81.0845 203.702 81.434 203.574ZM86.4155 207.136C85.7848 207.136 85.2408 206.997 84.7834 206.719C84.3289 206.438 83.978 206.045 83.7308 205.543C83.4865 205.037 83.3644 204.449 83.3644 203.778C83.3644 203.108 83.4865 202.517 83.7308 202.006C83.978 201.491 84.3218 201.091 84.7621 200.804C85.2053 200.514 85.7223 200.369 86.3132 200.369C86.6541 200.369 86.9908 200.426 87.3232 200.54C87.6556 200.653 87.9581 200.838 88.2308 201.094C88.5036 201.347 88.7209 201.682 88.8828 202.099C89.0448 202.517 89.1257 203.031 89.1257 203.642V204.068H84.0803V203.199H88.103C88.103 202.83 88.0291 202.5 87.8814 202.21C87.7365 201.92 87.5291 201.692 87.2593 201.524C86.9922 201.357 86.6769 201.273 86.3132 201.273C85.9127 201.273 85.5661 201.372 85.2735 201.571C84.9837 201.767 84.7607 202.023 84.6044 202.338C84.4482 202.653 84.3701 202.991 84.3701 203.352V203.932C84.3701 204.426 84.4553 204.845 84.6257 205.189C84.799 205.53 85.0391 205.79 85.3459 205.969C85.6527 206.145 86.0093 206.233 86.4155 206.233C86.6797 206.233 86.9183 206.196 87.1314 206.122C87.3473 206.045 87.5334 205.932 87.6897 205.781C87.8459 205.628 87.9666 205.437 88.0519 205.21L89.0235 205.483C88.9212 205.812 88.7493 206.102 88.5078 206.352C88.2664 206.599 87.9681 206.793 87.6129 206.932C87.2578 207.068 86.8587 207.136 86.4155 207.136ZM93.3999 207.136C92.7692 207.136 92.2252 206.997 91.7678 206.719C91.3132 206.438 90.9624 206.045 90.7152 205.543C90.4709 205.037 90.3487 204.449 90.3487 203.778C90.3487 203.108 90.4709 202.517 90.7152 202.006C90.9624 201.491 91.3061 201.091 91.7465 200.804C92.1897 200.514 92.7067 200.369 93.2976 200.369C93.6385 200.369 93.9752 200.426 94.3076 200.54C94.6399 200.653 94.9425 200.838 95.2152 201.094C95.4879 201.347 95.7053 201.682 95.8672 202.099C96.0291 202.517 96.1101 203.031 96.1101 203.642V204.068H91.0647V203.199H95.0874C95.0874 202.83 95.0135 202.5 94.8658 202.21C94.7209 201.92 94.5135 201.692 94.2436 201.524C93.9766 201.357 93.6612 201.273 93.2976 201.273C92.897 201.273 92.5504 201.372 92.2578 201.571C91.9681 201.767 91.7451 202.023 91.5888 202.338C91.4326 202.653 91.3544 202.991 91.3544 203.352V203.932C91.3544 204.426 91.4397 204.845 91.6101 205.189C91.7834 205.53 92.0235 205.79 92.3303 205.969C92.6371 206.145 92.9936 206.233 93.3999 206.233C93.6641 206.233 93.9027 206.196 94.1158 206.122C94.3317 206.045 94.5178 205.932 94.674 205.781C94.8303 205.628 94.951 205.437 95.0362 205.21L96.0078 205.483C95.9056 205.812 95.7337 206.102 95.4922 206.352C95.2507 206.599 94.9524 206.793 94.5973 206.932C94.2422 207.068 93.8431 207.136 93.3999 207.136Z" fill="#D6D0D0"/>
<rect x="157.5" y="40.5" width="322" height="194" stroke="#2B495D"/>
<rect width="450" height="15" transform="translate(30 240)" fill="#7B808D"/>
<rect x="30" y="240" width="30" height="10" fill="#833233"/>
<rect x="70" y="240" width="30" height="5" fill="#2B495D"/>
<rect x="110" y="240" width="30" height="5" fill="#2B495D"/>
<rect x="150" y="240" width="30" height="5" fill="#2B495D"/>
<rect x="70" y="250" width="30" height="5" fill="#2B495D"/>
<rect x="110" y="250" width="30" height="5" fill="#2B495D"/>
<rect x="150" y="250" width="30" height="5" fill="#2B495D"/>
<rect x="415" y="240" width="15" height="10" fill="#2B495D"/>
<rect x="440" y="240" width="15" height="10" fill="#2B495D"/>
<rect x="465" y="240" width="15" height="10" fill="#2B495D"/>
</svg>
