<svg width="510" height="207" viewBox="0 0 510 207" fill="none" xmlns="http://www.w3.org/2000/svg">
<rect width="510" height="205.636" transform="translate(0 0.934082)" fill="#9D9797"/>
<rect x="4.63647" y="5.57056" width="81.0909" height="43.5455" rx="4.63636" fill="#757575"/>
<path d="M27.2791 19.6697V34.8433H25.0638V19.6697H27.2791ZM35.0529 35.0729C33.986 35.0729 33.055 34.8284 32.2597 34.3395C31.4645 33.8505 30.8471 33.1664 30.4075 32.2872C29.9679 31.408 29.7481 30.3806 29.7481 29.205C29.7481 28.0245 29.9679 26.9922 30.4075 26.1081C30.8471 25.224 31.4645 24.5374 32.2597 24.0484C33.055 23.5594 33.986 23.3149 35.0529 23.3149C36.1198 23.3149 37.0509 23.5594 37.8461 24.0484C38.6413 24.5374 39.2587 25.224 39.6983 26.1081C40.1379 26.9922 40.3577 28.0245 40.3577 29.205C40.3577 30.3806 40.1379 31.408 39.6983 32.2872C39.2587 33.1664 38.6413 33.8505 37.8461 34.3395C37.0509 34.8284 36.1198 35.0729 35.0529 35.0729ZM35.0603 33.2133C35.7518 33.2133 36.3248 33.0305 36.7792 32.665C37.2336 32.2995 37.5695 31.813 37.7868 31.2055C38.0091 30.5979 38.1202 29.9287 38.1202 29.1976C38.1202 28.4716 38.0091 27.8047 37.7868 27.1972C37.5695 26.5847 37.2336 26.0933 36.7792 25.7228C36.3248 25.3524 35.7518 25.1672 35.0603 25.1672C34.3639 25.1672 33.786 25.3524 33.3266 25.7228C32.8722 26.0933 32.5339 26.5847 32.3116 27.1972C32.0943 27.8047 31.9856 28.4716 31.9856 29.1976C31.9856 29.9287 32.0943 30.5979 32.3116 31.2055C32.5339 31.813 32.8722 32.2995 33.3266 32.665C33.786 33.0305 34.3639 33.2133 35.0603 33.2133ZM47.6018 39.3479C46.6979 39.3479 45.92 39.2294 45.268 38.9923C44.621 38.7552 44.0925 38.4415 43.6825 38.0513C43.2725 37.6611 42.9663 37.2339 42.7638 36.7696L44.6679 35.9842C44.8012 36.2016 44.9791 36.4312 45.2013 36.6733C45.4285 36.9202 45.7348 37.1302 46.12 37.303C46.5102 37.4759 47.0116 37.5624 47.6241 37.5624C48.4637 37.5624 49.1577 37.3574 49.706 36.9474C50.2542 36.5424 50.5284 35.8953 50.5284 35.0063V32.7688H50.3876C50.2542 33.0108 50.0616 33.28 49.8097 33.5763C49.5627 33.8727 49.2219 34.1295 48.7873 34.3469C48.3526 34.5642 47.7871 34.6729 47.0906 34.6729C46.1917 34.6729 45.3816 34.4629 44.6605 34.0431C43.9443 33.6183 43.3763 32.9935 42.9564 32.1686C42.5415 31.3388 42.3341 30.3189 42.3341 29.1087C42.3341 27.8986 42.539 26.8613 42.949 25.997C43.3639 25.1326 43.9319 24.4707 44.6531 24.0114C45.3742 23.5471 46.1917 23.3149 47.1054 23.3149C47.8118 23.3149 48.3822 23.4335 48.8169 23.6705C49.2516 23.9027 49.5899 24.1744 49.8319 24.4855C50.0789 24.7967 50.2691 25.0708 50.4024 25.3079H50.5654V23.4631H52.7362V35.0952C52.7362 36.0731 52.509 36.8758 52.0546 37.5031C51.6002 38.1304 50.9853 38.5947 50.2098 38.896C49.4393 39.1973 48.5699 39.3479 47.6018 39.3479ZM47.5796 32.8354C48.2168 32.8354 48.7552 32.6873 49.1948 32.3909C49.6393 32.0896 49.9752 31.6599 50.2024 31.1017C50.4345 30.5387 50.5506 29.8644 50.5506 29.0791C50.5506 28.3135 50.437 27.6393 50.2098 27.0564C49.9826 26.4736 49.6492 26.0192 49.2096 25.6932C48.77 25.3623 48.2267 25.1968 47.5796 25.1968C46.9128 25.1968 46.3571 25.3697 45.9126 25.7154C45.4681 26.0562 45.1322 26.5205 44.905 27.1083C44.6827 27.6961 44.5716 28.353 44.5716 29.0791C44.5716 29.8249 44.6852 30.4794 44.9124 31.0425C45.1396 31.6055 45.4755 32.0451 45.92 32.3613C46.3695 32.6774 46.9227 32.8354 47.5796 32.8354ZM60.5008 35.0729C59.4339 35.0729 58.5029 34.8284 57.7077 34.3395C56.9124 33.8505 56.295 33.1664 55.8554 32.2872C55.4158 31.408 55.196 30.3806 55.196 29.205C55.196 28.0245 55.4158 26.9922 55.8554 26.1081C56.295 25.224 56.9124 24.5374 57.7077 24.0484C58.5029 23.5594 59.4339 23.3149 60.5008 23.3149C61.5677 23.3149 62.4988 23.5594 63.294 24.0484C64.0892 24.5374 64.7067 25.224 65.1463 26.1081C65.5859 26.9922 65.8057 28.0245 65.8057 29.205C65.8057 30.3806 65.5859 31.408 65.1463 32.2872C64.7067 33.1664 64.0892 33.8505 63.294 34.3395C62.4988 34.8284 61.5677 35.0729 60.5008 35.0729ZM60.5082 33.2133C61.1998 33.2133 61.7727 33.0305 62.2271 32.665C62.6815 32.2995 63.0174 31.813 63.2347 31.2055C63.457 30.5979 63.5681 29.9287 63.5681 29.1976C63.5681 28.4716 63.457 27.8047 63.2347 27.1972C63.0174 26.5847 62.6815 26.0933 62.2271 25.7228C61.7727 25.3524 61.1998 25.1672 60.5082 25.1672C59.8118 25.1672 59.2339 25.3524 58.7746 25.7228C58.3201 26.0933 57.9818 26.5847 57.7595 27.1972C57.5422 27.8047 57.4335 28.4716 57.4335 29.1976C57.4335 29.9287 57.5422 30.5979 57.7595 31.2055C57.9818 31.813 58.3201 32.2995 58.7746 32.665C59.2339 33.0305 59.8118 33.2133 60.5082 33.2133Z" fill="white"/>
<rect x="399.273" y="5.57056" width="106.091" height="43.5455" rx="4.63636" fill="#757575"/>
<path d="M428.31 26.2415L426.302 26.5971C426.218 26.3402 426.084 26.0957 425.902 25.8636C425.724 25.6315 425.482 25.4413 425.176 25.2931C424.869 25.1449 424.487 25.0708 424.027 25.0708C423.4 25.0708 422.876 25.2116 422.457 25.4932C422.037 25.7698 421.827 26.1279 421.827 26.5675C421.827 26.9478 421.968 27.254 422.249 27.4862C422.531 27.7183 422.985 27.9085 423.612 28.0567L425.42 28.4716C426.467 28.7136 427.248 29.0865 427.761 29.5903C428.275 30.0941 428.532 30.7486 428.532 31.5537C428.532 32.2353 428.334 32.8428 427.939 33.3763C427.549 33.9048 427.003 34.3197 426.302 34.621C425.605 34.9223 424.798 35.0729 423.879 35.0729C422.605 35.0729 421.565 34.8013 420.76 34.258C419.955 33.7097 419.461 32.9317 419.278 31.9241L421.419 31.5981C421.553 32.1563 421.827 32.5786 422.242 32.8651C422.657 33.1466 423.197 33.2874 423.864 33.2874C424.59 33.2874 425.171 33.1367 425.605 32.8354C426.04 32.5292 426.257 32.1563 426.257 31.7167C426.257 31.361 426.124 31.0622 425.857 30.8202C425.595 30.5782 425.193 30.3954 424.65 30.2719L422.723 29.8496C421.661 29.6076 420.876 29.2223 420.367 28.6938C419.863 28.1653 419.611 27.496 419.611 26.686C419.611 26.0142 419.799 25.4265 420.175 24.9227C420.55 24.4189 421.069 24.0262 421.73 23.7446C422.392 23.4582 423.151 23.3149 424.005 23.3149C425.235 23.3149 426.203 23.5816 426.909 24.1151C427.616 24.6436 428.082 25.3524 428.31 26.2415ZM438.177 30.1238V23.4631H440.399V34.8433H438.221V32.8725H438.102C437.841 33.48 437.421 33.9863 436.843 34.3913C436.27 34.7914 435.556 34.9914 434.702 34.9914C433.971 34.9914 433.324 34.8309 432.761 34.5099C432.202 34.1839 431.763 33.7023 431.442 33.0651C431.126 32.4279 430.968 31.6401 430.968 30.7017V23.4631H433.183V30.4349C433.183 31.2104 433.398 31.8278 433.827 32.2872C434.257 32.7465 434.815 32.9762 435.502 32.9762C435.917 32.9762 436.329 32.8725 436.739 32.665C437.154 32.4576 437.497 32.1439 437.769 31.7241C438.046 31.3042 438.181 30.7708 438.177 30.1238ZM443.554 34.8433V19.6697H445.769V25.3079H445.902C446.031 25.0708 446.216 24.7967 446.458 24.4855C446.7 24.1744 447.036 23.9027 447.465 23.6705C447.895 23.4335 448.463 23.3149 449.17 23.3149C450.088 23.3149 450.908 23.5471 451.629 24.0114C452.35 24.4757 452.916 25.1449 453.326 26.0192C453.741 26.8934 453.948 27.9455 453.948 29.1754C453.948 30.4053 453.743 31.4598 453.333 32.339C452.923 33.2133 452.36 33.8875 451.644 34.3617C450.928 34.8309 450.11 35.0655 449.192 35.0655C448.5 35.0655 447.935 34.9495 447.495 34.7173C447.06 34.4852 446.72 34.2135 446.473 33.9023C446.226 33.5911 446.036 33.3145 445.902 33.0725H445.717V34.8433H443.554ZM445.724 29.1532C445.724 29.9533 445.84 30.6547 446.073 31.2573C446.305 31.8599 446.641 32.3316 447.08 32.6724C447.52 33.0083 448.058 33.1762 448.695 33.1762C449.357 33.1762 449.91 33.0009 450.355 32.6502C450.8 32.2946 451.135 31.813 451.363 31.2055C451.595 30.5979 451.711 29.9138 451.711 29.1532C451.711 28.4024 451.597 27.7282 451.37 27.1305C451.148 26.5329 450.812 26.0612 450.362 25.7154C449.918 25.3697 449.362 25.1968 448.695 25.1968C448.053 25.1968 447.51 25.3623 447.065 25.6932C446.626 26.0241 446.292 26.486 446.065 27.0787C445.838 27.6714 445.724 28.3629 445.724 29.1532ZM456.436 34.8433V23.4631H458.562V25.3153H458.703C458.94 24.688 459.328 24.1991 459.866 23.8484C460.405 23.4927 461.049 23.3149 461.8 23.3149C462.561 23.3149 463.198 23.4927 463.711 23.8484C464.23 24.204 464.613 24.693 464.86 25.3153H464.978C465.25 24.7078 465.682 24.2237 466.275 23.8632C466.868 23.4977 467.574 23.3149 468.394 23.3149C469.426 23.3149 470.268 23.6384 470.92 24.2855C471.577 24.9325 471.906 25.9081 471.906 27.212V34.8433H469.691V27.4195C469.691 26.649 469.481 26.0908 469.061 25.7451C468.641 25.3993 468.14 25.2264 467.557 25.2264C466.836 25.2264 466.275 25.4487 465.875 25.8932C465.475 26.3328 465.275 26.8984 465.275 27.5899V34.8433H463.067V27.2787C463.067 26.6613 462.874 26.1649 462.489 25.7895C462.104 25.4141 461.602 25.2264 460.985 25.2264C460.565 25.2264 460.177 25.3376 459.822 25.5598C459.471 25.7772 459.187 26.0809 458.97 26.4711C458.757 26.8613 458.651 27.3133 458.651 27.827V34.8433H456.436ZM474.875 34.8433V23.4631H477.09V34.8433H474.875ZM475.994 21.7072C475.608 21.7072 475.277 21.5788 475.001 21.3219C474.729 21.0601 474.593 20.7489 474.593 20.3884C474.593 20.0229 474.729 19.7117 475.001 19.4548C475.277 19.1931 475.608 19.0622 475.994 19.0622C476.379 19.0622 476.707 19.1931 476.979 19.4548C477.256 19.7117 477.394 20.0229 477.394 20.3884C477.394 20.7489 477.256 21.0601 476.979 21.3219C476.707 21.5788 476.379 21.7072 475.994 21.7072ZM485.383 23.4631V25.2412H479.167V23.4631H485.383ZM480.834 20.7366H483.049V31.5018C483.049 31.9315 483.113 32.2551 483.242 32.4724C483.37 32.6848 483.535 32.8305 483.738 32.9095C483.945 32.9836 484.17 33.0207 484.412 33.0207C484.59 33.0207 484.746 33.0083 484.879 32.9836C485.012 32.9589 485.116 32.9392 485.19 32.9243L485.59 34.7544C485.462 34.8037 485.279 34.8531 485.042 34.9025C484.805 34.9569 484.508 34.9865 484.153 34.9914C483.57 35.0013 483.027 34.8976 482.523 34.6803C482.019 34.4629 481.612 34.1271 481.3 33.6726C480.989 33.2182 480.834 32.6477 480.834 31.9612V20.7366Z" fill="white"/>
<rect width="500.727" height="100" transform="translate(4.63647 53.7522)" fill="#C4C4C4"/>
<rect x="219.727" y="86.6157" width="70.5455" height="34.2727" rx="4.63636" fill="#691515"/>
<path d="M231.117 111.252V96.0786H236.674C237.751 96.0786 238.642 96.2565 239.349 96.6121C240.055 96.9628 240.583 97.4394 240.934 98.042C241.285 98.6397 241.46 99.3139 241.46 100.065C241.46 100.697 241.344 101.23 241.112 101.665C240.88 102.095 240.569 102.44 240.178 102.702C239.793 102.959 239.368 103.147 238.904 103.265V103.414C239.408 103.438 239.899 103.601 240.378 103.903C240.862 104.199 241.263 104.621 241.579 105.169C241.895 105.718 242.053 106.385 242.053 107.17C242.053 107.945 241.87 108.642 241.505 109.259C241.144 109.872 240.586 110.358 239.83 110.719C239.074 111.074 238.109 111.252 236.933 111.252H231.117ZM233.407 109.289H236.711C237.808 109.289 238.593 109.076 239.067 108.652C239.541 108.227 239.778 107.696 239.778 107.059C239.778 106.58 239.657 106.14 239.415 105.74C239.173 105.34 238.827 105.021 238.378 104.784C237.933 104.547 237.405 104.429 236.792 104.429H233.407V109.289ZM233.407 102.643H236.474C236.988 102.643 237.449 102.544 237.859 102.347C238.274 102.149 238.603 101.872 238.845 101.517C239.092 101.156 239.215 100.731 239.215 100.242C239.215 99.6152 238.995 99.0892 238.556 98.6644C238.116 98.2396 237.442 98.0272 236.533 98.0272H233.407V102.643ZM249.384 111.482C248.317 111.482 247.386 111.237 246.591 110.748C245.796 110.259 245.178 109.575 244.739 108.696C244.299 107.817 244.079 106.79 244.079 105.614C244.079 104.433 244.299 103.401 244.739 102.517C245.178 101.633 245.796 100.946 246.591 100.457C247.386 99.9683 248.317 99.7239 249.384 99.7239C250.451 99.7239 251.382 99.9683 252.177 100.457C252.972 100.946 253.59 101.633 254.029 102.517C254.469 103.401 254.689 104.433 254.689 105.614C254.689 106.79 254.469 107.817 254.029 108.696C253.59 109.575 252.972 110.259 252.177 110.748C251.382 111.237 250.451 111.482 249.384 111.482ZM249.391 109.622C250.083 109.622 250.656 109.439 251.11 109.074C251.565 108.708 251.901 108.222 252.118 107.614C252.34 107.007 252.451 106.338 252.451 105.607C252.451 104.88 252.34 104.214 252.118 103.606C251.901 102.994 251.565 102.502 251.11 102.132C250.656 101.761 250.083 101.576 249.391 101.576C248.695 101.576 248.117 101.761 247.658 102.132C247.203 102.502 246.865 102.994 246.643 103.606C246.425 104.214 246.317 104.88 246.317 105.607C246.317 106.338 246.425 107.007 246.643 107.614C246.865 108.222 247.203 108.708 247.658 109.074C248.117 109.439 248.695 109.622 249.391 109.622ZM261.422 111.474C260.503 111.474 259.683 111.24 258.962 110.771C258.246 110.296 257.683 109.622 257.273 108.748C256.868 107.869 256.665 106.814 256.665 105.584C256.665 104.354 256.87 103.302 257.28 102.428C257.695 101.554 258.263 100.885 258.984 100.42C259.705 99.956 260.523 99.7239 261.437 99.7239C262.143 99.7239 262.711 99.8424 263.141 100.079C263.575 100.312 263.911 100.583 264.148 100.894C264.39 101.206 264.578 101.48 264.711 101.717H264.845V96.0786H267.06V111.252H264.897V109.481H264.711C264.578 109.723 264.385 110 264.133 110.311C263.886 110.622 263.546 110.894 263.111 111.126C262.676 111.358 262.113 111.474 261.422 111.474ZM261.911 109.585C262.548 109.585 263.086 109.417 263.526 109.081C263.97 108.741 264.306 108.269 264.533 107.666C264.766 107.064 264.882 106.362 264.882 105.562C264.882 104.772 264.768 104.08 264.541 103.488C264.314 102.895 263.98 102.433 263.541 102.102C263.101 101.771 262.558 101.606 261.911 101.606C261.244 101.606 260.688 101.779 260.244 102.124C259.799 102.47 259.463 102.942 259.236 103.539C259.014 104.137 258.903 104.811 258.903 105.562C258.903 106.323 259.016 107.007 259.243 107.614C259.471 108.222 259.807 108.704 260.251 109.059C260.701 109.41 261.254 109.585 261.911 109.585ZM271.622 115.52C271.291 115.52 270.99 115.493 270.718 115.438C270.446 115.389 270.244 115.335 270.111 115.275L270.644 113.46C271.049 113.569 271.41 113.616 271.726 113.601C272.042 113.586 272.321 113.467 272.563 113.245C272.81 113.023 273.027 112.66 273.215 112.156L273.489 111.4L269.325 99.872H271.696L274.578 108.704H274.697L277.579 99.872H279.957L275.267 112.771C275.05 113.364 274.773 113.865 274.437 114.275C274.102 114.69 273.701 115.001 273.237 115.209C272.773 115.416 272.234 115.52 271.622 115.52Z" fill="white"/>
<rect x="66.4272" y="158.389" width="72.0909" height="43.5455" rx="4.63636" fill="#757575"/>
<path d="M88.9402 172.488V187.661H86.7249V172.488H88.9402ZM91.9204 187.661V176.281H94.1357V187.661H91.9204ZM93.0392 174.525C92.6539 174.525 92.323 174.397 92.0464 174.14C91.7747 173.878 91.6389 173.567 91.6389 173.206C91.6389 172.841 91.7747 172.53 92.0464 172.273C92.323 172.011 92.6539 171.88 93.0392 171.88C93.4245 171.88 93.7529 172.011 94.0246 172.273C94.3012 172.53 94.4395 172.841 94.4395 173.206C94.4395 173.567 94.3012 173.878 94.0246 174.14C93.7529 174.397 93.4245 174.525 93.0392 174.525ZM99.3313 180.904V187.661H97.116V176.281H99.2423V178.133H99.3831C99.6449 177.531 100.055 177.047 100.613 176.681C101.176 176.316 101.885 176.133 102.739 176.133C103.515 176.133 104.194 176.296 104.777 176.622C105.36 176.943 105.812 177.422 106.133 178.059C106.454 178.697 106.614 179.484 106.614 180.423V187.661H104.399V180.69C104.399 179.865 104.184 179.22 103.754 178.756C103.325 178.287 102.734 178.052 101.984 178.052C101.47 178.052 101.013 178.163 100.613 178.385C100.218 178.608 99.9042 178.934 99.6721 179.363C99.4449 179.788 99.3313 180.302 99.3313 180.904ZM111.623 183.801L111.608 181.097H111.993L116.527 176.281H119.18L114.008 181.764H113.66L111.623 183.801ZM109.585 187.661V172.488H111.801V187.661H109.585ZM116.772 187.661L112.697 182.253L114.223 180.704L119.491 187.661H116.772Z" fill="white"/>
<rect x="142.691" y="158.389" width="72.0909" height="43.5455" rx="4.63636" fill="#757575"/>
<path d="M165.204 172.488V187.661H162.989V172.488H165.204ZM168.184 187.661V176.281H170.399V187.661H168.184ZM169.303 174.525C168.918 174.525 168.587 174.397 168.31 174.14C168.038 173.878 167.903 173.567 167.903 173.206C167.903 172.841 168.038 172.53 168.31 172.273C168.587 172.011 168.918 171.88 169.303 171.88C169.688 171.88 170.017 172.011 170.288 172.273C170.565 172.53 170.703 172.841 170.703 173.206C170.703 173.567 170.565 173.878 170.288 174.14C170.017 174.397 169.688 174.525 169.303 174.525ZM175.595 180.904V187.661H173.38V176.281H175.506V178.133H175.647C175.909 177.531 176.319 177.047 176.877 176.681C177.44 176.316 178.149 176.133 179.003 176.133C179.779 176.133 180.458 176.296 181.041 176.622C181.623 176.943 182.075 177.422 182.396 178.059C182.717 178.697 182.878 179.484 182.878 180.423V187.661H180.663V180.69C180.663 179.865 180.448 179.22 180.018 178.756C179.588 178.287 178.998 178.052 178.247 178.052C177.734 178.052 177.277 178.163 176.877 178.385C176.482 178.608 176.168 178.934 175.936 179.363C175.709 179.788 175.595 180.302 175.595 180.904ZM187.886 183.801L187.872 181.097H188.257L192.791 176.281H195.444L190.272 181.764H189.924L187.886 183.801ZM185.849 187.661V172.488H188.064V187.661H185.849ZM193.036 187.661L188.961 182.253L190.487 180.704L195.755 187.661H193.036Z" fill="white"/>
<rect x="218.955" y="158.389" width="72.0909" height="43.5455" rx="4.63636" fill="#757575"/>
<path d="M241.468 172.488V187.661H239.252V172.488H241.468ZM244.448 187.661V176.281H246.663V187.661H244.448ZM245.567 174.525C245.181 174.525 244.85 174.397 244.574 174.14C244.302 173.878 244.166 173.567 244.166 173.206C244.166 172.841 244.302 172.53 244.574 172.273C244.85 172.011 245.181 171.88 245.567 171.88C245.952 171.88 246.28 172.011 246.552 172.273C246.829 172.53 246.967 172.841 246.967 173.206C246.967 173.567 246.829 173.878 246.552 174.14C246.28 174.397 245.952 174.525 245.567 174.525ZM251.859 180.904V187.661H249.643V176.281H251.77V178.133H251.91C252.172 177.531 252.582 177.047 253.14 176.681C253.703 176.316 254.412 176.133 255.267 176.133C256.042 176.133 256.721 176.296 257.304 176.622C257.887 176.943 258.339 177.422 258.66 178.059C258.981 178.697 259.142 179.484 259.142 180.423V187.661H256.926V180.69C256.926 179.865 256.711 179.22 256.282 178.756C255.852 178.287 255.262 178.052 254.511 178.052C253.997 178.052 253.54 178.163 253.14 178.385C252.745 178.608 252.432 178.934 252.199 179.363C251.972 179.788 251.859 180.302 251.859 180.904ZM264.15 183.801L264.135 181.097H264.521L269.055 176.281H271.707L266.536 181.764H266.188L264.15 183.801ZM262.113 187.661V172.488H264.328V187.661H262.113ZM269.299 187.661L265.224 182.253L266.751 180.704L272.018 187.661H269.299Z" fill="white"/>
<rect x="295.218" y="158.389" width="72.0909" height="43.5455" rx="4.63636" fill="#757575"/>
<path d="M317.731 172.488V187.661H315.516V172.488H317.731ZM320.711 187.661V176.281H322.927V187.661H320.711ZM321.83 174.525C321.445 174.525 321.114 174.397 320.837 174.14C320.566 173.878 320.43 173.567 320.43 173.206C320.43 172.841 320.566 172.53 320.837 172.273C321.114 172.011 321.445 171.88 321.83 171.88C322.215 171.88 322.544 172.011 322.816 172.273C323.092 172.53 323.231 172.841 323.231 173.206C323.231 173.567 323.092 173.878 322.816 174.14C322.544 174.397 322.215 174.525 321.83 174.525ZM328.122 180.904V187.661H325.907V176.281H328.033V178.133H328.174C328.436 177.531 328.846 177.047 329.404 176.681C329.967 176.316 330.676 176.133 331.53 176.133C332.306 176.133 332.985 176.296 333.568 176.622C334.151 176.943 334.603 177.422 334.924 178.059C335.245 178.697 335.405 179.484 335.405 180.423V187.661H333.19V180.69C333.19 179.865 332.975 179.22 332.545 178.756C332.116 178.287 331.525 178.052 330.775 178.052C330.261 178.052 329.804 178.163 329.404 178.385C329.009 178.608 328.695 178.934 328.463 179.363C328.236 179.788 328.122 180.302 328.122 180.904ZM340.414 183.801L340.399 181.097H340.784L345.318 176.281H347.971L342.799 181.764H342.451L340.414 183.801ZM338.376 187.661V172.488H340.592V187.661H338.376ZM345.563 187.661L341.488 182.253L343.014 180.704L348.282 187.661H345.563Z" fill="white"/>
<rect x="371.482" y="158.389" width="72.0909" height="43.5455" rx="4.63636" fill="#757575"/>
<path d="M393.995 172.488V187.661H391.78V172.488H393.995ZM396.975 187.661V176.281H399.19V187.661H396.975ZM398.094 174.525C397.709 174.525 397.378 174.397 397.101 174.14C396.829 173.878 396.694 173.567 396.694 173.206C396.694 172.841 396.829 172.53 397.101 172.273C397.378 172.011 397.709 171.88 398.094 171.88C398.479 171.88 398.808 172.011 399.079 172.273C399.356 172.53 399.494 172.841 399.494 173.206C399.494 173.567 399.356 173.878 399.079 174.14C398.808 174.397 398.479 174.525 398.094 174.525ZM404.386 180.904V187.661H402.171V176.281H404.297V178.133H404.438C404.7 177.531 405.11 177.047 405.668 176.681C406.231 176.316 406.94 176.133 407.794 176.133C408.57 176.133 409.249 176.296 409.832 176.622C410.414 176.943 410.866 177.422 411.187 178.059C411.508 178.697 411.669 179.484 411.669 180.423V187.661H409.454V180.69C409.454 179.865 409.239 179.22 408.809 178.756C408.379 178.287 407.789 178.052 407.038 178.052C406.525 178.052 406.068 178.163 405.668 178.385C405.273 178.608 404.959 178.934 404.727 179.363C404.5 179.788 404.386 180.302 404.386 180.904ZM416.677 183.801L416.663 181.097H417.048L421.582 176.281H424.235L419.063 181.764H418.715L416.677 183.801ZM414.64 187.661V172.488H416.855V187.661H414.64ZM421.827 187.661L417.752 182.253L419.278 180.704L424.546 187.661H421.827Z" fill="white"/>
</svg>
