<svg width="510" height="271" viewBox="0 0 510 271" fill="none" xmlns="http://www.w3.org/2000/svg">
<rect width="510" height="271" fill="#8988A0"/>
<rect x="30" y="10" width="60" height="20" fill="#7E2A2B"/>
<rect x="400" y="10" width="20" height="20" fill="#2B495D"/>
<rect x="430" y="10" width="20" height="20" fill="#2B495D"/>
<rect x="460" y="10" width="20" height="20" fill="#2B495D"/>
<rect width="165" height="28" transform="translate(30 40)" fill="#2B495D"/>
<path d="M36.321 59V48.0909H40.1349C40.8949 48.0909 41.5217 48.2223 42.0153 48.4851C42.5089 48.7443 42.8764 49.0941 43.1179 49.5344C43.3594 49.9712 43.4801 50.456 43.4801 50.9886C43.4801 51.4574 43.3967 51.8445 43.2298 52.1499C43.0664 52.4553 42.8498 52.6967 42.5799 52.8743C42.3136 53.0518 42.0241 53.1832 41.7116 53.2685V53.375C42.0455 53.3963 42.381 53.5135 42.7184 53.7266C43.0558 53.9396 43.3381 54.245 43.5653 54.6428C43.7926 55.0405 43.9062 55.527 43.9062 56.1023C43.9062 56.6491 43.782 57.141 43.5334 57.5778C43.2848 58.0146 42.8924 58.3608 42.3562 58.6165C41.82 58.8722 41.1222 59 40.2628 59H36.321ZM37.642 57.8281H40.2628C41.1257 57.8281 41.7383 57.6612 42.1005 57.3274C42.4663 56.9901 42.6491 56.5817 42.6491 56.1023C42.6491 55.733 42.555 55.392 42.3668 55.0795C42.1786 54.7635 41.9105 54.5114 41.5625 54.3232C41.2145 54.1314 40.8026 54.0355 40.3267 54.0355H37.642V57.8281ZM37.642 52.8849H40.0923C40.4901 52.8849 40.8487 52.8068 41.1683 52.6506C41.4915 52.4943 41.7472 52.2741 41.9354 51.9901C42.1271 51.706 42.223 51.3722 42.223 50.9886C42.223 50.5092 42.0561 50.1026 41.7223 49.7688C41.3885 49.4315 40.8594 49.2628 40.1349 49.2628H37.642V52.8849ZM46.9931 53.7798H49.3368C50.2956 53.7798 51.0289 54.0231 51.5368 54.5096C52.0446 54.9961 52.2985 55.6122 52.2985 56.358C52.2985 56.848 52.1848 57.2937 51.9576 57.695C51.7303 58.0927 51.3965 58.4105 50.9561 58.6484C50.5158 58.8828 49.976 59 49.3368 59H45.9064V50.8182H47.1635V57.8281H49.3368C49.834 57.8281 50.2424 57.6967 50.562 57.4339C50.8816 57.1712 51.0414 56.8338 51.0414 56.4219C51.0414 55.9886 50.8816 55.6353 50.562 55.3619C50.2424 55.0884 49.834 54.9517 49.3368 54.9517H46.9931V53.7798ZM53.5982 59V50.8182H54.8553V59H53.5982ZM63.2289 47.75L63.8681 48.517C63.6195 48.7585 63.3319 48.9272 63.0051 49.0231C62.6784 49.119 62.3091 49.1776 61.8972 49.1989C61.4853 49.2202 61.0272 49.2415 60.5229 49.2628C59.9547 49.2841 59.4842 49.4226 59.1113 49.6783C58.7385 49.9339 58.4508 50.3033 58.2484 50.7862C58.046 51.2692 57.9164 51.8622 57.8596 52.5653H57.9661C58.2431 52.054 58.6266 51.6776 59.1167 51.4361C59.6067 51.1946 60.1323 51.0739 60.6934 51.0739C61.3326 51.0739 61.9078 51.223 62.4192 51.5213C62.9306 51.8196 63.3354 52.2617 63.6337 52.8477C63.932 53.4336 64.0811 54.1562 64.0811 55.0156C64.0811 55.8714 63.9284 56.6101 63.623 57.2315C63.3212 57.853 62.8968 58.3324 62.35 58.6697C61.8066 59.0036 61.1692 59.1705 60.4377 59.1705C59.7061 59.1705 59.0652 58.9982 58.5147 58.6538C57.9643 58.3058 57.5364 57.7908 57.231 57.109C56.9256 56.4237 56.7729 55.5767 56.7729 54.5682V53.6946C56.7729 51.8729 57.0819 50.4915 57.6998 49.5504C58.3212 48.6094 59.2551 48.1229 60.5016 48.0909C60.9419 48.0767 61.3343 48.0732 61.6788 48.0803C62.0233 48.0874 62.3233 48.0714 62.579 48.0323C62.8347 47.9933 63.0513 47.8991 63.2289 47.75ZM60.4377 58.0412C60.9313 58.0412 61.3556 57.9169 61.7108 57.6683C62.0694 57.4197 62.3446 57.07 62.5364 56.619C62.7282 56.1644 62.824 55.63 62.824 55.0156C62.824 54.419 62.7264 53.9112 62.5311 53.4922C62.3393 53.0732 62.0641 52.7536 61.7054 52.5334C61.3468 52.3132 60.9171 52.2031 60.4164 52.2031C60.0506 52.2031 59.7221 52.2653 59.4309 52.3896C59.1397 52.5138 58.8912 52.6967 58.6852 52.9382C58.4792 53.1797 58.3194 53.4744 58.2058 53.8224C58.0957 54.1705 58.0371 54.5682 58.03 55.0156C58.03 55.9318 58.2449 56.6651 58.6745 57.2156C59.1042 57.766 59.6919 58.0412 60.4377 58.0412ZM69.4345 59.1705C68.6461 59.1705 67.9661 58.9964 67.3944 58.6484C66.8262 58.2969 66.3876 57.8068 66.0787 57.1783C65.7733 56.5462 65.6206 55.8111 65.6206 54.973C65.6206 54.1349 65.7733 53.3963 66.0787 52.7571C66.3876 52.1143 66.8173 51.6136 67.3677 51.255C67.9217 50.8928 68.568 50.7116 69.3066 50.7116C69.7328 50.7116 70.1536 50.7827 70.5691 50.9247C70.9846 51.0668 71.3627 51.2976 71.7037 51.6172C72.0446 51.9332 72.3162 52.3523 72.5186 52.8743C72.7211 53.3963 72.8223 54.0391 72.8223 54.8026V55.3352H66.5154V54.2486H71.5439C71.5439 53.7869 71.4515 53.375 71.2669 53.0128C71.0858 52.6506 70.8265 52.3647 70.4892 52.1552C70.1554 51.9457 69.7612 51.8409 69.3066 51.8409C68.8059 51.8409 68.3727 51.9652 68.0069 52.2138C67.6447 52.4588 67.3659 52.7784 67.1706 53.1726C66.9753 53.5668 66.8777 53.9893 66.8777 54.4403V55.1648C66.8777 55.7827 66.9842 56.3065 67.1973 56.7362C67.4139 57.1623 67.714 57.4872 68.0975 57.7109C68.481 57.9311 68.9267 58.0412 69.4345 58.0412C69.7647 58.0412 70.063 57.995 70.3294 57.9027C70.5993 57.8068 70.8319 57.6648 71.0272 57.4766C71.2225 57.2848 71.3734 57.0469 71.4799 56.7628L72.6944 57.1037C72.5666 57.5156 72.3517 57.8778 72.0499 58.1903C71.748 58.4993 71.3752 58.7408 70.9313 58.9148C70.4874 59.0852 69.9885 59.1705 69.4345 59.1705ZM74.7346 62.0682V50.8182H75.949V52.1179H76.0982C76.1905 51.9759 76.3184 51.7947 76.4817 51.5746C76.6486 51.3509 76.8865 51.152 77.1955 50.978C77.508 50.8004 77.9306 50.7116 78.4632 50.7116C79.1522 50.7116 79.7594 50.8839 80.285 51.2283C80.8105 51.5728 81.2207 52.0611 81.5154 52.6932C81.8102 53.3253 81.9576 54.071 81.9576 54.9304C81.9576 55.7969 81.8102 56.5479 81.5154 57.1836C81.2207 57.8157 80.8123 58.3058 80.2903 58.6538C79.7683 58.9982 79.1664 59.1705 78.4846 59.1705C77.959 59.1705 77.5382 59.0835 77.2221 58.9094C76.9061 58.7319 76.6628 58.5312 76.4924 58.3075C76.3219 58.0803 76.1905 57.892 76.0982 57.7429H75.9917V62.0682H74.7346ZM75.9703 54.9091C75.9703 55.527 76.0609 56.0721 76.242 56.5444C76.4231 57.0131 76.6877 57.3807 77.0357 57.647C77.3837 57.9098 77.8098 58.0412 78.3141 58.0412C78.8397 58.0412 79.2782 57.9027 79.6298 57.6257C79.9849 57.3452 80.2512 56.9687 80.4288 56.4964C80.6099 56.0206 80.7005 55.4915 80.7005 54.9091C80.7005 54.3338 80.6117 53.8153 80.4341 53.3537C80.2601 52.8885 79.9956 52.521 79.6404 52.2511C79.2889 51.9776 78.8468 51.8409 78.3141 51.8409C77.8027 51.8409 77.373 51.9705 77.025 52.2298C76.677 52.4854 76.4142 52.8441 76.2367 53.3058C76.0591 53.7638 75.9703 54.2983 75.9703 54.9091ZM85.1323 57.1463L89.074 50.8182H90.5229V59H89.2658V52.6719L85.3453 59H83.8752V50.8182H85.1323V57.1463ZM91.7121 51.9901V50.8182H98.3598V51.9901H95.6752V59H94.4181V51.9901H91.7121ZM103.199 59.1705C102.411 59.1705 101.731 58.9964 101.159 58.6484C100.591 58.2969 100.152 57.8068 99.8433 57.1783C99.5379 56.5462 99.3852 55.8111 99.3852 54.973C99.3852 54.1349 99.5379 53.3963 99.8433 52.7571C100.152 52.1143 100.582 51.6136 101.132 51.255C101.686 50.8928 102.333 50.7116 103.071 50.7116C103.497 50.7116 103.918 50.7827 104.334 50.9247C104.749 51.0668 105.127 51.2976 105.468 51.6172C105.809 51.9332 106.081 52.3523 106.283 52.8743C106.486 53.3963 106.587 54.0391 106.587 54.8026V55.3352H100.28V54.2486H105.309C105.309 53.7869 105.216 53.375 105.032 53.0128C104.85 52.6506 104.591 52.3647 104.254 52.1552C103.92 51.9457 103.526 51.8409 103.071 51.8409C102.571 51.8409 102.137 51.9652 101.772 52.2138C101.409 52.4588 101.131 52.7784 100.935 53.1726C100.74 53.5668 100.642 53.9893 100.642 54.4403V55.1648C100.642 55.7827 100.749 56.3065 100.962 56.7362C101.179 57.1623 101.479 57.4872 101.862 57.7109C102.246 57.9311 102.691 58.0412 103.199 58.0412C103.529 58.0412 103.828 57.995 104.094 57.9027C104.364 57.8068 104.597 57.6648 104.792 57.4766C104.987 57.2848 105.138 57.0469 105.245 56.7628L106.459 57.1037C106.331 57.5156 106.116 57.8778 105.815 58.1903C105.513 58.4993 105.14 58.7408 104.696 58.9148C104.252 59.0852 103.753 59.1705 103.199 59.1705ZM112.718 59V50.8182H113.975V54.3764H114.806L117.746 50.8182H119.366L116.063 54.7599L119.408 59H117.789L115.104 55.5483H113.975V59H112.718ZM123.182 59.1918C122.664 59.1918 122.193 59.0941 121.771 58.8988C121.348 58.6999 121.013 58.4141 120.764 58.0412C120.515 57.6648 120.391 57.2102 120.391 56.6776C120.391 56.2088 120.483 55.8288 120.668 55.5376C120.853 55.2429 121.1 55.0121 121.408 54.8452C121.717 54.6783 122.058 54.554 122.431 54.4723C122.808 54.3871 123.186 54.3196 123.566 54.2699C124.063 54.206 124.466 54.158 124.775 54.1261C125.087 54.0906 125.315 54.032 125.457 53.9503C125.602 53.8686 125.675 53.7266 125.675 53.5241V53.4815C125.675 52.956 125.531 52.5476 125.244 52.2564C124.96 51.9652 124.528 51.8196 123.949 51.8196C123.349 51.8196 122.879 51.951 122.538 52.2138C122.197 52.4766 121.957 52.7571 121.819 53.0554L120.625 52.6293C120.839 52.1321 121.123 51.745 121.478 51.468C121.836 51.1875 122.227 50.9922 122.65 50.8821C123.076 50.7685 123.495 50.7116 123.907 50.7116C124.169 50.7116 124.471 50.7436 124.812 50.8075C125.157 50.8679 125.489 50.994 125.808 51.1857C126.131 51.3775 126.4 51.6669 126.613 52.054C126.826 52.4411 126.932 52.9595 126.932 53.6094V59H125.675V57.892H125.611C125.526 58.0696 125.384 58.2596 125.185 58.462C124.986 58.6644 124.722 58.8366 124.391 58.9787C124.061 59.1207 123.658 59.1918 123.182 59.1918ZM123.374 58.0625C123.871 58.0625 124.29 57.9648 124.631 57.7695C124.976 57.5742 125.235 57.3221 125.409 57.0131C125.586 56.7042 125.675 56.3793 125.675 56.0384V54.8878C125.622 54.9517 125.505 55.0103 125.324 55.0636C125.146 55.1133 124.94 55.1577 124.706 55.1967C124.475 55.2322 124.249 55.2642 124.029 55.2926C123.813 55.3175 123.637 55.3388 123.502 55.3565C123.175 55.3991 122.87 55.4684 122.586 55.5643C122.305 55.6566 122.078 55.7969 121.904 55.9851C121.733 56.1697 121.648 56.4219 121.648 56.7415C121.648 57.1783 121.81 57.5085 122.133 57.7322C122.46 57.9524 122.873 58.0625 123.374 58.0625ZM128.113 51.9901V50.8182H134.761V51.9901H132.077V59H130.819V51.9901H128.113ZM139.6 59.1705C138.812 59.1705 138.132 58.9964 137.56 58.6484C136.992 58.2969 136.554 57.8068 136.245 57.1783C135.939 56.5462 135.787 55.8111 135.787 54.973C135.787 54.1349 135.939 53.3963 136.245 52.7571C136.554 52.1143 136.983 51.6136 137.534 51.255C138.088 50.8928 138.734 50.7116 139.473 50.7116C139.899 50.7116 140.32 50.7827 140.735 50.9247C141.151 51.0668 141.529 51.2976 141.87 51.6172C142.211 51.9332 142.482 52.3523 142.685 52.8743C142.887 53.3963 142.988 54.0391 142.988 54.8026V55.3352H136.681V54.2486H141.71C141.71 53.7869 141.618 53.375 141.433 53.0128C141.252 52.6506 140.993 52.3647 140.655 52.1552C140.321 51.9457 139.927 51.8409 139.473 51.8409C138.972 51.8409 138.539 51.9652 138.173 52.2138C137.811 52.4588 137.532 52.7784 137.337 53.1726C137.141 53.5668 137.044 53.9893 137.044 54.4403V55.1648C137.044 55.7827 137.15 56.3065 137.363 56.7362C137.58 57.1623 137.88 57.4872 138.263 57.7109C138.647 57.9311 139.093 58.0412 139.6 58.0412C139.931 58.0412 140.229 57.995 140.495 57.9027C140.765 57.8068 140.998 57.6648 141.193 57.4766C141.388 57.2848 141.539 57.0469 141.646 56.7628L142.86 57.1037C142.733 57.5156 142.518 57.8778 142.216 58.1903C141.914 58.4993 141.541 58.7408 141.097 58.9148C140.653 59.0852 140.154 59.1705 139.6 59.1705ZM149.95 50.8182V51.9901H146.158V59H144.901V50.8182H149.95ZM154.684 59.1705C153.946 59.1705 153.298 58.9947 152.74 58.6431C152.186 58.2915 151.753 57.7997 151.44 57.1676C151.131 56.5355 150.977 55.7969 150.977 54.9517C150.977 54.0994 151.131 53.3555 151.44 52.7198C151.753 52.0842 152.186 51.5906 152.74 51.239C153.298 50.8874 153.946 50.7116 154.684 50.7116C155.423 50.7116 156.069 50.8874 156.623 51.239C157.181 51.5906 157.614 52.0842 157.923 52.7198C158.236 53.3555 158.392 54.0994 158.392 54.9517C158.392 55.7969 158.236 56.5355 157.923 57.1676C157.614 57.7997 157.181 58.2915 156.623 58.6431C156.069 58.9947 155.423 59.1705 154.684 59.1705ZM154.684 58.0412C155.245 58.0412 155.707 57.8974 156.069 57.6097C156.432 57.3221 156.7 56.9439 156.874 56.4751C157.048 56.0064 157.135 55.4986 157.135 54.9517C157.135 54.4048 157.048 53.8952 156.874 53.4229C156.7 52.9506 156.432 52.5689 156.069 52.2777C155.707 51.9865 155.245 51.8409 154.684 51.8409C154.123 51.8409 153.662 51.9865 153.299 52.2777C152.937 52.5689 152.669 52.9506 152.495 53.4229C152.321 53.8952 152.234 54.4048 152.234 54.9517C152.234 55.4986 152.321 56.0064 152.495 56.4751C152.669 56.9439 152.937 57.3221 153.299 57.6097C153.662 57.8974 154.123 58.0412 154.684 58.0412ZM160.311 62.0682V50.8182H161.525V52.1179H161.674C161.767 51.9759 161.895 51.7947 162.058 51.5746C162.225 51.3509 162.463 51.152 162.772 50.978C163.084 50.8004 163.507 50.7116 164.039 50.7116C164.728 50.7116 165.336 50.8839 165.861 51.2283C166.387 51.5728 166.797 52.0611 167.092 52.6932C167.386 53.3253 167.534 54.071 167.534 54.9304C167.534 55.7969 167.386 56.5479 167.092 57.1836C166.797 57.8157 166.388 58.3058 165.866 58.6538C165.344 58.9982 164.743 59.1705 164.061 59.1705C163.535 59.1705 163.114 59.0835 162.798 58.9094C162.482 58.7319 162.239 58.5312 162.069 58.3075C161.898 58.0803 161.767 57.892 161.674 57.7429H161.568V62.0682H160.311ZM161.547 54.9091C161.547 55.527 161.637 56.0721 161.818 56.5444C161.999 57.0131 162.264 57.3807 162.612 57.647C162.96 57.9098 163.386 58.0412 163.89 58.0412C164.416 58.0412 164.854 57.9027 165.206 57.6257C165.561 57.3452 165.827 56.9687 166.005 56.4964C166.186 56.0206 166.277 55.4915 166.277 54.9091C166.277 54.3338 166.188 53.8153 166.01 53.3537C165.836 52.8885 165.572 52.521 165.217 52.2511C164.865 51.9776 164.423 51.8409 163.89 51.8409C163.379 51.8409 162.949 51.9705 162.601 52.2298C162.253 52.4854 161.99 52.8441 161.813 53.3058C161.635 53.7638 161.547 54.2983 161.547 54.9091ZM170.708 57.1463L174.65 50.8182H176.099V59H174.842V52.6719L170.922 59H169.451V50.8182H170.708V57.1463ZM182.322 54.3977V55.5696H177.997V54.3977H182.322ZM179.062 50.8182V59H177.805V50.8182H179.062ZM184.836 59.1705C184.098 59.1705 183.449 58.9947 182.892 58.6431C182.338 58.2915 181.905 57.7997 181.592 57.1676C181.283 56.5355 181.129 55.7969 181.129 54.9517C181.129 54.0994 181.283 53.3555 181.592 52.7198C181.905 52.0842 182.338 51.5906 182.892 51.239C183.449 50.8874 184.098 50.7116 184.836 50.7116C185.575 50.7116 186.221 50.8874 186.775 51.239C187.333 51.5906 187.766 52.0842 188.075 52.7198C188.387 53.3555 188.544 54.0994 188.544 54.9517C188.544 55.7969 188.387 56.5355 188.075 57.1676C187.766 57.7997 187.333 58.2915 186.775 58.6431C186.221 58.9947 185.575 59.1705 184.836 59.1705ZM184.836 58.0412C185.397 58.0412 185.859 57.8974 186.221 57.6097C186.583 57.3221 186.851 56.9439 187.025 56.4751C187.199 56.0064 187.286 55.4986 187.286 54.9517C187.286 54.4048 187.199 53.8952 187.025 53.4229C186.851 52.9506 186.583 52.5689 186.221 52.2777C185.859 51.9865 185.397 51.8409 184.836 51.8409C184.275 51.8409 183.813 51.9865 183.451 52.2777C183.089 52.5689 182.821 52.9506 182.647 53.4229C182.473 53.8952 182.386 54.4048 182.386 54.9517C182.386 55.4986 182.473 56.0064 182.647 56.4751C182.821 56.9439 183.089 57.3221 183.451 57.6097C183.813 57.8974 184.275 58.0412 184.836 58.0412Z" fill="#D6D0D0"/>
<rect width="125" height="28" transform="translate(200 40)" fill="#2B495D"/>
<path d="M312 52.5L315.25 55.75L318.5 52.5" stroke="#D6D0D0" stroke-width="1.54545" stroke-linecap="round" stroke-linejoin="round"/>
<rect width="125" height="166" transform="translate(200 70)" fill="#2B495D"/>
<path d="M206.321 89V78.0909H210.135C210.895 78.0909 211.522 78.2223 212.015 78.4851C212.509 78.7443 212.876 79.0941 213.118 79.5344C213.359 79.9712 213.48 80.456 213.48 80.9886C213.48 81.4574 213.397 81.8445 213.23 82.1499C213.066 82.4553 212.85 82.6967 212.58 82.8743C212.314 83.0518 212.024 83.1832 211.712 83.2685V83.375C212.045 83.3963 212.381 83.5135 212.718 83.7266C213.056 83.9396 213.338 84.245 213.565 84.6428C213.793 85.0405 213.906 85.527 213.906 86.1023C213.906 86.6491 213.782 87.141 213.533 87.5778C213.285 88.0146 212.892 88.3608 212.356 88.6165C211.82 88.8722 211.122 89 210.263 89H206.321ZM207.642 87.8281H210.263C211.126 87.8281 211.738 87.6612 212.1 87.3274C212.466 86.9901 212.649 86.5817 212.649 86.1023C212.649 85.733 212.555 85.392 212.367 85.0795C212.179 84.7635 211.911 84.5114 211.562 84.3232C211.214 84.1314 210.803 84.0355 210.327 84.0355H207.642V87.8281ZM207.642 82.8849H210.092C210.49 82.8849 210.849 82.8068 211.168 82.6506C211.491 82.4943 211.747 82.2741 211.935 81.9901C212.127 81.706 212.223 81.3722 212.223 80.9886C212.223 80.5092 212.056 80.1026 211.722 79.7688C211.388 79.4315 210.859 79.2628 210.135 79.2628H207.642V82.8849ZM219.337 89.1705C218.548 89.1705 217.868 88.9964 217.297 88.6484C216.729 88.2969 216.29 87.8068 215.981 87.1783C215.676 86.5462 215.523 85.8111 215.523 84.973C215.523 84.1349 215.676 83.3963 215.981 82.7571C216.29 82.1143 216.72 81.6136 217.27 81.255C217.824 80.8928 218.47 80.7116 219.209 80.7116C219.635 80.7116 220.056 80.7827 220.471 80.9247C220.887 81.0668 221.265 81.2976 221.606 81.6172C221.947 81.9332 222.219 82.3523 222.421 82.8743C222.623 83.3963 222.725 84.0391 222.725 84.8026V85.3352H216.418V84.2486H221.446C221.446 83.7869 221.354 83.375 221.169 83.0128C220.988 82.6506 220.729 82.3647 220.392 82.1552C220.058 81.9457 219.664 81.8409 219.209 81.8409C218.708 81.8409 218.275 81.9652 217.909 82.2138C217.547 82.4588 217.268 82.7784 217.073 83.1726C216.878 83.5668 216.78 83.9893 216.78 84.4403V85.1648C216.78 85.7827 216.887 86.3065 217.1 86.7362C217.316 87.1623 217.616 87.4872 218 87.7109C218.383 87.9311 218.829 88.0412 219.337 88.0412C219.667 88.0412 219.965 87.995 220.232 87.9027C220.502 87.8068 220.734 87.6648 220.93 87.4766C221.125 87.2848 221.276 87.0469 221.382 86.7628L222.597 87.1037C222.469 87.5156 222.254 87.8778 221.952 88.1903C221.65 88.4993 221.278 88.7408 220.834 88.9148C220.39 89.0852 219.891 89.1705 219.337 89.1705ZM230.113 84.3338V85.5057H225.596V84.3338H230.113ZM225.894 80.8182V89H224.637V80.8182H225.894ZM231.072 80.8182V89H229.814V80.8182H231.072ZM232.254 81.9901V80.8182H238.902V81.9901H236.217V89H234.96V81.9901H232.254ZM241.993 87.1463L245.934 80.8182H247.383V89H246.126V82.6719L242.206 89H240.736V80.8182H241.993V87.1463ZM248.961 89V87.8281H249.26C249.505 87.8281 249.709 87.7802 249.872 87.6843C250.036 87.5849 250.167 87.4126 250.266 87.1676C250.369 86.919 250.447 86.5746 250.501 86.1342C250.558 85.6903 250.598 85.1257 250.623 84.4403L250.772 80.8182H256.227V89H254.97V81.9901H251.966L251.838 84.9091C251.809 85.5803 251.749 86.1715 251.657 86.6829C251.568 87.1907 251.431 87.6168 251.246 87.9613C251.065 88.3058 250.824 88.565 250.522 88.739C250.22 88.913 249.842 89 249.387 89H248.961ZM263.455 89V81.9688H261.282C260.792 81.9688 260.407 82.0824 260.126 82.3097C259.846 82.5369 259.705 82.8494 259.705 83.2472C259.705 83.6378 259.831 83.945 260.083 84.1687C260.339 84.3924 260.689 84.5043 261.133 84.5043H263.775V85.6761H261.133C260.579 85.6761 260.101 85.5785 259.7 85.3832C259.299 85.1879 258.99 84.9091 258.773 84.5469C258.556 84.1811 258.448 83.7479 258.448 83.2472C258.448 82.7429 258.562 82.3097 258.789 81.9474C259.016 81.5852 259.341 81.3065 259.764 81.1112C260.19 80.9158 260.696 80.8182 261.282 80.8182H264.648V89H263.455ZM258.001 89L260.323 84.9304H261.687L259.364 89H258.001ZM265.843 81.9901V80.8182H272.491V81.9901H269.806V89H268.549V81.9901H265.843ZM277.223 89.1705C276.485 89.1705 275.837 88.9947 275.279 88.6431C274.725 88.2915 274.292 87.7997 273.979 87.1676C273.671 86.5355 273.516 85.7969 273.516 84.9517C273.516 84.0994 273.671 83.3555 273.979 82.7198C274.292 82.0842 274.725 81.5906 275.279 81.239C275.837 80.8874 276.485 80.7116 277.223 80.7116C277.962 80.7116 278.608 80.8874 279.162 81.239C279.72 81.5906 280.153 82.0842 280.462 82.7198C280.775 83.3555 280.931 84.0994 280.931 84.9517C280.931 85.7969 280.775 86.5355 280.462 87.1676C280.153 87.7997 279.72 88.2915 279.162 88.6431C278.608 88.9947 277.962 89.1705 277.223 89.1705ZM277.223 88.0412C277.785 88.0412 278.246 87.8974 278.608 87.6097C278.971 87.3221 279.239 86.9439 279.413 86.4751C279.587 86.0064 279.674 85.4986 279.674 84.9517C279.674 84.4048 279.587 83.8952 279.413 83.4229C279.239 82.9506 278.971 82.5689 278.608 82.2777C278.246 81.9865 277.785 81.8409 277.223 81.8409C276.662 81.8409 276.201 81.9865 275.839 82.2777C275.476 82.5689 275.208 82.9506 275.034 83.4229C274.86 83.8952 274.773 84.4048 274.773 84.9517C274.773 85.4986 274.86 86.0064 275.034 86.4751C275.208 86.9439 275.476 87.3221 275.839 87.6097C276.201 87.8974 276.662 88.0412 277.223 88.0412ZM282.85 92.0682V80.8182H284.064V82.1179H284.213C284.306 81.9759 284.434 81.7947 284.597 81.5746C284.764 81.3509 285.002 81.152 285.311 80.978C285.623 80.8004 286.046 80.7116 286.578 80.7116C287.267 80.7116 287.875 80.8839 288.4 81.2283C288.926 81.5728 289.336 82.0611 289.631 82.6932C289.925 83.3253 290.073 84.071 290.073 84.9304C290.073 85.7969 289.925 86.5479 289.631 87.1836C289.336 87.8157 288.928 88.3058 288.406 88.6538C287.884 88.9982 287.282 89.1705 286.6 89.1705C286.074 89.1705 285.653 89.0835 285.337 88.9094C285.021 88.7319 284.778 88.5312 284.608 88.3075C284.437 88.0803 284.306 87.892 284.213 87.7429H284.107V92.0682H282.85ZM284.086 84.9091C284.086 85.527 284.176 86.0721 284.357 86.5444C284.538 87.0131 284.803 87.3807 285.151 87.647C285.499 87.9098 285.925 88.0412 286.429 88.0412C286.955 88.0412 287.393 87.9027 287.745 87.6257C288.1 87.3452 288.366 86.9687 288.544 86.4964C288.725 86.0206 288.816 85.4915 288.816 84.9091C288.816 84.3338 288.727 83.8153 288.549 83.3537C288.375 82.8885 288.111 82.521 287.756 82.2511C287.404 81.9776 286.962 81.8409 286.429 81.8409C285.918 81.8409 285.488 81.9705 285.14 82.2298C284.792 82.4854 284.529 82.8441 284.352 83.3058C284.174 83.7638 284.086 84.2983 284.086 84.9091ZM293.077 83.7798H295.421C296.38 83.7798 297.113 84.0231 297.621 84.5096C298.129 84.9961 298.382 85.6122 298.382 86.358C298.382 86.848 298.269 87.2937 298.042 87.695C297.814 88.0927 297.48 88.4105 297.04 88.6484C296.6 88.8828 296.06 89 295.421 89H291.99V80.8182H293.248V87.8281H295.421C295.918 87.8281 296.326 87.6967 296.646 87.4339C296.966 87.1712 297.125 86.8338 297.125 86.4219C297.125 85.9886 296.966 85.6353 296.646 85.3619C296.326 85.0884 295.918 84.9517 295.421 84.9517H293.077V83.7798ZM299.682 89V80.8182H300.939V89H299.682Z" fill="#D6D0D0"/>
<path d="M206.321 112V101.091H207.642V105.949H213.459V101.091H214.78V112H213.459V107.121H207.642V112H206.321ZM220.578 112.17C219.839 112.17 219.191 111.995 218.634 111.643C218.08 111.292 217.646 110.8 217.334 110.168C217.025 109.536 216.871 108.797 216.871 107.952C216.871 107.099 217.025 106.355 217.334 105.72C217.646 105.084 218.08 104.591 218.634 104.239C219.191 103.887 219.839 103.712 220.578 103.712C221.317 103.712 221.963 103.887 222.517 104.239C223.074 104.591 223.508 105.084 223.817 105.72C224.129 106.355 224.285 107.099 224.285 107.952C224.285 108.797 224.129 109.536 223.817 110.168C223.508 110.8 223.074 111.292 222.517 111.643C221.963 111.995 221.317 112.17 220.578 112.17ZM220.578 111.041C221.139 111.041 221.601 110.897 221.963 110.61C222.325 110.322 222.593 109.944 222.767 109.475C222.941 109.006 223.028 108.499 223.028 107.952C223.028 107.405 222.941 106.895 222.767 106.423C222.593 105.951 222.325 105.569 221.963 105.278C221.601 104.987 221.139 104.841 220.578 104.841C220.017 104.841 219.555 104.987 219.193 105.278C218.831 105.569 218.563 105.951 218.389 106.423C218.215 106.895 218.128 107.405 218.128 107.952C218.128 108.499 218.215 109.006 218.389 109.475C218.563 109.944 218.831 110.322 219.193 110.61C219.555 110.897 220.017 111.041 220.578 111.041ZM225.356 112L228.68 107.845L225.399 103.818H226.89L229.617 107.312H230.299V103.818H231.556V107.312H232.217L234.944 103.818H236.436L233.176 107.845L236.478 112H234.965L232.195 108.484H231.556V112H230.299V108.484H229.66L226.869 112H225.356ZM239.532 110.146L243.473 103.818H244.922V112H243.665V105.672L239.745 112H238.275V103.818H239.532V110.146Z" fill="#D6D0D0"/>
<path d="M212.99 129.098V130.27H208.494V129.098H212.99ZM205.895 131.591H207.259C207.376 132.358 207.635 132.947 208.036 133.359C208.438 133.771 209.08 133.977 209.964 133.977C210.589 133.977 211.112 133.801 211.531 133.45C211.953 133.098 212.269 132.633 212.479 132.054C212.692 131.475 212.798 130.845 212.798 130.163V128.949C212.798 128.196 212.679 127.534 212.441 126.962C212.207 126.387 211.868 125.939 211.424 125.62C210.984 125.297 210.455 125.135 209.837 125.135C209.297 125.135 208.849 125.231 208.494 125.423C208.139 125.614 207.862 125.89 207.663 126.248C207.464 126.607 207.33 127.038 207.259 127.543H205.895C205.966 126.847 206.156 126.229 206.465 125.689C206.777 125.146 207.212 124.719 207.77 124.411C208.331 124.098 209.02 123.942 209.837 123.942C210.724 123.942 211.491 124.15 212.138 124.565C212.784 124.977 213.283 125.558 213.635 126.307C213.986 127.053 214.162 127.926 214.162 128.928V130.185C214.162 131.186 213.988 132.06 213.64 132.805C213.292 133.548 212.804 134.125 212.175 134.537C211.547 134.945 210.81 135.149 209.964 135.149C209.098 135.149 208.377 134.993 207.802 134.68C207.23 134.364 206.788 133.938 206.475 133.402C206.167 132.862 205.973 132.259 205.895 131.591ZM215.49 135V133.828H215.788C216.033 133.828 216.237 133.78 216.4 133.684C216.564 133.585 216.695 133.413 216.795 133.168C216.898 132.919 216.976 132.575 217.029 132.134C217.086 131.69 217.127 131.126 217.152 130.44L217.301 126.818H222.755V135H221.498V127.99H218.494L218.366 130.909C218.338 131.58 218.277 132.172 218.185 132.683C218.096 133.191 217.959 133.617 217.775 133.961C217.594 134.306 217.352 134.565 217.05 134.739C216.748 134.913 216.37 135 215.916 135H215.49ZM228.492 135.17C227.704 135.17 227.024 134.996 226.452 134.648C225.884 134.297 225.445 133.807 225.136 133.178C224.831 132.546 224.678 131.811 224.678 130.973C224.678 130.135 224.831 129.396 225.136 128.757C225.445 128.114 225.875 127.614 226.425 127.255C226.979 126.893 227.626 126.712 228.364 126.712C228.79 126.712 229.211 126.783 229.627 126.925C230.042 127.067 230.42 127.298 230.761 127.617C231.102 127.933 231.374 128.352 231.576 128.874C231.779 129.396 231.88 130.039 231.88 130.803V131.335H225.573V130.249H230.601C230.601 129.787 230.509 129.375 230.324 129.013C230.143 128.651 229.884 128.365 229.547 128.155C229.213 127.946 228.819 127.841 228.364 127.841C227.864 127.841 227.43 127.965 227.065 128.214C226.702 128.459 226.424 128.778 226.228 129.173C226.033 129.567 225.935 129.989 225.935 130.44V131.165C225.935 131.783 226.042 132.306 226.255 132.736C226.472 133.162 226.772 133.487 227.155 133.711C227.539 133.931 227.984 134.041 228.492 134.041C228.822 134.041 229.121 133.995 229.387 133.903C229.657 133.807 229.889 133.665 230.085 133.477C230.28 133.285 230.431 133.047 230.538 132.763L231.752 133.104C231.624 133.516 231.409 133.878 231.108 134.19C230.806 134.499 230.433 134.741 229.989 134.915C229.545 135.085 229.046 135.17 228.492 135.17ZM233.792 135V126.818H235.049V130.376H235.88L238.821 126.818H240.44L237.137 130.76L240.483 135H238.863L236.179 131.548H235.049V135H233.792ZM241.38 127.99V126.818H248.028V127.99H245.343V135H244.086V127.99H241.38ZM249.862 138.068V126.818H251.076V128.118H251.225C251.317 127.976 251.445 127.795 251.609 127.575C251.776 127.351 252.013 127.152 252.322 126.978C252.635 126.8 253.058 126.712 253.59 126.712C254.279 126.712 254.886 126.884 255.412 127.228C255.938 127.573 256.348 128.061 256.642 128.693C256.937 129.325 257.085 130.071 257.085 130.93C257.085 131.797 256.937 132.548 256.642 133.184C256.348 133.816 255.939 134.306 255.417 134.654C254.895 134.998 254.293 135.17 253.612 135.17C253.086 135.17 252.665 135.083 252.349 134.909C252.033 134.732 251.79 134.531 251.619 134.308C251.449 134.08 251.317 133.892 251.225 133.743H251.119V138.068H249.862ZM251.097 130.909C251.097 131.527 251.188 132.072 251.369 132.544C251.55 133.013 251.815 133.381 252.163 133.647C252.511 133.91 252.937 134.041 253.441 134.041C253.967 134.041 254.405 133.903 254.757 133.626C255.112 133.345 255.378 132.969 255.556 132.496C255.737 132.021 255.827 131.491 255.827 130.909C255.827 130.334 255.739 129.815 255.561 129.354C255.387 128.888 255.123 128.521 254.767 128.251C254.416 127.978 253.974 127.841 253.441 127.841C252.93 127.841 252.5 127.971 252.152 128.23C251.804 128.485 251.541 128.844 251.364 129.306C251.186 129.764 251.097 130.298 251.097 130.909ZM262.326 135.17C261.587 135.17 260.939 134.995 260.382 134.643C259.828 134.292 259.395 133.8 259.082 133.168C258.773 132.536 258.619 131.797 258.619 130.952C258.619 130.099 258.773 129.355 259.082 128.72C259.395 128.084 259.828 127.591 260.382 127.239C260.939 126.887 261.587 126.712 262.326 126.712C263.065 126.712 263.711 126.887 264.265 127.239C264.822 127.591 265.256 128.084 265.565 128.72C265.877 129.355 266.033 130.099 266.033 130.952C266.033 131.797 265.877 132.536 265.565 133.168C265.256 133.8 264.822 134.292 264.265 134.643C263.711 134.995 263.065 135.17 262.326 135.17ZM262.326 134.041C262.887 134.041 263.349 133.897 263.711 133.61C264.073 133.322 264.341 132.944 264.515 132.475C264.689 132.006 264.776 131.499 264.776 130.952C264.776 130.405 264.689 129.895 264.515 129.423C264.341 128.951 264.073 128.569 263.711 128.278C263.349 127.987 262.887 127.841 262.326 127.841C261.765 127.841 261.303 127.987 260.941 128.278C260.579 128.569 260.311 128.951 260.137 129.423C259.963 129.895 259.876 130.405 259.876 130.952C259.876 131.499 259.963 132.006 260.137 132.475C260.311 132.944 260.579 133.322 260.941 133.61C261.303 133.897 261.765 134.041 262.326 134.041ZM273.428 130.334V131.506H268.911V130.334H273.428ZM269.209 126.818V135H267.952V126.818H269.209ZM274.387 126.818V135H273.13V126.818H274.387ZM277.94 133.146L281.882 126.818H283.331V135H282.073V128.672L278.153 135H276.683V126.818H277.94V133.146ZM285.633 135V126.818H286.89V130.376H287.721L290.661 126.818H292.281L288.978 130.76L292.323 135H290.704L288.019 131.548H286.89V135H285.633ZM296.097 135.192C295.579 135.192 295.108 135.094 294.686 134.899C294.263 134.7 293.928 134.414 293.679 134.041C293.43 133.665 293.306 133.21 293.306 132.678C293.306 132.209 293.398 131.829 293.583 131.538C293.768 131.243 294.015 131.012 294.324 130.845C294.632 130.678 294.973 130.554 295.346 130.472C295.723 130.387 296.101 130.32 296.481 130.27C296.978 130.206 297.381 130.158 297.69 130.126C298.002 130.091 298.23 130.032 298.372 129.95C298.517 129.869 298.59 129.727 298.59 129.524V129.482C298.59 128.956 298.446 128.548 298.159 128.256C297.875 127.965 297.443 127.82 296.864 127.82C296.264 127.82 295.794 127.951 295.453 128.214C295.112 128.477 294.872 128.757 294.734 129.055L293.54 128.629C293.754 128.132 294.038 127.745 294.393 127.468C294.751 127.187 295.142 126.992 295.565 126.882C295.991 126.768 296.41 126.712 296.822 126.712C297.085 126.712 297.386 126.744 297.727 126.808C298.072 126.868 298.404 126.994 298.723 127.186C299.047 127.377 299.315 127.667 299.528 128.054C299.741 128.441 299.847 128.96 299.847 129.609V135H298.59V133.892H298.526C298.441 134.07 298.299 134.26 298.1 134.462C297.901 134.664 297.637 134.837 297.306 134.979C296.976 135.121 296.573 135.192 296.097 135.192ZM296.289 134.062C296.786 134.062 297.205 133.965 297.546 133.77C297.891 133.574 298.15 133.322 298.324 133.013C298.501 132.704 298.59 132.379 298.59 132.038V130.888C298.537 130.952 298.42 131.01 298.239 131.064C298.061 131.113 297.855 131.158 297.621 131.197C297.39 131.232 297.164 131.264 296.944 131.293C296.728 131.317 296.552 131.339 296.417 131.357C296.09 131.399 295.785 131.468 295.501 131.564C295.22 131.657 294.993 131.797 294.819 131.985C294.648 132.17 294.563 132.422 294.563 132.741C294.563 133.178 294.725 133.509 295.048 133.732C295.375 133.952 295.788 134.062 296.289 134.062Z" fill="#D6D0D0"/>
<path d="M215.099 150.5H213.778C213.7 150.12 213.564 149.786 213.368 149.499C213.176 149.211 212.942 148.969 212.665 148.774C212.392 148.575 212.088 148.426 211.754 148.327C211.42 148.227 211.072 148.178 210.71 148.178C210.05 148.178 209.451 148.344 208.915 148.678C208.382 149.012 207.958 149.504 207.642 150.154C207.33 150.804 207.173 151.601 207.173 152.545C207.173 153.49 207.33 154.287 207.642 154.937C207.958 155.587 208.382 156.079 208.915 156.413C209.451 156.746 210.05 156.913 210.71 156.913C211.072 156.913 211.42 156.864 211.754 156.764C212.088 156.665 212.392 156.517 212.665 156.322C212.942 156.123 213.176 155.88 213.368 155.592C213.564 155.301 213.7 154.967 213.778 154.591H215.099C215 155.148 214.819 155.647 214.556 156.088C214.293 156.528 213.967 156.903 213.576 157.212C213.185 157.517 212.747 157.75 212.26 157.909C211.777 158.069 211.261 158.149 210.71 158.149C209.78 158.149 208.952 157.922 208.228 157.467C207.504 157.013 206.934 156.366 206.518 155.528C206.103 154.69 205.895 153.696 205.895 152.545C205.895 151.395 206.103 150.401 206.518 149.562C206.934 148.724 207.504 148.078 208.228 147.624C208.952 147.169 209.78 146.942 210.71 146.942C211.261 146.942 211.777 147.022 212.26 147.181C212.747 147.341 213.185 147.576 213.576 147.885C213.967 148.19 214.293 148.563 214.556 149.003C214.819 149.44 215 149.939 215.099 150.5ZM220.388 158.17C219.649 158.17 219.001 157.995 218.443 157.643C217.889 157.292 217.456 156.8 217.144 156.168C216.835 155.536 216.68 154.797 216.68 153.952C216.68 153.099 216.835 152.355 217.144 151.72C217.456 151.084 217.889 150.591 218.443 150.239C219.001 149.887 219.649 149.712 220.388 149.712C221.126 149.712 221.772 149.887 222.326 150.239C222.884 150.591 223.317 151.084 223.626 151.72C223.939 152.355 224.095 153.099 224.095 153.952C224.095 154.797 223.939 155.536 223.626 156.168C223.317 156.8 222.884 157.292 222.326 157.643C221.772 157.995 221.126 158.17 220.388 158.17ZM220.388 157.041C220.949 157.041 221.41 156.897 221.772 156.61C222.135 156.322 222.403 155.944 222.577 155.475C222.751 155.006 222.838 154.499 222.838 153.952C222.838 153.405 222.751 152.895 222.577 152.423C222.403 151.951 222.135 151.569 221.772 151.278C221.41 150.987 220.949 150.841 220.388 150.841C219.826 150.841 219.365 150.987 219.003 151.278C218.64 151.569 218.372 151.951 218.198 152.423C218.024 152.895 217.937 153.405 217.937 153.952C217.937 154.499 218.024 155.006 218.198 155.475C218.372 155.944 218.64 156.322 219.003 156.61C219.365 156.897 219.826 157.041 220.388 157.041ZM232.086 146.75L232.725 147.517C232.477 147.759 232.189 147.927 231.863 148.023C231.536 148.119 231.167 148.178 230.755 148.199C230.343 148.22 229.885 148.241 229.38 148.263C228.812 148.284 228.342 148.423 227.969 148.678C227.596 148.934 227.308 149.303 227.106 149.786C226.903 150.269 226.774 150.862 226.717 151.565H226.824C227.1 151.054 227.484 150.678 227.974 150.436C228.464 150.195 228.99 150.074 229.551 150.074C230.19 150.074 230.765 150.223 231.277 150.521C231.788 150.82 232.193 151.262 232.491 151.848C232.789 152.434 232.939 153.156 232.939 154.016C232.939 154.871 232.786 155.61 232.48 156.232C232.179 156.853 231.754 157.332 231.207 157.67C230.664 158.004 230.027 158.17 229.295 158.17C228.564 158.17 227.923 157.998 227.372 157.654C226.822 157.306 226.394 156.791 226.088 156.109C225.783 155.424 225.63 154.577 225.63 153.568V152.695C225.63 150.873 225.939 149.491 226.557 148.55C227.179 147.609 228.113 147.123 229.359 147.091C229.799 147.077 230.192 147.073 230.536 147.08C230.881 147.087 231.181 147.071 231.436 147.032C231.692 146.993 231.909 146.899 232.086 146.75ZM229.295 157.041C229.789 157.041 230.213 156.917 230.568 156.668C230.927 156.42 231.202 156.07 231.394 155.619C231.586 155.164 231.681 154.63 231.681 154.016C231.681 153.419 231.584 152.911 231.388 152.492C231.197 152.073 230.922 151.754 230.563 151.533C230.204 151.313 229.775 151.203 229.274 151.203C228.908 151.203 228.58 151.265 228.288 151.39C227.997 151.514 227.749 151.697 227.543 151.938C227.337 152.18 227.177 152.474 227.063 152.822C226.953 153.17 226.895 153.568 226.887 154.016C226.887 154.932 227.102 155.665 227.532 156.216C227.962 156.766 228.549 157.041 229.295 157.041ZM237.269 158.192C236.751 158.192 236.28 158.094 235.858 157.899C235.435 157.7 235.099 157.414 234.851 157.041C234.602 156.665 234.478 156.21 234.478 155.678C234.478 155.209 234.57 154.829 234.755 154.538C234.94 154.243 235.186 154.012 235.495 153.845C235.804 153.678 236.145 153.554 236.518 153.472C236.895 153.387 237.273 153.32 237.653 153.27C238.15 153.206 238.553 153.158 238.862 153.126C239.174 153.091 239.402 153.032 239.544 152.95C239.689 152.869 239.762 152.727 239.762 152.524V152.482C239.762 151.956 239.618 151.548 239.331 151.256C239.047 150.965 238.615 150.82 238.036 150.82C237.436 150.82 236.966 150.951 236.625 151.214C236.284 151.477 236.044 151.757 235.906 152.055L234.712 151.629C234.925 151.132 235.21 150.745 235.565 150.468C235.923 150.187 236.314 149.992 236.737 149.882C237.163 149.768 237.582 149.712 237.994 149.712C238.256 149.712 238.558 149.744 238.899 149.808C239.244 149.868 239.576 149.994 239.895 150.186C240.218 150.377 240.487 150.667 240.7 151.054C240.913 151.441 241.019 151.96 241.019 152.609V158H239.762V156.892H239.698C239.613 157.07 239.471 157.26 239.272 157.462C239.073 157.664 238.809 157.837 238.478 157.979C238.148 158.121 237.745 158.192 237.269 158.192ZM237.461 157.062C237.958 157.062 238.377 156.965 238.718 156.77C239.063 156.574 239.322 156.322 239.496 156.013C239.673 155.704 239.762 155.379 239.762 155.038V153.888C239.709 153.952 239.592 154.01 239.411 154.064C239.233 154.113 239.027 154.158 238.793 154.197C238.562 154.232 238.336 154.264 238.116 154.293C237.9 154.317 237.724 154.339 237.589 154.357C237.262 154.399 236.957 154.468 236.673 154.564C236.392 154.657 236.165 154.797 235.991 154.985C235.82 155.17 235.735 155.422 235.735 155.741C235.735 156.178 235.897 156.509 236.22 156.732C236.547 156.952 236.96 157.062 237.461 157.062ZM243.314 158V149.818H244.571V153.376H245.402L248.342 149.818H249.961L246.659 153.76L250.004 158H248.385L245.7 154.548H244.571V158H243.314ZM252.627 156.146L256.569 149.818H258.018V158H256.761V151.672L252.84 158H251.37V149.818H252.627V156.146Z" fill="#D6D0D0"/>
<path d="M206.896 181.149V179.913H207.578C207.841 179.913 208.061 179.862 208.239 179.759C208.42 179.656 208.569 179.523 208.686 179.359C208.807 179.196 208.906 179.026 208.984 178.848L209.155 178.443L205.384 170.091H206.811L209.815 176.866L212.564 170.091H213.97L210.199 179.232C210.05 179.572 209.879 179.888 209.688 180.18C209.499 180.471 209.242 180.705 208.915 180.883C208.592 181.06 208.153 181.149 207.599 181.149H206.896ZM214.91 181V172.818H216.167V176.376H216.998L219.939 172.818H221.558L218.256 176.76L221.601 181H219.981L217.297 177.548H216.167V181H214.91ZM222.967 184.068V172.818H224.181V174.118H224.331C224.423 173.976 224.551 173.795 224.714 173.575C224.881 173.351 225.119 173.152 225.428 172.978C225.74 172.8 226.163 172.712 226.696 172.712C227.385 172.712 227.992 172.884 228.517 173.228C229.043 173.573 229.453 174.061 229.748 174.693C230.043 175.325 230.19 176.071 230.19 176.93C230.19 177.797 230.043 178.548 229.748 179.184C229.453 179.816 229.045 180.306 228.523 180.654C228.001 180.998 227.399 181.17 226.717 181.17C226.191 181.17 225.771 181.083 225.455 180.909C225.138 180.732 224.895 180.531 224.725 180.308C224.554 180.08 224.423 179.892 224.331 179.743H224.224V184.068H222.967ZM224.203 176.909C224.203 177.527 224.293 178.072 224.474 178.544C224.656 179.013 224.92 179.381 225.268 179.647C225.616 179.91 226.042 180.041 226.547 180.041C227.072 180.041 227.511 179.903 227.862 179.626C228.217 179.345 228.484 178.969 228.661 178.496C228.842 178.021 228.933 177.491 228.933 176.909C228.933 176.334 228.844 175.815 228.667 175.354C228.493 174.888 228.228 174.521 227.873 174.251C227.521 173.978 227.079 173.841 226.547 173.841C226.035 173.841 225.605 173.971 225.257 174.23C224.909 174.485 224.647 174.844 224.469 175.306C224.292 175.764 224.203 176.298 224.203 176.909ZM234.515 181.192C233.997 181.192 233.526 181.094 233.104 180.899C232.681 180.7 232.346 180.414 232.097 180.041C231.848 179.665 231.724 179.21 231.724 178.678C231.724 178.209 231.816 177.829 232.001 177.538C232.186 177.243 232.433 177.012 232.741 176.845C233.05 176.678 233.391 176.554 233.764 176.472C234.141 176.387 234.519 176.32 234.899 176.27C235.396 176.206 235.799 176.158 236.108 176.126C236.42 176.091 236.648 176.032 236.79 175.95C236.935 175.869 237.008 175.727 237.008 175.524V175.482C237.008 174.956 236.864 174.548 236.577 174.256C236.293 173.965 235.861 173.82 235.282 173.82C234.682 173.82 234.212 173.951 233.871 174.214C233.53 174.477 233.29 174.757 233.152 175.055L231.958 174.629C232.172 174.132 232.456 173.745 232.811 173.468C233.169 173.187 233.56 172.992 233.983 172.882C234.409 172.768 234.828 172.712 235.24 172.712C235.502 172.712 235.804 172.744 236.145 172.808C236.49 172.868 236.822 172.994 237.141 173.186C237.464 173.377 237.733 173.667 237.946 174.054C238.159 174.441 238.265 174.96 238.265 175.609V181H237.008V179.892H236.944C236.859 180.07 236.717 180.26 236.518 180.462C236.319 180.664 236.055 180.837 235.724 180.979C235.394 181.121 234.991 181.192 234.515 181.192ZM234.707 180.062C235.204 180.062 235.623 179.965 235.964 179.77C236.309 179.574 236.568 179.322 236.742 179.013C236.919 178.704 237.008 178.379 237.008 178.038V176.888C236.955 176.952 236.838 177.01 236.657 177.064C236.479 177.113 236.273 177.158 236.039 177.197C235.808 177.232 235.582 177.264 235.362 177.293C235.146 177.317 234.97 177.339 234.835 177.357C234.508 177.399 234.203 177.468 233.919 177.564C233.638 177.657 233.411 177.797 233.237 177.985C233.066 178.17 232.981 178.422 232.981 178.741C232.981 179.178 233.143 179.509 233.466 179.732C233.793 179.952 234.206 180.062 234.707 180.062ZM240.56 172.818H241.817V179.828H244.906V172.818H246.163V179.828H249.253V172.818H250.51V181H240.56V172.818ZM256.236 181.17C255.448 181.17 254.768 180.996 254.196 180.648C253.628 180.297 253.189 179.807 252.88 179.178C252.575 178.546 252.422 177.811 252.422 176.973C252.422 176.135 252.575 175.396 252.88 174.757C253.189 174.114 253.619 173.614 254.169 173.255C254.723 172.893 255.37 172.712 256.108 172.712C256.535 172.712 256.955 172.783 257.371 172.925C257.786 173.067 258.165 173.298 258.505 173.617C258.846 173.933 259.118 174.352 259.32 174.874C259.523 175.396 259.624 176.039 259.624 176.803V177.335H253.317V176.249H258.346C258.346 175.787 258.253 175.375 258.069 175.013C257.888 174.651 257.628 174.365 257.291 174.155C256.957 173.946 256.563 173.841 256.108 173.841C255.608 173.841 255.174 173.965 254.809 174.214C254.446 174.459 254.168 174.778 253.972 175.173C253.777 175.567 253.679 175.989 253.679 176.44V177.165C253.679 177.783 253.786 178.306 253.999 178.736C254.216 179.162 254.516 179.487 254.899 179.711C255.283 179.931 255.728 180.041 256.236 180.041C256.566 180.041 256.865 179.995 257.131 179.903C257.401 179.807 257.634 179.665 257.829 179.477C258.024 179.285 258.175 179.047 258.282 178.763L259.496 179.104C259.368 179.516 259.153 179.878 258.852 180.19C258.55 180.499 258.177 180.741 257.733 180.915C257.289 181.085 256.79 181.17 256.236 181.17ZM267.012 176.334V177.506H262.495V176.334H267.012ZM262.793 172.818V181H261.536V172.818H262.793ZM267.971 172.818V181H266.714V172.818H267.971ZM271.524 179.146L275.466 172.818H276.915V181H275.657V174.672L271.737 181H270.267V172.818H271.524V179.146ZM284.139 181V173.969H281.966C281.475 173.969 281.09 174.082 280.81 174.31C280.529 174.537 280.389 174.849 280.389 175.247C280.389 175.638 280.515 175.945 280.767 176.169C281.023 176.392 281.373 176.504 281.816 176.504H284.458V177.676H281.816C281.262 177.676 280.785 177.578 280.384 177.383C279.982 177.188 279.673 176.909 279.457 176.547C279.24 176.181 279.132 175.748 279.132 175.247C279.132 174.743 279.245 174.31 279.473 173.947C279.7 173.585 280.025 173.306 280.447 173.111C280.874 172.916 281.38 172.818 281.966 172.818H285.332V181H284.139ZM278.684 181L281.007 176.93H282.37L280.048 181H278.684Z" fill="#D6D0D0"/>
<path d="M215.099 196.5H213.778C213.7 196.12 213.564 195.786 213.368 195.499C213.176 195.211 212.942 194.969 212.665 194.774C212.392 194.575 212.088 194.426 211.754 194.327C211.42 194.227 211.072 194.178 210.71 194.178C210.05 194.178 209.451 194.344 208.915 194.678C208.382 195.012 207.958 195.504 207.642 196.154C207.33 196.804 207.173 197.601 207.173 198.545C207.173 199.49 207.33 200.287 207.642 200.937C207.958 201.587 208.382 202.079 208.915 202.413C209.451 202.746 210.05 202.913 210.71 202.913C211.072 202.913 211.42 202.864 211.754 202.764C212.088 202.665 212.392 202.517 212.665 202.322C212.942 202.123 213.176 201.88 213.368 201.592C213.564 201.301 213.7 200.967 213.778 200.591H215.099C215 201.148 214.819 201.647 214.556 202.088C214.293 202.528 213.967 202.903 213.576 203.212C213.185 203.517 212.747 203.75 212.26 203.909C211.777 204.069 211.261 204.149 210.71 204.149C209.78 204.149 208.952 203.922 208.228 203.467C207.504 203.013 206.934 202.366 206.518 201.528C206.103 200.69 205.895 199.696 205.895 198.545C205.895 197.395 206.103 196.401 206.518 195.562C206.934 194.724 207.504 194.078 208.228 193.624C208.952 193.169 209.78 192.942 210.71 192.942C211.261 192.942 211.777 193.022 212.26 193.181C212.747 193.341 213.185 193.576 213.576 193.885C213.967 194.19 214.293 194.563 214.556 195.003C214.819 195.44 215 195.939 215.099 196.5ZM216.595 196.99V195.818H223.243V196.99H220.558V204H219.301V196.99H216.595ZM227.059 204.192C226.541 204.192 226.07 204.094 225.648 203.899C225.225 203.7 224.889 203.414 224.641 203.041C224.392 202.665 224.268 202.21 224.268 201.678C224.268 201.209 224.36 200.829 224.545 200.538C224.73 200.243 224.976 200.012 225.285 199.845C225.594 199.678 225.935 199.554 226.308 199.472C226.685 199.387 227.063 199.32 227.443 199.27C227.94 199.206 228.343 199.158 228.652 199.126C228.964 199.091 229.192 199.032 229.334 198.95C229.479 198.869 229.552 198.727 229.552 198.524V198.482C229.552 197.956 229.408 197.548 229.121 197.256C228.837 196.965 228.405 196.82 227.826 196.82C227.226 196.82 226.756 196.951 226.415 197.214C226.074 197.477 225.834 197.757 225.696 198.055L224.502 197.629C224.715 197.132 225 196.745 225.355 196.468C225.713 196.187 226.104 195.992 226.527 195.882C226.953 195.768 227.372 195.712 227.784 195.712C228.046 195.712 228.348 195.744 228.689 195.808C229.034 195.868 229.366 195.994 229.685 196.186C230.008 196.377 230.277 196.667 230.49 197.054C230.703 197.441 230.809 197.96 230.809 198.609V204H229.552V202.892H229.488C229.403 203.07 229.261 203.26 229.062 203.462C228.863 203.664 228.599 203.837 228.268 203.979C227.938 204.121 227.535 204.192 227.059 204.192ZM227.251 203.062C227.748 203.062 228.167 202.965 228.508 202.77C228.853 202.574 229.112 202.322 229.286 202.013C229.463 201.704 229.552 201.379 229.552 201.038V199.888C229.499 199.952 229.382 200.01 229.201 200.064C229.023 200.113 228.817 200.158 228.583 200.197C228.352 200.232 228.126 200.264 227.906 200.293C227.69 200.317 227.514 200.339 227.379 200.357C227.052 200.399 226.747 200.468 226.463 200.564C226.182 200.657 225.955 200.797 225.781 200.985C225.61 201.17 225.525 201.422 225.525 201.741C225.525 202.178 225.687 202.509 226.01 202.732C226.337 202.952 226.75 203.062 227.251 203.062ZM231.99 196.99V195.818H238.638V196.99H235.953V204H234.696V196.99H231.99ZM241.559 198.78H243.902C244.861 198.78 245.594 199.023 246.102 199.51C246.61 199.996 246.864 200.612 246.864 201.358C246.864 201.848 246.75 202.294 246.523 202.695C246.296 203.093 245.962 203.411 245.522 203.648C245.081 203.883 244.541 204 243.902 204H240.472V195.818H241.729V202.828H243.902C244.399 202.828 244.808 202.697 245.127 202.434C245.447 202.171 245.607 201.834 245.607 201.422C245.607 200.989 245.447 200.635 245.127 200.362C244.808 200.088 244.399 199.952 243.902 199.952H241.559V198.78ZM250.035 202.146L253.976 195.818H255.425V204H254.168V197.672L250.248 204H248.778V195.818H250.035V202.146Z" fill="#D6D0D0"/>
<path d="M214.482 216.091V227H213.161V217.263H207.663V227H206.342V216.091H214.482ZM216.976 230.068V218.818H218.19V220.118H218.339C218.432 219.976 218.56 219.795 218.723 219.575C218.89 219.351 219.128 219.152 219.437 218.978C219.749 218.8 220.172 218.712 220.704 218.712C221.393 218.712 222.001 218.884 222.526 219.228C223.052 219.573 223.462 220.061 223.757 220.693C224.051 221.325 224.199 222.071 224.199 222.93C224.199 223.797 224.051 224.548 223.757 225.184C223.462 225.816 223.054 226.306 222.532 226.654C222.009 226.998 221.408 227.17 220.726 227.17C220.2 227.17 219.779 227.083 219.463 226.909C219.147 226.732 218.904 226.531 218.734 226.308C218.563 226.08 218.432 225.892 218.339 225.743H218.233V230.068H216.976ZM218.212 222.909C218.212 223.527 218.302 224.072 218.483 224.544C218.664 225.013 218.929 225.381 219.277 225.647C219.625 225.91 220.051 226.041 220.555 226.041C221.081 226.041 221.519 225.903 221.871 225.626C222.226 225.345 222.492 224.969 222.67 224.496C222.851 224.021 222.942 223.491 222.942 222.909C222.942 222.334 222.853 221.815 222.675 221.354C222.501 220.888 222.237 220.521 221.882 220.251C221.53 219.978 221.088 219.841 220.555 219.841C220.044 219.841 219.614 219.971 219.266 220.23C218.918 220.485 218.655 220.844 218.478 221.306C218.3 221.764 218.212 222.298 218.212 222.909ZM229.44 227.17C228.702 227.17 228.054 226.995 227.496 226.643C226.942 226.292 226.509 225.8 226.196 225.168C225.887 224.536 225.733 223.797 225.733 222.952C225.733 222.099 225.887 221.355 226.196 220.72C226.509 220.084 226.942 219.591 227.496 219.239C228.054 218.887 228.702 218.712 229.44 218.712C230.179 218.712 230.825 218.887 231.379 219.239C231.937 219.591 232.37 220.084 232.679 220.72C232.991 221.355 233.148 222.099 233.148 222.952C233.148 223.797 232.991 224.536 232.679 225.168C232.37 225.8 231.937 226.292 231.379 226.643C230.825 226.995 230.179 227.17 229.44 227.17ZM229.44 226.041C230.001 226.041 230.463 225.897 230.825 225.61C231.187 225.322 231.456 224.944 231.63 224.475C231.804 224.006 231.891 223.499 231.891 222.952C231.891 222.405 231.804 221.895 231.63 221.423C231.456 220.951 231.187 220.569 230.825 220.278C230.463 219.987 230.001 219.841 229.44 219.841C228.879 219.841 228.418 219.987 228.055 220.278C227.693 220.569 227.425 220.951 227.251 221.423C227.077 221.895 226.99 222.405 226.99 222.952C226.99 223.499 227.077 224.006 227.251 224.475C227.425 224.944 227.693 225.322 228.055 225.61C228.418 225.897 228.879 226.041 229.44 226.041ZM241.373 218.818V227H240.116V218.818H241.373ZM240.883 222.717V223.889C240.599 223.996 240.317 224.09 240.036 224.172C239.756 224.25 239.461 224.312 239.152 224.358C238.843 224.401 238.504 224.422 238.135 224.422C237.208 224.422 236.464 224.172 235.903 223.671C235.345 223.17 235.067 222.419 235.067 221.418V218.797H236.324V221.418C236.324 221.837 236.404 222.181 236.563 222.451C236.723 222.721 236.94 222.922 237.213 223.053C237.487 223.184 237.794 223.25 238.135 223.25C238.667 223.25 239.149 223.202 239.578 223.106C240.012 223.007 240.447 222.877 240.883 222.717ZM247.11 227.17C246.322 227.17 245.642 226.996 245.07 226.648C244.502 226.297 244.063 225.807 243.754 225.178C243.449 224.546 243.296 223.811 243.296 222.973C243.296 222.135 243.449 221.396 243.754 220.757C244.063 220.114 244.493 219.614 245.044 219.255C245.597 218.893 246.244 218.712 246.982 218.712C247.409 218.712 247.829 218.783 248.245 218.925C248.66 219.067 249.039 219.298 249.379 219.617C249.72 219.933 249.992 220.352 250.194 220.874C250.397 221.396 250.498 222.039 250.498 222.803V223.335H244.191V222.249H249.22C249.22 221.787 249.127 221.375 248.943 221.013C248.762 220.651 248.502 220.365 248.165 220.155C247.831 219.946 247.437 219.841 246.982 219.841C246.482 219.841 246.048 219.965 245.683 220.214C245.32 220.459 245.042 220.778 244.846 221.173C244.651 221.567 244.553 221.989 244.553 222.44V223.165C244.553 223.783 244.66 224.306 244.873 224.736C245.09 225.162 245.39 225.487 245.773 225.711C246.157 225.931 246.602 226.041 247.11 226.041C247.441 226.041 247.739 225.995 248.005 225.903C248.275 225.807 248.508 225.665 248.703 225.477C248.898 225.285 249.049 225.047 249.156 224.763L250.37 225.104C250.242 225.516 250.028 225.878 249.726 226.19C249.424 226.499 249.051 226.741 248.607 226.915C248.163 227.085 247.664 227.17 247.11 227.17ZM255.841 227.17C255.052 227.17 254.372 226.996 253.801 226.648C253.232 226.297 252.794 225.807 252.485 225.178C252.18 224.546 252.027 223.811 252.027 222.973C252.027 222.135 252.18 221.396 252.485 220.757C252.794 220.114 253.224 219.614 253.774 219.255C254.328 218.893 254.974 218.712 255.713 218.712C256.139 218.712 256.56 218.783 256.975 218.925C257.391 219.067 257.769 219.298 258.11 219.617C258.451 219.933 258.722 220.352 258.925 220.874C259.127 221.396 259.229 222.039 259.229 222.803V223.335H252.922V222.249H257.95C257.95 221.787 257.858 221.375 257.673 221.013C257.492 220.651 257.233 220.365 256.895 220.155C256.562 219.946 256.167 219.841 255.713 219.841C255.212 219.841 254.779 219.965 254.413 220.214C254.051 220.459 253.772 220.778 253.577 221.173C253.382 221.567 253.284 221.989 253.284 222.44V223.165C253.284 223.783 253.39 224.306 253.604 224.736C253.82 225.162 254.12 225.487 254.504 225.711C254.887 225.931 255.333 226.041 255.841 226.041C256.171 226.041 256.469 225.995 256.736 225.903C257.006 225.807 257.238 225.665 257.433 225.477C257.629 225.285 257.78 225.047 257.886 224.763L259.101 225.104C258.973 225.516 258.758 225.878 258.456 226.19C258.154 226.499 257.781 226.741 257.338 226.915C256.894 227.085 256.395 227.17 255.841 227.17Z" fill="#D6D0D0"/>
<rect width="450" height="15" transform="translate(30 246)" fill="#8988A0"/>
<rect x="30" y="246" width="30" height="10" fill="#7E2A2B"/>
<rect x="70" y="246" width="30" height="5" fill="#2B495D"/>
<rect x="110" y="246" width="30" height="5" fill="#2B495D"/>
<rect x="150" y="246" width="30" height="5" fill="#2B495D"/>
<rect x="70" y="256" width="30" height="5" fill="#2B495D"/>
<rect x="110" y="256" width="30" height="5" fill="#2B495D"/>
<rect x="150" y="256" width="30" height="5" fill="#2B495D"/>
<rect x="415" y="246" width="15" height="10" fill="#2B495D"/>
<rect x="440" y="246" width="15" height="10" fill="#2B495D"/>
<rect x="465" y="246" width="15" height="10" fill="#2B495D"/>
</svg>
