<svg width="510" height="320" viewBox="0 0 510 320" fill="none" xmlns="http://www.w3.org/2000/svg">
<rect y="0.206787" width="510" height="319.121" rx="10.303" fill="#9D9797"/>
<rect x="5.15161" y="5.35815" width="90.2121" height="48.6061" rx="5.15151" fill="#757575"/>
<path d="M30.3655 20.8016V37.6611H27.9041V20.8016H30.3655ZM39.0032 37.9163C37.8177 37.9163 36.7832 37.6447 35.8996 37.1013C35.016 36.558 34.33 35.7979 33.8416 34.821C33.3531 33.8441 33.1089 32.7026 33.1089 31.3964C33.1089 30.0848 33.3531 28.9378 33.8416 27.9554C34.33 26.973 35.016 26.2102 35.8996 25.6668C36.7832 25.1235 37.8177 24.8519 39.0032 24.8519C40.1886 24.8519 41.2231 25.1235 42.1067 25.6668C42.9903 26.2102 43.6763 26.973 44.1647 27.9554C44.6532 28.9378 44.8974 30.0848 44.8974 31.3964C44.8974 32.7026 44.6532 33.8441 44.1647 34.821C43.6763 35.7979 42.9903 36.558 42.1067 37.1013C41.2231 37.6447 40.1886 37.9163 39.0032 37.9163ZM39.0114 35.8501C39.7797 35.8501 40.4163 35.647 40.9212 35.2409C41.4262 34.8348 41.7993 34.2942 42.0408 33.6191C42.2878 32.9441 42.4113 32.2005 42.4113 31.3882C42.4113 30.5815 42.2878 29.8406 42.0408 29.1655C41.7993 28.485 41.4262 27.9389 40.9212 27.5273C40.4163 27.1157 39.7797 26.9099 39.0114 26.9099C38.2376 26.9099 37.5954 27.1157 37.0851 27.5273C36.5801 27.9389 36.2042 28.485 35.9572 29.1655C35.7158 29.8406 35.595 30.5815 35.595 31.3882C35.595 32.2005 35.7158 32.9441 35.9572 33.6191C36.2042 34.2942 36.5801 34.8348 37.0851 35.2409C37.5954 35.647 38.2376 35.8501 39.0114 35.8501ZM52.9464 42.6663C51.9421 42.6663 51.0777 42.5346 50.3533 42.2712C49.6343 42.0077 49.0471 41.6592 48.5916 41.2257C48.1361 40.7921 47.7958 40.3174 47.5708 39.8015L49.6865 38.9289C49.8346 39.1704 50.0322 39.4256 50.2792 39.6945C50.5316 39.9689 50.8719 40.2021 51.3 40.3942C51.7335 40.5863 52.2906 40.6823 52.9711 40.6823C53.9041 40.6823 54.6752 40.4546 55.2843 39.9991C55.8935 39.549 56.1981 38.8301 56.1981 37.8422V35.3561H56.0417C55.8935 35.625 55.6795 35.9241 55.3996 36.2534C55.1252 36.5827 54.7465 36.8681 54.2636 37.1096C53.7806 37.3511 53.1522 37.4718 52.3784 37.4718C51.3795 37.4718 50.4795 37.2385 49.6782 36.7721C48.8825 36.3001 48.2513 35.6058 47.7848 34.6893C47.3238 33.7673 47.0933 32.634 47.0933 31.2894C47.0933 29.9448 47.3211 28.7923 47.7766 27.8319C48.2376 26.8715 48.8687 26.1361 49.67 25.6257C50.4713 25.1098 51.3795 24.8519 52.3948 24.8519C53.1796 24.8519 53.8135 24.9836 54.2965 25.247C54.7794 25.5049 55.1554 25.8068 55.4243 26.1525C55.6987 26.4983 55.91 26.8029 56.0582 27.0663H56.2393V25.0165H58.6513V37.941C58.6513 39.0277 58.3988 39.9195 57.8939 40.6165C57.389 41.3135 56.7058 41.8294 55.8441 42.1641C54.988 42.4989 54.0221 42.6663 52.9464 42.6663ZM52.9217 35.4302C53.6297 35.4302 54.2279 35.2656 54.7163 34.9363C55.2103 34.6015 55.5834 34.124 55.8359 33.5039C56.0938 32.8782 56.2228 32.1291 56.2228 31.2565C56.2228 30.4058 56.0966 29.6567 55.8441 29.0091C55.5917 28.3615 55.2212 27.8566 54.7328 27.4944C54.2443 27.1267 53.6407 26.9428 52.9217 26.9428C52.1808 26.9428 51.5634 27.1349 51.0695 27.5191C50.5755 27.8978 50.2023 28.4137 49.9499 29.0667C49.7029 29.7198 49.5794 30.4497 49.5794 31.2565C49.5794 32.0852 49.7057 32.8124 49.9581 33.438C50.2106 34.0637 50.5838 34.5521 51.0777 34.9034C51.5771 35.2546 52.1918 35.4302 52.9217 35.4302ZM67.2786 37.9163C66.0932 37.9163 65.0587 37.6447 64.1751 37.1013C63.2915 36.558 62.6055 35.7979 62.1171 34.821C61.6286 33.8441 61.3844 32.7026 61.3844 31.3964C61.3844 30.0848 61.6286 28.9378 62.1171 27.9554C62.6055 26.973 63.2915 26.2102 64.1751 25.6668C65.0587 25.1235 66.0932 24.8519 67.2786 24.8519C68.4641 24.8519 69.4986 25.1235 70.3822 25.6668C71.2657 26.2102 71.9518 26.973 72.4402 27.9554C72.9286 28.9378 73.1729 30.0848 73.1729 31.3964C73.1729 32.7026 72.9286 33.8441 72.4402 34.821C71.9518 35.7979 71.2657 36.558 70.3822 37.1013C69.4986 37.6447 68.4641 37.9163 67.2786 37.9163ZM67.2869 35.8501C68.0552 35.8501 68.6918 35.647 69.1967 35.2409C69.7016 34.8348 70.0748 34.2942 70.3163 33.6191C70.5633 32.9441 70.6868 32.2005 70.6868 31.3882C70.6868 30.5815 70.5633 29.8406 70.3163 29.1655C70.0748 28.485 69.7016 27.9389 69.1967 27.5273C68.6918 27.1157 68.0552 26.9099 67.2869 26.9099C66.513 26.9099 65.8709 27.1157 65.3605 27.5273C64.8556 27.9389 64.4797 28.485 64.2327 29.1655C63.9912 29.8406 63.8705 30.5815 63.8705 31.3882C63.8705 32.2005 63.9912 32.9441 64.2327 33.6191C64.4797 34.2942 64.8556 34.8348 65.3605 35.2409C65.8709 35.647 66.513 35.8501 67.2869 35.8501Z" fill="white"/>
<rect x="387.636" y="5.35815" width="117.212" height="48.6061" rx="5.15151" fill="#757575"/>
<path d="M419.566 28.1036L417.335 28.4987C417.242 28.2133 417.093 27.9417 416.89 27.6837C416.693 27.4258 416.424 27.2145 416.084 27.0499C415.743 26.8852 415.318 26.8029 414.808 26.8029C414.111 26.8029 413.529 26.9593 413.062 27.2721C412.596 27.5795 412.363 27.9773 412.363 28.4658C412.363 28.8884 412.519 29.2286 412.832 29.4866C413.145 29.7445 413.65 29.9558 414.347 30.1205L416.355 30.5815C417.519 30.8504 418.386 31.2647 418.957 31.8245C419.527 32.3843 419.813 33.1115 419.813 34.006C419.813 34.7634 419.593 35.4384 419.154 36.0312C418.721 36.6184 418.114 37.0794 417.335 37.4142C416.561 37.7489 415.664 37.9163 414.643 37.9163C413.227 37.9163 412.072 37.6145 411.177 37.0108C410.283 36.4016 409.734 35.5372 409.531 34.4177L411.91 34.0554C412.058 34.6756 412.363 35.1448 412.824 35.4631C413.285 35.776 413.886 35.9324 414.627 35.9324C415.433 35.9324 416.078 35.765 416.561 35.4302C417.044 35.0899 417.285 34.6756 417.285 34.1872C417.285 33.792 417.137 33.46 416.841 33.1911C416.55 32.9221 416.103 32.7191 415.499 32.5819L413.359 32.1126C412.179 31.8437 411.306 31.4157 410.741 30.8284C410.181 30.2412 409.901 29.4976 409.901 28.5975C409.901 27.8511 410.11 27.198 410.527 26.6382C410.944 26.0785 411.52 25.6422 412.256 25.3293C412.991 25.011 413.833 24.8519 414.783 24.8519C416.149 24.8519 417.225 25.1482 418.01 25.7409C418.795 26.3282 419.313 27.1157 419.566 28.1036ZM430.529 32.4172V25.0165H432.999V37.6611H430.578V35.4714H430.447C430.156 36.1464 429.689 36.7089 429.047 37.159C428.411 37.6035 427.618 37.8258 426.668 37.8258C425.856 37.8258 425.137 37.6474 424.511 37.2907C423.891 36.9285 423.403 36.3934 423.046 35.6854C422.695 34.9774 422.519 34.1021 422.519 33.0593V25.0165H424.981V32.763C424.981 33.6246 425.219 34.3106 425.697 34.821C426.174 35.3314 426.794 35.5866 427.557 35.5866C428.018 35.5866 428.476 35.4714 428.932 35.2409C429.393 35.0104 429.774 34.6619 430.076 34.1954C430.384 33.7289 430.535 33.1362 430.529 32.4172ZM436.504 37.6611V20.8016H438.965V27.0663H439.113C439.256 26.8029 439.462 26.4983 439.731 26.1525C439.999 25.8068 440.373 25.5049 440.85 25.247C441.328 24.9836 441.959 24.8519 442.744 24.8519C443.764 24.8519 444.675 25.1098 445.477 25.6257C446.278 26.1416 446.906 26.8852 447.362 27.8566C447.823 28.828 448.053 29.997 448.053 31.3635C448.053 32.7301 447.826 33.9018 447.37 34.8787C446.914 35.8501 446.289 36.5992 445.493 37.126C444.697 37.6474 443.789 37.9081 442.768 37.9081C442 37.9081 441.371 37.7791 440.883 37.5212C440.4 37.2632 440.021 36.9614 439.747 36.6156C439.473 36.2699 439.261 35.9626 439.113 35.6936H438.907V37.6611H436.504ZM438.916 31.3388C438.916 32.2279 439.045 33.0072 439.302 33.6768C439.56 34.3463 439.934 34.8704 440.422 35.2491C440.91 35.6223 441.509 35.8089 442.217 35.8089C442.952 35.8089 443.567 35.6141 444.061 35.2244C444.555 34.8293 444.928 34.2942 445.18 33.6191C445.438 32.9441 445.567 32.184 445.567 31.3388C445.567 30.5046 445.441 29.7555 445.188 29.0914C444.942 28.4274 444.568 27.9033 444.069 27.5191C443.575 27.1349 442.958 26.9428 442.217 26.9428C441.503 26.9428 440.9 27.1267 440.406 27.4944C439.917 27.8621 439.547 28.3752 439.294 29.0338C439.042 29.6924 438.916 30.4607 438.916 31.3388ZM450.817 37.6611V25.0165H453.18V27.0746H453.336C453.6 26.3776 454.031 25.8342 454.629 25.4446C455.227 25.0494 455.943 24.8519 456.777 24.8519C457.622 24.8519 458.33 25.0494 458.901 25.4446C459.477 25.8397 459.903 26.383 460.177 27.0746H460.309C460.611 26.3995 461.091 25.8617 461.75 25.461C462.408 25.0549 463.193 24.8519 464.104 24.8519C465.251 24.8519 466.187 25.2113 466.911 25.9303C467.641 26.6492 468.006 27.7331 468.006 29.182V37.6611H465.545V29.4125C465.545 28.5563 465.311 27.9362 464.845 27.552C464.378 27.1678 463.821 26.9758 463.174 26.9758C462.372 26.9758 461.75 27.2227 461.305 27.7167C460.86 28.2051 460.638 28.8335 460.638 29.6018V37.6611H458.185V29.2561C458.185 28.5701 457.971 28.0185 457.543 27.6014C457.115 27.1843 456.558 26.9758 455.872 26.9758C455.405 26.9758 454.974 27.0992 454.579 27.3462C454.19 27.5877 453.874 27.9252 453.633 28.3588C453.397 28.7923 453.279 29.2945 453.279 29.8653V37.6611H450.817ZM471.305 37.6611V25.0165H473.766V37.6611H471.305ZM472.548 23.0655C472.12 23.0655 471.752 22.9228 471.445 22.6374C471.143 22.3465 470.992 22.0008 470.992 21.6002C470.992 21.194 471.143 20.8483 471.445 20.5629C471.752 20.272 472.12 20.1266 472.548 20.1266C472.976 20.1266 473.341 20.272 473.643 20.5629C473.95 20.8483 474.104 21.194 474.104 21.6002C474.104 22.0008 473.95 22.3465 473.643 22.6374C473.341 22.9228 472.976 23.0655 472.548 23.0655ZM482.98 25.0165V26.9922H476.074V25.0165H482.98ZM477.926 21.9871H480.387V33.9484C480.387 34.4259 480.459 34.7854 480.601 35.0268C480.744 35.2628 480.928 35.4247 481.153 35.5125C481.383 35.5949 481.633 35.636 481.902 35.636C482.099 35.636 482.272 35.6223 482.421 35.5949C482.569 35.5674 482.684 35.5455 482.766 35.529L483.211 37.5623C483.068 37.6172 482.865 37.6721 482.602 37.727C482.338 37.7874 482.009 37.8203 481.614 37.8258C480.966 37.8368 480.363 37.7215 479.803 37.48C479.243 37.2385 478.79 36.8654 478.444 36.3604C478.099 35.8555 477.926 35.2217 477.926 34.4588V21.9871Z" fill="white"/>
<rect x="5.15161" y="64.9644" width="121.111" height="189.606" rx="10.303" fill="#757575"/>
<path d="M39.6537 81.5208C39.6537 82.3208 39.5074 83.0087 39.2147 83.5843C38.922 84.1575 38.5207 84.599 38.0109 84.9088C37.5036 85.2161 36.9267 85.3698 36.2804 85.3698C35.6315 85.3698 35.0522 85.2161 34.5425 84.9088C34.0351 84.599 33.6351 84.1563 33.3424 83.5807C33.0497 83.005 32.9033 82.3184 32.9033 81.5208C32.9033 80.7207 33.0497 80.0341 33.3424 79.4609C33.6351 78.8853 34.0351 78.4438 34.5425 78.1364C35.0522 77.8267 35.6315 77.6718 36.2804 77.6718C36.9267 77.6718 37.5036 77.8267 38.0109 78.1364C38.5207 78.4438 38.922 78.8853 39.2147 79.4609C39.5074 80.0341 39.6537 80.7207 39.6537 81.5208ZM38.5341 81.5208C38.5341 80.911 38.4354 80.3975 38.2378 79.9804C38.0427 79.5609 37.7743 79.2438 37.4329 79.0292C37.0938 78.8121 36.7097 78.7035 36.2804 78.7035C35.8486 78.7035 35.4632 78.8121 35.1242 79.0292C34.7852 79.2438 34.5168 79.5609 34.3193 79.9804C34.1241 80.3975 34.0266 80.911 34.0266 81.5208C34.0266 82.1306 34.1241 82.6452 34.3193 83.0648C34.5168 83.4819 34.7852 83.799 35.1242 84.016C35.4632 84.2307 35.8486 84.338 36.2804 84.338C36.7097 84.338 37.0938 84.2307 37.4329 84.016C37.7743 83.799 38.0427 83.4819 38.2378 83.0648C38.4354 82.6452 38.5341 82.1306 38.5341 81.5208ZM40.9754 87.3748V79.6475H42.0438V80.5585H42.1353C42.1987 80.4414 42.2902 80.3061 42.4097 80.1524C42.5292 79.9987 42.6951 79.8646 42.9073 79.7499C43.1195 79.6329 43.4 79.5743 43.7488 79.5743C44.2025 79.5743 44.6074 79.689 44.9635 79.9182C45.3196 80.1475 45.5989 80.478 45.8013 80.9098C46.0062 81.3415 46.1087 81.861 46.1087 82.4684C46.1087 83.0757 46.0074 83.5965 45.805 84.0307C45.6025 84.4624 45.3245 84.7954 44.9708 85.0295C44.6171 85.2612 44.2134 85.3771 43.7598 85.3771C43.4183 85.3771 43.139 85.3198 42.9219 85.2051C42.7073 85.0905 42.539 84.9563 42.417 84.8027C42.295 84.649 42.2011 84.5124 42.1353 84.3929H42.0694V87.3748H40.9754ZM42.0475 82.4574C42.0475 82.8526 42.1048 83.1989 42.2194 83.4965C42.3341 83.7941 42.4999 84.027 42.717 84.1953C42.9341 84.3612 43.2 84.4441 43.5146 84.4441C43.8415 84.4441 44.1147 84.3575 44.3342 84.1843C44.5537 84.0087 44.7196 83.7709 44.8318 83.4709C44.9464 83.1709 45.0037 82.833 45.0037 82.4574C45.0037 82.0867 44.9476 81.7537 44.8354 81.4586C44.7257 81.1634 44.5598 80.9305 44.3378 80.7598C44.1183 80.589 43.8439 80.5036 43.5146 80.5036C43.1975 80.5036 42.9292 80.5854 42.7097 80.7488C42.4926 80.9122 42.328 81.1403 42.2158 81.433C42.1036 81.7257 42.0475 82.0672 42.0475 82.4574ZM49.9577 79.6475V80.5256H46.888V79.6475H49.9577ZM47.7112 78.3011H48.8052V83.6172C48.8052 83.8294 48.8369 83.9892 48.9003 84.0965C48.9637 84.2014 49.0454 84.2734 49.1454 84.3124C49.2479 84.349 49.3589 84.3673 49.4784 84.3673C49.5662 84.3673 49.643 84.3612 49.7089 84.349C49.7747 84.3368 49.826 84.327 49.8625 84.3197L50.0601 85.2234C49.9967 85.2478 49.9064 85.2722 49.7894 85.2966C49.6723 85.3234 49.5259 85.3381 49.3503 85.3405C49.0625 85.3454 48.7942 85.2942 48.5454 85.1868C48.2966 85.0795 48.0954 84.9137 47.9417 84.6893C47.788 84.4648 47.7112 84.1831 47.7112 83.8441V78.3011ZM51.1678 85.2673V79.6475H52.2618V85.2673H51.1678ZM51.7203 78.7804C51.53 78.7804 51.3666 78.717 51.23 78.5901C51.0958 78.4608 51.0288 78.3072 51.0288 78.1291C51.0288 77.9486 51.0958 77.795 51.23 77.6681C51.3666 77.5388 51.53 77.4742 51.7203 77.4742C51.9105 77.4742 52.0727 77.5388 52.2069 77.6681C52.3435 77.795 52.4118 77.9486 52.4118 78.1291C52.4118 78.3072 52.3435 78.4608 52.2069 78.5901C52.0727 78.717 51.9105 78.7804 51.7203 78.7804ZM56.1007 85.3808C55.5738 85.3808 55.1141 85.26 54.7214 85.0185C54.3286 84.7771 54.0238 84.4392 53.8067 84.0051C53.5896 83.5709 53.481 83.0635 53.481 82.483C53.481 81.9001 53.5896 81.3903 53.8067 80.9537C54.0238 80.5171 54.3286 80.178 54.7214 79.9365C55.1141 79.6951 55.5738 79.5743 56.1007 79.5743C56.6276 79.5743 57.0873 79.6951 57.48 79.9365C57.8728 80.178 58.1776 80.5171 58.3947 80.9537C58.6118 81.3903 58.7204 81.9001 58.7204 82.483C58.7204 83.0635 58.6118 83.5709 58.3947 84.0051C58.1776 84.4392 57.8728 84.7771 57.48 85.0185C57.0873 85.26 56.6276 85.3808 56.1007 85.3808ZM56.1044 84.4624C56.4458 84.4624 56.7288 84.3722 56.9532 84.1917C57.1776 84.0112 57.3435 83.7709 57.4508 83.4709C57.5605 83.1709 57.6154 82.8404 57.6154 82.4794C57.6154 82.1208 57.5605 81.7915 57.4508 81.4915C57.3435 81.1891 57.1776 80.9464 56.9532 80.7634C56.7288 80.5805 56.4458 80.489 56.1044 80.489C55.7604 80.489 55.4751 80.5805 55.2482 80.7634C55.0238 80.9464 54.8567 81.1891 54.747 81.4915C54.6396 81.7915 54.586 82.1208 54.586 82.4794C54.586 82.8404 54.6396 83.1709 54.747 83.4709C54.8567 83.7709 55.0238 84.0112 55.2482 84.1917C55.4751 84.3722 55.7604 84.4624 56.1044 84.4624ZM61.0354 81.9306V85.2673H59.9415V79.6475H60.9915V80.5622H61.061C61.1903 80.2646 61.3928 80.0256 61.6684 79.8451C61.9465 79.6646 62.2965 79.5743 62.7185 79.5743C63.1014 79.5743 63.4368 79.6548 63.7246 79.8158C64.0124 79.9743 64.2356 80.2109 64.3942 80.5256C64.5527 80.8403 64.632 81.2293 64.632 81.6927V85.2673H63.538V81.8245C63.538 81.4171 63.4319 81.0988 63.2197 80.8695C63.0075 80.6378 62.716 80.5219 62.3453 80.5219C62.0916 80.5219 61.866 80.5768 61.6684 80.6866C61.4733 80.7963 61.3184 80.9573 61.2037 81.1695C61.0915 81.3793 61.0354 81.633 61.0354 81.9306ZM70.3104 81.0195L69.3188 81.1951C69.2774 81.0683 69.2115 80.9476 69.1213 80.8329C69.0335 80.7183 68.9139 80.6244 68.7627 80.5512C68.6115 80.478 68.4224 80.4414 68.1956 80.4414C67.8858 80.4414 67.6273 80.511 67.42 80.65C67.2126 80.7866 67.109 80.9634 67.109 81.1805C67.109 81.3683 67.1785 81.5196 67.3175 81.6342C67.4565 81.7488 67.6809 81.8427 67.9907 81.9159L68.8834 82.1208C69.4006 82.2403 69.7859 82.4245 70.0396 82.6733C70.2933 82.9221 70.4201 83.2453 70.4201 83.6429C70.4201 83.9795 70.3226 84.2795 70.1274 84.5429C69.9347 84.8039 69.6652 85.0088 69.3188 85.1576C68.9749 85.3064 68.5761 85.3808 68.1224 85.3808C67.4931 85.3808 66.9797 85.2466 66.5821 84.9783C66.1845 84.7075 65.9406 84.3234 65.8503 83.8258L66.9077 83.6648C66.9736 83.9404 67.109 84.149 67.3138 84.2904C67.5187 84.4295 67.7858 84.499 68.1151 84.499C68.4737 84.499 68.7603 84.4246 68.9749 84.2758C69.1896 84.1246 69.2969 83.9404 69.2969 83.7233C69.2969 83.5477 69.231 83.4002 69.0993 83.2806C68.97 83.1611 68.7712 83.0709 68.5029 83.0099L67.5517 82.8013C67.0272 82.6818 66.6394 82.4916 66.3882 82.2306C66.1394 81.9696 66.015 81.6391 66.015 81.2391C66.015 80.9073 66.1077 80.6171 66.2931 80.3683C66.4784 80.1195 66.7345 79.9256 67.0614 79.7865C67.3882 79.6451 67.7627 79.5743 68.1846 79.5743C68.792 79.5743 69.2701 79.706 69.6189 79.9695C69.9677 80.2305 70.1982 80.5805 70.3104 81.0195Z" fill="#030202"/>
<rect x="15.4546" y="93.9644" width="100.505" height="22.303" rx="5.15151" fill="#1B1515"/>
<path d="M26.6649 109.116V101.623H27.5284V104.389H27.6016C27.665 104.291 27.7528 104.167 27.865 104.015C27.9796 103.862 28.1431 103.725 28.3553 103.606C28.5699 103.484 28.8602 103.423 29.2261 103.423C29.6993 103.423 30.1164 103.541 30.4774 103.778C30.8383 104.014 31.1201 104.35 31.3225 104.784C31.525 105.218 31.6262 105.73 31.6262 106.32C31.6262 106.916 31.525 107.431 31.3225 107.868C31.1201 108.302 30.8396 108.639 30.481 108.878C30.1225 109.115 29.709 109.233 29.2407 109.233C28.8797 109.233 28.5907 109.173 28.3736 109.054C28.1565 108.932 27.9894 108.794 27.8723 108.64C27.7552 108.484 27.665 108.355 27.6016 108.252H27.4991V109.116H26.6649ZM27.5138 106.306C27.5138 106.73 27.576 107.105 27.7004 107.429C27.8248 107.751 28.0065 108.003 28.2455 108.186C28.4846 108.367 28.7773 108.457 29.1236 108.457C29.4846 108.457 29.7858 108.362 30.0273 108.172C30.2712 107.979 30.4542 107.721 30.5761 107.396C30.7005 107.069 30.7627 106.706 30.7627 106.306C30.7627 105.911 30.7018 105.555 30.5798 105.237C30.4603 104.918 30.2786 104.665 30.0346 104.48C29.7932 104.292 29.4895 104.198 29.1236 104.198C28.7724 104.198 28.4772 104.287 28.2382 104.465C27.9992 104.641 27.8187 104.887 27.6967 105.205C27.5747 105.519 27.5138 105.886 27.5138 106.306ZM36.4887 106.818V103.496H37.3521V109.116H36.4887V108.164H36.4301C36.2984 108.45 36.0935 108.693 35.8155 108.893C35.5374 109.09 35.1862 109.189 34.7617 109.189C34.4105 109.189 34.0983 109.112 33.8251 108.958C33.5519 108.802 33.3373 108.568 33.1812 108.256C33.0251 107.941 32.947 107.545 32.947 107.067V103.496H33.8105V107.008C33.8105 107.418 33.9251 107.745 34.1544 107.989C34.3861 108.233 34.6813 108.355 35.0398 108.355C35.2545 108.355 35.4728 108.3 35.6947 108.19C35.9191 108.08 36.1069 107.912 36.2582 107.685C36.4118 107.458 36.4887 107.169 36.4887 106.818ZM41.3777 103.496V104.228H38.4653V103.496H41.3777ZM39.3141 102.149H40.1776V107.506C40.1776 107.75 40.213 107.933 40.2837 108.055C40.3569 108.174 40.4496 108.255 40.5618 108.296C40.6764 108.335 40.7971 108.355 40.924 108.355C41.0191 108.355 41.0972 108.35 41.1581 108.34C41.2191 108.328 41.2679 108.318 41.3045 108.311L41.4801 109.086C41.4216 109.108 41.3399 109.13 41.235 109.152C41.1301 109.177 40.9972 109.189 40.8362 109.189C40.5923 109.189 40.3532 109.136 40.1191 109.032C39.8873 108.927 39.6946 108.767 39.541 108.552C39.3898 108.338 39.3141 108.067 39.3141 107.74V102.149ZM45.1206 103.496V104.228H42.2082V103.496H45.1206ZM43.057 102.149H43.9205V107.506C43.9205 107.75 43.9559 107.933 44.0266 108.055C44.0998 108.174 44.1925 108.255 44.3047 108.296C44.4193 108.335 44.54 108.355 44.6669 108.355C44.762 108.355 44.8401 108.35 44.901 108.34C44.962 108.328 45.0108 108.318 45.0474 108.311L45.223 109.086C45.1645 109.108 45.0828 109.13 44.9779 109.152C44.873 109.177 44.7401 109.189 44.5791 109.189C44.3352 109.189 44.0961 109.136 43.862 109.032C43.6302 108.927 43.4375 108.767 43.2839 108.552C43.1326 108.338 43.057 108.067 43.057 107.74V102.149ZM48.6421 109.233C48.1348 109.233 47.6896 109.112 47.3067 108.871C46.9262 108.629 46.6286 108.291 46.4139 107.857C46.2017 107.423 46.0956 106.916 46.0956 106.335C46.0956 105.75 46.2017 105.239 46.4139 104.802C46.6286 104.365 46.9262 104.026 47.3067 103.785C47.6896 103.543 48.1348 103.423 48.6421 103.423C49.1495 103.423 49.5934 103.543 49.9739 103.785C50.3568 104.026 50.6544 104.365 50.8666 104.802C51.0813 105.239 51.1886 105.75 51.1886 106.335C51.1886 106.916 51.0813 107.423 50.8666 107.857C50.6544 108.291 50.3568 108.629 49.9739 108.871C49.5934 109.112 49.1495 109.233 48.6421 109.233ZM48.6421 108.457C49.0275 108.457 49.3446 108.358 49.5934 108.161C49.8422 107.963 50.0263 107.703 50.1459 107.381C50.2654 107.06 50.3251 106.711 50.3251 106.335C50.3251 105.959 50.2654 105.609 50.1459 105.285C50.0263 104.961 49.8422 104.698 49.5934 104.498C49.3446 104.298 49.0275 104.198 48.6421 104.198C48.2567 104.198 47.9396 104.298 47.6908 104.498C47.442 104.698 47.2579 104.961 47.1384 105.285C47.0188 105.609 46.9591 105.959 46.9591 106.335C46.9591 106.711 47.0188 107.06 47.1384 107.381C47.2579 107.703 47.442 107.963 47.6908 108.161C47.9396 108.358 48.2567 108.457 48.6421 108.457ZM53.3701 105.735V109.116H52.5067V103.496H53.3409V104.374H53.414C53.5457 104.089 53.7458 103.859 54.0141 103.686C54.2824 103.511 54.6287 103.423 55.0531 103.423C55.4337 103.423 55.7666 103.501 56.052 103.657C56.3374 103.811 56.5593 104.045 56.7179 104.359C56.8764 104.672 56.9557 105.067 56.9557 105.545V109.116H56.0922V105.603C56.0922 105.162 55.9776 104.818 55.7483 104.572C55.519 104.323 55.2044 104.198 54.8044 104.198C54.5287 104.198 54.2824 104.258 54.0653 104.378C53.8506 104.497 53.6811 104.672 53.5567 104.901C53.4323 105.13 53.3701 105.408 53.3701 105.735ZM62.5142 104.754L61.7386 104.974C61.6898 104.845 61.6179 104.719 61.5227 104.597C61.43 104.473 61.3032 104.37 61.1422 104.29C60.9812 104.209 60.7751 104.169 60.5239 104.169C60.18 104.169 59.8934 104.248 59.6641 104.407C59.4372 104.563 59.3238 104.762 59.3238 105.003C59.3238 105.218 59.4019 105.387 59.558 105.512C59.7141 105.636 59.958 105.74 60.2897 105.823L61.1239 106.028C61.6264 106.15 62.0008 106.336 62.2472 106.588C62.4935 106.836 62.6167 107.157 62.6167 107.55C62.6167 107.872 62.524 108.16 62.3386 108.413C62.1557 108.667 61.8996 108.867 61.5703 109.013C61.241 109.16 60.8581 109.233 60.4214 109.233C59.8482 109.233 59.3738 109.108 58.9982 108.86C58.6226 108.611 58.3847 108.247 58.2847 107.769L59.1043 107.564C59.1823 107.867 59.3299 108.094 59.547 108.245C59.7665 108.396 60.0531 108.472 60.4068 108.472C60.8093 108.472 61.1288 108.386 61.3654 108.216C61.6044 108.042 61.724 107.835 61.724 107.594C61.724 107.399 61.6557 107.235 61.5191 107.103C61.3825 106.969 61.1727 106.869 60.8898 106.803L59.9531 106.584C59.4385 106.462 59.0604 106.273 58.8189 106.017C58.5799 105.758 58.4604 105.435 58.4604 105.047C58.4604 104.73 58.5494 104.45 58.7274 104.206C58.9079 103.962 59.1531 103.77 59.4629 103.631C59.7751 103.492 60.1287 103.423 60.5239 103.423C61.08 103.423 61.5166 103.545 61.8337 103.789C62.1533 104.033 62.3801 104.354 62.5142 104.754Z" fill="#F6F1F1"/>
<rect x="15.4546" y="122.964" width="100.505" height="22.303" rx="5.15151" fill="white"/>
<path d="M28.8163 140.34C28.3992 140.34 28.0406 140.287 27.7406 140.179C27.4406 140.075 27.1906 139.936 26.9906 139.762C26.793 139.592 26.6357 139.409 26.5186 139.214L27.2064 138.731C27.2845 138.833 27.3833 138.95 27.5028 139.082C27.6223 139.216 27.7857 139.332 27.9931 139.429C28.2028 139.529 28.4772 139.579 28.8163 139.579C29.27 139.579 29.6444 139.47 29.9395 139.25C30.2347 139.031 30.3822 138.687 30.3822 138.218V137.077H30.309C30.2456 137.179 30.1554 137.306 30.0383 137.457C29.9237 137.606 29.7578 137.739 29.5407 137.856C29.3261 137.971 29.0358 138.028 28.6699 138.028C28.2162 138.028 27.8089 137.921 27.4479 137.706C27.0894 137.492 26.8052 137.179 26.5954 136.77C26.3881 136.36 26.2844 135.862 26.2844 135.277C26.2844 134.701 26.3857 134.2 26.5881 133.773C26.7906 133.344 27.0723 133.012 27.4333 132.778C27.7943 132.541 28.2114 132.423 28.6846 132.423C29.0504 132.423 29.3407 132.484 29.5553 132.606C29.7724 132.725 29.9383 132.862 30.0529 133.016C30.17 133.167 30.2603 133.291 30.3237 133.389H30.4115V132.496H31.2457V138.277C31.2457 138.76 31.1359 139.153 30.9164 139.455C30.6993 139.76 30.4066 139.983 30.0383 140.125C29.6724 140.269 29.2651 140.34 28.8163 140.34ZM28.787 137.253C29.1334 137.253 29.4261 137.173 29.6651 137.015C29.9041 136.856 30.0859 136.628 30.2103 136.33C30.3347 136.033 30.3969 135.677 30.3969 135.262C30.3969 134.857 30.3359 134.5 30.2139 134.19C30.092 133.88 29.9115 133.638 29.6724 133.462C29.4334 133.286 29.1382 133.199 28.787 133.199C28.4211 133.199 28.1162 133.291 27.8723 133.477C27.6308 133.662 27.4491 133.911 27.3272 134.223C27.2077 134.535 27.1479 134.882 27.1479 135.262C27.1479 135.652 27.2089 135.998 27.3308 136.298C27.4552 136.595 27.6382 136.829 27.8796 137C28.1236 137.168 28.426 137.253 28.787 137.253ZM32.8263 138.116V132.496H33.6605V133.345H33.719C33.8214 133.067 34.0068 132.841 34.2751 132.668C34.5434 132.495 34.8459 132.408 35.1825 132.408C35.2459 132.408 35.3252 132.41 35.4203 132.412C35.5154 132.414 35.5874 132.418 35.6362 132.423V133.301C35.6069 133.294 35.5398 133.283 35.435 133.268C35.3325 133.251 35.224 133.243 35.1093 133.243C34.8361 133.243 34.5922 133.3 34.3776 133.414C34.1654 133.527 33.9971 133.683 33.8727 133.883C33.7507 134.08 33.6897 134.306 33.6897 134.56V138.116H32.8263ZM36.6597 138.116V132.496H37.5232V138.116H36.6597ZM37.0988 131.559C36.9305 131.559 36.7853 131.502 36.6634 131.388C36.5439 131.273 36.4841 131.135 36.4841 130.974C36.4841 130.813 36.5439 130.675 36.6634 130.561C36.7853 130.446 36.9305 130.389 37.0988 130.389C37.2671 130.389 37.411 130.446 37.5305 130.561C37.6525 130.675 37.7134 130.813 37.7134 130.974C37.7134 131.135 37.6525 131.273 37.5305 131.388C37.411 131.502 37.2671 131.559 37.0988 131.559ZM41.2267 138.233C40.7584 138.233 40.345 138.115 39.9864 137.878C39.6279 137.639 39.3474 137.303 39.1449 136.868C38.9425 136.432 38.8412 135.916 38.8412 135.321C38.8412 134.73 38.9425 134.218 39.1449 133.784C39.3474 133.35 39.6291 133.014 39.9901 132.778C40.3511 132.541 40.7682 132.423 41.2414 132.423C41.6073 132.423 41.8963 132.484 42.1085 132.606C42.3232 132.725 42.4866 132.862 42.5988 133.016C42.7134 133.167 42.8024 133.291 42.8659 133.389H42.939V130.623H43.8025V138.116H42.9683V137.253H42.8659C42.8024 137.355 42.7122 137.484 42.5951 137.64C42.478 137.794 42.311 137.932 42.0939 138.054C41.8768 138.173 41.5877 138.233 41.2267 138.233ZM41.3438 137.457C41.6902 137.457 41.9829 137.367 42.2219 137.187C42.461 137.004 42.6427 136.751 42.7671 136.429C42.8915 136.105 42.9537 135.73 42.9537 135.306C42.9537 134.887 42.8927 134.519 42.7707 134.205C42.6488 133.888 42.4683 133.641 42.2292 133.466C41.9902 133.288 41.6951 133.199 41.3438 133.199C40.978 133.199 40.6731 133.293 40.4291 133.48C40.1877 133.666 40.0059 133.918 39.884 134.238C39.7645 134.555 39.7047 134.911 39.7047 135.306C39.7047 135.706 39.7657 136.07 39.8876 136.396C40.012 136.721 40.195 136.979 40.4365 137.172C40.6804 137.362 40.9828 137.457 41.3438 137.457ZM49.4845 133.755L48.7089 133.974C48.6601 133.845 48.5881 133.719 48.493 133.597C48.4003 133.473 48.2735 133.371 48.1125 133.29C47.9515 133.21 47.7454 133.169 47.4942 133.169C47.1503 133.169 46.8637 133.249 46.6344 133.407C46.4075 133.563 46.2941 133.762 46.2941 134.004C46.2941 134.218 46.3722 134.388 46.5283 134.512C46.6844 134.636 46.9283 134.74 47.26 134.823L48.0942 135.028C48.5967 135.15 48.9711 135.337 49.2174 135.588C49.4638 135.837 49.587 136.157 49.587 136.55C49.587 136.872 49.4943 137.16 49.3089 137.413C49.126 137.667 48.8699 137.867 48.5406 138.014C48.2113 138.16 47.8283 138.233 47.3917 138.233C46.8185 138.233 46.3441 138.109 45.9685 137.86C45.5929 137.611 45.355 137.248 45.255 136.77L46.0746 136.565C46.1526 136.867 46.3002 137.094 46.5173 137.245C46.7368 137.396 47.0234 137.472 47.3771 137.472C47.7796 137.472 48.0991 137.387 48.3357 137.216C48.5747 137.043 48.6942 136.835 48.6942 136.594C48.6942 136.399 48.626 136.235 48.4894 136.104C48.3528 135.97 48.143 135.869 47.8601 135.804L46.9234 135.584C46.4088 135.462 46.0307 135.273 45.7892 135.017C45.5502 134.758 45.4306 134.435 45.4306 134.047C45.4306 133.73 45.5197 133.45 45.6977 133.206C45.8782 132.962 46.1234 132.771 46.4331 132.632C46.7454 132.492 47.099 132.423 47.4942 132.423C48.0503 132.423 48.4869 132.545 48.804 132.789C49.1235 133.033 49.3504 133.355 49.4845 133.755Z" fill="#030202"/>
<rect x="15.4546" y="151.964" width="100.505" height="22.303" rx="5.15151" fill="white"/>
<path d="M28.9919 161.496V162.228H26.0795V161.496H28.9919ZM26.9284 160.15H27.7918V165.506C27.7918 165.75 27.8272 165.933 27.8979 166.055C27.9711 166.174 28.0638 166.255 28.176 166.296C28.2906 166.335 28.4114 166.355 28.5382 166.355C28.6333 166.355 28.7114 166.35 28.7724 166.34C28.8334 166.328 28.8821 166.318 28.9187 166.311L29.0943 167.087C29.0358 167.109 28.9541 167.131 28.8492 167.153C28.7443 167.177 28.6114 167.189 28.4504 167.189C28.2065 167.189 27.9675 167.137 27.7333 167.032C27.5016 166.927 27.3089 166.767 27.1552 166.553C27.004 166.338 26.9284 166.067 26.9284 165.74V160.15ZM32.5134 167.233C32.0061 167.233 31.5609 167.112 31.178 166.871C30.7975 166.629 30.4999 166.292 30.2853 165.857C30.0731 165.423 29.967 164.916 29.967 164.335C29.967 163.75 30.0731 163.239 30.2853 162.802C30.4999 162.366 30.7975 162.027 31.178 161.785C31.5609 161.544 32.0061 161.423 32.5134 161.423C33.0208 161.423 33.4647 161.544 33.8452 161.785C34.2282 162.027 34.5258 162.366 34.738 162.802C34.9526 163.239 35.0599 163.75 35.0599 164.335C35.0599 164.916 34.9526 165.423 34.738 165.857C34.5258 166.292 34.2282 166.629 33.8452 166.871C33.4647 167.112 33.0208 167.233 32.5134 167.233ZM32.5134 166.457C32.8988 166.457 33.2159 166.359 33.4647 166.161C33.7135 165.963 33.8977 165.704 34.0172 165.382C34.1367 165.06 34.1965 164.711 34.1965 164.335C34.1965 163.96 34.1367 163.61 34.0172 163.285C33.8977 162.961 33.7135 162.699 33.4647 162.499C33.2159 162.299 32.8988 162.199 32.5134 162.199C32.1281 162.199 31.811 162.299 31.5622 162.499C31.3134 162.699 31.1292 162.961 31.0097 163.285C30.8902 163.61 30.8304 163.96 30.8304 164.335C30.8304 164.711 30.8902 165.06 31.0097 165.382C31.1292 165.704 31.3134 165.963 31.5622 166.161C31.811 166.359 32.1281 166.457 32.5134 166.457ZM38.6464 169.34C38.2293 169.34 37.8708 169.287 37.5707 169.179C37.2707 169.075 37.0207 168.936 36.8207 168.762C36.6231 168.592 36.4658 168.409 36.3487 168.214L37.0366 167.731C37.1146 167.833 37.2134 167.95 37.3329 168.082C37.4524 168.216 37.6159 168.332 37.8232 168.429C38.033 168.529 38.3074 168.579 38.6464 168.579C39.1001 168.579 39.4745 168.47 39.7697 168.25C40.0648 168.031 40.2124 167.687 40.2124 167.218V166.077H40.1392C40.0758 166.179 39.9855 166.306 39.8684 166.457C39.7538 166.606 39.5879 166.739 39.3708 166.856C39.1562 166.971 38.8659 167.028 38.5001 167.028C38.0464 167.028 37.639 166.921 37.278 166.706C36.9195 166.492 36.6353 166.179 36.4256 165.77C36.2182 165.36 36.1146 164.862 36.1146 164.277C36.1146 163.701 36.2158 163.2 36.4182 162.773C36.6207 162.344 36.9024 162.012 37.2634 161.778C37.6244 161.541 38.0415 161.423 38.5147 161.423C38.8806 161.423 39.1708 161.484 39.3855 161.606C39.6026 161.725 39.7684 161.862 39.8831 162.016C40.0002 162.167 40.0904 162.291 40.1538 162.389H40.2416V161.496H41.0758V167.277C41.0758 167.76 40.9661 168.153 40.7465 168.455C40.5295 168.76 40.2368 168.983 39.8684 169.125C39.5026 169.269 39.0952 169.34 38.6464 169.34ZM38.6171 166.253C38.9635 166.253 39.2562 166.173 39.4952 166.015C39.7343 165.856 39.916 165.628 40.0404 165.33C40.1648 165.033 40.227 164.677 40.227 164.262C40.227 163.857 40.166 163.5 40.0441 163.19C39.9221 162.88 39.7416 162.638 39.5026 162.462C39.2635 162.286 38.9684 162.199 38.6171 162.199C38.2513 162.199 37.9464 162.291 37.7025 162.477C37.461 162.662 37.2793 162.911 37.1573 163.223C37.0378 163.535 36.978 163.882 36.978 164.262C36.978 164.652 37.039 164.998 37.161 165.298C37.2854 165.595 37.4683 165.829 37.7098 166C37.9537 166.168 38.2562 166.253 38.6171 166.253ZM44.9248 169.34C44.5077 169.34 44.1492 169.287 43.8492 169.179C43.5491 169.075 43.2991 168.936 43.0991 168.762C42.9015 168.592 42.7442 168.409 42.6271 168.214L43.315 167.731C43.393 167.833 43.4918 167.95 43.6113 168.082C43.7309 168.216 43.8943 168.332 44.1016 168.429C44.3114 168.529 44.5858 168.579 44.9248 168.579C45.3785 168.579 45.7529 168.47 46.0481 168.25C46.3432 168.031 46.4908 167.687 46.4908 167.218V166.077H46.4176C46.3542 166.179 46.2639 166.306 46.1468 166.457C46.0322 166.606 45.8663 166.739 45.6493 166.856C45.4346 166.971 45.1444 167.028 44.7785 167.028C44.3248 167.028 43.9175 166.921 43.5565 166.706C43.1979 166.492 42.9137 166.179 42.704 165.77C42.4966 165.36 42.393 164.862 42.393 164.277C42.393 163.701 42.4942 163.2 42.6966 162.773C42.8991 162.344 43.1808 162.012 43.5418 161.778C43.9028 161.541 44.3199 161.423 44.7931 161.423C45.159 161.423 45.4492 161.484 45.6639 161.606C45.881 161.725 46.0468 161.862 46.1615 162.016C46.2786 162.167 46.3688 162.291 46.4322 162.389H46.52V161.496H47.3542V167.277C47.3542 167.76 47.2445 168.153 47.0249 168.455C46.8079 168.76 46.5152 168.983 46.1468 169.125C45.781 169.269 45.3736 169.34 44.9248 169.34ZM44.8956 166.253C45.2419 166.253 45.5346 166.173 45.7737 166.015C46.0127 165.856 46.1944 165.628 46.3188 165.33C46.4432 165.033 46.5054 164.677 46.5054 164.262C46.5054 163.857 46.4444 163.5 46.3225 163.19C46.2005 162.88 46.02 162.638 45.781 162.462C45.5419 162.286 45.2468 162.199 44.8956 162.199C44.5297 162.199 44.2248 162.291 43.9809 162.477C43.7394 162.662 43.5577 162.911 43.4357 163.223C43.3162 163.535 43.2564 163.882 43.2564 164.262C43.2564 164.652 43.3174 164.998 43.4394 165.298C43.5638 165.595 43.7467 165.829 43.9882 166C44.2321 166.168 44.5346 166.253 44.8956 166.253ZM49.7983 159.623V167.116H48.9348V159.623H49.7983ZM53.736 167.233C53.1945 167.233 52.7274 167.114 52.3347 166.874C51.9444 166.633 51.6432 166.296 51.431 165.865C51.2212 165.431 51.1163 164.926 51.1163 164.35C51.1163 163.774 51.2212 163.267 51.431 162.828C51.6432 162.386 51.9383 162.043 52.3164 161.796C52.6969 161.547 53.1408 161.423 53.6482 161.423C53.9409 161.423 54.2299 161.472 54.5153 161.569C54.8007 161.667 55.0605 161.825 55.2946 162.045C55.5288 162.262 55.7154 162.55 55.8544 162.908C55.9934 163.267 56.063 163.708 56.063 164.233V164.599H51.731V163.852H55.1849C55.1849 163.535 55.1214 163.252 54.9946 163.004C54.8702 162.755 54.6922 162.558 54.4604 162.414C54.2312 162.271 53.9604 162.199 53.6482 162.199C53.3043 162.199 53.0067 162.284 52.7555 162.455C52.5067 162.623 52.3152 162.843 52.181 163.113C52.0469 163.384 51.9798 163.674 51.9798 163.984V164.482C51.9798 164.906 52.053 165.266 52.1993 165.561C52.3481 165.854 52.5542 166.077 52.8177 166.231C53.0811 166.382 53.3872 166.457 53.736 166.457C53.9628 166.457 54.1677 166.426 54.3507 166.362C54.536 166.296 54.6958 166.199 54.83 166.07C54.9641 165.938 55.0678 165.774 55.141 165.579L55.9752 165.813C55.8873 166.096 55.7398 166.345 55.5324 166.56C55.3251 166.772 55.069 166.938 54.7641 167.057C54.4592 167.175 54.1165 167.233 53.736 167.233ZM64.2549 162.755L63.4792 162.974C63.4305 162.845 63.3585 162.719 63.2634 162.597C63.1707 162.473 63.0439 162.371 62.8829 162.29C62.7219 162.21 62.5158 162.169 62.2645 162.169C61.9206 162.169 61.634 162.249 61.4047 162.407C61.1779 162.563 61.0645 162.762 61.0645 163.004C61.0645 163.218 61.1425 163.388 61.2986 163.512C61.4547 163.636 61.6987 163.74 62.0304 163.823L62.8646 164.028C63.367 164.15 63.7415 164.337 63.9878 164.588C64.2342 164.837 64.3573 165.157 64.3573 165.55C64.3573 165.872 64.2647 166.16 64.0793 166.413C63.8963 166.667 63.6402 166.867 63.3109 167.014C62.9817 167.16 62.5987 167.233 62.1621 167.233C61.5889 167.233 61.1145 167.109 60.7388 166.86C60.3632 166.611 60.1254 166.248 60.0254 165.77L60.8449 165.565C60.923 165.867 61.0706 166.094 61.2877 166.245C61.5072 166.396 61.7938 166.472 62.1475 166.472C62.5499 166.472 62.8695 166.387 63.106 166.216C63.3451 166.043 63.4646 165.835 63.4646 165.594C63.4646 165.399 63.3963 165.235 63.2597 165.104C63.1231 164.97 62.9134 164.869 62.6304 164.804L61.6938 164.584C61.1791 164.462 60.801 164.273 60.5596 164.017C60.3205 163.758 60.201 163.435 60.201 163.047C60.201 162.73 60.29 162.45 60.4681 162.206C60.6486 161.962 60.8937 161.771 61.2035 161.632C61.5157 161.492 61.8694 161.423 62.2645 161.423C62.8207 161.423 63.2573 161.545 63.5744 161.789C63.8939 162.033 64.1207 162.355 64.2549 162.755ZM66.9304 167.116L65.2181 161.496H66.1254L67.3401 165.799H67.3987L68.5987 161.496H69.5207L70.7062 165.784H70.7647L71.9794 161.496H72.8868L71.1745 167.116H70.3257L69.0963 162.799H69.0085L67.7792 167.116H66.9304ZM74.0283 167.116V161.496H74.8918V167.116H74.0283ZM74.4674 160.559C74.2991 160.559 74.1539 160.502 74.032 160.388C73.9125 160.273 73.8527 160.135 73.8527 159.974C73.8527 159.813 73.9125 159.675 74.032 159.561C74.1539 159.446 74.2991 159.389 74.4674 159.389C74.6357 159.389 74.7796 159.446 74.8991 159.561C75.0211 159.675 75.082 159.813 75.082 159.974C75.082 160.135 75.0211 160.273 74.8991 160.388C74.7796 160.502 74.6357 160.559 74.4674 160.559ZM78.9173 161.496V162.228H76.005V161.496H78.9173ZM76.8538 160.15H77.7173V165.506C77.7173 165.75 77.7526 165.933 77.8234 166.055C77.8965 166.174 77.9892 166.255 78.1014 166.296C78.2161 166.335 78.3368 166.355 78.4636 166.355C78.5588 166.355 78.6368 166.35 78.6978 166.34C78.7588 166.328 78.8076 166.318 78.8441 166.311L79.0198 167.087C78.9612 167.109 78.8795 167.131 78.7746 167.153C78.6697 167.177 78.5368 167.189 78.3758 167.189C78.1319 167.189 77.8929 167.137 77.6587 167.032C77.427 166.927 77.2343 166.767 77.0806 166.553C76.9294 166.338 76.8538 166.067 76.8538 165.74V160.15ZM82.4389 167.233C81.912 167.233 81.4583 167.109 81.0778 166.86C80.6973 166.611 80.4046 166.268 80.1997 165.832C79.9948 165.395 79.8924 164.896 79.8924 164.335C79.8924 163.765 79.9973 163.261 80.207 162.824C80.4192 162.385 80.7144 162.043 81.0924 161.796C81.473 161.547 81.9169 161.423 82.4242 161.423C82.8194 161.423 83.1755 161.496 83.4926 161.642C83.8097 161.789 84.0694 161.994 84.2719 162.257C84.4743 162.521 84.6 162.828 84.6487 163.179H83.7853C83.7194 162.923 83.5731 162.696 83.3462 162.499C83.1218 162.299 82.8194 162.199 82.4389 162.199C82.1023 162.199 81.8071 162.286 81.5534 162.462C81.3022 162.635 81.1059 162.88 80.9644 163.197C80.8254 163.512 80.7558 163.882 80.7558 164.306C80.7558 164.74 80.8241 165.118 80.9607 165.44C81.0998 165.762 81.2949 166.012 81.5461 166.19C81.7998 166.368 82.0974 166.457 82.4389 166.457C82.6633 166.457 82.8669 166.418 83.0499 166.34C83.2328 166.262 83.3877 166.15 83.5145 166.004C83.6414 165.857 83.7316 165.682 83.7853 165.477H84.6487C84.6 165.809 84.4792 166.107 84.2865 166.373C84.0963 166.637 83.8438 166.846 83.5292 167.003C83.217 167.156 82.8535 167.233 82.4389 167.233ZM86.7745 163.735V167.116H85.911V159.623H86.7745V162.374H86.8477C86.9794 162.084 87.1769 161.853 87.4404 161.683C87.7062 161.51 88.0599 161.423 88.5014 161.423C88.8844 161.423 89.2197 161.5 89.5076 161.653C89.7954 161.805 90.0186 162.038 90.1771 162.352C90.3381 162.664 90.4186 163.062 90.4186 163.545V167.116H89.5551V163.604C89.5551 163.157 89.4393 162.812 89.2075 162.568C88.9783 162.322 88.66 162.199 88.2526 162.199C87.9697 162.199 87.716 162.258 87.4916 162.378C87.2696 162.497 87.094 162.672 86.9647 162.901C86.8379 163.13 86.7745 163.408 86.7745 163.735ZM94.3545 167.233C93.813 167.233 93.3459 167.114 92.9532 166.874C92.5629 166.633 92.2617 166.296 92.0495 165.865C91.8397 165.431 91.7348 164.926 91.7348 164.35C91.7348 163.774 91.8397 163.267 92.0495 162.828C92.2617 162.386 92.5568 162.043 92.9349 161.796C93.3154 161.547 93.7593 161.423 94.2667 161.423C94.5594 161.423 94.8484 161.472 95.1338 161.569C95.4192 161.667 95.679 161.825 95.9131 162.045C96.1473 162.262 96.3339 162.55 96.4729 162.908C96.6119 163.267 96.6814 163.708 96.6814 164.233V164.599H92.3495V163.852H95.8033C95.8033 163.535 95.7399 163.252 95.6131 163.004C95.4887 162.755 95.3106 162.558 95.0789 162.414C94.8496 162.271 94.5789 162.199 94.2667 162.199C93.9228 162.199 93.6252 162.284 93.3739 162.455C93.1251 162.623 92.9337 162.843 92.7995 163.113C92.6654 163.384 92.5983 163.674 92.5983 163.984V164.482C92.5983 164.906 92.6715 165.266 92.8178 165.561C92.9666 165.854 93.1727 166.077 93.4361 166.231C93.6996 166.382 94.0057 166.457 94.3545 166.457C94.5813 166.457 94.7862 166.426 94.9692 166.362C95.1545 166.296 95.3143 166.199 95.4484 166.07C95.5826 165.938 95.6863 165.774 95.7594 165.579L96.5936 165.813C96.5058 166.096 96.3583 166.345 96.1509 166.56C95.9436 166.772 95.6875 166.938 95.3826 167.057C95.0777 167.175 94.735 167.233 94.3545 167.233ZM101.976 162.755L101.2 162.974C101.151 162.845 101.079 162.719 100.984 162.597C100.891 162.473 100.765 162.371 100.604 162.29C100.443 162.21 100.237 162.169 99.9853 162.169C99.6414 162.169 99.3548 162.249 99.1255 162.407C98.8987 162.563 98.7852 162.762 98.7852 163.004C98.7852 163.218 98.8633 163.388 99.0194 163.512C99.1755 163.636 99.4194 163.74 99.7511 163.823L100.585 164.028C101.088 164.15 101.462 164.337 101.709 164.588C101.955 164.837 102.078 165.157 102.078 165.55C102.078 165.872 101.985 166.16 101.8 166.413C101.617 166.667 101.361 166.867 101.032 167.014C100.702 167.16 100.319 167.233 99.8829 167.233C99.3096 167.233 98.8352 167.109 98.4596 166.86C98.084 166.611 97.8462 166.248 97.7461 165.77L98.5657 165.565C98.6438 165.867 98.7913 166.094 99.0084 166.245C99.2279 166.396 99.5145 166.472 99.8682 166.472C100.271 166.472 100.59 166.387 100.827 166.216C101.066 166.043 101.185 165.835 101.185 165.594C101.185 165.399 101.117 165.235 100.98 165.104C100.844 164.97 100.634 164.869 100.351 164.804L99.4145 164.584C98.8999 164.462 98.5218 164.273 98.2803 164.017C98.0413 163.758 97.9218 163.435 97.9218 163.047C97.9218 162.73 98.0108 162.45 98.1889 162.206C98.3694 161.962 98.6145 161.771 98.9243 161.632C99.2365 161.492 99.5902 161.423 99.9853 161.423C100.541 161.423 100.978 161.545 101.295 161.789C101.615 162.033 101.842 162.355 101.976 162.755Z" fill="#030202"/>
<rect x="15.4546" y="180.964" width="100.505" height="22.303" rx="5.15151" fill="white"/>
<path d="M27.4113 188.623V196.116H26.5479V188.623H27.4113ZM28.9928 196.116V190.496H29.8563V196.116H28.9928ZM29.4319 189.559C29.2636 189.559 29.1184 189.502 28.9965 189.387C28.877 189.273 28.8172 189.135 28.8172 188.974C28.8172 188.813 28.877 188.675 28.9965 188.56C29.1184 188.446 29.2636 188.388 29.4319 188.388C29.6002 188.388 29.7441 188.446 29.8636 188.56C29.9856 188.675 30.0465 188.813 30.0465 188.974C30.0465 189.135 29.9856 189.273 29.8636 189.387C29.7441 189.502 29.6002 189.559 29.4319 189.559ZM32.3012 192.735V196.116H31.4378V190.496H32.272V191.374H32.3451C32.4769 191.089 32.6769 190.859 32.9452 190.686C33.2135 190.511 33.5598 190.423 33.9843 190.423C34.3648 190.423 34.6977 190.501 34.9831 190.657C35.2685 190.811 35.4904 191.045 35.649 191.359C35.8075 191.672 35.8868 192.067 35.8868 192.545V196.116H35.0233V192.603C35.0233 192.162 34.9087 191.818 34.6794 191.572C34.4501 191.323 34.1355 191.198 33.7355 191.198C33.4598 191.198 33.2135 191.258 32.9964 191.378C32.7818 191.497 32.6122 191.672 32.4878 191.901C32.3634 192.13 32.3012 192.408 32.3012 192.735ZM38.2696 194.067L38.2549 192.998H38.4306L40.8892 190.496H41.9576L39.3379 193.145H39.2647L38.2696 194.067ZM37.4646 196.116V188.623H38.3281V196.116H37.4646ZM41.0356 196.116L38.8403 193.335L39.455 192.735L42.1332 196.116H41.0356ZM47.0496 191.754L46.274 191.974C46.2252 191.845 46.1532 191.719 46.0581 191.597C45.9654 191.473 45.8386 191.37 45.6776 191.29C45.5166 191.209 45.3105 191.169 45.0593 191.169C44.7154 191.169 44.4288 191.248 44.1995 191.407C43.9726 191.563 43.8592 191.762 43.8592 192.003C43.8592 192.218 43.9373 192.387 44.0934 192.512C44.2495 192.636 44.4934 192.74 44.8251 192.823L45.6593 193.028C46.1618 193.15 46.5362 193.336 46.7826 193.588C47.0289 193.836 47.1521 194.157 47.1521 194.55C47.1521 194.872 47.0594 195.16 46.874 195.413C46.6911 195.667 46.435 195.867 46.1057 196.013C45.7764 196.16 45.3934 196.233 44.9568 196.233C44.3836 196.233 43.9092 196.108 43.5336 195.86C43.158 195.611 42.9201 195.247 42.8201 194.769L43.6397 194.564C43.7177 194.867 43.8653 195.094 44.0824 195.245C44.3019 195.396 44.5885 195.472 44.9422 195.472C45.3447 195.472 45.6642 195.386 45.9008 195.216C46.1398 195.042 46.2594 194.835 46.2594 194.594C46.2594 194.399 46.1911 194.235 46.0545 194.103C45.9179 193.969 45.7081 193.869 45.4252 193.803L44.4885 193.584C43.9739 193.462 43.5958 193.273 43.3543 193.017C43.1153 192.758 42.9958 192.435 42.9958 192.047C42.9958 191.73 43.0848 191.45 43.2628 191.206C43.4433 190.962 43.6885 190.77 43.9982 190.631C44.3105 190.492 44.6641 190.423 45.0593 190.423C45.6154 190.423 46.052 190.545 46.3691 190.789C46.6886 191.033 46.9155 191.354 47.0496 191.754Z" fill="#030202"/>
<rect x="15.4546" y="209.964" width="100.505" height="34.303" rx="5.15151" fill="white"/>
<path d="M28.6699 225.233C28.2016 225.233 27.7882 225.115 27.4296 224.878C27.0711 224.639 26.7906 224.303 26.5881 223.868C26.3857 223.432 26.2844 222.916 26.2844 222.321C26.2844 221.73 26.3857 221.218 26.5881 220.784C26.7906 220.35 27.0723 220.014 27.4333 219.778C27.7943 219.541 28.2114 219.423 28.6846 219.423C29.0504 219.423 29.3395 219.484 29.5517 219.606C29.7663 219.725 29.9298 219.862 30.042 220.016C30.1566 220.167 30.2456 220.291 30.309 220.389H30.3822V217.623H31.2457V225.116H30.4115V224.253H30.309C30.2456 224.355 30.1554 224.484 30.0383 224.64C29.9212 224.794 29.7541 224.932 29.5371 225.054C29.32 225.173 29.0309 225.233 28.6699 225.233ZM28.787 224.457C29.1334 224.457 29.4261 224.367 29.6651 224.187C29.9041 224.004 30.0859 223.751 30.2103 223.429C30.3347 223.105 30.3969 222.73 30.3969 222.306C30.3969 221.887 30.3359 221.519 30.2139 221.205C30.092 220.888 29.9115 220.641 29.6724 220.466C29.4334 220.288 29.1382 220.199 28.787 220.199C28.4211 220.199 28.1162 220.293 27.8723 220.48C27.6308 220.666 27.4491 220.918 27.3272 221.238C27.2077 221.555 27.1479 221.911 27.1479 222.306C27.1479 222.706 27.2089 223.07 27.3308 223.396C27.4552 223.721 27.6382 223.979 27.8796 224.172C28.1236 224.362 28.426 224.457 28.787 224.457ZM32.947 225.116V219.496H33.7812V220.345H33.8397C33.9422 220.067 34.1276 219.841 34.3959 219.668C34.6642 219.495 34.9666 219.408 35.3032 219.408C35.3667 219.408 35.4459 219.41 35.5411 219.412C35.6362 219.414 35.7081 219.418 35.7569 219.423V220.301C35.7277 220.294 35.6606 220.283 35.5557 220.268C35.4532 220.251 35.3447 220.243 35.2301 220.243C34.9569 220.243 34.713 220.3 34.4983 220.414C34.2861 220.527 34.1178 220.683 33.9934 220.883C33.8714 221.08 33.8105 221.306 33.8105 221.56V225.116H32.947ZM38.8925 225.233C38.3851 225.233 37.94 225.112 37.557 224.871C37.1765 224.629 36.8789 224.292 36.6643 223.857C36.4521 223.423 36.346 222.916 36.346 222.335C36.346 221.75 36.4521 221.239 36.6643 220.802C36.8789 220.366 37.1765 220.027 37.557 219.785C37.94 219.544 38.3851 219.423 38.8925 219.423C39.3998 219.423 39.8437 219.544 40.2243 219.785C40.6072 220.027 40.9048 220.366 41.117 220.802C41.3316 221.239 41.439 221.75 41.439 222.335C41.439 222.916 41.3316 223.423 41.117 223.857C40.9048 224.292 40.6072 224.629 40.2243 224.871C39.8437 225.112 39.3998 225.233 38.8925 225.233ZM38.8925 224.457C39.2779 224.457 39.5949 224.359 39.8437 224.161C40.0925 223.963 40.2767 223.704 40.3962 223.382C40.5157 223.06 40.5755 222.711 40.5755 222.335C40.5755 221.96 40.5157 221.61 40.3962 221.285C40.2767 220.961 40.0925 220.699 39.8437 220.499C39.5949 220.299 39.2779 220.199 38.8925 220.199C38.5071 220.199 38.19 220.299 37.9412 220.499C37.6924 220.699 37.5082 220.961 37.3887 221.285C37.2692 221.61 37.2094 221.96 37.2094 222.335C37.2094 222.711 37.2692 223.06 37.3887 223.382C37.5082 223.704 37.6924 223.963 37.9412 224.161C38.19 224.359 38.5071 224.457 38.8925 224.457ZM42.757 227.223V219.496H43.5912V220.389H43.6937C43.7571 220.291 43.8449 220.167 43.9571 220.016C44.0717 219.862 44.2352 219.725 44.4474 219.606C44.662 219.484 44.9523 219.423 45.3181 219.423C45.7913 219.423 46.2084 219.541 46.5694 219.778C46.9304 220.014 47.2122 220.35 47.4146 220.784C47.6171 221.218 47.7183 221.73 47.7183 222.321C47.7183 222.916 47.6171 223.432 47.4146 223.868C47.2122 224.303 46.9316 224.639 46.5731 224.878C46.2145 225.115 45.8011 225.233 45.3328 225.233C44.9718 225.233 44.6827 225.173 44.4657 225.054C44.2486 224.932 44.0815 224.794 43.9644 224.64C43.8473 224.484 43.7571 224.355 43.6937 224.253H43.6205V227.223H42.757ZM43.6058 222.306C43.6058 222.73 43.668 223.105 43.7924 223.429C43.9168 223.751 44.0986 224.004 44.3376 224.187C44.5766 224.367 44.8693 224.457 45.2157 224.457C45.5767 224.457 45.8779 224.362 46.1194 224.172C46.3633 223.979 46.5463 223.721 46.6682 223.396C46.7926 223.07 46.8548 222.706 46.8548 222.306C46.8548 221.911 46.7938 221.555 46.6719 221.238C46.5524 220.918 46.3706 220.666 46.1267 220.48C45.8852 220.293 45.5816 220.199 45.2157 220.199C44.8645 220.199 44.5693 220.288 44.3303 220.466C44.0912 220.641 43.9107 220.888 43.7888 221.205C43.6668 221.519 43.6058 221.887 43.6058 222.306ZM51.1575 225.233C50.6892 225.233 50.2757 225.115 49.9172 224.878C49.5586 224.639 49.2781 224.303 49.0757 223.868C48.8732 223.432 48.772 222.916 48.772 222.321C48.772 221.73 48.8732 221.218 49.0757 220.784C49.2781 220.35 49.5598 220.014 49.9208 219.778C50.2818 219.541 50.6989 219.423 51.1721 219.423C51.538 219.423 51.827 219.484 52.0393 219.606C52.2539 219.725 52.4173 219.862 52.5295 220.016C52.6442 220.167 52.7332 220.291 52.7966 220.389H52.8698V217.623H53.7333V225.116H52.8991V224.253H52.7966C52.7332 224.355 52.6429 224.484 52.5259 224.64C52.4088 224.794 52.2417 224.932 52.0246 225.054C51.8075 225.173 51.5185 225.233 51.1575 225.233ZM51.2746 224.457C51.6209 224.457 51.9136 224.367 52.1527 224.187C52.3917 224.004 52.5734 223.751 52.6978 223.429C52.8222 223.105 52.8844 222.73 52.8844 222.306C52.8844 221.887 52.8234 221.519 52.7015 221.205C52.5795 220.888 52.399 220.641 52.16 220.466C51.921 220.288 51.6258 220.199 51.2746 220.199C50.9087 220.199 50.6038 220.293 50.3599 220.48C50.1184 220.666 49.9367 220.918 49.8147 221.238C49.6952 221.555 49.6355 221.911 49.6355 222.306C49.6355 222.706 49.6964 223.07 49.8184 223.396C49.9428 223.721 50.1257 223.979 50.3672 224.172C50.6111 224.362 50.9136 224.457 51.2746 224.457ZM57.7176 225.233C57.2103 225.233 56.7651 225.112 56.3822 224.871C56.0017 224.629 55.7041 224.292 55.4895 223.857C55.2772 223.423 55.1711 222.916 55.1711 222.335C55.1711 221.75 55.2772 221.239 55.4895 220.802C55.7041 220.366 56.0017 220.027 56.3822 219.785C56.7651 219.544 57.2103 219.423 57.7176 219.423C58.225 219.423 58.6689 219.544 59.0494 219.785C59.4324 220.027 59.7299 220.366 59.9421 220.802C60.1568 221.239 60.2641 221.75 60.2641 222.335C60.2641 222.916 60.1568 223.423 59.9421 223.857C59.7299 224.292 59.4324 224.629 59.0494 224.871C58.6689 225.112 58.225 225.233 57.7176 225.233ZM57.7176 224.457C58.103 224.457 58.4201 224.359 58.6689 224.161C58.9177 223.963 59.1019 223.704 59.2214 223.382C59.3409 223.06 59.4007 222.711 59.4007 222.335C59.4007 221.96 59.3409 221.61 59.2214 221.285C59.1019 220.961 58.9177 220.699 58.6689 220.499C58.4201 220.299 58.103 220.199 57.7176 220.199C57.3322 220.199 57.0152 220.299 56.7664 220.499C56.5176 220.699 56.3334 220.961 56.2139 221.285C56.0944 221.61 56.0346 221.96 56.0346 222.335C56.0346 222.711 56.0944 223.06 56.2139 223.382C56.3334 223.704 56.5176 223.963 56.7664 224.161C57.0152 224.359 57.3322 224.457 57.7176 224.457ZM62.6643 225.116L60.952 219.496H61.8593L63.074 223.799H63.1326L64.3326 219.496H65.2546L66.4401 223.784H66.4986L67.7133 219.496H68.6207L66.9084 225.116H66.0596L64.8302 220.799H64.7424L63.5131 225.116H62.6643ZM70.6257 221.735V225.116H69.7622V219.496H70.5964V220.374H70.6696C70.8013 220.089 71.0013 219.86 71.2696 219.686C71.5379 219.511 71.8843 219.423 72.3087 219.423C72.6892 219.423 73.0222 219.501 73.3075 219.657C73.5929 219.811 73.8149 220.045 73.9734 220.36C74.132 220.672 74.2113 221.067 74.2113 221.545V225.116H73.3478V221.604C73.3478 221.162 73.2332 220.818 73.0039 220.572C72.7746 220.323 72.4599 220.199 72.0599 220.199C71.7843 220.199 71.5379 220.258 71.3209 220.378C71.1062 220.497 70.9367 220.672 70.8123 220.901C70.6879 221.13 70.6257 221.408 70.6257 221.735ZM26.5479 237.116V231.496H27.3821V232.374H27.4552C27.5723 232.074 27.7613 231.841 28.0223 231.675C28.2833 231.507 28.5968 231.423 28.9626 231.423C29.3334 231.423 29.6419 231.507 29.8883 231.675C30.1371 231.841 30.331 232.074 30.47 232.374H30.5286C30.6725 232.084 30.8884 231.853 31.1762 231.683C31.464 231.51 31.8091 231.423 32.2116 231.423C32.7141 231.423 33.1251 231.58 33.4446 231.895C33.7641 232.207 33.9239 232.694 33.9239 233.355V237.116H33.0604V233.355C33.0604 232.94 32.947 232.644 32.7202 232.466C32.4933 232.288 32.2262 232.199 31.9189 232.199C31.5238 232.199 31.2176 232.318 31.0006 232.557C30.7835 232.794 30.6749 233.094 30.6749 233.457V237.116H29.7968V233.267C29.7968 232.947 29.6932 232.69 29.4858 232.495C29.2785 232.297 29.0114 232.199 28.6846 232.199C28.4602 232.199 28.2504 232.258 28.0553 232.378C27.8626 232.497 27.7065 232.663 27.5869 232.875C27.4699 233.085 27.4113 233.328 27.4113 233.604V237.116H26.5479ZM37.8589 237.233C37.3174 237.233 36.8503 237.114 36.4576 236.874C36.0673 236.633 35.7661 236.296 35.5539 235.865C35.3441 235.431 35.2392 234.926 35.2392 234.35C35.2392 233.774 35.3441 233.267 35.5539 232.828C35.7661 232.386 36.0612 232.043 36.4393 231.796C36.8198 231.547 37.2637 231.423 37.7711 231.423C38.0638 231.423 38.3528 231.472 38.6382 231.569C38.9236 231.667 39.1833 231.825 39.4175 232.045C39.6517 232.262 39.8383 232.55 39.9773 232.908C40.1163 233.267 40.1858 233.708 40.1858 234.233V234.599H35.8539V233.852H39.3077C39.3077 233.535 39.2443 233.252 39.1175 233.004C38.9931 232.755 38.815 232.558 38.5833 232.414C38.354 232.271 38.0833 232.199 37.7711 232.199C37.4271 232.199 37.1296 232.284 36.8783 232.455C36.6295 232.623 36.4381 232.843 36.3039 233.113C36.1698 233.384 36.1027 233.674 36.1027 233.984V234.482C36.1027 234.906 36.1758 235.266 36.3222 235.561C36.471 235.854 36.6771 236.077 36.9405 236.231C37.204 236.382 37.5101 236.457 37.8589 236.457C38.0857 236.457 38.2906 236.426 38.4735 236.362C38.6589 236.296 38.8187 236.199 38.9528 236.07C39.087 235.938 39.1907 235.774 39.2638 235.579L40.098 235.813C40.0102 236.096 39.8626 236.345 39.6553 236.56C39.448 236.772 39.1919 236.938 38.887 237.057C38.5821 237.175 38.2394 237.233 37.8589 237.233ZM42.3628 233.735V237.116H41.4993V231.496H42.3335V232.374H42.4067C42.5384 232.089 42.7384 231.86 43.0067 231.686C43.275 231.511 43.6214 231.423 44.0458 231.423C44.4263 231.423 44.7593 231.501 45.0446 231.657C45.33 231.811 45.552 232.045 45.7105 232.36C45.8691 232.672 45.9484 233.067 45.9484 233.545V237.116H45.0849V233.604C45.0849 233.162 44.9703 232.818 44.741 232.572C44.5117 232.323 44.197 232.199 43.797 232.199C43.5214 232.199 43.275 232.258 43.058 232.378C42.8433 232.497 42.6738 232.672 42.5494 232.901C42.425 233.13 42.3628 233.408 42.3628 233.735ZM51.0679 234.818V231.496H51.9313V237.116H51.0679V236.165H51.0093C50.8776 236.45 50.6727 236.693 50.3947 236.893C50.1166 237.09 49.7653 237.189 49.3409 237.189C48.9897 237.189 48.6775 237.112 48.4043 236.959C48.1311 236.803 47.9165 236.568 47.7604 236.256C47.6042 235.942 47.5262 235.545 47.5262 235.067V231.496H48.3897V235.009C48.3897 235.418 48.5043 235.745 48.7336 235.989C48.9653 236.233 49.2604 236.355 49.619 236.355C49.8336 236.355 50.0519 236.3 50.2739 236.19C50.4983 236.081 50.6861 235.912 50.8374 235.685C50.991 235.459 51.0679 235.17 51.0679 234.818ZM57.4935 232.755L56.7179 232.974C56.6691 232.845 56.5971 232.719 56.502 232.597C56.4093 232.473 56.2825 232.371 56.1215 232.29C55.9605 232.21 55.7544 232.169 55.5032 232.169C55.1593 232.169 54.8727 232.249 54.6434 232.407C54.4165 232.563 54.3031 232.762 54.3031 233.004C54.3031 233.218 54.3812 233.388 54.5373 233.512C54.6934 233.636 54.9373 233.74 55.269 233.823L56.1032 234.028C56.6057 234.15 56.9801 234.337 57.2264 234.588C57.4728 234.837 57.596 235.157 57.596 235.55C57.596 235.872 57.5033 236.16 57.3179 236.413C57.135 236.667 56.8789 236.867 56.5496 237.014C56.2203 237.16 55.8373 237.233 55.4007 237.233C54.8275 237.233 54.3531 237.109 53.9775 236.86C53.6018 236.611 53.364 236.248 53.264 235.77L54.0836 235.565C54.1616 235.867 54.3092 236.094 54.5263 236.245C54.7458 236.396 55.0324 236.472 55.3861 236.472C55.7886 236.472 56.1081 236.387 56.3447 236.216C56.5837 236.043 56.7032 235.835 56.7032 235.594C56.7032 235.399 56.6349 235.235 56.4984 235.104C56.3618 234.97 56.152 234.869 55.8691 234.804L54.9324 234.584C54.4177 234.462 54.0397 234.273 53.7982 234.017C53.5592 233.758 53.4396 233.435 53.4396 233.047C53.4396 232.73 53.5287 232.45 53.7067 232.206C53.8872 231.962 54.1324 231.771 54.4421 231.632C54.7544 231.492 55.108 231.423 55.5032 231.423C56.0593 231.423 56.4959 231.545 56.813 231.789C57.1325 232.033 57.3594 232.355 57.4935 232.755Z" fill="#030202"/>
<rect x="45.197" y="265.57" width="80.2121" height="48.6061" rx="5.15151" fill="#757575"/>
<path d="M70.2669 281.014V297.873H67.8055V281.014H70.2669ZM73.5783 297.873V285.229H76.0397V297.873H73.5783ZM74.8214 283.278C74.3933 283.278 74.0256 283.135 73.7182 282.85C73.4164 282.559 73.2655 282.213 73.2655 281.812C73.2655 281.406 73.4164 281.06 73.7182 280.775C74.0256 280.484 74.3933 280.339 74.8214 280.339C75.2494 280.339 75.6144 280.484 75.9162 280.775C76.2236 281.06 76.3772 281.406 76.3772 281.812C76.3772 282.213 76.2236 282.559 75.9162 282.85C75.6144 283.135 75.2494 283.278 74.8214 283.278ZM81.8125 290.366V297.873H79.3511V285.229H81.7137V287.287H81.8702C82.161 286.617 82.6165 286.079 83.2367 285.673C83.8623 285.267 84.6499 285.064 85.5993 285.064C86.461 285.064 87.2156 285.245 87.8632 285.607C88.5108 285.964 89.0129 286.496 89.3697 287.204C89.7264 287.912 89.9048 288.788 89.9048 289.83V297.873H87.4433V290.127C87.4433 289.21 87.2046 288.494 86.7271 287.978C86.2497 287.457 85.5938 287.196 84.7597 287.196C84.1889 287.196 83.6812 287.32 83.2367 287.567C82.7977 287.814 82.4492 288.176 82.1912 288.653C81.9388 289.125 81.8125 289.696 81.8125 290.366ZM95.4697 293.584L95.4533 290.58H95.8813L100.919 285.229H103.867L98.1205 291.32H97.7336L95.4697 293.584ZM93.2059 297.873V281.014H95.6673V297.873H93.2059ZM101.191 297.873L96.6634 291.864L98.3592 290.143L104.212 297.873H101.191Z" fill="white"/>
<rect x="130.045" y="265.57" width="80.2121" height="48.6061" rx="5.15151" fill="#757575"/>
<path d="M155.115 281.014V297.873H152.654V281.014H155.115ZM158.427 297.873V285.229H160.888V297.873H158.427ZM159.67 283.278C159.242 283.278 158.874 283.135 158.567 282.85C158.265 282.559 158.114 282.213 158.114 281.812C158.114 281.406 158.265 281.06 158.567 280.775C158.874 280.484 159.242 280.339 159.67 280.339C160.098 280.339 160.463 280.484 160.765 280.775C161.072 281.06 161.226 281.406 161.226 281.812C161.226 282.213 161.072 282.559 160.765 282.85C160.463 283.135 160.098 283.278 159.67 283.278ZM166.661 290.366V297.873H164.2V285.229H166.562V287.287H166.719C167.009 286.617 167.465 286.079 168.085 285.673C168.711 285.267 169.498 285.064 170.448 285.064C171.309 285.064 172.064 285.245 172.712 285.607C173.359 285.964 173.861 286.496 174.218 287.204C174.575 287.912 174.753 288.788 174.753 289.83V297.873H172.292V290.127C172.292 289.21 172.053 288.494 171.576 287.978C171.098 287.457 170.442 287.196 169.608 287.196C169.037 287.196 168.53 287.32 168.085 287.567C167.646 287.814 167.298 288.176 167.04 288.653C166.787 289.125 166.661 289.696 166.661 290.366ZM180.318 293.584L180.302 290.58H180.73L185.768 285.229H188.715L182.969 291.32H182.582L180.318 293.584ZM178.054 297.873V281.014H180.516V297.873H178.054ZM186.039 297.873L181.512 291.864L183.208 290.143L189.061 297.873H186.039Z" fill="white"/>
<rect x="214.894" y="265.57" width="80.2121" height="48.6061" rx="5.15151" fill="#757575"/>
<path d="M239.964 281.014V297.873H237.503V281.014H239.964ZM243.275 297.873V285.229H245.737V297.873H243.275ZM244.518 283.278C244.09 283.278 243.723 283.135 243.415 282.85C243.113 282.559 242.962 282.213 242.962 281.812C242.962 281.406 243.113 281.06 243.415 280.775C243.723 280.484 244.09 280.339 244.518 280.339C244.946 280.339 245.311 280.484 245.613 280.775C245.921 281.06 246.074 281.406 246.074 281.812C246.074 282.213 245.921 282.559 245.613 282.85C245.311 283.135 244.946 283.278 244.518 283.278ZM251.51 290.366V297.873H249.048V285.229H251.411V287.287H251.567C251.858 286.617 252.314 286.079 252.934 285.673C253.559 285.267 254.347 285.064 255.296 285.064C256.158 285.064 256.913 285.245 257.56 285.607C258.208 285.964 258.71 286.496 259.067 287.204C259.423 287.912 259.602 288.788 259.602 289.83V297.873H257.14V290.127C257.14 289.21 256.902 288.494 256.424 287.978C255.947 287.457 255.291 287.196 254.457 287.196C253.886 287.196 253.378 287.32 252.934 287.567C252.495 287.814 252.146 288.176 251.888 288.653C251.636 289.125 251.51 289.696 251.51 290.366ZM265.167 293.584L265.15 290.58H265.578L270.616 285.229H273.564L267.818 291.32H267.431L265.167 293.584ZM262.903 297.873V281.014H265.364V297.873H262.903ZM270.888 297.873L266.36 291.864L268.056 290.143L273.909 297.873H270.888Z" fill="white"/>
<rect x="299.742" y="265.57" width="80.2121" height="48.6061" rx="5.15151" fill="#757575"/>
<path d="M324.812 281.014V297.873H322.351V281.014H324.812ZM328.124 297.873V285.229H330.585V297.873H328.124ZM329.367 283.278C328.939 283.278 328.571 283.135 328.264 282.85C327.962 282.559 327.811 282.213 327.811 281.812C327.811 281.406 327.962 281.06 328.264 280.775C328.571 280.484 328.939 280.339 329.367 280.339C329.795 280.339 330.16 280.484 330.462 280.775C330.769 281.06 330.923 281.406 330.923 281.812C330.923 282.213 330.769 282.559 330.462 282.85C330.16 283.135 329.795 283.278 329.367 283.278ZM336.358 290.366V297.873H333.897V285.229H336.259V287.287H336.416C336.706 286.617 337.162 286.079 337.782 285.673C338.408 285.267 339.195 285.064 340.145 285.064C341.006 285.064 341.761 285.245 342.409 285.607C343.056 285.964 343.558 286.496 343.915 287.204C344.272 287.912 344.45 288.788 344.45 289.83V297.873H341.989V290.127C341.989 289.21 341.75 288.494 341.273 287.978C340.795 287.457 340.139 287.196 339.305 287.196C338.734 287.196 338.227 287.32 337.782 287.567C337.343 287.814 336.995 288.176 336.737 288.653C336.484 289.125 336.358 289.696 336.358 290.366ZM350.015 293.584L349.999 290.58H350.427L355.465 285.229H358.412L352.666 291.32H352.279L350.015 293.584ZM347.751 297.873V281.014H350.213V297.873H347.751ZM355.736 297.873L351.209 291.864L352.905 290.143L358.758 297.873H355.736Z" fill="white"/>
<rect x="384.591" y="265.57" width="80.2121" height="48.6061" rx="5.15151" fill="#757575"/>
<path d="M409.661 281.014V297.873H407.199V281.014H409.661ZM412.972 297.873V285.229H415.434V297.873H412.972ZM414.215 283.278C413.787 283.278 413.419 283.135 413.112 282.85C412.81 282.559 412.659 282.213 412.659 281.812C412.659 281.406 412.81 281.06 413.112 280.775C413.419 280.484 413.787 280.339 414.215 280.339C414.643 280.339 415.008 280.484 415.31 280.775C415.617 281.06 415.771 281.406 415.771 281.812C415.771 282.213 415.617 282.559 415.31 282.85C415.008 283.135 414.643 283.278 414.215 283.278ZM421.206 290.366V297.873H418.745V285.229H421.108V287.287H421.264C421.555 286.617 422.01 286.079 422.631 285.673C423.256 285.267 424.044 285.064 424.993 285.064C425.855 285.064 426.609 285.245 427.257 285.607C427.905 285.964 428.407 286.496 428.763 287.204C429.12 287.912 429.299 288.788 429.299 289.83V297.873H426.837V290.127C426.837 289.21 426.598 288.494 426.121 287.978C425.643 287.457 424.988 287.196 424.153 287.196C423.583 287.196 423.075 287.32 422.631 287.567C422.191 287.814 421.843 288.176 421.585 288.653C421.333 289.125 421.206 289.696 421.206 290.366ZM434.864 293.584L434.847 290.58H435.275L440.313 285.229H443.26L437.514 291.32H437.127L434.864 293.584ZM432.6 297.873V281.014H435.061V297.873H432.6ZM440.585 297.873L436.057 291.864L437.753 290.143L443.606 297.873H440.585Z" fill="white"/>
</svg>
