<svg width="510" height="271" viewBox="0 0 510 271" fill="none" xmlns="http://www.w3.org/2000/svg">
<rect width="510" height="271" fill="#7B808D"/>
<rect x="30" y="10" width="60" height="20" fill="#833233"/>
<rect x="400" y="10" width="20" height="20" fill="#2B495D"/>
<rect x="430" y="10" width="20" height="20" fill="#2B495D"/>
<rect x="460" y="10" width="20" height="20" fill="#2B495D"/>
<rect x="30.5" y="40.5" width="106" height="20" fill="#7B808D"/>
<rect x="30.5" y="40.5" width="106" height="20" stroke="#2B495D"/>
<path d="M41.0568 55V46.2727H44.108C44.7159 46.2727 45.2173 46.3778 45.6122 46.5881C46.0071 46.7955 46.3011 47.0753 46.4943 47.4276C46.6875 47.777 46.7841 48.1648 46.7841 48.5909C46.7841 48.9659 46.7173 49.2756 46.5838 49.5199C46.4531 49.7642 46.2798 49.9574 46.0639 50.0994C45.8509 50.2415 45.6193 50.3466 45.3693 50.4148V50.5C45.6364 50.517 45.9048 50.6108 46.1747 50.7812C46.4446 50.9517 46.6705 51.196 46.8523 51.5142C47.0341 51.8324 47.125 52.2216 47.125 52.6818C47.125 53.1193 47.0256 53.5128 46.8267 53.8622C46.6278 54.2116 46.3139 54.4886 45.8849 54.6932C45.456 54.8977 44.8977 55 44.2102 55H41.0568ZM42.1136 54.0625H44.2102C44.9006 54.0625 45.3906 53.929 45.6804 53.6619C45.973 53.392 46.1193 53.0653 46.1193 52.6818C46.1193 52.3864 46.044 52.1136 45.8935 51.8636C45.7429 51.6108 45.5284 51.4091 45.25 51.2585C44.9716 51.1051 44.642 51.0284 44.2614 51.0284H42.1136V54.0625ZM42.1136 50.108H44.0739C44.392 50.108 44.679 50.0455 44.9347 49.9205C45.1932 49.7955 45.3977 49.6193 45.5483 49.392C45.7017 49.1648 45.7784 48.8977 45.7784 48.5909C45.7784 48.2074 45.6449 47.8821 45.3778 47.6151C45.1108 47.3452 44.6875 47.2102 44.108 47.2102H42.1136V50.108ZM51.4695 55.1364C50.8388 55.1364 50.2947 54.9972 49.8374 54.7188C49.3828 54.4375 49.032 54.0455 48.7848 53.5426C48.5405 53.0369 48.4183 52.4489 48.4183 51.7784C48.4183 51.108 48.5405 50.517 48.7848 50.0057C49.032 49.4915 49.3757 49.0909 49.8161 48.804C50.2592 48.5142 50.7763 48.3693 51.3672 48.3693C51.7081 48.3693 52.0447 48.4261 52.3771 48.5398C52.7095 48.6534 53.0121 48.8381 53.2848 49.0938C53.5575 49.3466 53.7749 49.6818 53.9368 50.0994C54.0987 50.517 54.1797 51.0312 54.1797 51.642V52.0682H49.1342V51.1989H53.157C53.157 50.8295 53.0831 50.5 52.9354 50.2102C52.7905 49.9205 52.5831 49.6918 52.3132 49.5241C52.0462 49.3565 51.7308 49.2727 51.3672 49.2727C50.9666 49.2727 50.62 49.3722 50.3274 49.571C50.0376 49.767 49.8146 50.0227 49.6584 50.3381C49.5021 50.6534 49.424 50.9915 49.424 51.3523V51.9318C49.424 52.4261 49.5092 52.8452 49.6797 53.1889C49.853 53.5298 50.093 53.7898 50.3999 53.9688C50.7067 54.1449 51.0632 54.233 51.4695 54.233C51.7337 54.233 51.9723 54.196 52.1854 54.1222C52.4013 54.0455 52.5874 53.9318 52.7436 53.7812C52.8999 53.6278 53.0206 53.4375 53.1058 53.2102L54.0774 53.483C53.9751 53.8125 53.8033 54.1023 53.5618 54.3523C53.3203 54.5994 53.022 54.7926 52.6669 54.9318C52.3118 55.0682 51.9126 55.1364 51.4695 55.1364ZM60.0902 51.267V52.2045H56.4766V51.267H60.0902ZM56.7152 48.4545V55H55.7095V48.4545H56.7152ZM60.8572 48.4545V55H59.8516V48.4545H60.8572ZM61.8033 49.392V48.4545H67.1214V49.392H64.9737V55H63.968V49.392H61.8033ZM69.5941 53.517L72.7475 48.4545H73.9066V55H72.9009V49.9375L69.7646 55H68.5884V48.4545H69.5941V53.517ZM75.169 55V54.0625H75.4077C75.6037 54.0625 75.767 54.0241 75.8977 53.9474C76.0284 53.8679 76.1335 53.7301 76.2131 53.5341C76.2955 53.3352 76.358 53.0597 76.4006 52.7074C76.446 52.3523 76.4787 51.9006 76.4986 51.3523L76.6179 48.4545H80.9815V55H79.9759V49.392H77.5724L77.4702 51.7273C77.4474 52.2642 77.3991 52.7372 77.3253 53.1463C77.2543 53.5526 77.1449 53.8935 76.9972 54.169C76.8523 54.4446 76.6591 54.652 76.4176 54.7912C76.1761 54.9304 75.8736 55 75.5099 55H75.169ZM86.7642 55V49.375H85.0256C84.6335 49.375 84.3253 49.4659 84.1009 49.6477C83.8764 49.8295 83.7642 50.0795 83.7642 50.3977C83.7642 50.7102 83.8651 50.956 84.0668 51.1349C84.2713 51.3139 84.5511 51.4034 84.9062 51.4034H87.0199V52.3409H84.9062C84.4631 52.3409 84.081 52.2628 83.7599 52.1065C83.4389 51.9503 83.1918 51.7273 83.0185 51.4375C82.8452 51.1449 82.7585 50.7983 82.7585 50.3977C82.7585 49.9943 82.8494 49.6477 83.0312 49.358C83.2131 49.0682 83.473 48.8452 83.8111 48.6889C84.152 48.5327 84.5568 48.4545 85.0256 48.4545H87.7188V55H86.7642ZM82.4006 55L84.2585 51.7443H85.3494L83.4915 55H82.4006ZM88.6744 49.392V48.4545H93.9925V49.392H91.8448V55H90.8391V49.392H88.6744ZM97.7788 55.1364C97.1879 55.1364 96.6694 54.9957 96.2234 54.7145C95.7802 54.4332 95.4336 54.0398 95.1836 53.5341C94.9364 53.0284 94.8129 52.4375 94.8129 51.7614C94.8129 51.0795 94.9364 50.4844 95.1836 49.9759C95.4336 49.4673 95.7802 49.0724 96.2234 48.7912C96.6694 48.5099 97.1879 48.3693 97.7788 48.3693C98.3697 48.3693 98.8867 48.5099 99.3299 48.7912C99.7759 49.0724 100.123 49.4673 100.37 49.9759C100.62 50.4844 100.745 51.0795 100.745 51.7614C100.745 52.4375 100.62 53.0284 100.37 53.5341C100.123 54.0398 99.7759 54.4332 99.3299 54.7145C98.8867 54.9957 98.3697 55.1364 97.7788 55.1364ZM97.7788 54.233C98.2276 54.233 98.5969 54.1179 98.8867 53.8878C99.1765 53.6577 99.391 53.3551 99.5302 52.9801C99.6694 52.6051 99.739 52.1989 99.739 51.7614C99.739 51.3239 99.6694 50.9162 99.5302 50.5384C99.391 50.1605 99.1765 49.8551 98.8867 49.6222C98.5969 49.3892 98.2276 49.2727 97.7788 49.2727C97.3299 49.2727 96.9606 49.3892 96.6708 49.6222C96.381 49.8551 96.1665 50.1605 96.0273 50.5384C95.8881 50.9162 95.8185 51.3239 95.8185 51.7614C95.8185 52.1989 95.8881 52.6051 96.0273 52.9801C96.1665 53.3551 96.381 53.6577 96.6708 53.8878C96.9606 54.1179 97.3299 54.233 97.7788 54.233ZM102.28 57.4545V48.4545H103.251V49.4943H103.371C103.445 49.3807 103.547 49.2358 103.678 49.0597C103.811 48.8807 104.001 48.7216 104.249 48.5824C104.499 48.4403 104.837 48.3693 105.263 48.3693C105.814 48.3693 106.3 48.5071 106.72 48.7827C107.141 49.0582 107.469 49.4489 107.705 49.9545C107.94 50.4602 108.058 51.0568 108.058 51.7443C108.058 52.4375 107.94 53.0384 107.705 53.5469C107.469 54.0526 107.142 54.4446 106.724 54.723C106.307 54.9986 105.825 55.1364 105.28 55.1364C104.859 55.1364 104.523 55.0668 104.27 54.9276C104.017 54.7855 103.822 54.625 103.686 54.446C103.55 54.2642 103.445 54.1136 103.371 53.9943H103.286V57.4545H102.28ZM103.268 51.7273C103.268 52.2216 103.341 52.6577 103.486 53.0355C103.631 53.4105 103.842 53.7045 104.121 53.9176C104.399 54.1278 104.74 54.233 105.143 54.233C105.564 54.233 105.915 54.1222 106.196 53.9006C106.48 53.6761 106.693 53.375 106.835 52.9972C106.98 52.6165 107.053 52.1932 107.053 51.7273C107.053 51.267 106.982 50.8523 106.839 50.483C106.7 50.1108 106.489 49.8168 106.205 49.6009C105.923 49.3821 105.57 49.2727 105.143 49.2727C104.734 49.2727 104.391 49.3764 104.112 49.5838C103.834 49.7884 103.624 50.0753 103.482 50.4446C103.339 50.8111 103.268 51.2386 103.268 51.7273ZM110.462 50.8239H112.337C113.104 50.8239 113.69 51.0185 114.097 51.4077C114.503 51.7969 114.706 52.2898 114.706 52.8864C114.706 53.2784 114.615 53.6349 114.433 53.956C114.251 54.2741 113.984 54.5284 113.632 54.7188C113.28 54.9062 112.848 55 112.337 55H109.592V48.4545H110.598V54.0625H112.337C112.734 54.0625 113.061 53.9574 113.317 53.7472C113.572 53.5369 113.7 53.267 113.7 52.9375C113.7 52.5909 113.572 52.3082 113.317 52.0895C113.061 51.8707 112.734 51.7614 112.337 51.7614H110.462V50.8239ZM115.746 55V48.4545H116.751V55H115.746Z" fill="#D6D0D0"/>
<rect width="107" height="21" transform="translate(30 63)" fill="#2B495D"/>
<path d="M41.0568 78V69.2727H42.1136V73.1591H46.767V69.2727H47.8239V78H46.767V74.0966H42.1136V78H41.0568ZM52.4624 78.1364C51.8714 78.1364 51.353 77.9957 50.907 77.7145C50.4638 77.4332 50.1172 77.0398 49.8672 76.5341C49.62 76.0284 49.4964 75.4375 49.4964 74.7614C49.4964 74.0795 49.62 73.4844 49.8672 72.9759C50.1172 72.4673 50.4638 72.0724 50.907 71.7912C51.353 71.5099 51.8714 71.3693 52.4624 71.3693C53.0533 71.3693 53.5703 71.5099 54.0135 71.7912C54.4595 72.0724 54.8061 72.4673 55.0533 72.9759C55.3033 73.4844 55.4283 74.0795 55.4283 74.7614C55.4283 75.4375 55.3033 76.0284 55.0533 76.5341C54.8061 77.0398 54.4595 77.4332 54.0135 77.7145C53.5703 77.9957 53.0533 78.1364 52.4624 78.1364ZM52.4624 77.233C52.9112 77.233 53.2805 77.1179 53.5703 76.8878C53.8601 76.6577 54.0746 76.3551 54.2138 75.9801C54.353 75.6051 54.4226 75.1989 54.4226 74.7614C54.4226 74.3239 54.353 73.9162 54.2138 73.5384C54.0746 73.1605 53.8601 72.8551 53.5703 72.6222C53.2805 72.3892 52.9112 72.2727 52.4624 72.2727C52.0135 72.2727 51.6442 72.3892 51.3544 72.6222C51.0646 72.8551 50.8501 73.1605 50.7109 73.5384C50.5717 73.9162 50.5021 74.3239 50.5021 74.7614C50.5021 75.1989 50.5717 75.6051 50.7109 75.9801C50.8501 76.3551 51.0646 76.6577 51.3544 76.8878C51.6442 77.1179 52.0135 77.233 52.4624 77.233ZM56.2848 78L58.9439 74.6761L56.3189 71.4545H57.5121L59.6939 74.25H60.2393V71.4545H61.245V74.25H61.7734L63.9553 71.4545H65.1484L62.5405 74.6761L65.1825 78H63.9723L61.7564 75.1875H61.245V78H60.2393V75.1875H59.728L57.495 78H56.2848ZM67.6254 76.517L70.7788 71.4545H71.9379V78H70.9322V72.9375L67.7958 78H66.6197V71.4545H67.6254V76.517Z" fill="#D6D0D0"/>
<rect width="107" height="21" transform="translate(30 86)" fill="#2B495D"/>
<path d="M46.392 96.2784V97.2159H42.7955V96.2784H46.392ZM40.7159 98.2727H41.8068C41.9006 98.8864 42.108 99.358 42.429 99.6875C42.75 100.017 43.2642 100.182 43.9716 100.182C44.4716 100.182 44.8892 100.041 45.2244 99.7599C45.5625 99.4787 45.8153 99.1065 45.983 98.6435C46.1534 98.1804 46.2386 97.6761 46.2386 97.1307V96.1591C46.2386 95.5568 46.1435 95.027 45.9531 94.5696C45.7656 94.1094 45.4943 93.7514 45.1392 93.4957C44.7869 93.2372 44.3636 93.108 43.8693 93.108C43.4375 93.108 43.0795 93.1847 42.7955 93.3381C42.5114 93.4915 42.2898 93.7116 42.1307 93.9986C41.9716 94.2855 41.8636 94.6307 41.8068 95.0341H40.7159C40.7727 94.4773 40.9247 93.983 41.1719 93.5511C41.4219 93.1165 41.7699 92.7756 42.2159 92.5284C42.6648 92.2784 43.2159 92.1534 43.8693 92.1534C44.5795 92.1534 45.1932 92.3196 45.7102 92.652C46.2273 92.9815 46.6264 93.446 46.9077 94.0455C47.1889 94.642 47.3295 95.3409 47.3295 96.142V97.1477C47.3295 97.9489 47.1903 98.6477 46.9119 99.2443C46.6335 99.8381 46.2429 100.3 45.7401 100.629C45.2372 100.956 44.6477 101.119 43.9716 101.119C43.2784 101.119 42.7017 100.994 42.2415 100.744C41.7841 100.491 41.4304 100.151 41.1804 99.7216C40.9332 99.2898 40.7784 98.8068 40.7159 98.2727ZM48.3917 101V100.062H48.6303C48.8263 100.062 48.9897 100.024 49.1204 99.9474C49.2511 99.8679 49.3562 99.7301 49.4357 99.5341C49.5181 99.3352 49.5806 99.0597 49.6232 98.7074C49.6687 98.3523 49.7013 97.9006 49.7212 97.3523L49.8406 94.4545H54.2042V101H53.1985V95.392H50.7951L50.6928 97.7273C50.6701 98.2642 50.6218 98.7372 50.5479 99.1463C50.4769 99.5526 50.3675 99.8935 50.2198 100.169C50.0749 100.445 49.8817 100.652 49.6403 100.791C49.3988 100.93 49.0962 101 48.7326 101H48.3917ZM58.7937 101.136C58.163 101.136 57.619 100.997 57.1616 100.719C56.707 100.438 56.3562 100.045 56.109 99.5426C55.8647 99.0369 55.7425 98.4489 55.7425 97.7784C55.7425 97.108 55.8647 96.517 56.109 96.0057C56.3562 95.4915 56.6999 95.0909 57.1403 94.804C57.5835 94.5142 58.1005 94.3693 58.6914 94.3693C59.0323 94.3693 59.369 94.4261 59.7013 94.5398C60.0337 94.6534 60.3363 94.8381 60.609 95.0938C60.8817 95.3466 61.0991 95.6818 61.261 96.0994C61.4229 96.517 61.5039 97.0312 61.5039 97.642V98.0682H56.4585V97.1989H60.4812C60.4812 96.8295 60.4073 96.5 60.2596 96.2102C60.1147 95.9205 59.9073 95.6918 59.6374 95.5241C59.3704 95.3565 59.055 95.2727 58.6914 95.2727C58.2908 95.2727 57.9442 95.3722 57.6516 95.571C57.3619 95.767 57.1388 96.0227 56.9826 96.3381C56.8263 96.6534 56.7482 96.9915 56.7482 97.3523V97.9318C56.7482 98.4261 56.8335 98.8452 57.0039 99.1889C57.1772 99.5298 57.4173 99.7898 57.7241 99.9688C58.0309 100.145 58.3874 100.233 58.7937 100.233C59.0579 100.233 59.2965 100.196 59.5096 100.122C59.7255 100.045 59.9116 99.9318 60.0678 99.7812C60.2241 99.6278 60.3448 99.4375 60.43 99.2102L61.4016 99.483C61.2994 99.8125 61.1275 100.102 60.886 100.352C60.6445 100.599 60.3462 100.793 59.9911 100.932C59.636 101.068 59.2369 101.136 58.7937 101.136ZM63.0337 101V94.4545H64.0394V97.3011H64.7042L67.0565 94.4545H68.3519L65.7099 97.608L68.386 101H67.0906L64.9428 98.2386H64.0394V101H63.0337ZM69.104 95.392V94.4545H74.4222V95.392H72.2745V101H71.2688V95.392H69.104ZM75.8892 103.455V94.4545H76.8608V95.4943H76.9801C77.054 95.3807 77.1563 95.2358 77.2869 95.0597C77.4205 94.8807 77.6108 94.7216 77.858 94.5824C78.108 94.4403 78.446 94.3693 78.8722 94.3693C79.4233 94.3693 79.9091 94.5071 80.3295 94.7827C80.75 95.0582 81.0781 95.4489 81.3139 95.9545C81.5497 96.4602 81.6676 97.0568 81.6676 97.7443C81.6676 98.4375 81.5497 99.0384 81.3139 99.5469C81.0781 100.053 80.7514 100.445 80.3338 100.723C79.9162 100.999 79.4347 101.136 78.8892 101.136C78.4688 101.136 78.1321 101.067 77.8793 100.928C77.6264 100.786 77.4318 100.625 77.2955 100.446C77.1591 100.264 77.054 100.114 76.9801 99.9943H76.8949V103.455H75.8892ZM76.8778 97.7273C76.8778 98.2216 76.9503 98.6577 77.0952 99.0355C77.2401 99.4105 77.4517 99.7045 77.7301 99.9176C78.0085 100.128 78.3494 100.233 78.7528 100.233C79.1733 100.233 79.5241 100.122 79.8054 99.9006C80.0895 99.6761 80.3026 99.375 80.4446 98.9972C80.5895 98.6165 80.6619 98.1932 80.6619 97.7273C80.6619 97.267 80.5909 96.8523 80.4489 96.483C80.3097 96.1108 80.098 95.8168 79.8139 95.6009C79.5327 95.3821 79.179 95.2727 78.7528 95.2727C78.3438 95.2727 78 95.3764 77.7216 95.5838C77.4432 95.7884 77.233 96.0753 77.0909 96.4446C76.9489 96.8111 76.8778 97.2386 76.8778 97.7273ZM85.8608 101.136C85.2699 101.136 84.7514 100.996 84.3054 100.714C83.8622 100.433 83.5156 100.04 83.2656 99.5341C83.0185 99.0284 82.8949 98.4375 82.8949 97.7614C82.8949 97.0795 83.0185 96.4844 83.2656 95.9759C83.5156 95.4673 83.8622 95.0724 84.3054 94.7912C84.7514 94.5099 85.2699 94.3693 85.8608 94.3693C86.4517 94.3693 86.9688 94.5099 87.4119 94.7912C87.858 95.0724 88.2045 95.4673 88.4517 95.9759C88.7017 96.4844 88.8267 97.0795 88.8267 97.7614C88.8267 98.4375 88.7017 99.0284 88.4517 99.5341C88.2045 100.04 87.858 100.433 87.4119 100.714C86.9688 100.996 86.4517 101.136 85.8608 101.136ZM85.8608 100.233C86.3097 100.233 86.679 100.118 86.9688 99.8878C87.2585 99.6577 87.473 99.3551 87.6122 98.9801C87.7514 98.6051 87.821 98.1989 87.821 97.7614C87.821 97.3239 87.7514 96.9162 87.6122 96.5384C87.473 96.1605 87.2585 95.8551 86.9688 95.6222C86.679 95.3892 86.3097 95.2727 85.8608 95.2727C85.4119 95.2727 85.0426 95.3892 84.7528 95.6222C84.4631 95.8551 84.2486 96.1605 84.1094 96.5384C83.9702 96.9162 83.9006 97.3239 83.9006 97.7614C83.9006 98.1989 83.9702 98.6051 84.1094 98.9801C84.2486 99.3551 84.4631 99.6577 84.7528 99.8878C85.0426 100.118 85.4119 100.233 85.8608 100.233ZM94.7425 97.267V98.2045H91.1289V97.267H94.7425ZM91.3675 94.4545V101H90.3619V94.4545H91.3675ZM95.5096 94.4545V101H94.5039V94.4545H95.5096ZM98.3519 99.517L101.505 94.4545H102.664V101H101.659V95.9375L98.5224 101H97.3462V94.4545H98.3519V99.517ZM104.506 101V94.4545H105.512V97.3011H106.177L108.529 94.4545H109.825L107.183 97.608L109.859 101H108.563L106.415 98.2386H105.512V101H104.506ZM112.878 101.153C112.463 101.153 112.087 101.075 111.749 100.919C111.411 100.76 111.142 100.531 110.943 100.233C110.744 99.9318 110.645 99.5682 110.645 99.142C110.645 98.767 110.719 98.4631 110.866 98.2301C111.014 97.9943 111.212 97.8097 111.459 97.6761C111.706 97.5426 111.979 97.4432 112.277 97.3778C112.578 97.3097 112.881 97.2557 113.185 97.2159C113.582 97.1648 113.905 97.1264 114.152 97.1009C114.402 97.0724 114.584 97.0256 114.697 96.9602C114.814 96.8949 114.872 96.7812 114.872 96.6193V96.5852C114.872 96.1648 114.757 95.8381 114.527 95.6051C114.3 95.3722 113.955 95.2557 113.491 95.2557C113.011 95.2557 112.635 95.3608 112.362 95.571C112.089 95.7812 111.898 96.0057 111.787 96.2443L110.832 95.9034C111.003 95.5057 111.23 95.196 111.514 94.9744C111.801 94.75 112.114 94.5937 112.452 94.5057C112.793 94.4148 113.128 94.3693 113.457 94.3693C113.668 94.3693 113.909 94.3949 114.182 94.446C114.457 94.4943 114.723 94.5952 114.979 94.7486C115.237 94.902 115.452 95.1335 115.622 95.4432C115.793 95.7528 115.878 96.1676 115.878 96.6875V101H114.872V100.114H114.821C114.753 100.256 114.639 100.408 114.48 100.57C114.321 100.732 114.109 100.869 113.845 100.983C113.581 101.097 113.259 101.153 112.878 101.153ZM113.031 100.25C113.429 100.25 113.764 100.172 114.037 100.016C114.313 99.8594 114.52 99.6577 114.659 99.4105C114.801 99.1634 114.872 98.9034 114.872 98.6307V97.7102C114.83 97.7614 114.736 97.8082 114.591 97.8509C114.449 97.8906 114.284 97.9261 114.097 97.9574C113.912 97.9858 113.732 98.0114 113.555 98.0341C113.382 98.054 113.241 98.071 113.134 98.0852C112.872 98.1193 112.628 98.1747 112.401 98.2514C112.176 98.3253 111.994 98.4375 111.855 98.5881C111.719 98.7358 111.651 98.9375 111.651 99.1932C111.651 99.5426 111.78 99.8068 112.038 99.9858C112.3 100.162 112.631 100.25 113.031 100.25Z" fill="#D6D0D0"/>
<rect width="107" height="21" transform="translate(30 109)" fill="#2B495D"/>
<path d="M48.0795 118H47.0227C46.9602 117.696 46.8509 117.429 46.6946 117.199C46.5412 116.969 46.3537 116.776 46.1321 116.619C45.9134 116.46 45.6705 116.341 45.4034 116.261C45.1364 116.182 44.858 116.142 44.5682 116.142C44.0398 116.142 43.5611 116.276 43.1321 116.543C42.706 116.81 42.3665 117.203 42.1136 117.723C41.8636 118.243 41.7386 118.881 41.7386 119.636C41.7386 120.392 41.8636 121.03 42.1136 121.55C42.3665 122.07 42.706 122.463 43.1321 122.73C43.5611 122.997 44.0398 123.131 44.5682 123.131C44.858 123.131 45.1364 123.091 45.4034 123.011C45.6705 122.932 45.9134 122.814 46.1321 122.658C46.3537 122.499 46.5412 122.304 46.6946 122.074C46.8509 121.841 46.9602 121.574 47.0227 121.273H48.0795C48 121.719 47.8551 122.118 47.6449 122.47C47.4347 122.822 47.1733 123.122 46.8608 123.369C46.5483 123.614 46.1974 123.8 45.8082 123.928C45.4219 124.055 45.0085 124.119 44.5682 124.119C43.8239 124.119 43.1619 123.938 42.5824 123.574C42.0028 123.21 41.5469 122.693 41.2145 122.023C40.8821 121.352 40.7159 120.557 40.7159 119.636C40.7159 118.716 40.8821 117.92 41.2145 117.25C41.5469 116.58 42.0028 116.062 42.5824 115.699C43.1619 115.335 43.8239 115.153 44.5682 115.153C45.0085 115.153 45.4219 115.217 45.8082 115.345C46.1974 115.473 46.5483 115.661 46.8608 115.908C47.1733 116.152 47.4347 116.45 47.6449 116.803C47.8551 117.152 48 117.551 48.0795 118ZM52.31 124.136C51.7191 124.136 51.2006 123.996 50.7546 123.714C50.3114 123.433 49.9648 123.04 49.7148 122.534C49.4677 122.028 49.3441 121.437 49.3441 120.761C49.3441 120.08 49.4677 119.484 49.7148 118.976C49.9648 118.467 50.3114 118.072 50.7546 117.791C51.2006 117.51 51.7191 117.369 52.31 117.369C52.9009 117.369 53.418 117.51 53.8612 117.791C54.3072 118.072 54.6538 118.467 54.9009 118.976C55.1509 119.484 55.2759 120.08 55.2759 120.761C55.2759 121.437 55.1509 122.028 54.9009 122.534C54.6538 123.04 54.3072 123.433 53.8612 123.714C53.418 123.996 52.9009 124.136 52.31 124.136ZM52.31 123.233C52.7589 123.233 53.1282 123.118 53.418 122.888C53.7077 122.658 53.9222 122.355 54.0614 121.98C54.2006 121.605 54.2702 121.199 54.2702 120.761C54.2702 120.324 54.2006 119.916 54.0614 119.538C53.9222 119.161 53.7077 118.855 53.418 118.622C53.1282 118.389 52.7589 118.273 52.31 118.273C51.8612 118.273 51.4918 118.389 51.2021 118.622C50.9123 118.855 50.6978 119.161 50.5586 119.538C50.4194 119.916 50.3498 120.324 50.3498 120.761C50.3498 121.199 50.4194 121.605 50.5586 121.98C50.6978 122.355 50.9123 122.658 51.2021 122.888C51.4918 123.118 51.8612 123.233 52.31 123.233ZM61.669 115L62.1804 115.614C61.9815 115.807 61.7514 115.942 61.4901 116.018C61.2287 116.095 60.9332 116.142 60.6037 116.159C60.2741 116.176 59.9077 116.193 59.5043 116.21C59.0497 116.227 58.6733 116.338 58.375 116.543C58.0767 116.747 57.8466 117.043 57.6847 117.429C57.5227 117.815 57.419 118.29 57.3736 118.852H57.4588C57.6804 118.443 57.9872 118.142 58.3793 117.949C58.7713 117.756 59.1918 117.659 59.6406 117.659C60.152 117.659 60.6122 117.778 61.0213 118.017C61.4304 118.256 61.7543 118.609 61.9929 119.078C62.2315 119.547 62.3509 120.125 62.3509 120.812C62.3509 121.497 62.2287 122.088 61.9844 122.585C61.7429 123.082 61.4034 123.466 60.9659 123.736C60.5313 124.003 60.0213 124.136 59.4361 124.136C58.8509 124.136 58.3381 123.999 57.8977 123.723C57.4574 123.445 57.1151 123.033 56.8707 122.487C56.6264 121.939 56.5043 121.261 56.5043 120.455V119.756C56.5043 118.298 56.7514 117.193 57.2457 116.44C57.7429 115.687 58.4901 115.298 59.4872 115.273C59.8395 115.261 60.1534 115.259 60.429 115.264C60.7045 115.27 60.9446 115.257 61.1491 115.226C61.3537 115.195 61.527 115.119 61.669 115ZM59.4361 123.233C59.831 123.233 60.1705 123.134 60.4545 122.935C60.7415 122.736 60.9616 122.456 61.1151 122.095C61.2685 121.732 61.3452 121.304 61.3452 120.812C61.3452 120.335 61.267 119.929 61.1108 119.594C60.9574 119.259 60.7372 119.003 60.4503 118.827C60.1634 118.651 59.8196 118.562 59.419 118.562C59.1264 118.562 58.8636 118.612 58.6307 118.712C58.3977 118.811 58.1989 118.957 58.0341 119.151C57.8693 119.344 57.7415 119.58 57.6506 119.858C57.5625 120.136 57.5156 120.455 57.5099 120.812C57.5099 121.545 57.6818 122.132 58.0256 122.572C58.3693 123.013 58.8395 123.233 59.4361 123.233ZM65.8153 124.153C65.4006 124.153 65.0241 124.075 64.6861 123.919C64.348 123.76 64.0795 123.531 63.8807 123.233C63.6818 122.932 63.5824 122.568 63.5824 122.142C63.5824 121.767 63.6563 121.463 63.804 121.23C63.9517 120.994 64.1491 120.81 64.3963 120.676C64.6435 120.543 64.9162 120.443 65.2145 120.378C65.5156 120.31 65.8182 120.256 66.1222 120.216C66.5199 120.165 66.8423 120.126 67.0895 120.101C67.3395 120.072 67.5213 120.026 67.6349 119.96C67.7514 119.895 67.8097 119.781 67.8097 119.619V119.585C67.8097 119.165 67.6946 118.838 67.4645 118.605C67.2372 118.372 66.892 118.256 66.429 118.256C65.9489 118.256 65.5724 118.361 65.2997 118.571C65.027 118.781 64.8352 119.006 64.7244 119.244L63.7699 118.903C63.9403 118.506 64.1676 118.196 64.4517 117.974C64.7386 117.75 65.0511 117.594 65.3892 117.506C65.7301 117.415 66.0653 117.369 66.3949 117.369C66.6051 117.369 66.8466 117.395 67.1193 117.446C67.3949 117.494 67.6605 117.595 67.9162 117.749C68.1747 117.902 68.3892 118.134 68.5597 118.443C68.7301 118.753 68.8153 119.168 68.8153 119.688V124H67.8097V123.114H67.7585C67.6903 123.256 67.5767 123.408 67.4176 123.57C67.2585 123.732 67.0469 123.869 66.7827 123.983C66.5185 124.097 66.196 124.153 65.8153 124.153ZM65.9688 123.25C66.3665 123.25 66.7017 123.172 66.9744 123.016C67.25 122.859 67.4574 122.658 67.5966 122.411C67.7386 122.163 67.8097 121.903 67.8097 121.631V120.71C67.767 120.761 67.6733 120.808 67.5284 120.851C67.3864 120.891 67.2216 120.926 67.0341 120.957C66.8494 120.986 66.669 121.011 66.4929 121.034C66.3196 121.054 66.179 121.071 66.071 121.085C65.8097 121.119 65.5653 121.175 65.3381 121.251C65.1136 121.325 64.9318 121.437 64.7926 121.588C64.6563 121.736 64.5881 121.937 64.5881 122.193C64.5881 122.543 64.7173 122.807 64.9759 122.986C65.2372 123.162 65.5682 123.25 65.9688 123.25ZM70.6509 124V117.455H71.6566V120.301H72.3214L74.6737 117.455H75.9691L73.3271 120.608L76.0032 124H74.7077L72.56 121.239H71.6566V124H70.6509ZM78.1019 122.517L81.2553 117.455H82.4144V124H81.4087V118.938L78.2724 124H77.0962V117.455H78.1019V122.517Z" fill="#D6D0D0"/>
<rect width="107" height="21" transform="translate(30 132)" fill="#2B495D"/>
<path d="M41.517 147.119V146.131H42.0625C42.2727 146.131 42.4489 146.089 42.5909 146.007C42.7358 145.925 42.8551 145.818 42.9489 145.688C43.0455 145.557 43.125 145.42 43.1875 145.278L43.3239 144.955L40.3068 138.273H41.4489L43.8523 143.693L46.0511 138.273H47.1761L44.1591 145.585C44.0398 145.858 43.9034 146.111 43.75 146.344C43.5994 146.577 43.3935 146.764 43.1321 146.906C42.8736 147.048 42.5227 147.119 42.0795 147.119H41.517ZM47.9283 147V140.455H48.9339V143.301H49.5987L51.951 140.455H53.2464L50.6044 143.608L53.2805 147H51.9851L49.8374 144.239H48.9339V147H47.9283ZM54.3736 149.455V140.455H55.3452V141.494H55.4645C55.5384 141.381 55.6406 141.236 55.7713 141.06C55.9048 140.881 56.0952 140.722 56.3423 140.582C56.5923 140.44 56.9304 140.369 57.3565 140.369C57.9077 140.369 58.3935 140.507 58.8139 140.783C59.2344 141.058 59.5625 141.449 59.7983 141.955C60.0341 142.46 60.152 143.057 60.152 143.744C60.152 144.438 60.0341 145.038 59.7983 145.547C59.5625 146.053 59.2358 146.445 58.8182 146.723C58.4006 146.999 57.919 147.136 57.3736 147.136C56.9531 147.136 56.6165 147.067 56.3636 146.928C56.1108 146.786 55.9162 146.625 55.7798 146.446C55.6435 146.264 55.5384 146.114 55.4645 145.994H55.3793V149.455H54.3736ZM55.3622 143.727C55.3622 144.222 55.4347 144.658 55.5795 145.036C55.7244 145.411 55.9361 145.705 56.2145 145.918C56.4929 146.128 56.8338 146.233 57.2372 146.233C57.6577 146.233 58.0085 146.122 58.2898 145.901C58.5739 145.676 58.7869 145.375 58.929 144.997C59.0739 144.616 59.1463 144.193 59.1463 143.727C59.1463 143.267 59.0753 142.852 58.9332 142.483C58.794 142.111 58.5824 141.817 58.2983 141.601C58.017 141.382 57.6634 141.273 57.2372 141.273C56.8281 141.273 56.4844 141.376 56.206 141.584C55.9276 141.788 55.7173 142.075 55.5753 142.445C55.4332 142.811 55.3622 143.239 55.3622 143.727ZM63.6122 147.153C63.1974 147.153 62.821 147.075 62.483 146.919C62.1449 146.76 61.8764 146.531 61.6776 146.233C61.4787 145.932 61.3793 145.568 61.3793 145.142C61.3793 144.767 61.4531 144.463 61.6009 144.23C61.7486 143.994 61.946 143.81 62.1932 143.676C62.4403 143.543 62.7131 143.443 63.0114 143.378C63.3125 143.31 63.6151 143.256 63.919 143.216C64.3168 143.165 64.6392 143.126 64.8864 143.101C65.1364 143.072 65.3182 143.026 65.4318 142.96C65.5483 142.895 65.6065 142.781 65.6065 142.619V142.585C65.6065 142.165 65.4915 141.838 65.2614 141.605C65.0341 141.372 64.6889 141.256 64.2259 141.256C63.7457 141.256 63.3693 141.361 63.0966 141.571C62.8239 141.781 62.6321 142.006 62.5213 142.244L61.5668 141.903C61.7372 141.506 61.9645 141.196 62.2486 140.974C62.5355 140.75 62.848 140.594 63.1861 140.506C63.527 140.415 63.8622 140.369 64.1918 140.369C64.402 140.369 64.6435 140.395 64.9162 140.446C65.1918 140.494 65.4574 140.595 65.7131 140.749C65.9716 140.902 66.1861 141.134 66.3565 141.443C66.527 141.753 66.6122 142.168 66.6122 142.688V147H65.6065V146.114H65.5554C65.4872 146.256 65.3736 146.408 65.2145 146.57C65.0554 146.732 64.8438 146.869 64.5795 146.983C64.3153 147.097 63.9929 147.153 63.6122 147.153ZM63.7656 146.25C64.1634 146.25 64.4986 146.172 64.7713 146.016C65.0469 145.859 65.2543 145.658 65.3935 145.411C65.5355 145.163 65.6065 144.903 65.6065 144.631V143.71C65.5639 143.761 65.4702 143.808 65.3253 143.851C65.1832 143.891 65.0185 143.926 64.831 143.957C64.6463 143.986 64.4659 144.011 64.2898 144.034C64.1165 144.054 63.9759 144.071 63.8679 144.085C63.6065 144.119 63.3622 144.175 63.1349 144.251C62.9105 144.325 62.7287 144.437 62.5895 144.588C62.4531 144.736 62.3849 144.937 62.3849 145.193C62.3849 145.543 62.5142 145.807 62.7727 145.986C63.0341 146.162 63.3651 146.25 63.7656 146.25ZM68.4478 140.455H69.4535V146.062H71.9251V140.455H72.9308V146.062H75.4023V140.455H76.408V147H68.4478V140.455ZM80.989 147.136C80.3583 147.136 79.8143 146.997 79.3569 146.719C78.9023 146.438 78.5515 146.045 78.3043 145.543C78.06 145.037 77.9379 144.449 77.9379 143.778C77.9379 143.108 78.06 142.517 78.3043 142.006C78.5515 141.491 78.8952 141.091 79.3356 140.804C79.7788 140.514 80.2958 140.369 80.8867 140.369C81.2276 140.369 81.5643 140.426 81.8967 140.54C82.229 140.653 82.5316 140.838 82.8043 141.094C83.0771 141.347 83.2944 141.682 83.4563 142.099C83.6183 142.517 83.6992 143.031 83.6992 143.642V144.068H78.6538V143.199H82.6765C82.6765 142.83 82.6026 142.5 82.4549 142.21C82.31 141.92 82.1026 141.692 81.8327 141.524C81.5657 141.357 81.2504 141.273 80.8867 141.273C80.4862 141.273 80.1396 141.372 79.8469 141.571C79.5572 141.767 79.3342 142.023 79.1779 142.338C79.0217 142.653 78.9435 142.991 78.9435 143.352V143.932C78.9435 144.426 79.0288 144.845 79.1992 145.189C79.3725 145.53 79.6126 145.79 79.9194 145.969C80.2262 146.145 80.5827 146.233 80.989 146.233C81.2532 146.233 81.4918 146.196 81.7049 146.122C81.9208 146.045 82.1069 145.932 82.2631 145.781C82.4194 145.628 82.5401 145.437 82.6254 145.21L83.5969 145.483C83.4947 145.812 83.3228 146.102 83.0813 146.352C82.8398 146.599 82.5415 146.793 82.1864 146.932C81.8313 147.068 81.4322 147.136 80.989 147.136ZM89.6097 143.267V144.205H85.9961V143.267H89.6097ZM86.2347 140.455V147H85.229V140.455H86.2347ZM90.3768 140.455V147H89.3711V140.455H90.3768ZM93.2191 145.517L96.3725 140.455H97.5316V147H96.5259V141.938L93.3896 147H92.2134V140.455H93.2191V145.517ZM103.311 147V141.375H101.572C101.18 141.375 100.872 141.466 100.648 141.648C100.423 141.83 100.311 142.08 100.311 142.398C100.311 142.71 100.412 142.956 100.614 143.135C100.818 143.314 101.098 143.403 101.453 143.403H103.567V144.341H101.453C101.01 144.341 100.628 144.263 100.307 144.107C99.9858 143.95 99.7386 143.727 99.5653 143.438C99.392 143.145 99.3054 142.798 99.3054 142.398C99.3054 141.994 99.3963 141.648 99.5781 141.358C99.7599 141.068 100.02 140.845 100.358 140.689C100.699 140.533 101.104 140.455 101.572 140.455H104.266V147H103.311ZM98.9474 147L100.805 143.744H101.896L100.038 147H98.9474Z" fill="#D6D0D0"/>
<rect width="107" height="21" transform="translate(30 155)" fill="#2B495D"/>
<path d="M48.0795 164H47.0227C46.9602 163.696 46.8509 163.429 46.6946 163.199C46.5412 162.969 46.3537 162.776 46.1321 162.619C45.9134 162.46 45.6705 162.341 45.4034 162.261C45.1364 162.182 44.858 162.142 44.5682 162.142C44.0398 162.142 43.5611 162.276 43.1321 162.543C42.706 162.81 42.3665 163.203 42.1136 163.723C41.8636 164.243 41.7386 164.881 41.7386 165.636C41.7386 166.392 41.8636 167.03 42.1136 167.55C42.3665 168.07 42.706 168.463 43.1321 168.73C43.5611 168.997 44.0398 169.131 44.5682 169.131C44.858 169.131 45.1364 169.091 45.4034 169.011C45.6705 168.932 45.9134 168.814 46.1321 168.658C46.3537 168.499 46.5412 168.304 46.6946 168.074C46.8509 167.841 46.9602 167.574 47.0227 167.273H48.0795C48 167.719 47.8551 168.118 47.6449 168.47C47.4347 168.822 47.1733 169.122 46.8608 169.369C46.5483 169.614 46.1974 169.8 45.8082 169.928C45.4219 170.055 45.0085 170.119 44.5682 170.119C43.8239 170.119 43.1619 169.938 42.5824 169.574C42.0028 169.21 41.5469 168.693 41.2145 168.023C40.8821 167.352 40.7159 166.557 40.7159 165.636C40.7159 164.716 40.8821 163.92 41.2145 163.25C41.5469 162.58 42.0028 162.062 42.5824 161.699C43.1619 161.335 43.8239 161.153 44.5682 161.153C45.0085 161.153 45.4219 161.217 45.8082 161.345C46.1974 161.473 46.5483 161.661 46.8608 161.908C47.1733 162.152 47.4347 162.45 47.6449 162.803C47.8551 163.152 48 163.551 48.0795 164ZM49.2759 164.392V163.455H54.5941V164.392H52.4464V170H51.4407V164.392H49.2759ZM57.6474 170.153C57.2326 170.153 56.8562 170.075 56.5181 169.919C56.18 169.76 55.9116 169.531 55.7127 169.233C55.5138 168.932 55.4144 168.568 55.4144 168.142C55.4144 167.767 55.4883 167.463 55.636 167.23C55.7837 166.994 55.9812 166.81 56.2283 166.676C56.4755 166.543 56.7482 166.443 57.0465 166.378C57.3477 166.31 57.6502 166.256 57.9542 166.216C58.3519 166.165 58.6744 166.126 58.9215 166.101C59.1715 166.072 59.3533 166.026 59.467 165.96C59.5835 165.895 59.6417 165.781 59.6417 165.619V165.585C59.6417 165.165 59.5266 164.838 59.2965 164.605C59.0692 164.372 58.7241 164.256 58.261 164.256C57.7809 164.256 57.4045 164.361 57.1317 164.571C56.859 164.781 56.6673 165.006 56.5565 165.244L55.6019 164.903C55.7724 164.506 55.9996 164.196 56.2837 163.974C56.5707 163.75 56.8832 163.594 57.2212 163.506C57.5621 163.415 57.8974 163.369 58.2269 163.369C58.4371 163.369 58.6786 163.395 58.9513 163.446C59.2269 163.494 59.4925 163.595 59.7482 163.749C60.0067 163.902 60.2212 164.134 60.3917 164.443C60.5621 164.753 60.6474 165.168 60.6474 165.688V170H59.6417V169.114H59.5906C59.5224 169.256 59.4087 169.408 59.2496 169.57C59.0906 169.732 58.8789 169.869 58.6147 169.983C58.3505 170.097 58.0281 170.153 57.6474 170.153ZM57.8008 169.25C58.1985 169.25 58.5337 169.172 58.8065 169.016C59.082 168.859 59.2894 168.658 59.4286 168.411C59.5707 168.163 59.6417 167.903 59.6417 167.631V166.71C59.5991 166.761 59.5053 166.808 59.3604 166.851C59.2184 166.891 59.0536 166.926 58.8661 166.957C58.6815 166.986 58.5011 167.011 58.3249 167.034C58.1516 167.054 58.011 167.071 57.9031 167.085C57.6417 167.119 57.3974 167.175 57.1701 167.251C56.9457 167.325 56.7638 167.437 56.6246 167.588C56.4883 167.736 56.4201 167.937 56.4201 168.193C56.4201 168.543 56.5494 168.807 56.8079 168.986C57.0692 169.162 57.4002 169.25 57.8008 169.25ZM61.5923 164.392V163.455H66.9105V164.392H64.7628V170H63.7571V164.392H61.5923ZM69.2468 165.824H71.1218C71.8888 165.824 72.4755 166.018 72.8817 166.408C73.288 166.797 73.4911 167.29 73.4911 167.886C73.4911 168.278 73.4002 168.635 73.2184 168.956C73.0366 169.274 72.7695 169.528 72.4173 169.719C72.065 169.906 71.6332 170 71.1218 170H68.3775V163.455H69.3832V169.062H71.1218C71.5195 169.062 71.8462 168.957 72.1019 168.747C72.3576 168.537 72.4854 168.267 72.4854 167.938C72.4854 167.591 72.3576 167.308 72.1019 167.089C71.8462 166.871 71.5195 166.761 71.1218 166.761H69.2468V165.824ZM76.0277 168.517L79.1811 163.455H80.3402V170H79.3345V164.938L76.1982 170H75.022V163.455H76.0277V168.517Z" fill="#D6D0D0"/>
<rect width="107" height="21" transform="translate(30 178)" fill="#2B495D"/>
<path d="M47.5852 184.273V193H46.5284V185.21H42.1307V193H41.0739V184.273H47.5852ZM49.5806 195.455V186.455H50.5522V187.494H50.6715C50.7454 187.381 50.8477 187.236 50.9783 187.06C51.1119 186.881 51.3022 186.722 51.5494 186.582C51.7994 186.44 52.1374 186.369 52.5636 186.369C53.1147 186.369 53.6005 186.507 54.021 186.783C54.4414 187.058 54.7695 187.449 55.0053 187.955C55.2411 188.46 55.359 189.057 55.359 189.744C55.359 190.438 55.2411 191.038 55.0053 191.547C54.7695 192.053 54.4428 192.445 54.0252 192.723C53.6076 192.999 53.1261 193.136 52.5806 193.136C52.1602 193.136 51.8235 193.067 51.5707 192.928C51.3178 192.786 51.1232 192.625 50.9869 192.446C50.8505 192.264 50.7454 192.114 50.6715 191.994H50.5863V195.455H49.5806ZM50.5692 189.727C50.5692 190.222 50.6417 190.658 50.7866 191.036C50.9315 191.411 51.1431 191.705 51.4215 191.918C51.6999 192.128 52.0408 192.233 52.4442 192.233C52.8647 192.233 53.2156 192.122 53.4968 191.901C53.7809 191.676 53.994 191.375 54.136 190.997C54.2809 190.616 54.3533 190.193 54.3533 189.727C54.3533 189.267 54.2823 188.852 54.1403 188.483C54.0011 188.111 53.7894 187.817 53.5053 187.601C53.2241 187.382 52.8704 187.273 52.4442 187.273C52.0352 187.273 51.6914 187.376 51.413 187.584C51.1346 187.788 50.9244 188.075 50.7823 188.445C50.6403 188.811 50.5692 189.239 50.5692 189.727ZM59.5522 193.136C58.9613 193.136 58.4428 192.996 57.9968 192.714C57.5536 192.433 57.207 192.04 56.957 191.534C56.7099 191.028 56.5863 190.437 56.5863 189.761C56.5863 189.08 56.7099 188.484 56.957 187.976C57.207 187.467 57.5536 187.072 57.9968 186.791C58.4428 186.51 58.9613 186.369 59.5522 186.369C60.1431 186.369 60.6602 186.51 61.1033 186.791C61.5494 187.072 61.896 187.467 62.1431 187.976C62.3931 188.484 62.5181 189.08 62.5181 189.761C62.5181 190.437 62.3931 191.028 62.1431 191.534C61.896 192.04 61.5494 192.433 61.1033 192.714C60.6602 192.996 60.1431 193.136 59.5522 193.136ZM59.5522 192.233C60.0011 192.233 60.3704 192.118 60.6602 191.888C60.9499 191.658 61.1644 191.355 61.3036 190.98C61.4428 190.605 61.5124 190.199 61.5124 189.761C61.5124 189.324 61.4428 188.916 61.3036 188.538C61.1644 188.161 60.9499 187.855 60.6602 187.622C60.3704 187.389 60.0011 187.273 59.5522 187.273C59.1033 187.273 58.734 187.389 58.4442 187.622C58.1545 187.855 57.94 188.161 57.8008 188.538C57.6616 188.916 57.592 189.324 57.592 189.761C57.592 190.199 57.6616 190.605 57.8008 190.98C57.94 191.355 58.1545 191.658 58.4442 191.888C58.734 192.118 59.1033 192.233 59.5522 192.233ZM69.0987 186.455V193H68.093V186.455H69.0987ZM68.7067 189.574V190.511C68.4794 190.597 68.2536 190.672 68.0291 190.737C67.8047 190.8 67.5689 190.849 67.3217 190.886C67.0746 190.92 66.8033 190.938 66.5078 190.938C65.7663 190.938 65.1712 190.737 64.7223 190.337C64.2763 189.936 64.0533 189.335 64.0533 188.534V186.438H65.0589V188.534C65.0589 188.869 65.1229 189.145 65.2507 189.361C65.3786 189.577 65.5518 189.737 65.7706 189.842C65.9893 189.947 66.2351 190 66.5078 190C66.9339 190 67.3189 189.962 67.6626 189.885C68.0092 189.805 68.3572 189.702 68.7067 189.574ZM73.6882 193.136C73.0575 193.136 72.5135 192.997 72.0561 192.719C71.6016 192.438 71.2507 192.045 71.0036 191.543C70.7592 191.037 70.6371 190.449 70.6371 189.778C70.6371 189.108 70.7592 188.517 71.0036 188.006C71.2507 187.491 71.5945 187.091 72.0348 186.804C72.478 186.514 72.995 186.369 73.5859 186.369C73.9268 186.369 74.2635 186.426 74.5959 186.54C74.9283 186.653 75.2308 186.838 75.5036 187.094C75.7763 187.347 75.9936 187.682 76.1555 188.099C76.3175 188.517 76.3984 189.031 76.3984 189.642V190.068H71.353V189.199H75.3757C75.3757 188.83 75.3018 188.5 75.1541 188.21C75.0092 187.92 74.8018 187.692 74.532 187.524C74.2649 187.357 73.9496 187.273 73.5859 187.273C73.1854 187.273 72.8388 187.372 72.5462 187.571C72.2564 187.767 72.0334 188.023 71.8771 188.338C71.7209 188.653 71.6428 188.991 71.6428 189.352V189.932C71.6428 190.426 71.728 190.845 71.8984 191.189C72.0717 191.53 72.3118 191.79 72.6186 191.969C72.9254 192.145 73.282 192.233 73.6882 192.233C73.9524 192.233 74.1911 192.196 74.4041 192.122C74.62 192.045 74.8061 191.932 74.9624 191.781C75.1186 191.628 75.2393 191.437 75.3246 191.21L76.2962 191.483C76.1939 191.812 76.022 192.102 75.7805 192.352C75.5391 192.599 75.2408 192.793 74.8857 192.932C74.5305 193.068 74.1314 193.136 73.6882 193.136ZM80.6726 193.136C80.0419 193.136 79.4979 192.997 79.0405 192.719C78.5859 192.438 78.2351 192.045 77.9879 191.543C77.7436 191.037 77.6214 190.449 77.6214 189.778C77.6214 189.108 77.7436 188.517 77.9879 188.006C78.2351 187.491 78.5788 187.091 79.0192 186.804C79.4624 186.514 79.9794 186.369 80.5703 186.369C80.9112 186.369 81.2479 186.426 81.5803 186.54C81.9126 186.653 82.2152 186.838 82.4879 187.094C82.7607 187.347 82.978 187.682 83.1399 188.099C83.3018 188.517 83.3828 189.031 83.3828 189.642V190.068H78.3374V189.199H82.3601C82.3601 188.83 82.2862 188.5 82.1385 188.21C81.9936 187.92 81.7862 187.692 81.5163 187.524C81.2493 187.357 80.9339 187.273 80.5703 187.273C80.1697 187.273 79.8232 187.372 79.5305 187.571C79.2408 187.767 79.0178 188.023 78.8615 188.338C78.7053 188.653 78.6271 188.991 78.6271 189.352V189.932C78.6271 190.426 78.7124 190.845 78.8828 191.189C79.0561 191.53 79.2962 191.79 79.603 191.969C79.9098 192.145 80.2663 192.233 80.6726 192.233C80.9368 192.233 81.1754 192.196 81.3885 192.122C81.6044 192.045 81.7905 191.932 81.9467 191.781C82.103 191.628 82.2237 191.437 82.3089 191.21L83.2805 191.483C83.1783 191.812 83.0064 192.102 82.7649 192.352C82.5234 192.599 82.2251 192.793 81.87 192.932C81.5149 193.068 81.1158 193.136 80.6726 193.136Z" fill="#D6D0D0"/>
<rect x="142.5" y="40.5" width="337" height="195" stroke="#2B495D"/>
<rect width="450" height="15" transform="translate(30 246)" fill="#7B808D"/>
<rect x="30" y="246" width="30" height="10" fill="#833233"/>
<rect x="70" y="246" width="30" height="5" fill="#2B495D"/>
<rect x="110" y="246" width="30" height="5" fill="#2B495D"/>
<rect x="150" y="246" width="30" height="5" fill="#2B495D"/>
<rect x="70" y="256" width="30" height="5" fill="#2B495D"/>
<rect x="110" y="256" width="30" height="5" fill="#2B495D"/>
<rect x="150" y="256" width="30" height="5" fill="#2B495D"/>
<rect x="415" y="246" width="15" height="10" fill="#2B495D"/>
<rect x="440" y="246" width="15" height="10" fill="#2B495D"/>
<rect x="465" y="246" width="15" height="10" fill="#2B495D"/>
</svg>
