<svg width="510" height="261" viewBox="0 0 510 261" fill="none" xmlns="http://www.w3.org/2000/svg">
<rect width="510" height="261" fill="#7B808D"/>
<rect x="30" y="10" width="60" height="20" fill="#833233"/>
<rect x="400" y="10" width="20" height="20" fill="#2B495D"/>
<rect x="430" y="10" width="20" height="20" fill="#2B495D"/>
<rect x="460" y="10" width="20" height="20" fill="#2B495D"/>
<rect width="450" height="20" transform="translate(30 40)" fill="#2B495D"/>
<path d="M41.1875 54.5L38.1875 50.4943H37.1136V54.5H36.0568V45.7727H37.1136V49.5568H37.5739L41.0682 45.7727H42.3295L38.8011 49.608L42.4489 54.5H41.1875ZM45.6044 54.6534C45.1896 54.6534 44.8132 54.5753 44.4751 54.419C44.1371 54.2599 43.8686 54.0312 43.6697 53.733C43.4709 53.4318 43.3714 53.0682 43.3714 52.642C43.3714 52.267 43.4453 51.9631 43.593 51.7301C43.7408 51.4943 43.9382 51.3097 44.1854 51.1761C44.4325 51.0426 44.7053 50.9432 45.0036 50.8778C45.3047 50.8097 45.6072 50.7557 45.9112 50.7159C46.3089 50.6648 46.6314 50.6264 46.8786 50.6009C47.1286 50.5724 47.3104 50.5256 47.424 50.4602C47.5405 50.3949 47.5987 50.2812 47.5987 50.1193V50.0852C47.5987 49.6648 47.4837 49.3381 47.2536 49.1051C47.0263 48.8722 46.6811 48.7557 46.218 48.7557C45.7379 48.7557 45.3615 48.8608 45.0888 49.071C44.8161 49.2812 44.6243 49.5057 44.5135 49.7443L43.5589 49.4034C43.7294 49.0057 43.9567 48.696 44.2408 48.4744C44.5277 48.25 44.8402 48.0937 45.1783 48.0057C45.5192 47.9148 45.8544 47.8693 46.1839 47.8693C46.3942 47.8693 46.6357 47.8949 46.9084 47.946C47.1839 47.9943 47.4496 48.0952 47.7053 48.2486C47.9638 48.402 48.1783 48.6335 48.3487 48.9432C48.5192 49.2528 48.6044 49.6676 48.6044 50.1875V54.5H47.5987V53.6136H47.5476C47.4794 53.7557 47.3658 53.9077 47.2067 54.0696C47.0476 54.2315 46.8359 54.3693 46.5717 54.483C46.3075 54.5966 45.9851 54.6534 45.6044 54.6534ZM45.7578 53.75C46.1555 53.75 46.4908 53.6719 46.7635 53.5156C47.0391 53.3594 47.2464 53.1577 47.3857 52.9105C47.5277 52.6634 47.5987 52.4034 47.5987 52.1307V51.2102C47.5561 51.2614 47.4624 51.3082 47.3175 51.3509C47.1754 51.3906 47.0107 51.4261 46.8232 51.4574C46.6385 51.4858 46.4581 51.5114 46.282 51.5341C46.1087 51.554 45.968 51.571 45.8601 51.5852C45.5987 51.6193 45.3544 51.6747 45.1271 51.7514C44.9027 51.8253 44.7209 51.9375 44.5817 52.0881C44.4453 52.2358 44.3771 52.4375 44.3771 52.6932C44.3771 53.0426 44.5064 53.3068 44.7649 53.4858C45.0263 53.6619 45.3572 53.75 45.7578 53.75ZM49.5494 48.892V47.9545H54.8675V48.892H52.7198V54.5H51.7141V48.892H49.5494ZM58.739 54.6364C58.1083 54.6364 57.5643 54.4972 57.1069 54.2188C56.6523 53.9375 56.3015 53.5455 56.0543 53.0426C55.81 52.5369 55.6879 51.9489 55.6879 51.2784C55.6879 50.608 55.81 50.017 56.0543 49.5057C56.3015 48.9915 56.6452 48.5909 57.0856 48.304C57.5288 48.0142 58.0458 47.8693 58.6367 47.8693C58.9776 47.8693 59.3143 47.9261 59.6467 48.0398C59.979 48.1534 60.2816 48.3381 60.5543 48.5938C60.8271 48.8466 61.0444 49.1818 61.2063 49.5994C61.3683 50.017 61.4492 50.5312 61.4492 51.142V51.5682H56.4038V50.6989H60.4265C60.4265 50.3295 60.3526 50 60.2049 49.7102C60.06 49.4205 59.8526 49.1918 59.5827 49.0241C59.3157 48.8565 59.0004 48.7727 58.6367 48.7727C58.2362 48.7727 57.8896 48.8722 57.5969 49.071C57.3072 49.267 57.0842 49.5227 56.9279 49.8381C56.7717 50.1534 56.6935 50.4915 56.6935 50.8523V51.4318C56.6935 51.9261 56.7788 52.3452 56.9492 52.6889C57.1225 53.0298 57.3626 53.2898 57.6694 53.4688C57.9762 53.6449 58.3327 53.733 58.739 53.733C59.0032 53.733 59.2418 53.696 59.4549 53.6222C59.6708 53.5455 59.8569 53.4318 60.0131 53.2812C60.1694 53.1278 60.2901 52.9375 60.3754 52.7102L61.3469 52.983C61.2447 53.3125 61.0728 53.6023 60.8313 53.8523C60.5898 54.0994 60.2915 54.2926 59.9364 54.4318C59.5813 54.5682 59.1822 54.6364 58.739 54.6364ZM67.0188 47.9545V48.892H63.9847V54.5H62.979V47.9545H67.0188ZM70.8061 54.6364C70.2152 54.6364 69.6967 54.4957 69.2507 54.2145C68.8075 53.9332 68.4609 53.5398 68.2109 53.0341C67.9638 52.5284 67.8402 51.9375 67.8402 51.2614C67.8402 50.5795 67.9638 49.9844 68.2109 49.4759C68.4609 48.9673 68.8075 48.5724 69.2507 48.2912C69.6967 48.0099 70.2152 47.8693 70.8061 47.8693C71.397 47.8693 71.9141 48.0099 72.3572 48.2912C72.8033 48.5724 73.1499 48.9673 73.397 49.4759C73.647 49.9844 73.772 50.5795 73.772 51.2614C73.772 51.9375 73.647 52.5284 73.397 53.0341C73.1499 53.5398 72.8033 53.9332 72.3572 54.2145C71.9141 54.4957 71.397 54.6364 70.8061 54.6364ZM70.8061 53.733C71.255 53.733 71.6243 53.6179 71.9141 53.3878C72.2038 53.1577 72.4183 52.8551 72.5575 52.4801C72.6967 52.1051 72.7663 51.6989 72.7663 51.2614C72.7663 50.8239 72.6967 50.4162 72.5575 50.0384C72.4183 49.6605 72.2038 49.3551 71.9141 49.1222C71.6243 48.8892 71.255 48.7727 70.8061 48.7727C70.3572 48.7727 69.9879 48.8892 69.6982 49.1222C69.4084 49.3551 69.1939 49.6605 69.0547 50.0384C68.9155 50.4162 68.8459 50.8239 68.8459 51.2614C68.8459 51.6989 68.9155 52.1051 69.0547 52.4801C69.1939 52.8551 69.4084 53.1577 69.6982 53.3878C69.9879 53.6179 70.3572 53.733 70.8061 53.733ZM75.3072 56.9545V47.9545H76.2788V48.9943H76.3981C76.4719 48.8807 76.5742 48.7358 76.7049 48.5597C76.8384 48.3807 77.0288 48.2216 77.2759 48.0824C77.5259 47.9403 77.864 47.8693 78.2901 47.8693C78.8413 47.8693 79.3271 48.0071 79.7475 48.2827C80.168 48.5582 80.4961 48.9489 80.7319 49.4545C80.9677 49.9602 81.0856 50.5568 81.0856 51.2443C81.0856 51.9375 80.9677 52.5384 80.7319 53.0469C80.4961 53.5526 80.1694 53.9446 79.7518 54.223C79.3342 54.4986 78.8526 54.6364 78.3072 54.6364C77.8867 54.6364 77.5501 54.5668 77.2972 54.4276C77.0444 54.2855 76.8498 54.125 76.7134 53.946C76.5771 53.7642 76.4719 53.6136 76.3981 53.4943H76.3129V56.9545H75.3072ZM76.2958 51.2273C76.2958 51.7216 76.3683 52.1577 76.5131 52.5355C76.658 52.9105 76.8697 53.2045 77.1481 53.4176C77.4265 53.6278 77.7674 53.733 78.1708 53.733C78.5913 53.733 78.9421 53.6222 79.2234 53.4006C79.5075 53.1761 79.7205 52.875 79.8626 52.4972C80.0075 52.1165 80.0799 51.6932 80.0799 51.2273C80.0799 50.767 80.0089 50.3523 79.8668 49.983C79.7276 49.6108 79.516 49.3168 79.2319 49.1009C78.9506 48.8821 78.5969 48.7727 78.1708 48.7727C77.7617 48.7727 77.418 48.8764 77.1396 49.0838C76.8612 49.2884 76.6509 49.5753 76.5089 49.9446C76.3668 50.3111 76.2958 50.7386 76.2958 51.2273ZM83.6254 53.017L86.7788 47.9545H87.9379V54.5H86.9322V49.4375L83.7958 54.5H82.6197V47.9545H83.6254V53.017ZM90.7855 53.017L93.9389 47.9545H95.098V54.5H94.0923V49.4375L90.956 54.5H89.7798V47.9545H90.7855V53.017Z" fill="#D6D0D0"/>
<rect width="116" height="16" transform="translate(102 42)" fill="#7B808D"/>
<path d="M200 48.5L203.25 51.75L206.5 48.5" stroke="#D6D0D0" stroke-width="1.54545" stroke-linecap="round" stroke-linejoin="round"/>
<rect x="30.5" y="61.5" width="449" height="164" stroke="#2B495D"/>
<rect width="110" height="21" transform="translate(105 61)" fill="#2B495D"/>
<path d="M116.057 76V67.2727H117.114V71.1591H121.767V67.2727H122.824V76H121.767V72.0966H117.114V76H116.057ZM127.462 76.1364C126.871 76.1364 126.353 75.9957 125.907 75.7145C125.464 75.4332 125.117 75.0398 124.867 74.5341C124.62 74.0284 124.496 73.4375 124.496 72.7614C124.496 72.0795 124.62 71.4844 124.867 70.9759C125.117 70.4673 125.464 70.0724 125.907 69.7912C126.353 69.5099 126.871 69.3693 127.462 69.3693C128.053 69.3693 128.57 69.5099 129.013 69.7912C129.46 70.0724 129.806 70.4673 130.053 70.9759C130.303 71.4844 130.428 72.0795 130.428 72.7614C130.428 73.4375 130.303 74.0284 130.053 74.5341C129.806 75.0398 129.46 75.4332 129.013 75.7145C128.57 75.9957 128.053 76.1364 127.462 76.1364ZM127.462 75.233C127.911 75.233 128.281 75.1179 128.57 74.8878C128.86 74.6577 129.075 74.3551 129.214 73.9801C129.353 73.6051 129.423 73.1989 129.423 72.7614C129.423 72.3239 129.353 71.9162 129.214 71.5384C129.075 71.1605 128.86 70.8551 128.57 70.6222C128.281 70.3892 127.911 70.2727 127.462 70.2727C127.013 70.2727 126.644 70.3892 126.354 70.6222C126.065 70.8551 125.85 71.1605 125.711 71.5384C125.572 71.9162 125.502 72.3239 125.502 72.7614C125.502 73.1989 125.572 73.6051 125.711 73.9801C125.85 74.3551 126.065 74.6577 126.354 74.8878C126.644 75.1179 127.013 75.233 127.462 75.233ZM131.285 76L133.944 72.6761L131.319 69.4545H132.512L134.694 72.25H135.239V69.4545H136.245V72.25H136.773L138.955 69.4545H140.148L137.54 72.6761L140.183 76H138.972L136.756 73.1875H136.245V76H135.239V73.1875H134.728L132.495 76H131.285ZM142.625 74.517L145.779 69.4545H146.938V76H145.932V70.9375L142.796 76H141.62V69.4545H142.625V74.517Z" fill="#D6D0D0"/>
<rect width="110" height="21" transform="translate(105 83)" fill="#2B495D"/>
<path d="M121.392 93.2784V94.2159H117.795V93.2784H121.392ZM115.716 95.2727H116.807C116.901 95.8864 117.108 96.358 117.429 96.6875C117.75 97.017 118.264 97.1818 118.972 97.1818C119.472 97.1818 119.889 97.0412 120.224 96.7599C120.563 96.4787 120.815 96.1065 120.983 95.6435C121.153 95.1804 121.239 94.6761 121.239 94.1307V93.1591C121.239 92.5568 121.143 92.027 120.953 91.5696C120.766 91.1094 120.494 90.7514 120.139 90.4957C119.787 90.2372 119.364 90.108 118.869 90.108C118.438 90.108 118.08 90.1847 117.795 90.3381C117.511 90.4915 117.29 90.7116 117.131 90.9986C116.972 91.2855 116.864 91.6307 116.807 92.0341H115.716C115.773 91.4773 115.925 90.983 116.172 90.5511C116.422 90.1165 116.77 89.7756 117.216 89.5284C117.665 89.2784 118.216 89.1534 118.869 89.1534C119.58 89.1534 120.193 89.3196 120.71 89.652C121.227 89.9815 121.626 90.446 121.908 91.0455C122.189 91.642 122.33 92.3409 122.33 93.142V94.1477C122.33 94.9489 122.19 95.6477 121.912 96.2443C121.634 96.8381 121.243 97.2997 120.74 97.6293C120.237 97.956 119.648 98.1193 118.972 98.1193C118.278 98.1193 117.702 97.9943 117.241 97.7443C116.784 97.4915 116.43 97.1506 116.18 96.7216C115.933 96.2898 115.778 95.8068 115.716 95.2727ZM123.392 98V97.0625H123.63C123.826 97.0625 123.99 97.0241 124.12 96.9474C124.251 96.8679 124.356 96.7301 124.436 96.5341C124.518 96.3352 124.581 96.0597 124.623 95.7074C124.669 95.3523 124.701 94.9006 124.721 94.3523L124.841 91.4545H129.204V98H128.199V92.392H125.795L125.693 94.7273C125.67 95.2642 125.622 95.7372 125.548 96.1463C125.477 96.5526 125.368 96.8935 125.22 97.169C125.075 97.4446 124.882 97.652 124.64 97.7912C124.399 97.9304 124.096 98 123.733 98H123.392ZM133.794 98.1364C133.163 98.1364 132.619 97.9972 132.162 97.7188C131.707 97.4375 131.356 97.0455 131.109 96.5426C130.865 96.0369 130.743 95.4489 130.743 94.7784C130.743 94.108 130.865 93.517 131.109 93.0057C131.356 92.4915 131.7 92.0909 132.14 91.804C132.583 91.5142 133.1 91.3693 133.691 91.3693C134.032 91.3693 134.369 91.4261 134.701 91.5398C135.034 91.6534 135.336 91.8381 135.609 92.0938C135.882 92.3466 136.099 92.6818 136.261 93.0994C136.423 93.517 136.504 94.0312 136.504 94.642V95.0682H131.458V94.1989H135.481C135.481 93.8295 135.407 93.5 135.26 93.2102C135.115 92.9205 134.907 92.6918 134.637 92.5241C134.37 92.3565 134.055 92.2727 133.691 92.2727C133.291 92.2727 132.944 92.3722 132.652 92.571C132.362 92.767 132.139 93.0227 131.983 93.3381C131.826 93.6534 131.748 93.9915 131.748 94.3523V94.9318C131.748 95.4261 131.833 95.8452 132.004 96.1889C132.177 96.5298 132.417 96.7898 132.724 96.9688C133.031 97.1449 133.387 97.233 133.794 97.233C134.058 97.233 134.297 97.196 134.51 97.1222C134.725 97.0455 134.912 96.9318 135.068 96.7812C135.224 96.6278 135.345 96.4375 135.43 96.2102L136.402 96.483C136.299 96.8125 136.127 97.1023 135.886 97.3523C135.645 97.5994 135.346 97.7926 134.991 97.9318C134.636 98.0682 134.237 98.1364 133.794 98.1364ZM138.034 98V91.4545H139.039V94.3011H139.704L142.056 91.4545H143.352L140.71 94.608L143.386 98H142.091L139.943 95.2386H139.039V98H138.034ZM144.104 92.392V91.4545H149.422V92.392H147.275V98H146.269V92.392H144.104ZM150.889 100.455V91.4545H151.861V92.4943H151.98C152.054 92.3807 152.156 92.2358 152.287 92.0597C152.42 91.8807 152.611 91.7216 152.858 91.5824C153.108 91.4403 153.446 91.3693 153.872 91.3693C154.423 91.3693 154.909 91.5071 155.33 91.7827C155.75 92.0582 156.078 92.4489 156.314 92.9545C156.55 93.4602 156.668 94.0568 156.668 94.7443C156.668 95.4375 156.55 96.0384 156.314 96.5469C156.078 97.0526 155.751 97.4446 155.334 97.723C154.916 97.9986 154.435 98.1364 153.889 98.1364C153.469 98.1364 153.132 98.0668 152.879 97.9276C152.626 97.7855 152.432 97.625 152.295 97.446C152.159 97.2642 152.054 97.1136 151.98 96.9943H151.895V100.455H150.889ZM151.878 94.7273C151.878 95.2216 151.95 95.6577 152.095 96.0355C152.24 96.4105 152.452 96.7045 152.73 96.9176C153.009 97.1278 153.349 97.233 153.753 97.233C154.173 97.233 154.524 97.1222 154.805 96.9006C155.089 96.6761 155.303 96.375 155.445 95.9972C155.589 95.6165 155.662 95.1932 155.662 94.7273C155.662 94.267 155.591 93.8523 155.449 93.483C155.31 93.1108 155.098 92.8168 154.814 92.6009C154.533 92.3821 154.179 92.2727 153.753 92.2727C153.344 92.2727 153 92.3764 152.722 92.5838C152.443 92.7884 152.233 93.0753 152.091 93.4446C151.949 93.8111 151.878 94.2386 151.878 94.7273ZM160.861 98.1364C160.27 98.1364 159.751 97.9957 159.305 97.7145C158.862 97.4332 158.516 97.0398 158.266 96.5341C158.018 96.0284 157.895 95.4375 157.895 94.7614C157.895 94.0795 158.018 93.4844 158.266 92.9759C158.516 92.4673 158.862 92.0724 159.305 91.7912C159.751 91.5099 160.27 91.3693 160.861 91.3693C161.452 91.3693 161.969 91.5099 162.412 91.7912C162.858 92.0724 163.205 92.4673 163.452 92.9759C163.702 93.4844 163.827 94.0795 163.827 94.7614C163.827 95.4375 163.702 96.0284 163.452 96.5341C163.205 97.0398 162.858 97.4332 162.412 97.7145C161.969 97.9957 161.452 98.1364 160.861 98.1364ZM160.861 97.233C161.31 97.233 161.679 97.1179 161.969 96.8878C162.259 96.6577 162.473 96.3551 162.612 95.9801C162.751 95.6051 162.821 95.1989 162.821 94.7614C162.821 94.3239 162.751 93.9162 162.612 93.5384C162.473 93.1605 162.259 92.8551 161.969 92.6222C161.679 92.3892 161.31 92.2727 160.861 92.2727C160.412 92.2727 160.043 92.3892 159.753 92.6222C159.463 92.8551 159.249 93.1605 159.109 93.5384C158.97 93.9162 158.901 94.3239 158.901 94.7614C158.901 95.1989 158.97 95.6051 159.109 95.9801C159.249 96.3551 159.463 96.6577 159.753 96.8878C160.043 97.1179 160.412 97.233 160.861 97.233ZM169.743 94.267V95.2045H166.129V94.267H169.743ZM166.368 91.4545V98H165.362V91.4545H166.368ZM170.51 91.4545V98H169.504V91.4545H170.51ZM173.352 96.517L176.505 91.4545H177.664V98H176.659V92.9375L173.522 98H172.346V91.4545H173.352V96.517ZM179.506 98V91.4545H180.512V94.3011H181.177L183.529 91.4545H184.825L182.183 94.608L184.859 98H183.563L181.415 95.2386H180.512V98H179.506ZM187.878 98.1534C187.463 98.1534 187.087 98.0753 186.749 97.919C186.411 97.7599 186.142 97.5312 185.943 97.233C185.744 96.9318 185.645 96.5682 185.645 96.142C185.645 95.767 185.719 95.4631 185.866 95.2301C186.014 94.9943 186.212 94.8097 186.459 94.6761C186.706 94.5426 186.979 94.4432 187.277 94.3778C187.578 94.3097 187.881 94.2557 188.185 94.2159C188.582 94.1648 188.905 94.1264 189.152 94.1009C189.402 94.0724 189.584 94.0256 189.697 93.9602C189.814 93.8949 189.872 93.7812 189.872 93.6193V93.5852C189.872 93.1648 189.757 92.8381 189.527 92.6051C189.3 92.3722 188.955 92.2557 188.491 92.2557C188.011 92.2557 187.635 92.3608 187.362 92.571C187.089 92.7812 186.898 93.0057 186.787 93.2443L185.832 92.9034C186.003 92.5057 186.23 92.196 186.514 91.9744C186.801 91.75 187.114 91.5937 187.452 91.5057C187.793 91.4148 188.128 91.3693 188.457 91.3693C188.668 91.3693 188.909 91.3949 189.182 91.446C189.457 91.4943 189.723 91.5952 189.979 91.7486C190.237 91.902 190.452 92.1335 190.622 92.4432C190.793 92.7528 190.878 93.1676 190.878 93.6875V98H189.872V97.1136H189.821C189.753 97.2557 189.639 97.4077 189.48 97.5696C189.321 97.7315 189.109 97.8693 188.845 97.983C188.581 98.0966 188.259 98.1534 187.878 98.1534ZM188.031 97.25C188.429 97.25 188.764 97.1719 189.037 97.0156C189.313 96.8594 189.52 96.6577 189.659 96.4105C189.801 96.1634 189.872 95.9034 189.872 95.6307V94.7102C189.83 94.7614 189.736 94.8082 189.591 94.8509C189.449 94.8906 189.284 94.9261 189.097 94.9574C188.912 94.9858 188.732 95.0114 188.555 95.0341C188.382 95.054 188.241 95.071 188.134 95.0852C187.872 95.1193 187.628 95.1747 187.401 95.2514C187.176 95.3253 186.994 95.4375 186.855 95.5881C186.719 95.7358 186.651 95.9375 186.651 96.1932C186.651 96.5426 186.78 96.8068 187.038 96.9858C187.3 97.1619 187.631 97.25 188.031 97.25Z" fill="#D6D0D0"/>
<rect width="110" height="21" transform="translate(105 105)" fill="#2B495D"/>
<path d="M123.08 114H122.023C121.96 113.696 121.851 113.429 121.695 113.199C121.541 112.969 121.354 112.776 121.132 112.619C120.913 112.46 120.67 112.341 120.403 112.261C120.136 112.182 119.858 112.142 119.568 112.142C119.04 112.142 118.561 112.276 118.132 112.543C117.706 112.81 117.366 113.203 117.114 113.723C116.864 114.243 116.739 114.881 116.739 115.636C116.739 116.392 116.864 117.03 117.114 117.55C117.366 118.07 117.706 118.463 118.132 118.73C118.561 118.997 119.04 119.131 119.568 119.131C119.858 119.131 120.136 119.091 120.403 119.011C120.67 118.932 120.913 118.814 121.132 118.658C121.354 118.499 121.541 118.304 121.695 118.074C121.851 117.841 121.96 117.574 122.023 117.273H123.08C123 117.719 122.855 118.118 122.645 118.47C122.435 118.822 122.173 119.122 121.861 119.369C121.548 119.614 121.197 119.8 120.808 119.928C120.422 120.055 120.009 120.119 119.568 120.119C118.824 120.119 118.162 119.938 117.582 119.574C117.003 119.21 116.547 118.693 116.214 118.023C115.882 117.352 115.716 116.557 115.716 115.636C115.716 114.716 115.882 113.92 116.214 113.25C116.547 112.58 117.003 112.062 117.582 111.699C118.162 111.335 118.824 111.153 119.568 111.153C120.009 111.153 120.422 111.217 120.808 111.345C121.197 111.473 121.548 111.661 121.861 111.908C122.173 112.152 122.435 112.45 122.645 112.803C122.855 113.152 123 113.551 123.08 114ZM127.31 120.136C126.719 120.136 126.201 119.996 125.755 119.714C125.311 119.433 124.965 119.04 124.715 118.534C124.468 118.028 124.344 117.437 124.344 116.761C124.344 116.08 124.468 115.484 124.715 114.976C124.965 114.467 125.311 114.072 125.755 113.791C126.201 113.51 126.719 113.369 127.31 113.369C127.901 113.369 128.418 113.51 128.861 113.791C129.307 114.072 129.654 114.467 129.901 114.976C130.151 115.484 130.276 116.08 130.276 116.761C130.276 117.437 130.151 118.028 129.901 118.534C129.654 119.04 129.307 119.433 128.861 119.714C128.418 119.996 127.901 120.136 127.31 120.136ZM127.31 119.233C127.759 119.233 128.128 119.118 128.418 118.888C128.708 118.658 128.922 118.355 129.061 117.98C129.201 117.605 129.27 117.199 129.27 116.761C129.27 116.324 129.201 115.916 129.061 115.538C128.922 115.161 128.708 114.855 128.418 114.622C128.128 114.389 127.759 114.273 127.31 114.273C126.861 114.273 126.492 114.389 126.202 114.622C125.912 114.855 125.698 115.161 125.559 115.538C125.419 115.916 125.35 116.324 125.35 116.761C125.35 117.199 125.419 117.605 125.559 117.98C125.698 118.355 125.912 118.658 126.202 118.888C126.492 119.118 126.861 119.233 127.31 119.233ZM136.669 111L137.18 111.614C136.982 111.807 136.751 111.942 136.49 112.018C136.229 112.095 135.933 112.142 135.604 112.159C135.274 112.176 134.908 112.193 134.504 112.21C134.05 112.227 133.673 112.338 133.375 112.543C133.077 112.747 132.847 113.043 132.685 113.429C132.523 113.815 132.419 114.29 132.374 114.852H132.459C132.68 114.443 132.987 114.142 133.379 113.949C133.771 113.756 134.192 113.659 134.641 113.659C135.152 113.659 135.612 113.778 136.021 114.017C136.43 114.256 136.754 114.609 136.993 115.078C137.232 115.547 137.351 116.125 137.351 116.812C137.351 117.497 137.229 118.088 136.984 118.585C136.743 119.082 136.403 119.466 135.966 119.736C135.531 120.003 135.021 120.136 134.436 120.136C133.851 120.136 133.338 119.999 132.898 119.723C132.457 119.445 132.115 119.033 131.871 118.487C131.626 117.939 131.504 117.261 131.504 116.455V115.756C131.504 114.298 131.751 113.193 132.246 112.44C132.743 111.687 133.49 111.298 134.487 111.273C134.839 111.261 135.153 111.259 135.429 111.264C135.705 111.27 135.945 111.257 136.149 111.226C136.354 111.195 136.527 111.119 136.669 111ZM134.436 119.233C134.831 119.233 135.17 119.134 135.455 118.935C135.741 118.736 135.962 118.456 136.115 118.095C136.268 117.732 136.345 117.304 136.345 116.812C136.345 116.335 136.267 115.929 136.111 115.594C135.957 115.259 135.737 115.003 135.45 114.827C135.163 114.651 134.82 114.562 134.419 114.562C134.126 114.562 133.864 114.612 133.631 114.712C133.398 114.811 133.199 114.957 133.034 115.151C132.869 115.344 132.741 115.58 132.651 115.858C132.562 116.136 132.516 116.455 132.51 116.812C132.51 117.545 132.682 118.132 133.026 118.572C133.369 119.013 133.839 119.233 134.436 119.233ZM140.815 120.153C140.401 120.153 140.024 120.075 139.686 119.919C139.348 119.76 139.08 119.531 138.881 119.233C138.682 118.932 138.582 118.568 138.582 118.142C138.582 117.767 138.656 117.463 138.804 117.23C138.952 116.994 139.149 116.81 139.396 116.676C139.643 116.543 139.916 116.443 140.214 116.378C140.516 116.31 140.818 116.256 141.122 116.216C141.52 116.165 141.842 116.126 142.089 116.101C142.339 116.072 142.521 116.026 142.635 115.96C142.751 115.895 142.81 115.781 142.81 115.619V115.585C142.81 115.165 142.695 114.838 142.464 114.605C142.237 114.372 141.892 114.256 141.429 114.256C140.949 114.256 140.572 114.361 140.3 114.571C140.027 114.781 139.835 115.006 139.724 115.244L138.77 114.903C138.94 114.506 139.168 114.196 139.452 113.974C139.739 113.75 140.051 113.594 140.389 113.506C140.73 113.415 141.065 113.369 141.395 113.369C141.605 113.369 141.847 113.395 142.119 113.446C142.395 113.494 142.661 113.595 142.916 113.749C143.175 113.902 143.389 114.134 143.56 114.443C143.73 114.753 143.815 115.168 143.815 115.688V120H142.81V119.114H142.759C142.69 119.256 142.577 119.408 142.418 119.57C142.259 119.732 142.047 119.869 141.783 119.983C141.518 120.097 141.196 120.153 140.815 120.153ZM140.969 119.25C141.366 119.25 141.702 119.172 141.974 119.016C142.25 118.859 142.457 118.658 142.597 118.411C142.739 118.163 142.81 117.903 142.81 117.631V116.71C142.767 116.761 142.673 116.808 142.528 116.851C142.386 116.891 142.222 116.926 142.034 116.957C141.849 116.986 141.669 117.011 141.493 117.034C141.32 117.054 141.179 117.071 141.071 117.085C140.81 117.119 140.565 117.175 140.338 117.251C140.114 117.325 139.932 117.437 139.793 117.588C139.656 117.736 139.588 117.937 139.588 118.193C139.588 118.543 139.717 118.807 139.976 118.986C140.237 119.162 140.568 119.25 140.969 119.25ZM145.651 120V113.455H146.657V116.301H147.321L149.674 113.455H150.969L148.327 116.608L151.003 120H149.708L147.56 117.239H146.657V120H145.651ZM153.102 118.517L156.255 113.455H157.414V120H156.409V114.938L153.272 120H152.096V113.455H153.102V118.517Z" fill="#D6D0D0"/>
<rect width="110" height="21" transform="translate(105 127)" fill="#2B495D"/>
<path d="M116.517 142.119V141.131H117.062C117.273 141.131 117.449 141.089 117.591 141.007C117.736 140.925 117.855 140.818 117.949 140.688C118.045 140.557 118.125 140.42 118.188 140.278L118.324 139.955L115.307 133.273H116.449L118.852 138.693L121.051 133.273H122.176L119.159 140.585C119.04 140.858 118.903 141.111 118.75 141.344C118.599 141.577 118.393 141.764 118.132 141.906C117.874 142.048 117.523 142.119 117.08 142.119H116.517ZM122.928 142V135.455H123.934V138.301H124.599L126.951 135.455H128.246L125.604 138.608L128.281 142H126.985L124.837 139.239H123.934V142H122.928ZM129.374 144.455V135.455H130.345V136.494H130.464C130.538 136.381 130.641 136.236 130.771 136.06C130.905 135.881 131.095 135.722 131.342 135.582C131.592 135.44 131.93 135.369 132.357 135.369C132.908 135.369 133.393 135.507 133.814 135.783C134.234 136.058 134.563 136.449 134.798 136.955C135.034 137.46 135.152 138.057 135.152 138.744C135.152 139.438 135.034 140.038 134.798 140.547C134.563 141.053 134.236 141.445 133.818 141.723C133.401 141.999 132.919 142.136 132.374 142.136C131.953 142.136 131.616 142.067 131.364 141.928C131.111 141.786 130.916 141.625 130.78 141.446C130.643 141.264 130.538 141.114 130.464 140.994H130.379V144.455H129.374ZM130.362 138.727C130.362 139.222 130.435 139.658 130.58 140.036C130.724 140.411 130.936 140.705 131.214 140.918C131.493 141.128 131.834 141.233 132.237 141.233C132.658 141.233 133.009 141.122 133.29 140.901C133.574 140.676 133.787 140.375 133.929 139.997C134.074 139.616 134.146 139.193 134.146 138.727C134.146 138.267 134.075 137.852 133.933 137.483C133.794 137.111 133.582 136.817 133.298 136.601C133.017 136.382 132.663 136.273 132.237 136.273C131.828 136.273 131.484 136.376 131.206 136.584C130.928 136.788 130.717 137.075 130.575 137.445C130.433 137.811 130.362 138.239 130.362 138.727ZM138.612 142.153C138.197 142.153 137.821 142.075 137.483 141.919C137.145 141.76 136.876 141.531 136.678 141.233C136.479 140.932 136.379 140.568 136.379 140.142C136.379 139.767 136.453 139.463 136.601 139.23C136.749 138.994 136.946 138.81 137.193 138.676C137.44 138.543 137.713 138.443 138.011 138.378C138.313 138.31 138.615 138.256 138.919 138.216C139.317 138.165 139.639 138.126 139.886 138.101C140.136 138.072 140.318 138.026 140.432 137.96C140.548 137.895 140.607 137.781 140.607 137.619V137.585C140.607 137.165 140.491 136.838 140.261 136.605C140.034 136.372 139.689 136.256 139.226 136.256C138.746 136.256 138.369 136.361 138.097 136.571C137.824 136.781 137.632 137.006 137.521 137.244L136.567 136.903C136.737 136.506 136.964 136.196 137.249 135.974C137.536 135.75 137.848 135.594 138.186 135.506C138.527 135.415 138.862 135.369 139.192 135.369C139.402 135.369 139.643 135.395 139.916 135.446C140.192 135.494 140.457 135.595 140.713 135.749C140.972 135.902 141.186 136.134 141.357 136.443C141.527 136.753 141.612 137.168 141.612 137.688V142H140.607V141.114H140.555C140.487 141.256 140.374 141.408 140.214 141.57C140.055 141.732 139.844 141.869 139.58 141.983C139.315 142.097 138.993 142.153 138.612 142.153ZM138.766 141.25C139.163 141.25 139.499 141.172 139.771 141.016C140.047 140.859 140.254 140.658 140.393 140.411C140.536 140.163 140.607 139.903 140.607 139.631V138.71C140.564 138.761 140.47 138.808 140.325 138.851C140.183 138.891 140.018 138.926 139.831 138.957C139.646 138.986 139.466 139.011 139.29 139.034C139.116 139.054 138.976 139.071 138.868 139.085C138.607 139.119 138.362 139.175 138.135 139.251C137.911 139.325 137.729 139.437 137.589 139.588C137.453 139.736 137.385 139.937 137.385 140.193C137.385 140.543 137.514 140.807 137.773 140.986C138.034 141.162 138.365 141.25 138.766 141.25ZM143.448 135.455H144.453V141.062H146.925V135.455H147.931V141.062H150.402V135.455H151.408V142H143.448V135.455ZM155.989 142.136C155.358 142.136 154.814 141.997 154.357 141.719C153.902 141.438 153.551 141.045 153.304 140.543C153.06 140.037 152.938 139.449 152.938 138.778C152.938 138.108 153.06 137.517 153.304 137.006C153.551 136.491 153.895 136.091 154.336 135.804C154.779 135.514 155.296 135.369 155.887 135.369C156.228 135.369 156.564 135.426 156.897 135.54C157.229 135.653 157.532 135.838 157.804 136.094C158.077 136.347 158.294 136.682 158.456 137.099C158.618 137.517 158.699 138.031 158.699 138.642V139.068H153.654V138.199H157.676C157.676 137.83 157.603 137.5 157.455 137.21C157.31 136.92 157.103 136.692 156.833 136.524C156.566 136.357 156.25 136.273 155.887 136.273C155.486 136.273 155.14 136.372 154.847 136.571C154.557 136.767 154.334 137.023 154.178 137.338C154.022 137.653 153.944 137.991 153.944 138.352V138.932C153.944 139.426 154.029 139.845 154.199 140.189C154.373 140.53 154.613 140.79 154.919 140.969C155.226 141.145 155.583 141.233 155.989 141.233C156.253 141.233 156.492 141.196 156.705 141.122C156.921 141.045 157.107 140.932 157.263 140.781C157.419 140.628 157.54 140.437 157.625 140.21L158.597 140.483C158.495 140.812 158.323 141.102 158.081 141.352C157.84 141.599 157.542 141.793 157.186 141.932C156.831 142.068 156.432 142.136 155.989 142.136ZM164.61 138.267V139.205H160.996V138.267H164.61ZM161.235 135.455V142H160.229V135.455H161.235ZM165.377 135.455V142H164.371V135.455H165.377ZM168.219 140.517L171.373 135.455H172.532V142H171.526V136.938L168.39 142H167.213V135.455H168.219V140.517ZM178.311 142V136.375H176.572C176.18 136.375 175.872 136.466 175.648 136.648C175.423 136.83 175.311 137.08 175.311 137.398C175.311 137.71 175.412 137.956 175.614 138.135C175.818 138.314 176.098 138.403 176.453 138.403H178.567V139.341H176.453C176.01 139.341 175.628 139.263 175.307 139.107C174.986 138.95 174.739 138.727 174.565 138.438C174.392 138.145 174.305 137.798 174.305 137.398C174.305 136.994 174.396 136.648 174.578 136.358C174.76 136.068 175.02 135.845 175.358 135.689C175.699 135.533 176.104 135.455 176.572 135.455H179.266V142H178.311ZM173.947 142L175.805 138.744H176.896L175.038 142H173.947Z" fill="#D6D0D0"/>
<rect width="110" height="21" transform="translate(105 149)" fill="#2B495D"/>
<path d="M123.08 158H122.023C121.96 157.696 121.851 157.429 121.695 157.199C121.541 156.969 121.354 156.776 121.132 156.619C120.913 156.46 120.67 156.341 120.403 156.261C120.136 156.182 119.858 156.142 119.568 156.142C119.04 156.142 118.561 156.276 118.132 156.543C117.706 156.81 117.366 157.203 117.114 157.723C116.864 158.243 116.739 158.881 116.739 159.636C116.739 160.392 116.864 161.03 117.114 161.55C117.366 162.07 117.706 162.463 118.132 162.73C118.561 162.997 119.04 163.131 119.568 163.131C119.858 163.131 120.136 163.091 120.403 163.011C120.67 162.932 120.913 162.814 121.132 162.658C121.354 162.499 121.541 162.304 121.695 162.074C121.851 161.841 121.96 161.574 122.023 161.273H123.08C123 161.719 122.855 162.118 122.645 162.47C122.435 162.822 122.173 163.122 121.861 163.369C121.548 163.614 121.197 163.8 120.808 163.928C120.422 164.055 120.009 164.119 119.568 164.119C118.824 164.119 118.162 163.938 117.582 163.574C117.003 163.21 116.547 162.693 116.214 162.023C115.882 161.352 115.716 160.557 115.716 159.636C115.716 158.716 115.882 157.92 116.214 157.25C116.547 156.58 117.003 156.062 117.582 155.699C118.162 155.335 118.824 155.153 119.568 155.153C120.009 155.153 120.422 155.217 120.808 155.345C121.197 155.473 121.548 155.661 121.861 155.908C122.173 156.152 122.435 156.45 122.645 156.803C122.855 157.152 123 157.551 123.08 158ZM124.276 158.392V157.455H129.594V158.392H127.446V164H126.441V158.392H124.276ZM132.647 164.153C132.233 164.153 131.856 164.075 131.518 163.919C131.18 163.76 130.912 163.531 130.713 163.233C130.514 162.932 130.414 162.568 130.414 162.142C130.414 161.767 130.488 161.463 130.636 161.23C130.784 160.994 130.981 160.81 131.228 160.676C131.475 160.543 131.748 160.443 132.047 160.378C132.348 160.31 132.65 160.256 132.954 160.216C133.352 160.165 133.674 160.126 133.922 160.101C134.172 160.072 134.353 160.026 134.467 159.96C134.583 159.895 134.642 159.781 134.642 159.619V159.585C134.642 159.165 134.527 158.838 134.297 158.605C134.069 158.372 133.724 158.256 133.261 158.256C132.781 158.256 132.404 158.361 132.132 158.571C131.859 158.781 131.667 159.006 131.556 159.244L130.602 158.903C130.772 158.506 131 158.196 131.284 157.974C131.571 157.75 131.883 157.594 132.221 157.506C132.562 157.415 132.897 157.369 133.227 157.369C133.437 157.369 133.679 157.395 133.951 157.446C134.227 157.494 134.493 157.595 134.748 157.749C135.007 157.902 135.221 158.134 135.392 158.443C135.562 158.753 135.647 159.168 135.647 159.688V164H134.642V163.114H134.591C134.522 163.256 134.409 163.408 134.25 163.57C134.091 163.732 133.879 163.869 133.615 163.983C133.35 164.097 133.028 164.153 132.647 164.153ZM132.801 163.25C133.199 163.25 133.534 163.172 133.806 163.016C134.082 162.859 134.289 162.658 134.429 162.411C134.571 162.163 134.642 161.903 134.642 161.631V160.71C134.599 160.761 134.505 160.808 134.36 160.851C134.218 160.891 134.054 160.926 133.866 160.957C133.681 160.986 133.501 161.011 133.325 161.034C133.152 161.054 133.011 161.071 132.903 161.085C132.642 161.119 132.397 161.175 132.17 161.251C131.946 161.325 131.764 161.437 131.625 161.588C131.488 161.736 131.42 161.937 131.42 162.193C131.42 162.543 131.549 162.807 131.808 162.986C132.069 163.162 132.4 163.25 132.801 163.25ZM136.592 158.392V157.455H141.911V158.392H139.763V164H138.757V158.392H136.592ZM144.247 159.824H146.122C146.889 159.824 147.475 160.018 147.882 160.408C148.288 160.797 148.491 161.29 148.491 161.886C148.491 162.278 148.4 162.635 148.218 162.956C148.037 163.274 147.77 163.528 147.417 163.719C147.065 163.906 146.633 164 146.122 164H143.377V157.455H144.383V163.062H146.122C146.52 163.062 146.846 162.957 147.102 162.747C147.358 162.537 147.485 162.267 147.485 161.938C147.485 161.591 147.358 161.308 147.102 161.089C146.846 160.871 146.52 160.761 146.122 160.761H144.247V159.824ZM151.028 162.517L154.181 157.455H155.34V164H154.335V158.938L151.198 164H150.022V157.455H151.028V162.517Z" fill="#D6D0D0"/>
<rect width="110" height="21" transform="translate(105 171)" fill="#2B495D"/>
<path d="M122.585 177.273V186H121.528V178.21H117.131V186H116.074V177.273H122.585ZM124.581 188.455V179.455H125.552V180.494H125.672C125.745 180.381 125.848 180.236 125.978 180.06C126.112 179.881 126.302 179.722 126.549 179.582C126.799 179.44 127.137 179.369 127.564 179.369C128.115 179.369 128.6 179.507 129.021 179.783C129.441 180.058 129.77 180.449 130.005 180.955C130.241 181.46 130.359 182.057 130.359 182.744C130.359 183.438 130.241 184.038 130.005 184.547C129.77 185.053 129.443 185.445 129.025 185.723C128.608 185.999 128.126 186.136 127.581 186.136C127.16 186.136 126.824 186.067 126.571 185.928C126.318 185.786 126.123 185.625 125.987 185.446C125.85 185.264 125.745 185.114 125.672 184.994H125.586V188.455H124.581ZM125.569 182.727C125.569 183.222 125.642 183.658 125.787 184.036C125.931 184.411 126.143 184.705 126.422 184.918C126.7 185.128 127.041 185.233 127.444 185.233C127.865 185.233 128.216 185.122 128.497 184.901C128.781 184.676 128.994 184.375 129.136 183.997C129.281 183.616 129.353 183.193 129.353 182.727C129.353 182.267 129.282 181.852 129.14 181.483C129.001 181.111 128.789 180.817 128.505 180.601C128.224 180.382 127.87 180.273 127.444 180.273C127.035 180.273 126.691 180.376 126.413 180.584C126.135 180.788 125.924 181.075 125.782 181.445C125.64 181.811 125.569 182.239 125.569 182.727ZM134.552 186.136C133.961 186.136 133.443 185.996 132.997 185.714C132.554 185.433 132.207 185.04 131.957 184.534C131.71 184.028 131.586 183.437 131.586 182.761C131.586 182.08 131.71 181.484 131.957 180.976C132.207 180.467 132.554 180.072 132.997 179.791C133.443 179.51 133.961 179.369 134.552 179.369C135.143 179.369 135.66 179.51 136.103 179.791C136.549 180.072 136.896 180.467 137.143 180.976C137.393 181.484 137.518 182.08 137.518 182.761C137.518 183.437 137.393 184.028 137.143 184.534C136.896 185.04 136.549 185.433 136.103 185.714C135.66 185.996 135.143 186.136 134.552 186.136ZM134.552 185.233C135.001 185.233 135.37 185.118 135.66 184.888C135.95 184.658 136.164 184.355 136.304 183.98C136.443 183.605 136.512 183.199 136.512 182.761C136.512 182.324 136.443 181.916 136.304 181.538C136.164 181.161 135.95 180.855 135.66 180.622C135.37 180.389 135.001 180.273 134.552 180.273C134.103 180.273 133.734 180.389 133.444 180.622C133.154 180.855 132.94 181.161 132.801 181.538C132.662 181.916 132.592 182.324 132.592 182.761C132.592 183.199 132.662 183.605 132.801 183.98C132.94 184.355 133.154 184.658 133.444 184.888C133.734 185.118 134.103 185.233 134.552 185.233ZM144.099 179.455V186H143.093V179.455H144.099ZM143.707 182.574V183.511C143.479 183.597 143.254 183.672 143.029 183.737C142.805 183.8 142.569 183.849 142.322 183.886C142.075 183.92 141.803 183.938 141.508 183.938C140.766 183.938 140.171 183.737 139.722 183.337C139.276 182.936 139.053 182.335 139.053 181.534V179.438H140.059V181.534C140.059 181.869 140.123 182.145 140.251 182.361C140.379 182.577 140.552 182.737 140.771 182.842C140.989 182.947 141.235 183 141.508 183C141.934 183 142.319 182.962 142.663 182.885C143.009 182.805 143.357 182.702 143.707 182.574ZM148.688 186.136C148.058 186.136 147.513 185.997 147.056 185.719C146.602 185.438 146.251 185.045 146.004 184.543C145.759 184.037 145.637 183.449 145.637 182.778C145.637 182.108 145.759 181.517 146.004 181.006C146.251 180.491 146.594 180.091 147.035 179.804C147.478 179.514 147.995 179.369 148.586 179.369C148.927 179.369 149.263 179.426 149.596 179.54C149.928 179.653 150.231 179.838 150.504 180.094C150.776 180.347 150.994 180.682 151.156 181.099C151.317 181.517 151.398 182.031 151.398 182.642V183.068H146.353V182.199H150.376C150.376 181.83 150.302 181.5 150.154 181.21C150.009 180.92 149.802 180.692 149.532 180.524C149.265 180.357 148.95 180.273 148.586 180.273C148.185 180.273 147.839 180.372 147.546 180.571C147.256 180.767 147.033 181.023 146.877 181.338C146.721 181.653 146.643 181.991 146.643 182.352V182.932C146.643 183.426 146.728 183.845 146.898 184.189C147.072 184.53 147.312 184.79 147.619 184.969C147.925 185.145 148.282 185.233 148.688 185.233C148.952 185.233 149.191 185.196 149.404 185.122C149.62 185.045 149.806 184.932 149.962 184.781C150.119 184.628 150.239 184.437 150.325 184.21L151.296 184.483C151.194 184.812 151.022 185.102 150.781 185.352C150.539 185.599 150.241 185.793 149.886 185.932C149.531 186.068 149.131 186.136 148.688 186.136ZM155.673 186.136C155.042 186.136 154.498 185.997 154.04 185.719C153.586 185.438 153.235 185.045 152.988 184.543C152.744 184.037 152.621 183.449 152.621 182.778C152.621 182.108 152.744 181.517 152.988 181.006C153.235 180.491 153.579 180.091 154.019 179.804C154.462 179.514 154.979 179.369 155.57 179.369C155.911 179.369 156.248 179.426 156.58 179.54C156.913 179.653 157.215 179.838 157.488 180.094C157.761 180.347 157.978 180.682 158.14 181.099C158.302 181.517 158.383 182.031 158.383 182.642V183.068H153.337V182.199H157.36C157.36 181.83 157.286 181.5 157.138 181.21C156.994 180.92 156.786 180.692 156.516 180.524C156.249 180.357 155.934 180.273 155.57 180.273C155.17 180.273 154.823 180.372 154.531 180.571C154.241 180.767 154.018 181.023 153.862 181.338C153.705 181.653 153.627 181.991 153.627 182.352V182.932C153.627 183.426 153.712 183.845 153.883 184.189C154.056 184.53 154.296 184.79 154.603 184.969C154.91 185.145 155.266 185.233 155.673 185.233C155.937 185.233 156.175 185.196 156.388 185.122C156.604 185.045 156.79 184.932 156.947 184.781C157.103 184.628 157.224 184.437 157.309 184.21L158.281 184.483C158.178 184.812 158.006 185.102 157.765 185.352C157.523 185.599 157.225 185.793 156.87 185.932C156.515 186.068 156.116 186.136 155.673 186.136Z" fill="#D6D0D0"/>
<rect width="450" height="15" transform="translate(30 236)" fill="#7B808D"/>
<rect x="30" y="236" width="30" height="10" fill="#833233"/>
<rect x="70" y="236" width="30" height="5" fill="#2B495D"/>
<rect x="110" y="236" width="30" height="5" fill="#2B495D"/>
<rect x="150" y="236" width="30" height="5" fill="#2B495D"/>
<rect x="70" y="246" width="30" height="5" fill="#2B495D"/>
<rect x="110" y="246" width="30" height="5" fill="#2B495D"/>
<rect x="150" y="246" width="30" height="5" fill="#2B495D"/>
<rect x="415" y="236" width="15" height="10" fill="#2B495D"/>
<rect x="440" y="236" width="15" height="10" fill="#2B495D"/>
<rect x="465" y="236" width="15" height="10" fill="#2B495D"/>
</svg>
