<svg width="510" height="340" viewBox="0 0 510 340" fill="none" xmlns="http://www.w3.org/2000/svg">
<rect width="510" height="340" fill="#7B808D"/>
<rect x="30" y="20" width="60" height="20" fill="#833233"/>
<rect x="345" y="20" width="60" height="15" fill="#2B495D"/>
<rect x="420" y="20" width="60" height="15" fill="#2B495D"/>
<rect x="270" y="20" width="60" height="15" fill="#2B495D"/>
<rect width="450" height="130" transform="translate(30 60)" fill="#2B495D"/>
<rect x="241" y="200" width="10" height="10" fill="#833233"/>
<rect x="256" y="200" width="10" height="10" fill="#2B495D"/>
<rect x="271" y="200" width="10" height="10" fill="#2B495D"/>
<rect x="121" y="230" width="80" height="80" fill="#2B495D"/>
<rect x="214" y="230" width="80" height="80" fill="#2B495D"/>
<rect x="307" y="230" width="80" height="80" fill="#2B495D"/>
<rect x="400" y="230" width="80" height="80" fill="#2B495D"/>
<rect x="28" y="230" width="80" height="80" fill="#2B495D"/>
<rect x="38" y="258" width="60" height="25" fill="#7B808D"/>
<rect x="38" y="241" width="60" height="10" fill="#7B808D"/>
<rect x="38" y="290" width="35" height="10" fill="#7B808D"/>
<rect x="78" y="290" width="20" height="10" fill="#833233"/>
</svg>
