<svg width="510" height="340" viewBox="0 0 510 340" fill="none" xmlns="http://www.w3.org/2000/svg">
<rect x="0.5" y="0.5" width="509" height="339" fill="white"/>
<rect x="0.5" y="0.5" width="509" height="339" stroke="black"/>
<rect x="31" y="24" width="68" height="17" fill="#D9D9D9"/>
<rect x="269" y="24" width="68" height="17" fill="#D9D9D9"/>
<rect x="339" y="24" width="68" height="17" fill="#D9D9D9"/>
<rect x="409" y="24" width="68" height="17" fill="#D9D9D9"/>
<rect width="446" height="152" transform="translate(31 53)" fill="#8B8383"/>
<rect x="228" y="217" width="9.27209" height="9.27209" fill="#D9D9D9"/>
<rect x="246.544" y="217" width="9.27209" height="9.27209" fill="#D9D9D9"/>
<rect x="265.088" y="217" width="9.27209" height="9.27209" fill="#D9D9D9"/>
<rect x="31" y="240" width="76.0312" height="76.0312" fill="#D9D9D9"/>
<rect x="124" y="239.729" width="76.0312" height="76.0312" fill="#D9D9D9"/>
<rect x="217" y="239.729" width="76.0312" height="76.0312" fill="#D9D9D9"/>
<rect x="310" y="239.729" width="76.0312" height="76.0312" fill="#D9D9D9"/>
<rect x="403" y="240" width="76.0312" height="76.0312" fill="#D9D9D9"/>
<rect x="41.4065" y="249.465" width="57.9506" height="6.49046" fill="#B13D3D"/>
<rect x="41.4065" y="298.607" width="37.552" height="6.49046" fill="#B13D3D"/>
<rect x="46.0425" y="261.983" width="47.2877" height="31.5251" fill="#B13D3D"/>
<rect x="85.4487" y="297.217" width="15.299" height="9.27209" fill="#B13D3D"/>
</svg>
