<svg width="510" height="99" viewBox="0 0 510 99" fill="none" xmlns="http://www.w3.org/2000/svg">
<rect y="-0.000976562" width="510" height="99" rx="20" fill="#030000"/>
<path d="M178.768 44.335C177.472 44.335 176.328 44.103 175.336 43.639C174.344 43.175 173.568 42.511 173.008 41.647C172.448 40.783 172.168 39.743 172.168 38.527V37.855H175.288V38.527C175.288 39.535 175.6 40.295 176.224 40.807C176.848 41.303 177.696 41.551 178.768 41.551C179.856 41.551 180.664 41.335 181.192 40.903C181.736 40.471 182.008 39.919 182.008 39.247C182.008 38.783 181.872 38.407 181.6 38.119C181.344 37.831 180.96 37.599 180.448 37.423C179.952 37.231 179.344 37.055 178.624 36.895L178.072 36.775C176.92 36.519 175.928 36.199 175.096 35.815C174.28 35.415 173.648 34.895 173.2 34.255C172.768 33.615 172.552 32.783 172.552 31.759C172.552 30.735 172.792 29.863 173.272 29.143C173.768 28.407 174.456 27.847 175.336 27.463C176.232 27.063 177.28 26.863 178.48 26.863C179.68 26.863 180.744 27.071 181.672 27.487C182.616 27.887 183.352 28.495 183.88 29.311C184.424 30.111 184.696 31.119 184.696 32.335V33.055H181.576V32.335C181.576 31.695 181.448 31.183 181.192 30.799C180.952 30.399 180.6 30.111 180.136 29.935C179.672 29.743 179.12 29.647 178.48 29.647C177.52 29.647 176.808 29.831 176.344 30.199C175.896 30.551 175.672 31.039 175.672 31.663C175.672 32.079 175.776 32.431 175.984 32.719C176.208 33.007 176.536 33.247 176.968 33.439C177.4 33.631 177.952 33.799 178.624 33.943L179.176 34.063C180.376 34.319 181.416 34.647 182.296 35.047C183.192 35.447 183.888 35.975 184.384 36.631C184.88 37.287 185.128 38.127 185.128 39.151C185.128 40.175 184.864 41.079 184.336 41.863C183.824 42.631 183.088 43.239 182.128 43.687C181.184 44.119 180.064 44.335 178.768 44.335ZM187.586 48.799V32.095H190.562V33.535H190.994C191.266 33.071 191.69 32.663 192.266 32.311C192.842 31.943 193.666 31.759 194.738 31.759C195.698 31.759 196.586 31.999 197.402 32.479C198.218 32.943 198.874 33.631 199.37 34.543C199.866 35.455 200.114 36.559 200.114 37.855V38.239C200.114 39.535 199.866 40.639 199.37 41.551C198.874 42.463 198.218 43.159 197.402 43.639C196.586 44.103 195.698 44.335 194.738 44.335C194.018 44.335 193.41 44.247 192.914 44.071C192.434 43.911 192.042 43.703 191.738 43.447C191.45 43.175 191.218 42.903 191.042 42.631H190.61V48.799H187.586ZM193.826 41.695C194.77 41.695 195.546 41.399 196.154 40.807C196.778 40.199 197.09 39.319 197.09 38.167V37.927C197.09 36.775 196.778 35.903 196.154 35.311C195.53 34.703 194.754 34.399 193.826 34.399C192.898 34.399 192.122 34.703 191.498 35.311C190.874 35.903 190.562 36.775 190.562 37.927V38.167C190.562 39.319 190.874 40.199 191.498 40.807C192.122 41.399 192.898 41.695 193.826 41.695ZM206.587 44.335C205.739 44.335 204.979 44.191 204.307 43.903C203.635 43.599 203.099 43.167 202.699 42.607C202.315 42.031 202.123 41.335 202.123 40.519C202.123 39.703 202.315 39.023 202.699 38.479C203.099 37.919 203.643 37.503 204.331 37.231C205.035 36.943 205.835 36.799 206.731 36.799H209.995V36.127C209.995 35.567 209.819 35.111 209.467 34.759C209.115 34.391 208.555 34.207 207.787 34.207C207.035 34.207 206.475 34.383 206.107 34.735C205.739 35.071 205.499 35.511 205.387 36.055L202.603 35.119C202.795 34.511 203.099 33.959 203.515 33.463C203.947 32.951 204.515 32.543 205.219 32.239C205.939 31.919 206.811 31.759 207.835 31.759C209.403 31.759 210.643 32.151 211.555 32.935C212.467 33.719 212.923 34.855 212.923 36.343V40.783C212.923 41.263 213.147 41.503 213.595 41.503H214.555V43.999H212.539C211.947 43.999 211.459 43.855 211.075 43.567C210.691 43.279 210.499 42.895 210.499 42.415V42.391H210.043C209.979 42.583 209.835 42.839 209.611 43.159C209.387 43.463 209.035 43.735 208.555 43.975C208.075 44.215 207.419 44.335 206.587 44.335ZM207.115 41.887C207.963 41.887 208.651 41.655 209.179 41.191C209.723 40.711 209.995 40.079 209.995 39.295V39.055H206.947C206.387 39.055 205.947 39.175 205.627 39.415C205.307 39.655 205.147 39.991 205.147 40.423C205.147 40.855 205.315 41.207 205.651 41.479C205.987 41.751 206.475 41.887 207.115 41.887ZM222.124 44.335C220.972 44.335 219.924 44.095 218.98 43.615C218.052 43.135 217.316 42.439 216.772 41.527C216.228 40.615 215.956 39.511 215.956 38.215V37.879C215.956 36.583 216.228 35.479 216.772 34.567C217.316 33.655 218.052 32.959 218.98 32.479C219.924 31.999 220.972 31.759 222.124 31.759C223.26 31.759 224.236 31.959 225.052 32.359C225.868 32.759 226.524 33.311 227.02 34.015C227.532 34.703 227.868 35.487 228.028 36.367L225.1 36.991C225.036 36.511 224.892 36.079 224.668 35.695C224.444 35.311 224.124 35.007 223.708 34.783C223.308 34.559 222.804 34.447 222.196 34.447C221.588 34.447 221.036 34.583 220.54 34.855C220.06 35.111 219.676 35.503 219.388 36.031C219.116 36.543 218.98 37.175 218.98 37.927V38.167C218.98 38.919 219.116 39.559 219.388 40.087C219.676 40.599 220.06 40.991 220.54 41.263C221.036 41.519 221.588 41.647 222.196 41.647C223.108 41.647 223.796 41.415 224.26 40.951C224.74 40.471 225.044 39.847 225.172 39.079L228.1 39.775C227.892 40.623 227.532 41.399 227.02 42.103C226.524 42.791 225.868 43.335 225.052 43.735C224.236 44.135 223.26 44.335 222.124 44.335ZM236.018 44.335C234.834 44.335 233.786 44.087 232.874 43.591C231.978 43.079 231.274 42.367 230.762 41.455C230.266 40.527 230.018 39.439 230.018 38.191V37.903C230.018 36.655 230.266 35.575 230.762 34.663C231.258 33.735 231.954 33.023 232.85 32.527C233.746 32.015 234.786 31.759 235.97 31.759C237.138 31.759 238.154 32.023 239.018 32.551C239.882 33.063 240.554 33.783 241.034 34.711C241.514 35.623 241.754 36.687 241.754 37.903V38.935H233.09C233.122 39.751 233.426 40.415 234.002 40.927C234.578 41.439 235.282 41.695 236.114 41.695C236.962 41.695 237.586 41.511 237.986 41.143C238.386 40.775 238.69 40.367 238.898 39.919L241.37 41.215C241.146 41.631 240.818 42.087 240.386 42.583C239.97 43.063 239.41 43.479 238.706 43.831C238.002 44.167 237.106 44.335 236.018 44.335ZM233.114 36.679H238.682C238.618 35.991 238.338 35.439 237.842 35.023C237.362 34.607 236.73 34.399 235.946 34.399C235.13 34.399 234.482 34.607 234.002 35.023C233.522 35.439 233.226 35.991 233.114 36.679ZM256.251 44.335C255.099 44.335 254.051 44.079 253.107 43.567C252.179 43.039 251.435 42.279 250.875 41.287C250.331 40.279 250.059 39.055 250.059 37.615V33.583C250.059 31.423 250.667 29.767 251.883 28.615C253.099 27.447 254.747 26.863 256.827 26.863C258.891 26.863 260.483 27.415 261.603 28.519C262.739 29.607 263.307 31.087 263.307 32.959V33.055H260.187V32.863C260.187 32.271 260.059 31.735 259.803 31.255C259.563 30.775 259.195 30.399 258.699 30.127C258.203 29.839 257.579 29.695 256.827 29.695C255.707 29.695 254.827 30.039 254.187 30.727C253.547 31.415 253.227 32.351 253.227 33.535V37.663C253.227 38.831 253.547 39.775 254.187 40.495C254.827 41.199 255.723 41.551 256.875 41.551C258.027 41.551 258.867 41.247 259.395 40.639C259.923 40.031 260.187 39.263 260.187 38.335V38.095H256.203V35.407H263.307V43.999H260.379V42.391H259.947C259.835 42.663 259.651 42.951 259.395 43.255C259.155 43.559 258.787 43.815 258.291 44.023C257.795 44.231 257.115 44.335 256.251 44.335ZM266.43 43.999V32.095H269.406V33.439H269.838C270.014 32.959 270.302 32.607 270.702 32.383C271.118 32.159 271.598 32.047 272.142 32.047H273.582V34.735H272.094C271.326 34.735 270.694 34.943 270.198 35.359C269.702 35.759 269.454 36.383 269.454 37.231V43.999H266.43ZM281.188 44.335C280.004 44.335 278.94 44.095 277.996 43.615C277.052 43.135 276.308 42.439 275.764 41.527C275.22 40.615 274.948 39.519 274.948 38.239V37.855C274.948 36.575 275.22 35.479 275.764 34.567C276.308 33.655 277.052 32.959 277.996 32.479C278.94 31.999 280.004 31.759 281.188 31.759C282.372 31.759 283.436 31.999 284.38 32.479C285.324 32.959 286.068 33.655 286.612 34.567C287.156 35.479 287.428 36.575 287.428 37.855V38.239C287.428 39.519 287.156 40.615 286.612 41.527C286.068 42.439 285.324 43.135 284.38 43.615C283.436 44.095 282.372 44.335 281.188 44.335ZM281.188 41.647C282.116 41.647 282.884 41.351 283.492 40.759C284.1 40.151 284.404 39.287 284.404 38.167V37.927C284.404 36.807 284.1 35.951 283.492 35.359C282.9 34.751 282.132 34.447 281.188 34.447C280.26 34.447 279.492 34.751 278.884 35.359C278.276 35.951 277.972 36.807 277.972 37.927V38.167C277.972 39.287 278.276 40.151 278.884 40.759C279.492 41.351 280.26 41.647 281.188 41.647ZM294.381 43.999C293.597 43.999 292.957 43.759 292.461 43.279C291.981 42.783 291.741 42.127 291.741 41.311V34.591H288.765V32.095H291.741V28.399H294.765V32.095H298.029V34.591H294.765V40.783C294.765 41.263 294.989 41.503 295.437 41.503H297.741V43.999H294.381ZM305.768 44.335C304.584 44.335 303.536 44.087 302.624 43.591C301.728 43.079 301.024 42.367 300.512 41.455C300.016 40.527 299.768 39.439 299.768 38.191V37.903C299.768 36.655 300.016 35.575 300.512 34.663C301.008 33.735 301.704 33.023 302.6 32.527C303.496 32.015 304.536 31.759 305.72 31.759C306.888 31.759 307.904 32.023 308.768 32.551C309.632 33.063 310.304 33.783 310.784 34.711C311.264 35.623 311.504 36.687 311.504 37.903V38.935H302.84C302.872 39.751 303.176 40.415 303.752 40.927C304.328 41.439 305.032 41.695 305.864 41.695C306.712 41.695 307.336 41.511 307.736 41.143C308.136 40.775 308.44 40.367 308.648 39.919L311.12 41.215C310.896 41.631 310.568 42.087 310.136 42.583C309.72 43.063 309.16 43.479 308.456 43.831C307.752 44.167 306.856 44.335 305.768 44.335ZM302.864 36.679H308.432C308.368 35.991 308.088 35.439 307.592 35.023C307.112 34.607 306.48 34.399 305.696 34.399C304.88 34.399 304.232 34.607 303.752 35.023C303.272 35.439 302.976 35.991 302.864 36.679ZM319.14 44.335C317.588 44.335 316.316 43.999 315.324 43.327C314.332 42.655 313.732 41.695 313.524 40.447L316.308 39.727C316.42 40.287 316.604 40.727 316.86 41.047C317.132 41.367 317.46 41.599 317.844 41.743C318.244 41.871 318.676 41.935 319.14 41.935C319.844 41.935 320.364 41.815 320.7 41.575C321.036 41.319 321.204 41.007 321.204 40.639C321.204 40.271 321.044 39.991 320.724 39.799C320.404 39.591 319.892 39.423 319.188 39.295L318.516 39.175C317.684 39.015 316.924 38.799 316.236 38.527C315.548 38.239 314.996 37.847 314.58 37.351C314.164 36.855 313.956 36.215 313.956 35.431C313.956 34.247 314.388 33.343 315.252 32.719C316.116 32.079 317.252 31.759 318.66 31.759C319.988 31.759 321.092 32.055 321.972 32.647C322.852 33.239 323.428 34.015 323.7 34.975L320.892 35.839C320.764 35.231 320.5 34.799 320.1 34.543C319.716 34.287 319.236 34.159 318.66 34.159C318.084 34.159 317.644 34.263 317.34 34.471C317.036 34.663 316.884 34.935 316.884 35.287C316.884 35.671 317.044 35.959 317.364 36.151C317.684 36.327 318.116 36.463 318.66 36.559L319.332 36.679C320.228 36.839 321.036 37.055 321.756 37.327C322.492 37.583 323.068 37.959 323.484 38.455C323.916 38.935 324.132 39.591 324.132 40.423C324.132 41.671 323.676 42.639 322.764 43.327C321.868 43.999 320.66 44.335 319.14 44.335ZM326.782 43.999V27.199H329.806V36.487H330.238L334.174 32.095H338.11L332.614 37.855L338.302 43.999H334.414L330.238 39.271H329.806V43.999H326.782Z" fill="white"/>
<path d="M221.166 74.335C219.998 74.335 218.99 74.175 218.142 73.855C217.294 73.519 216.59 73.063 216.03 72.487C215.486 71.895 215.078 71.199 214.806 70.399C214.55 69.583 214.422 68.687 214.422 67.711V57.367H218.166V67.399C218.166 68.071 218.238 68.647 218.382 69.127C218.542 69.591 218.75 69.975 219.006 70.279C219.278 70.567 219.598 70.775 219.966 70.903C220.35 71.031 220.766 71.095 221.214 71.095C222.126 71.095 222.862 70.815 223.422 70.255C223.998 69.695 224.286 68.743 224.286 67.399V57.367H228.03V67.711C228.03 68.687 227.894 69.583 227.622 70.399C227.35 71.215 226.934 71.919 226.374 72.511C225.814 73.087 225.102 73.535 224.238 73.855C223.374 74.175 222.35 74.335 221.166 74.335ZM239.479 67.591C239.479 65.287 238.631 64.135 236.935 64.135C236.567 64.135 236.199 64.183 235.831 64.279C235.479 64.375 235.191 64.495 234.967 64.639V71.143C235.143 71.175 235.367 71.207 235.639 71.239C235.911 71.255 236.207 71.263 236.527 71.263C237.503 71.263 238.239 70.927 238.735 70.255C239.231 69.583 239.479 68.695 239.479 67.591ZM243.127 67.687C243.127 68.695 242.975 69.607 242.671 70.423C242.383 71.239 241.959 71.935 241.399 72.511C240.839 73.087 240.151 73.535 239.335 73.855C238.519 74.159 237.591 74.311 236.551 74.311C236.119 74.311 235.663 74.287 235.183 74.239C234.719 74.207 234.255 74.159 233.791 74.095C233.343 74.031 232.911 73.959 232.495 73.879C232.079 73.783 231.711 73.687 231.391 73.591V55.951L234.967 55.375V61.663C235.367 61.487 235.783 61.351 236.215 61.255C236.647 61.159 237.111 61.111 237.607 61.111C238.503 61.111 239.295 61.271 239.983 61.591C240.671 61.895 241.247 62.335 241.711 62.911C242.175 63.487 242.527 64.183 242.767 64.999C243.007 65.799 243.127 66.695 243.127 67.687ZM256.651 73.567C256.043 73.743 255.259 73.903 254.299 74.047C253.339 74.207 252.331 74.287 251.275 74.287C250.203 74.287 249.307 74.143 248.587 73.855C247.883 73.567 247.323 73.167 246.907 72.655C246.491 72.127 246.195 71.503 246.019 70.783C245.843 70.063 245.755 69.271 245.755 68.407V61.375H249.331V67.975C249.331 69.127 249.483 69.959 249.787 70.471C250.091 70.983 250.659 71.239 251.491 71.239C251.747 71.239 252.019 71.231 252.307 71.215C252.595 71.183 252.851 71.151 253.075 71.119V61.375H256.651V73.567ZM260.008 61.807C260.616 61.631 261.4 61.471 262.36 61.327C263.32 61.167 264.328 61.087 265.384 61.087C266.456 61.087 267.344 61.231 268.048 61.519C268.768 61.791 269.336 62.183 269.752 62.695C270.168 63.207 270.464 63.815 270.64 64.519C270.816 65.223 270.904 66.007 270.904 66.871V73.999H267.328V67.303C267.328 66.151 267.176 65.335 266.872 64.855C266.568 64.375 266 64.135 265.168 64.135C264.912 64.135 264.64 64.151 264.352 64.183C264.064 64.199 263.808 64.223 263.584 64.255V73.999H260.008V61.807ZM274.021 58.231L277.597 57.655V61.375H281.893V64.351H277.597V68.791C277.597 69.543 277.725 70.143 277.981 70.591C278.253 71.039 278.789 71.263 279.589 71.263C279.973 71.263 280.365 71.231 280.765 71.167C281.181 71.087 281.557 70.983 281.893 70.855L282.397 73.639C281.965 73.815 281.485 73.967 280.957 74.095C280.429 74.223 279.781 74.287 279.013 74.287C278.037 74.287 277.229 74.159 276.589 73.903C275.949 73.631 275.437 73.263 275.053 72.799C274.669 72.319 274.397 71.743 274.237 71.071C274.093 70.399 274.021 69.655 274.021 68.839V58.231ZM295.581 73.567C294.973 73.743 294.189 73.903 293.229 74.047C292.269 74.207 291.261 74.287 290.205 74.287C289.133 74.287 288.237 74.143 287.517 73.855C286.813 73.567 286.253 73.167 285.837 72.655C285.421 72.127 285.125 71.503 284.949 70.783C284.773 70.063 284.685 69.271 284.685 68.407V61.375H288.261V67.975C288.261 69.127 288.413 69.959 288.717 70.471C289.021 70.983 289.589 71.239 290.421 71.239C290.677 71.239 290.949 71.231 291.237 71.215C291.525 71.183 291.781 71.151 292.005 71.119V61.375H295.581V73.567Z" fill="white"/>
</svg>
