<svg width="501" height="186" viewBox="0 0 501 186" fill="none" xmlns="http://www.w3.org/2000/svg">
<rect width="196" height="37" rx="15" fill="#A4998D"/>
<path d="M11.2495 24V13.8182H14.9782C15.7007 13.8182 16.2989 13.9375 16.7729 14.1761C17.2469 14.4115 17.6015 14.7313 17.8368 15.1357C18.0721 15.5367 18.1898 15.9891 18.1898 16.4929C18.1898 16.9171 18.1119 17.2751 17.9561 17.5668C17.8004 17.8551 17.5916 18.0871 17.3297 18.2628C17.0712 18.4351 16.7862 18.5611 16.4746 18.6406V18.7401C16.8127 18.7566 17.1425 18.866 17.464 19.0682C17.7888 19.267 18.0572 19.5504 18.2694 19.9183C18.4815 20.2862 18.5875 20.7337 18.5875 21.2607C18.5875 21.781 18.4649 22.2483 18.2196 22.6626C17.9777 23.0736 17.6032 23.4001 17.0961 23.642C16.589 23.8807 15.941 24 15.1522 24H11.2495ZM12.7857 22.6825H15.003C15.7388 22.6825 16.2658 22.54 16.584 22.255C16.9022 21.9699 17.0613 21.6136 17.0613 21.1861C17.0613 20.8646 16.9801 20.5696 16.8176 20.3011C16.6552 20.0327 16.4232 19.8189 16.1216 19.6598C15.8233 19.5007 15.4687 19.4212 15.0577 19.4212H12.7857V22.6825ZM12.7857 18.223H14.8439C15.1886 18.223 15.4985 18.1567 15.7736 18.0241C16.052 17.8916 16.2724 17.706 16.4348 17.4673C16.6006 17.2254 16.6834 16.9403 16.6834 16.6122C16.6834 16.1913 16.5359 15.8383 16.2409 15.5533C15.946 15.2682 15.4935 15.1257 14.8837 15.1257H12.7857V18.223ZM21.4636 16.3636L23.149 19.3366L24.8493 16.3636H26.475L24.0936 20.1818L26.4949 24H24.8691L23.149 21.1463L21.4338 24H19.8031L22.1795 20.1818L19.8329 16.3636H21.4636ZM30.9171 24.1541C30.2012 24.1541 29.5764 23.9901 29.0428 23.6619C28.5092 23.3338 28.0949 22.8748 27.7999 22.2848C27.5049 21.6948 27.3574 21.0054 27.3574 20.2166C27.3574 19.4245 27.5049 18.7318 27.7999 18.1385C28.0949 17.5452 28.5092 17.0845 29.0428 16.7564C29.5764 16.4283 30.2012 16.2642 30.9171 16.2642C31.633 16.2642 32.2578 16.4283 32.7914 16.7564C33.325 17.0845 33.7393 17.5452 34.0343 18.1385C34.3292 18.7318 34.4767 19.4245 34.4767 20.2166C34.4767 21.0054 34.3292 21.6948 34.0343 22.2848C33.7393 22.8748 33.325 23.3338 32.7914 23.6619C32.2578 23.9901 31.633 24.1541 30.9171 24.1541ZM30.9221 22.9062C31.3861 22.9062 31.7705 22.7836 32.0755 22.5384C32.3804 22.2931 32.6058 21.9666 32.7516 21.5589C32.9007 21.1513 32.9753 20.7022 32.9753 20.2116C32.9753 19.7244 32.9007 19.277 32.7516 18.8693C32.6058 18.4583 32.3804 18.1286 32.0755 17.88C31.7705 17.6314 31.3861 17.5071 30.9221 17.5071C30.4547 17.5071 30.0669 17.6314 29.7587 17.88C29.4538 18.1286 29.2267 18.4583 29.0776 18.8693C28.9318 19.277 28.8588 19.7244 28.8588 20.2116C28.8588 20.7022 28.9318 21.1513 29.0776 21.5589C29.2267 21.9666 29.4538 22.2931 29.7587 22.5384C30.0669 22.7836 30.4547 22.9062 30.9221 22.9062ZM35.3903 26.2024V22.7124H36.0117C36.1708 22.5665 36.305 22.3925 36.4144 22.1903C36.5271 21.9882 36.6216 21.7479 36.6978 21.4695C36.7773 21.1911 36.8436 20.8662 36.8967 20.495C36.9497 20.1205 36.9961 19.6929 37.0359 19.2124L37.2745 16.3636H42.4648V22.7124H43.6381V26.2024H42.1864V24H36.8619V26.2024H35.3903ZM37.6026 22.7124H41.0131V17.6364H38.6069L38.4478 19.2124C38.3716 20.0144 38.2754 20.7105 38.1594 21.3004C38.0434 21.8871 37.8578 22.3577 37.6026 22.7124ZM48.7962 24V16.3636H51.9631C52.8248 16.3636 53.5076 16.5476 54.0114 16.9155C54.5152 17.2801 54.767 17.7756 54.767 18.402C54.767 18.8494 54.6245 19.2041 54.3395 19.4659C54.0545 19.7277 53.6766 19.9034 53.206 19.9929C53.5473 20.0327 53.8606 20.1354 54.1456 20.3011C54.4306 20.4635 54.6593 20.6823 54.8317 20.9574C55.0073 21.2325 55.0952 21.5606 55.0952 21.9418C55.0952 22.3461 54.9908 22.7041 54.782 23.0156C54.5732 23.3239 54.2699 23.5658 53.8722 23.7415C53.4777 23.9138 53.0021 24 52.4453 24H48.7962ZM50.1932 22.7571H52.4453C52.8132 22.7571 53.1016 22.6693 53.3104 22.4936C53.5192 22.3179 53.6236 22.0793 53.6236 21.7777C53.6236 21.4231 53.5192 21.1446 53.3104 20.9425C53.1016 20.737 52.8132 20.6342 52.4453 20.6342H50.1932V22.7571ZM50.1932 19.5455H51.978C52.2564 19.5455 52.495 19.5057 52.6939 19.4261C52.8961 19.3466 53.0502 19.2339 53.1562 19.0881C53.2656 18.9389 53.3203 18.7633 53.3203 18.5611C53.3203 18.2661 53.1993 18.0357 52.9574 17.87C52.7154 17.7043 52.384 17.6214 51.9631 17.6214H50.1932V19.5455ZM61.8876 21.9169L65.2534 16.3636H66.8542V24H65.3975V18.4418L62.0467 24H60.4309V16.3636H61.8876V21.9169ZM74.0282 19.5405V20.8281H69.8919V19.5405H74.0282ZM70.3095 16.3636V24H68.8528V16.3636H70.3095ZM75.0673 16.3636V24H73.6156V16.3636H75.0673ZM76.1088 17.6463V16.3636H82.552V17.6463H80.0613V24H78.6096V17.6463H76.1088ZM87.06 24.1541C86.3076 24.1541 85.6597 23.9934 85.1161 23.6719C84.5759 23.3471 84.1583 22.8913 83.8633 22.3047C83.5716 21.7147 83.4258 21.0237 83.4258 20.2315C83.4258 19.4493 83.5716 18.7599 83.8633 18.1634C84.1583 17.5668 84.5692 17.1011 85.0962 16.7663C85.6265 16.4316 86.2463 16.2642 86.9556 16.2642C87.3865 16.2642 87.8041 16.3355 88.2085 16.478C88.6128 16.6205 88.9757 16.8442 89.2972 17.1491C89.6187 17.4541 89.8723 17.8501 90.0579 18.3374C90.2435 18.8213 90.3363 19.4096 90.3363 20.1023V20.6293H84.266V19.5156H88.8796C88.8796 19.1245 88.8001 18.7782 88.641 18.4766C88.4819 18.1716 88.2582 17.9313 87.9698 17.7557C87.6848 17.58 87.35 17.4922 86.9656 17.4922C86.5479 17.4922 86.1834 17.5949 85.8718 17.8004C85.5636 18.0026 85.3249 18.2678 85.1559 18.5959C84.9902 18.9207 84.9073 19.2737 84.9073 19.6548V20.5249C84.9073 21.0353 84.9968 21.4695 85.1758 21.8274C85.3581 22.1854 85.6116 22.4588 85.9364 22.6477C86.2612 22.8333 86.6407 22.9261 87.0749 22.9261C87.3567 22.9261 87.6135 22.8864 87.8455 22.8068C88.0775 22.724 88.2781 22.6013 88.4471 22.4389C88.6161 22.2765 88.7454 22.076 88.8349 21.8374L90.2418 22.0909C90.1291 22.5052 89.927 22.8681 89.6353 23.1797C89.3469 23.4879 88.984 23.7282 88.5465 23.9006C88.1123 24.0696 87.6168 24.1541 87.06 24.1541ZM91.9856 26.8636V16.3636H93.4373V17.6016H93.5616C93.6478 17.4425 93.7721 17.2585 93.9345 17.0497C94.0969 16.8409 94.3223 16.6586 94.6106 16.5028C94.899 16.3438 95.2801 16.2642 95.7541 16.2642C96.3706 16.2642 96.9208 16.42 97.4047 16.7315C97.8886 17.0431 98.2681 17.4922 98.5431 18.0788C98.8216 18.6655 98.9608 19.3714 98.9608 20.1967C98.9608 21.022 98.8232 21.7296 98.5481 22.3196C98.273 22.9062 97.8952 23.3587 97.4146 23.6768C96.934 23.9917 96.3855 24.1491 95.769 24.1491C95.305 24.1491 94.9255 24.0713 94.6305 23.9155C94.3388 23.7597 94.1101 23.5774 93.9444 23.3686C93.7787 23.1598 93.6511 22.9742 93.5616 22.8118H93.4721V26.8636H91.9856ZM93.4423 20.1818C93.4423 20.7187 93.5202 21.1894 93.676 21.5938C93.8317 21.9981 94.0571 22.3146 94.3521 22.5433C94.6471 22.7687 95.0083 22.8814 95.4359 22.8814C95.88 22.8814 96.2512 22.7637 96.5495 22.5284C96.8478 22.2898 97.0732 21.9666 97.2257 21.5589C97.3815 21.1513 97.4593 20.6922 97.4593 20.1818C97.4593 19.678 97.3831 19.2256 97.2306 18.8246C97.0815 18.4235 96.8561 18.107 96.5545 17.875C96.2562 17.643 95.8833 17.527 95.4359 17.527C95.005 17.527 94.6404 17.638 94.3422 17.8601C94.0472 18.0821 93.8234 18.392 93.671 18.7898C93.5185 19.1875 93.4423 19.6515 93.4423 20.1818ZM105.802 19.5405V20.8281H101.665V19.5405H105.802ZM102.083 16.3636V24H100.626V16.3636H102.083ZM106.841 16.3636V24H105.389V16.3636H106.841ZM112.121 24.1541C111.368 24.1541 110.72 23.9934 110.177 23.6719C109.636 23.3471 109.219 22.8913 108.924 22.3047C108.632 21.7147 108.486 21.0237 108.486 20.2315C108.486 19.4493 108.632 18.7599 108.924 18.1634C109.219 17.5668 109.63 17.1011 110.157 16.7663C110.687 16.4316 111.307 16.2642 112.016 16.2642C112.447 16.2642 112.865 16.3355 113.269 16.478C113.673 16.6205 114.036 16.8442 114.358 17.1491C114.679 17.4541 114.933 17.8501 115.118 18.3374C115.304 18.8213 115.397 19.4096 115.397 20.1023V20.6293H109.327V19.5156H113.94C113.94 19.1245 113.861 18.7782 113.702 18.4766C113.542 18.1716 113.319 17.9313 113.03 17.7557C112.745 17.58 112.411 17.4922 112.026 17.4922C111.608 17.4922 111.244 17.5949 110.932 17.8004C110.624 18.0026 110.385 18.2678 110.216 18.5959C110.051 18.9207 109.968 19.2737 109.968 19.6548V20.5249C109.968 21.0353 110.057 21.4695 110.236 21.8274C110.419 22.1854 110.672 22.4588 110.997 22.6477C111.322 22.8333 111.701 22.9261 112.135 22.9261C112.417 22.9261 112.674 22.8864 112.906 22.8068C113.138 22.724 113.339 22.6013 113.508 22.4389C113.677 22.2765 113.806 22.076 113.895 21.8374L115.302 22.0909C115.19 22.5052 114.988 22.8681 114.696 23.1797C114.407 23.4879 114.045 23.7282 113.607 23.9006C113.173 24.0696 112.677 24.1541 112.121 24.1541ZM116.373 17.6463V16.3636H122.816V17.6463H120.325V24H118.873V17.6463H116.373ZM128.573 19.0533V20.3409H124.059V19.0533H128.573ZM134.839 22.1605L137.305 16.3636H138.588L135.391 24H134.288L131.156 16.3636H132.423L134.839 22.1605ZM132.011 16.3636V24H130.554V16.3636H132.011ZM137.708 24V16.3636H139.155V24H137.708ZM143.358 24.169C142.874 24.169 142.437 24.0795 142.046 23.9006C141.655 23.7183 141.345 23.4548 141.116 23.1101C140.891 22.7654 140.778 22.3428 140.778 21.8423C140.778 21.4115 140.861 21.0568 141.027 20.7784C141.192 20.5 141.416 20.2796 141.698 20.1172C141.98 19.9548 142.294 19.8321 142.642 19.7493C142.99 19.6664 143.345 19.6035 143.706 19.5604C144.164 19.5073 144.535 19.4643 144.82 19.4311C145.105 19.3946 145.312 19.3366 145.441 19.2571C145.571 19.1776 145.635 19.0483 145.635 18.8693V18.8345C145.635 18.4003 145.513 18.0639 145.267 17.8253C145.025 17.5866 144.664 17.4673 144.184 17.4673C143.683 17.4673 143.289 17.5784 143 17.8004C142.715 18.0192 142.518 18.2628 142.409 18.5312L141.012 18.2131C141.177 17.7491 141.419 17.3745 141.738 17.0895C142.059 16.8011 142.429 16.5923 142.846 16.4631C143.264 16.3305 143.703 16.2642 144.164 16.2642C144.469 16.2642 144.792 16.3007 145.133 16.3736C145.478 16.4432 145.799 16.5724 146.098 16.7614C146.399 16.9503 146.646 17.2204 146.838 17.5717C147.031 17.9197 147.127 18.3722 147.127 18.929V24H145.675V22.956H145.615C145.519 23.1482 145.375 23.3371 145.183 23.5227C144.991 23.7083 144.744 23.8625 144.442 23.9851C144.141 24.1077 143.779 24.169 143.358 24.169ZM143.681 22.9759C144.092 22.9759 144.444 22.8946 144.735 22.7322C145.03 22.5698 145.254 22.3577 145.407 22.0959C145.562 21.8307 145.64 21.5473 145.64 21.2457V20.2614C145.587 20.3144 145.484 20.3641 145.332 20.4105C145.183 20.4536 145.012 20.4917 144.82 20.5249C144.628 20.5547 144.44 20.5829 144.258 20.6094C144.076 20.6326 143.923 20.6525 143.801 20.669C143.512 20.7055 143.249 20.7668 143.01 20.853C142.775 20.9392 142.586 21.0634 142.444 21.2259C142.304 21.3849 142.235 21.5971 142.235 21.8622C142.235 22.2301 142.371 22.5085 142.642 22.6974C142.914 22.883 143.261 22.9759 143.681 22.9759ZM153.989 16.3636V17.6463H150.573V24H149.107V16.3636H153.989ZM157.427 24.169C156.943 24.169 156.505 24.0795 156.114 23.9006C155.723 23.7183 155.413 23.4548 155.184 23.1101C154.959 22.7654 154.846 22.3428 154.846 21.8423C154.846 21.4115 154.929 21.0568 155.095 20.7784C155.261 20.5 155.484 20.2796 155.766 20.1172C156.048 19.9548 156.363 19.8321 156.711 19.7493C157.059 19.6664 157.413 19.6035 157.775 19.5604C158.232 19.5073 158.603 19.4643 158.888 19.4311C159.173 19.3946 159.381 19.3366 159.51 19.2571C159.639 19.1776 159.704 19.0483 159.704 18.8693V18.8345C159.704 18.4003 159.581 18.0639 159.336 17.8253C159.094 17.5866 158.733 17.4673 158.252 17.4673C157.751 17.4673 157.357 17.5784 157.069 17.8004C156.784 18.0192 156.586 18.2628 156.477 18.5312L155.08 18.2131C155.246 17.7491 155.488 17.3745 155.806 17.0895C156.127 16.8011 156.497 16.5923 156.915 16.4631C157.332 16.3305 157.771 16.2642 158.232 16.2642C158.537 16.2642 158.86 16.3007 159.202 16.3736C159.546 16.4432 159.868 16.5724 160.166 16.7614C160.468 16.9503 160.715 17.2204 160.907 17.5717C161.099 17.9197 161.195 18.3722 161.195 18.929V24H159.743V22.956H159.684C159.588 23.1482 159.443 23.3371 159.251 23.5227C159.059 23.7083 158.812 23.8625 158.51 23.9851C158.209 24.1077 157.848 24.169 157.427 24.169ZM157.75 22.9759C158.161 22.9759 158.512 22.8946 158.804 22.7322C159.099 22.5698 159.323 22.3577 159.475 22.0959C159.631 21.8307 159.709 21.5473 159.709 21.2457V20.2614C159.656 20.3144 159.553 20.3641 159.4 20.4105C159.251 20.4536 159.081 20.4917 158.888 20.5249C158.696 20.5547 158.509 20.5829 158.327 20.6094C158.144 20.6326 157.992 20.6525 157.869 20.669C157.581 20.7055 157.317 20.7668 157.079 20.853C156.843 20.9392 156.654 21.0634 156.512 21.2259C156.373 21.3849 156.303 21.5971 156.303 21.8622C156.303 22.2301 156.439 22.5085 156.711 22.6974C156.983 22.883 157.329 22.9759 157.75 22.9759ZM162.723 21.9815H164.244C164.264 22.2931 164.405 22.5334 164.667 22.7024C164.932 22.8714 165.275 22.956 165.696 22.956C166.123 22.956 166.488 22.8648 166.789 22.6825C167.091 22.4969 167.242 22.2102 167.242 21.8224C167.242 21.5904 167.184 21.3883 167.068 21.2159C166.955 21.0402 166.794 20.9044 166.586 20.8082C166.38 20.7121 166.136 20.6641 165.855 20.6641H164.612V19.4957H165.855C166.276 19.4957 166.591 19.3996 166.799 19.2074C167.008 19.0152 167.113 18.7749 167.113 18.4865C167.113 18.175 167 17.9247 166.775 17.7358C166.552 17.5436 166.243 17.4474 165.845 17.4474C165.44 17.4474 165.104 17.5386 164.836 17.7209C164.567 17.8999 164.426 18.1319 164.413 18.4169H162.912C162.922 17.9893 163.051 17.6148 163.299 17.2933C163.551 16.9685 163.889 16.7166 164.314 16.5376C164.741 16.3554 165.227 16.2642 165.77 16.2642C166.337 16.2642 166.828 16.3554 167.242 16.5376C167.656 16.7199 167.976 16.9718 168.201 17.2933C168.43 17.6148 168.544 17.9844 168.544 18.402C168.544 18.8229 168.418 19.1676 168.167 19.4361C167.918 19.7012 167.593 19.8918 167.192 20.0078V20.0874C167.487 20.1072 167.749 20.1967 167.978 20.3558C168.206 20.5149 168.385 20.7254 168.515 20.9872C168.644 21.2491 168.708 21.5457 168.708 21.8771C168.708 22.3445 168.579 22.7488 168.321 23.0902C168.065 23.4316 167.711 23.6951 167.257 23.8807C166.806 24.063 166.291 24.1541 165.711 24.1541C165.147 24.1541 164.642 24.0663 164.194 23.8906C163.75 23.7116 163.397 23.4598 163.135 23.1349C162.877 22.8101 162.739 22.4257 162.723 21.9815ZM171.7 21.9169L175.066 16.3636H176.667V24H175.21V18.4418L171.859 24H170.243V16.3636H171.7V21.9169ZM183.841 19.5405V20.8281H179.704V19.5405H183.841ZM180.122 16.3636V24H178.665V16.3636H180.122ZM184.88 16.3636V24H183.428V16.3636H184.88Z" fill="white"/>
<rect x="296" width="205" height="37" rx="15" fill="#A4998D"/>
<path d="M325.191 13.8182V24H323.66V15.1307H318.868V24H317.336V13.8182H325.191ZM330.638 24.1541C329.922 24.1541 329.297 23.9901 328.763 23.6619C328.23 23.3338 327.816 22.8748 327.521 22.2848C327.226 21.6948 327.078 21.0054 327.078 20.2166C327.078 19.4245 327.226 18.7318 327.521 18.1385C327.816 17.5452 328.23 17.0845 328.763 16.7564C329.297 16.4283 329.922 16.2642 330.638 16.2642C331.354 16.2642 331.978 16.4283 332.512 16.7564C333.046 17.0845 333.46 17.5452 333.755 18.1385C334.05 18.7318 334.197 19.4245 334.197 20.2166C334.197 21.0054 334.05 21.6948 333.755 22.2848C333.46 22.8748 333.046 23.3338 332.512 23.6619C331.978 23.9901 331.354 24.1541 330.638 24.1541ZM330.643 22.9062C331.107 22.9062 331.491 22.7836 331.796 22.5384C332.101 22.2931 332.326 21.9666 332.472 21.5589C332.621 21.1513 332.696 20.7022 332.696 20.2116C332.696 19.7244 332.621 19.277 332.472 18.8693C332.326 18.4583 332.101 18.1286 331.796 17.88C331.491 17.6314 331.107 17.5071 330.643 17.5071C330.175 17.5071 329.788 17.6314 329.479 17.88C329.174 18.1286 328.947 18.4583 328.798 18.8693C328.652 19.277 328.58 19.7244 328.58 20.2116C328.58 20.7022 328.652 21.1513 328.798 21.5589C328.947 21.9666 329.174 22.2931 329.479 22.5384C329.788 22.7836 330.175 22.9062 330.643 22.9062ZM341.032 19.5405V20.8281H336.896V19.5405H341.032ZM337.313 16.3636V24H335.857V16.3636H337.313ZM342.071 16.3636V24H340.619V16.3636H342.071ZM348.614 24V17.6314H346.784C346.35 17.6314 346.012 17.7325 345.77 17.9347C345.528 18.1368 345.407 18.402 345.407 18.7301C345.407 19.0549 345.518 19.3168 345.74 19.5156C345.966 19.7112 346.28 19.8089 346.685 19.8089H349.046V21.0121H346.685C346.121 21.0121 345.634 20.9193 345.223 20.7337C344.816 20.5447 344.501 20.2779 344.279 19.9332C344.06 19.5885 343.95 19.1809 343.95 18.7102C343.95 18.2296 344.063 17.8153 344.289 17.4673C344.517 17.116 344.844 16.8442 345.268 16.652C345.695 16.4598 346.201 16.3636 346.784 16.3636H350.011V24H348.614ZM343.602 24L345.755 20.142H347.276L345.124 24H343.602ZM351.042 17.6463V16.3636H357.486V17.6463H354.995V24H353.543V17.6463H351.042ZM360.176 18.9886H362.394C363.328 18.9886 364.048 19.2206 364.551 19.6847C365.055 20.1487 365.307 20.7469 365.307 21.4794C365.307 21.9567 365.194 22.3859 364.969 22.767C364.744 23.1482 364.414 23.4498 363.98 23.6719C363.546 23.8906 363.017 24 362.394 24H359.058V16.3636H360.515V22.7173H362.394C362.821 22.7173 363.173 22.6063 363.448 22.3842C363.723 22.1589 363.86 21.8722 363.86 21.5241C363.86 21.1562 363.723 20.8563 363.448 20.6243C363.173 20.389 362.821 20.2713 362.394 20.2713H360.176V18.9886ZM370.679 24V16.3636H372.165V19.5653H372.881L375.402 16.3636H377.241L374.283 20.0774L377.276 24H375.432L373.13 20.9474H372.165V24H370.679ZM380.653 24.169C380.169 24.169 379.732 24.0795 379.341 23.9006C378.95 23.7183 378.64 23.4548 378.411 23.1101C378.186 22.7654 378.073 22.3428 378.073 21.8423C378.073 21.4115 378.156 21.0568 378.322 20.7784C378.487 20.5 378.711 20.2796 378.993 20.1172C379.274 19.9548 379.589 19.8321 379.937 19.7493C380.285 19.6664 380.64 19.6035 381.001 19.5604C381.459 19.5073 381.83 19.4643 382.115 19.4311C382.4 19.3946 382.607 19.3366 382.736 19.2571C382.866 19.1776 382.93 19.0483 382.93 18.8693V18.8345C382.93 18.4003 382.808 18.0639 382.562 17.8253C382.32 17.5866 381.959 17.4673 381.479 17.4673C380.978 17.4673 380.584 17.5784 380.295 17.8004C380.01 18.0192 379.813 18.2628 379.704 18.5312L378.307 18.2131C378.472 17.7491 378.714 17.3745 379.032 17.0895C379.354 16.8011 379.724 16.5923 380.141 16.4631C380.559 16.3305 380.998 16.2642 381.459 16.2642C381.764 16.2642 382.087 16.3007 382.428 16.3736C382.773 16.4432 383.094 16.5724 383.393 16.7614C383.694 16.9503 383.941 17.2204 384.133 17.5717C384.326 17.9197 384.422 18.3722 384.422 18.929V24H382.97V22.956H382.91C382.814 23.1482 382.67 23.3371 382.478 23.5227C382.286 23.7083 382.039 23.8625 381.737 23.9851C381.435 24.1077 381.074 24.169 380.653 24.169ZM380.976 22.9759C381.387 22.9759 381.739 22.8946 382.03 22.7322C382.325 22.5698 382.549 22.3577 382.702 22.0959C382.857 21.8307 382.935 21.5473 382.935 21.2457V20.2614C382.882 20.3144 382.779 20.3641 382.627 20.4105C382.478 20.4536 382.307 20.4917 382.115 20.5249C381.923 20.5547 381.735 20.5829 381.553 20.6094C381.371 20.6326 381.218 20.6525 381.096 20.669C380.807 20.7055 380.544 20.7668 380.305 20.853C380.07 20.9392 379.881 21.0634 379.738 21.2259C379.599 21.3849 379.53 21.5971 379.53 21.8622C379.53 22.2301 379.666 22.5085 379.937 22.6974C380.209 22.883 380.555 22.9759 380.976 22.9759ZM386.402 24V16.3636H387.888V19.5653H388.604L391.125 16.3636H392.964L390.006 20.0774L392.999 24H391.154L388.853 20.9474H387.888V24H386.402ZM401.075 24.1541C400.359 24.1541 399.735 23.9901 399.201 23.6619C398.667 23.3338 398.253 22.8748 397.958 22.2848C397.663 21.6948 397.516 21.0054 397.516 20.2166C397.516 19.4245 397.663 18.7318 397.958 18.1385C398.253 17.5452 398.667 17.0845 399.201 16.7564C399.735 16.4283 400.359 16.2642 401.075 16.2642C401.791 16.2642 402.416 16.4283 402.95 16.7564C403.483 17.0845 403.897 17.5452 404.192 18.1385C404.487 18.7318 404.635 19.4245 404.635 20.2166C404.635 21.0054 404.487 21.6948 404.192 22.2848C403.897 22.8748 403.483 23.3338 402.95 23.6619C402.416 23.9901 401.791 24.1541 401.075 24.1541ZM401.08 22.9062C401.544 22.9062 401.929 22.7836 402.234 22.5384C402.539 22.2931 402.764 21.9666 402.91 21.5589C403.059 21.1513 403.134 20.7022 403.134 20.2116C403.134 19.7244 403.059 19.277 402.91 18.8693C402.764 18.4583 402.539 18.1286 402.234 17.88C401.929 17.6314 401.544 17.5071 401.08 17.5071C400.613 17.5071 400.225 17.6314 399.917 17.88C399.612 18.1286 399.385 18.4583 399.236 18.8693C399.09 19.277 399.017 19.7244 399.017 20.2116C399.017 20.7022 399.09 21.1513 399.236 21.5589C399.385 21.9666 399.612 22.2931 399.917 22.5384C400.225 22.7836 400.613 22.9062 401.08 22.9062ZM411.47 19.5405V20.8281H407.333V19.5405H411.47ZM407.751 16.3636V24H406.294V16.3636H407.751ZM412.509 16.3636V24H411.057V16.3636H412.509ZM418.202 26.8636V16.3636H419.654V17.6016H419.778C419.865 17.4425 419.989 17.2585 420.151 17.0497C420.314 16.8409 420.539 16.6586 420.827 16.5028C421.116 16.3438 421.497 16.2642 421.971 16.2642C422.587 16.2642 423.138 16.42 423.621 16.7315C424.105 17.0431 424.485 17.4922 424.76 18.0788C425.038 18.6655 425.178 19.3714 425.178 20.1967C425.178 21.022 425.04 21.7296 424.765 22.3196C424.49 22.9062 424.112 23.3587 423.631 23.6768C423.151 23.9917 422.602 24.1491 421.986 24.1491C421.522 24.1491 421.142 24.0713 420.847 23.9155C420.556 23.7597 420.327 23.5774 420.161 23.3686C419.996 23.1598 419.868 22.9742 419.778 22.8118H419.689V26.8636H418.202ZM419.659 20.1818C419.659 20.7187 419.737 21.1894 419.893 21.5938C420.049 21.9981 420.274 22.3146 420.569 22.5433C420.864 22.7687 421.225 22.8814 421.653 22.8814C422.097 22.8814 422.468 22.7637 422.766 22.5284C423.065 22.2898 423.29 21.9666 423.442 21.5589C423.598 21.1513 423.676 20.6922 423.676 20.1818C423.676 19.678 423.6 19.2256 423.447 18.8246C423.298 18.4235 423.073 18.107 422.771 17.875C422.473 17.643 422.1 17.527 421.653 17.527C421.222 17.527 420.857 17.638 420.559 17.8601C420.264 18.0821 420.04 18.392 419.888 18.7898C419.735 19.1875 419.659 19.6515 419.659 20.1818ZM429.065 24.169C428.581 24.169 428.144 24.0795 427.753 23.9006C427.362 23.7183 427.052 23.4548 426.823 23.1101C426.598 22.7654 426.485 22.3428 426.485 21.8423C426.485 21.4115 426.568 21.0568 426.734 20.7784C426.899 20.5 427.123 20.2796 427.405 20.1172C427.687 19.9548 428.001 19.8321 428.349 19.7493C428.697 19.6664 429.052 19.6035 429.413 19.5604C429.871 19.5073 430.242 19.4643 430.527 19.4311C430.812 19.3946 431.019 19.3366 431.148 19.2571C431.278 19.1776 431.342 19.0483 431.342 18.8693V18.8345C431.342 18.4003 431.22 18.0639 430.974 17.8253C430.732 17.5866 430.371 17.4673 429.891 17.4673C429.39 17.4673 428.996 17.5784 428.707 17.8004C428.422 18.0192 428.225 18.2628 428.116 18.5312L426.719 18.2131C426.884 17.7491 427.126 17.3745 427.445 17.0895C427.766 16.8011 428.136 16.5923 428.553 16.4631C428.971 16.3305 429.41 16.2642 429.871 16.2642C430.176 16.2642 430.499 16.3007 430.84 16.3736C431.185 16.4432 431.506 16.5724 431.805 16.7614C432.106 16.9503 432.353 17.2204 432.545 17.5717C432.738 17.9197 432.834 18.3722 432.834 18.929V24H431.382V22.956H431.322C431.226 23.1482 431.082 23.3371 430.89 23.5227C430.698 23.7083 430.451 23.8625 430.149 23.9851C429.848 24.1077 429.486 24.169 429.065 24.169ZM429.388 22.9759C429.799 22.9759 430.151 22.8946 430.442 22.7322C430.737 22.5698 430.961 22.3577 431.114 22.0959C431.269 21.8307 431.347 21.5473 431.347 21.2457V20.2614C431.294 20.3144 431.192 20.3641 431.039 20.4105C430.89 20.4536 430.719 20.4917 430.527 20.5249C430.335 20.5547 430.147 20.5829 429.965 20.6094C429.783 20.6326 429.63 20.6525 429.508 20.669C429.219 20.7055 428.956 20.7668 428.717 20.853C428.482 20.9392 428.293 21.0634 428.151 21.2259C428.011 21.3849 427.942 21.5971 427.942 21.8622C427.942 22.2301 428.078 22.5085 428.349 22.6974C428.621 22.883 428.968 22.9759 429.388 22.9759ZM440.705 13.5199L441.322 14.4595C441.093 14.6683 440.833 14.8175 440.541 14.907C440.253 14.9931 439.92 15.0478 439.542 15.071C439.164 15.0909 438.731 15.1091 438.244 15.1257C437.694 15.1423 437.242 15.2616 436.887 15.4837C436.532 15.7024 436.259 16.0272 436.067 16.4581C435.878 16.8857 435.755 17.4226 435.699 18.0689H435.793C436.042 17.5949 436.386 17.2403 436.827 17.005C437.271 16.7696 437.77 16.652 438.324 16.652C438.94 16.652 439.489 16.7928 439.969 17.0746C440.45 17.3563 440.828 17.7689 441.103 18.3125C441.381 18.8527 441.52 19.514 441.52 20.2962C441.52 21.0883 441.375 21.7727 441.083 22.3494C440.795 22.9261 440.387 23.3719 439.86 23.6868C439.336 23.9983 438.718 24.1541 438.006 24.1541C437.293 24.1541 436.671 23.9934 436.141 23.6719C435.614 23.3471 435.205 22.8665 434.913 22.2301C434.625 21.5937 434.481 20.8082 434.481 19.8736V19.1179C434.481 17.3712 434.792 16.0571 435.415 15.1754C436.038 14.2938 436.97 13.8414 438.209 13.8182C438.61 13.8082 438.968 13.8066 439.283 13.8132C439.598 13.8165 439.873 13.8016 440.108 13.7685C440.347 13.732 440.546 13.6491 440.705 13.5199ZM438.01 22.9062C438.425 22.9062 438.781 22.8018 439.079 22.593C439.381 22.3809 439.613 22.081 439.775 21.6932C439.938 21.3054 440.019 20.848 440.019 20.321C440.019 19.804 439.938 19.3648 439.775 19.0036C439.613 18.6423 439.381 18.3672 439.079 18.1783C438.778 17.986 438.416 17.8899 437.996 17.8899C437.684 17.8899 437.406 17.9446 437.16 18.054C436.915 18.16 436.705 18.3175 436.529 18.5263C436.357 18.7351 436.222 18.9903 436.126 19.2919C436.033 19.5902 435.984 19.9332 435.977 20.321C435.977 21.1098 436.158 21.7379 436.519 22.2053C436.884 22.6726 437.381 22.9062 438.01 22.9062ZM446.398 24.1541C445.682 24.1541 445.057 23.9901 444.523 23.6619C443.99 23.3338 443.575 22.8748 443.28 22.2848C442.985 21.6948 442.838 21.0054 442.838 20.2166C442.838 19.4245 442.985 18.7318 443.28 18.1385C443.575 17.5452 443.99 17.0845 444.523 16.7564C445.057 16.4283 445.682 16.2642 446.398 16.2642C447.113 16.2642 447.738 16.4283 448.272 16.7564C448.805 17.0845 449.22 17.5452 449.515 18.1385C449.81 18.7318 449.957 19.4245 449.957 20.2166C449.957 21.0054 449.81 21.6948 449.515 22.2848C449.22 22.8748 448.805 23.3338 448.272 23.6619C447.738 23.9901 447.113 24.1541 446.398 24.1541ZM446.403 22.9062C446.867 22.9062 447.251 22.7836 447.556 22.5384C447.861 22.2931 448.086 21.9666 448.232 21.5589C448.381 21.1513 448.456 20.7022 448.456 20.2116C448.456 19.7244 448.381 19.277 448.232 18.8693C448.086 18.4583 447.861 18.1286 447.556 17.88C447.251 17.6314 446.867 17.5071 446.403 17.5071C445.935 17.5071 445.547 17.6314 445.239 17.88C444.934 18.1286 444.707 18.4583 444.558 18.8693C444.412 19.277 444.339 19.7244 444.339 20.2116C444.339 20.7022 444.412 21.1513 444.558 21.5589C444.707 21.9666 444.934 22.2931 445.239 22.5384C445.547 22.7836 445.935 22.9062 446.403 22.9062ZM450.697 17.6463V16.3636H457.14V17.6463H454.649V24H453.197V17.6463H450.697ZM460.579 24.169C460.095 24.169 459.658 24.0795 459.267 23.9006C458.875 23.7183 458.566 23.4548 458.337 23.1101C458.111 22.7654 457.999 22.3428 457.999 21.8423C457.999 21.4115 458.082 21.0568 458.247 20.7784C458.413 20.5 458.637 20.2796 458.919 20.1172C459.2 19.9548 459.515 19.8321 459.863 19.7493C460.211 19.6664 460.566 19.6035 460.927 19.5604C461.384 19.5073 461.756 19.4643 462.041 19.4311C462.326 19.3946 462.533 19.3366 462.662 19.2571C462.791 19.1776 462.856 19.0483 462.856 18.8693V18.8345C462.856 18.4003 462.733 18.0639 462.488 17.8253C462.246 17.5866 461.885 17.4673 461.404 17.4673C460.904 17.4673 460.509 17.5784 460.221 17.8004C459.936 18.0192 459.739 18.2628 459.629 18.5312L458.232 18.2131C458.398 17.7491 458.64 17.3745 458.958 17.0895C459.28 16.8011 459.649 16.5923 460.067 16.4631C460.485 16.3305 460.924 16.2642 461.384 16.2642C461.689 16.2642 462.012 16.3007 462.354 16.3736C462.699 16.4432 463.02 16.5724 463.318 16.7614C463.62 16.9503 463.867 17.2204 464.059 17.5717C464.251 17.9197 464.347 18.3722 464.347 18.929V24H462.896V22.956H462.836C462.74 23.1482 462.596 23.3371 462.404 23.5227C462.211 23.7083 461.964 23.8625 461.663 23.9851C461.361 24.1077 461 24.169 460.579 24.169ZM460.902 22.9759C461.313 22.9759 461.664 22.8946 461.956 22.7322C462.251 22.5698 462.475 22.3577 462.627 22.0959C462.783 21.8307 462.861 21.5473 462.861 21.2457V20.2614C462.808 20.3144 462.705 20.3641 462.553 20.4105C462.404 20.4536 462.233 20.4917 462.041 20.5249C461.848 20.5547 461.661 20.5829 461.479 20.6094C461.297 20.6326 461.144 20.6525 461.021 20.669C460.733 20.7055 460.47 20.7668 460.231 20.853C459.996 20.9392 459.807 21.0634 459.664 21.2259C459.525 21.3849 459.455 21.5971 459.455 21.8622C459.455 22.2301 459.591 22.5085 459.863 22.6974C460.135 22.883 460.481 22.9759 460.902 22.9759ZM469.619 24.1541C468.866 24.1541 468.218 23.9934 467.675 23.6719C467.134 23.3471 466.717 22.8913 466.422 22.3047C466.13 21.7147 465.984 21.0237 465.984 20.2315C465.984 19.4493 466.13 18.7599 466.422 18.1634C466.717 17.5668 467.128 17.1011 467.655 16.7663C468.185 16.4316 468.805 16.2642 469.514 16.2642C469.945 16.2642 470.363 16.3355 470.767 16.478C471.171 16.6205 471.534 16.8442 471.856 17.1491C472.177 17.4541 472.431 17.8501 472.616 18.3374C472.802 18.8213 472.895 19.4096 472.895 20.1023V20.6293H466.825V19.5156H471.438C471.438 19.1245 471.359 18.7782 471.2 18.4766C471.04 18.1716 470.817 17.9313 470.528 17.7557C470.243 17.58 469.909 17.4922 469.524 17.4922C469.107 17.4922 468.742 17.5949 468.43 17.8004C468.122 18.0026 467.884 18.2678 467.714 18.5959C467.549 18.9207 467.466 19.2737 467.466 19.6548V20.5249C467.466 21.0353 467.555 21.4695 467.734 21.8274C467.917 22.1854 468.17 22.4588 468.495 22.6477C468.82 22.8333 469.199 22.9261 469.634 22.9261C469.915 22.9261 470.172 22.8864 470.404 22.8068C470.636 22.724 470.837 22.6013 471.006 22.4389C471.175 22.2765 471.304 22.076 471.393 21.8374L472.8 22.0909C472.688 22.5052 472.486 22.8681 472.194 23.1797C471.906 23.4879 471.543 23.7282 471.105 23.9006C470.671 24.0696 470.175 24.1541 469.619 24.1541ZM473.871 17.6463V16.3636H480.314V17.6463H477.823V24H476.371V17.6463H473.871Z" fill="white"/>
<rect y="57" width="219" height="37" rx="15" fill="#A4998D"/>
<path d="M21.4301 81V70.8182H22.9664V75.2429H28.0423V70.8182H29.5835V81H28.0423V76.5604H22.9664V81H21.4301ZM33.9237 81.169C33.4398 81.169 33.0023 81.0795 32.6112 80.9006C32.2201 80.7183 31.9102 80.4548 31.6816 80.1101C31.4562 79.7654 31.3435 79.3428 31.3435 78.8423C31.3435 78.4115 31.4263 78.0568 31.5921 77.7784C31.7578 77.5 31.9815 77.2796 32.2632 77.1172C32.545 76.9548 32.8598 76.8321 33.2078 76.7493C33.5558 76.6664 33.9105 76.6035 34.2718 76.5604C34.7291 76.5073 35.1003 76.4643 35.3854 76.4311C35.6704 76.3946 35.8776 76.3366 36.0068 76.2571C36.1361 76.1776 36.2007 76.0483 36.2007 75.8693V75.8345C36.2007 75.4003 36.0781 75.0639 35.8328 74.8253C35.5909 74.5866 35.2296 74.4673 34.749 74.4673C34.2485 74.4673 33.8541 74.5784 33.5658 74.8004C33.2807 75.0192 33.0835 75.2628 32.9742 75.5312L31.5771 75.2131C31.7429 74.7491 31.9848 74.3745 32.303 74.0895C32.6245 73.8011 32.9941 73.5923 33.4117 73.4631C33.8293 73.3305 34.2684 73.2642 34.7291 73.2642C35.0341 73.2642 35.3572 73.3007 35.6986 73.3736C36.0433 73.4432 36.3648 73.5724 36.6631 73.7614C36.9647 73.9503 37.2116 74.2204 37.4039 74.5717C37.5961 74.9197 37.6922 75.3722 37.6922 75.929V81H36.2405V79.956H36.1808C36.0847 80.1482 35.9405 80.3371 35.7483 80.5227C35.5561 80.7083 35.3092 80.8625 35.0075 80.9851C34.7059 81.1077 34.3447 81.169 33.9237 81.169ZM34.2469 79.9759C34.6579 79.9759 35.0092 79.8946 35.3009 79.7322C35.5959 79.5698 35.8196 79.3577 35.972 79.0959C36.1278 78.8307 36.2057 78.5473 36.2057 78.2457V77.2614C36.1527 77.3144 36.0499 77.3641 35.8975 77.4105C35.7483 77.4536 35.5776 77.4917 35.3854 77.5249C35.1932 77.5547 35.0059 77.5829 34.8236 77.6094C34.6413 77.6326 34.4888 77.6525 34.3662 77.669C34.0779 77.7055 33.8144 77.7668 33.5757 77.853C33.3404 77.9392 33.1515 78.0634 33.009 78.2259C32.8698 78.3849 32.8002 78.5971 32.8002 78.8622C32.8002 79.2301 32.936 79.5085 33.2078 79.6974C33.4796 79.883 33.826 79.9759 34.2469 79.9759ZM41.1288 78.9169L44.4946 73.3636H46.0954V81H44.6388V75.4418L41.2879 81H39.6721V73.3636H41.1288V78.9169ZM43.8582 70.7784H45.0812C45.0812 71.3385 44.8824 71.7943 44.4846 72.1456C44.0902 72.4936 43.5566 72.6676 42.8838 72.6676C42.2143 72.6676 41.6823 72.4936 41.2879 72.1456C40.8935 71.7943 40.6963 71.3385 40.6963 70.7784H41.9143C41.9143 71.027 41.9872 71.2474 42.1331 71.4396C42.2789 71.6286 42.5291 71.723 42.8838 71.723C43.2318 71.723 43.4804 71.6286 43.6295 71.4396C43.782 71.2507 43.8582 71.0303 43.8582 70.7784ZM47.1469 74.6463V73.3636H53.5901V74.6463H51.0993V81H49.6476V74.6463H47.1469ZM56.6191 78.9169L59.9848 73.3636H61.5857V81H60.129V75.4418L56.7781 81H55.1624V73.3636H56.6191V78.9169ZM72.4648 76.5405V77.8281H68.3284V76.5405H72.4648ZM68.746 73.3636V81H67.2893V73.3636H68.746ZM73.5038 73.3636V81H72.0521V73.3636H73.5038ZM76.1586 83.8636C75.9366 83.8636 75.7344 83.8454 75.5521 83.8089C75.3698 83.7758 75.2339 83.7393 75.1444 83.6996L75.5024 82.4815C75.7742 82.5545 76.0161 82.5859 76.2282 82.576C76.4404 82.5661 76.6276 82.4865 76.79 82.3374C76.9558 82.1882 77.1016 81.9446 77.2275 81.6065L77.4115 81.0994L74.6175 73.3636H76.2084L78.1423 79.2898H78.2219L80.1558 73.3636H81.7517L78.6047 82.0192C78.4588 82.4169 78.2732 82.7533 78.0479 83.0284C77.8225 83.3068 77.554 83.5156 77.2425 83.6548C76.9309 83.794 76.5696 83.8636 76.1586 83.8636ZM82.6615 81L85.6196 77.0923L82.6963 73.3636H84.4264L86.7879 76.5355H87.3199V73.3636H88.8064V76.5355H89.3234L91.6849 73.3636H93.415L90.5067 77.0923L93.4498 81H91.6849L89.3035 77.8182H88.8064V81H87.3199V77.8182H86.8227L84.4264 81H82.6615ZM100.137 76.5405V77.8281H96.0003V76.5405H100.137ZM96.4179 73.3636V81H94.9612V73.3636H96.4179ZM101.176 73.3636V81H99.724V73.3636H101.176ZM103.831 83.8636C103.608 83.8636 103.406 83.8454 103.224 83.8089C103.042 83.7758 102.906 83.7393 102.816 83.6996L103.174 82.4815C103.446 82.5545 103.688 82.5859 103.9 82.576C104.112 82.5661 104.3 82.4865 104.462 82.3374C104.628 82.1882 104.773 81.9446 104.899 81.6065L105.083 81.0994L102.289 73.3636H103.88L105.814 79.2898H105.894L107.828 73.3636H109.424L106.277 82.0192C106.131 82.4169 105.945 82.7533 105.72 83.0284C105.494 83.3068 105.226 83.5156 104.914 83.6548C104.603 83.794 104.242 83.8636 103.831 83.8636ZM114.664 76.5952V77.8878H110.592V76.5952H114.664ZM111.8 73.3636V81H110.313V73.3636H111.8ZM116.99 81.1541C116.281 81.1541 115.661 80.9884 115.131 80.657C114.601 80.3255 114.19 79.8648 113.898 79.2749C113.606 78.6816 113.46 77.9938 113.46 77.2116C113.46 76.4228 113.606 75.7334 113.898 75.1435C114.19 74.5502 114.601 74.0895 115.131 73.7614C115.661 73.4299 116.281 73.2642 116.99 73.2642C117.703 73.2642 118.323 73.4299 118.85 73.7614C119.38 74.0895 119.791 74.5502 120.083 75.1435C120.378 75.7334 120.525 76.4228 120.525 77.2116C120.525 77.9938 120.378 78.6816 120.083 79.2749C119.791 79.8648 119.38 80.3255 118.85 80.657C118.323 80.9884 117.703 81.1541 116.99 81.1541ZM116.99 79.8814C117.471 79.8814 117.864 79.7604 118.169 79.5185C118.477 79.2732 118.704 78.9484 118.85 78.544C118.996 78.1397 119.068 77.6955 119.068 77.2116C119.068 76.7244 118.996 76.2786 118.85 75.8743C118.704 75.4666 118.477 75.1402 118.169 74.8949C117.864 74.6496 117.471 74.527 116.99 74.527C116.513 74.527 116.12 74.6496 115.812 74.8949C115.504 75.1402 115.277 75.4666 115.131 75.8743C114.985 76.2786 114.912 76.7244 114.912 77.2116C114.912 77.6955 114.985 78.1397 115.131 78.544C115.277 78.9484 115.504 79.2732 115.812 79.5185C116.12 79.7604 116.513 79.8814 116.99 79.8814ZM125.983 81V73.3636H127.469V76.5653H128.185L130.706 73.3636H132.545L129.587 77.0774L132.58 81H130.736L128.434 77.9474H127.469V81H125.983ZM135.957 81.169C135.473 81.169 135.036 81.0795 134.644 80.9006C134.253 80.7183 133.943 80.4548 133.715 80.1101C133.489 79.7654 133.377 79.3428 133.377 78.8423C133.377 78.4115 133.46 78.0568 133.625 77.7784C133.791 77.5 134.015 77.2796 134.296 77.1172C134.578 76.9548 134.893 76.8321 135.241 76.7493C135.589 76.6664 135.944 76.6035 136.305 76.5604C136.762 76.5073 137.134 76.4643 137.419 76.4311C137.704 76.3946 137.911 76.3366 138.04 76.2571C138.169 76.1776 138.234 76.0483 138.234 75.8693V75.8345C138.234 75.4003 138.111 75.0639 137.866 74.8253C137.624 74.5866 137.263 74.4673 136.782 74.4673C136.282 74.4673 135.887 74.5784 135.599 74.8004C135.314 75.0192 135.117 75.2628 135.007 75.5312L133.61 75.2131C133.776 74.7491 134.018 74.3745 134.336 74.0895C134.658 73.8011 135.027 73.5923 135.445 73.4631C135.862 73.3305 136.302 73.2642 136.762 73.2642C137.067 73.2642 137.39 73.3007 137.732 73.3736C138.076 73.4432 138.398 73.5724 138.696 73.7614C138.998 73.9503 139.245 74.2204 139.437 74.5717C139.629 74.9197 139.725 75.3722 139.725 75.929V81H138.274V79.956H138.214C138.118 80.1482 137.974 80.3371 137.782 80.5227C137.589 80.7083 137.342 80.8625 137.041 80.9851C136.739 81.1077 136.378 81.169 135.957 81.169ZM136.28 79.9759C136.691 79.9759 137.042 79.8946 137.334 79.7322C137.629 79.5698 137.853 79.3577 138.005 79.0959C138.161 78.8307 138.239 78.5473 138.239 78.2457V77.2614C138.186 77.3144 138.083 77.3641 137.931 77.4105C137.782 77.4536 137.611 77.4917 137.419 77.5249C137.226 77.5547 137.039 77.5829 136.857 77.6094C136.675 77.6326 136.522 77.6525 136.399 77.669C136.111 77.7055 135.848 77.7668 135.609 77.853C135.374 77.9392 135.185 78.0634 135.042 78.2259C134.903 78.3849 134.833 78.5971 134.833 78.8622C134.833 79.2301 134.969 79.5085 135.241 79.6974C135.513 79.883 135.859 79.9759 136.28 79.9759ZM140.758 74.6463V73.3636H147.201V74.6463H144.711V81H143.259V74.6463H140.758ZM151.709 81.1541C150.957 81.1541 150.309 80.9934 149.766 80.6719C149.225 80.3471 148.808 79.8913 148.513 79.3047C148.221 78.7147 148.075 78.0237 148.075 77.2315C148.075 76.4493 148.221 75.7599 148.513 75.1634C148.808 74.5668 149.219 74.1011 149.746 73.7663C150.276 73.4316 150.896 73.2642 151.605 73.2642C152.036 73.2642 152.454 73.3355 152.858 73.478C153.262 73.6205 153.625 73.8442 153.947 74.1491C154.268 74.4541 154.522 74.8501 154.707 75.3374C154.893 75.8213 154.986 76.4096 154.986 77.1023V77.6293H148.915V76.5156H153.529C153.529 76.1245 153.449 75.7782 153.29 75.4766C153.131 75.1716 152.908 74.9313 152.619 74.7557C152.334 74.58 151.999 74.4922 151.615 74.4922C151.197 74.4922 150.833 74.5949 150.521 74.8004C150.213 75.0026 149.974 75.2678 149.805 75.5959C149.64 75.9207 149.557 76.2737 149.557 76.6548V77.5249C149.557 78.0353 149.646 78.4695 149.825 78.8274C150.007 79.1854 150.261 79.4588 150.586 79.6477C150.911 79.8333 151.29 79.9261 151.724 79.9261C152.006 79.9261 152.263 79.8864 152.495 79.8068C152.727 79.724 152.927 79.6013 153.097 79.4389C153.266 79.2765 153.395 79.076 153.484 78.8374L154.891 79.0909C154.779 79.5052 154.576 79.8681 154.285 80.1797C153.996 80.4879 153.633 80.7282 153.196 80.9006C152.762 81.0696 152.266 81.1541 151.709 81.1541ZM161.517 73.3636V74.6463H158.102V81H156.635V73.3636H161.517ZM165.949 81.1541C165.233 81.1541 164.609 80.9901 164.075 80.6619C163.541 80.3338 163.127 79.8748 162.832 79.2848C162.537 78.6948 162.39 78.0054 162.39 77.2166C162.39 76.4245 162.537 75.7318 162.832 75.1385C163.127 74.5452 163.541 74.0845 164.075 73.7564C164.609 73.4283 165.233 73.2642 165.949 73.2642C166.665 73.2642 167.29 73.4283 167.824 73.7564C168.357 74.0845 168.772 74.5452 169.066 75.1385C169.361 75.7318 169.509 76.4245 169.509 77.2166C169.509 78.0054 169.361 78.6948 169.066 79.2848C168.772 79.8748 168.357 80.3338 167.824 80.6619C167.29 80.9901 166.665 81.1541 165.949 81.1541ZM165.954 79.9062C166.418 79.9062 166.803 79.7836 167.108 79.5384C167.413 79.2931 167.638 78.9666 167.784 78.5589C167.933 78.1513 168.008 77.7022 168.008 77.2116C168.008 76.7244 167.933 76.277 167.784 75.8693C167.638 75.4583 167.413 75.1286 167.108 74.88C166.803 74.6314 166.418 74.5071 165.954 74.5071C165.487 74.5071 165.099 74.6314 164.791 74.88C164.486 75.1286 164.259 75.4583 164.11 75.8693C163.964 76.277 163.891 76.7244 163.891 77.2116C163.891 77.7022 163.964 78.1513 164.11 78.5589C164.259 78.9666 164.486 79.2931 164.791 79.5384C165.099 79.7836 165.487 79.9062 165.954 79.9062ZM171.168 83.8636V73.3636H172.62V74.6016H172.744C172.83 74.4425 172.955 74.2585 173.117 74.0497C173.28 73.8409 173.505 73.6586 173.793 73.5028C174.082 73.3438 174.463 73.2642 174.937 73.2642C175.553 73.2642 176.103 73.42 176.587 73.7315C177.071 74.0431 177.451 74.4922 177.726 75.0788C178.004 75.6655 178.143 76.3714 178.143 77.1967C178.143 78.022 178.006 78.7296 177.731 79.3196C177.456 79.9062 177.078 80.3587 176.597 80.6768C176.117 80.9917 175.568 81.1491 174.952 81.1491C174.488 81.1491 174.108 81.0713 173.813 80.9155C173.521 80.7597 173.293 80.5774 173.127 80.3686C172.961 80.1598 172.834 79.9742 172.744 79.8118H172.655V83.8636H171.168ZM172.625 77.1818C172.625 77.7187 172.703 78.1894 172.859 78.5938C173.014 78.9981 173.24 79.3146 173.535 79.5433C173.83 79.7687 174.191 79.8814 174.619 79.8814C175.063 79.8814 175.434 79.7637 175.732 79.5284C176.03 79.2898 176.256 78.9666 176.408 78.5589C176.564 78.1513 176.642 77.6922 176.642 77.1818C176.642 76.678 176.566 76.2256 176.413 75.8246C176.264 75.4235 176.039 75.107 175.737 74.875C175.439 74.643 175.066 74.527 174.619 74.527C174.188 74.527 173.823 74.638 173.525 74.8601C173.23 75.0821 173.006 75.392 172.854 75.7898C172.701 76.1875 172.625 76.6515 172.625 77.1818ZM181.266 78.9169L184.631 73.3636H186.232V81H184.775V75.4418L181.425 81H179.809V73.3636H181.266V78.9169ZM192.074 76.5952V77.8878H188.002V76.5952H192.074ZM189.21 73.3636V81H187.724V73.3636H189.21ZM194.4 81.1541C193.691 81.1541 193.071 80.9884 192.541 80.657C192.011 80.3255 191.6 79.8648 191.308 79.2749C191.016 78.6816 190.871 77.9938 190.871 77.2116C190.871 76.4228 191.016 75.7334 191.308 75.1435C191.6 74.5502 192.011 74.0895 192.541 73.7614C193.071 73.4299 193.691 73.2642 194.4 73.2642C195.113 73.2642 195.733 73.4299 196.26 73.7614C196.79 74.0895 197.201 74.5502 197.493 75.1435C197.788 75.7334 197.935 76.4228 197.935 77.2116C197.935 77.9938 197.788 78.6816 197.493 79.2749C197.201 79.8648 196.79 80.3255 196.26 80.657C195.733 80.9884 195.113 81.1541 194.4 81.1541ZM194.4 79.8814C194.881 79.8814 195.274 79.7604 195.579 79.5185C195.887 79.2732 196.114 78.9484 196.26 78.544C196.406 78.1397 196.479 77.6955 196.479 77.2116C196.479 76.7244 196.406 76.2786 196.26 75.8743C196.114 75.4666 195.887 75.1402 195.579 74.8949C195.274 74.6496 194.881 74.527 194.4 74.527C193.923 74.527 193.53 74.6496 193.222 74.8949C192.914 75.1402 192.687 75.4666 192.541 75.8743C192.395 76.2786 192.322 76.7244 192.322 77.2116C192.322 77.6955 192.395 78.1397 192.541 78.544C192.687 78.9484 192.914 79.2732 193.222 79.5185C193.53 79.7604 193.923 79.8814 194.4 79.8814Z" fill="white"/>
<rect x="296" y="57" width="144" height="37" rx="15" fill="#A4998D"/>
<path d="M317.193 81V70.8182H320.922C321.644 70.8182 322.242 70.9375 322.716 71.1761C323.19 71.4115 323.545 71.7313 323.78 72.1357C324.016 72.5367 324.133 72.9891 324.133 73.4929C324.133 73.9171 324.055 74.2751 323.9 74.5668C323.744 74.8551 323.535 75.0871 323.273 75.2628C323.015 75.4351 322.73 75.5611 322.418 75.6406V75.7401C322.756 75.7566 323.086 75.866 323.407 76.0682C323.732 76.267 324.001 76.5504 324.213 76.9183C324.425 77.2862 324.531 77.7337 324.531 78.2607C324.531 78.781 324.408 79.2483 324.163 79.6626C323.921 80.0736 323.547 80.4001 323.039 80.642C322.532 80.8807 321.884 81 321.096 81H317.193ZM318.729 79.6825H320.946C321.682 79.6825 322.209 79.54 322.527 79.255C322.846 78.9699 323.005 78.6136 323.005 78.1861C323.005 77.8646 322.923 77.5696 322.761 77.3011C322.599 77.0327 322.367 76.8189 322.065 76.6598C321.767 76.5007 321.412 76.4212 321.001 76.4212H318.729V79.6825ZM318.729 75.223H320.787C321.132 75.223 321.442 75.1567 321.717 75.0241C321.995 74.8916 322.216 74.706 322.378 74.4673C322.544 74.2254 322.627 73.9403 322.627 73.6122C322.627 73.1913 322.479 72.8383 322.184 72.5533C321.889 72.2682 321.437 72.1257 320.827 72.1257H318.729V75.223ZM327.352 75.9886H329.57C330.504 75.9886 331.223 76.2206 331.727 76.6847C332.231 77.1487 332.483 77.7469 332.483 78.4794C332.483 78.9567 332.37 79.3859 332.145 79.767C331.92 80.1482 331.59 80.4498 331.156 80.6719C330.721 80.8906 330.193 81 329.57 81H326.234V73.3636H327.69V79.7173H329.57C329.997 79.7173 330.348 79.6063 330.624 79.3842C330.899 79.1589 331.036 78.8722 331.036 78.5241C331.036 78.1562 330.899 77.8563 330.624 77.6243C330.348 77.389 329.997 77.2713 329.57 77.2713H327.352V75.9886ZM333.567 81V73.3636H335.053V81H333.567ZM342.939 70.5199L343.556 71.4595C343.327 71.6683 343.067 71.8175 342.775 71.907C342.487 71.9931 342.154 72.0478 341.776 72.071C341.398 72.0909 340.966 72.1091 340.479 72.1257C339.928 72.1423 339.476 72.2616 339.121 72.4837C338.767 72.7024 338.493 73.0272 338.301 73.4581C338.112 73.8857 337.989 74.4226 337.933 75.0689H338.028C338.276 74.5949 338.621 74.2403 339.062 74.005C339.506 73.7696 340.005 73.652 340.558 73.652C341.175 73.652 341.723 73.7928 342.204 74.0746C342.684 74.3563 343.062 74.7689 343.337 75.3125C343.616 75.8527 343.755 76.514 343.755 77.2962C343.755 78.0883 343.609 78.7727 343.317 79.3494C343.029 79.9261 342.621 80.3719 342.094 80.6868C341.571 80.9983 340.952 81.1541 340.24 81.1541C339.527 81.1541 338.906 80.9934 338.376 80.6719C337.849 80.3471 337.439 79.8665 337.148 79.2301C336.859 78.5937 336.715 77.8082 336.715 76.8736V76.1179C336.715 74.3712 337.027 73.0571 337.65 72.1754C338.273 71.2938 339.204 70.8414 340.444 70.8182C340.845 70.8082 341.203 70.8066 341.518 70.8132C341.832 70.8165 342.108 70.8016 342.343 70.7685C342.581 70.732 342.78 70.6491 342.939 70.5199ZM340.245 79.9062C340.659 79.9062 341.015 79.8018 341.314 79.593C341.615 79.3809 341.847 79.081 342.01 78.6932C342.172 78.3054 342.253 77.848 342.253 77.321C342.253 76.804 342.172 76.3648 342.01 76.0036C341.847 75.6423 341.615 75.3672 341.314 75.1783C341.012 74.986 340.651 74.8899 340.23 74.8899C339.918 74.8899 339.64 74.9446 339.395 75.054C339.149 75.16 338.939 75.3175 338.763 75.5263C338.591 75.7351 338.457 75.9903 338.361 76.2919C338.268 76.5902 338.218 76.9332 338.211 77.321C338.211 78.1098 338.392 78.7379 338.753 79.2053C339.118 79.6726 339.615 79.9062 340.245 79.9062ZM345.415 83.8636V73.3636H346.867V74.6016H346.991C347.077 74.4425 347.202 74.2585 347.364 74.0497C347.527 73.8409 347.752 73.6586 348.04 73.5028C348.329 73.3438 348.71 73.2642 349.184 73.2642C349.8 73.2642 350.35 73.42 350.834 73.7315C351.318 74.0431 351.698 74.4922 351.973 75.0788C352.251 75.6655 352.39 76.3714 352.39 77.1967C352.39 78.022 352.253 78.7296 351.978 79.3196C351.703 79.9062 351.325 80.3587 350.844 80.6768C350.364 80.9917 349.815 81.1491 349.199 81.1491C348.735 81.1491 348.355 81.0713 348.06 80.9155C347.769 80.7597 347.54 80.5774 347.374 80.3686C347.208 80.1598 347.081 79.9742 346.991 79.8118H346.902V83.8636H345.415ZM346.872 77.1818C346.872 77.7187 346.95 78.1894 347.106 78.5938C347.261 78.9981 347.487 79.3146 347.782 79.5433C348.077 79.7687 348.438 79.8814 348.866 79.8814C349.31 79.8814 349.681 79.7637 349.979 79.5284C350.278 79.2898 350.503 78.9666 350.655 78.5589C350.811 78.1513 350.889 77.6922 350.889 77.1818C350.889 76.678 350.813 76.2256 350.66 75.8246C350.511 75.4235 350.286 75.107 349.984 74.875C349.686 74.643 349.313 74.527 348.866 74.527C348.435 74.527 348.07 74.638 347.772 74.8601C347.477 75.0821 347.253 75.392 347.101 75.7898C346.948 76.1875 346.872 76.6515 346.872 77.1818ZM356.278 81.169C355.794 81.169 355.357 81.0795 354.966 80.9006C354.575 80.7183 354.265 80.4548 354.036 80.1101C353.811 79.7654 353.698 79.3428 353.698 78.8423C353.698 78.4115 353.781 78.0568 353.947 77.7784C354.112 77.5 354.336 77.2796 354.618 77.1172C354.899 76.9548 355.214 76.8321 355.562 76.7493C355.91 76.6664 356.265 76.6035 356.626 76.5604C357.084 76.5073 357.455 76.4643 357.74 76.4311C358.025 76.3946 358.232 76.3366 358.361 76.2571C358.491 76.1776 358.555 76.0483 358.555 75.8693V75.8345C358.555 75.4003 358.433 75.0639 358.187 74.8253C357.945 74.5866 357.584 74.4673 357.104 74.4673C356.603 74.4673 356.209 74.5784 355.92 74.8004C355.635 75.0192 355.438 75.2628 355.329 75.5312L353.932 75.2131C354.097 74.7491 354.339 74.3745 354.657 74.0895C354.979 73.8011 355.349 73.5923 355.766 73.4631C356.184 73.3305 356.623 73.2642 357.084 73.2642C357.389 73.2642 357.712 73.3007 358.053 73.3736C358.398 73.4432 358.719 73.5724 359.018 73.7614C359.319 73.9503 359.566 74.2204 359.758 74.5717C359.951 74.9197 360.047 75.3722 360.047 75.929V81H358.595V79.956H358.535C358.439 80.1482 358.295 80.3371 358.103 80.5227C357.911 80.7083 357.664 80.8625 357.362 80.9851C357.06 81.1077 356.699 81.169 356.278 81.169ZM356.601 79.9759C357.012 79.9759 357.364 79.8946 357.655 79.7322C357.95 79.5698 358.174 79.3577 358.327 79.0959C358.482 78.8307 358.56 78.5473 358.56 78.2457V77.2614C358.507 77.3144 358.404 77.3641 358.252 77.4105C358.103 77.4536 357.932 77.4917 357.74 77.5249C357.548 77.5547 357.36 77.5829 357.178 77.6094C356.996 77.6326 356.843 77.6525 356.721 77.669C356.432 77.7055 356.169 77.7668 355.93 77.853C355.695 77.9392 355.506 78.0634 355.363 78.2259C355.224 78.3849 355.155 78.5971 355.155 78.8622C355.155 79.2301 355.291 79.5085 355.562 79.6974C355.834 79.883 356.18 79.9759 356.601 79.9759ZM361.08 74.6463V73.3636H367.523V74.6463H365.032V81H363.58V74.6463H361.08ZM370.214 75.9886H372.431C373.366 75.9886 374.085 76.2206 374.589 76.6847C375.092 77.1487 375.344 77.7469 375.344 78.4794C375.344 78.9567 375.232 79.3859 375.006 79.767C374.781 80.1482 374.451 80.4498 374.017 80.6719C373.583 80.8906 373.054 81 372.431 81H369.095V73.3636H370.552V79.7173H372.431C372.858 79.7173 373.21 79.6063 373.485 79.3842C373.76 79.1589 373.898 78.8722 373.898 78.5241C373.898 78.1562 373.76 77.8563 373.485 77.6243C373.21 77.389 372.858 77.2713 372.431 77.2713H370.214V75.9886ZM380.289 74.6463V73.3636H386.732V74.6463H384.241V81H382.789V74.6463H380.289ZM391.165 81.1541C390.449 81.1541 389.824 80.9901 389.291 80.6619C388.757 80.3338 388.343 79.8748 388.048 79.2848C387.753 78.6948 387.605 78.0054 387.605 77.2166C387.605 76.4245 387.753 75.7318 388.048 75.1385C388.343 74.5452 388.757 74.0845 389.291 73.7564C389.824 73.4283 390.449 73.2642 391.165 73.2642C391.881 73.2642 392.506 73.4283 393.039 73.7564C393.573 74.0845 393.987 74.5452 394.282 75.1385C394.577 75.7318 394.725 76.4245 394.725 77.2166C394.725 78.0054 394.577 78.6948 394.282 79.2848C393.987 79.8748 393.573 80.3338 393.039 80.6619C392.506 80.9901 391.881 81.1541 391.165 81.1541ZM391.17 79.9062C391.634 79.9062 392.019 79.7836 392.324 79.5384C392.628 79.2931 392.854 78.9666 393 78.5589C393.149 78.1513 393.223 77.7022 393.223 77.2116C393.223 76.7244 393.149 76.277 393 75.8693C392.854 75.4583 392.628 75.1286 392.324 74.88C392.019 74.6314 391.634 74.5071 391.17 74.5071C390.703 74.5071 390.315 74.6314 390.007 74.88C389.702 75.1286 389.475 75.4583 389.326 75.8693C389.18 76.277 389.107 76.7244 389.107 77.2116C389.107 77.7022 389.18 78.1513 389.326 78.5589C389.475 78.9666 389.702 79.2931 390.007 79.5384C390.315 79.7836 390.703 79.9062 391.17 79.9062ZM396.384 81V73.3636H399.551C400.413 73.3636 401.095 73.5476 401.599 73.9155C402.103 74.2801 402.355 74.7756 402.355 75.402C402.355 75.8494 402.212 76.2041 401.927 76.4659C401.642 76.7277 401.265 76.9034 400.794 76.9929C401.135 77.0327 401.448 77.1354 401.733 77.3011C402.019 77.4635 402.247 77.6823 402.42 77.9574C402.595 78.2325 402.683 78.5606 402.683 78.9418C402.683 79.3461 402.579 79.7041 402.37 80.0156C402.161 80.3239 401.858 80.5658 401.46 80.7415C401.066 80.9138 400.59 81 400.033 81H396.384ZM397.781 79.7571H400.033C400.401 79.7571 400.689 79.6693 400.898 79.4936C401.107 79.3179 401.211 79.0793 401.211 78.7777C401.211 78.4231 401.107 78.1446 400.898 77.9425C400.689 77.737 400.401 77.6342 400.033 77.6342H397.781V79.7571ZM397.781 76.5455H399.566C399.844 76.5455 400.083 76.5057 400.282 76.4261C400.484 76.3466 400.638 76.2339 400.744 76.0881C400.854 75.9389 400.908 75.7633 400.908 75.5611C400.908 75.2661 400.787 75.0357 400.545 74.87C400.303 74.7043 399.972 74.6214 399.551 74.6214H397.781V76.5455ZM406.536 81.169C406.052 81.169 405.615 81.0795 405.224 80.9006C404.832 80.7183 404.523 80.4548 404.294 80.1101C404.068 79.7654 403.956 79.3428 403.956 78.8423C403.956 78.4115 404.039 78.0568 404.204 77.7784C404.37 77.5 404.594 77.2796 404.876 77.1172C405.157 76.9548 405.472 76.8321 405.82 76.7493C406.168 76.6664 406.523 76.6035 406.884 76.5604C407.341 76.5073 407.713 76.4643 407.998 76.4311C408.283 76.3946 408.49 76.3366 408.619 76.2571C408.748 76.1776 408.813 76.0483 408.813 75.8693V75.8345C408.813 75.4003 408.69 75.0639 408.445 74.8253C408.203 74.5866 407.842 74.4673 407.361 74.4673C406.861 74.4673 406.466 74.5784 406.178 74.8004C405.893 75.0192 405.696 75.2628 405.586 75.5312L404.189 75.2131C404.355 74.7491 404.597 74.3745 404.915 74.0895C405.237 73.8011 405.606 73.5923 406.024 73.4631C406.442 73.3305 406.881 73.2642 407.341 73.2642C407.646 73.2642 407.97 73.3007 408.311 73.3736C408.656 73.4432 408.977 73.5724 409.275 73.7614C409.577 73.9503 409.824 74.2204 410.016 74.5717C410.208 74.9197 410.305 75.3722 410.305 75.929V81H408.853V79.956H408.793C408.697 80.1482 408.553 80.3371 408.361 80.5227C408.168 80.7083 407.921 80.8625 407.62 80.9851C407.318 81.1077 406.957 81.169 406.536 81.169ZM406.859 79.9759C407.27 79.9759 407.622 79.8946 407.913 79.7322C408.208 79.5698 408.432 79.3577 408.584 79.0959C408.74 78.8307 408.818 78.5473 408.818 78.2457V77.2614C408.765 77.3144 408.662 77.3641 408.51 77.4105C408.361 77.4536 408.19 77.4917 407.998 77.5249C407.805 77.5547 407.618 77.5829 407.436 77.6094C407.254 77.6326 407.101 77.6525 406.979 77.669C406.69 77.7055 406.427 77.7668 406.188 77.853C405.953 77.9392 405.764 78.0634 405.621 78.2259C405.482 78.3849 405.412 78.5971 405.412 78.8622C405.412 79.2301 405.548 79.5085 405.82 79.6974C406.092 79.883 406.438 79.9759 406.859 79.9759ZM412.284 83.8636V73.3636H413.736V74.6016H413.86C413.947 74.4425 414.071 74.2585 414.233 74.0497C414.396 73.8409 414.621 73.6586 414.909 73.5028C415.198 73.3438 415.579 73.2642 416.053 73.2642C416.669 73.2642 417.22 73.42 417.703 73.7315C418.187 74.0431 418.567 74.4922 418.842 75.0788C419.12 75.6655 419.26 76.3714 419.26 77.1967C419.26 78.022 419.122 78.7296 418.847 79.3196C418.572 79.9062 418.194 80.3587 417.713 80.6768C417.233 80.9917 416.684 81.1491 416.068 81.1491C415.604 81.1491 415.224 81.0713 414.929 80.9155C414.638 80.7597 414.409 80.5774 414.243 80.3686C414.078 80.1598 413.95 79.9742 413.86 79.8118H413.771V83.8636H412.284ZM413.741 77.1818C413.741 77.7187 413.819 78.1894 413.975 78.5938C414.131 78.9981 414.356 79.3146 414.651 79.5433C414.946 79.7687 415.307 79.8814 415.735 79.8814C416.179 79.8814 416.55 79.7637 416.848 79.5284C417.147 79.2898 417.372 78.9666 417.525 78.5589C417.68 78.1513 417.758 77.6922 417.758 77.1818C417.758 76.678 417.682 76.2256 417.529 75.8246C417.38 75.4235 417.155 75.107 416.853 74.875C416.555 74.643 416.182 74.527 415.735 74.527C415.304 74.527 414.939 74.638 414.641 74.8601C414.346 75.0821 414.122 75.392 413.97 75.7898C413.817 76.1875 413.741 76.6515 413.741 77.1818Z" fill="white"/>
<rect x="143" y="129" width="135" height="57" rx="15" fill="#EA4B35"/>
<path d="M193.494 163L190.074 158.436H188.99V163H187.454V152.818H188.99V157.119H189.492L193.34 152.818H195.214L191.142 157.377L195.368 163H193.494ZM197.051 165.864C196.829 165.864 196.627 165.845 196.445 165.809C196.262 165.776 196.127 165.739 196.037 165.7L196.395 164.482C196.667 164.554 196.909 164.586 197.121 164.576C197.333 164.566 197.52 164.487 197.683 164.337C197.848 164.188 197.994 163.945 198.12 163.607L198.304 163.099L195.51 155.364H197.101L199.035 161.29H199.114L201.048 155.364H202.644L199.497 164.019C199.351 164.417 199.166 164.753 198.94 165.028C198.715 165.307 198.447 165.516 198.135 165.655C197.823 165.794 197.462 165.864 197.051 165.864ZM204.041 163V155.364H210.271V163H208.814V156.646H205.488V163H204.041ZM213.715 160.917L217.081 155.364H218.681V163H217.225V157.442L213.874 163H212.258V155.364H213.715V160.917ZM219.733 156.646V155.364H226.176V156.646H223.685V163H222.234V156.646H219.733ZM228.867 157.989H231.084C232.019 157.989 232.738 158.221 233.242 158.685C233.746 159.149 233.998 159.747 233.998 160.479C233.998 160.957 233.885 161.386 233.66 161.767C233.434 162.148 233.104 162.45 232.67 162.672C232.236 162.891 231.707 163 231.084 163H227.748V155.364H229.205V161.717H231.084C231.512 161.717 231.863 161.606 232.138 161.384C232.413 161.159 232.551 160.872 232.551 160.524C232.551 160.156 232.413 159.856 232.138 159.624C231.863 159.389 231.512 159.271 231.084 159.271H228.867V157.989Z" fill="white"/>
<rect x="350" y="129" width="151" height="37" rx="15" fill="#A4998D"/>
<path d="M380.393 147.909C380.393 148.996 380.194 149.931 379.796 150.713C379.398 151.492 378.853 152.092 378.161 152.513C377.471 152.93 376.687 153.139 375.809 153.139C374.927 153.139 374.14 152.93 373.447 152.513C372.758 152.092 372.214 151.49 371.817 150.708C371.419 149.926 371.22 148.993 371.22 147.909C371.22 146.822 371.419 145.889 371.817 145.11C372.214 144.328 372.758 143.728 373.447 143.31C374.14 142.889 374.927 142.679 375.809 142.679C376.687 142.679 377.471 142.889 378.161 143.31C378.853 143.728 379.398 144.328 379.796 145.11C380.194 145.889 380.393 146.822 380.393 147.909ZM378.871 147.909C378.871 147.08 378.737 146.383 378.469 145.816C378.204 145.246 377.839 144.815 377.375 144.523C376.914 144.228 376.392 144.081 375.809 144.081C375.222 144.081 374.699 144.228 374.238 144.523C373.777 144.815 373.413 145.246 373.144 145.816C372.879 146.383 372.746 147.08 372.746 147.909C372.746 148.738 372.879 149.437 373.144 150.007C373.413 150.574 373.777 151.005 374.238 151.3C374.699 151.591 375.222 151.737 375.809 151.737C376.392 151.737 376.914 151.591 377.375 151.3C377.839 151.005 378.204 150.574 378.469 150.007C378.737 149.437 378.871 148.738 378.871 147.909ZM385.405 153.154C384.666 153.154 384.03 152.987 383.496 152.652C382.966 152.314 382.558 151.848 382.273 151.255C381.988 150.662 381.846 149.982 381.846 149.217C381.846 148.441 381.992 147.757 382.283 147.163C382.575 146.567 382.986 146.101 383.516 145.766C384.046 145.432 384.671 145.264 385.39 145.264C385.97 145.264 386.488 145.372 386.942 145.587C387.396 145.799 387.762 146.098 388.04 146.482C388.322 146.867 388.489 147.316 388.542 147.83H387.096C387.016 147.472 386.834 147.163 386.549 146.905C386.267 146.646 385.889 146.517 385.415 146.517C385.001 146.517 384.638 146.626 384.327 146.845C384.018 147.061 383.778 147.369 383.606 147.77C383.433 148.168 383.347 148.638 383.347 149.182C383.347 149.739 383.432 150.219 383.601 150.624C383.77 151.028 384.008 151.341 384.317 151.563C384.628 151.785 384.994 151.896 385.415 151.896C385.697 151.896 385.952 151.845 386.181 151.742C386.413 151.636 386.607 151.485 386.763 151.29C386.922 151.094 387.033 150.859 387.096 150.584H388.542C388.489 151.078 388.329 151.518 388.06 151.906C387.792 152.294 387.432 152.599 386.981 152.821C386.534 153.043 386.009 153.154 385.405 153.154ZM389.554 146.646V145.364H395.997V146.646H393.507V153H392.055V146.646H389.554ZM399.436 153.169C398.953 153.169 398.515 153.08 398.124 152.901C397.733 152.718 397.423 152.455 397.194 152.11C396.969 151.765 396.856 151.343 396.856 150.842C396.856 150.411 396.939 150.057 397.105 149.778C397.27 149.5 397.494 149.28 397.776 149.117C398.058 148.955 398.373 148.832 398.721 148.749C399.069 148.666 399.423 148.603 399.784 148.56C400.242 148.507 400.613 148.464 400.898 148.431C401.183 148.395 401.39 148.337 401.52 148.257C401.649 148.178 401.713 148.048 401.713 147.869V147.835C401.713 147.4 401.591 147.064 401.346 146.825C401.104 146.587 400.742 146.467 400.262 146.467C399.761 146.467 399.367 146.578 399.078 146.8C398.793 147.019 398.596 147.263 398.487 147.531L397.09 147.213C397.256 146.749 397.498 146.375 397.816 146.089C398.137 145.801 398.507 145.592 398.924 145.463C399.342 145.33 399.781 145.264 400.242 145.264C400.547 145.264 400.87 145.301 401.211 145.374C401.556 145.443 401.877 145.572 402.176 145.761C402.477 145.95 402.724 146.22 402.917 146.572C403.109 146.92 403.205 147.372 403.205 147.929V153H401.753V151.956H401.694C401.597 152.148 401.453 152.337 401.261 152.523C401.069 152.708 400.822 152.862 400.52 152.985C400.219 153.108 399.857 153.169 399.436 153.169ZM399.76 151.976C400.171 151.976 400.522 151.895 400.814 151.732C401.109 151.57 401.332 151.358 401.485 151.096C401.641 150.831 401.718 150.547 401.718 150.246V149.261C401.665 149.314 401.563 149.364 401.41 149.411C401.261 149.454 401.09 149.492 400.898 149.525C400.706 149.555 400.519 149.583 400.336 149.609C400.154 149.633 400.002 149.652 399.879 149.669C399.591 149.705 399.327 149.767 399.088 149.853C398.853 149.939 398.664 150.063 398.522 150.226C398.382 150.385 398.313 150.597 398.313 150.862C398.313 151.23 398.449 151.509 398.721 151.697C398.992 151.883 399.339 151.976 399.76 151.976ZM405.185 153V145.364H408.352C409.213 145.364 409.896 145.548 410.4 145.915C410.904 146.28 411.156 146.776 411.156 147.402C411.156 147.849 411.013 148.204 410.728 148.466C410.443 148.728 410.065 148.903 409.595 148.993C409.936 149.033 410.249 149.135 410.534 149.301C410.819 149.464 411.048 149.682 411.22 149.957C411.396 150.232 411.484 150.561 411.484 150.942C411.484 151.346 411.379 151.704 411.171 152.016C410.962 152.324 410.659 152.566 410.261 152.741C409.866 152.914 409.391 153 408.834 153H405.185ZM406.582 151.757H408.834C409.202 151.757 409.49 151.669 409.699 151.494C409.908 151.318 410.012 151.079 410.012 150.778C410.012 150.423 409.908 150.145 409.699 149.942C409.49 149.737 409.202 149.634 408.834 149.634H406.582V151.757ZM406.582 148.545H408.367C408.645 148.545 408.884 148.506 409.083 148.426C409.285 148.347 409.439 148.234 409.545 148.088C409.654 147.939 409.709 147.763 409.709 147.561C409.709 147.266 409.588 147.036 409.346 146.87C409.104 146.704 408.773 146.621 408.352 146.621H406.582V148.545ZM414.571 150.917L417.937 145.364H419.538V153H418.081V147.442L414.73 153H413.115V145.364H414.571V150.917ZM420.589 146.646V145.364H427.032V146.646H424.542V153H423.09V146.646H420.589ZM429.723 147.989H431.941C432.875 147.989 433.595 148.221 434.098 148.685C434.602 149.149 434.854 149.747 434.854 150.479C434.854 150.957 434.741 151.386 434.516 151.767C434.291 152.148 433.961 152.45 433.527 152.672C433.092 152.891 432.564 153 431.941 153H428.605V145.364H430.061V151.717H431.941C432.368 151.717 432.72 151.606 432.995 151.384C433.27 151.159 433.407 150.872 433.407 150.524C433.407 150.156 433.27 149.856 432.995 149.624C432.72 149.389 432.368 149.271 431.941 149.271H429.723V147.989ZM443.442 153.154C442.727 153.154 442.102 152.99 441.568 152.662C441.035 152.334 440.62 151.875 440.325 151.285C440.03 150.695 439.883 150.005 439.883 149.217C439.883 148.424 440.03 147.732 440.325 147.138C440.62 146.545 441.035 146.085 441.568 145.756C442.102 145.428 442.727 145.264 443.442 145.264C444.158 145.264 444.783 145.428 445.317 145.756C445.85 146.085 446.265 146.545 446.56 147.138C446.855 147.732 447.002 148.424 447.002 149.217C447.002 150.005 446.855 150.695 446.56 151.285C446.265 151.875 445.85 152.334 445.317 152.662C444.783 152.99 444.158 153.154 443.442 153.154ZM443.447 151.906C443.911 151.906 444.296 151.784 444.601 151.538C444.906 151.293 445.131 150.967 445.277 150.559C445.426 150.151 445.501 149.702 445.501 149.212C445.501 148.724 445.426 148.277 445.277 147.869C445.131 147.458 444.906 147.129 444.601 146.88C444.296 146.631 443.911 146.507 443.447 146.507C442.98 146.507 442.592 146.631 442.284 146.88C441.979 147.129 441.752 147.458 441.603 147.869C441.457 148.277 441.384 148.724 441.384 149.212C441.384 149.702 441.457 150.151 441.603 150.559C441.752 150.967 441.979 151.293 442.284 151.538C442.592 151.784 442.98 151.906 443.447 151.906ZM447.742 146.646V145.364H454.185V146.646H451.694V153H450.242V146.646H447.742ZM455.305 150.982H456.826C456.846 151.293 456.987 151.533 457.249 151.702C457.514 151.871 457.857 151.956 458.278 151.956C458.705 151.956 459.07 151.865 459.371 151.683C459.673 151.497 459.824 151.21 459.824 150.822C459.824 150.59 459.766 150.388 459.65 150.216C459.537 150.04 459.376 149.904 459.168 149.808C458.962 149.712 458.719 149.664 458.437 149.664H457.194V148.496H458.437C458.858 148.496 459.173 148.4 459.381 148.207C459.59 148.015 459.695 147.775 459.695 147.487C459.695 147.175 459.582 146.925 459.357 146.736C459.134 146.544 458.825 146.447 458.427 146.447C458.022 146.447 457.686 146.539 457.418 146.721C457.149 146.9 457.008 147.132 456.995 147.417H455.494C455.504 146.989 455.633 146.615 455.881 146.293C456.133 145.969 456.471 145.717 456.896 145.538C457.323 145.355 457.809 145.264 458.352 145.264C458.919 145.264 459.41 145.355 459.824 145.538C460.238 145.72 460.558 145.972 460.783 146.293C461.012 146.615 461.126 146.984 461.126 147.402C461.126 147.823 461 148.168 460.749 148.436C460.5 148.701 460.175 148.892 459.774 149.008V149.087C460.069 149.107 460.331 149.197 460.56 149.356C460.788 149.515 460.967 149.725 461.097 149.987C461.226 150.249 461.29 150.546 461.29 150.877C461.29 151.344 461.161 151.749 460.903 152.09C460.647 152.432 460.293 152.695 459.839 152.881C459.388 153.063 458.873 153.154 458.293 153.154C457.729 153.154 457.224 153.066 456.776 152.891C456.332 152.712 455.979 152.46 455.717 152.135C455.459 151.81 455.321 151.426 455.305 150.982ZM463.944 147.989H466.161C467.096 147.989 467.815 148.221 468.319 148.685C468.823 149.149 469.075 149.747 469.075 150.479C469.075 150.957 468.962 151.386 468.737 151.767C468.511 152.148 468.182 152.45 467.747 152.672C467.313 152.891 466.785 153 466.161 153H462.825V145.364H464.282V151.717H466.161C466.589 151.717 466.94 151.606 467.215 151.384C467.49 151.159 467.628 150.872 467.628 150.524C467.628 150.156 467.49 149.856 467.215 149.624C466.94 149.389 466.589 149.271 466.161 149.271H463.944V147.989ZM470.159 153V145.364H471.645V153H470.159ZM473.64 153V145.364H476.807C477.669 145.364 478.351 145.548 478.855 145.915C479.359 146.28 479.611 146.776 479.611 147.402C479.611 147.849 479.468 148.204 479.183 148.466C478.898 148.728 478.52 148.903 478.05 148.993C478.391 149.033 478.704 149.135 478.989 149.301C479.274 149.464 479.503 149.682 479.675 149.957C479.851 150.232 479.939 150.561 479.939 150.942C479.939 151.346 479.835 151.704 479.626 152.016C479.417 152.324 479.114 152.566 478.716 152.741C478.321 152.914 477.846 153 477.289 153H473.64ZM475.037 151.757H477.289C477.657 151.757 477.945 151.669 478.154 151.494C478.363 151.318 478.467 151.079 478.467 150.778C478.467 150.423 478.363 150.145 478.154 149.942C477.945 149.737 477.657 149.634 477.289 149.634H475.037V151.757ZM475.037 148.545H476.822C477.1 148.545 477.339 148.506 477.538 148.426C477.74 148.347 477.894 148.234 478 148.088C478.109 147.939 478.164 147.763 478.164 147.561C478.164 147.266 478.043 147.036 477.801 146.87C477.559 146.704 477.228 146.621 476.807 146.621H475.037V148.545Z" fill="white"/>
<path d="M288.707 19.7071C289.098 19.3166 289.098 18.6834 288.707 18.2929L282.343 11.9289C281.953 11.5384 281.319 11.5384 280.929 11.9289C280.538 12.3195 280.538 12.9526 280.929 13.3431L286.586 19L280.929 24.6569C280.538 25.0474 280.538 25.6805 280.929 26.0711C281.319 26.4616 281.953 26.4616 282.343 26.0711L288.707 19.7071ZM203 20H288V18H203V20Z" fill="#6E5252"/>
<path d="M223.051 63.6838C222.877 64.2077 223.16 64.774 223.684 64.9487L232.222 67.7947C232.746 67.9694 233.312 67.6862 233.487 67.1623C233.661 66.6383 233.378 66.072 232.854 65.8974L225.265 63.3675L227.795 55.7781C227.969 55.2541 227.686 54.6878 227.162 54.5132C226.638 54.3385 226.072 54.6217 225.897 55.1456L223.051 63.6838ZM287.553 31.1056L223.553 63.1056L224.447 64.8944L288.447 32.8944L287.553 31.1056Z" fill="#6E5252"/>
<path d="M288.707 76.7071C289.098 76.3166 289.098 75.6834 288.707 75.2929L282.343 68.9289C281.953 68.5384 281.319 68.5384 280.929 68.9289C280.538 69.3195 280.538 69.9526 280.929 70.3431L286.586 76L280.929 81.6569C280.538 82.0474 280.538 82.6805 280.929 83.0711C281.319 83.4616 281.953 83.4616 282.343 83.0711L288.707 76.7071ZM224 77H288V75H224V77Z" fill="#6E5252"/>
<path d="M240.054 120.677C239.875 121.2 240.154 121.768 240.677 121.946L249.194 124.855C249.717 125.033 250.285 124.754 250.464 124.231C250.642 123.709 250.363 123.14 249.84 122.962L242.27 120.377L244.855 112.806C245.033 112.283 244.754 111.715 244.231 111.537C243.709 111.358 243.14 111.637 242.962 112.16L240.054 120.677ZM295.559 93.1023L240.559 120.102L241.441 121.898L296.441 94.8977L295.559 93.1023Z" fill="#6E5252"/>
<path d="M342.707 148.707C343.098 148.317 343.098 147.683 342.707 147.293L336.343 140.929C335.953 140.538 335.319 140.538 334.929 140.929C334.538 141.319 334.538 141.953 334.929 142.343L340.586 148L334.929 153.657C334.538 154.047 334.538 154.681 334.929 155.071C335.319 155.462 335.953 155.462 336.343 155.071L342.707 148.707ZM286.5 149H342V147H286.5V149Z" fill="#6E5252"/>
</svg>
