<svg width="510" height="181" viewBox="0 0 510 181" fill="none" xmlns="http://www.w3.org/2000/svg">
<rect width="200" height="38" rx="10" fill="#8988A0"/>
<path d="M5.11075 24V13.0909H9.47865C10.2812 13.0909 10.9506 13.2099 11.4868 13.4478C12.023 13.6857 12.4261 14.016 12.696 14.4386C12.9659 14.8576 13.1008 15.3406 13.1008 15.8874C13.1008 16.3136 13.0156 16.6882 12.8451 17.0114C12.6747 17.331 12.4403 17.5937 12.142 17.7997C11.8473 18.0021 11.5099 18.146 11.1299 18.2312V18.3377C11.5454 18.3555 11.9343 18.4727 12.2965 18.6893C12.6622 18.9059 12.9588 19.2095 13.186 19.6001C13.4133 19.9872 13.5269 20.4489 13.5269 20.9851C13.5269 21.5639 13.3831 22.0806 13.0955 22.5352C12.8114 22.9862 12.3906 23.343 11.8331 23.6058C11.2755 23.8686 10.5884 24 9.77162 24H5.11075ZM7.41721 22.1143H9.29754C9.9403 22.1143 10.409 21.9918 10.7038 21.7468C10.9985 21.4982 11.1459 21.168 11.1459 20.756C11.1459 20.4542 11.0731 20.1879 10.9275 19.957C10.7819 19.7262 10.5742 19.5451 10.3043 19.4137C10.038 19.2823 9.72013 19.2166 9.35081 19.2166H7.41721V22.1143ZM7.41721 17.6559H9.12709C9.44314 17.6559 9.72368 17.6009 9.96871 17.4908C10.2173 17.3771 10.4126 17.2173 10.5546 17.0114C10.7002 16.8054 10.773 16.5586 10.773 16.271C10.773 15.8768 10.6328 15.5589 10.3522 15.3175C10.0752 15.076 9.68106 14.9553 9.1697 14.9553H7.41721V17.6559ZM16.8814 15.8182L18.3836 18.6786L19.923 15.8182H22.2508L19.8804 19.9091L22.3147 24H19.9976L18.3836 21.1715L16.7962 24H14.4525L16.8814 19.9091L14.5377 15.8182H16.8814ZM27.0022 24.1598C26.1748 24.1598 25.4592 23.984 24.8555 23.6325C24.2554 23.2773 23.7919 22.7837 23.4652 22.1516C23.1385 21.516 22.9752 20.7791 22.9752 19.9411C22.9752 19.0959 23.1385 18.3572 23.4652 17.7251C23.7919 17.0895 24.2554 16.5959 24.8555 16.2443C25.4592 15.8892 26.1748 15.7116 27.0022 15.7116C27.8296 15.7116 28.5434 15.8892 29.1435 16.2443C29.7472 16.5959 30.2124 17.0895 30.5391 17.7251C30.8658 18.3572 31.0292 19.0959 31.0292 19.9411C31.0292 20.7791 30.8658 21.516 30.5391 22.1516C30.2124 22.7837 29.7472 23.2773 29.1435 23.6325C28.5434 23.984 27.8296 24.1598 27.0022 24.1598ZM27.0128 22.402C27.3892 22.402 27.7035 22.2955 27.9557 22.0824C28.2078 21.8658 28.3978 21.571 28.5256 21.1982C28.657 20.8253 28.7227 20.4009 28.7227 19.9251C28.7227 19.4492 28.657 19.0249 28.5256 18.652C28.3978 18.2791 28.2078 17.9844 27.9557 17.7678C27.7035 17.5511 27.3892 17.4428 27.0128 17.4428C26.6329 17.4428 26.3133 17.5511 26.054 17.7678C25.7983 17.9844 25.6048 18.2791 25.4734 18.652C25.3456 19.0249 25.2816 19.4492 25.2816 19.9251C25.2816 20.4009 25.3456 20.8253 25.4734 21.1982C25.6048 21.571 25.7983 21.8658 26.054 22.0824C26.3133 22.2955 26.6329 22.402 27.0128 22.402ZM31.8655 26.397V22.1996H32.494C32.6751 22.0859 32.8207 21.9048 32.9308 21.6562C33.0444 21.4077 33.1368 21.1147 33.2078 20.7773C33.2824 20.44 33.3392 20.076 33.3782 19.6854C33.4209 19.2912 33.4581 18.8935 33.4901 18.4922L33.7032 15.8182H39.978V22.1996H41.2458V26.397H39.0831V24H34.0814V26.397H31.8655ZM34.7525 22.1996H37.8367V17.5653H35.6314L35.5462 18.4922C35.4858 19.3658 35.3988 20.108 35.2852 20.7188C35.1716 21.326 34.994 21.8196 34.7525 22.1996ZM46.0398 24V15.8182H49.5288C50.5373 15.8182 51.3346 16.0099 51.9205 16.3935C52.5064 16.777 52.7994 17.3221 52.7994 18.0288C52.7994 18.4727 52.6343 18.842 52.304 19.1367C51.9738 19.4315 51.5157 19.6303 50.9297 19.7333C51.4198 19.7688 51.837 19.8807 52.1815 20.0689C52.5295 20.2536 52.7941 20.4933 52.9752 20.788C53.1598 21.0827 53.2522 21.4094 53.2522 21.7681C53.2522 22.2333 53.1279 22.6328 52.8793 22.9666C52.6343 23.3004 52.2738 23.5561 51.798 23.7337C51.3257 23.9112 50.7486 24 50.0668 24H46.0398ZM48.1545 22.3008H50.0668C50.3829 22.3008 50.6297 22.2262 50.8072 22.0771C50.9883 21.9244 51.0789 21.7166 51.0789 21.4538C51.0789 21.1626 50.9883 20.9336 50.8072 20.7667C50.6297 20.5998 50.3829 20.5163 50.0668 20.5163H48.1545V22.3008ZM48.1545 19.1847H49.5767C49.804 19.1847 49.9976 19.1527 50.1574 19.0888C50.3207 19.0213 50.445 18.9254 50.5302 18.8011C50.619 18.6768 50.6634 18.5295 50.6634 18.359C50.6634 18.1069 50.5622 17.9098 50.3598 17.7678C50.1574 17.6257 49.8804 17.5547 49.5288 17.5547H48.1545V19.1847ZM60.322 21.0064L63.2677 15.8182H65.5049V24H63.3423V18.7958L60.4073 24H58.1541V15.8182H60.322V21.0064ZM73.0182 19.0036V20.788H68.7462V19.0036H73.0182ZM69.492 15.8182V24H67.324V15.8182H69.492ZM74.4405 15.8182V24H72.2885V15.8182H74.4405ZM75.3793 17.6026V15.8182H82.7941V17.6026H80.1574V24H77.9947V17.6026H75.3793ZM87.6054 24.1598C86.7638 24.1598 86.0394 23.9893 85.4321 23.6484C84.8284 23.304 84.3632 22.8175 84.0365 22.1889C83.7098 21.5568 83.5465 20.8093 83.5465 19.9464C83.5465 19.1048 83.7098 18.3661 84.0365 17.7305C84.3632 17.0948 84.8231 16.5994 85.4161 16.2443C86.0127 15.8892 86.7123 15.7116 87.5149 15.7116C88.0546 15.7116 88.5571 15.7987 89.0223 15.9727C89.4911 16.1431 89.8995 16.4006 90.2475 16.745C90.599 17.0895 90.8725 17.5227 91.0678 18.0447C91.2631 18.5632 91.3608 19.1705 91.3608 19.8665V20.4897H84.452V19.0835H89.2247C89.2247 18.7567 89.1537 18.4673 89.0117 18.2152C88.8696 17.9631 88.6725 17.766 88.4204 17.6239C88.1718 17.4783 87.8824 17.4055 87.5522 17.4055C87.2077 17.4055 86.9023 17.4854 86.636 17.6452C86.3732 17.8015 86.1672 18.0128 86.0181 18.2791C85.8689 18.5419 85.7926 18.8349 85.789 19.158V20.495C85.789 20.8999 85.8636 21.2496 86.0127 21.5444C86.1654 21.8391 86.3803 22.0664 86.6573 22.2262C86.9343 22.386 87.2627 22.4659 87.6427 22.4659C87.8948 22.4659 88.1257 22.4304 88.3352 22.3594C88.5447 22.2884 88.724 22.1818 88.8732 22.0398C89.0223 21.8977 89.136 21.7237 89.2141 21.5178L91.3128 21.6562C91.2063 22.1605 90.9879 22.6009 90.6576 22.9773C90.3309 23.3501 89.9083 23.6413 89.3899 23.8509C88.875 24.0568 88.2801 24.1598 87.6054 24.1598ZM92.8416 27.0682V15.8182H95.0788V17.1925H95.18C95.2794 16.9723 95.4233 16.7486 95.6115 16.5213C95.8032 16.2905 96.0518 16.0987 96.3572 15.946C96.6661 15.7898 97.0497 15.7116 97.5078 15.7116C98.1044 15.7116 98.6548 15.8679 99.159 16.1804C99.6633 16.4893 100.066 16.9563 100.368 17.5813C100.67 18.2028 100.821 18.9822 100.821 19.9197C100.821 20.8324 100.674 21.603 100.379 22.2315C100.088 22.8565 99.6899 23.3306 99.1857 23.6538C98.685 23.9734 98.1239 24.1332 97.5024 24.1332C97.0621 24.1332 96.6875 24.0604 96.3785 23.9148C96.0731 23.7692 95.8228 23.5863 95.6274 23.3661C95.4321 23.1424 95.283 22.9169 95.18 22.6896H95.1108V27.0682H92.8416ZM95.0628 19.9091C95.0628 20.3956 95.1303 20.82 95.2652 21.1822C95.4002 21.5444 95.5955 21.8267 95.8512 22.0291C96.1068 22.228 96.4176 22.3274 96.7833 22.3274C97.1527 22.3274 97.4652 22.2262 97.7208 22.0238C97.9765 21.8178 98.1701 21.5337 98.3014 21.1715C98.4364 20.8058 98.5039 20.3849 98.5039 19.9091C98.5039 19.4368 98.4382 19.0213 98.3068 18.6626C98.1754 18.304 97.9818 18.0234 97.7262 17.821C97.4705 17.6186 97.1562 17.5174 96.7833 17.5174C96.414 17.5174 96.1015 17.6151 95.8458 17.8104C95.5937 18.0057 95.4002 18.2827 95.2652 18.6413C95.1303 19 95.0628 19.4226 95.0628 19.9091ZM108.028 19.0036V20.788H103.756V19.0036H108.028ZM104.502 15.8182V24H102.334V15.8182H104.502ZM109.45 15.8182V24H107.298V15.8182H109.45ZM114.939 24.1598C114.098 24.1598 113.373 23.9893 112.766 23.6484C112.162 23.304 111.697 22.8175 111.371 22.1889C111.044 21.5568 110.88 20.8093 110.88 19.9464C110.88 19.1048 111.044 18.3661 111.371 17.7305C111.697 17.0948 112.157 16.5994 112.75 16.2443C113.347 15.8892 114.046 15.7116 114.849 15.7116C115.389 15.7116 115.891 15.7987 116.356 15.9727C116.825 16.1431 117.233 16.4006 117.581 16.745C117.933 17.0895 118.206 17.5227 118.402 18.0447C118.597 18.5632 118.695 19.1705 118.695 19.8665V20.4897H111.786V19.0835H116.559C116.559 18.7567 116.488 18.4673 116.346 18.2152C116.204 17.9631 116.007 17.766 115.754 17.6239C115.506 17.4783 115.216 17.4055 114.886 17.4055C114.542 17.4055 114.236 17.4854 113.97 17.6452C113.707 17.8015 113.501 18.0128 113.352 18.2791C113.203 18.5419 113.127 18.8349 113.123 19.158V20.495C113.123 20.8999 113.198 21.2496 113.347 21.5444C113.499 21.8391 113.714 22.0664 113.991 22.2262C114.268 22.386 114.597 22.4659 114.977 22.4659C115.229 22.4659 115.46 22.4304 115.669 22.3594C115.879 22.2884 116.058 22.1818 116.207 22.0398C116.356 21.8977 116.47 21.7237 116.548 21.5178L118.647 21.6562C118.54 22.1605 118.322 22.6009 117.992 22.9773C117.665 23.3501 117.242 23.6413 116.724 23.8509C116.209 24.0568 115.614 24.1598 114.939 24.1598ZM119.544 17.6026V15.8182H126.959V17.6026H124.322V24H122.16V17.6026H119.544ZM133.257 18.62V20.4205H128.281V18.62H133.257ZM140.027 21.4911L142.243 15.8182H143.969L140.778 24H139.27L136.154 15.8182H137.875L140.027 21.4911ZM137.358 15.8182V24H135.19V15.8182H137.358ZM142.807 24V15.8182H144.949V24H142.807ZM149.037 24.1545C148.515 24.1545 148.05 24.0639 147.641 23.8828C147.233 23.6982 146.91 23.4265 146.672 23.0678C146.438 22.7056 146.32 22.2546 146.32 21.7148C146.32 21.2603 146.404 20.8786 146.571 20.5696C146.738 20.2607 146.965 20.0121 147.253 19.8239C147.54 19.6357 147.867 19.4936 148.233 19.3977C148.602 19.3018 148.989 19.2344 149.394 19.1953C149.87 19.1456 150.253 19.0994 150.544 19.0568C150.836 19.0107 151.047 18.9432 151.178 18.8544C151.31 18.7656 151.375 18.6342 151.375 18.4602V18.4283C151.375 18.0909 151.269 17.8299 151.056 17.6452C150.846 17.4606 150.548 17.3683 150.161 17.3683C149.753 17.3683 149.428 17.4588 149.186 17.6399C148.945 17.8175 148.785 18.0412 148.707 18.3111L146.608 18.1406C146.715 17.6435 146.924 17.2138 147.237 16.8516C147.549 16.4858 147.952 16.2053 148.446 16.0099C148.943 15.8111 149.518 15.7116 150.172 15.7116C150.626 15.7116 151.061 15.7649 151.477 15.8714C151.896 15.978 152.267 16.1431 152.59 16.3668C152.917 16.5906 153.174 16.8782 153.362 17.2298C153.55 17.5778 153.645 17.995 153.645 18.4815V24H151.493V22.8654H151.429C151.297 23.1211 151.121 23.3466 150.901 23.5419C150.681 23.7337 150.417 23.8846 150.108 23.9947C149.799 24.1012 149.442 24.1545 149.037 24.1545ZM149.687 22.5884C150.021 22.5884 150.315 22.5227 150.571 22.3913C150.827 22.2564 151.027 22.0753 151.173 21.848C151.319 21.6207 151.391 21.3633 151.391 21.0756V20.2074C151.32 20.2536 151.223 20.2962 151.098 20.3352C150.978 20.3707 150.841 20.4045 150.688 20.4364C150.536 20.4648 150.383 20.4915 150.23 20.5163C150.077 20.5376 149.939 20.5572 149.815 20.5749C149.548 20.614 149.316 20.6761 149.117 20.7614C148.918 20.8466 148.764 20.962 148.653 21.1076C148.543 21.2496 148.488 21.4272 148.488 21.6403C148.488 21.9492 148.6 22.1854 148.824 22.3487C149.051 22.5085 149.339 22.5884 149.687 22.5884ZM161.009 15.8182V17.6026H157.61V24H155.405V15.8182H161.009ZM164.432 24.1545C163.91 24.1545 163.445 24.0639 163.037 23.8828C162.629 23.6982 162.305 23.4265 162.067 23.0678C161.833 22.7056 161.716 22.2546 161.716 21.7148C161.716 21.2603 161.799 20.8786 161.966 20.5696C162.133 20.2607 162.36 20.0121 162.648 19.8239C162.936 19.6357 163.262 19.4936 163.628 19.3977C163.997 19.3018 164.385 19.2344 164.789 19.1953C165.265 19.1456 165.649 19.0994 165.94 19.0568C166.231 19.0107 166.442 18.9432 166.574 18.8544C166.705 18.7656 166.771 18.6342 166.771 18.4602V18.4283C166.771 18.0909 166.664 17.8299 166.451 17.6452C166.242 17.4606 165.943 17.3683 165.556 17.3683C165.148 17.3683 164.823 17.4588 164.582 17.6399C164.34 17.8175 164.18 18.0412 164.102 18.3111L162.004 18.1406C162.11 17.6435 162.32 17.2138 162.632 16.8516C162.945 16.4858 163.348 16.2053 163.841 16.0099C164.338 15.8111 164.914 15.7116 165.567 15.7116C166.022 15.7116 166.457 15.7649 166.872 15.8714C167.291 15.978 167.662 16.1431 167.985 16.3668C168.312 16.5906 168.57 16.8782 168.758 17.2298C168.946 17.5778 169.04 17.995 169.04 18.4815V24H166.888V22.8654H166.824C166.693 23.1211 166.517 23.3466 166.297 23.5419C166.077 23.7337 165.812 23.8846 165.503 23.9947C165.194 24.1012 164.837 24.1545 164.432 24.1545ZM165.082 22.5884C165.416 22.5884 165.711 22.5227 165.967 22.3913C166.222 22.2564 166.423 22.0753 166.568 21.848C166.714 21.6207 166.787 21.3633 166.787 21.0756V20.2074C166.716 20.2536 166.618 20.2962 166.494 20.3352C166.373 20.3707 166.236 20.4045 166.084 20.4364C165.931 20.4648 165.778 20.4915 165.626 20.5163C165.473 20.5376 165.334 20.5572 165.21 20.5749C164.944 20.614 164.711 20.6761 164.512 20.7614C164.314 20.8466 164.159 20.962 164.049 21.1076C163.939 21.2496 163.884 21.4272 163.884 21.6403C163.884 21.9492 163.996 22.1854 164.219 22.3487C164.447 22.5085 164.734 22.5884 165.082 22.5884ZM170.38 21.6829H172.58C172.59 21.9528 172.711 22.1658 172.942 22.3221C173.173 22.4783 173.471 22.5565 173.837 22.5565C174.206 22.5565 174.517 22.4712 174.769 22.3008C175.021 22.1268 175.147 21.8782 175.147 21.555C175.147 21.3562 175.097 21.1839 174.998 21.0384C174.899 20.8892 174.76 20.772 174.583 20.6868C174.405 20.6016 174.199 20.5589 173.965 20.5589H172.787V19.0728H173.965C174.316 19.0728 174.586 18.9911 174.774 18.8278C174.966 18.6644 175.062 18.4602 175.062 18.2152C175.062 17.9382 174.962 17.7163 174.764 17.5494C174.568 17.3789 174.304 17.2937 173.97 17.2937C173.633 17.2937 173.352 17.37 173.128 17.5227C172.908 17.6719 172.795 17.8672 172.787 18.1087H170.598C170.605 17.6186 170.753 17.1942 171.04 16.8356C171.331 16.4769 171.722 16.1999 172.212 16.0046C172.706 15.8093 173.258 15.7116 173.869 15.7116C174.536 15.7116 175.112 15.8058 175.595 15.994C176.081 16.1786 176.454 16.4432 176.713 16.7876C176.976 17.1321 177.107 17.5423 177.107 18.0181C177.107 18.4513 176.965 18.8136 176.681 19.1048C176.397 19.396 175.999 19.6037 175.488 19.728V19.8132C175.825 19.8345 176.131 19.9251 176.404 20.0849C176.678 20.2447 176.896 20.4648 177.059 20.7454C177.223 21.0224 177.304 21.3509 177.304 21.7308C177.304 22.2386 177.155 22.6737 176.857 23.0359C176.562 23.3981 176.154 23.6768 175.632 23.8722C175.113 24.0639 174.519 24.1598 173.847 24.1598C173.194 24.1598 172.608 24.0657 172.09 23.8775C171.575 23.6857 171.165 23.4052 170.859 23.0359C170.557 22.6665 170.398 22.2156 170.38 21.6829ZM180.864 21.0064L183.81 15.8182H186.047V24H183.884V18.7958L180.949 24H178.696V15.8182H180.864V21.0064ZM193.56 19.0036V20.788H189.288V19.0036H193.56ZM190.034 15.8182V24H187.866V15.8182H190.034ZM194.982 15.8182V24H192.83V15.8182H194.982Z" fill="#D6D0D0"/>
<path d="M310.707 19.7071C311.098 19.3166 311.098 18.6834 310.707 18.2929L304.343 11.9289C303.953 11.5384 303.319 11.5384 302.929 11.9289C302.538 12.3195 302.538 12.9526 302.929 13.3431L308.586 19L302.929 24.6569C302.538 25.0474 302.538 25.6805 302.929 26.0711C303.319 26.4616 303.953 26.4616 304.343 26.0711L310.707 19.7071ZM200 20L310 20V18L200 18V20Z" fill="#7E2A2B"/>
<rect x="310" width="200" height="38" rx="10" fill="#8988A0"/>
<path d="M330.266 13.0909V24H327.986V14.9659H323.576V24H321.296V13.0909H330.266ZM336.116 24.1598C335.289 24.1598 334.573 23.984 333.969 23.6325C333.369 23.2773 332.906 22.7837 332.579 22.1516C332.252 21.516 332.089 20.7791 332.089 19.9411C332.089 19.0959 332.252 18.3572 332.579 17.7251C332.906 17.0895 333.369 16.5959 333.969 16.2443C334.573 15.8892 335.289 15.7116 336.116 15.7116C336.943 15.7116 337.657 15.8892 338.257 16.2443C338.861 16.5959 339.326 17.0895 339.653 17.7251C339.98 18.3572 340.143 19.0959 340.143 19.9411C340.143 20.7791 339.98 21.516 339.653 22.1516C339.326 22.7837 338.861 23.2773 338.257 23.6325C337.657 23.984 336.943 24.1598 336.116 24.1598ZM336.127 22.402C336.503 22.402 336.817 22.2955 337.069 22.0824C337.322 21.8658 337.512 21.571 337.639 21.1982C337.771 20.8253 337.836 20.4009 337.836 19.9251C337.836 19.4492 337.771 19.0249 337.639 18.652C337.512 18.2791 337.322 17.9844 337.069 17.7678C336.817 17.5511 336.503 17.4428 336.127 17.4428C335.747 17.4428 335.427 17.5511 335.168 17.7678C334.912 17.9844 334.719 18.2791 334.587 18.652C334.459 19.0249 334.395 19.4492 334.395 19.9251C334.395 20.4009 334.459 20.8253 334.587 21.1982C334.719 21.571 334.912 21.8658 335.168 22.0824C335.427 22.2955 335.747 22.402 336.127 22.402ZM347.313 19.0036V20.788H343.041V19.0036H347.313ZM343.786 15.8182V24H341.618V15.8182H343.786ZM348.735 15.8182V24H346.583V15.8182H348.735ZM355.289 24V17.5973H353.755C353.34 17.5973 353.024 17.6932 352.807 17.8849C352.591 18.0767 352.484 18.304 352.488 18.5668C352.484 18.8331 352.587 19.0586 352.797 19.2433C353.01 19.4244 353.322 19.5149 353.734 19.5149H356.046V21.049H353.734C353.034 21.049 352.429 20.9425 351.918 20.7294C351.406 20.5163 351.012 20.2198 350.735 19.8398C350.458 19.4563 350.321 19.0107 350.325 18.5028C350.321 17.9702 350.458 17.5032 350.735 17.1019C351.012 16.6971 351.408 16.3828 351.923 16.1591C352.441 15.9318 353.052 15.8182 353.755 15.8182H357.404V24H355.289ZM350.091 24L352.365 19.7386H354.533L352.264 24H350.091ZM358.346 17.6026V15.8182H365.76V17.6026H363.124V24H360.961V17.6026H358.346ZM368.558 18.3324H371.003C372.086 18.3324 372.931 18.5916 373.539 19.1101C374.146 19.625 374.45 20.3139 374.45 21.1768C374.45 21.7379 374.313 22.2315 374.039 22.6577C373.766 23.0803 373.372 23.4105 372.857 23.6484C372.342 23.8828 371.724 24 371.003 24H367.136V15.8182H369.304V22.2156H371.003C371.383 22.2156 371.696 22.1197 371.941 21.9279C372.186 21.7362 372.31 21.4911 372.314 21.1928C372.31 20.8768 372.186 20.6193 371.941 20.4205C371.696 20.218 371.383 20.1168 371.003 20.1168H368.558V18.3324ZM379.426 24V15.8182H381.695V18.9929H382.334L384.561 15.8182H387.224L384.332 19.8771L387.256 24H384.561L382.542 21.0969H381.695V24H379.426ZM390.548 24.1545C390.026 24.1545 389.561 24.0639 389.153 23.8828C388.744 23.6982 388.421 23.4265 388.183 23.0678C387.949 22.7056 387.832 22.2546 387.832 21.7148C387.832 21.2603 387.915 20.8786 388.082 20.5696C388.249 20.2607 388.476 20.0121 388.764 19.8239C389.051 19.6357 389.378 19.4936 389.744 19.3977C390.113 19.3018 390.5 19.2344 390.905 19.1953C391.381 19.1456 391.764 19.0994 392.056 19.0568C392.347 19.0107 392.558 18.9432 392.69 18.8544C392.821 18.7656 392.887 18.6342 392.887 18.4602V18.4283C392.887 18.0909 392.78 17.8299 392.567 17.6452C392.358 17.4606 392.059 17.3683 391.672 17.3683C391.264 17.3683 390.939 17.4588 390.697 17.6399C390.456 17.8175 390.296 18.0412 390.218 18.3111L388.119 18.1406C388.226 17.6435 388.435 17.2138 388.748 16.8516C389.06 16.4858 389.463 16.2053 389.957 16.0099C390.454 15.8111 391.029 15.7116 391.683 15.7116C392.137 15.7116 392.572 15.7649 392.988 15.8714C393.407 15.978 393.778 16.1431 394.101 16.3668C394.428 16.5906 394.685 16.8782 394.873 17.2298C395.062 17.5778 395.156 17.995 395.156 18.4815V24H393.004V22.8654H392.94C392.809 23.1211 392.633 23.3466 392.413 23.5419C392.192 23.7337 391.928 23.8846 391.619 23.9947C391.31 24.1012 390.953 24.1545 390.548 24.1545ZM391.198 22.5884C391.532 22.5884 391.827 22.5227 392.082 22.3913C392.338 22.2564 392.539 22.0753 392.684 21.848C392.83 21.6207 392.903 21.3633 392.903 21.0756V20.2074C392.832 20.2536 392.734 20.2962 392.61 20.3352C392.489 20.3707 392.352 20.4045 392.199 20.4364C392.047 20.4648 391.894 20.4915 391.741 20.5163C391.589 20.5376 391.45 20.5572 391.326 20.5749C391.06 20.614 390.827 20.6761 390.628 20.7614C390.429 20.8466 390.275 20.962 390.165 21.1076C390.055 21.2496 390 21.4272 390 21.6403C390 21.9492 390.111 22.1854 390.335 22.3487C390.562 22.5085 390.85 22.5884 391.198 22.5884ZM396.916 24V15.8182H399.185V18.9929H399.825L402.051 15.8182H404.715L401.822 19.8771L404.747 24H402.051L400.032 21.0969H399.185V24H396.916ZM412.874 24.1598C412.046 24.1598 411.331 23.984 410.727 23.6325C410.127 23.2773 409.664 22.7837 409.337 22.1516C409.01 21.516 408.847 20.7791 408.847 19.9411C408.847 19.0959 409.01 18.3572 409.337 17.7251C409.664 17.0895 410.127 16.5959 410.727 16.2443C411.331 15.8892 412.046 15.7116 412.874 15.7116C413.701 15.7116 414.415 15.8892 415.015 16.2443C415.619 16.5959 416.084 17.0895 416.411 17.7251C416.737 18.3572 416.901 19.0959 416.901 19.9411C416.901 20.7791 416.737 21.516 416.411 22.1516C416.084 22.7837 415.619 23.2773 415.015 23.6325C414.415 23.984 413.701 24.1598 412.874 24.1598ZM412.884 22.402C413.261 22.402 413.575 22.2955 413.827 22.0824C414.079 21.8658 414.269 21.571 414.397 21.1982C414.529 20.8253 414.594 20.4009 414.594 19.9251C414.594 19.4492 414.529 19.0249 414.397 18.652C414.269 18.2791 414.079 17.9844 413.827 17.7678C413.575 17.5511 413.261 17.4428 412.884 17.4428C412.504 17.4428 412.185 17.5511 411.926 17.7678C411.67 17.9844 411.476 18.2791 411.345 18.652C411.217 19.0249 411.153 19.4492 411.153 19.9251C411.153 20.4009 411.217 20.8253 411.345 21.1982C411.476 21.571 411.67 21.8658 411.926 22.0824C412.185 22.2955 412.504 22.402 412.884 22.402ZM424.07 19.0036V20.788H419.798V19.0036H424.07ZM420.544 15.8182V24H418.376V15.8182H420.544ZM425.493 15.8182V24H423.341V15.8182H425.493ZM430.725 27.0682V15.8182H432.962V17.1925H433.063C433.163 16.9723 433.307 16.7486 433.495 16.5213C433.687 16.2905 433.935 16.0987 434.241 15.946C434.549 15.7898 434.933 15.7116 435.391 15.7116C435.988 15.7116 436.538 15.8679 437.042 16.1804C437.547 16.4893 437.95 16.9563 438.252 17.5813C438.553 18.2028 438.704 18.9822 438.704 19.9197C438.704 20.8324 438.557 21.603 438.262 22.2315C437.971 22.8565 437.573 23.3306 437.069 23.6538C436.568 23.9734 436.007 24.1332 435.386 24.1332C434.945 24.1332 434.571 24.0604 434.262 23.9148C433.956 23.7692 433.706 23.5863 433.511 23.3661C433.315 23.1424 433.166 22.9169 433.063 22.6896H432.994V27.0682H430.725ZM432.946 19.9091C432.946 20.3956 433.014 20.82 433.149 21.1822C433.283 21.5444 433.479 21.8267 433.734 22.0291C433.99 22.228 434.301 22.3274 434.667 22.3274C435.036 22.3274 435.348 22.2262 435.604 22.0238C435.86 21.8178 436.053 21.5337 436.185 21.1715C436.32 20.8058 436.387 20.3849 436.387 19.9091C436.387 19.4368 436.321 19.0213 436.19 18.6626C436.059 18.304 435.865 18.0234 435.609 17.821C435.354 17.6186 435.04 17.5174 434.667 17.5174C434.297 17.5174 433.985 17.6151 433.729 17.8104C433.477 18.0057 433.283 18.2827 433.149 18.6413C433.014 19 432.946 19.4226 432.946 19.9091ZM442.55 24.1545C442.028 24.1545 441.563 24.0639 441.155 23.8828C440.746 23.6982 440.423 23.4265 440.185 23.0678C439.951 22.7056 439.834 22.2546 439.834 21.7148C439.834 21.2603 439.917 20.8786 440.084 20.5696C440.251 20.2607 440.478 20.0121 440.766 19.8239C441.053 19.6357 441.38 19.4936 441.746 19.3977C442.115 19.3018 442.502 19.2344 442.907 19.1953C443.383 19.1456 443.766 19.0994 444.058 19.0568C444.349 19.0107 444.56 18.9432 444.691 18.8544C444.823 18.7656 444.889 18.6342 444.889 18.4602V18.4283C444.889 18.0909 444.782 17.8299 444.569 17.6452C444.359 17.4606 444.061 17.3683 443.674 17.3683C443.266 17.3683 442.941 17.4588 442.699 17.6399C442.458 17.8175 442.298 18.0412 442.22 18.3111L440.121 18.1406C440.228 17.6435 440.437 17.2138 440.75 16.8516C441.062 16.4858 441.465 16.2053 441.959 16.0099C442.456 15.8111 443.031 15.7116 443.685 15.7116C444.139 15.7116 444.574 15.7649 444.99 15.8714C445.409 15.978 445.78 16.1431 446.103 16.3668C446.43 16.5906 446.687 16.8782 446.875 17.2298C447.064 17.5778 447.158 17.995 447.158 18.4815V24H445.006V22.8654H444.942C444.81 23.1211 444.635 23.3466 444.415 23.5419C444.194 23.7337 443.93 23.8846 443.621 23.9947C443.312 24.1012 442.955 24.1545 442.55 24.1545ZM443.2 22.5884C443.534 22.5884 443.829 22.5227 444.084 22.3913C444.34 22.2564 444.541 22.0753 444.686 21.848C444.832 21.6207 444.905 21.3633 444.905 21.0756V20.2074C444.834 20.2536 444.736 20.2962 444.612 20.3352C444.491 20.3707 444.354 20.4045 444.201 20.4364C444.049 20.4648 443.896 20.4915 443.743 20.5163C443.591 20.5376 443.452 20.5572 443.328 20.5749C443.062 20.614 442.829 20.6761 442.63 20.7614C442.431 20.8466 442.277 20.962 442.167 21.1076C442.057 21.2496 442.002 21.4272 442.002 21.6403C442.002 21.9492 442.113 22.1854 442.337 22.3487C442.564 22.5085 442.852 22.5884 443.2 22.5884ZM455.72 12.8139L456.413 14.2947C456.182 14.4865 455.926 14.6286 455.646 14.7209C455.365 14.8097 455.03 14.8683 454.639 14.8967C454.252 14.9251 453.78 14.9446 453.222 14.9553C452.59 14.9624 452.075 15.0636 451.677 15.2589C451.28 15.4542 450.978 15.7614 450.772 16.1804C450.566 16.5959 450.431 17.1392 450.367 17.8104H450.447C450.692 17.3097 451.036 16.9226 451.48 16.6491C451.928 16.3757 452.48 16.239 453.137 16.239C453.833 16.239 454.442 16.3917 454.964 16.6971C455.49 17.0025 455.898 17.4411 456.189 18.0128C456.48 18.5845 456.626 19.2699 456.626 20.0689C456.626 20.8999 456.463 21.6225 456.136 22.2369C455.813 22.8477 455.353 23.3217 454.756 23.6591C454.16 23.9929 453.449 24.1598 452.626 24.1598C451.798 24.1598 451.084 23.9858 450.484 23.6378C449.888 23.2898 449.426 22.7766 449.099 22.0984C448.776 21.4201 448.615 20.5856 448.615 19.5948V18.9237C448.615 16.9528 448.998 15.4915 449.765 14.5398C450.532 13.5881 451.66 13.1051 453.148 13.0909C453.552 13.0838 453.918 13.082 454.245 13.0856C454.572 13.0891 454.858 13.0732 455.103 13.0376C455.351 13.0021 455.557 12.9276 455.72 12.8139ZM452.636 22.402C452.984 22.402 453.283 22.3114 453.531 22.1303C453.783 21.9492 453.977 21.69 454.112 21.3526C454.25 21.0153 454.32 20.6122 454.32 20.1435C454.32 19.6783 454.25 19.2841 454.112 18.9609C453.977 18.6342 453.783 18.3857 453.531 18.2152C453.279 18.0447 452.977 17.9595 452.626 17.9595C452.363 17.9595 452.127 18.0075 451.917 18.1033C451.708 18.1992 451.528 18.3413 451.379 18.5295C451.234 18.7141 451.12 18.9432 451.038 19.2166C450.96 19.4865 450.921 19.7955 450.921 20.1435C450.921 20.843 451.072 21.3952 451.374 21.8001C451.679 22.2013 452.1 22.402 452.636 22.402ZM461.829 24.1598C461.001 24.1598 460.286 23.984 459.682 23.6325C459.082 23.2773 458.619 22.7837 458.292 22.1516C457.965 21.516 457.802 20.7791 457.802 19.9411C457.802 19.0959 457.965 18.3572 458.292 17.7251C458.619 17.0895 459.082 16.5959 459.682 16.2443C460.286 15.8892 461.001 15.7116 461.829 15.7116C462.656 15.7116 463.37 15.8892 463.97 16.2443C464.574 16.5959 465.039 17.0895 465.366 17.7251C465.692 18.3572 465.856 19.0959 465.856 19.9411C465.856 20.7791 465.692 21.516 465.366 22.1516C465.039 22.7837 464.574 23.2773 463.97 23.6325C463.37 23.984 462.656 24.1598 461.829 24.1598ZM461.839 22.402C462.216 22.402 462.53 22.2955 462.782 22.0824C463.034 21.8658 463.224 21.571 463.352 21.1982C463.484 20.8253 463.549 20.4009 463.549 19.9251C463.549 19.4492 463.484 19.0249 463.352 18.652C463.224 18.2791 463.034 17.9844 462.782 17.7678C462.53 17.5511 462.216 17.4428 461.839 17.4428C461.46 17.4428 461.14 17.5511 460.881 17.7678C460.625 17.9844 460.431 18.2791 460.3 18.652C460.172 19.0249 460.108 19.4492 460.108 19.9251C460.108 20.4009 460.172 20.8253 460.3 21.1982C460.431 21.571 460.625 21.8658 460.881 22.0824C461.14 22.2955 461.46 22.402 461.839 22.402ZM466.539 17.6026V15.8182H473.954V17.6026H471.317V24H469.154V17.6026H466.539ZM477.369 24.1545C476.847 24.1545 476.382 24.0639 475.974 23.8828C475.566 23.6982 475.242 23.4265 475.004 23.0678C474.77 22.7056 474.653 22.2546 474.653 21.7148C474.653 21.2603 474.736 20.8786 474.903 20.5696C475.07 20.2607 475.297 20.0121 475.585 19.8239C475.873 19.6357 476.199 19.4936 476.565 19.3977C476.934 19.3018 477.322 19.2344 477.726 19.1953C478.202 19.1456 478.586 19.0994 478.877 19.0568C479.168 19.0107 479.379 18.9432 479.511 18.8544C479.642 18.7656 479.708 18.6342 479.708 18.4602V18.4283C479.708 18.0909 479.601 17.8299 479.388 17.6452C479.179 17.4606 478.881 17.3683 478.493 17.3683C478.085 17.3683 477.76 17.4588 477.519 17.6399C477.277 17.8175 477.117 18.0412 477.039 18.3111L474.941 18.1406C475.047 17.6435 475.257 17.2138 475.569 16.8516C475.882 16.4858 476.285 16.2053 476.778 16.0099C477.275 15.8111 477.851 15.7116 478.504 15.7116C478.959 15.7116 479.394 15.7649 479.809 15.8714C480.228 15.978 480.599 16.1431 480.922 16.3668C481.249 16.5906 481.507 16.8782 481.695 17.2298C481.883 17.5778 481.977 17.995 481.977 18.4815V24H479.825V22.8654H479.761C479.63 23.1211 479.454 23.3466 479.234 23.5419C479.014 23.7337 478.749 23.8846 478.44 23.9947C478.131 24.1012 477.774 24.1545 477.369 24.1545ZM478.019 22.5884C478.353 22.5884 478.648 22.5227 478.904 22.3913C479.159 22.2564 479.36 22.0753 479.506 21.848C479.651 21.6207 479.724 21.3633 479.724 21.0756V20.2074C479.653 20.2536 479.555 20.2962 479.431 20.3352C479.31 20.3707 479.173 20.4045 479.021 20.4364C478.868 20.4648 478.715 20.4915 478.563 20.5163C478.41 20.5376 478.271 20.5572 478.147 20.5749C477.881 20.614 477.648 20.6761 477.449 20.7614C477.251 20.8466 477.096 20.962 476.986 21.1076C476.876 21.2496 476.821 21.4272 476.821 21.6403C476.821 21.9492 476.933 22.1854 477.156 22.3487C477.384 22.5085 477.671 22.5884 478.019 22.5884ZM487.466 24.1598C486.625 24.1598 485.9 23.9893 485.293 23.6484C484.689 23.304 484.224 22.8175 483.897 22.1889C483.571 21.5568 483.407 20.8093 483.407 19.9464C483.407 19.1048 483.571 18.3661 483.897 17.7305C484.224 17.0948 484.684 16.5994 485.277 16.2443C485.874 15.8892 486.573 15.7116 487.376 15.7116C487.915 15.7116 488.418 15.7987 488.883 15.9727C489.352 16.1431 489.76 16.4006 490.108 16.745C490.46 17.0895 490.733 17.5227 490.929 18.0447C491.124 18.5632 491.222 19.1705 491.222 19.8665V20.4897H484.313V19.0835H489.086C489.086 18.7567 489.015 18.4673 488.873 18.2152C488.73 17.9631 488.533 17.766 488.281 17.6239C488.033 17.4783 487.743 17.4055 487.413 17.4055C487.069 17.4055 486.763 17.4854 486.497 17.6452C486.234 17.8015 486.028 18.0128 485.879 18.2791C485.73 18.5419 485.653 18.8349 485.65 19.158V20.495C485.65 20.8999 485.724 21.2496 485.874 21.5444C486.026 21.8391 486.241 22.0664 486.518 22.2262C486.795 22.386 487.124 22.4659 487.504 22.4659C487.756 22.4659 487.987 22.4304 488.196 22.3594C488.406 22.2884 488.585 22.1818 488.734 22.0398C488.883 21.8977 488.997 21.7237 489.075 21.5178L491.174 21.6562C491.067 22.1605 490.849 22.6009 490.518 22.9773C490.192 23.3501 489.769 23.6413 489.251 23.8509C488.736 24.0568 488.141 24.1598 487.466 24.1598ZM492.071 17.6026V15.8182H499.486V17.6026H496.849V24H494.687V17.6026H492.071Z" fill="#D6D0D0"/>
<path d="M205.359 62.4906C205.078 62.9658 205.235 63.5791 205.71 63.8605L213.455 68.4455C213.93 68.7269 214.543 68.5697 214.825 68.0945C215.106 67.6192 214.949 67.0059 214.474 66.7245L207.59 62.6489L211.665 55.7649C211.947 55.2897 211.789 54.6764 211.314 54.395C210.839 54.1136 210.226 54.2708 209.944 54.746L205.359 62.4906ZM303.532 37.0313L205.972 62.0313L206.468 63.9687L304.028 38.9687L303.532 37.0313Z" fill="#7E2A2B"/>
<rect y="63" width="200" height="38" rx="10" fill="#8988A0"/>
<path d="M3.62393 87V76.0909H5.9304V80.592H10.6126V76.0909H12.9137V87H10.6126V82.4936H5.9304V87H3.62393ZM17.1058 87.1545C16.5838 87.1545 16.1186 87.0639 15.7102 86.8828C15.3018 86.6982 14.9787 86.4265 14.7408 86.0678C14.5064 85.7056 14.3892 85.2546 14.3892 84.7148C14.3892 84.2603 14.4727 83.8786 14.6396 83.5696C14.8065 83.2607 15.0337 83.0121 15.3214 82.8239C15.609 82.6357 15.9357 82.4936 16.3015 82.3977C16.6708 82.3018 17.0579 82.2344 17.4627 82.1953C17.9386 82.1456 18.3221 82.0994 18.6133 82.0568C18.9045 82.0107 19.1158 81.9432 19.2472 81.8544C19.3786 81.7656 19.4442 81.6342 19.4442 81.4602V81.4283C19.4442 81.0909 19.3377 80.8299 19.1246 80.6452C18.9151 80.4606 18.6168 80.3683 18.2298 80.3683C17.8214 80.3683 17.4964 80.4588 17.255 80.6399C17.0135 80.8175 16.8537 81.0412 16.7756 81.3111L14.6768 81.1406C14.7834 80.6435 14.9929 80.2138 15.3054 79.8516C15.6179 79.4858 16.021 79.2053 16.5146 79.0099C17.0117 78.8111 17.587 78.7116 18.2404 78.7116C18.695 78.7116 19.13 78.7649 19.5455 78.8714C19.9645 78.978 20.3356 79.1431 20.6587 79.3668C20.9854 79.5906 21.2429 79.8782 21.4311 80.2298C21.6193 80.5778 21.7134 80.995 21.7134 81.4815V87H19.5614V85.8654H19.4975C19.3661 86.1211 19.1903 86.3466 18.9702 86.5419C18.75 86.7337 18.4854 86.8846 18.1765 86.9947C17.8675 87.1012 17.5107 87.1545 17.1058 87.1545ZM17.7557 85.5884C18.0895 85.5884 18.3842 85.5227 18.6399 85.3913C18.8956 85.2564 19.0962 85.0753 19.2418 84.848C19.3874 84.6207 19.4602 84.3633 19.4602 84.0756V83.2074C19.3892 83.2536 19.2915 83.2962 19.1673 83.3352C19.0465 83.3707 18.9098 83.4045 18.7571 83.4364C18.6044 83.4648 18.4517 83.4915 18.299 83.5163C18.1463 83.5376 18.0078 83.5572 17.8835 83.5749C17.6172 83.614 17.3846 83.6761 17.1857 83.7614C16.9869 83.8466 16.8324 83.962 16.7223 84.1076C16.6122 84.2496 16.5572 84.4272 16.5572 84.6403C16.5572 84.9492 16.669 85.1854 16.8928 85.3487C17.12 85.5085 17.4077 85.5884 17.7557 85.5884ZM25.6419 84.0064L28.5875 78.8182H30.8248V87H28.6621V81.7958L25.7271 87H23.4739V78.8182H25.6419V84.0064ZM28.1987 75.9631H29.7807C29.7772 76.6094 29.5375 77.1296 29.0616 77.5238C28.5893 77.918 27.9501 78.1151 27.144 78.1151C26.3343 78.1151 25.6934 77.918 25.2211 77.5238C24.7488 77.1296 24.5126 76.6094 24.5126 75.9631H26.084C26.0804 76.2081 26.1586 76.4283 26.3184 76.6236C26.4817 76.8189 26.7569 76.9165 27.144 76.9165C27.5204 76.9165 27.7903 76.8207 27.9537 76.6289C28.117 76.4371 28.1987 76.2152 28.1987 75.9631ZM31.8222 80.6026V78.8182H39.2369V80.6026H36.6002V87H34.4376V80.6026H31.8222ZM42.7805 84.0064L45.7262 78.8182H47.9634V87H45.8008V81.7958L42.8658 87H40.6126V78.8182H42.7805V84.0064ZM58.9484 82.0036V83.788H54.6764V82.0036H58.9484ZM55.4221 78.8182V87H53.2542V78.8182H55.4221ZM60.3706 78.8182V87H58.2187V78.8182H60.3706ZM63.2391 90.0682C62.9514 90.0682 62.6816 90.0451 62.4294 89.9989C62.1808 89.9563 61.9749 89.9013 61.8115 89.8338L62.3229 88.1399C62.5892 88.2216 62.8289 88.266 63.042 88.2731C63.2586 88.2802 63.445 88.2305 63.6013 88.1239C63.7611 88.0174 63.8907 87.8363 63.9901 87.5806L64.1233 87.2344L61.1883 78.8182H63.5747L65.2686 84.8267H65.3538L67.0637 78.8182H69.466L66.286 87.8842C66.1333 88.3246 65.9255 88.7081 65.6627 89.0348C65.4035 89.3651 65.075 89.619 64.6773 89.7965C64.2796 89.9776 63.8002 90.0682 63.2391 90.0682ZM70.0945 87L72.955 82.744L70.1105 78.8182H72.6993L74.8247 82.0195H75.1762V78.8182H77.4454V82.0195H77.7863L79.9117 78.8182H82.5004L79.6613 82.744L82.5164 87H79.8691L77.765 83.804H77.4454V87H75.1762V83.804H74.8566L72.7419 87H70.0945ZM89.4904 82.0036V83.788H85.2184V82.0036H89.4904ZM85.9641 78.8182V87H83.7962V78.8182H85.9641ZM90.9126 78.8182V87H88.7607V78.8182H90.9126ZM93.7811 90.0682C93.4934 90.0682 93.2235 90.0451 92.9714 89.9989C92.7228 89.9563 92.5169 89.9013 92.3535 89.8338L92.8649 88.1399C93.1312 88.2216 93.3709 88.266 93.584 88.2731C93.8006 88.2802 93.987 88.2305 94.1433 88.1239C94.3031 88.0174 94.4327 87.8363 94.5321 87.5806L94.6653 87.2344L91.7303 78.8182H94.1167L95.8105 84.8267H95.8958L97.6056 78.8182H100.008L96.8279 87.8842C96.6752 88.3246 96.4675 88.7081 96.2047 89.0348C95.9455 89.3651 95.617 89.619 95.2193 89.7965C94.8216 89.9776 94.3422 90.0682 93.7811 90.0682ZM105.692 82.0515V83.8519H101.254V82.0515H105.692ZM103.007 78.8182V87H100.743V78.8182H103.007ZM108.142 87.1598C107.332 87.1598 106.633 86.9787 106.043 86.6165C105.454 86.2543 104.999 85.7536 104.68 85.1143C104.363 84.4751 104.205 83.7418 104.205 82.9144C104.205 82.087 104.363 81.3572 104.68 80.7251C104.999 80.093 105.454 79.5994 106.043 79.2443C106.633 78.8892 107.332 78.7116 108.142 78.7116C108.955 78.7116 109.655 78.8892 110.241 79.2443C110.83 79.5994 111.283 80.093 111.599 80.7251C111.919 81.3572 112.078 82.087 112.078 82.9144C112.078 83.7418 111.919 84.4751 111.599 85.1143C111.283 85.7536 110.83 86.2543 110.241 86.6165C109.655 86.9787 108.955 87.1598 108.142 87.1598ZM108.142 85.3274C108.564 85.3274 108.905 85.2244 109.165 85.0185C109.424 84.8089 109.614 84.5231 109.735 84.1609C109.855 83.7951 109.916 83.3796 109.916 82.9144C109.916 82.4492 109.855 82.0373 109.735 81.6786C109.614 81.3164 109.424 81.0323 109.165 80.8263C108.905 80.6204 108.564 80.5174 108.142 80.5174C107.723 80.5174 107.382 80.6204 107.119 80.8263C106.856 81.0288 106.663 81.3093 106.539 81.668C106.418 82.0266 106.357 82.4421 106.357 82.9144C106.357 83.3832 106.418 83.7987 106.539 84.1609C106.663 84.5231 106.856 84.8089 107.119 85.0185C107.382 85.2244 107.723 85.3274 108.142 85.3274ZM117.092 87V78.8182H119.361V81.9929H120L122.227 78.8182H124.89L121.998 82.8771L124.922 87H122.227L120.208 84.0969H119.361V87H117.092ZM128.214 87.1545C127.692 87.1545 127.227 87.0639 126.819 86.8828C126.41 86.6982 126.087 86.4265 125.849 86.0678C125.615 85.7056 125.498 85.2546 125.498 84.7148C125.498 84.2603 125.581 83.8786 125.748 83.5696C125.915 83.2607 126.142 83.0121 126.43 82.8239C126.717 82.6357 127.044 82.4936 127.41 82.3977C127.779 82.3018 128.166 82.2344 128.571 82.1953C129.047 82.1456 129.43 82.0994 129.722 82.0568C130.013 82.0107 130.224 81.9432 130.356 81.8544C130.487 81.7656 130.553 81.6342 130.553 81.4602V81.4283C130.553 81.0909 130.446 80.8299 130.233 80.6452C130.024 80.4606 129.725 80.3683 129.338 80.3683C128.93 80.3683 128.605 80.4588 128.363 80.6399C128.122 80.8175 127.962 81.0412 127.884 81.3111L125.785 81.1406C125.892 80.6435 126.101 80.2138 126.414 79.8516C126.726 79.4858 127.129 79.2053 127.623 79.0099C128.12 78.8111 128.695 78.7116 129.349 78.7116C129.803 78.7116 130.238 78.7649 130.654 78.8714C131.073 78.978 131.444 79.1431 131.767 79.3668C132.094 79.5906 132.351 79.8782 132.54 80.2298C132.728 80.5778 132.822 80.995 132.822 81.4815V87H130.67V85.8654H130.606C130.475 86.1211 130.299 86.3466 130.079 86.5419C129.858 86.7337 129.594 86.8846 129.285 86.9947C128.976 87.1012 128.619 87.1545 128.214 87.1545ZM128.864 85.5884C129.198 85.5884 129.493 85.5227 129.748 85.3913C130.004 85.2564 130.205 85.0753 130.35 84.848C130.496 84.6207 130.569 84.3633 130.569 84.0756V83.2074C130.498 83.2536 130.4 83.2962 130.276 83.3352C130.155 83.3707 130.018 83.4045 129.866 83.4364C129.713 83.4648 129.56 83.4915 129.407 83.5163C129.255 83.5376 129.116 83.5572 128.992 83.5749C128.726 83.614 128.493 83.6761 128.294 83.7614C128.095 83.8466 127.941 83.962 127.831 84.1076C127.721 84.2496 127.666 84.4272 127.666 84.6403C127.666 84.9492 127.777 85.1854 128.001 85.3487C128.228 85.5085 128.516 85.5884 128.864 85.5884ZM133.761 80.6026V78.8182H141.175V80.6026H138.539V87H136.376V80.6026H133.761ZM145.987 87.1598C145.145 87.1598 144.421 86.9893 143.813 86.6484C143.21 86.304 142.745 85.8175 142.418 85.1889C142.091 84.5568 141.928 83.8093 141.928 82.9464C141.928 82.1048 142.091 81.3661 142.418 80.7305C142.745 80.0948 143.204 79.5994 143.797 79.2443C144.394 78.8892 145.094 78.7116 145.896 78.7116C146.436 78.7116 146.938 78.7987 147.404 78.9727C147.872 79.1431 148.281 79.4006 148.629 79.745C148.98 80.0895 149.254 80.5227 149.449 81.0447C149.644 81.5632 149.742 82.1705 149.742 82.8665V83.4897H142.833V82.0835H147.606C147.606 81.7567 147.535 81.4673 147.393 81.2152C147.251 80.9631 147.054 80.766 146.802 80.6239C146.553 80.4783 146.264 80.4055 145.934 80.4055C145.589 80.4055 145.284 80.4854 145.017 80.6452C144.755 80.8015 144.549 81.0128 144.399 81.2791C144.25 81.5419 144.174 81.8349 144.17 82.158V83.495C144.17 83.8999 144.245 84.2496 144.394 84.5444C144.547 84.8391 144.762 85.0664 145.039 85.2262C145.316 85.386 145.644 85.4659 146.024 85.4659C146.276 85.4659 146.507 85.4304 146.717 85.3594C146.926 85.2884 147.105 85.1818 147.255 85.0398C147.404 84.8977 147.517 84.7237 147.595 84.5178L149.694 84.6562C149.588 85.1605 149.369 85.6009 149.039 85.9773C148.712 86.3501 148.29 86.6413 147.771 86.8509C147.256 87.0568 146.661 87.1598 145.987 87.1598ZM156.827 78.8182V80.6026H153.428V87H151.223V78.8182H156.827ZM161.614 87.1598C160.787 87.1598 160.071 86.984 159.467 86.6325C158.867 86.2773 158.404 85.7837 158.077 85.1516C157.75 84.516 157.587 83.7791 157.587 82.9411C157.587 82.0959 157.75 81.3572 158.077 80.7251C158.404 80.0895 158.867 79.5959 159.467 79.2443C160.071 78.8892 160.787 78.7116 161.614 78.7116C162.441 78.7116 163.155 78.8892 163.755 79.2443C164.359 79.5959 164.824 80.0895 165.151 80.7251C165.478 81.3572 165.641 82.0959 165.641 82.9411C165.641 83.7791 165.478 84.516 165.151 85.1516C164.824 85.7837 164.359 86.2773 163.755 86.6325C163.155 86.984 162.441 87.1598 161.614 87.1598ZM161.625 85.402C162.001 85.402 162.315 85.2955 162.567 85.0824C162.82 84.8658 163.01 84.571 163.137 84.1982C163.269 83.8253 163.335 83.4009 163.335 82.9251C163.335 82.4492 163.269 82.0249 163.137 81.652C163.01 81.2791 162.82 80.9844 162.567 80.7678C162.315 80.5511 162.001 80.4428 161.625 80.4428C161.245 80.4428 160.925 80.5511 160.666 80.7678C160.41 80.9844 160.217 81.2791 160.085 81.652C159.957 82.0249 159.893 82.4492 159.893 82.9251C159.893 83.4009 159.957 83.8253 160.085 84.1982C160.217 84.571 160.41 84.8658 160.666 85.0824C160.925 85.2955 161.245 85.402 161.625 85.402ZM167.116 90.0682V78.8182H169.354V80.1925H169.455C169.554 79.9723 169.698 79.7486 169.886 79.5213C170.078 79.2905 170.327 79.0987 170.632 78.946C170.941 78.7898 171.325 78.7116 171.783 78.7116C172.379 78.7116 172.93 78.8679 173.434 79.1804C173.938 79.4893 174.341 79.9563 174.643 80.5813C174.945 81.2028 175.096 81.9822 175.096 82.9197C175.096 83.8324 174.949 84.603 174.654 85.2315C174.363 85.8565 173.965 86.3306 173.461 86.6538C172.96 86.9734 172.399 87.1332 171.777 87.1332C171.337 87.1332 170.962 87.0604 170.653 86.9148C170.348 86.7692 170.098 86.5863 169.902 86.3661C169.707 86.1424 169.558 85.9169 169.455 85.6896H169.386V90.0682H167.116ZM169.338 82.9091C169.338 83.3956 169.405 83.82 169.54 84.1822C169.675 84.5444 169.87 84.8267 170.126 85.0291C170.382 85.228 170.692 85.3274 171.058 85.3274C171.428 85.3274 171.74 85.2262 171.996 85.0238C172.251 84.8178 172.445 84.5337 172.576 84.1715C172.711 83.8058 172.779 83.3849 172.779 82.9091C172.779 82.4368 172.713 82.0213 172.582 81.6626C172.45 81.304 172.257 81.0234 172.001 80.821C171.745 80.6186 171.431 80.5174 171.058 80.5174C170.689 80.5174 170.376 80.6151 170.121 80.8104C169.869 81.0057 169.675 81.2827 169.54 81.6413C169.405 82 169.338 82.4226 169.338 82.9091ZM178.777 84.0064L181.722 78.8182H183.96V87H181.797V81.7958L178.862 87H176.609V78.8182H178.777V84.0064ZM190.301 82.0515V83.8519H185.864V82.0515H190.301ZM187.616 78.8182V87H185.352V78.8182H187.616ZM192.751 87.1598C191.942 87.1598 191.242 86.9787 190.653 86.6165C190.063 86.2543 189.608 85.7536 189.289 85.1143C188.973 84.4751 188.815 83.7418 188.815 82.9144C188.815 82.087 188.973 81.3572 189.289 80.7251C189.608 80.093 190.063 79.5994 190.653 79.2443C191.242 78.8892 191.942 78.7116 192.751 78.7116C193.564 78.7116 194.264 78.8892 194.85 79.2443C195.439 79.5994 195.892 80.093 196.208 80.7251C196.528 81.3572 196.688 82.087 196.688 82.9144C196.688 83.7418 196.528 84.4751 196.208 85.1143C195.892 85.7536 195.439 86.2543 194.85 86.6165C194.264 86.9787 193.564 87.1598 192.751 87.1598ZM192.751 85.3274C193.174 85.3274 193.515 85.2244 193.774 85.0185C194.033 84.8089 194.223 84.5231 194.344 84.1609C194.465 83.7951 194.525 83.3796 194.525 82.9144C194.525 82.4492 194.465 82.0373 194.344 81.6786C194.223 81.3164 194.033 81.0323 193.774 80.8263C193.515 80.6204 193.174 80.5174 192.751 80.5174C192.332 80.5174 191.991 80.6204 191.729 80.8263C191.466 81.0288 191.272 81.3093 191.148 81.668C191.027 82.0266 190.967 82.4421 190.967 82.9144C190.967 83.3832 191.027 83.7987 191.148 84.1609C191.272 84.5231 191.466 84.8089 191.729 85.0185C191.991 85.2244 192.332 85.3274 192.751 85.3274Z" fill="#D6D0D0"/>
<path d="M310.707 82.7071C311.098 82.3166 311.098 81.6834 310.707 81.2929L304.343 74.9289C303.953 74.5384 303.319 74.5384 302.929 74.9289C302.538 75.3195 302.538 75.9526 302.929 76.3431L308.586 82L302.929 87.6569C302.538 88.0474 302.538 88.6805 302.929 89.0711C303.319 89.4616 303.953 89.4616 304.343 89.0711L310.707 82.7071ZM200 83L310 83V81L200 81V83Z" fill="#7E2A2B"/>
<rect x="310" y="63" width="200" height="38" rx="10" fill="#8988A0"/>
<path d="M353.966 87V76.0909H358.334C359.136 76.0909 359.806 76.2099 360.342 76.4478C360.878 76.6857 361.281 77.016 361.551 77.4386C361.821 77.8576 361.956 78.3406 361.956 78.8874C361.956 79.3136 361.871 79.6882 361.7 80.0114C361.53 80.331 361.295 80.5937 360.997 80.7997C360.702 81.0021 360.365 81.146 359.985 81.2312V81.3377C360.4 81.3555 360.789 81.4727 361.151 81.6893C361.517 81.9059 361.814 82.2095 362.041 82.6001C362.268 82.9872 362.382 83.4489 362.382 83.9851C362.382 84.5639 362.238 85.0806 361.95 85.5352C361.666 85.9862 361.246 86.343 360.688 86.6058C360.131 86.8686 359.443 87 358.627 87H353.966ZM356.272 85.1143H358.153C358.795 85.1143 359.264 84.9918 359.559 84.7468C359.854 84.4982 360.001 84.168 360.001 83.756C360.001 83.4542 359.928 83.1879 359.782 82.957C359.637 82.7262 359.429 82.5451 359.159 82.4137C358.893 82.2823 358.575 82.2166 358.206 82.2166H356.272V85.1143ZM356.272 80.6559H357.982C358.298 80.6559 358.579 80.6009 358.824 80.4908C359.072 80.3771 359.268 80.2173 359.41 80.0114C359.555 79.8054 359.628 79.5586 359.628 79.271C359.628 78.8768 359.488 78.5589 359.207 78.3175C358.93 78.076 358.536 77.9553 358.025 77.9553H356.272V80.6559ZM365.262 81.3324H367.707C368.79 81.3324 369.636 81.5916 370.243 82.1101C370.85 82.625 371.154 83.3139 371.154 84.1768C371.154 84.7379 371.017 85.2315 370.744 85.6577C370.47 86.0803 370.076 86.4105 369.561 86.6484C369.046 86.8828 368.428 87 367.707 87H363.84V78.8182H366.008V85.2156H367.707C368.087 85.2156 368.4 85.1197 368.645 84.9279C368.89 84.7362 369.014 84.4911 369.018 84.1928C369.014 83.8768 368.89 83.6193 368.645 83.4205C368.4 83.218 368.087 83.1168 367.707 83.1168H365.262V81.3324ZM372.033 87V78.8182H374.302V87H372.033ZM382.918 75.8139L383.61 77.2947C383.379 77.4865 383.124 77.6286 382.843 77.7209C382.563 77.8097 382.227 77.8683 381.836 77.8967C381.449 77.9251 380.977 77.9446 380.419 77.9553C379.787 77.9624 379.272 78.0636 378.875 78.2589C378.477 78.4542 378.175 78.7614 377.969 79.1804C377.763 79.5959 377.628 80.1392 377.564 80.8104H377.644C377.889 80.3097 378.234 79.9226 378.678 79.6491C379.125 79.3757 379.677 79.239 380.334 79.239C381.03 79.239 381.639 79.3917 382.161 79.6971C382.687 80.0025 383.095 80.4411 383.386 81.0128C383.678 81.5845 383.823 82.2699 383.823 83.0689C383.823 83.8999 383.66 84.6225 383.333 85.2369C383.01 85.8477 382.55 86.3217 381.954 86.6591C381.357 86.9929 380.647 87.1598 379.823 87.1598C378.995 87.1598 378.282 86.9858 377.682 86.6378C377.085 86.2898 376.623 85.7766 376.297 85.0984C375.973 84.4201 375.812 83.5856 375.812 82.5948V81.9237C375.812 79.9528 376.195 78.4915 376.962 77.5398C377.729 76.5881 378.857 76.1051 380.345 76.0909C380.75 76.0838 381.116 76.082 381.442 76.0856C381.769 76.0891 382.055 76.0732 382.3 76.0376C382.548 76.0021 382.754 75.9276 382.918 75.8139ZM379.834 85.402C380.182 85.402 380.48 85.3114 380.728 85.1303C380.981 84.9492 381.174 84.69 381.309 84.3526C381.448 84.0153 381.517 83.6122 381.517 83.1435C381.517 82.6783 381.448 82.2841 381.309 81.9609C381.174 81.6342 380.981 81.3857 380.728 81.2152C380.476 81.0447 380.174 80.9595 379.823 80.9595C379.56 80.9595 379.324 81.0075 379.114 81.1033C378.905 81.1992 378.726 81.3413 378.576 81.5295C378.431 81.7141 378.317 81.9432 378.236 82.2166C378.157 82.4865 378.118 82.7955 378.118 83.1435C378.118 83.843 378.269 84.3952 378.571 84.8001C378.877 85.2013 379.297 85.402 379.834 85.402ZM385.329 90.0682V78.8182H387.567V80.1925H387.668C387.767 79.9723 387.911 79.7486 388.099 79.5213C388.291 79.2905 388.54 79.0987 388.845 78.946C389.154 78.7898 389.537 78.7116 389.996 78.7116C390.592 78.7116 391.143 78.8679 391.647 79.1804C392.151 79.4893 392.554 79.9563 392.856 80.5813C393.158 81.2028 393.309 81.9822 393.309 82.9197C393.309 83.8324 393.161 84.603 392.867 85.2315C392.575 85.8565 392.178 86.3306 391.673 86.6538C391.173 86.9734 390.612 87.1332 389.99 87.1332C389.55 87.1332 389.175 87.0604 388.866 86.9148C388.561 86.7692 388.311 86.5863 388.115 86.3661C387.92 86.1424 387.771 85.9169 387.668 85.6896H387.599V90.0682H385.329ZM387.551 82.9091C387.551 83.3956 387.618 83.82 387.753 84.1822C387.888 84.5444 388.083 84.8267 388.339 85.0291C388.595 85.228 388.905 85.3274 389.271 85.3274C389.64 85.3274 389.953 85.2262 390.209 85.0238C390.464 84.8178 390.658 84.5337 390.789 84.1715C390.924 83.8058 390.992 83.3849 390.992 82.9091C390.992 82.4368 390.926 82.0213 390.795 81.6626C390.663 81.304 390.47 81.0234 390.214 80.821C389.958 80.6186 389.644 80.5174 389.271 80.5174C388.902 80.5174 388.589 80.6151 388.334 80.8104C388.081 81.0057 387.888 81.2827 387.753 81.6413C387.618 82 387.551 82.4226 387.551 82.9091ZM397.155 87.1545C396.633 87.1545 396.167 87.0639 395.759 86.8828C395.351 86.6982 395.028 86.4265 394.79 86.0678C394.555 85.7056 394.438 85.2546 394.438 84.7148C394.438 84.2603 394.521 83.8786 394.688 83.5696C394.855 83.2607 395.083 83.0121 395.37 82.8239C395.658 82.6357 395.985 82.4936 396.35 82.3977C396.72 82.3018 397.107 82.2344 397.512 82.1953C397.987 82.1456 398.371 82.0994 398.662 82.0568C398.953 82.0107 399.165 81.9432 399.296 81.8544C399.427 81.7656 399.493 81.6342 399.493 81.4602V81.4283C399.493 81.0909 399.387 80.8299 399.173 80.6452C398.964 80.4606 398.666 80.3683 398.279 80.3683C397.87 80.3683 397.545 80.4588 397.304 80.6399C397.062 80.8175 396.903 81.0412 396.824 81.3111L394.726 81.1406C394.832 80.6435 395.042 80.2138 395.354 79.8516C395.667 79.4858 396.07 79.2053 396.563 79.0099C397.061 78.8111 397.636 78.7116 398.289 78.7116C398.744 78.7116 399.179 78.7649 399.594 78.8714C400.013 78.978 400.384 79.1431 400.708 79.3668C401.034 79.5906 401.292 79.8782 401.48 80.2298C401.668 80.5778 401.762 80.995 401.762 81.4815V87H399.61V85.8654H399.546C399.415 86.1211 399.239 86.3466 399.019 86.5419C398.799 86.7337 398.534 86.8846 398.225 86.9947C397.916 87.1012 397.559 87.1545 397.155 87.1545ZM397.805 85.5884C398.138 85.5884 398.433 85.5227 398.689 85.3913C398.944 85.2564 399.145 85.0753 399.291 84.848C399.436 84.6207 399.509 84.3633 399.509 84.0756V83.2074C399.438 83.2536 399.34 83.2962 399.216 83.3352C399.095 83.3707 398.959 83.4045 398.806 83.4364C398.653 83.4648 398.501 83.4915 398.348 83.5163C398.195 83.5376 398.057 83.5572 397.932 83.5749C397.666 83.614 397.433 83.6761 397.235 83.7614C397.036 83.8466 396.881 83.962 396.771 84.1076C396.661 84.2496 396.606 84.4272 396.606 84.6403C396.606 84.9492 396.718 85.1854 396.942 85.3487C397.169 85.5085 397.456 85.5884 397.805 85.5884ZM402.701 80.6026V78.8182H410.116V80.6026H407.479V87H405.316V80.6026H402.701ZM412.914 81.3324H415.359C416.442 81.3324 417.287 81.5916 417.894 82.1101C418.501 82.625 418.805 83.3139 418.805 84.1768C418.805 84.7379 418.668 85.2315 418.395 85.6577C418.121 86.0803 417.727 86.4105 417.212 86.6484C416.697 86.8828 416.08 87 415.359 87H411.491V78.8182H413.659V85.2156H415.359C415.739 85.2156 416.051 85.1197 416.296 84.9279C416.541 84.7362 416.665 84.4911 416.669 84.1928C416.665 83.8768 416.541 83.6193 416.296 83.4205C416.051 83.218 415.739 83.1168 415.359 83.1168H412.914V81.3324ZM423.355 80.6026V78.8182H430.77V80.6026H428.133V87H425.971V80.6026H423.355ZM435.55 87.1598C434.722 87.1598 434.007 86.984 433.403 86.6325C432.803 86.2773 432.339 85.7837 432.013 85.1516C431.686 84.516 431.523 83.7791 431.523 82.9411C431.523 82.0959 431.686 81.3572 432.013 80.7251C432.339 80.0895 432.803 79.5959 433.403 79.2443C434.007 78.8892 434.722 78.7116 435.55 78.7116C436.377 78.7116 437.091 78.8892 437.691 79.2443C438.295 79.5959 438.76 80.0895 439.086 80.7251C439.413 81.3572 439.577 82.0959 439.577 82.9411C439.577 83.7791 439.413 84.516 439.086 85.1516C438.76 85.7837 438.295 86.2773 437.691 86.6325C437.091 86.984 436.377 87.1598 435.55 87.1598ZM435.56 85.402C435.937 85.402 436.251 85.2955 436.503 85.0824C436.755 84.8658 436.945 84.571 437.073 84.1982C437.204 83.8253 437.27 83.4009 437.27 82.9251C437.27 82.4492 437.204 82.0249 437.073 81.652C436.945 81.2791 436.755 80.9844 436.503 80.7678C436.251 80.5511 435.937 80.4428 435.56 80.4428C435.18 80.4428 434.861 80.5511 434.601 80.7678C434.346 80.9844 434.152 81.2791 434.021 81.652C433.893 82.0249 433.829 82.4492 433.829 82.9251C433.829 83.4009 433.893 83.8253 434.021 84.1982C434.152 84.571 434.346 84.8658 434.601 85.0824C434.861 85.2955 435.18 85.402 435.56 85.402ZM441.052 87V78.8182H444.541C445.55 78.8182 446.347 79.0099 446.933 79.3935C447.519 79.777 447.812 80.3221 447.812 81.0288C447.812 81.4727 447.646 81.842 447.316 82.1367C446.986 82.4315 446.528 82.6303 445.942 82.7333C446.432 82.7688 446.849 82.8807 447.194 83.0689C447.542 83.2536 447.806 83.4933 447.987 83.788C448.172 84.0827 448.264 84.4094 448.264 84.7681C448.264 85.2333 448.14 85.6328 447.892 85.9666C447.646 86.3004 447.286 86.5561 446.81 86.7337C446.338 86.9112 445.761 87 445.079 87H441.052ZM443.167 85.3008H445.079C445.395 85.3008 445.642 85.2262 445.819 85.0771C446.001 84.9244 446.091 84.7166 446.091 84.4538C446.091 84.1626 446.001 83.9336 445.819 83.7667C445.642 83.5998 445.395 83.5163 445.079 83.5163H443.167V85.3008ZM443.167 82.1847H444.589C444.816 82.1847 445.01 82.1527 445.17 82.0888C445.333 82.0213 445.457 81.9254 445.542 81.8011C445.631 81.6768 445.676 81.5295 445.676 81.359C445.676 81.1069 445.574 80.9098 445.372 80.7678C445.17 80.6257 444.893 80.5547 444.541 80.5547H443.167V82.1847ZM452.028 87.1545C451.506 87.1545 451.04 87.0639 450.632 86.8828C450.224 86.6982 449.901 86.4265 449.663 86.0678C449.428 85.7056 449.311 85.2546 449.311 84.7148C449.311 84.2603 449.395 83.8786 449.561 83.5696C449.728 83.2607 449.956 83.0121 450.243 82.8239C450.531 82.6357 450.858 82.4936 451.223 82.3977C451.593 82.3018 451.98 82.2344 452.385 82.1953C452.86 82.1456 453.244 82.0994 453.535 82.0568C453.826 82.0107 454.038 81.9432 454.169 81.8544C454.3 81.7656 454.366 81.6342 454.366 81.4602V81.4283C454.366 81.0909 454.26 80.8299 454.047 80.6452C453.837 80.4606 453.539 80.3683 453.152 80.3683C452.743 80.3683 452.418 80.4588 452.177 80.6399C451.935 80.8175 451.776 81.0412 451.697 81.3111L449.599 81.1406C449.705 80.6435 449.915 80.2138 450.227 79.8516C450.54 79.4858 450.943 79.2053 451.436 79.0099C451.934 78.8111 452.509 78.7116 453.162 78.7116C453.617 78.7116 454.052 78.7649 454.467 78.8714C454.886 78.978 455.257 79.1431 455.581 79.3668C455.907 79.5906 456.165 79.8782 456.353 80.2298C456.541 80.5778 456.635 80.995 456.635 81.4815V87H454.483V85.8654H454.419C454.288 86.1211 454.112 86.3466 453.892 86.5419C453.672 86.7337 453.407 86.8846 453.098 86.9947C452.789 87.1012 452.433 87.1545 452.028 87.1545ZM452.678 85.5884C453.011 85.5884 453.306 85.5227 453.562 85.3913C453.817 85.2564 454.018 85.0753 454.164 84.848C454.309 84.6207 454.382 84.3633 454.382 84.0756V83.2074C454.311 83.2536 454.213 83.2962 454.089 83.3352C453.968 83.3707 453.832 83.4045 453.679 83.4364C453.526 83.4648 453.374 83.4915 453.221 83.5163C453.068 83.5376 452.93 83.5572 452.805 83.5749C452.539 83.614 452.306 83.6761 452.108 83.7614C451.909 83.8466 451.754 83.962 451.644 84.1076C451.534 84.2496 451.479 84.4272 451.479 84.6403C451.479 84.9492 451.591 85.1854 451.815 85.3487C452.042 85.5085 452.33 85.5884 452.678 85.5884ZM458.396 90.0682V78.8182H460.633V80.1925H460.734C460.834 79.9723 460.977 79.7486 461.166 79.5213C461.357 79.2905 461.606 79.0987 461.911 78.946C462.22 78.7898 462.604 78.7116 463.062 78.7116C463.659 78.7116 464.209 78.8679 464.713 79.1804C465.218 79.4893 465.621 79.9563 465.922 80.5813C466.224 81.2028 466.375 81.9822 466.375 82.9197C466.375 83.8324 466.228 84.603 465.933 85.2315C465.642 85.8565 465.244 86.3306 464.74 86.6538C464.239 86.9734 463.678 87.1332 463.057 87.1332C462.616 87.1332 462.242 87.0604 461.933 86.9148C461.627 86.7692 461.377 86.5863 461.182 86.3661C460.986 86.1424 460.837 85.9169 460.734 85.6896H460.665V90.0682H458.396ZM460.617 82.9091C460.617 83.3956 460.684 83.82 460.819 84.1822C460.954 84.5444 461.15 84.8267 461.405 85.0291C461.661 85.228 461.972 85.3274 462.338 85.3274C462.707 85.3274 463.019 85.2262 463.275 85.0238C463.531 84.8178 463.724 84.5337 463.856 84.1715C463.991 83.8058 464.058 83.3849 464.058 82.9091C464.058 82.4368 463.992 82.0213 463.861 81.6626C463.73 81.304 463.536 81.0234 463.28 80.821C463.025 80.6186 462.71 80.5174 462.338 80.5174C461.968 80.5174 461.656 80.6151 461.4 80.8104C461.148 81.0057 460.954 81.2827 460.819 81.6413C460.684 82 460.617 82.4226 460.617 82.9091Z" fill="#D6D0D0"/>
<path d="M262.022 131.79C261.906 132.33 262.25 132.861 262.79 132.978L271.588 134.871C272.128 134.987 272.66 134.644 272.776 134.104C272.892 133.564 272.549 133.032 272.009 132.916L264.188 131.233L265.871 123.412C265.987 122.872 265.644 122.34 265.104 122.224C264.564 122.108 264.032 122.451 263.916 122.991L262.022 131.79ZM310.457 100.16L262.457 131.16L263.543 132.84L311.543 101.84L310.457 100.16Z" fill="#7E2A2B"/>
<rect x="60" y="126" width="200" height="55" rx="10" fill="#7E2A2B"/>
<path d="M140.683 158.5L137.178 153.85H136.389V158.5H134.083V147.591H136.389V151.948H136.853L140.475 147.591H143.346L139.09 152.651L143.543 158.5H140.683ZM145.461 161.568C145.173 161.568 144.903 161.545 144.651 161.499C144.403 161.456 144.197 161.401 144.033 161.334L144.545 159.64C144.811 159.722 145.051 159.766 145.264 159.773C145.48 159.78 145.667 159.73 145.823 159.624C145.983 159.517 146.112 159.336 146.212 159.081L146.345 158.734L143.41 150.318H145.796L147.49 156.327H147.575L149.285 150.318H151.688L148.508 159.384C148.355 159.825 148.147 160.208 147.884 160.535C147.625 160.865 147.297 161.119 146.899 161.297C146.501 161.478 146.022 161.568 145.461 161.568ZM152.849 158.5V150.318H160.003V158.5H157.835V152.103H154.99V158.5H152.849ZM163.982 155.506L166.927 150.318H169.165V158.5H167.002V153.296L164.067 158.5H161.814V150.318H163.982V155.506ZM170.162 152.103V150.318H177.577V152.103H174.94V158.5H172.777V152.103H170.162ZM180.375 152.832H182.82C183.903 152.832 184.748 153.092 185.355 153.61C185.962 154.125 186.266 154.814 186.266 155.677C186.266 156.238 186.129 156.732 185.856 157.158C185.582 157.58 185.188 157.911 184.673 158.148C184.158 158.383 183.54 158.5 182.82 158.5H178.952V150.318H181.12V156.716H182.82C183.2 156.716 183.512 156.62 183.757 156.428C184.002 156.236 184.126 155.991 184.13 155.693C184.126 155.377 184.002 155.119 183.757 154.92C183.512 154.718 183.2 154.617 182.82 154.617H180.375V152.832Z" fill="#D6D0D0"/>
<path d="M310.714 153.95C311.101 153.556 311.094 152.922 310.7 152.536L304.273 146.236C303.878 145.849 303.245 145.856 302.859 146.25C302.472 146.644 302.478 147.278 302.873 147.664L308.586 153.264L302.986 158.977C302.599 159.372 302.606 160.005 303 160.391C303.394 160.778 304.028 160.772 304.414 160.377L310.714 153.95ZM260.01 154.75L310.01 154.25L309.99 152.25L259.99 152.75L260.01 154.75Z" fill="#7E2A2B"/>
<rect x="310" y="134.5" width="200" height="38" rx="10" fill="#8988A0"/>
<path d="M360.343 153.045C360.343 154.235 360.118 155.247 359.667 156.082C359.219 156.916 358.608 157.554 357.834 157.994C357.064 158.431 356.197 158.649 355.235 158.649C354.265 158.649 353.395 158.429 352.625 157.989C351.854 157.548 351.245 156.911 350.798 156.076C350.35 155.242 350.127 154.232 350.127 153.045C350.127 151.856 350.35 150.844 350.798 150.009C351.245 149.175 351.854 148.539 352.625 148.102C353.395 147.662 354.265 147.442 355.235 147.442C356.197 147.442 357.064 147.662 357.834 148.102C358.608 148.539 359.219 149.175 359.667 150.009C360.118 150.844 360.343 151.856 360.343 153.045ZM358.005 153.045C358.005 152.275 357.889 151.625 357.658 151.096C357.431 150.567 357.11 150.165 356.694 149.892C356.279 149.619 355.792 149.482 355.235 149.482C354.677 149.482 354.191 149.619 353.775 149.892C353.36 150.165 353.037 150.567 352.806 151.096C352.579 151.625 352.465 152.275 352.465 153.045C352.465 153.816 352.579 154.466 352.806 154.995C353.037 155.524 353.36 155.925 353.775 156.199C354.191 156.472 354.677 156.609 355.235 156.609C355.792 156.609 356.279 156.472 356.694 156.199C357.11 155.925 357.431 155.524 357.658 154.995C357.889 154.466 358.005 153.816 358.005 153.045ZM365.706 158.66C364.868 158.66 364.147 158.482 363.543 158.127C362.943 157.768 362.481 157.271 362.158 156.636C361.839 156 361.679 155.268 361.679 154.441C361.679 153.603 361.84 152.868 362.164 152.236C362.49 151.6 362.954 151.105 363.554 150.75C364.154 150.391 364.868 150.212 365.695 150.212C366.409 150.212 367.034 150.341 367.57 150.6C368.106 150.86 368.531 151.224 368.843 151.692C369.156 152.161 369.328 152.712 369.36 153.344H367.219C367.158 152.935 366.998 152.607 366.739 152.358C366.483 152.106 366.148 151.98 365.732 151.98C365.381 151.98 365.074 152.076 364.811 152.268C364.552 152.456 364.349 152.731 364.204 153.093C364.058 153.456 363.985 153.894 363.985 154.409C363.985 154.931 364.056 155.375 364.198 155.741C364.344 156.107 364.548 156.385 364.811 156.577C365.074 156.769 365.381 156.865 365.732 156.865C365.992 156.865 366.224 156.811 366.43 156.705C366.64 156.598 366.812 156.444 366.947 156.241C367.085 156.036 367.176 155.789 367.219 155.501H369.36C369.324 156.126 369.154 156.676 368.849 157.152C368.547 157.625 368.129 157.994 367.597 158.26C367.064 158.527 366.434 158.66 365.706 158.66ZM370.255 152.103V150.318H377.67V152.103H375.033V158.5H372.87V152.103H370.255ZM381.085 158.654C380.563 158.654 380.098 158.564 379.69 158.383C379.281 158.198 378.958 157.926 378.72 157.568C378.486 157.206 378.369 156.755 378.369 156.215C378.369 155.76 378.452 155.379 378.619 155.07C378.786 154.761 379.013 154.512 379.301 154.324C379.589 154.136 379.915 153.994 380.281 153.898C380.65 153.802 381.037 153.734 381.442 153.695C381.918 153.646 382.302 153.599 382.593 153.557C382.884 153.511 383.095 153.443 383.227 153.354C383.358 153.266 383.424 153.134 383.424 152.96V152.928C383.424 152.591 383.317 152.33 383.104 152.145C382.895 151.961 382.596 151.868 382.209 151.868C381.801 151.868 381.476 151.959 381.234 152.14C380.993 152.317 380.833 152.541 380.755 152.811L378.656 152.641C378.763 152.143 378.972 151.714 379.285 151.352C379.597 150.986 380 150.705 380.494 150.51C380.991 150.311 381.566 150.212 382.22 150.212C382.674 150.212 383.109 150.265 383.525 150.371C383.944 150.478 384.315 150.643 384.638 150.867C384.965 151.091 385.222 151.378 385.411 151.73C385.599 152.078 385.693 152.495 385.693 152.982V158.5H383.541V157.365H383.477C383.346 157.621 383.17 157.847 382.95 158.042C382.729 158.234 382.465 158.385 382.156 158.495C381.847 158.601 381.49 158.654 381.085 158.654ZM381.735 157.088C382.069 157.088 382.364 157.023 382.619 156.891C382.875 156.756 383.076 156.575 383.221 156.348C383.367 156.121 383.44 155.863 383.44 155.576V154.707C383.369 154.754 383.271 154.796 383.147 154.835C383.026 154.871 382.889 154.904 382.737 154.936C382.584 154.965 382.431 154.991 382.278 155.016C382.126 155.038 381.987 155.057 381.863 155.075C381.597 155.114 381.364 155.176 381.165 155.261C380.966 155.347 380.812 155.462 380.702 155.608C380.592 155.75 380.537 155.927 380.537 156.14C380.537 156.449 380.649 156.685 380.872 156.849C381.1 157.009 381.387 157.088 381.735 157.088ZM387.453 158.5V150.318H390.942C391.951 150.318 392.748 150.51 393.334 150.893C393.92 151.277 394.213 151.822 394.213 152.529C394.213 152.973 394.048 153.342 393.718 153.637C393.387 153.931 392.929 154.13 392.343 154.233C392.833 154.269 393.251 154.381 393.595 154.569C393.943 154.754 394.208 154.993 394.389 155.288C394.573 155.583 394.666 155.909 394.666 156.268C394.666 156.733 394.541 157.133 394.293 157.467C394.048 157.8 393.687 158.056 393.212 158.234C392.739 158.411 392.162 158.5 391.48 158.5H387.453ZM389.568 156.801H391.48C391.796 156.801 392.043 156.726 392.221 156.577C392.402 156.424 392.492 156.217 392.492 155.954C392.492 155.663 392.402 155.434 392.221 155.267C392.043 155.1 391.796 155.016 391.48 155.016H389.568V156.801ZM389.568 153.685H390.99C391.218 153.685 391.411 153.653 391.571 153.589C391.734 153.521 391.859 153.425 391.944 153.301C392.033 153.177 392.077 153.029 392.077 152.859C392.077 152.607 391.976 152.41 391.773 152.268C391.571 152.126 391.294 152.055 390.942 152.055H389.568V153.685ZM398.264 155.506L401.21 150.318H403.447V158.5H401.284V153.296L398.349 158.5H396.096V150.318H398.264V155.506ZM404.444 152.103V150.318H411.859V152.103H409.222V158.5H407.06V152.103H404.444ZM414.657 152.832H417.102C418.185 152.832 419.03 153.092 419.637 153.61C420.245 154.125 420.548 154.814 420.548 155.677C420.548 156.238 420.411 156.732 420.138 157.158C419.865 157.58 419.47 157.911 418.956 158.148C418.441 158.383 417.823 158.5 417.102 158.5H413.235V150.318H415.403V156.716H417.102C417.482 156.716 417.794 156.62 418.039 156.428C418.284 156.236 418.409 155.991 418.412 155.693C418.409 155.377 418.284 155.119 418.039 154.92C417.794 154.718 417.482 154.617 417.102 154.617H414.657V152.832ZM429.221 158.66C428.394 158.66 427.678 158.484 427.075 158.132C426.475 157.777 426.011 157.284 425.684 156.652C425.358 156.016 425.194 155.279 425.194 154.441C425.194 153.596 425.358 152.857 425.684 152.225C426.011 151.589 426.475 151.096 427.075 150.744C427.678 150.389 428.394 150.212 429.221 150.212C430.049 150.212 430.763 150.389 431.363 150.744C431.966 151.096 432.432 151.589 432.758 152.225C433.085 152.857 433.248 153.596 433.248 154.441C433.248 155.279 433.085 156.016 432.758 156.652C432.432 157.284 431.966 157.777 431.363 158.132C430.763 158.484 430.049 158.66 429.221 158.66ZM429.232 156.902C429.608 156.902 429.923 156.795 430.175 156.582C430.427 156.366 430.617 156.071 430.745 155.698C430.876 155.325 430.942 154.901 430.942 154.425C430.942 153.949 430.876 153.525 430.745 153.152C430.617 152.779 430.427 152.484 430.175 152.268C429.923 152.051 429.608 151.943 429.232 151.943C428.852 151.943 428.532 152.051 428.273 152.268C428.018 152.484 427.824 152.779 427.693 153.152C427.565 153.525 427.501 153.949 427.501 154.425C427.501 154.901 427.565 155.325 427.693 155.698C427.824 156.071 428.018 156.366 428.273 156.582C428.532 156.795 428.852 156.902 429.232 156.902ZM433.932 152.103V150.318H441.346V152.103H438.71V158.5H436.547V152.103H433.932ZM442.301 156.183H444.501C444.512 156.453 444.632 156.666 444.863 156.822C445.094 156.978 445.392 157.056 445.758 157.056C446.127 157.056 446.438 156.971 446.69 156.801C446.942 156.627 447.069 156.378 447.069 156.055C447.069 155.856 447.019 155.684 446.919 155.538C446.82 155.389 446.681 155.272 446.504 155.187C446.326 155.102 446.12 155.059 445.886 155.059H444.709V153.573H445.886C446.238 153.573 446.507 153.491 446.696 153.328C446.887 153.164 446.983 152.96 446.983 152.715C446.983 152.438 446.884 152.216 446.685 152.049C446.49 151.879 446.225 151.794 445.891 151.794C445.554 151.794 445.273 151.87 445.05 152.023C444.83 152.172 444.716 152.367 444.709 152.609H442.52C442.527 152.119 442.674 151.694 442.962 151.336C443.253 150.977 443.643 150.7 444.134 150.505C444.627 150.309 445.179 150.212 445.79 150.212C446.458 150.212 447.033 150.306 447.516 150.494C448.002 150.679 448.375 150.943 448.635 151.288C448.897 151.632 449.029 152.042 449.029 152.518C449.029 152.951 448.887 153.314 448.603 153.605C448.319 153.896 447.921 154.104 447.409 154.228V154.313C447.747 154.335 448.052 154.425 448.326 154.585C448.599 154.745 448.817 154.965 448.981 155.245C449.144 155.522 449.226 155.851 449.226 156.231C449.226 156.739 449.077 157.174 448.778 157.536C448.484 157.898 448.075 158.177 447.553 158.372C447.035 158.564 446.44 158.66 445.769 158.66C445.115 158.66 444.529 158.566 444.011 158.377C443.496 158.186 443.086 157.905 442.781 157.536C442.479 157.167 442.319 156.716 442.301 156.183ZM452.04 152.832H454.485C455.568 152.832 456.413 153.092 457.02 153.61C457.627 154.125 457.931 154.814 457.931 155.677C457.931 156.238 457.794 156.732 457.521 157.158C457.247 157.58 456.853 157.911 456.338 158.148C455.823 158.383 455.206 158.5 454.485 158.5H450.617V150.318H452.785V156.716H454.485C454.865 156.716 455.177 156.62 455.422 156.428C455.667 156.236 455.791 155.991 455.795 155.693C455.791 155.377 455.667 155.119 455.422 154.92C455.177 154.718 454.865 154.617 454.485 154.617H452.04V152.832ZM458.81 158.5V150.318H461.079V158.5H458.81ZM462.893 158.5V150.318H466.382C467.39 150.318 468.188 150.51 468.774 150.893C469.359 151.277 469.652 151.822 469.652 152.529C469.652 152.973 469.487 153.342 469.157 153.637C468.827 153.931 468.369 154.13 467.783 154.233C468.273 154.269 468.69 154.381 469.035 154.569C469.383 154.754 469.647 154.993 469.828 155.288C470.013 155.583 470.105 155.909 470.105 156.268C470.105 156.733 469.981 157.133 469.732 157.467C469.487 157.8 469.127 158.056 468.651 158.234C468.179 158.411 467.602 158.5 466.92 158.5H462.893ZM465.008 156.801H466.92C467.236 156.801 467.483 156.726 467.66 156.577C467.841 156.424 467.932 156.217 467.932 155.954C467.932 155.663 467.841 155.434 467.66 155.267C467.483 155.1 467.236 155.016 466.92 155.016H465.008V156.801ZM465.008 153.685H466.43C466.657 153.685 466.851 153.653 467.01 153.589C467.174 153.521 467.298 153.425 467.383 153.301C467.472 153.177 467.516 153.029 467.516 152.859C467.516 152.607 467.415 152.41 467.213 152.268C467.01 152.126 466.733 152.055 466.382 152.055H465.008V153.685Z" fill="#D6D0D0"/>
</svg>
