<svg width="540" height="195" viewBox="0 0 540 195" fill="none" xmlns="http://www.w3.org/2000/svg">
<path d="M43.6293 35.019V49.5645H40.5895V37.519H34.7088V49.5645H31.669V35.019H43.6293ZM51.4293 49.7775C50.3261 49.7775 49.372 49.5431 48.5671 49.0744C47.7669 48.6009 47.149 47.9428 46.7134 47.1C46.2778 46.2524 46.06 45.2699 46.06 44.1525C46.06 43.0256 46.2778 42.0408 46.7134 41.198C47.149 40.3504 47.7669 39.6923 48.5671 39.2235C49.372 38.7501 50.3261 38.5133 51.4293 38.5133C52.5326 38.5133 53.4843 38.7501 54.2844 39.2235C55.0894 39.6923 55.7096 40.3504 56.1452 41.198C56.5808 42.0408 56.7987 43.0256 56.7987 44.1525C56.7987 45.2699 56.5808 46.2524 56.1452 47.1C55.7096 47.9428 55.0894 48.6009 54.2844 49.0744C53.4843 49.5431 52.5326 49.7775 51.4293 49.7775ZM51.4435 47.4338C51.9454 47.4338 52.3645 47.2917 52.7006 47.0076C53.0368 46.7188 53.2901 46.3258 53.4606 45.8287C53.6358 45.3315 53.7234 44.7657 53.7234 44.1312C53.7234 43.4967 53.6358 42.9309 53.4606 42.4338C53.2901 41.9366 53.0368 41.5436 52.7006 41.2548C52.3645 40.966 51.9454 40.8216 51.4435 40.8216C50.9369 40.8216 50.5108 40.966 50.1651 41.2548C49.8242 41.5436 49.5662 41.9366 49.391 42.4338C49.2205 42.9309 49.1353 43.4967 49.1353 44.1312C49.1353 44.7657 49.2205 45.3315 49.391 45.8287C49.5662 46.3258 49.8242 46.7188 50.1651 47.0076C50.5108 47.2917 50.9369 47.4338 51.4435 47.4338ZM63.695 49.7775C62.5775 49.7775 61.6164 49.5408 60.8114 49.0673C60.0112 48.5891 59.3957 47.9262 58.9648 47.0787C58.5387 46.2311 58.3256 45.2557 58.3256 44.1525C58.3256 43.0351 58.5411 42.055 58.9719 41.2122C59.4076 40.3646 60.0254 39.7041 60.8256 39.2306C61.6258 38.7524 62.5775 38.5133 63.6808 38.5133C64.6325 38.5133 65.4658 38.6861 66.1808 39.0318C66.8957 39.3774 67.4615 39.8627 67.8782 40.4877C68.2949 41.1127 68.5245 41.8466 68.5671 42.6895H65.712C65.6315 42.1449 65.4184 41.707 65.0728 41.3755C64.7319 41.0394 64.2844 40.8713 63.7305 40.8713C63.2617 40.8713 62.8522 40.9991 62.5018 41.2548C62.1561 41.5057 61.8862 41.8727 61.6921 42.3556C61.498 42.8386 61.4009 43.4234 61.4009 44.1099C61.4009 44.8059 61.4956 45.3978 61.685 45.8855C61.8791 46.3732 62.1514 46.7449 62.5018 47.0005C62.8522 47.2562 63.2617 47.3841 63.7305 47.3841C64.0761 47.3841 64.3862 47.313 64.6609 47.171C64.9402 47.0289 65.1699 46.823 65.3498 46.5531C65.5344 46.2785 65.6552 45.9494 65.712 45.5659H68.5671C68.5198 46.3992 68.2925 47.1331 67.8853 47.7676C67.4828 48.3973 66.9265 48.8897 66.2163 49.2449C65.506 49.6 64.6656 49.7775 63.695 49.7775ZM69.7603 41.0346V38.6554H79.6467V41.0346H76.131V49.5645H73.2475V41.0346H69.7603ZM86.0192 49.7775C84.916 49.7775 83.9619 49.5431 83.157 49.0744C82.3568 48.6009 81.7389 47.9428 81.3033 47.1C80.8677 46.2524 80.6499 45.2699 80.6499 44.1525C80.6499 43.0256 80.8677 42.0408 81.3033 41.198C81.7389 40.3504 82.3568 39.6923 83.157 39.2235C83.9619 38.7501 84.916 38.5133 86.0192 38.5133C87.1224 38.5133 88.0741 38.7501 88.8743 39.2235C89.6792 39.6923 90.2995 40.3504 90.7351 41.198C91.1707 42.0408 91.3885 43.0256 91.3885 44.1525C91.3885 45.2699 91.1707 46.2524 90.7351 47.1C90.2995 47.9428 89.6792 48.6009 88.8743 49.0744C88.0741 49.5431 87.1224 49.7775 86.0192 49.7775ZM86.0334 47.4338C86.5353 47.4338 86.9543 47.2917 87.2905 47.0076C87.6267 46.7188 87.88 46.3258 88.0504 45.8287C88.2256 45.3315 88.3132 44.7657 88.3132 44.1312C88.3132 43.4967 88.2256 42.9309 88.0504 42.4338C87.88 41.9366 87.6267 41.5436 87.2905 41.2548C86.9543 40.966 86.5353 40.8216 86.0334 40.8216C85.5268 40.8216 85.1006 40.966 84.755 41.2548C84.4141 41.5436 84.156 41.9366 83.9808 42.4338C83.8104 42.9309 83.7251 43.4967 83.7251 44.1312C83.7251 44.7657 83.8104 45.3315 83.9808 45.8287C84.156 46.3258 84.4141 46.7188 84.755 47.0076C85.1006 47.2917 85.5268 47.4338 86.0334 47.4338ZM99.7479 49.5645V41.0275H97.7024C97.1484 41.0275 96.727 41.1554 96.4382 41.411C96.1494 41.6667 96.0073 41.9698 96.0121 42.3201C96.0073 42.6752 96.1446 42.9759 96.424 43.2221C96.7081 43.4636 97.1248 43.5843 97.674 43.5843H100.756V45.6298H97.674C96.7412 45.6298 95.9339 45.4877 95.2521 45.2037C94.5703 44.9196 94.0447 44.5242 93.6754 44.0176C93.3061 43.5062 93.1238 42.912 93.1286 42.2349C93.1238 41.5247 93.3061 40.902 93.6754 40.367C94.0447 39.8272 94.5727 39.4082 95.2592 39.1099C95.9505 38.8069 96.7649 38.6554 97.7024 38.6554H102.567V49.5645H99.7479ZM92.8161 49.5645L95.8487 43.8826H98.7393L95.7138 49.5645H92.8161ZM112.511 42.9025V45.2818H106.815V42.9025H112.511ZM107.809 38.6554V49.5645H104.918V38.6554H107.809ZM114.407 38.6554V49.5645H111.538V38.6554H114.407ZM121.683 49.7775C120.566 49.7775 119.605 49.5408 118.8 49.0673C118 48.5891 117.384 47.9262 116.953 47.0787C116.527 46.2311 116.314 45.2557 116.314 44.1525C116.314 43.0351 116.529 42.055 116.96 41.2122C117.396 40.3646 118.014 39.7041 118.814 39.2306C119.614 38.7524 120.566 38.5133 121.669 38.5133C122.621 38.5133 123.454 38.6861 124.169 39.0318C124.884 39.3774 125.45 39.8627 125.866 40.4877C126.283 41.1127 126.513 41.8466 126.555 42.6895H123.7C123.62 42.1449 123.407 41.707 123.061 41.3755C122.72 41.0394 122.273 40.8713 121.719 40.8713C121.25 40.8713 120.84 40.9991 120.49 41.2548C120.144 41.5057 119.875 41.8727 119.68 42.3556C119.486 42.8386 119.389 43.4234 119.389 44.1099C119.389 44.8059 119.484 45.3978 119.673 45.8855C119.867 46.3732 120.14 46.7449 120.49 47.0005C120.84 47.2562 121.25 47.3841 121.719 47.3841C122.064 47.3841 122.375 47.313 122.649 47.171C122.929 47.0289 123.158 46.823 123.338 46.5531C123.523 46.2785 123.643 45.9494 123.7 45.5659H126.555C126.508 46.3992 126.281 47.1331 125.874 47.7676C125.471 48.3973 124.915 48.8897 124.205 49.2449C123.494 49.6 122.654 49.7775 121.683 49.7775ZM127.749 41.0346V38.6554H137.635V41.0346H134.119V49.5645H131.236V41.0346H127.749ZM139.469 49.5645V38.6554H144.121C145.466 38.6554 146.529 38.911 147.31 39.4224C148.091 39.9338 148.482 40.6606 148.482 41.6028C148.482 42.1947 148.262 42.6871 147.821 43.0801C147.381 43.4731 146.77 43.7382 145.989 43.8755C146.642 43.9229 147.199 44.072 147.658 44.323C148.122 44.5692 148.475 44.8888 148.716 45.2818C148.962 45.6748 149.086 46.1104 149.086 46.5886C149.086 47.2089 148.92 47.7415 148.588 48.1866C148.262 48.6317 147.781 48.9726 147.147 49.2093C146.517 49.4461 145.748 49.5645 144.838 49.5645H139.469ZM142.289 47.2988H144.838C145.26 47.2988 145.589 47.1994 145.826 47.0005C146.067 46.7969 146.188 46.5199 146.188 46.1696C146.188 45.7813 146.067 45.4759 145.826 45.2534C145.589 45.0308 145.26 44.9196 144.838 44.9196H142.289V47.2988ZM142.289 43.144H144.185C144.488 43.144 144.746 43.1014 144.959 43.0162C145.177 42.9262 145.343 42.7984 145.456 42.6326C145.575 42.4669 145.634 42.2704 145.634 42.0431C145.634 41.707 145.499 41.4442 145.229 41.2548C144.959 41.0654 144.59 40.9707 144.121 40.9707H142.289V43.144ZM155.922 49.7775C154.818 49.7775 153.864 49.5431 153.059 49.0744C152.259 48.6009 151.641 47.9428 151.206 47.1C150.77 46.2524 150.552 45.2699 150.552 44.1525C150.552 43.0256 150.77 42.0408 151.206 41.198C151.641 40.3504 152.259 39.6923 153.059 39.2235C153.864 38.7501 154.818 38.5133 155.922 38.5133C157.025 38.5133 157.976 38.7501 158.777 39.2235C159.582 39.6923 160.202 40.3504 160.637 41.198C161.073 42.0408 161.291 43.0256 161.291 44.1525C161.291 45.2699 161.073 46.2524 160.637 47.1C160.202 47.9428 159.582 48.6009 158.777 49.0744C157.976 49.5431 157.025 49.7775 155.922 49.7775ZM155.936 47.4338C156.438 47.4338 156.857 47.2917 157.193 47.0076C157.529 46.7188 157.782 46.3258 157.953 45.8287C158.128 45.3315 158.216 44.7657 158.216 44.1312C158.216 43.4967 158.128 42.9309 157.953 42.4338C157.782 41.9366 157.529 41.5436 157.193 41.2548C156.857 40.966 156.438 40.8216 155.936 40.8216C155.429 40.8216 155.003 40.966 154.657 41.2548C154.316 41.5436 154.058 41.9366 153.883 42.4338C153.713 42.9309 153.627 43.4967 153.627 44.1312C153.627 44.7657 153.713 45.3315 153.883 45.8287C154.058 46.3258 154.316 46.7188 154.657 47.0076C155.003 47.2917 155.429 47.4338 155.936 47.4338Z" fill="black"/>
<path d="M38.8494 99.3826V109.564H37.6165V100.476H32.4858V109.564H31.2528V99.3826H38.8494ZM44.2797 109.724C43.5903 109.724 42.9854 109.559 42.465 109.231C41.948 108.903 41.5436 108.444 41.252 107.854C40.9636 107.264 40.8194 106.575 40.8194 105.786C40.8194 104.991 40.9636 104.296 41.252 103.703C41.5436 103.11 41.948 102.649 42.465 102.321C42.9854 101.993 43.5903 101.829 44.2797 101.829C44.969 101.829 45.5723 101.993 46.0893 102.321C46.6097 102.649 47.014 103.11 47.3024 103.703C47.594 104.296 47.7399 104.991 47.7399 105.786C47.7399 106.575 47.594 107.264 47.3024 107.854C47.014 108.444 46.6097 108.903 46.0893 109.231C45.5723 109.559 44.969 109.724 44.2797 109.724ZM44.2797 108.67C44.8033 108.67 45.2342 108.535 45.5723 108.267C45.9103 107.998 46.1606 107.645 46.323 107.208C46.4854 106.77 46.5666 106.296 46.5666 105.786C46.5666 105.276 46.4854 104.8 46.323 104.359C46.1606 103.918 45.9103 103.562 45.5723 103.29C45.2342 103.019 44.8033 102.883 44.2797 102.883C43.756 102.883 43.3251 103.019 42.987 103.29C42.649 103.562 42.3987 103.918 42.2363 104.359C42.0739 104.8 41.9927 105.276 41.9927 105.786C41.9927 106.296 42.0739 106.77 42.2363 107.208C42.3987 107.645 42.649 107.998 42.987 108.267C43.3251 108.535 43.756 108.67 44.2797 108.67ZM53.707 107.974L56.3718 101.928H57.4854L54.1843 109.564H53.2298L49.9883 101.928H51.082L53.707 107.974ZM50.7042 101.928V109.564H49.5309V101.928H50.7042ZM56.7099 109.564V101.928H57.8832V109.564H56.7099ZM63.1332 109.724C62.4438 109.724 61.8389 109.559 61.3185 109.231C60.8015 108.903 60.3971 108.444 60.1055 107.854C59.8171 107.264 59.6729 106.575 59.6729 105.786C59.6729 104.991 59.8171 104.296 60.1055 103.703C60.3971 103.11 60.8015 102.649 61.3185 102.321C61.8389 101.993 62.4438 101.829 63.1332 101.829C63.8226 101.829 64.4258 101.993 64.9428 102.321C65.4632 102.649 65.8675 103.11 66.1559 103.703C66.4476 104.296 66.5934 104.991 66.5934 105.786C66.5934 106.575 66.4476 107.264 66.1559 107.854C65.8675 108.444 65.4632 108.903 64.9428 109.231C64.4258 109.559 63.8226 109.724 63.1332 109.724ZM63.1332 108.67C63.6568 108.67 64.0877 108.535 64.4258 108.267C64.7638 107.998 65.0141 107.645 65.1765 107.208C65.3389 106.77 65.4201 106.296 65.4201 105.786C65.4201 105.276 65.3389 104.8 65.1765 104.359C65.0141 103.918 64.7638 103.562 64.4258 103.29C64.0877 103.019 63.6568 102.883 63.1332 102.883C62.6095 102.883 62.1786 103.019 61.8406 103.29C61.5025 103.562 61.2522 103.918 61.0898 104.359C60.9274 104.8 60.8462 105.276 60.8462 105.786C60.8462 106.296 60.9274 106.77 61.0898 107.208C61.2522 107.645 61.5025 107.998 61.8406 108.267C62.1786 108.535 62.6095 108.67 63.1332 108.67ZM73.0975 101.928V103.022H69.5577V109.564H68.3844V101.928H73.0975ZM76.6609 109.743C76.177 109.743 75.7378 109.652 75.3434 109.47C74.949 109.284 74.6358 109.018 74.4038 108.67C74.1718 108.318 74.0558 107.894 74.0558 107.397C74.0558 106.959 74.1419 106.605 74.3143 106.333C74.4866 106.058 74.717 105.842 75.0053 105.687C75.2937 105.531 75.6119 105.415 75.9599 105.339C76.3112 105.259 76.6642 105.196 77.0188 105.15C77.4828 105.09 77.859 105.045 78.1474 105.015C78.439 104.982 78.6512 104.928 78.7837 104.851C78.9196 104.775 78.9876 104.643 78.9876 104.454V104.414C78.9876 103.923 78.8533 103.542 78.5849 103.27C78.3197 102.999 77.917 102.863 77.3768 102.863C76.8166 102.863 76.3775 102.985 76.0593 103.231C75.7411 103.476 75.5174 103.738 75.3881 104.016L74.2745 103.618C74.4734 103.154 74.7385 102.793 75.07 102.535C75.4047 102.273 75.7693 102.09 76.1637 101.988C76.5614 101.882 76.9525 101.829 77.337 101.829C77.5823 101.829 77.864 101.858 78.1822 101.918C78.5037 101.974 78.8136 102.092 79.1119 102.271C79.4135 102.45 79.6637 102.72 79.8626 103.081C80.0614 103.443 80.1609 103.927 80.1609 104.533V109.564H78.9876V108.53H78.9279C78.8484 108.696 78.7158 108.873 78.5302 109.062C78.3446 109.251 78.0977 109.412 77.7894 109.545C77.4812 109.677 77.105 109.743 76.6609 109.743ZM76.8398 108.689C77.3039 108.689 77.695 108.598 78.0131 108.416C78.3346 108.234 78.5766 107.998 78.739 107.71C78.9047 107.422 78.9876 107.118 78.9876 106.8V105.726C78.9379 105.786 78.8285 105.841 78.6594 105.89C78.4937 105.937 78.3015 105.978 78.0827 106.015C77.8673 106.048 77.6568 106.078 77.4513 106.104C77.2492 106.127 77.0851 106.147 76.9592 106.164C76.6542 106.204 76.3692 106.268 76.104 106.358C75.8422 106.444 75.6301 106.575 75.4677 106.751C75.3086 106.923 75.229 107.158 75.229 107.456C75.229 107.864 75.3799 108.172 75.6815 108.381C75.9864 108.587 76.3725 108.689 76.8398 108.689ZM85.5041 109.724C84.7683 109.724 84.1336 109.561 83.6 109.236C83.0697 108.908 82.6603 108.451 82.372 107.864C82.0869 107.274 81.9444 106.588 81.9444 105.806C81.9444 105.024 82.0869 104.334 82.372 103.738C82.6603 103.138 83.0614 102.671 83.5751 102.336C84.0922 101.998 84.6954 101.829 85.3848 101.829C85.7825 101.829 86.1752 101.895 86.563 102.028C86.9508 102.16 87.3038 102.376 87.622 102.674C87.9402 102.969 88.1937 103.36 88.3826 103.847C88.5716 104.334 88.666 104.934 88.666 105.647V106.144H82.7797V105.13H87.4728C87.4728 104.699 87.3867 104.314 87.2143 103.976C87.0453 103.638 86.8033 103.372 86.4885 103.176C86.1769 102.98 85.809 102.883 85.3848 102.883C84.9174 102.883 84.5131 102.999 84.1717 103.231C83.8336 103.459 83.5734 103.758 83.3912 104.126C83.2089 104.493 83.1177 104.888 83.1177 105.309V105.985C83.1177 106.562 83.2172 107.05 83.416 107.452C83.6182 107.849 83.8983 108.153 84.2562 108.361C84.6142 108.567 85.0301 108.67 85.5041 108.67C85.8123 108.67 86.0907 108.626 86.3393 108.54C86.5912 108.451 86.8083 108.318 86.9906 108.143C87.1729 107.964 87.3137 107.742 87.4132 107.476L88.5467 107.795C88.4274 108.179 88.2269 108.517 87.9451 108.809C87.6634 109.097 87.3154 109.323 86.9011 109.485C86.4868 109.644 86.0211 109.724 85.5041 109.724ZM89.7399 103.022V101.928H95.9444V103.022H93.4387V109.564H92.2654V103.022H89.7399ZM31.8295 129.428C31.6307 129.428 31.4534 129.412 31.2976 129.378C31.1418 129.349 31.0341 129.319 30.9744 129.289L31.2727 128.255C31.5578 128.328 31.8097 128.354 32.0284 128.334C32.2472 128.314 32.4411 128.217 32.6101 128.041C32.7824 127.869 32.9399 127.589 33.0824 127.201L33.3011 126.604L30.4773 118.928H31.75L33.858 125.013H33.9375L36.0455 118.928H37.3182L34.0767 127.678C33.9309 128.073 33.7502 128.399 33.5348 128.657C33.3194 128.919 33.0691 129.113 32.7841 129.239C32.5024 129.365 32.1842 129.428 31.8295 129.428ZM37.4089 128.752V125.471H38.0453C38.2011 125.308 38.3353 125.133 38.448 124.944C38.5607 124.755 38.6584 124.531 38.7413 124.273C38.8275 124.011 38.9004 123.693 38.96 123.318C39.0197 122.94 39.0727 122.484 39.1191 121.951L39.3777 118.928H44.2299V125.471H45.4032V128.752H44.2299V126.564H38.5822V128.752H37.4089ZM39.3777 125.471H43.0566V120.022H40.4714L40.2725 121.951C40.1897 122.75 40.0869 123.447 39.9643 124.044C39.8417 124.64 39.6461 125.116 39.3777 125.471ZM50.1623 126.724C49.4265 126.724 48.7918 126.561 48.2582 126.236C47.7279 125.908 47.3185 125.451 47.0302 124.864C46.7451 124.274 46.6026 123.588 46.6026 122.806C46.6026 122.024 46.7451 121.334 47.0302 120.738C47.3185 120.138 47.7196 119.671 48.2333 119.336C48.7504 118.998 49.3536 118.829 50.043 118.829C50.4407 118.829 50.8335 118.895 51.2212 119.028C51.609 119.16 51.962 119.376 52.2802 119.674C52.5984 119.969 52.8519 120.36 53.0408 120.847C53.2298 121.334 53.3242 121.934 53.3242 122.647V123.144H47.4379V122.13H52.131C52.131 121.699 52.0449 121.314 51.8725 120.976C51.7035 120.638 51.4615 120.372 51.1467 120.176C50.8351 119.98 50.4672 119.883 50.043 119.883C49.5756 119.883 49.1713 119.999 48.8299 120.231C48.4918 120.459 48.2317 120.758 48.0494 121.126C47.8671 121.493 47.7759 121.888 47.7759 122.309V122.985C47.7759 123.562 47.8754 124.05 48.0742 124.452C48.2764 124.849 48.5565 125.153 48.9144 125.361C49.2724 125.567 49.6883 125.67 50.1623 125.67C50.4705 125.67 50.7489 125.626 50.9975 125.54C51.2494 125.451 51.4665 125.318 51.6488 125.143C51.8311 124.964 51.9719 124.742 52.0714 124.476L53.2049 124.795C53.0856 125.179 52.8851 125.517 52.6033 125.809C52.3216 126.097 51.9736 126.323 51.5593 126.485C51.145 126.644 50.6793 126.724 50.1623 126.724ZM55.109 129.428V118.928H56.2425V120.141H56.3817C56.4679 120.009 56.5872 119.84 56.7397 119.634C56.8955 119.425 57.1175 119.24 57.4059 119.077C57.6976 118.912 58.092 118.829 58.5891 118.829C59.2321 118.829 59.7989 118.989 60.2894 119.311C60.7799 119.632 61.1628 120.088 61.4379 120.678C61.7129 121.268 61.8505 121.964 61.8505 122.766C61.8505 123.575 61.7129 124.276 61.4379 124.869C61.1628 125.459 60.7816 125.916 60.2944 126.241C59.8072 126.563 59.2454 126.724 58.609 126.724C58.1185 126.724 57.7257 126.642 57.4308 126.48C57.1358 126.314 56.9087 126.127 56.7496 125.918C56.5906 125.706 56.4679 125.53 56.3817 125.391H56.2823V129.428H55.109ZM56.2624 122.746C56.2624 123.323 56.3469 123.832 56.516 124.273C56.685 124.71 56.9319 125.053 57.2567 125.302C57.5816 125.547 57.9793 125.67 58.4499 125.67C58.9405 125.67 59.3498 125.54 59.6779 125.282C60.0094 125.02 60.2579 124.669 60.4237 124.228C60.5927 123.784 60.6772 123.29 60.6772 122.746C60.6772 122.209 60.5943 121.725 60.4286 121.295C60.2662 120.86 60.0193 120.517 59.6879 120.265C59.3597 120.01 58.9471 119.883 58.4499 119.883C57.9727 119.883 57.5716 120.004 57.2468 120.246C56.922 120.484 56.6767 120.819 56.511 121.25C56.3453 121.677 56.2624 122.176 56.2624 122.746ZM62.8485 126.564L65.9508 122.687L62.8883 118.928H64.2804L66.8258 122.189H67.4622V118.928H68.6355V122.189H69.252L71.7974 118.928H73.1895L70.1468 122.687L73.2292 126.564H71.8173L69.2321 123.283H68.6355V126.564H67.4622V123.283H66.8656L64.2605 126.564H62.8485ZM76.0792 124.834L79.7582 118.928H81.1104V126.564H79.9371V120.658L76.2781 126.564H74.9059V118.928H76.0792V124.834ZM83.2594 126.564V118.928H86.3816C87.2035 118.928 87.8565 119.114 88.3404 119.485C88.8243 119.856 89.0662 120.347 89.0662 120.956C89.0662 121.421 88.9287 121.78 88.6536 122.035C88.3785 122.287 88.0255 122.458 87.5946 122.547C87.8764 122.587 88.1498 122.687 88.415 122.846C88.6834 123.005 88.9055 123.224 89.0811 123.502C89.2568 123.777 89.3446 124.115 89.3446 124.516C89.3446 124.907 89.2452 125.257 89.0463 125.565C88.8475 125.873 88.5624 126.117 88.1912 126.296C87.82 126.475 87.3759 126.564 86.8588 126.564H83.2594ZM84.373 125.491H86.8588C87.2632 125.491 87.5797 125.394 87.8084 125.202C88.0371 125.01 88.1515 124.748 88.1515 124.417C88.1515 124.022 88.0371 123.712 87.8084 123.487C87.5797 123.258 87.2632 123.144 86.8588 123.144H84.373V125.491ZM84.373 122.13H86.3816C86.6964 122.13 86.9666 122.087 87.1919 122.001C87.4173 121.911 87.5897 121.785 87.709 121.623C87.8316 121.457 87.8929 121.261 87.8929 121.036C87.8929 120.715 87.7587 120.463 87.4902 120.28C87.2218 120.095 86.8522 120.002 86.3816 120.002H84.373V122.13ZM93.3679 126.743C92.884 126.743 92.4448 126.652 92.0504 126.47C91.656 126.284 91.3428 126.018 91.1108 125.67C90.8788 125.318 90.7628 124.894 90.7628 124.397C90.7628 123.959 90.849 123.605 91.0213 123.333C91.1937 123.058 91.424 122.842 91.7124 122.687C92.0007 122.531 92.3189 122.415 92.6669 122.339C93.0182 122.259 93.3712 122.196 93.7259 122.15C94.1899 122.09 94.5661 122.045 94.8544 122.015C95.1461 121.982 95.3582 121.928 95.4908 121.851C95.6267 121.775 95.6946 121.643 95.6946 121.454V121.414C95.6946 120.923 95.5604 120.542 95.2919 120.27C95.0268 119.999 94.6241 119.863 94.0838 119.863C93.5237 119.863 93.0845 119.985 92.7663 120.231C92.4482 120.476 92.2244 120.738 92.0952 121.016L90.9815 120.618C91.1804 120.154 91.4455 119.793 91.777 119.535C92.1117 119.273 92.4763 119.09 92.8707 118.988C93.2685 118.882 93.6596 118.829 94.044 118.829C94.2893 118.829 94.571 118.858 94.8892 118.918C95.2107 118.974 95.5206 119.092 95.8189 119.271C96.1205 119.45 96.3707 119.72 96.5696 120.081C96.7685 120.443 96.8679 120.927 96.8679 121.533V126.564H95.6946V125.53H95.6349C95.5554 125.696 95.4228 125.873 95.2372 126.062C95.0516 126.251 94.8047 126.412 94.4964 126.545C94.1882 126.677 93.812 126.743 93.3679 126.743ZM93.5469 125.689C94.0109 125.689 94.402 125.598 94.7202 125.416C95.0417 125.234 95.2836 124.998 95.446 124.71C95.6117 124.422 95.6946 124.118 95.6946 123.8V122.726C95.6449 122.786 95.5355 122.841 95.3665 122.89C95.2008 122.937 95.0085 122.978 94.7898 123.015C94.5743 123.048 94.3639 123.078 94.1584 123.104C93.9562 123.127 93.7921 123.147 93.6662 123.164C93.3613 123.204 93.0762 123.268 92.8111 123.358C92.5492 123.444 92.3371 123.575 92.1747 123.751C92.0156 123.923 91.9361 124.158 91.9361 124.456C91.9361 124.864 92.0869 125.172 92.3885 125.381C92.6934 125.587 93.0795 125.689 93.5469 125.689ZM97.9703 120.022V118.928H104.175V120.022H101.669V126.564H100.496V120.022H97.9703ZM106.901 121.692H109.088C109.983 121.692 110.667 121.919 111.141 122.373C111.615 122.827 111.852 123.403 111.852 124.099C111.852 124.556 111.746 124.972 111.534 125.346C111.322 125.718 111.01 126.014 110.599 126.236C110.188 126.455 109.685 126.564 109.088 126.564H105.886V118.928H107.06V125.471H109.088C109.552 125.471 109.933 125.348 110.232 125.103C110.53 124.858 110.679 124.543 110.679 124.158C110.679 123.754 110.53 123.424 110.232 123.169C109.933 122.914 109.552 122.786 109.088 122.786H106.901V121.692ZM33.5994 136.922C33.3343 136.926 33.0675 136.994 32.799 137.126C32.5339 137.259 32.3118 137.434 32.1328 137.653C31.9571 137.869 31.8693 138.109 31.8693 138.374H30.7159C30.7159 138.043 30.7955 137.724 30.9545 137.42C31.1136 137.115 31.3274 136.843 31.5959 136.604C31.8677 136.366 32.1759 136.177 32.5206 136.037C32.8686 135.898 33.2282 135.829 33.5994 135.829C34.2955 135.829 34.8854 136.004 35.3693 136.356C35.8565 136.707 36.2261 137.171 36.478 137.748C36.7332 138.324 36.8608 138.951 36.8608 139.627V139.905C36.8608 140.578 36.7332 141.205 36.478 141.785C36.2261 142.361 35.8565 142.825 35.3693 143.177C34.8854 143.528 34.2955 143.704 33.5994 143.704C33.0426 143.704 32.5471 143.581 32.1129 143.336C31.6787 143.087 31.3374 142.756 31.0888 142.341C30.8402 141.927 30.7159 141.466 30.7159 140.959H31.8693C31.8693 141.248 31.9505 141.518 32.1129 141.77C32.2786 142.018 32.4924 142.22 32.7543 142.376C33.0194 142.529 33.3011 142.607 33.5994 142.61C34.0436 142.607 34.4214 142.467 34.733 142.192C35.0445 141.917 35.2815 141.573 35.4439 141.158C35.6063 140.744 35.6875 140.326 35.6875 139.905V139.627C35.6875 139.196 35.6063 138.775 35.4439 138.364C35.2848 137.95 35.0495 137.607 34.7379 137.335C34.4297 137.063 34.0502 136.926 33.5994 136.922ZM36.1648 139.17V140.263H32.8239V139.17H36.1648ZM37.9719 143.564V142.471H38.2504C38.479 142.471 38.6696 142.426 38.8221 142.336C38.9746 142.244 39.0972 142.083 39.19 141.854C39.2861 141.622 39.359 141.301 39.4087 140.89C39.4618 140.475 39.4999 139.948 39.5231 139.309L39.6623 135.928H44.7532V143.564H43.5799V137.022H40.7759L40.6566 139.746C40.6301 140.373 40.5737 140.925 40.4876 141.402C40.4047 141.876 40.2771 142.273 40.1048 142.595C39.9357 142.916 39.7103 143.158 39.4286 143.321C39.1469 143.483 38.7939 143.564 38.3697 143.564H37.9719ZM50.1076 143.724C49.3718 143.724 48.7371 143.561 48.2035 143.236C47.6732 142.908 47.2638 142.451 46.9755 141.864C46.6905 141.274 46.5479 140.588 46.5479 139.806C46.5479 139.024 46.6905 138.334 46.9755 137.738C47.2638 137.138 47.6649 136.671 48.1786 136.336C48.6957 135.998 49.2989 135.829 49.9883 135.829C50.386 135.829 50.7788 135.895 51.1665 136.028C51.5543 136.16 51.9073 136.376 52.2255 136.674C52.5437 136.969 52.7972 137.36 52.9862 137.847C53.1751 138.334 53.2695 138.934 53.2695 139.647V140.144H47.3832V139.13H52.0763C52.0763 138.699 51.9902 138.314 51.8178 137.976C51.6488 137.638 51.4068 137.372 51.092 137.176C50.7804 136.98 50.4125 136.883 49.9883 136.883C49.521 136.883 49.1166 136.999 48.7752 137.231C48.4371 137.459 48.177 137.758 47.9947 138.126C47.8124 138.493 47.7212 138.888 47.7212 139.309V139.985C47.7212 140.562 47.8207 141.05 48.0195 141.452C48.2217 141.849 48.5018 142.153 48.8597 142.361C49.2177 142.567 49.6336 142.67 50.1076 142.67C50.4158 142.67 50.6942 142.626 50.9428 142.54C51.1947 142.451 51.4118 142.318 51.5941 142.143C51.7764 141.964 51.9173 141.742 52.0167 141.476L53.1502 141.795C53.0309 142.179 52.8304 142.517 52.5487 142.809C52.2669 143.097 51.9189 143.323 51.5046 143.485C51.0903 143.644 50.6246 143.724 50.1076 143.724ZM59.2305 141.974L61.8952 135.928H63.0089L59.7077 143.564H58.7532L55.5117 135.928H56.6055L59.2305 141.974ZM56.2276 135.928V143.564H55.0543V135.928H56.2276ZM62.2333 143.564V135.928H63.4066V143.564H62.2333ZM68.756 143.724C68.0202 143.724 67.3855 143.561 66.8519 143.236C66.3216 142.908 65.9123 142.451 65.6239 141.864C65.3389 141.274 65.1964 140.588 65.1964 139.806C65.1964 139.024 65.3389 138.334 65.6239 137.738C65.9123 137.138 66.3133 136.671 66.8271 136.336C67.3441 135.998 67.9473 135.829 68.6367 135.829C69.0344 135.829 69.4272 135.895 69.815 136.028C70.2028 136.16 70.5558 136.376 70.8739 136.674C71.1921 136.969 71.4457 137.36 71.6346 137.847C71.8235 138.334 71.918 138.934 71.918 139.647V140.144H66.0316V139.13H70.7248C70.7248 138.699 70.6386 138.314 70.4663 137.976C70.2972 137.638 70.0553 137.372 69.7404 137.176C69.4289 136.98 69.061 136.883 68.6367 136.883C68.1694 136.883 67.765 136.999 67.4237 137.231C67.0856 137.459 66.8254 137.758 66.6431 138.126C66.4608 138.493 66.3697 138.888 66.3697 139.309V139.985C66.3697 140.562 66.4691 141.05 66.668 141.452C66.8701 141.849 67.1502 142.153 67.5082 142.361C67.8661 142.567 68.2821 142.67 68.756 142.67C69.0643 142.67 69.3427 142.626 69.5913 142.54C69.8432 142.451 70.0603 142.318 70.2425 142.143C70.4248 141.964 70.5657 141.742 70.6651 141.476L71.7987 141.795C71.6793 142.179 71.4788 142.517 71.1971 142.809C70.9154 143.097 70.5674 143.323 70.1531 143.485C69.7388 143.644 69.2731 143.724 68.756 143.724ZM78.8136 139.209V140.303H74.5977V139.209H78.8136ZM74.8761 135.928V143.564H73.7028V135.928H74.8761ZM79.7085 135.928V143.564H78.5352V135.928H79.7085ZM80.8121 137.022V135.928H87.0167V137.022H84.511V143.564H83.3377V137.022H80.8121ZM89.7424 138.692H91.9299C92.8248 138.692 93.5092 138.919 93.9831 139.373C94.4571 139.827 94.6941 140.403 94.6941 141.099C94.6941 141.556 94.588 141.972 94.3759 142.346C94.1638 142.718 93.8522 143.014 93.4412 143.236C93.0302 143.455 92.5265 143.564 91.9299 143.564H88.7282V135.928H89.9015V142.471H91.9299C92.3939 142.471 92.775 142.348 93.0733 142.103C93.3716 141.858 93.5208 141.543 93.5208 141.158C93.5208 140.754 93.3716 140.424 93.0733 140.169C92.775 139.914 92.3939 139.786 91.9299 139.786H89.7424V138.692ZM95.9071 143.564V135.928H97.0804V143.564H95.9071ZM107.879 135.928V137.022H104.339V143.564H103.166V135.928H107.879ZM111.442 143.743C110.958 143.743 110.519 143.652 110.125 143.47C109.73 143.284 109.417 143.018 109.185 142.67C108.953 142.318 108.837 141.894 108.837 141.397C108.837 140.959 108.923 140.605 109.096 140.333C109.268 140.058 109.498 139.842 109.787 139.687C110.075 139.531 110.393 139.415 110.741 139.339C111.092 139.259 111.445 139.196 111.8 139.15C112.264 139.09 112.64 139.045 112.929 139.015C113.22 138.982 113.432 138.928 113.565 138.851C113.701 138.775 113.769 138.643 113.769 138.454V138.414C113.769 137.923 113.635 137.542 113.366 137.27C113.101 136.999 112.698 136.863 112.158 136.863C111.598 136.863 111.159 136.985 110.841 137.231C110.522 137.476 110.299 137.738 110.169 138.016L109.056 137.618C109.255 137.154 109.52 136.793 109.851 136.535C110.186 136.273 110.551 136.09 110.945 135.988C111.343 135.882 111.734 135.829 112.118 135.829C112.364 135.829 112.645 135.858 112.963 135.918C113.285 135.974 113.595 136.092 113.893 136.271C114.195 136.45 114.445 136.72 114.644 137.081C114.843 137.443 114.942 137.927 114.942 138.533V143.564H113.769V142.53H113.709C113.63 142.696 113.497 142.873 113.311 143.062C113.126 143.251 112.879 143.412 112.571 143.545C112.262 143.677 111.886 143.743 111.442 143.743ZM111.621 142.689C112.085 142.689 112.476 142.598 112.794 142.416C113.116 142.234 113.358 141.998 113.52 141.71C113.686 141.422 113.769 141.118 113.769 140.8V139.726C113.719 139.786 113.61 139.841 113.441 139.89C113.275 139.937 113.083 139.978 112.864 140.015C112.649 140.048 112.438 140.078 112.233 140.104C112.03 140.127 111.866 140.147 111.74 140.164C111.435 140.204 111.15 140.268 110.885 140.358C110.623 140.444 110.411 140.575 110.249 140.751C110.09 140.923 110.01 141.158 110.01 141.456C110.01 141.864 110.161 142.172 110.463 142.381C110.768 142.587 111.154 142.689 111.621 142.689ZM117.084 146.428V135.928H118.217V137.141H118.356C118.443 137.009 118.562 136.84 118.714 136.634C118.87 136.425 119.092 136.24 119.381 136.077C119.672 135.912 120.067 135.829 120.564 135.829C121.207 135.829 121.773 135.989 122.264 136.311C122.755 136.632 123.137 137.088 123.412 137.678C123.688 138.268 123.825 138.964 123.825 139.766C123.825 140.575 123.688 141.276 123.412 141.869C123.137 142.459 122.756 142.916 122.269 143.241C121.782 143.563 121.22 143.724 120.584 143.724C120.093 143.724 119.7 143.642 119.405 143.48C119.11 143.314 118.883 143.127 118.724 142.918C118.565 142.706 118.443 142.53 118.356 142.391H118.257V146.428H117.084ZM118.237 139.746C118.237 140.323 118.322 140.832 118.491 141.273C118.66 141.71 118.907 142.053 119.231 142.302C119.556 142.547 119.954 142.67 120.425 142.67C120.915 142.67 121.324 142.54 121.653 142.282C121.984 142.02 122.233 141.669 122.398 141.228C122.567 140.784 122.652 140.29 122.652 139.746C122.652 139.209 122.569 138.725 122.403 138.295C122.241 137.86 121.994 137.517 121.662 137.265C121.334 137.01 120.922 136.883 120.425 136.883C119.947 136.883 119.546 137.004 119.221 137.246C118.897 137.484 118.651 137.819 118.486 138.25C118.32 138.677 118.237 139.176 118.237 139.746ZM128.717 143.724C128.028 143.724 127.423 143.559 126.903 143.231C126.385 142.903 125.981 142.444 125.689 141.854C125.401 141.264 125.257 140.575 125.257 139.786C125.257 138.991 125.401 138.296 125.689 137.703C125.981 137.11 126.385 136.649 126.903 136.321C127.423 135.993 128.028 135.829 128.717 135.829C129.407 135.829 130.01 135.993 130.527 136.321C131.047 136.649 131.452 137.11 131.74 137.703C132.032 138.296 132.177 138.991 132.177 139.786C132.177 140.575 132.032 141.264 131.74 141.854C131.452 142.444 131.047 142.903 130.527 143.231C130.01 143.559 129.407 143.724 128.717 143.724ZM128.717 142.67C129.241 142.67 129.672 142.535 130.01 142.267C130.348 141.998 130.598 141.645 130.76 141.208C130.923 140.77 131.004 140.296 131.004 139.786C131.004 139.276 130.923 138.8 130.76 138.359C130.598 137.918 130.348 137.562 130.01 137.29C129.672 137.019 129.241 136.883 128.717 136.883C128.193 136.883 127.763 137.019 127.425 137.29C127.086 137.562 126.836 137.918 126.674 138.359C126.511 138.8 126.43 139.276 126.43 139.786C126.43 140.296 126.511 140.77 126.674 141.208C126.836 141.645 127.086 141.998 127.425 142.267C127.763 142.535 128.193 142.67 128.717 142.67ZM139.079 139.209V140.303H134.863V139.209H139.079ZM135.142 135.928V143.564H133.968V135.928H135.142ZM139.974 135.928V143.564H138.801V135.928H139.974ZM143.29 141.834L146.969 135.928H148.321V143.564H147.148V137.658L143.489 143.564H142.117V135.928H143.29V141.834ZM156.357 135.928V143.564H155.183V135.928H156.357ZM155.899 139.567V140.661C155.634 140.76 155.371 140.848 155.109 140.925C154.847 140.997 154.572 141.055 154.284 141.099C153.995 141.138 153.679 141.158 153.334 141.158C152.469 141.158 151.775 140.925 151.251 140.457C150.731 139.99 150.47 139.289 150.47 138.354V135.908H151.644V138.354C151.644 138.745 151.718 139.067 151.867 139.319C152.017 139.571 152.219 139.758 152.474 139.881C152.729 140.003 153.016 140.064 153.334 140.064C153.831 140.064 154.28 140.02 154.681 139.93C155.086 139.837 155.492 139.716 155.899 139.567ZM163.62 139.209V140.303H159.404V139.209H163.62ZM159.683 135.928V143.564H158.509V135.928H159.683ZM164.515 135.928V143.564H163.342V135.928H164.515ZM169.76 143.724C169.071 143.724 168.466 143.559 167.945 143.231C167.428 142.903 167.024 142.444 166.732 141.854C166.444 141.264 166.3 140.575 166.3 139.786C166.3 138.991 166.444 138.296 166.732 137.703C167.024 137.11 167.428 136.649 167.945 136.321C168.466 135.993 169.071 135.829 169.76 135.829C170.45 135.829 171.053 135.993 171.57 136.321C172.09 136.649 172.494 137.11 172.783 137.703C173.075 138.296 173.22 138.991 173.22 139.786C173.22 140.575 173.075 141.264 172.783 141.854C172.494 142.444 172.09 142.903 171.57 143.231C171.053 143.559 170.45 143.724 169.76 143.724ZM169.76 142.67C170.284 142.67 170.715 142.535 171.053 142.267C171.391 141.998 171.641 141.645 171.803 141.208C171.966 140.77 172.047 140.296 172.047 139.786C172.047 139.276 171.966 138.8 171.803 138.359C171.641 137.918 171.391 137.562 171.053 137.29C170.715 137.019 170.284 136.883 169.76 136.883C169.236 136.883 168.806 137.019 168.468 137.29C168.129 137.562 167.879 137.918 167.717 138.359C167.554 138.8 167.473 139.276 167.473 139.786C167.473 140.296 167.554 140.77 167.717 141.208C167.879 141.645 168.129 141.998 168.468 142.267C168.806 142.535 169.236 142.67 169.76 142.67ZM32.2472 158.834L35.9261 152.928H37.2784V160.564H36.1051V154.658L32.446 160.564H31.0739V152.928H32.2472V158.834ZM43.3649 160.564V152.928H46.487C47.309 152.928 47.9619 153.114 48.4458 153.485C48.9297 153.856 49.1717 154.347 49.1717 154.956C49.1717 155.421 49.0342 155.78 48.7591 156.035C48.484 156.287 48.131 156.458 47.7001 156.547C47.9818 156.587 48.2553 156.687 48.5204 156.846C48.7889 157.005 49.0109 157.224 49.1866 157.502C49.3623 157.777 49.4501 158.115 49.4501 158.516C49.4501 158.907 49.3507 159.257 49.1518 159.565C48.9529 159.873 48.6679 160.117 48.2967 160.296C47.9255 160.475 47.4814 160.564 46.9643 160.564H43.3649ZM44.4785 159.491H46.9643C47.3687 159.491 47.6852 159.394 47.9139 159.202C48.1426 159.01 48.2569 158.748 48.2569 158.417C48.2569 158.022 48.1426 157.712 47.9139 157.487C47.6852 157.258 47.3687 157.144 46.9643 157.144H44.4785V159.491ZM44.4785 156.13H46.487C46.8019 156.13 47.072 156.087 47.2974 156.001C47.5228 155.911 47.6951 155.785 47.8145 155.623C47.9371 155.457 47.9984 155.261 47.9984 155.036C47.9984 154.715 47.8642 154.463 47.5957 154.28C47.3272 154.095 46.9577 154.002 46.487 154.002H44.4785V156.13ZM58.3654 160.724C57.6296 160.724 56.9949 160.561 56.4613 160.236C55.931 159.908 55.5217 159.451 55.2333 158.864C54.9483 158.274 54.8058 157.588 54.8058 156.806C54.8058 156.024 54.9483 155.334 55.2333 154.738C55.5217 154.138 55.9227 153.671 56.4364 153.336C56.9535 152.998 57.5567 152.829 58.2461 152.829C58.6438 152.829 59.0366 152.895 59.4244 153.028C59.8121 153.16 60.1651 153.376 60.4833 153.674C60.8015 153.969 61.055 154.36 61.244 154.847C61.4329 155.334 61.5273 155.934 61.5273 156.647V157.144H55.641V156.13H60.3342C60.3342 155.699 60.248 155.314 60.0756 154.976C59.9066 154.638 59.6647 154.372 59.3498 154.176C59.0382 153.98 58.6703 153.883 58.2461 153.883C57.7788 153.883 57.3744 153.999 57.033 154.231C56.695 154.459 56.4348 154.758 56.2525 155.126C56.0702 155.493 55.979 155.888 55.979 156.309V156.985C55.979 157.562 56.0785 158.05 56.2773 158.452C56.4795 158.849 56.7596 159.153 57.1175 159.361C57.4755 159.567 57.8915 159.67 58.3654 159.67C58.6737 159.67 58.9521 159.626 59.2006 159.54C59.4525 159.451 59.6696 159.318 59.8519 159.143C60.0342 158.964 60.1751 158.742 60.2745 158.476L61.408 158.795C61.2887 159.179 61.0882 159.517 60.8065 159.809C60.5247 160.097 60.1767 160.323 59.7624 160.485C59.3481 160.644 58.8825 160.724 58.3654 160.724ZM62.4968 162.752V159.471H63.1332C63.2889 159.308 63.4232 159.133 63.5359 158.944C63.6486 158.755 63.7463 158.531 63.8292 158.273C63.9154 158.011 63.9883 157.693 64.0479 157.318C64.1076 156.94 64.1606 156.484 64.207 155.951L64.4656 152.928H69.3178V159.471H70.4911V162.752H69.3178V160.564H63.6701V162.752H62.4968ZM64.4656 159.471H68.1445V154.022H65.5593L65.3604 155.951C65.2776 156.75 65.1748 157.447 65.0522 158.044C64.9296 158.64 64.734 159.116 64.4656 159.471ZM73.2218 158.834L76.9007 152.928H78.253V160.564H77.0797V154.658L73.4206 160.564H72.0485V152.928H73.2218V158.834ZM85.5128 156.209V157.303H81.2969V156.209H85.5128ZM81.5753 152.928V160.564H80.402V152.928H81.5753ZM86.4077 152.928V160.564H85.2344V152.928H86.4077ZM91.6527 160.724C90.9633 160.724 90.3584 160.559 89.8381 160.231C89.321 159.903 88.9167 159.444 88.625 158.854C88.3366 158.264 88.1925 157.575 88.1925 156.786C88.1925 155.991 88.3366 155.296 88.625 154.703C88.9167 154.11 89.321 153.649 89.8381 153.321C90.3584 152.993 90.9633 152.829 91.6527 152.829C92.3421 152.829 92.9453 152.993 93.4624 153.321C93.9827 153.649 94.3871 154.11 94.6754 154.703C94.9671 155.296 95.1129 155.991 95.1129 156.786C95.1129 157.575 94.9671 158.264 94.6754 158.854C94.3871 159.444 93.9827 159.903 93.4624 160.231C92.9453 160.559 92.3421 160.724 91.6527 160.724ZM91.6527 159.67C92.1764 159.67 92.6072 159.535 92.9453 159.267C93.2834 158.998 93.5336 158.645 93.696 158.208C93.8584 157.77 93.9396 157.296 93.9396 156.786C93.9396 156.276 93.8584 155.8 93.696 155.359C93.5336 154.918 93.2834 154.562 92.9453 154.29C92.6072 154.019 92.1764 153.883 91.6527 153.883C91.129 153.883 90.6982 154.019 90.3601 154.29C90.022 154.562 89.7718 154.918 89.6094 155.359C89.447 155.8 89.3658 156.276 89.3658 156.786C89.3658 157.296 89.447 157.77 89.6094 158.208C89.7718 158.645 90.022 158.998 90.3601 159.267C90.6982 159.535 91.129 159.67 91.6527 159.67ZM101.08 158.974L103.745 152.928H104.858L101.557 160.564H100.603L97.3613 152.928H98.4551L101.08 158.974ZM98.0772 152.928V160.564H96.9039V152.928H98.0772ZM104.083 160.564V152.928H105.256V160.564H104.083ZM111.341 163.428V152.928H112.475V154.141H112.614C112.7 154.009 112.82 153.84 112.972 153.634C113.128 153.425 113.35 153.24 113.638 153.077C113.93 152.912 114.324 152.829 114.822 152.829C115.465 152.829 116.031 152.989 116.522 153.311C117.012 153.632 117.395 154.088 117.67 154.678C117.945 155.268 118.083 155.964 118.083 156.766C118.083 157.575 117.945 158.276 117.67 158.869C117.395 159.459 117.014 159.916 116.527 160.241C116.04 160.563 115.478 160.724 114.841 160.724C114.351 160.724 113.958 160.642 113.663 160.48C113.368 160.314 113.141 160.127 112.982 159.918C112.823 159.706 112.7 159.53 112.614 159.391H112.515V163.428H111.341ZM112.495 156.746C112.495 157.323 112.579 157.832 112.748 158.273C112.917 158.71 113.164 159.053 113.489 159.302C113.814 159.547 114.212 159.67 114.682 159.67C115.173 159.67 115.582 159.54 115.91 159.282C116.242 159.02 116.49 158.669 116.656 158.228C116.825 157.784 116.91 157.29 116.91 156.746C116.91 156.209 116.827 155.725 116.661 155.295C116.499 154.86 116.252 154.517 115.92 154.265C115.592 154.01 115.18 153.883 114.682 153.883C114.205 153.883 113.804 154.004 113.479 154.246C113.154 154.484 112.909 154.819 112.743 155.25C112.578 155.677 112.495 156.176 112.495 156.746ZM121.046 158.834L124.725 152.928H126.077V160.564H124.904V154.658L121.245 160.564H119.873V152.928H121.046V158.834ZM127.187 154.022V152.928H133.392V154.022H130.886V160.564H129.713V154.022H127.187ZM139.279 158.974L141.944 152.928H143.058L139.757 160.564H138.802L135.561 152.928H136.654L139.279 158.974ZM136.276 152.928V160.564H135.103V152.928H136.276ZM142.282 160.564V152.928H143.455V160.564H142.282ZM148.805 160.724C148.069 160.724 147.434 160.561 146.901 160.236C146.37 159.908 145.961 159.451 145.673 158.864C145.388 158.274 145.245 157.588 145.245 156.806C145.245 156.024 145.388 155.334 145.673 154.738C145.961 154.138 146.362 153.671 146.876 153.336C147.393 152.998 147.996 152.829 148.686 152.829C149.083 152.829 149.476 152.895 149.864 153.028C150.252 153.16 150.605 153.376 150.923 153.674C151.241 153.969 151.494 154.36 151.683 154.847C151.872 155.334 151.967 155.934 151.967 156.647V157.144H146.08V156.13H150.774C150.774 155.699 150.687 155.314 150.515 154.976C150.346 154.638 150.104 154.372 149.789 154.176C149.478 153.98 149.11 153.883 148.686 153.883C148.218 153.883 147.814 153.999 147.472 154.231C147.134 154.459 146.874 154.758 146.692 155.126C146.51 155.493 146.419 155.888 146.419 156.309V156.985C146.419 157.562 146.518 158.05 146.717 158.452C146.919 158.849 147.199 159.153 147.557 159.361C147.915 159.567 148.331 159.67 148.805 159.67C149.113 159.67 149.392 159.626 149.64 159.54C149.892 159.451 150.109 159.318 150.291 159.143C150.474 158.964 150.615 158.742 150.714 158.476L151.847 158.795C151.728 159.179 151.528 159.517 151.246 159.809C150.964 160.097 150.616 160.323 150.202 160.485C149.788 160.644 149.322 160.724 148.805 160.724Z" fill="black"/>
<rect x="210" y="0.0644531" width="150" height="124" rx="15" fill="#E8E8E8"/>
<path d="M276.4 24.0425L275.41 24.4385L272.872 20.7845H271.198V31.8725L273.214 32.3945L272.62 33.5645H266.248V32.5565L267.94 31.2245V20.7845H266.338L263.8 24.4385L262.81 24.0425V19.0925L264.106 19.4165H275.104L276.4 19.0925V24.0425ZM282.254 23.6825C283.514 23.6825 284.486 24.1625 285.17 25.1225C285.866 26.0825 286.202 27.4145 286.178 29.1185H279.698C279.818 29.8505 280.076 30.4385 280.472 30.8825C280.868 31.3145 281.384 31.5305 282.02 31.5305C282.86 31.5305 284.066 31.1105 285.638 30.2705L286.178 31.2965L283.442 33.4745C282.734 33.6545 281.912 33.7445 280.976 33.7445C280.1 33.7445 279.308 33.5405 278.6 33.1325C277.904 32.7125 277.358 32.1425 276.962 31.4225C276.578 30.7025 276.386 29.9045 276.386 29.0285C276.386 28.0805 276.692 27.1985 277.304 26.3825C277.916 25.5545 278.678 24.9005 279.59 24.4205C280.514 23.9285 281.402 23.6825 282.254 23.6825ZM281.264 25.7705C280.736 25.7705 280.34 25.9505 280.076 26.3105C279.812 26.6585 279.668 27.1985 279.644 27.9305H283.082C282.986 27.1865 282.806 26.6405 282.542 26.2925C282.29 25.9445 281.858 25.7705 281.246 25.7705H281.264ZM298.207 33.6005H294.751L292.213 30.0725L290.629 31.5305L292.249 32.4305L291.655 33.6005H287.497V32.5925L291.457 29.0465L289.081 25.9505L287.353 25.0505L287.929 23.8805H291.403L293.995 27.3365L295.507 25.9325L293.887 25.0325L294.463 23.8625H298.639V24.8705L294.697 28.3985L296.911 31.2785L298.801 32.4305L298.207 33.6005ZM305.895 33.6005C305.487 33.6965 305.001 33.7445 304.437 33.7445C303.285 33.7445 302.439 33.4865 301.899 32.9705C301.371 32.4425 301.107 31.6325 301.107 30.5405V25.5905H299.163V24.6365L303.033 20.4245H304.167V24.4025H307.407V25.5905H304.167V30.4145C304.167 31.2425 304.635 31.6565 305.571 31.6565C305.811 31.6565 306.045 31.6205 306.273 31.5485C306.513 31.4645 306.813 31.3265 307.173 31.1345L307.713 32.1605L305.895 33.6005Z" fill="black"/>
<path d="M225.494 70.7037C224.838 70.7037 224.253 70.591 223.739 70.3656C223.229 70.1402 222.823 69.827 222.521 69.426C222.223 69.0216 222.061 68.5526 222.034 68.019H223.287C223.313 68.3471 223.426 68.6305 223.625 68.8691C223.824 69.1045 224.084 69.2868 224.406 69.416C224.727 69.5453 225.083 69.6099 225.474 69.6099C225.912 69.6099 226.3 69.5337 226.638 69.3812C226.976 69.2288 227.241 69.0166 227.433 68.7449C227.625 68.4731 227.722 68.1582 227.722 67.8002C227.722 67.4257 227.629 67.0959 227.443 66.8109C227.258 66.5225 226.986 66.2972 226.628 66.1348C226.27 65.9724 225.832 65.8912 225.315 65.8912H224.5V64.7974H225.315C225.72 64.7974 226.074 64.7245 226.379 64.5787C226.688 64.4328 226.928 64.2273 227.1 63.9622C227.276 63.697 227.364 63.3855 227.364 63.0275C227.364 62.6828 227.287 62.3829 227.135 62.1277C226.982 61.8725 226.767 61.6736 226.489 61.5311C226.214 61.3886 225.889 61.3173 225.514 61.3173C225.163 61.3173 224.831 61.3819 224.52 61.5112C224.212 61.6371 223.96 61.8211 223.764 62.063C223.569 62.3017 223.463 62.59 223.446 62.9281H222.253C222.273 62.3945 222.433 61.9271 222.735 61.5261C223.037 61.1217 223.431 60.8069 223.918 60.5815C224.409 60.3561 224.947 60.2434 225.534 60.2434C226.164 60.2434 226.704 60.371 227.155 60.6262C227.606 60.8781 227.952 61.2112 228.194 61.6255C228.436 62.0398 228.557 62.4873 228.557 62.9679C228.557 63.5413 228.406 64.0301 228.104 64.4345C227.806 64.8388 227.4 65.1189 226.886 65.2747V65.3542C227.529 65.4603 228.031 65.7337 228.393 66.1745C228.754 66.612 228.935 67.1539 228.935 67.8002C228.935 68.3538 228.784 68.8509 228.482 69.2917C228.184 69.7292 227.776 70.0739 227.259 70.3258C226.742 70.5777 226.154 70.7037 225.494 70.7037ZM230.173 72.752V69.4707H230.809C230.965 69.3083 231.099 69.1326 231.212 68.9437C231.324 68.7548 231.422 68.5311 231.505 68.2725C231.591 68.0107 231.664 67.6925 231.724 67.318C231.783 66.9402 231.836 66.4844 231.883 65.9508L232.141 62.9281H236.994V69.4707H238.167V72.752H236.994V70.5645H231.346V72.752H230.173ZM232.141 69.4707H235.82V64.0218H233.235L233.036 65.9508C232.953 66.7496 232.851 67.4473 232.728 68.0439C232.605 68.6404 232.41 69.1161 232.141 69.4707ZM242.926 70.7235C242.19 70.7235 241.555 70.5611 241.022 70.2363C240.492 69.9082 240.082 69.4508 239.794 68.8642C239.509 68.2742 239.366 67.5881 239.366 66.8059C239.366 66.0237 239.509 65.3343 239.794 64.7377C240.082 64.1378 240.483 63.6705 240.997 63.3358C241.514 62.9977 242.117 62.8287 242.807 62.8287C243.204 62.8287 243.597 62.8949 243.985 63.0275C244.373 63.1601 244.726 63.3755 245.044 63.6738C245.362 63.9688 245.616 64.3599 245.805 64.8471C245.993 65.3343 246.088 65.9342 246.088 66.6468V67.144H240.202V66.1298H244.895C244.895 65.6989 244.809 65.3145 244.636 64.9764C244.467 64.6383 244.225 64.3715 243.91 64.176C243.599 63.9804 243.231 63.8826 242.807 63.8826C242.339 63.8826 241.935 63.9986 241.594 64.2306C241.256 64.4593 240.995 64.7576 240.813 65.1255C240.631 65.4934 240.54 65.8878 240.54 66.3088V66.9849C240.54 67.5616 240.639 68.0505 240.838 68.4515C241.04 68.8493 241.32 69.1525 241.678 69.3613C242.036 69.5668 242.452 69.6696 242.926 69.6696C243.234 69.6696 243.513 69.6265 243.761 69.5403C244.013 69.4508 244.23 69.3182 244.412 69.1426C244.595 68.9636 244.736 68.7415 244.835 68.4764L245.969 68.7946C245.849 69.179 245.649 69.5171 245.367 69.8088C245.085 70.0971 244.737 70.3225 244.323 70.4849C243.909 70.644 243.443 70.7235 242.926 70.7235ZM250.975 70.7235C250.259 70.7235 249.643 70.5545 249.126 70.2164C248.608 69.8784 248.211 69.4127 247.932 68.8194C247.654 68.2261 247.515 67.5484 247.515 66.786C247.515 66.0105 247.657 65.3261 247.942 64.7328C248.231 64.1362 248.632 63.6705 249.145 63.3358C249.662 62.9977 250.266 62.8287 250.955 62.8287C251.492 62.8287 251.976 62.9281 252.407 63.127C252.838 63.3258 253.191 63.6042 253.466 63.9622C253.741 64.3201 253.912 64.7377 253.978 65.215H252.805C252.715 64.867 252.516 64.5588 252.208 64.2903C251.903 64.0185 251.492 63.8826 250.975 63.8826C250.518 63.8826 250.117 64.002 249.772 64.2406C249.43 64.4759 249.164 64.809 248.971 65.2399C248.782 65.6674 248.688 66.1696 248.688 66.7463C248.688 67.3362 248.781 67.85 248.966 68.2875C249.155 68.725 249.421 69.0647 249.762 69.3066C250.107 69.5486 250.511 69.6696 250.975 69.6696C251.28 69.6696 251.557 69.6165 251.805 69.5105C252.054 69.4044 252.264 69.252 252.437 69.0531C252.609 68.8542 252.732 68.6156 252.805 68.3372H253.978C253.912 68.7879 253.747 69.194 253.486 69.5552C253.227 69.9132 252.884 70.1982 252.456 70.4103C252.032 70.6191 251.538 70.7235 250.975 70.7235ZM256.707 65.6923H258.895C259.79 65.6923 260.474 65.9193 260.948 66.3734C261.422 66.8275 261.659 67.4025 261.659 68.0985C261.659 68.5559 261.553 68.9719 261.341 69.3464C261.129 69.7176 260.817 70.0143 260.406 70.2363C259.995 70.4551 259.491 70.5645 258.895 70.5645H255.693V62.9281H256.866V69.4707H258.895C259.359 69.4707 259.74 69.3481 260.038 69.1028C260.336 68.8575 260.486 68.5427 260.486 68.1582C260.486 67.7538 260.336 67.4241 260.038 67.1689C259.74 66.9136 259.359 66.786 258.895 66.786H256.707V65.6923ZM270.584 70.7235C269.848 70.7235 269.214 70.5611 268.68 70.2363C268.15 69.9082 267.74 69.4508 267.452 68.8642C267.167 68.2742 267.025 67.5881 267.025 66.8059C267.025 66.0237 267.167 65.3343 267.452 64.7377C267.74 64.1378 268.141 63.6705 268.655 63.3358C269.172 62.9977 269.775 62.8287 270.465 62.8287C270.863 62.8287 271.255 62.8949 271.643 63.0275C272.031 63.1601 272.384 63.3755 272.702 63.6738C273.02 63.9688 273.274 64.3599 273.463 64.8471C273.652 65.3343 273.746 65.9342 273.746 66.6468V67.144H267.86V66.1298H272.553C272.553 65.6989 272.467 65.3145 272.294 64.9764C272.125 64.6383 271.883 64.3715 271.569 64.176C271.257 63.9804 270.889 63.8826 270.465 63.8826C269.998 63.8826 269.593 63.9986 269.252 64.2306C268.914 64.4593 268.654 64.7576 268.471 65.1255C268.289 65.4934 268.198 65.8878 268.198 66.3088V66.9849C268.198 67.5616 268.297 68.0505 268.496 68.4515C268.698 68.8493 268.978 69.1525 269.336 69.3613C269.694 69.5668 270.11 69.6696 270.584 69.6696C270.892 69.6696 271.171 69.6265 271.419 69.5403C271.671 69.4508 271.888 69.3182 272.071 69.1426C272.253 68.9636 272.394 68.7415 272.493 68.4764L273.627 68.7946C273.507 69.179 273.307 69.5171 273.025 69.8088C272.743 70.0971 272.395 70.3225 271.981 70.4849C271.567 70.644 271.101 70.7235 270.584 70.7235ZM278.633 70.7235C277.917 70.7235 277.301 70.5545 276.784 70.2164C276.267 69.8784 275.869 69.4127 275.591 68.8194C275.312 68.2261 275.173 67.5484 275.173 66.786C275.173 66.0105 275.315 65.3261 275.6 64.7328C275.889 64.1362 276.29 63.6705 276.804 63.3358C277.321 62.9977 277.924 62.8287 278.613 62.8287C279.15 62.8287 279.634 62.9281 280.065 63.127C280.496 63.3258 280.849 63.6042 281.124 63.9622C281.399 64.3201 281.57 64.7377 281.636 65.215H280.463C280.373 64.867 280.174 64.5588 279.866 64.2903C279.561 64.0185 279.15 63.8826 278.633 63.8826C278.176 63.8826 277.775 64.002 277.43 64.2406C277.089 64.4759 276.822 64.809 276.63 65.2399C276.441 65.6674 276.346 66.1696 276.346 66.7463C276.346 67.3362 276.439 67.85 276.625 68.2875C276.814 68.725 277.079 69.0647 277.42 69.3066C277.765 69.5486 278.169 69.6696 278.633 69.6696C278.938 69.6696 279.215 69.6165 279.463 69.5105C279.712 69.4044 279.922 69.252 280.095 69.0531C280.267 68.8542 280.39 68.6156 280.463 68.3372H281.636C281.57 68.7879 281.406 69.194 281.144 69.5552C280.885 69.9132 280.542 70.1982 280.115 70.4103C279.69 70.6191 279.197 70.7235 278.633 70.7235ZM282.75 64.0218V62.9281H288.954V64.0218H286.449V70.5645H285.275V64.0218H282.75ZM291.68 65.6923H293.867C294.762 65.6923 295.447 65.9193 295.921 66.3734C296.395 66.8275 296.632 67.4025 296.632 68.0985C296.632 68.5559 296.526 68.9719 296.313 69.3464C296.101 69.7176 295.79 70.0143 295.379 70.2363C294.968 70.4551 294.464 70.5645 293.867 70.5645H290.666V62.9281H291.839V69.4707H293.867C294.331 69.4707 294.713 69.3481 295.011 69.1028C295.309 68.8575 295.458 68.5427 295.458 68.1582C295.458 67.7538 295.309 67.4241 295.011 67.1689C294.713 66.9136 294.331 66.786 293.867 66.786H291.68V65.6923ZM301.918 64.0218V62.9281H308.122V64.0218H305.616V70.5645H304.443V64.0218H301.918ZM312.639 70.7235C311.903 70.7235 311.268 70.5611 310.735 70.2363C310.204 69.9082 309.795 69.4508 309.507 68.8642C309.222 68.2742 309.079 67.5881 309.079 66.8059C309.079 66.0237 309.222 65.3343 309.507 64.7377C309.795 64.1378 310.196 63.6705 310.71 63.3358C311.227 62.9977 311.83 62.8287 312.52 62.8287C312.917 62.8287 313.31 62.8949 313.698 63.0275C314.086 63.1601 314.439 63.3755 314.757 63.6738C315.075 63.9688 315.328 64.3599 315.517 64.8471C315.706 65.3343 315.801 65.9342 315.801 66.6468V67.144H309.914V66.1298H314.608C314.608 65.6989 314.521 65.3145 314.349 64.9764C314.18 64.6383 313.938 64.3715 313.623 64.176C313.312 63.9804 312.944 63.8826 312.52 63.8826C312.052 63.8826 311.648 63.9986 311.306 64.2306C310.968 64.4593 310.708 64.7576 310.526 65.1255C310.344 65.4934 310.252 65.8878 310.252 66.3088V66.9849C310.252 67.5616 310.352 68.0505 310.551 68.4515C310.753 68.8493 311.033 69.1525 311.391 69.3613C311.749 69.5668 312.165 69.6696 312.639 69.6696C312.947 69.6696 313.225 69.6265 313.474 69.5403C313.726 69.4508 313.943 69.3182 314.125 69.1426C314.308 68.9636 314.449 68.7415 314.548 68.4764L315.681 68.7946C315.562 69.179 315.362 69.5171 315.08 69.8088C314.798 70.0971 314.45 70.3225 314.036 70.4849C313.622 70.644 313.156 70.7235 312.639 70.7235ZM317.586 70.5645V62.9281H318.759V66.2491H319.534L322.279 62.9281H323.79L320.708 66.6071L323.83 70.5645H322.319L319.813 67.3429H318.759V70.5645H317.586ZM327.893 70.7235C327.177 70.7235 326.561 70.5545 326.044 70.2164C325.526 69.8784 325.129 69.4127 324.85 68.8194C324.572 68.2261 324.433 67.5484 324.433 66.786C324.433 66.0105 324.575 65.3261 324.86 64.7328C325.149 64.1362 325.55 63.6705 326.063 63.3358C326.58 62.9977 327.184 62.8287 327.873 62.8287C328.41 62.8287 328.894 62.9281 329.325 63.127C329.756 63.3258 330.109 63.6042 330.384 63.9622C330.659 64.3201 330.829 64.7377 330.896 65.215H329.722C329.633 64.867 329.434 64.5588 329.126 64.2903C328.821 64.0185 328.41 63.8826 327.893 63.8826C327.436 63.8826 327.035 64.002 326.69 64.2406C326.348 64.4759 326.082 64.809 325.889 65.2399C325.7 65.6674 325.606 66.1696 325.606 66.7463C325.606 67.3362 325.699 67.85 325.884 68.2875C326.073 68.725 326.338 69.0647 326.68 69.3066C327.025 69.5486 327.429 69.6696 327.893 69.6696C328.198 69.6696 328.475 69.6165 328.723 69.5105C328.972 69.4044 329.182 69.252 329.355 69.0531C329.527 68.8542 329.65 68.6156 329.722 68.3372H330.896C330.829 68.7879 330.665 69.194 330.404 69.5552C330.145 69.9132 329.802 70.1982 329.374 70.4103C328.95 70.6191 328.456 70.7235 327.893 70.7235ZM332.009 64.0218V62.9281H338.214V64.0218H335.708V70.5645H334.535V64.0218H332.009Z" fill="black"/>
<rect x="245" y="83.5645" width="80" height="34" rx="10" fill="#B2B2CA"/>
<path d="M254.707 93.5996C255.124 93.7038 255.521 93.7819 255.898 93.834C256.276 93.8861 256.608 93.9251 256.895 93.9512C257.233 93.9902 257.546 94.0033 257.832 93.9902C258.197 93.9902 258.652 93.9577 259.199 93.8926C259.759 93.8275 260.332 93.7689 260.918 93.7168C261.504 93.6517 262.064 93.6126 262.598 93.5996C263.145 93.5736 263.587 93.6061 263.926 93.6973C264.264 93.7754 264.609 93.8991 264.961 94.0684C265.326 94.2246 265.658 94.4264 265.957 94.6738C266.257 94.9082 266.504 95.1882 266.699 95.5137C266.895 95.8262 267.005 96.1842 267.031 96.5879C267.018 97.0957 266.901 97.571 266.68 98.0137C266.497 98.3913 266.191 98.7819 265.762 99.1855C265.332 99.5762 264.714 99.8757 263.906 100.084C264.31 100.136 264.655 100.227 264.941 100.357C265.241 100.475 265.495 100.618 265.703 100.787C265.924 100.943 266.1 101.119 266.23 101.314C266.374 101.51 266.484 101.705 266.562 101.9C266.758 102.356 266.849 102.864 266.836 103.424C266.758 104.153 266.608 104.732 266.387 105.162C266.178 105.592 265.938 105.924 265.664 106.158C265.391 106.393 265.111 106.555 264.824 106.646C264.538 106.738 264.277 106.809 264.043 106.861C263.809 106.913 263.522 106.939 263.184 106.939C262.845 106.939 262.48 106.933 262.09 106.92C261.712 106.894 261.322 106.874 260.918 106.861C260.514 106.835 260.13 106.835 259.766 106.861C259.466 106.887 259.102 106.913 258.672 106.939C258.307 106.965 257.852 106.998 257.305 107.037C256.758 107.063 256.12 107.096 255.391 107.135C255.534 107.031 255.651 106.913 255.742 106.783C255.846 106.64 255.931 106.516 255.996 106.412C256.061 106.282 256.12 106.158 256.172 106.041C256.211 105.937 256.243 105.65 256.27 105.182C256.296 104.713 256.315 104.153 256.328 103.502C256.341 102.838 256.348 102.128 256.348 101.373C256.361 100.605 256.354 99.8691 256.328 99.166C256.315 98.4499 256.289 97.8184 256.25 97.2715C256.224 96.7116 256.185 96.3079 256.133 96.0605C256.055 95.7871 255.951 95.5072 255.82 95.2207C255.716 94.9733 255.566 94.7064 255.371 94.4199C255.189 94.1335 254.967 93.86 254.707 93.5996ZM258.828 95.5918C258.828 95.6439 258.835 95.8197 258.848 96.1191C258.861 96.3796 258.874 96.7832 258.887 97.3301C258.913 97.8639 258.945 98.6257 258.984 99.6152C259.31 99.7585 259.629 99.8366 259.941 99.8496C260.254 99.8496 260.534 99.8366 260.781 99.8105C261.068 99.7715 261.341 99.7064 261.602 99.6152C261.953 99.472 262.227 99.2376 262.422 98.9121C262.63 98.5866 262.767 98.248 262.832 97.8965C262.91 97.5319 262.93 97.1934 262.891 96.8809C262.852 96.5553 262.767 96.321 262.637 96.1777C262.389 95.9564 262.083 95.7741 261.719 95.6309C261.406 95.5137 261.009 95.4355 260.527 95.3965C260.059 95.3444 259.492 95.4095 258.828 95.5918ZM258.73 104.85C259.212 105.097 259.635 105.26 260 105.338C260.365 105.416 260.671 105.455 260.918 105.455C261.204 105.455 261.452 105.416 261.66 105.338C261.908 105.221 262.148 105.064 262.383 104.869C262.63 104.661 262.812 104.42 262.93 104.146C263.06 103.86 263.112 103.548 263.086 103.209C263.06 102.857 262.91 102.473 262.637 102.057C262.389 101.757 262.09 101.523 261.738 101.354C261.426 101.21 261.029 101.119 260.547 101.08C260.078 101.041 259.499 101.152 258.809 101.412L258.73 104.85ZM268.027 98.5801C268.366 98.6452 268.659 98.6973 268.906 98.7363C269.167 98.7624 269.388 98.7884 269.57 98.8145C269.779 98.8405 269.961 98.86 270.117 98.873C270.273 98.8861 270.456 98.8991 270.664 98.9121C271.016 98.9251 271.51 98.9251 272.148 98.9121C271.771 98.8861 271.471 98.9837 271.25 99.2051C271.042 99.4134 270.885 99.6543 270.781 99.9277C270.651 100.253 270.579 100.631 270.566 101.061C270.54 101.633 270.553 102.154 270.605 102.623C270.671 103.079 270.781 103.469 270.938 103.795C271.107 104.107 271.328 104.342 271.602 104.498C271.875 104.641 272.227 104.68 272.656 104.615C273.086 104.55 273.411 104.4 273.633 104.166C273.867 103.919 274.036 103.619 274.141 103.268C274.245 102.903 274.303 102.493 274.316 102.037C274.342 101.581 274.362 101.106 274.375 100.611C274.375 100.117 274.368 99.765 274.355 99.5566C274.355 99.3353 274.349 99.1921 274.336 99.127C274.323 99.0618 274.303 99.0358 274.277 99.0488C274.251 99.0488 274.219 99.0163 274.18 98.9512C274.154 98.8991 274.115 98.847 274.062 98.7949C274.023 98.7428 273.971 98.6842 273.906 98.6191C273.841 98.541 273.77 98.4629 273.691 98.3848C274.03 98.3978 274.329 98.4108 274.59 98.4238C274.863 98.4238 275.091 98.4303 275.273 98.4434C275.482 98.4564 275.664 98.4694 275.82 98.4824C275.964 98.4954 276.152 98.515 276.387 98.541C276.582 98.5671 276.836 98.5931 277.148 98.6191C277.461 98.6452 277.832 98.6842 278.262 98.7363C277.962 98.8014 277.721 98.8991 277.539 99.0293C277.357 99.1595 277.214 99.2897 277.109 99.4199C276.992 99.5632 276.908 99.7194 276.855 99.8887C276.816 100.11 276.816 100.449 276.855 100.904C276.882 101.308 276.947 101.861 277.051 102.564C277.155 103.268 277.318 104.192 277.539 105.338L275.996 106.256L275.684 103.658C275.306 104.296 274.902 104.791 274.473 105.143C274.056 105.481 273.665 105.729 273.301 105.885C272.871 106.067 272.454 106.171 272.051 106.197C271.517 106.197 271.055 106.165 270.664 106.1C270.286 106.021 269.961 105.924 269.688 105.807C269.414 105.689 269.193 105.559 269.023 105.416C268.867 105.26 268.75 105.104 268.672 104.947C268.49 104.622 268.392 104.205 268.379 103.697C268.366 103.176 268.385 102.662 268.438 102.154C268.49 101.633 268.548 101.158 268.613 100.729C268.678 100.299 268.698 100.006 268.672 99.8496C268.646 99.7324 268.607 99.6022 268.555 99.459C268.503 99.3418 268.438 99.2116 268.359 99.0684C268.281 98.9121 268.171 98.7493 268.027 98.5801ZM278.32 95.2598C278.711 95.2988 279.036 95.3314 279.297 95.3574C279.57 95.3835 279.792 95.403 279.961 95.416C280.156 95.429 280.312 95.4355 280.43 95.4355C280.547 95.4486 280.703 95.4486 280.898 95.4355C281.068 95.4225 281.289 95.4095 281.562 95.3965C281.836 95.3704 282.181 95.3314 282.598 95.2793C282.507 95.4095 282.435 95.5267 282.383 95.6309C282.331 95.722 282.285 95.8066 282.246 95.8848L282.129 96.1191C282.103 96.1973 282.077 96.2754 282.051 96.3535C282.025 96.4186 281.999 96.4967 281.973 96.5879C281.96 96.679 281.947 96.7767 281.934 96.8809H284.941L284.668 98.4629L281.914 98.3066C281.849 98.9707 281.803 99.485 281.777 99.8496C281.751 100.214 281.725 100.481 281.699 100.65L281.66 101.002C281.621 101.497 281.582 102.037 281.543 102.623C281.504 103.196 281.491 103.73 281.504 104.225C281.517 104.719 281.562 105.136 281.641 105.475C281.719 105.8 281.855 105.963 282.051 105.963C282.246 105.963 282.428 105.911 282.598 105.807C282.767 105.702 282.91 105.579 283.027 105.436C283.158 105.292 283.255 105.149 283.32 105.006C283.385 104.85 283.418 104.732 283.418 104.654C283.418 104.576 283.398 104.485 283.359 104.381C283.294 104.186 283.177 103.938 283.008 103.639C283.385 103.73 283.717 103.821 284.004 103.912C284.147 103.964 284.277 104.016 284.395 104.068C284.525 104.12 284.674 104.179 284.844 104.244C284.987 104.309 285.169 104.387 285.391 104.479C285.612 104.57 285.872 104.68 286.172 104.811C285.885 104.863 285.677 104.947 285.547 105.064C285.469 105.117 285.41 105.175 285.371 105.24C285.28 105.383 285.176 105.579 285.059 105.826C284.941 106.061 284.766 106.295 284.531 106.529C284.297 106.764 283.978 106.972 283.574 107.154C283.184 107.337 282.656 107.441 281.992 107.467C281.302 107.493 280.775 107.376 280.41 107.115C280.059 106.855 279.798 106.555 279.629 106.217C279.473 105.865 279.382 105.52 279.355 105.182C279.329 104.843 279.31 104.615 279.297 104.498C279.284 104.381 279.284 104.088 279.297 103.619C279.31 103.15 279.329 102.636 279.355 102.076C279.382 101.503 279.408 100.956 279.434 100.436C279.46 99.9017 279.473 99.5111 279.473 99.2637C279.473 99.1335 279.479 98.9967 279.492 98.8535C279.492 98.7363 279.492 98.6126 279.492 98.4824C279.505 98.3392 279.512 98.2025 279.512 98.0723L276.68 98.0527L276.562 96.9395L279.414 97.0176C279.388 96.8743 279.355 96.7441 279.316 96.627C279.29 96.4967 279.264 96.3926 279.238 96.3145C279.199 96.2233 279.16 96.1452 279.121 96.0801C279.069 96.015 279.01 95.9434 278.945 95.8652C278.88 95.8001 278.796 95.7155 278.691 95.6113C278.587 95.5072 278.464 95.39 278.32 95.2598ZM285.137 95.2598C285.527 95.2988 285.853 95.3314 286.113 95.3574C286.387 95.3835 286.608 95.403 286.777 95.416C286.973 95.429 287.129 95.4355 287.246 95.4355C287.363 95.4486 287.52 95.4486 287.715 95.4355C287.884 95.4225 288.105 95.4095 288.379 95.3965C288.652 95.3704 288.997 95.3314 289.414 95.2793C289.323 95.4095 289.251 95.5267 289.199 95.6309C289.147 95.722 289.102 95.8066 289.062 95.8848L288.945 96.1191C288.919 96.1973 288.893 96.2754 288.867 96.3535C288.841 96.4186 288.815 96.4967 288.789 96.5879C288.776 96.679 288.763 96.7767 288.75 96.8809H291.758L291.484 98.4629L288.73 98.3066C288.665 98.9707 288.62 99.485 288.594 99.8496C288.568 100.214 288.542 100.481 288.516 100.65L288.477 101.002C288.438 101.497 288.398 102.037 288.359 102.623C288.32 103.196 288.307 103.73 288.32 104.225C288.333 104.719 288.379 105.136 288.457 105.475C288.535 105.8 288.672 105.963 288.867 105.963C289.062 105.963 289.245 105.911 289.414 105.807C289.583 105.702 289.727 105.579 289.844 105.436C289.974 105.292 290.072 105.149 290.137 105.006C290.202 104.85 290.234 104.732 290.234 104.654C290.234 104.576 290.215 104.485 290.176 104.381C290.111 104.186 289.993 103.938 289.824 103.639C290.202 103.73 290.534 103.821 290.82 103.912C290.964 103.964 291.094 104.016 291.211 104.068C291.341 104.12 291.491 104.179 291.66 104.244C291.803 104.309 291.986 104.387 292.207 104.479C292.428 104.57 292.689 104.68 292.988 104.811C292.702 104.863 292.493 104.947 292.363 105.064C292.285 105.117 292.227 105.175 292.188 105.24C292.096 105.383 291.992 105.579 291.875 105.826C291.758 106.061 291.582 106.295 291.348 106.529C291.113 106.764 290.794 106.972 290.391 107.154C290 107.337 289.473 107.441 288.809 107.467C288.118 107.493 287.591 107.376 287.227 107.115C286.875 106.855 286.615 106.555 286.445 106.217C286.289 105.865 286.198 105.52 286.172 105.182C286.146 104.843 286.126 104.615 286.113 104.498C286.1 104.381 286.1 104.088 286.113 103.619C286.126 103.15 286.146 102.636 286.172 102.076C286.198 101.503 286.224 100.956 286.25 100.436C286.276 99.9017 286.289 99.5111 286.289 99.2637C286.289 99.1335 286.296 98.9967 286.309 98.8535C286.309 98.7363 286.309 98.6126 286.309 98.4824C286.322 98.3392 286.328 98.2025 286.328 98.0723L283.496 98.0527L283.379 96.9395L286.23 97.0176C286.204 96.8743 286.172 96.7441 286.133 96.627C286.107 96.4967 286.081 96.3926 286.055 96.3145C286.016 96.2233 285.977 96.1452 285.938 96.0801C285.885 96.015 285.827 95.9434 285.762 95.8652C285.697 95.8001 285.612 95.7155 285.508 95.6113C285.404 95.5072 285.28 95.39 285.137 95.2598ZM297.422 98.8145C297.76 98.8145 298.112 98.8796 298.477 99.0098C298.841 99.127 299.193 99.2832 299.531 99.4785C299.87 99.6608 300.176 99.8626 300.449 100.084C300.736 100.292 300.97 100.494 301.152 100.689C301.478 101.041 301.699 101.516 301.816 102.115C301.947 102.701 301.973 103.307 301.895 103.932C301.816 104.544 301.634 105.123 301.348 105.67C301.061 106.217 300.664 106.62 300.156 106.881C299.792 107.063 299.434 107.206 299.082 107.311C298.73 107.415 298.392 107.493 298.066 107.545C297.741 107.597 297.435 107.623 297.148 107.623C296.862 107.623 296.615 107.617 296.406 107.604C296.016 107.577 295.605 107.441 295.176 107.193C294.759 106.946 294.362 106.64 293.984 106.275C293.62 105.911 293.307 105.514 293.047 105.084C292.786 104.641 292.63 104.225 292.578 103.834C292.5 103.3 292.487 102.74 292.539 102.154C292.591 101.568 292.78 101.028 293.105 100.533C293.444 100.038 293.952 99.6283 294.629 99.3027C295.319 98.9772 296.25 98.8145 297.422 98.8145ZM296.777 106.393C296.921 106.419 297.116 106.386 297.363 106.295C297.611 106.191 297.852 106.028 298.086 105.807C298.333 105.585 298.548 105.305 298.73 104.967C298.926 104.615 299.043 104.192 299.082 103.697C299.121 103.215 299.121 102.773 299.082 102.369C299.056 101.965 298.997 101.614 298.906 101.314C298.815 101.002 298.711 100.748 298.594 100.553C298.477 100.357 298.353 100.221 298.223 100.143C298.001 100.025 297.734 99.9342 297.422 99.8691C297.109 99.791 296.842 99.804 296.621 99.9082C296.517 99.9603 296.387 100.071 296.23 100.24C296.074 100.41 295.918 100.624 295.762 100.885C295.605 101.132 295.462 101.419 295.332 101.744C295.215 102.07 295.13 102.408 295.078 102.76C295.026 103.111 295.013 103.489 295.039 103.893C295.078 104.296 295.163 104.68 295.293 105.045C295.423 105.396 295.605 105.702 295.84 105.963C296.087 106.21 296.4 106.354 296.777 106.393ZM303.438 105.416C303.529 104.986 303.594 104.609 303.633 104.283C303.685 103.945 303.724 103.665 303.75 103.443C303.776 103.183 303.789 102.962 303.789 102.779C303.776 102.558 303.763 102.298 303.75 101.998C303.75 101.686 303.737 101.38 303.711 101.08C303.698 100.768 303.678 100.494 303.652 100.26C303.626 100.012 303.594 99.8366 303.555 99.7324C303.503 99.6283 303.431 99.5176 303.34 99.4004C303.158 99.179 302.891 98.9642 302.539 98.7559C302.839 98.6908 303.092 98.6387 303.301 98.5996C303.522 98.5475 303.704 98.502 303.848 98.4629C304.004 98.4108 304.141 98.3652 304.258 98.3262C304.362 98.2871 304.486 98.248 304.629 98.209C304.746 98.1829 304.889 98.1504 305.059 98.1113C305.228 98.0723 305.423 98.0267 305.645 97.9746L305.586 99.752C306.003 99.2572 306.426 98.8861 306.855 98.6387C307.285 98.3913 307.689 98.2155 308.066 98.1113C308.496 97.9811 308.919 97.916 309.336 97.916C309.857 97.9421 310.339 98.0267 310.781 98.1699C311.237 98.3132 311.628 98.4824 311.953 98.6777C312.292 98.86 312.565 99.0553 312.773 99.2637C312.982 99.472 313.105 99.6543 313.145 99.8105C313.301 100.318 313.34 100.787 313.262 101.217C313.184 101.633 313.079 102.044 312.949 102.447C312.832 102.838 312.728 103.229 312.637 103.619C312.559 104.01 312.591 104.433 312.734 104.889C312.786 105.006 312.839 105.123 312.891 105.24C312.943 105.344 313.008 105.449 313.086 105.553C313.164 105.657 313.255 105.742 313.359 105.807C313.216 105.794 313.073 105.787 312.93 105.787C312.786 105.774 312.656 105.761 312.539 105.748C312.396 105.735 312.266 105.722 312.148 105.709C312.018 105.696 311.842 105.689 311.621 105.689C311.243 105.689 310.658 105.709 309.863 105.748C309.98 105.475 310.072 105.247 310.137 105.064C310.215 104.869 310.28 104.713 310.332 104.596C310.384 104.452 310.423 104.342 310.449 104.264C310.605 103.886 310.697 103.456 310.723 102.975C310.762 102.493 310.729 102.005 310.625 101.51C310.586 101.34 310.521 101.139 310.43 100.904C310.339 100.67 310.215 100.442 310.059 100.221C309.915 99.9993 309.74 99.8105 309.531 99.6543C309.336 99.498 309.108 99.4069 308.848 99.3809C308.587 99.3548 308.294 99.4199 307.969 99.5762C307.656 99.7324 307.318 100.019 306.953 100.436C306.68 100.787 306.465 101.217 306.309 101.725C306.165 102.154 306.068 102.695 306.016 103.346C305.964 103.984 306.042 104.732 306.25 105.592C306.068 105.566 305.898 105.553 305.742 105.553C305.586 105.54 305.456 105.527 305.352 105.514C305.221 105.501 305.104 105.488 305 105.475C304.883 105.475 304.753 105.468 304.609 105.455C304.479 105.455 304.316 105.455 304.121 105.455C303.926 105.442 303.698 105.429 303.438 105.416Z" fill="#262644"/>
<path d="M293.393 169.064L308.811 153.646C310.396 152.061 310.396 149.491 308.811 147.906L306.158 145.253C304.573 143.668 302.004 143.668 300.419 145.253L285 160.672L269.581 145.253C267.996 143.668 265.427 143.668 263.842 145.253L261.189 147.906C259.604 149.491 259.604 152.061 261.189 153.646L276.607 169.064L261.189 184.483C259.604 186.068 259.604 188.638 261.189 190.222L263.842 192.876C265.427 194.461 267.996 194.461 269.581 192.876L285 177.457L300.419 192.876C302.004 194.461 304.573 194.461 306.158 192.876L308.811 190.222C310.396 188.638 310.396 186.068 308.811 184.483L293.393 169.064Z" fill="#FF473E"/>
<rect x="390" y="0.0644531" width="150" height="124" rx="15" fill="#E8E8E8"/>
<path d="M446.139 26.2555V23.9735H456.891V26.2555H452.883V37.0645H450.147V26.2555H446.139ZM461.661 37.2562C460.651 37.2562 459.781 37.0517 459.053 36.6426C458.328 36.2292 457.77 35.6454 457.378 34.8912C456.986 34.1326 456.79 33.2356 456.79 32.2001C456.79 31.1902 456.986 30.3038 457.378 29.541C457.77 28.7782 458.322 28.1838 459.034 27.7576C459.749 27.3315 460.589 27.1184 461.552 27.1184C462.2 27.1184 462.803 27.2228 463.361 27.4316C463.923 27.6362 464.414 27.9451 464.831 28.3585C465.253 28.7718 465.581 29.2917 465.816 29.9181C466.05 30.5403 466.167 31.269 466.167 32.1042V32.8521H457.877V31.1646H463.604C463.604 30.7725 463.519 30.4252 463.348 30.1227C463.178 29.8201 462.941 29.5836 462.639 29.4132C462.34 29.2385 461.993 29.1511 461.597 29.1511C461.183 29.1511 460.817 29.247 460.497 29.4387C460.182 29.6262 459.935 29.8798 459.756 30.1994C459.577 30.5147 459.485 30.8663 459.481 31.2541V32.8585C459.481 33.3443 459.57 33.764 459.749 34.1177C459.933 34.4714 460.191 34.7441 460.523 34.9359C460.855 35.1277 461.249 35.2235 461.705 35.2235C462.008 35.2235 462.285 35.1809 462.536 35.0957C462.788 35.0105 463.003 34.8826 463.182 34.7122C463.361 34.5417 463.497 34.3329 463.591 34.0858L466.11 34.252C465.982 34.8571 465.72 35.3855 465.323 35.8372C464.931 36.2846 464.424 36.6341 463.802 36.8855C463.184 37.1326 462.47 37.2562 461.661 37.2562ZM470.044 27.2463L471.846 30.6788L473.694 27.2463H476.487L473.643 32.1554L476.564 37.0645H473.783L471.846 33.6703L469.942 37.0645H467.129L470.044 32.1554L467.231 27.2463H470.044ZM483.327 27.2463V29.2917H477.414V27.2463H483.327ZM478.756 24.894H481.479V34.0474C481.479 34.2988 481.518 34.4949 481.594 34.6355C481.671 34.7718 481.778 34.8677 481.914 34.9231C482.055 34.9785 482.216 35.0062 482.4 35.0062C482.528 35.0062 482.655 34.9956 482.783 34.9743C482.911 34.9487 483.009 34.9295 483.077 34.9167L483.506 36.943C483.369 36.9856 483.177 37.0346 482.93 37.09C482.683 37.1497 482.383 37.1859 482.029 37.1987C481.373 37.2243 480.797 37.1369 480.303 36.9366C479.813 36.7363 479.432 36.4252 479.159 36.0034C478.886 35.5815 478.752 35.0488 478.756 34.4054V24.894Z" fill="black"/>
<path d="M405.494 65.2037C404.838 65.2037 404.253 65.091 403.739 64.8656C403.229 64.6402 402.823 64.327 402.521 63.926C402.223 63.5216 402.061 63.0526 402.034 62.519H403.287C403.313 62.8471 403.426 63.1305 403.625 63.3691C403.824 63.6045 404.084 63.7868 404.406 63.916C404.727 64.0453 405.083 64.1099 405.474 64.1099C405.912 64.1099 406.3 64.0337 406.638 63.8812C406.976 63.7288 407.241 63.5166 407.433 63.2449C407.625 62.9731 407.722 62.6582 407.722 62.3002C407.722 61.9257 407.629 61.5959 407.443 61.3109C407.258 61.0225 406.986 60.7972 406.628 60.6348C406.27 60.4724 405.832 60.3912 405.315 60.3912H404.5V59.2974H405.315C405.72 59.2974 406.074 59.2245 406.379 59.0787C406.688 58.9328 406.928 58.7273 407.1 58.4622C407.276 58.197 407.364 57.8855 407.364 57.5275C407.364 57.1828 407.287 56.8829 407.135 56.6277C406.982 56.3725 406.767 56.1736 406.489 56.0311C406.214 55.8886 405.889 55.8173 405.514 55.8173C405.163 55.8173 404.831 55.8819 404.52 56.0112C404.212 56.1371 403.96 56.3211 403.764 56.563C403.569 56.8017 403.463 57.09 403.446 57.4281H402.253C402.273 56.8945 402.433 56.4271 402.735 56.0261C403.037 55.6217 403.431 55.3069 403.918 55.0815C404.409 54.8561 404.947 54.7434 405.534 54.7434C406.164 54.7434 406.704 54.871 407.155 55.1262C407.606 55.3781 407.952 55.7112 408.194 56.1255C408.436 56.5398 408.557 56.9873 408.557 57.4679C408.557 58.0413 408.406 58.5301 408.104 58.9345C407.806 59.3388 407.4 59.6189 406.886 59.7747V59.8542C407.529 59.9603 408.031 60.2337 408.393 60.6745C408.754 61.112 408.935 61.6539 408.935 62.3002C408.935 62.8538 408.784 63.3509 408.482 63.7917C408.184 64.2292 407.776 64.5739 407.259 64.8258C406.742 65.0777 406.154 65.2037 405.494 65.2037ZM410.173 67.252V63.9707H410.809C410.965 63.8083 411.099 63.6326 411.212 63.4437C411.324 63.2548 411.422 63.0311 411.505 62.7725C411.591 62.5107 411.664 62.1925 411.724 61.818C411.783 61.4402 411.836 60.9844 411.883 60.4508L412.141 57.4281H416.994V63.9707H418.167V67.252H416.994V65.0645H411.346V67.252H410.173ZM412.141 63.9707H415.82V58.5218H413.235L413.036 60.4508C412.953 61.2496 412.851 61.9473 412.728 62.5439C412.605 63.1404 412.41 63.6161 412.141 63.9707ZM422.926 65.2235C422.19 65.2235 421.555 65.0611 421.022 64.7363C420.492 64.4082 420.082 63.9508 419.794 63.3642C419.509 62.7742 419.366 62.0881 419.366 61.3059C419.366 60.5237 419.509 59.8343 419.794 59.2377C420.082 58.6378 420.483 58.1705 420.997 57.8358C421.514 57.4977 422.117 57.3287 422.807 57.3287C423.204 57.3287 423.597 57.3949 423.985 57.5275C424.373 57.6601 424.726 57.8755 425.044 58.1738C425.362 58.4688 425.616 58.8599 425.805 59.3471C425.993 59.8343 426.088 60.4342 426.088 61.1468V61.644H420.202V60.6298H424.895C424.895 60.1989 424.809 59.8145 424.636 59.4764C424.467 59.1383 424.225 58.8715 423.91 58.676C423.599 58.4804 423.231 58.3826 422.807 58.3826C422.339 58.3826 421.935 58.4986 421.594 58.7306C421.256 58.9593 420.995 59.2576 420.813 59.6255C420.631 59.9934 420.54 60.3878 420.54 60.8088V61.4849C420.54 62.0616 420.639 62.5505 420.838 62.9515C421.04 63.3493 421.32 63.6525 421.678 63.8613C422.036 64.0668 422.452 64.1696 422.926 64.1696C423.234 64.1696 423.513 64.1265 423.761 64.0403C424.013 63.9508 424.23 63.8182 424.412 63.6426C424.595 63.4636 424.736 63.2415 424.835 62.9764L425.969 63.2946C425.849 63.679 425.649 64.0171 425.367 64.3088C425.085 64.5971 424.737 64.8225 424.323 64.9849C423.909 65.144 423.443 65.2235 422.926 65.2235ZM430.975 65.2235C430.259 65.2235 429.643 65.0545 429.126 64.7164C428.608 64.3784 428.211 63.9127 427.932 63.3194C427.654 62.7261 427.515 62.0484 427.515 61.286C427.515 60.5105 427.657 59.8261 427.942 59.2328C428.231 58.6362 428.632 58.1705 429.145 57.8358C429.662 57.4977 430.266 57.3287 430.955 57.3287C431.492 57.3287 431.976 57.4281 432.407 57.627C432.838 57.8258 433.191 58.1042 433.466 58.4622C433.741 58.8201 433.912 59.2377 433.978 59.715H432.805C432.715 59.367 432.516 59.0588 432.208 58.7903C431.903 58.5185 431.492 58.3826 430.975 58.3826C430.518 58.3826 430.117 58.502 429.772 58.7406C429.43 58.9759 429.164 59.309 428.971 59.7399C428.782 60.1674 428.688 60.6696 428.688 61.2463C428.688 61.8362 428.781 62.35 428.966 62.7875C429.155 63.225 429.421 63.5647 429.762 63.8066C430.107 64.0486 430.511 64.1696 430.975 64.1696C431.28 64.1696 431.557 64.1165 431.805 64.0105C432.054 63.9044 432.264 63.752 432.437 63.5531C432.609 63.3542 432.732 63.1156 432.805 62.8372H433.978C433.912 63.2879 433.747 63.694 433.486 64.0552C433.227 64.4132 432.884 64.6982 432.456 64.9103C432.032 65.1191 431.538 65.2235 430.975 65.2235ZM436.707 60.1923H438.895C439.79 60.1923 440.474 60.4193 440.948 60.8734C441.422 61.3275 441.659 61.9025 441.659 62.5985C441.659 63.0559 441.553 63.4719 441.341 63.8464C441.129 64.2176 440.817 64.5143 440.406 64.7363C439.995 64.9551 439.491 65.0645 438.895 65.0645H435.693V57.4281H436.866V63.9707H438.895C439.359 63.9707 439.74 63.8481 440.038 63.6028C440.336 63.3575 440.486 63.0427 440.486 62.6582C440.486 62.2538 440.336 61.9241 440.038 61.6689C439.74 61.4136 439.359 61.286 438.895 61.286H436.707V60.1923ZM450.584 65.2235C449.848 65.2235 449.214 65.0611 448.68 64.7363C448.15 64.4082 447.74 63.9508 447.452 63.3642C447.167 62.7742 447.025 62.0881 447.025 61.3059C447.025 60.5237 447.167 59.8343 447.452 59.2377C447.74 58.6378 448.141 58.1705 448.655 57.8358C449.172 57.4977 449.775 57.3287 450.465 57.3287C450.863 57.3287 451.255 57.3949 451.643 57.5275C452.031 57.6601 452.384 57.8755 452.702 58.1738C453.02 58.4688 453.274 58.8599 453.463 59.3471C453.652 59.8343 453.746 60.4342 453.746 61.1468V61.644H447.86V60.6298H452.553C452.553 60.1989 452.467 59.8145 452.294 59.4764C452.125 59.1383 451.883 58.8715 451.569 58.676C451.257 58.4804 450.889 58.3826 450.465 58.3826C449.998 58.3826 449.593 58.4986 449.252 58.7306C448.914 58.9593 448.654 59.2576 448.471 59.6255C448.289 59.9934 448.198 60.3878 448.198 60.8088V61.4849C448.198 62.0616 448.297 62.5505 448.496 62.9515C448.698 63.3493 448.978 63.6525 449.336 63.8613C449.694 64.0668 450.11 64.1696 450.584 64.1696C450.892 64.1696 451.171 64.1265 451.419 64.0403C451.671 63.9508 451.888 63.8182 452.071 63.6426C452.253 63.4636 452.394 63.2415 452.493 62.9764L453.627 63.2946C453.507 63.679 453.307 64.0171 453.025 64.3088C452.743 64.5971 452.395 64.8225 451.981 64.9849C451.567 65.144 451.101 65.2235 450.584 65.2235ZM458.633 65.2235C457.917 65.2235 457.301 65.0545 456.784 64.7164C456.267 64.3784 455.869 63.9127 455.591 63.3194C455.312 62.7261 455.173 62.0484 455.173 61.286C455.173 60.5105 455.315 59.8261 455.6 59.2328C455.889 58.6362 456.29 58.1705 456.804 57.8358C457.321 57.4977 457.924 57.3287 458.613 57.3287C459.15 57.3287 459.634 57.4281 460.065 57.627C460.496 57.8258 460.849 58.1042 461.124 58.4622C461.399 58.8201 461.57 59.2377 461.636 59.715H460.463C460.373 59.367 460.174 59.0588 459.866 58.7903C459.561 58.5185 459.15 58.3826 458.633 58.3826C458.176 58.3826 457.775 58.502 457.43 58.7406C457.089 58.9759 456.822 59.309 456.63 59.7399C456.441 60.1674 456.346 60.6696 456.346 61.2463C456.346 61.8362 456.439 62.35 456.625 62.7875C456.814 63.225 457.079 63.5647 457.42 63.8066C457.765 64.0486 458.169 64.1696 458.633 64.1696C458.938 64.1696 459.215 64.1165 459.463 64.0105C459.712 63.9044 459.922 63.752 460.095 63.5531C460.267 63.3542 460.39 63.1156 460.463 62.8372H461.636C461.57 63.2879 461.406 63.694 461.144 64.0552C460.885 64.4132 460.542 64.6982 460.115 64.9103C459.69 65.1191 459.197 65.2235 458.633 65.2235ZM462.75 58.5218V57.4281H468.954V58.5218H466.449V65.0645H465.275V58.5218H462.75ZM471.68 60.1923H473.867C474.762 60.1923 475.447 60.4193 475.921 60.8734C476.395 61.3275 476.632 61.9025 476.632 62.5985C476.632 63.0559 476.526 63.4719 476.313 63.8464C476.101 64.2176 475.79 64.5143 475.379 64.7363C474.968 64.9551 474.464 65.0645 473.867 65.0645H470.666V57.4281H471.839V63.9707H473.867C474.331 63.9707 474.713 63.8481 475.011 63.6028C475.309 63.3575 475.458 63.0427 475.458 62.6582C475.458 62.2538 475.309 61.9241 475.011 61.6689C474.713 61.4136 474.331 61.286 473.867 61.286H471.68V60.1923ZM481.918 58.5218V57.4281H488.122V58.5218H485.616V65.0645H484.443V58.5218H481.918ZM492.639 65.2235C491.903 65.2235 491.268 65.0611 490.735 64.7363C490.204 64.4082 489.795 63.9508 489.507 63.3642C489.222 62.7742 489.079 62.0881 489.079 61.3059C489.079 60.5237 489.222 59.8343 489.507 59.2377C489.795 58.6378 490.196 58.1705 490.71 57.8358C491.227 57.4977 491.83 57.3287 492.52 57.3287C492.917 57.3287 493.31 57.3949 493.698 57.5275C494.086 57.6601 494.439 57.8755 494.757 58.1738C495.075 58.4688 495.328 58.8599 495.517 59.3471C495.706 59.8343 495.801 60.4342 495.801 61.1468V61.644H489.914V60.6298H494.608C494.608 60.1989 494.521 59.8145 494.349 59.4764C494.18 59.1383 493.938 58.8715 493.623 58.676C493.312 58.4804 492.944 58.3826 492.52 58.3826C492.052 58.3826 491.648 58.4986 491.306 58.7306C490.968 58.9593 490.708 59.2576 490.526 59.6255C490.344 59.9934 490.252 60.3878 490.252 60.8088V61.4849C490.252 62.0616 490.352 62.5505 490.551 62.9515C490.753 63.3493 491.033 63.6525 491.391 63.8613C491.749 64.0668 492.165 64.1696 492.639 64.1696C492.947 64.1696 493.225 64.1265 493.474 64.0403C493.726 63.9508 493.943 63.8182 494.125 63.6426C494.308 63.4636 494.449 63.2415 494.548 62.9764L495.681 63.2946C495.562 63.679 495.362 64.0171 495.08 64.3088C494.798 64.5971 494.45 64.8225 494.036 64.9849C493.622 65.144 493.156 65.2235 492.639 65.2235ZM497.586 65.0645V57.4281H498.759V60.7491H499.534L502.279 57.4281H503.79L500.708 61.1071L503.83 65.0645H502.319L499.813 61.8429H498.759V65.0645H497.586ZM507.893 65.2235C507.177 65.2235 506.561 65.0545 506.044 64.7164C505.526 64.3784 505.129 63.9127 504.85 63.3194C504.572 62.7261 504.433 62.0484 504.433 61.286C504.433 60.5105 504.575 59.8261 504.86 59.2328C505.149 58.6362 505.55 58.1705 506.063 57.8358C506.58 57.4977 507.184 57.3287 507.873 57.3287C508.41 57.3287 508.894 57.4281 509.325 57.627C509.756 57.8258 510.109 58.1042 510.384 58.4622C510.659 58.8201 510.829 59.2377 510.896 59.715H509.722C509.633 59.367 509.434 59.0588 509.126 58.7903C508.821 58.5185 508.41 58.3826 507.893 58.3826C507.436 58.3826 507.035 58.502 506.69 58.7406C506.348 58.9759 506.082 59.309 505.889 59.7399C505.7 60.1674 505.606 60.6696 505.606 61.2463C505.606 61.8362 505.699 62.35 505.884 62.7875C506.073 63.225 506.338 63.5647 506.68 63.8066C507.025 64.0486 507.429 64.1696 507.893 64.1696C508.198 64.1696 508.475 64.1165 508.723 64.0105C508.972 63.9044 509.182 63.752 509.355 63.5531C509.527 63.3542 509.65 63.1156 509.722 62.8372H510.896C510.829 63.2879 510.665 63.694 510.404 64.0552C510.145 64.4132 509.802 64.6982 509.374 64.9103C508.95 65.1191 508.456 65.2235 507.893 65.2235ZM512.009 58.5218V57.4281H518.214V58.5218H515.708V65.0645H514.535V58.5218H512.009Z" fill="black"/>
<rect x="432.5" y="78.0645" width="65" height="27" rx="10" fill="#B2B2CA"/>
<path d="M443.619 97.0645V86.8826H447.347C448.07 86.8826 448.668 87.002 449.142 87.2406C449.616 87.4759 449.971 87.7958 450.206 88.2001C450.441 88.6011 450.559 89.0536 450.559 89.5574C450.559 89.9816 450.481 90.3395 450.325 90.6312C450.17 90.9196 449.961 91.1516 449.699 91.3272C449.44 91.4996 449.155 91.6255 448.844 91.7051V91.8045C449.182 91.8211 449.512 91.9305 449.833 92.1326C450.158 92.3315 450.426 92.6149 450.638 92.9828C450.851 93.3507 450.957 93.7981 450.957 94.3251C450.957 94.8455 450.834 95.3128 450.589 95.7271C450.347 96.1381 449.972 96.4645 449.465 96.7065C448.958 96.9451 448.31 97.0645 447.521 97.0645H443.619ZM445.155 95.747H447.372C448.108 95.747 448.635 95.6045 448.953 95.3194C449.271 95.0344 449.43 94.6781 449.43 94.2505C449.43 93.929 449.349 93.6341 449.187 93.3656C449.024 93.0971 448.792 92.8833 448.491 92.7243C448.192 92.5652 447.838 92.4856 447.427 92.4856H445.155V95.747ZM445.155 91.2875H447.213C447.558 91.2875 447.868 91.2212 448.143 91.0886C448.421 90.956 448.642 90.7704 448.804 90.5318C448.97 90.2898 449.053 90.0048 449.053 89.6767C449.053 89.2557 448.905 88.9028 448.61 88.6177C448.315 88.3327 447.863 88.1902 447.253 88.1902H445.155V91.2875ZM457.497 93.8975V89.4281H458.988V97.0645H457.527V95.742H457.447C457.271 96.1497 456.99 96.4894 456.602 96.7612C456.217 97.0297 455.739 97.1639 455.165 97.1639C454.675 97.1639 454.24 97.0562 453.863 96.8407C453.488 96.622 453.193 96.2988 452.978 95.8713C452.766 95.4437 452.659 94.9151 452.659 94.2853V89.4281H454.146V94.1064C454.146 94.6267 454.29 95.041 454.578 95.3493C454.867 95.6575 455.241 95.8116 455.702 95.8116C455.98 95.8116 456.257 95.742 456.532 95.6028C456.811 95.4636 457.041 95.2531 457.223 94.9714C457.409 94.6897 457.5 94.3317 457.497 93.8975ZM464.55 89.4281V90.6213H460.379V89.4281H464.55ZM461.498 87.5985H462.984V94.8223C462.984 95.1106 463.027 95.3277 463.113 95.4735C463.2 95.6161 463.311 95.7138 463.447 95.7669C463.586 95.8166 463.737 95.8414 463.899 95.8414C464.018 95.8414 464.123 95.8332 464.212 95.8166C464.302 95.8 464.371 95.7868 464.421 95.7768L464.689 97.0048C464.603 97.0379 464.481 97.0711 464.322 97.1042C464.162 97.1407 463.964 97.1606 463.725 97.1639C463.334 97.1705 462.969 97.1009 462.631 96.9551C462.293 96.8092 462.02 96.5839 461.811 96.2789C461.602 95.974 461.498 95.5912 461.498 95.1305V87.5985ZM469.759 89.4281V90.6213H465.588V89.4281H469.759ZM466.707 87.5985H468.193V94.8223C468.193 95.1106 468.236 95.3277 468.322 95.4735C468.409 95.6161 468.52 95.7138 468.656 95.7669C468.795 95.8166 468.946 95.8414 469.108 95.8414C469.227 95.8414 469.332 95.8332 469.421 95.8166C469.511 95.8 469.58 95.7868 469.63 95.7768L469.898 97.0048C469.812 97.0379 469.69 97.0711 469.531 97.1042C469.371 97.1407 469.173 97.1606 468.934 97.1639C468.543 97.1705 468.178 97.1009 467.84 96.9551C467.502 96.8092 467.229 96.5839 467.02 96.2789C466.811 95.974 466.707 95.5912 466.707 95.1305V87.5985ZM474.538 97.2186C473.822 97.2186 473.198 97.0545 472.664 96.7264C472.13 96.3983 471.716 95.9392 471.421 95.3493C471.126 94.7593 470.979 94.0699 470.979 93.2811C470.979 92.4889 471.126 91.7962 471.421 91.2029C471.716 90.6097 472.13 90.149 472.664 89.8208C473.198 89.4927 473.822 89.3287 474.538 89.3287C475.254 89.3287 475.879 89.4927 476.412 89.8208C476.946 90.149 477.36 90.6097 477.655 91.2029C477.95 91.7962 478.098 92.4889 478.098 93.2811C478.098 94.0699 477.95 94.7593 477.655 95.3493C477.36 95.9392 476.946 96.3983 476.412 96.7264C475.879 97.0545 475.254 97.2186 474.538 97.2186ZM474.543 95.9707C475.007 95.9707 475.392 95.8481 475.697 95.6028C476.001 95.3575 476.227 95.0311 476.373 94.6234C476.522 94.2157 476.596 93.7666 476.596 93.2761C476.596 92.7889 476.522 92.3414 476.373 91.9338C476.227 91.5228 476.001 91.193 475.697 90.9444C475.392 90.6958 475.007 90.5716 474.543 90.5716C474.076 90.5716 473.688 90.6958 473.38 90.9444C473.075 91.193 472.848 91.5228 472.699 91.9338C472.553 92.3414 472.48 92.7889 472.48 93.2761C472.48 93.7666 472.553 94.2157 472.699 94.6234C472.848 95.0311 473.075 95.3575 473.38 95.6028C473.688 95.8481 474.076 95.9707 474.543 95.9707ZM481.244 92.5304V97.0645H479.757V89.4281H481.184V90.671H481.278C481.454 90.2666 481.729 89.9418 482.104 89.6966C482.482 89.4513 482.957 89.3287 483.531 89.3287C484.051 89.3287 484.507 89.438 484.898 89.6568C485.289 89.8722 485.592 90.1937 485.808 90.6213C486.023 91.0488 486.131 91.5775 486.131 92.2072V97.0645H484.644V92.3862C484.644 91.8327 484.5 91.4002 484.212 91.0886C483.923 90.7737 483.527 90.6163 483.023 90.6163C482.679 90.6163 482.372 90.6909 482.104 90.84C481.839 90.9892 481.628 91.2079 481.472 91.4963C481.32 91.7813 481.244 92.126 481.244 92.5304Z" fill="#121231"/>
<path d="M489.014 148.796L481.316 144.334C480.368 143.784 479.15 144.102 478.597 145.044L459.724 177.147L447.298 169.945C446.529 169.499 445.542 169.756 445.093 170.52L440.22 178.809C439.771 179.572 440.031 180.552 440.799 180.998L462.964 193.846C463.733 194.292 464.72 194.034 465.169 193.271L465.348 192.965C465.352 192.959 465.356 192.954 465.36 192.948L489.729 151.496C490.282 150.555 489.962 149.346 489.014 148.796Z" fill="#61A05F"/>
</svg>
