<svg width="510" height="70" viewBox="0 0 510 70" fill="none" xmlns="http://www.w3.org/2000/svg">
<rect y="-0.000976562" width="510" height="70" rx="10" fill="#E7E7E7"/>
<g clip-path="url(#clip0_63_2288)">
<path d="M144.076 19.999H124.986C124.236 19.999 123.621 20.6084 123.621 21.3643V49.999L134.531 39.0889L145.441 49.999V21.3643C145.441 20.6084 144.832 19.999 144.076 19.999Z" fill="#010101"/>
</g>
<path d="M194.987 22.499C188.087 22.499 182.5 28.099 182.5 34.999C182.5 41.899 188.087 47.499 194.987 47.499C201.9 47.499 207.5 41.899 207.5 34.999C207.5 28.099 201.9 22.499 194.987 22.499ZM203.65 29.999H199.962C199.571 28.4508 198.992 26.9564 198.238 25.549C200.518 26.334 202.439 27.9137 203.65 29.999ZM195 25.049C196.038 26.549 196.85 28.2115 197.387 29.999H192.613C193.15 28.2115 193.962 26.549 195 25.049ZM185.325 37.499C185.125 36.699 185 35.8615 185 34.999C185 34.1365 185.125 33.299 185.325 32.499H189.55C189.45 33.324 189.375 34.149 189.375 34.999C189.375 35.849 189.45 36.674 189.55 37.499H185.325ZM186.35 39.999H190.037C190.437 41.5615 191.012 43.0615 191.762 44.449C189.48 43.6683 187.557 42.0876 186.35 39.999ZM190.037 29.999H186.35C187.557 27.9105 189.48 26.3297 191.762 25.549C191.008 26.9564 190.429 28.4508 190.037 29.999ZM195 44.949C193.962 43.449 193.15 41.7865 192.613 39.999H197.387C196.85 41.7865 196.038 43.449 195 44.949ZM197.925 37.499H192.075C191.962 36.674 191.875 35.849 191.875 34.999C191.875 34.149 191.962 33.3115 192.075 32.499H197.925C198.038 33.3115 198.125 34.149 198.125 34.999C198.125 35.849 198.038 36.674 197.925 37.499ZM198.238 44.449C198.988 43.0615 199.562 41.5615 199.962 39.999H203.65C202.439 42.0844 200.518 43.664 198.238 44.449ZM200.45 37.499C200.55 36.674 200.625 35.849 200.625 34.999C200.625 34.149 200.55 33.324 200.45 32.499H204.675C204.875 33.299 205 34.1365 205 34.999C205 35.8615 204.875 36.699 204.675 37.499H200.45Z" fill="#010101"/>
<path fill-rule="evenodd" clip-rule="evenodd" d="M260.571 23.6028C256.876 23.0719 253.125 23.0719 249.43 23.6028C248.54 23.7304 247.719 24.1544 247.1 24.8063C246.481 25.4582 246.099 26.2999 246.017 27.1953L245.86 28.9403C245.493 32.9711 245.493 37.0269 245.86 41.0578L246.019 42.8028C246.1 43.698 246.482 44.5395 247.1 45.1914C247.719 45.8433 248.54 46.2674 249.43 46.3953C253.124 46.9265 256.876 46.9265 260.57 46.3953C261.46 46.2677 262.281 45.8436 262.9 45.1917C263.519 44.5399 263.901 43.6982 263.982 42.8028L264.14 41.0578C264.506 37.0265 264.506 32.9703 264.14 28.9403L263.981 27.1953C263.9 26.3 263.519 25.4583 262.9 24.8064C262.281 24.1545 261.46 23.7304 260.57 23.6028M252.5 31.249C252.5 30.586 252.763 29.9501 253.232 29.4813C253.701 29.0124 254.337 28.749 255 28.749C255.663 28.749 256.299 29.0124 256.768 29.4813C257.237 29.9501 257.5 30.586 257.5 31.249C257.5 31.9121 257.237 32.548 256.768 33.0168C256.299 33.4856 255.663 33.749 255 33.749C254.337 33.749 253.701 33.4856 253.232 33.0168C252.763 32.548 252.5 31.9121 252.5 31.249ZM250 39.374C250 38.3795 250.395 37.4256 251.098 36.7224C251.802 36.0191 252.755 35.624 253.75 35.624H256.25C257.245 35.624 258.198 36.0191 258.902 36.7224C259.605 37.4256 260 38.3795 260 39.374C260 39.7056 259.868 40.0235 259.634 40.2579C259.399 40.4923 259.081 40.624 258.75 40.624H251.25C250.918 40.624 250.6 40.4923 250.366 40.2579C250.132 40.0235 250 39.7056 250 39.374Z" fill="#010101"/>
<path d="M312.5 44.999V37.499H317.5V44.999H323.75V34.999H327.5L315 23.749L302.5 34.999H306.25V44.999H312.5Z" fill="#010101"/>
<path d="M388.125 31.0146C388.125 39.2178 375.962 45.8576 375.444 46.1318C375.308 46.2053 375.155 46.2437 375 46.2437C374.845 46.2437 374.692 46.2053 374.556 46.1318C374.038 45.8576 361.875 39.2178 361.875 31.0146C361.877 29.0884 362.643 27.2416 364.005 25.8795C365.368 24.5174 367.214 23.7512 369.141 23.749C371.561 23.749 373.679 24.7896 375 26.5486C376.321 24.7896 378.439 23.749 380.859 23.749C382.786 23.7512 384.632 24.5174 385.995 25.8795C387.357 27.2416 388.123 29.0884 388.125 31.0146Z" fill="#010101"/>
<defs>
<clipPath id="clip0_63_2288">
<rect width="30" height="30" fill="white" transform="translate(120 19.999)"/>
</clipPath>
</defs>
</svg>
