<svg width="510" height="109" viewBox="0 0 510 109" fill="none" xmlns="http://www.w3.org/2000/svg">
<ellipse cx="197.485" cy="18.0644" rx="7.29735" ry="7.22582" fill="#BDC658"/>
<ellipse cx="155.981" cy="12.1937" rx="4.10476" ry="4.06452" fill="#BDC658"/>
<path d="M327.399 20.0645C327.399 22.3093 325.561 24.129 323.294 24.129C321.027 24.129 319.19 22.3093 319.19 20.0645C319.19 17.8197 321.027 16 323.294 16C325.561 16 327.399 17.8197 327.399 20.0645Z" fill="#7B7B7B"/>
<ellipse cx="293.105" cy="79.4512" rx="4.10476" ry="4.06452" fill="#7B7B7B"/>
<ellipse cx="214.816" cy="88.9355" rx="10.0339" ry="9.9355" fill="#AAE30A"/>
<ellipse cx="166.471" cy="98.8704" rx="6.38518" ry="6.32259" fill="#D9D9D9"/>
<ellipse cx="116.301" cy="89.8389" rx="6.38518" ry="6.32259" fill="#646929"/>
<path d="M25.6357 70V19.0909H46.0192C49.7644 19.0909 52.8883 19.6461 55.3906 20.7564C57.893 21.8667 59.7739 23.4079 61.0334 25.38C62.2929 27.3355 62.9226 29.5893 62.9226 32.1413C62.9226 34.13 62.5249 35.8783 61.7294 37.3864C60.934 38.8778 59.8402 40.1042 58.4482 41.0653C57.0727 42.0099 55.4983 42.6811 53.7251 43.0788V43.576C55.6641 43.6589 57.4787 44.2057 59.169 45.2166C60.8759 46.2275 62.2597 47.6444 63.3203 49.4673C64.3809 51.2737 64.9112 53.428 64.9112 55.9304C64.9112 58.6316 64.2401 61.0429 62.8977 63.1641C61.572 65.2687 59.6082 66.9342 57.0064 68.1605C54.4046 69.3868 51.1979 70 47.3864 70H25.6357ZM36.3991 61.2003H45.174C48.1735 61.2003 50.361 60.6286 51.7365 59.4851C53.112 58.325 53.7997 56.7839 53.7997 54.8615C53.7997 53.4529 53.46 52.21 52.7805 51.1328C52.1011 50.0556 51.1316 49.2105 49.8722 48.5973C48.6293 47.9841 47.1461 47.6776 45.4226 47.6776H36.3991V61.2003ZM36.3991 40.3942H44.3786C45.8535 40.3942 47.1626 40.1373 48.3061 39.6236C49.4661 39.0933 50.3776 38.3475 51.0405 37.3864C51.7199 36.4252 52.0597 35.2734 52.0597 33.9311C52.0597 32.0916 51.4051 30.6084 50.0959 29.4815C48.8033 28.3546 46.9638 27.7912 44.5774 27.7912H36.3991V40.3942ZM68.7331 81.1861V61.598H71.6664C72.5115 61.0677 73.191 60.2225 73.7047 59.0625C74.235 57.9025 74.6659 56.5353 74.9973 54.9609C75.3453 53.3866 75.6105 51.688 75.7928 49.8651C75.9917 48.0256 76.1657 46.1695 76.3148 44.2969L77.3091 31.8182H106.592V61.598H112.508V81.1861H102.416V70H79.074V81.1861H68.7331ZM82.2061 61.598H96.5989V39.9716H86.3077L85.91 44.2969C85.6283 48.3736 85.2222 51.8371 84.6919 54.6875C84.1616 57.5213 83.333 59.8248 82.2061 61.598ZM135.93 70.7457C132.069 70.7457 128.73 69.9254 125.913 68.2848C123.112 66.6276 120.949 64.3241 119.425 61.3743C117.9 58.4079 117.138 54.9692 117.138 51.0582C117.138 47.1141 117.9 43.6671 119.425 40.7173C120.949 37.7509 123.112 35.4474 125.913 33.8068C128.73 32.1496 132.069 31.321 135.93 31.321C139.792 31.321 143.123 32.1496 145.923 33.8068C148.741 35.4474 150.911 37.7509 152.436 40.7173C153.961 43.6671 154.723 47.1141 154.723 51.0582C154.723 54.9692 153.961 58.4079 152.436 61.3743C150.911 64.3241 148.741 66.6276 145.923 68.2848C143.123 69.9254 139.792 70.7457 135.93 70.7457ZM135.98 62.5426C137.737 62.5426 139.203 62.0455 140.38 61.0511C141.557 60.0402 142.443 58.6648 143.04 56.9247C143.653 55.1847 143.96 53.2043 143.96 50.9837C143.96 48.763 143.653 46.7827 143.04 45.0426C142.443 43.3026 141.557 41.9271 140.38 40.9162C139.203 39.9053 137.737 39.3999 135.98 39.3999C134.207 39.3999 132.715 39.9053 131.506 40.9162C130.313 41.9271 129.409 43.3026 128.796 45.0426C128.2 46.7827 127.901 48.763 127.901 50.9837C127.901 53.2043 128.2 55.1847 128.796 56.9247C129.409 58.6648 130.313 60.0402 131.506 61.0511C132.715 62.0455 134.207 62.5426 135.98 62.5426ZM169.091 31.8182L176.101 45.1669L183.285 31.8182H194.148L183.086 50.9091L194.446 70H183.633L176.101 56.8004L168.693 70H157.756L169.091 50.9091L158.153 31.8182H169.091ZM227.01 46.6832V55.0107H207.074V46.6832H227.01ZM210.554 31.8182V70H200.437V31.8182H210.554ZM233.647 31.8182V70H223.604V31.8182H233.647ZM259.114 70.7457C255.253 70.7457 251.913 69.9254 249.096 68.2848C246.296 66.6276 244.133 64.3241 242.608 61.3743C241.084 58.4079 240.321 54.9692 240.321 51.0582C240.321 47.1141 241.084 43.6671 242.608 40.7173C244.133 37.7509 246.296 35.4474 249.096 33.8068C251.913 32.1496 255.253 31.321 259.114 31.321C262.975 31.321 266.306 32.1496 269.107 33.8068C271.924 35.4474 274.095 37.7509 275.62 40.7173C277.144 43.6671 277.907 47.1141 277.907 51.0582C277.907 54.9692 277.144 58.4079 275.62 61.3743C274.095 64.3241 271.924 66.6276 269.107 68.2848C266.306 69.9254 262.975 70.7457 259.114 70.7457ZM259.164 62.5426C260.92 62.5426 262.387 62.0455 263.564 61.0511C264.74 60.0402 265.627 58.6648 266.223 56.9247C266.837 55.1847 267.143 53.2043 267.143 50.9837C267.143 48.763 266.837 46.7827 266.223 45.0426C265.627 43.3026 264.74 41.9271 263.564 40.9162C262.387 39.9053 260.92 39.3999 259.164 39.3999C257.391 39.3999 255.899 39.9053 254.689 40.9162C253.496 41.9271 252.593 43.3026 251.98 45.0426C251.383 46.7827 251.085 48.763 251.085 50.9837C251.085 53.2043 251.383 55.1847 251.98 56.9247C252.593 58.6648 253.496 60.0402 254.689 61.0511C255.899 62.0455 257.391 62.5426 259.164 62.5426ZM284.792 70V31.8182H301.074C305.781 31.8182 309.501 32.7131 312.235 34.5028C314.97 36.2926 316.337 38.8364 316.337 42.1342C316.337 44.2057 315.566 45.9292 314.025 47.3047C312.484 48.6802 310.346 49.6082 307.612 50.0888C309.899 50.2545 311.846 50.7765 313.453 51.6548C315.078 52.5166 316.312 53.6352 317.157 55.0107C318.019 56.3861 318.45 57.9107 318.45 59.5845C318.45 61.7554 317.87 63.6198 316.71 65.1776C315.566 66.7353 313.884 67.9285 311.664 68.7571C309.46 69.5857 306.767 70 303.585 70H284.792ZM294.661 62.0703H303.585C305.06 62.0703 306.212 61.7223 307.04 61.0263C307.885 60.3137 308.308 59.3442 308.308 58.1179C308.308 56.759 307.885 55.6901 307.04 54.9112C306.212 54.1323 305.06 53.7429 303.585 53.7429H294.661V62.0703ZM294.661 47.5284H301.298C302.359 47.5284 303.262 47.3793 304.007 47.081C304.77 46.7661 305.35 46.3187 305.748 45.7386C306.162 45.1586 306.369 44.4709 306.369 43.6754C306.369 42.4988 305.897 41.5791 304.952 40.9162C304.007 40.2533 302.715 39.9219 301.074 39.9219H294.661V47.5284ZM342.525 70.7457C338.597 70.7457 335.217 69.9503 332.383 68.3594C329.566 66.7519 327.395 64.4815 325.87 61.5483C324.345 58.5985 323.583 55.1101 323.583 51.0831C323.583 47.1555 324.345 43.7086 325.87 40.7422C327.395 37.7758 329.541 35.464 332.308 33.8068C335.092 32.1496 338.357 31.321 342.102 31.321C344.621 31.321 346.966 31.727 349.137 32.5391C351.325 33.3345 353.23 34.536 354.854 36.1435C356.495 37.7509 357.771 39.7727 358.683 42.2088C359.594 44.6283 360.05 47.4621 360.05 50.7102V53.6186H327.809V47.0561H350.082C350.082 45.5315 349.75 44.1809 349.087 43.0043C348.424 41.8277 347.505 40.9079 346.328 40.245C345.168 39.5656 343.817 39.2259 342.276 39.2259C340.669 39.2259 339.244 39.5987 338.001 40.3445C336.774 41.0736 335.813 42.0597 335.117 43.3026C334.421 44.5289 334.065 45.8961 334.048 47.4041V53.6435C334.048 55.5327 334.396 57.165 335.092 58.5405C335.805 59.916 336.808 60.9766 338.1 61.7223C339.393 62.468 340.926 62.8409 342.699 62.8409C343.875 62.8409 344.953 62.6752 345.93 62.3438C346.908 62.0123 347.745 61.5152 348.441 60.8523C349.137 60.1894 349.667 59.3774 350.032 58.4162L359.826 59.0625C359.329 61.4157 358.31 63.4706 356.768 65.2273C355.244 66.9673 353.272 68.3262 350.852 69.304C348.449 70.2652 345.674 70.7457 342.525 70.7457ZM393.533 46.6832V55.0107H373.597V46.6832H393.533ZM377.077 31.8182V70H366.96V31.8182H377.077ZM400.17 31.8182V70H390.128V31.8182H400.17ZM418.503 56.0298L432.25 31.8182H442.69V70H432.598V45.7138L418.901 70H408.386V31.8182H418.503V56.0298ZM468.58 70.7457C464.652 70.7457 461.271 69.9503 458.438 68.3594C455.62 66.7519 453.449 64.4815 451.925 61.5483C450.4 58.5985 449.638 55.1101 449.638 51.0831C449.638 47.1555 450.4 43.7086 451.925 40.7422C453.449 37.7758 455.595 35.464 458.363 33.8068C461.147 32.1496 464.412 31.321 468.157 31.321C470.676 31.321 473.021 31.727 475.192 32.5391C477.379 33.3345 479.285 34.536 480.909 36.1435C482.55 37.7509 483.826 39.7727 484.737 42.2088C485.649 44.6283 486.104 47.4621 486.104 50.7102V53.6186H453.864V47.0561H476.136C476.136 45.5315 475.805 44.1809 475.142 43.0043C474.479 41.8277 473.559 40.9079 472.383 40.245C471.223 39.5656 469.872 39.2259 468.331 39.2259C466.723 39.2259 465.298 39.5987 464.055 40.3445C462.829 41.0736 461.868 42.0597 461.172 43.3026C460.476 44.5289 460.12 45.8961 460.103 47.4041V53.6435C460.103 55.5327 460.451 57.165 461.147 58.5405C461.86 59.916 462.862 60.9766 464.155 61.7223C465.447 62.468 466.98 62.8409 468.754 62.8409C469.93 62.8409 471.007 62.6752 471.985 62.3438C472.963 62.0123 473.8 61.5152 474.496 60.8523C475.192 60.1894 475.722 59.3774 476.087 58.4162L485.881 59.0625C485.384 61.4157 484.364 63.4706 482.823 65.2273C481.299 66.9673 479.326 68.3262 476.907 69.304C474.504 70.2652 471.728 70.7457 468.58 70.7457Z" fill="#C2D206"/>
<ellipse cx="116.757" cy="4.06452" rx="4.10476" ry="4.06452" fill="#BDC658"/>
</svg>
