<svg width="510" height="175" viewBox="0 0 510 175" fill="none" xmlns="http://www.w3.org/2000/svg">
<rect width="510" height="175" rx="30" fill="#272B35"/>
<path d="M51.3068 17.7273V41H46.4432V21.7273H37.0341V41H32.1705V17.7273H51.3068ZM58.8892 47.5455C58.2756 47.5455 57.6998 47.4962 57.1619 47.3977C56.6316 47.3068 56.1922 47.1894 55.8438 47.0455L56.9347 43.4318C57.5028 43.6061 58.0142 43.7008 58.4688 43.7159C58.9309 43.7311 59.3286 43.625 59.6619 43.3977C60.0028 43.1705 60.2794 42.7841 60.4915 42.2386L60.7756 41.5L54.5142 23.5455H59.6051L63.2188 36.3636H63.4006L67.0483 23.5455H72.1733L65.3892 42.8864C65.0634 43.8258 64.6203 44.6439 64.0597 45.3409C63.5066 46.0455 62.8059 46.5871 61.9574 46.9659C61.1089 47.3523 60.0862 47.5455 58.8892 47.5455ZM73.7415 27.3523V23.5455H89.5597V27.3523H83.9347V41H79.321V27.3523H73.7415ZM99.8239 41.3409C98.0284 41.3409 96.483 40.9773 95.1875 40.25C93.8996 39.5152 92.9072 38.4773 92.2102 37.1364C91.5133 35.7879 91.1648 34.1932 91.1648 32.3523C91.1648 30.5568 91.5133 28.9811 92.2102 27.625C92.9072 26.2689 93.8883 25.2121 95.1534 24.4545C96.4261 23.697 97.9186 23.3182 99.6307 23.3182C100.782 23.3182 101.854 23.5038 102.847 23.875C103.847 24.2386 104.718 24.7879 105.46 25.5227C106.21 26.2576 106.794 27.1818 107.21 28.2955C107.627 29.4015 107.835 30.697 107.835 32.1818V33.5114H93.0966V30.5114H103.278C103.278 29.8144 103.127 29.197 102.824 28.6591C102.521 28.1212 102.1 27.7008 101.562 27.3977C101.032 27.0871 100.415 26.9318 99.7102 26.9318C98.9754 26.9318 98.3239 27.1023 97.7557 27.4432C97.1951 27.7765 96.7557 28.2273 96.4375 28.7955C96.1193 29.3561 95.9564 29.9811 95.9489 30.6705V33.5227C95.9489 34.3864 96.108 35.1326 96.4261 35.7614C96.7519 36.3902 97.2102 36.875 97.8011 37.2159C98.392 37.5568 99.0928 37.7273 99.9034 37.7273C100.441 37.7273 100.934 37.6515 101.381 37.5C101.828 37.3485 102.21 37.1212 102.528 36.8182C102.847 36.5152 103.089 36.1439 103.256 35.7045L107.733 36C107.506 37.0758 107.04 38.0152 106.335 38.8182C105.638 39.6136 104.737 40.2348 103.631 40.6818C102.532 41.1212 101.263 41.3409 99.8239 41.3409ZM110.994 23.5455H115.619V37.1591H120.54V23.5455H125.165V37.1591H130.085V23.5455H134.71V41H110.994V23.5455ZM146.418 41.3409C144.622 41.3409 143.077 40.9773 141.781 40.25C140.493 39.5152 139.501 38.4773 138.804 37.1364C138.107 35.7879 137.759 34.1932 137.759 32.3523C137.759 30.5568 138.107 28.9811 138.804 27.625C139.501 26.2689 140.482 25.2121 141.747 24.4545C143.02 23.697 144.512 23.3182 146.224 23.3182C147.376 23.3182 148.448 23.5038 149.44 23.875C150.44 24.2386 151.312 24.7879 152.054 25.5227C152.804 26.2576 153.387 27.1818 153.804 28.2955C154.221 29.4015 154.429 30.697 154.429 32.1818V33.5114H139.69V30.5114H149.872C149.872 29.8144 149.721 29.197 149.418 28.6591C149.115 28.1212 148.694 27.7008 148.156 27.3977C147.626 27.0871 147.009 26.9318 146.304 26.9318C145.569 26.9318 144.918 27.1023 144.349 27.4432C143.789 27.7765 143.349 28.2273 143.031 28.7955C142.713 29.3561 142.55 29.9811 142.543 30.6705V33.5227C142.543 34.3864 142.702 35.1326 143.02 35.7614C143.346 36.3902 143.804 36.875 144.395 37.2159C144.986 37.5568 145.687 37.7273 146.497 37.7273C147.035 37.7273 147.527 37.6515 147.974 37.5C148.421 37.3485 148.804 37.1212 149.122 36.8182C149.44 36.5152 149.683 36.1439 149.849 35.7045L154.327 36C154.099 37.0758 153.634 38.0152 152.929 38.8182C152.232 39.6136 151.33 40.2348 150.224 40.6818C149.126 41.1212 147.857 41.3409 146.418 41.3409ZM165.474 41.3409C163.687 41.3409 162.149 40.9621 160.861 40.2045C159.58 39.4394 158.596 38.3788 157.906 37.0227C157.224 35.6667 156.884 34.1061 156.884 32.3409C156.884 30.553 157.228 28.9848 157.918 27.6364C158.615 26.2803 159.603 25.2235 160.884 24.4659C162.164 23.7008 163.687 23.3182 165.452 23.3182C166.974 23.3182 168.308 23.5947 169.452 24.1477C170.596 24.7008 171.501 25.4773 172.168 26.4773C172.834 27.4773 173.202 28.6515 173.27 30H168.702C168.573 29.1288 168.232 28.428 167.679 27.8977C167.134 27.3598 166.418 27.0909 165.531 27.0909C164.781 27.0909 164.126 27.2955 163.565 27.7045C163.012 28.1061 162.58 28.6932 162.27 29.4659C161.959 30.2386 161.804 31.1742 161.804 32.2727C161.804 33.3864 161.955 34.3333 162.259 35.1136C162.569 35.8939 163.005 36.4886 163.565 36.8977C164.126 37.3068 164.781 37.5114 165.531 37.5114C166.084 37.5114 166.58 37.3977 167.02 37.1705C167.467 36.9432 167.834 36.6136 168.122 36.1818C168.418 35.7424 168.611 35.2159 168.702 34.6023H173.27C173.194 35.9356 172.83 37.1098 172.179 38.125C171.535 39.1326 170.645 39.9205 169.509 40.4886C168.372 41.0568 167.027 41.3409 165.474 41.3409ZM175.179 27.3523V23.5455H190.997V27.3523H185.372V41H180.759V27.3523H175.179ZM193.932 41V23.5455H201.375C203.527 23.5455 205.227 23.9545 206.477 24.7727C207.727 25.5909 208.352 26.7538 208.352 28.2614C208.352 29.2083 208 29.9962 207.295 30.625C206.591 31.2538 205.614 31.678 204.364 31.8977C205.409 31.9735 206.299 32.2121 207.034 32.6136C207.777 33.0076 208.341 33.5189 208.727 34.1477C209.121 34.7765 209.318 35.4735 209.318 36.2386C209.318 37.2311 209.053 38.0833 208.523 38.7955C208 39.5076 207.231 40.053 206.216 40.4318C205.208 40.8106 203.977 41 202.523 41H193.932ZM198.443 37.375H202.523C203.197 37.375 203.723 37.2159 204.102 36.8977C204.489 36.572 204.682 36.1288 204.682 35.5682C204.682 34.947 204.489 34.4583 204.102 34.1023C203.723 33.7462 203.197 33.5682 202.523 33.5682H198.443V37.375ZM198.443 30.7273H201.477C201.962 30.7273 202.375 30.6591 202.716 30.5227C203.064 30.3788 203.33 30.1742 203.511 29.9091C203.701 29.6439 203.795 29.3295 203.795 28.9659C203.795 28.428 203.58 28.0076 203.148 27.7045C202.716 27.4015 202.125 27.25 201.375 27.25H198.443V30.7273ZM216.994 34.6136L223.278 23.5455H228.051V41H223.438V29.8977L217.176 41H212.369V23.5455H216.994V34.6136ZM239.886 41.3409C238.091 41.3409 236.545 40.9773 235.25 40.25C233.962 39.5152 232.97 38.4773 232.273 37.1364C231.576 35.7879 231.227 34.1932 231.227 32.3523C231.227 30.5568 231.576 28.9811 232.273 27.625C232.97 26.2689 233.951 25.2121 235.216 24.4545C236.489 23.697 237.981 23.3182 239.693 23.3182C240.845 23.3182 241.917 23.5038 242.909 23.875C243.909 24.2386 244.78 24.7879 245.523 25.5227C246.273 26.2576 246.856 27.1818 247.273 28.2955C247.689 29.4015 247.898 30.697 247.898 32.1818V33.5114H233.159V30.5114H243.341C243.341 29.8144 243.189 29.197 242.886 28.6591C242.583 28.1212 242.163 27.7008 241.625 27.3977C241.095 27.0871 240.477 26.9318 239.773 26.9318C239.038 26.9318 238.386 27.1023 237.818 27.4432C237.258 27.7765 236.818 28.2273 236.5 28.7955C236.182 29.3561 236.019 29.9811 236.011 30.6705V33.5227C236.011 34.3864 236.17 35.1326 236.489 35.7614C236.814 36.3902 237.273 36.875 237.864 37.2159C238.455 37.5568 239.155 37.7273 239.966 37.7273C240.504 37.7273 240.996 37.6515 241.443 37.5C241.89 37.3485 242.273 37.1212 242.591 36.8182C242.909 36.5152 243.152 36.1439 243.318 35.7045L247.795 36C247.568 37.0758 247.102 38.0152 246.398 38.8182C245.701 39.6136 244.799 40.2348 243.693 40.6818C242.595 41.1212 241.326 41.3409 239.886 41.3409ZM258.463 41V23.5455H273.724V41H269.099V27.3523H263.031V41H258.463ZM285.474 41.3409C283.709 41.3409 282.183 40.9659 280.895 40.2159C279.615 39.4583 278.626 38.4053 277.929 37.0568C277.232 35.7008 276.884 34.1288 276.884 32.3409C276.884 30.5379 277.232 28.9621 277.929 27.6136C278.626 26.2576 279.615 25.2045 280.895 24.4545C282.183 23.697 283.709 23.3182 285.474 23.3182C287.24 23.3182 288.762 23.697 290.043 24.4545C291.33 25.2045 292.323 26.2576 293.02 27.6136C293.717 28.9621 294.065 30.5379 294.065 32.3409C294.065 34.1288 293.717 35.7008 293.02 37.0568C292.323 38.4053 291.33 39.4583 290.043 40.2159C288.762 40.9659 287.24 41.3409 285.474 41.3409ZM285.497 37.5909C286.3 37.5909 286.971 37.3636 287.509 36.9091C288.046 36.447 288.452 35.8182 288.724 35.0227C289.005 34.2273 289.145 33.322 289.145 32.3068C289.145 31.2917 289.005 30.3864 288.724 29.5909C288.452 28.7955 288.046 28.1667 287.509 27.7045C286.971 27.2424 286.3 27.0114 285.497 27.0114C284.687 27.0114 284.005 27.2424 283.452 27.7045C282.906 28.1667 282.493 28.7955 282.213 29.5909C281.94 30.3864 281.804 31.2917 281.804 32.3068C281.804 33.322 281.94 34.2273 282.213 35.0227C282.493 35.8182 282.906 36.447 283.452 36.9091C284.005 37.3636 284.687 37.5909 285.497 37.5909ZM296.19 41L296.168 37.1591H296.747C297.156 37.1591 297.509 37.0606 297.804 36.8636C298.107 36.6591 298.357 36.3295 298.554 35.875C298.751 35.4205 298.906 34.8182 299.02 34.0682C299.134 33.3106 299.209 32.3788 299.247 31.2727L299.531 23.5455H312.804V41H308.19V27.3523H303.884L303.611 32.6818C303.543 34.1439 303.365 35.4015 303.077 36.4545C302.796 37.5076 302.406 38.3712 301.906 39.0455C301.406 39.7121 300.804 40.2045 300.099 40.5227C299.395 40.8409 298.577 41 297.645 41H296.19ZM319.591 28.9091H324.807C327.117 28.9091 328.92 29.4621 330.216 30.5682C331.511 31.6667 332.159 33.1364 332.159 34.9773C332.159 36.1742 331.867 37.2273 331.284 38.1364C330.701 39.0379 329.86 39.7424 328.761 40.25C327.663 40.75 326.345 41 324.807 41H316.557V23.5455H321.182V37.1932H324.807C325.617 37.1932 326.284 36.9886 326.807 36.5795C327.33 36.1705 327.595 35.6477 327.602 35.0114C327.595 34.3371 327.33 33.7879 326.807 33.3636C326.284 32.9318 325.617 32.7159 324.807 32.7159H319.591V28.9091ZM334.472 36.0568H339.165C339.188 36.6326 339.445 37.0871 339.938 37.4205C340.43 37.7538 341.066 37.9205 341.847 37.9205C342.634 37.9205 343.297 37.7386 343.835 37.375C344.373 37.0038 344.642 36.4735 344.642 35.7841C344.642 35.3598 344.536 34.9924 344.324 34.6818C344.112 34.3636 343.816 34.1136 343.438 33.9318C343.059 33.75 342.619 33.6591 342.119 33.6591H339.608V30.4886H342.119C342.869 30.4886 343.445 30.3144 343.847 29.9659C344.256 29.6174 344.46 29.1818 344.46 28.6591C344.46 28.0682 344.248 27.5947 343.824 27.2386C343.407 26.875 342.843 26.6932 342.131 26.6932C341.411 26.6932 340.813 26.8561 340.335 27.1818C339.866 27.5 339.623 27.9167 339.608 28.4318H334.938C334.953 27.3864 335.267 26.4811 335.881 25.7159C336.502 24.9508 337.335 24.3598 338.381 23.9432C339.434 23.5265 340.612 23.3182 341.915 23.3182C343.339 23.3182 344.566 23.5189 345.597 23.9205C346.634 24.3144 347.43 24.8788 347.983 25.6136C348.544 26.3485 348.824 27.2235 348.824 28.2386C348.824 29.1629 348.521 29.9356 347.915 30.5568C347.309 31.178 346.46 31.6212 345.369 31.8864V32.0682C346.089 32.1136 346.741 32.3068 347.324 32.6477C347.907 32.9886 348.373 33.4583 348.722 34.0568C349.07 34.6477 349.244 35.3485 349.244 36.1591C349.244 37.2424 348.926 38.1705 348.29 38.9432C347.661 39.7159 346.79 40.3106 345.676 40.7273C344.57 41.1364 343.301 41.3409 341.869 41.3409C340.475 41.3409 339.225 41.1402 338.119 40.7386C337.021 40.3295 336.146 39.7311 335.494 38.9432C334.85 38.1553 334.509 37.1932 334.472 36.0568ZM360.099 41.3409C358.334 41.3409 356.808 40.9659 355.52 40.2159C354.24 39.4583 353.251 38.4053 352.554 37.0568C351.857 35.7008 351.509 34.1288 351.509 32.3409C351.509 30.5379 351.857 28.9621 352.554 27.6136C353.251 26.2576 354.24 25.2045 355.52 24.4545C356.808 23.697 358.334 23.3182 360.099 23.3182C361.865 23.3182 363.387 23.697 364.668 24.4545C365.955 25.2045 366.948 26.2576 367.645 27.6136C368.342 28.9621 368.69 30.5379 368.69 32.3409C368.69 34.1288 368.342 35.7008 367.645 37.0568C366.948 38.4053 365.955 39.4583 364.668 40.2159C363.387 40.9659 361.865 41.3409 360.099 41.3409ZM360.122 37.5909C360.925 37.5909 361.596 37.3636 362.134 36.9091C362.671 36.447 363.077 35.8182 363.349 35.0227C363.63 34.2273 363.77 33.322 363.77 32.3068C363.77 31.2917 363.63 30.3864 363.349 29.5909C363.077 28.7955 362.671 28.1667 362.134 27.7045C361.596 27.2424 360.925 27.0114 360.122 27.0114C359.312 27.0114 358.63 27.2424 358.077 27.7045C357.531 28.1667 357.118 28.7955 356.838 29.5909C356.565 30.3864 356.429 31.2917 356.429 32.3068C356.429 33.322 356.565 34.2273 356.838 35.0227C357.118 35.8182 357.531 36.447 358.077 36.9091C358.63 37.3636 359.312 37.5909 360.122 37.5909ZM371.838 41V23.5455H379.281C381.433 23.5455 383.134 23.9545 384.384 24.7727C385.634 25.5909 386.259 26.7538 386.259 28.2614C386.259 29.2083 385.906 29.9962 385.202 30.625C384.497 31.2538 383.52 31.678 382.27 31.8977C383.315 31.9735 384.205 32.2121 384.94 32.6136C385.683 33.0076 386.247 33.5189 386.634 34.1477C387.027 34.7765 387.224 35.4735 387.224 36.2386C387.224 37.2311 386.959 38.0833 386.429 38.7955C385.906 39.5076 385.137 40.053 384.122 40.4318C383.115 40.8106 381.884 41 380.429 41H371.838ZM376.349 37.375H380.429C381.103 37.375 381.63 37.2159 382.009 36.8977C382.395 36.572 382.588 36.1288 382.588 35.5682C382.588 34.947 382.395 34.4583 382.009 34.1023C381.63 33.7462 381.103 33.5682 380.429 33.5682H376.349V37.375ZM376.349 30.7273H379.384C379.868 30.7273 380.281 30.6591 380.622 30.5227C380.971 30.3788 381.236 30.1742 381.418 29.9091C381.607 29.6439 381.702 29.3295 381.702 28.9659C381.702 28.428 381.486 28.0076 381.054 27.7045C380.622 27.4015 380.031 27.25 379.281 27.25H376.349V30.7273ZM395.253 41.3295C394.139 41.3295 393.147 41.1364 392.276 40.75C391.404 40.3561 390.715 39.7765 390.207 39.0114C389.707 38.2386 389.457 37.2765 389.457 36.125C389.457 35.1553 389.635 34.3409 389.991 33.6818C390.348 33.0227 390.832 32.4924 391.446 32.0909C392.06 31.6894 392.757 31.3864 393.537 31.1818C394.325 30.9773 395.151 30.8333 396.014 30.75C397.029 30.6439 397.848 30.5455 398.469 30.4545C399.09 30.3561 399.541 30.2121 399.821 30.0227C400.101 29.8333 400.241 29.553 400.241 29.1818V29.1136C400.241 28.3939 400.014 27.8371 399.56 27.4432C399.113 27.0492 398.476 26.8523 397.651 26.8523C396.779 26.8523 396.086 27.0455 395.571 27.4318C395.056 27.8106 394.715 28.2879 394.548 28.8636L390.071 28.5C390.298 27.4394 390.745 26.5227 391.412 25.75C392.079 24.9697 392.938 24.3712 393.991 23.9545C395.052 23.5303 396.279 23.3182 397.673 23.3182C398.643 23.3182 399.571 23.4318 400.457 23.6591C401.351 23.8864 402.143 24.2386 402.832 24.7159C403.529 25.1932 404.079 25.8068 404.48 26.5568C404.882 27.2992 405.082 28.1894 405.082 29.2273V41H400.491V38.5795H400.355C400.075 39.125 399.7 39.6061 399.23 40.0227C398.76 40.4318 398.196 40.7538 397.537 40.9886C396.878 41.2159 396.116 41.3295 395.253 41.3295ZM396.639 37.9886C397.351 37.9886 397.98 37.8485 398.526 37.5682C399.071 37.2803 399.499 36.8939 399.81 36.4091C400.12 35.9242 400.276 35.375 400.276 34.7614V32.9091C400.124 33.0076 399.916 33.0985 399.651 33.1818C399.393 33.2576 399.101 33.3295 398.776 33.3977C398.45 33.4583 398.124 33.5152 397.798 33.5682C397.473 33.6136 397.177 33.6553 396.912 33.6932C396.344 33.7765 395.848 33.9091 395.423 34.0909C394.999 34.2727 394.67 34.5189 394.435 34.8295C394.2 35.1326 394.082 35.5114 394.082 35.9659C394.082 36.625 394.321 37.1288 394.798 37.4773C395.283 37.8182 395.897 37.9886 396.639 37.9886ZM407.085 27.3523V23.5455H422.903V27.3523H417.278V41H412.665V27.3523H407.085ZM433.168 41.3409C431.372 41.3409 429.827 40.9773 428.531 40.25C427.243 39.5152 426.251 38.4773 425.554 37.1364C424.857 35.7879 424.509 34.1932 424.509 32.3523C424.509 30.5568 424.857 28.9811 425.554 27.625C426.251 26.2689 427.232 25.2121 428.497 24.4545C429.77 23.697 431.262 23.3182 432.974 23.3182C434.126 23.3182 435.198 23.5038 436.19 23.875C437.19 24.2386 438.062 24.7879 438.804 25.5227C439.554 26.2576 440.137 27.1818 440.554 28.2955C440.971 29.4015 441.179 30.697 441.179 32.1818V33.5114H426.44V30.5114H436.622C436.622 29.8144 436.471 29.197 436.168 28.6591C435.865 28.1212 435.444 27.7008 434.906 27.3977C434.376 27.0871 433.759 26.9318 433.054 26.9318C432.319 26.9318 431.668 27.1023 431.099 27.4432C430.539 27.7765 430.099 28.2273 429.781 28.7955C429.463 29.3561 429.3 29.9811 429.293 30.6705V33.5227C429.293 34.3864 429.452 35.1326 429.77 35.7614C430.096 36.3902 430.554 36.875 431.145 37.2159C431.736 37.5568 432.437 37.7273 433.247 37.7273C433.785 37.7273 434.277 37.6515 434.724 37.5C435.171 37.3485 435.554 37.1212 435.872 36.8182C436.19 36.5152 436.433 36.1439 436.599 35.7045L441.077 36C440.849 37.0758 440.384 38.0152 439.679 38.8182C438.982 39.6136 438.08 40.2348 436.974 40.6818C435.876 41.1212 434.607 41.3409 433.168 41.3409ZM443.315 41L443.293 37.1591H443.872C444.281 37.1591 444.634 37.0606 444.929 36.8636C445.232 36.6591 445.482 36.3295 445.679 35.875C445.876 35.4205 446.031 34.8182 446.145 34.0682C446.259 33.3106 446.334 32.3788 446.372 31.2727L446.656 23.5455H459.929V41H455.315V27.3523H451.009L450.736 32.6818C450.668 34.1439 450.49 35.4015 450.202 36.4545C449.921 37.5076 449.531 38.3712 449.031 39.0455C448.531 39.7121 447.929 40.2045 447.224 40.5227C446.52 40.8409 445.702 41 444.77 41H443.315ZM473.909 41V27.3409H470.636C469.75 27.3409 469.076 27.5455 468.614 27.9545C468.152 28.3636 467.924 28.8485 467.932 29.4091C467.924 29.9773 468.144 30.4583 468.591 30.8523C469.045 31.2386 469.712 31.4318 470.591 31.4318H475.523V34.7045H470.591C469.098 34.7045 467.807 34.4773 466.716 34.0227C465.625 33.5682 464.784 32.9356 464.193 32.125C463.602 31.3068 463.311 30.3561 463.318 29.2727C463.311 28.1364 463.602 27.1402 464.193 26.2841C464.784 25.4205 465.629 24.75 466.727 24.2727C467.833 23.7879 469.136 23.5455 470.636 23.5455H478.42V41H473.909ZM462.818 41L467.67 31.9091H472.295L467.455 41H462.818Z" fill="#F8CA9F"/>
<rect x="34.5" y="69" width="185" height="86" rx="20" fill="#ECECEC"/>
<path d="M56.5227 110V86.7273H61.4432V96.3295H71.4318V86.7273H76.3409V110H71.4318V100.386H61.4432V110H56.5227ZM84.4091 110H79.1364L87.1705 86.7273H93.5114L101.534 110H96.2614L90.4318 92.0455H90.25L84.4091 110ZM84.0795 100.852H96.5341V104.693H84.0795V100.852ZM105.278 86.7273H110.062V94.2273C110.062 95.1212 110.218 95.8409 110.528 96.3864C110.839 96.9242 111.32 97.3144 111.972 97.5568C112.631 97.7917 113.475 97.9091 114.506 97.9091C114.869 97.9091 115.297 97.8977 115.79 97.875C116.282 97.8447 116.79 97.803 117.312 97.75C117.843 97.697 118.343 97.6326 118.812 97.5568C119.282 97.4811 119.672 97.3939 119.983 97.2955V101.182C119.665 101.288 119.267 101.383 118.79 101.466C118.32 101.542 117.824 101.61 117.301 101.67C116.778 101.723 116.271 101.765 115.778 101.795C115.286 101.826 114.862 101.841 114.506 101.841C112.634 101.841 111.006 101.576 109.619 101.045C108.233 100.508 107.161 99.678 106.403 98.5568C105.653 97.4356 105.278 95.9924 105.278 94.2273V86.7273ZM119.131 86.7273H123.938V110H119.131V86.7273ZM132.815 110H127.543L135.577 86.7273H141.918L149.94 110H144.668L138.838 92.0455H138.656L132.815 110ZM132.486 100.852H144.94V104.693H132.486V100.852ZM151.48 110V106.045L152.139 105.989C152.988 105.92 153.673 105.598 154.196 105.023C154.719 104.439 155.109 103.511 155.366 102.239C155.632 100.958 155.802 99.2386 155.878 97.0795L156.264 86.7273H172.06V110H167.276V90.6705H160.832L160.469 98.7727C160.348 101.379 160.037 103.508 159.537 105.159C159.045 106.811 158.257 108.03 157.173 108.818C156.098 109.606 154.624 110 152.753 110H151.48ZM197.503 98.3636C197.503 100.902 197.022 103.061 196.06 104.841C195.105 106.621 193.802 107.981 192.151 108.92C190.507 109.852 188.658 110.318 186.605 110.318C184.537 110.318 182.681 109.848 181.037 108.909C179.393 107.97 178.094 106.61 177.139 104.83C176.185 103.049 175.707 100.894 175.707 98.3636C175.707 95.8258 176.185 93.6667 177.139 91.8864C178.094 90.1061 179.393 88.75 181.037 87.8182C182.681 86.8788 184.537 86.4091 186.605 86.4091C188.658 86.4091 190.507 86.8788 192.151 87.8182C193.802 88.75 195.105 90.1061 196.06 91.8864C197.022 93.6667 197.503 95.8258 197.503 98.3636ZM192.514 98.3636C192.514 96.7197 192.268 95.3333 191.776 94.2045C191.291 93.0758 190.605 92.2197 189.719 91.6364C188.832 91.053 187.795 90.7614 186.605 90.7614C185.416 90.7614 184.378 91.053 183.491 91.6364C182.605 92.2197 181.916 93.0758 181.423 94.2045C180.938 95.3333 180.696 96.7197 180.696 98.3636C180.696 100.008 180.938 101.394 181.423 102.523C181.916 103.652 182.605 104.508 183.491 105.091C184.378 105.674 185.416 105.966 186.605 105.966C187.795 105.966 188.832 105.674 189.719 105.091C190.605 104.508 191.291 103.652 191.776 102.523C192.268 101.394 192.514 100.008 192.514 98.3636Z" fill="#735959"/>
<path d="M83.6186 142V131.818H87.3473C88.0698 131.818 88.6681 131.937 89.142 132.176C89.616 132.411 89.9706 132.731 90.206 133.136C90.4413 133.537 90.5589 133.989 90.5589 134.493C90.5589 134.917 90.4811 135.275 90.3253 135.567C90.1695 135.855 89.9607 136.087 89.6989 136.263C89.4403 136.435 89.1553 136.561 88.8438 136.641V136.74C89.1818 136.757 89.5116 136.866 89.8331 137.068C90.1579 137.267 90.4264 137.55 90.6385 137.918C90.8506 138.286 90.9567 138.734 90.9567 139.261C90.9567 139.781 90.834 140.248 90.5888 140.663C90.3468 141.074 89.9723 141.4 89.4652 141.642C88.9581 141.881 88.3101 142 87.5213 142H83.6186ZM85.1548 140.683H87.3722C88.108 140.683 88.6349 140.54 88.9531 140.255C89.2713 139.97 89.4304 139.614 89.4304 139.186C89.4304 138.865 89.3492 138.57 89.1868 138.301C89.0244 138.033 88.7924 137.819 88.4908 137.66C88.1925 137.501 87.8378 137.421 87.4268 137.421H85.1548V140.683ZM85.1548 136.223H87.2131C87.5578 136.223 87.8677 136.157 88.1428 136.024C88.4212 135.892 88.6416 135.706 88.804 135.467C88.9697 135.225 89.0526 134.94 89.0526 134.612C89.0526 134.191 88.9051 133.838 88.6101 133.553C88.3151 133.268 87.8627 133.126 87.2528 133.126H85.1548V136.223ZM93.8327 134.364L95.5181 137.337L97.2184 134.364H98.8441L96.4627 138.182L98.864 142H97.2383L95.5181 139.146L93.8029 142H92.1722L94.5487 138.182L92.2021 134.364H93.8327ZM103.286 142.154C102.57 142.154 101.946 141.99 101.412 141.662C100.878 141.334 100.464 140.875 100.169 140.285C99.8741 139.695 99.7266 139.005 99.7266 138.217C99.7266 137.424 99.8741 136.732 100.169 136.138C100.464 135.545 100.878 135.085 101.412 134.756C101.946 134.428 102.57 134.264 103.286 134.264C104.002 134.264 104.627 134.428 105.161 134.756C105.694 135.085 106.108 135.545 106.403 136.138C106.698 136.732 106.846 137.424 106.846 138.217C106.846 139.005 106.698 139.695 106.403 140.285C106.108 140.875 105.694 141.334 105.161 141.662C104.627 141.99 104.002 142.154 103.286 142.154ZM103.291 140.906C103.755 140.906 104.14 140.784 104.445 140.538C104.75 140.293 104.975 139.967 105.121 139.559C105.27 139.151 105.344 138.702 105.344 138.212C105.344 137.724 105.27 137.277 105.121 136.869C104.975 136.458 104.75 136.129 104.445 135.88C104.14 135.631 103.755 135.507 103.291 135.507C102.824 135.507 102.436 135.631 102.128 135.88C101.823 136.129 101.596 136.458 101.447 136.869C101.301 137.277 101.228 137.724 101.228 138.212C101.228 138.702 101.301 139.151 101.447 139.559C101.596 139.967 101.823 140.293 102.128 140.538C102.436 140.784 102.824 140.906 103.291 140.906ZM107.759 144.202V140.712H108.381C108.54 140.567 108.674 140.393 108.784 140.19C108.896 139.988 108.991 139.748 109.067 139.469C109.146 139.191 109.213 138.866 109.266 138.495C109.319 138.121 109.365 137.693 109.405 137.212L109.644 134.364H114.834V140.712H116.007V144.202H114.556V142H109.231V144.202H107.759ZM109.972 140.712H113.382V135.636H110.976L110.817 137.212C110.741 138.014 110.645 138.71 110.529 139.3C110.413 139.887 110.227 140.358 109.972 140.712ZM126.341 137.54V138.828H122.204V137.54H126.341ZM122.622 134.364V142H121.165V134.364H122.622ZM127.38 134.364V142H125.928V134.364H127.38ZM131.591 142.169C131.107 142.169 130.669 142.08 130.278 141.901C129.887 141.718 129.577 141.455 129.349 141.11C129.123 140.765 129.01 140.343 129.01 139.842C129.01 139.411 129.093 139.057 129.259 138.778C129.425 138.5 129.648 138.28 129.93 138.117C130.212 137.955 130.527 137.832 130.875 137.749C131.223 137.666 131.577 137.603 131.939 137.56C132.396 137.507 132.767 137.464 133.052 137.431C133.337 137.395 133.545 137.337 133.674 137.257C133.803 137.178 133.868 137.048 133.868 136.869V136.835C133.868 136.4 133.745 136.064 133.5 135.825C133.258 135.587 132.897 135.467 132.416 135.467C131.916 135.467 131.521 135.578 131.233 135.8C130.948 136.019 130.751 136.263 130.641 136.531L129.244 136.213C129.41 135.749 129.652 135.375 129.97 135.089C130.291 134.801 130.661 134.592 131.079 134.463C131.496 134.33 131.935 134.264 132.396 134.264C132.701 134.264 133.024 134.301 133.366 134.374C133.71 134.443 134.032 134.572 134.33 134.761C134.632 134.95 134.879 135.22 135.071 135.572C135.263 135.92 135.359 136.372 135.359 136.929V142H133.907V140.956H133.848C133.752 141.148 133.608 141.337 133.415 141.523C133.223 141.708 132.976 141.862 132.675 141.985C132.373 142.108 132.012 142.169 131.591 142.169ZM131.914 140.976C132.325 140.976 132.676 140.895 132.968 140.732C133.263 140.57 133.487 140.358 133.639 140.096C133.795 139.831 133.873 139.547 133.873 139.246V138.261C133.82 138.314 133.717 138.364 133.564 138.411C133.415 138.454 133.245 138.492 133.052 138.525C132.86 138.555 132.673 138.583 132.491 138.609C132.308 138.633 132.156 138.652 132.033 138.669C131.745 138.705 131.481 138.767 131.243 138.853C131.007 138.939 130.818 139.063 130.676 139.226C130.537 139.385 130.467 139.597 130.467 139.862C130.467 140.23 130.603 140.509 130.875 140.697C131.147 140.883 131.493 140.976 131.914 140.976ZM144.261 142.154C143.522 142.154 142.885 141.987 142.352 141.652C141.821 141.314 141.414 140.848 141.129 140.255C140.844 139.662 140.701 138.982 140.701 138.217C140.701 137.441 140.847 136.757 141.139 136.163C141.43 135.567 141.841 135.101 142.372 134.766C142.902 134.432 143.527 134.264 144.246 134.264C144.826 134.264 145.343 134.372 145.797 134.587C146.251 134.799 146.617 135.098 146.896 135.482C147.177 135.867 147.345 136.316 147.398 136.83H145.951C145.872 136.472 145.689 136.163 145.404 135.905C145.123 135.646 144.745 135.517 144.271 135.517C143.856 135.517 143.494 135.626 143.182 135.845C142.874 136.061 142.633 136.369 142.461 136.77C142.289 137.168 142.203 137.638 142.203 138.182C142.203 138.739 142.287 139.219 142.456 139.624C142.625 140.028 142.864 140.341 143.172 140.563C143.484 140.785 143.85 140.896 144.271 140.896C144.552 140.896 144.808 140.845 145.036 140.742C145.268 140.636 145.462 140.485 145.618 140.29C145.777 140.094 145.888 139.859 145.951 139.584H147.398C147.345 140.078 147.184 140.518 146.916 140.906C146.647 141.294 146.288 141.599 145.837 141.821C145.389 142.043 144.864 142.154 144.261 142.154ZM151.21 142.169C150.726 142.169 150.288 142.08 149.897 141.901C149.506 141.718 149.196 141.455 148.968 141.11C148.742 140.765 148.63 140.343 148.63 139.842C148.63 139.411 148.712 139.057 148.878 138.778C149.044 138.5 149.268 138.28 149.549 138.117C149.831 137.955 150.146 137.832 150.494 137.749C150.842 137.666 151.197 137.603 151.558 137.56C152.015 137.507 152.386 137.464 152.672 137.431C152.957 137.395 153.164 137.337 153.293 137.257C153.422 137.178 153.487 137.048 153.487 136.869V136.835C153.487 136.4 153.364 136.064 153.119 135.825C152.877 135.587 152.516 135.467 152.035 135.467C151.535 135.467 151.14 135.578 150.852 135.8C150.567 136.019 150.37 136.263 150.26 136.531L148.863 136.213C149.029 135.749 149.271 135.375 149.589 135.089C149.911 134.801 150.28 134.592 150.698 134.463C151.115 134.33 151.555 134.264 152.015 134.264C152.32 134.264 152.643 134.301 152.985 134.374C153.329 134.443 153.651 134.572 153.949 134.761C154.251 134.95 154.498 135.22 154.69 135.572C154.882 135.92 154.978 136.372 154.978 136.929V142H153.527V140.956H153.467C153.371 141.148 153.227 141.337 153.034 141.523C152.842 141.708 152.595 141.862 152.294 141.985C151.992 142.108 151.631 142.169 151.21 142.169ZM151.533 140.976C151.944 140.976 152.295 140.895 152.587 140.732C152.882 140.57 153.106 140.358 153.258 140.096C153.414 139.831 153.492 139.547 153.492 139.246V138.261C153.439 138.314 153.336 138.364 153.184 138.411C153.034 138.454 152.864 138.492 152.672 138.525C152.479 138.555 152.292 138.583 152.11 138.609C151.927 138.633 151.775 138.652 151.652 138.669C151.364 138.705 151.1 138.767 150.862 138.853C150.627 138.939 150.438 139.063 150.295 139.226C150.156 139.385 150.086 139.597 150.086 139.862C150.086 140.23 150.222 140.509 150.494 140.697C150.766 140.883 151.112 140.976 151.533 140.976ZM158.415 139.917L161.781 134.364H163.382V142H161.925V136.442L158.574 142H156.958V134.364H158.415V139.917ZM161.144 131.778H162.367C162.367 132.339 162.169 132.794 161.771 133.146C161.376 133.494 160.843 133.668 160.17 133.668C159.5 133.668 158.968 133.494 158.574 133.146C158.18 132.794 157.982 132.339 157.982 131.778H159.2C159.2 132.027 159.273 132.247 159.419 132.44C159.565 132.629 159.815 132.723 160.17 132.723C160.518 132.723 160.767 132.629 160.916 132.44C161.068 132.251 161.144 132.03 161.144 131.778ZM164.433 135.646V134.364H170.876V135.646H168.385V142H166.934V135.646H164.433Z" fill="black"/>
<path d="M219.5 112H309.5" stroke="url(#paint0_linear_49_228)" stroke-width="10"/>
<rect x="309.5" y="69" width="166" height="86" rx="20" fill="#10BF0D"/>
<path d="M350.977 110L343.5 100.08H341.818V110H336.898V86.7273H341.818V96.0227H342.807L350.534 86.7273H356.659L347.58 97.5227L357.08 110H350.977ZM379.628 98.3636C379.628 100.902 379.147 103.061 378.185 104.841C377.23 106.621 375.927 107.981 374.276 108.92C372.632 109.852 370.783 110.318 368.73 110.318C366.662 110.318 364.806 109.848 363.162 108.909C361.518 107.97 360.219 106.61 359.264 104.83C358.31 103.049 357.832 100.894 357.832 98.3636C357.832 95.8258 358.31 93.6667 359.264 91.8864C360.219 90.1061 361.518 88.75 363.162 87.8182C364.806 86.8788 366.662 86.4091 368.73 86.4091C370.783 86.4091 372.632 86.8788 374.276 87.8182C375.927 88.75 377.23 90.1061 378.185 91.8864C379.147 93.6667 379.628 95.8258 379.628 98.3636ZM374.639 98.3636C374.639 96.7197 374.393 95.3333 373.901 94.2045C373.416 93.0758 372.73 92.2197 371.844 91.6364C370.957 91.053 369.92 90.7614 368.73 90.7614C367.541 90.7614 366.503 91.053 365.616 91.6364C364.73 92.2197 364.041 93.0758 363.548 94.2045C363.063 95.3333 362.821 96.7197 362.821 98.3636C362.821 100.008 363.063 101.394 363.548 102.523C364.041 103.652 364.73 104.508 365.616 105.091C366.503 105.674 367.541 105.966 368.73 105.966C369.92 105.966 370.957 105.674 371.844 105.091C372.73 104.508 373.416 103.652 373.901 102.523C374.393 101.394 374.639 100.008 374.639 98.3636ZM383.273 110V86.7273H388.193V96.3295H398.182V86.7273H403.091V110H398.182V100.386H388.193V110H383.273ZM407.148 110V86.7273H422.83V90.7841H412.068V96.3295H422.023V100.386H412.068V105.943H422.875V110H407.148ZM449.162 106.068L448.878 115.5H444.196V110H442.56V106.068H449.162ZM426.741 110V86.7273H431.469V106.045H441.151V86.7273H445.935V110H426.741Z" fill="#442B2B"/>
<path d="M330.306 144.461V140.697H330.977C331.206 140.505 331.42 140.232 331.619 139.877C331.817 139.522 331.986 139.044 332.126 138.44C332.265 137.837 332.361 137.063 332.414 136.119L332.653 131.818H338.932V140.697H340.085V144.446H338.614V142H331.778V144.461H330.306ZM332.787 140.697H337.46V133.141H334.045L333.886 136.119C333.842 136.838 333.771 137.484 333.672 138.058C333.576 138.631 333.451 139.138 333.299 139.579C333.15 140.016 332.979 140.389 332.787 140.697ZM344.865 142.154C344.149 142.154 343.525 141.99 342.991 141.662C342.457 141.334 342.043 140.875 341.748 140.285C341.453 139.695 341.306 139.005 341.306 138.217C341.306 137.424 341.453 136.732 341.748 136.138C342.043 135.545 342.457 135.085 342.991 134.756C343.525 134.428 344.149 134.264 344.865 134.264C345.581 134.264 346.206 134.428 346.74 134.756C347.273 135.085 347.688 135.545 347.983 136.138C348.277 136.732 348.425 137.424 348.425 138.217C348.425 139.005 348.277 139.695 347.983 140.285C347.688 140.875 347.273 141.334 346.74 141.662C346.206 141.99 345.581 142.154 344.865 142.154ZM344.87 140.906C345.334 140.906 345.719 140.784 346.024 140.538C346.329 140.293 346.554 139.967 346.7 139.559C346.849 139.151 346.924 138.702 346.924 138.212C346.924 137.724 346.849 137.277 346.7 136.869C346.554 136.458 346.329 136.129 346.024 135.88C345.719 135.631 345.334 135.507 344.87 135.507C344.403 135.507 344.015 135.631 343.707 135.88C343.402 136.129 343.175 136.458 343.026 136.869C342.88 137.277 342.807 137.724 342.807 138.212C342.807 138.702 342.88 139.151 343.026 139.559C343.175 139.967 343.402 140.293 343.707 140.538C344.015 140.784 344.403 140.906 344.87 140.906ZM353.301 142.154C352.562 142.154 351.925 141.987 351.392 141.652C350.861 141.314 350.454 140.848 350.169 140.255C349.884 139.662 349.741 138.982 349.741 138.217C349.741 137.441 349.887 136.757 350.179 136.163C350.47 135.567 350.881 135.101 351.412 134.766C351.942 134.432 352.567 134.264 353.286 134.264C353.866 134.264 354.383 134.372 354.837 134.587C355.291 134.799 355.657 135.098 355.936 135.482C356.218 135.867 356.385 136.316 356.438 136.83H354.991C354.912 136.472 354.729 136.163 354.444 135.905C354.163 135.646 353.785 135.517 353.311 135.517C352.897 135.517 352.534 135.626 352.222 135.845C351.914 136.061 351.674 136.369 351.501 136.77C351.329 137.168 351.243 137.638 351.243 138.182C351.243 138.739 351.327 139.219 351.496 139.624C351.665 140.028 351.904 140.341 352.212 140.563C352.524 140.785 352.89 140.896 353.311 140.896C353.593 140.896 353.848 140.845 354.076 140.742C354.308 140.636 354.502 140.485 354.658 140.29C354.817 140.094 354.928 139.859 354.991 139.584H356.438C356.385 140.078 356.224 140.518 355.956 140.906C355.687 141.294 355.328 141.599 354.877 141.821C354.429 142.043 353.904 142.154 353.301 142.154ZM357.45 135.646V134.364H363.893V135.646H361.402V142H359.95V135.646H357.45ZM366.922 139.917L370.288 134.364H371.888V142H370.432V136.442L367.081 142H365.465V134.364H366.922V139.917ZM373.4 142L376.358 138.092L373.435 134.364H375.165L377.526 137.536H378.058V134.364H379.545V137.536H380.062L382.423 134.364H384.153L381.245 138.092L384.188 142H382.423L380.042 138.818H379.545V142H378.058V138.818H377.561L375.165 142H373.4ZM388.69 142.154C387.938 142.154 387.29 141.993 386.746 141.672C386.206 141.347 385.788 140.891 385.493 140.305C385.201 139.715 385.056 139.024 385.056 138.232C385.056 137.449 385.201 136.76 385.493 136.163C385.788 135.567 386.199 135.101 386.726 134.766C387.256 134.432 387.876 134.264 388.585 134.264C389.016 134.264 389.434 134.335 389.838 134.478C390.243 134.621 390.606 134.844 390.927 135.149C391.249 135.454 391.502 135.85 391.688 136.337C391.873 136.821 391.966 137.41 391.966 138.102V138.629H385.896V137.516H390.509C390.509 137.125 390.43 136.778 390.271 136.477C390.112 136.172 389.888 135.931 389.6 135.756C389.315 135.58 388.98 135.492 388.595 135.492C388.178 135.492 387.813 135.595 387.502 135.8C387.193 136.003 386.955 136.268 386.786 136.596C386.62 136.921 386.537 137.274 386.537 137.655V138.525C386.537 139.035 386.627 139.469 386.806 139.827C386.988 140.185 387.242 140.459 387.566 140.648C387.891 140.833 388.271 140.926 388.705 140.926C388.987 140.926 389.243 140.886 389.475 140.807C389.707 140.724 389.908 140.601 390.077 140.439C390.246 140.277 390.375 140.076 390.465 139.837L391.872 140.091C391.759 140.505 391.557 140.868 391.265 141.18C390.977 141.488 390.614 141.728 390.176 141.901C389.742 142.07 389.247 142.154 388.69 142.154ZM398.791 137.54V138.828H394.655V137.54H398.791ZM395.072 134.364V142H393.616V134.364H395.072ZM399.83 134.364V142H398.378V134.364H399.83ZM403.275 139.917L406.641 134.364H408.242V142H406.785V136.442L403.434 142H401.819V134.364H403.275V139.917ZM413.532 142.154C412.779 142.154 412.131 141.993 411.588 141.672C411.048 141.347 410.63 140.891 410.335 140.305C410.043 139.715 409.897 139.024 409.897 138.232C409.897 137.449 410.043 136.76 410.335 136.163C410.63 135.567 411.041 135.101 411.568 134.766C412.098 134.432 412.718 134.264 413.427 134.264C413.858 134.264 414.276 134.335 414.68 134.478C415.084 134.621 415.447 134.844 415.769 135.149C416.09 135.454 416.344 135.85 416.53 136.337C416.715 136.821 416.808 137.41 416.808 138.102V138.629H410.738V137.516H415.351C415.351 137.125 415.272 136.778 415.113 136.477C414.954 136.172 414.73 135.931 414.441 135.756C414.156 135.58 413.822 135.492 413.437 135.492C413.02 135.492 412.655 135.595 412.343 135.8C412.035 136.003 411.797 136.268 411.628 136.596C411.462 136.921 411.379 137.274 411.379 137.655V138.525C411.379 139.035 411.468 139.469 411.647 139.827C411.83 140.185 412.083 140.459 412.408 140.648C412.733 140.833 413.112 140.926 413.547 140.926C413.828 140.926 414.085 140.886 414.317 140.807C414.549 140.724 414.75 140.601 414.919 140.439C415.088 140.277 415.217 140.076 415.307 139.837L416.714 140.091C416.601 140.505 416.399 140.868 416.107 141.18C415.819 141.488 415.456 141.728 415.018 141.901C414.584 142.07 414.089 142.154 413.532 142.154ZM428.392 134.364V140.782H429.51V144.461H428.044V142H422.162V134.364H423.619V140.717H426.94V134.364H428.392ZM434.368 142.154C433.615 142.154 432.967 141.993 432.424 141.672C431.883 141.347 431.466 140.891 431.171 140.305C430.879 139.715 430.733 139.024 430.733 138.232C430.733 137.449 430.879 136.76 431.171 136.163C431.466 135.567 431.877 135.101 432.404 134.766C432.934 134.432 433.554 134.264 434.263 134.264C434.694 134.264 435.112 134.335 435.516 134.478C435.92 134.621 436.283 134.844 436.605 135.149C436.926 135.454 437.18 135.85 437.366 136.337C437.551 136.821 437.644 137.41 437.644 138.102V138.629H431.574V137.516H436.187C436.187 137.125 436.108 136.778 435.949 136.477C435.79 136.172 435.566 135.931 435.277 135.756C434.992 135.58 434.658 135.492 434.273 135.492C433.856 135.492 433.491 135.595 433.179 135.8C432.871 136.003 432.633 136.268 432.464 136.596C432.298 136.921 432.215 137.274 432.215 137.655V138.525C432.215 139.035 432.304 139.469 432.483 139.827C432.666 140.185 432.919 140.459 433.244 140.648C433.569 140.833 433.948 140.926 434.383 140.926C434.664 140.926 434.921 140.886 435.153 140.807C435.385 140.724 435.586 140.601 435.755 140.439C435.924 140.277 436.053 140.076 436.142 139.837L437.549 140.091C437.437 140.505 437.235 140.868 436.943 141.18C436.655 141.488 436.292 141.728 435.854 141.901C435.42 142.07 434.924 142.154 434.368 142.154ZM438.692 142L438.687 140.712H438.96C439.172 140.712 439.35 140.668 439.492 140.578C439.638 140.485 439.757 140.33 439.85 140.111C439.943 139.892 440.014 139.59 440.064 139.206C440.114 138.818 440.15 138.331 440.173 137.744L440.307 134.364H445.637V142H444.18V135.646H441.685L441.565 138.241C441.535 138.871 441.471 139.421 441.371 139.892C441.275 140.363 441.134 140.755 440.949 141.07C440.763 141.382 440.525 141.616 440.233 141.771C439.941 141.924 439.587 142 439.169 142H438.692ZM449.076 139.917L452.442 134.364H454.043V142H452.586V136.442L449.235 142H447.619V134.364H449.076V139.917Z" fill="black"/>
<defs>
<linearGradient id="paint0_linear_49_228" x1="221.84" y1="111.499" x2="309.5" y2="111.499" gradientUnits="userSpaceOnUse">
<stop stop-color="#ECECEC"/>
<stop offset="1" stop-color="#10BF0D"/>
</linearGradient>
</defs>
</svg>
