<svg width="510" height="300" viewBox="0 0 510 300" fill="none" xmlns="http://www.w3.org/2000/svg">
<path d="M414.07 200.195L421.95 179.88C422.261 179.08 422.799 178.395 423.488 177.908L432.004 171.944C433.354 170.983 435.814 170.907 437.34 172.305C439.011 173.738 439.436 176.45 438.263 178.244L434.704 184.372C434.393 184.94 434.341 185.543 434.512 186.097C434.699 186.611 435.097 187.048 435.628 187.261L443.709 190.503C445.263 191.126 446.351 192.302 446.704 193.738C447.032 195.117 446.627 196.572 445.584 197.794L434.938 210.83C433.367 213.065 429.929 214.02 427.295 212.963L419.627 209.887C418.309 209.358 416.639 208.157 416.127 206.958L414.379 203.969C413.702 202.843 413.589 201.434 414.07 200.195Z" fill="#FFE457"/>
<path d="M417.211 173.468L415.185 172.656C412.138 171.433 410.434 172.136 409.286 175.095L401.483 195.21C400.336 198.17 401.109 199.866 404.156 201.089L406.182 201.901C409.229 203.124 410.933 202.421 412.081 199.462L419.884 179.347C421.032 176.387 420.258 174.691 417.211 173.468Z" fill="#FFE457"/>
<path d="M85.6797 218.743C90.1717 217.008 92.4329 211.893 90.727 207.324L87.6367 199.049L79.499 202.192C75.007 203.926 72.7458 209.042 74.4517 213.61C76.1576 218.178 81.1877 220.478 85.6797 218.743Z" fill="#0ACF83"/>
<path d="M68.271 197.059C66.5651 192.491 68.8263 187.375 73.3183 185.64L81.456 182.498L87.6367 199.049L79.4991 202.192C75.0071 203.926 69.9769 201.627 68.271 197.059Z" fill="#A259FF"/>
<path d="M62.0904 180.507C60.3845 175.939 62.6457 170.824 67.1377 169.089L75.2753 165.946L81.4561 182.498L73.3184 185.64C68.8264 187.375 63.7962 185.076 62.0904 180.507Z" fill="#F24E1E"/>
<path d="M75.2754 165.946L83.4131 162.804C87.9051 161.069 92.9352 163.368 94.6411 167.936C96.347 172.505 94.0858 177.62 89.5938 179.355L81.4561 182.498L75.2754 165.946Z" fill="#FF7262"/>
<path d="M100.822 184.488C102.528 189.056 100.266 194.171 95.7744 195.906C91.2824 197.641 86.2523 195.341 84.5464 190.773C82.8405 186.205 85.1017 181.09 89.5937 179.355C94.0857 177.62 99.1159 179.919 100.822 184.488Z" fill="#1ABCFE"/>
<path d="M17.5 237.652C25.6987 237.652 32.375 244.328 32.375 252.527C32.375 260.726 25.6987 267.402 17.5 267.402C9.30125 267.402 2.625 260.726 2.625 252.527C2.625 244.328 9.30125 237.652 17.5 237.652ZM17.5 235.027C7.83125 235.027 0 242.858 0 252.527C0 262.196 7.83125 270.027 17.5 270.027C27.1688 270.027 35 262.196 35 252.527C35 242.858 27.1688 235.027 17.5 235.027Z" fill="#969696"/>
<path d="M17.5 208.272C25.6987 208.272 32.375 214.949 32.375 223.147C32.375 231.346 25.6987 238.022 17.5 238.022C9.30125 238.022 2.625 231.346 2.625 223.147C2.625 214.949 9.30125 208.272 17.5 208.272ZM17.5 205.647C7.83125 205.647 0 213.479 0 223.147C0 232.816 7.83125 240.647 17.5 240.647C27.1688 240.647 35 232.816 35 223.147C35 213.479 27.1688 205.647 17.5 205.647Z" fill="#969696"/>
<path d="M17.5 178.893C25.6987 178.893 32.375 185.569 32.375 193.768C32.375 201.967 25.6987 208.643 17.5 208.643C9.30125 208.643 2.625 201.967 2.625 193.768C2.625 185.569 9.30125 178.893 17.5 178.893ZM17.5 176.268C7.83125 176.268 0 184.099 0 193.768C0 203.437 7.83125 211.268 17.5 211.268C27.1688 211.268 35 203.437 35 193.768C35 184.099 27.1688 176.268 17.5 176.268Z" fill="#969696"/>
<path d="M17.5 149.513C25.6987 149.513 32.375 156.189 32.375 164.388C32.375 172.587 25.6987 179.263 17.5 179.263C9.30125 179.263 2.625 172.587 2.625 164.388C2.625 156.189 9.30125 149.513 17.5 149.513ZM17.5 146.888C7.83125 146.888 0 154.719 0 164.388C0 174.057 7.83125 181.888 17.5 181.888C27.1688 181.888 35 174.057 35 164.388C35 154.719 27.1688 146.888 17.5 146.888Z" fill="#969696"/>
<path d="M17.5 120.144C25.6987 120.144 32.375 126.82 32.375 135.019C32.375 143.217 25.6987 149.894 17.5 149.894C9.30125 149.894 2.625 143.217 2.625 135.019C2.625 126.82 9.30125 120.144 17.5 120.144ZM17.5 117.519C7.83125 117.519 0 125.35 0 135.019C0 144.687 7.83125 152.519 17.5 152.519C27.1688 152.519 35 144.687 35 135.019C35 125.35 27.1688 117.519 17.5 117.519Z" fill="#969696"/>
<path d="M17.5 90.764C25.6987 90.764 32.375 97.4402 32.375 105.639C32.375 113.838 25.6987 120.514 17.5 120.514C9.30125 120.514 2.625 113.838 2.625 105.639C2.625 97.4402 9.30125 90.764 17.5 90.764ZM17.5 88.139C7.83125 88.139 0 95.9702 0 105.639C0 115.308 7.83125 123.139 17.5 123.139C27.1688 123.139 35 115.308 35 105.639C35 95.9702 27.1688 88.139 17.5 88.139Z" fill="#969696"/>
<path d="M17.5 61.3843C25.6987 61.3843 32.375 68.0606 32.375 76.2593C32.375 84.4581 25.6987 91.1343 17.5 91.1343C9.30125 91.1343 2.625 84.4581 2.625 76.2593C2.625 68.0606 9.30125 61.3843 17.5 61.3843ZM17.5 58.7593C7.83125 58.7593 0 66.5906 0 76.2593C0 85.9281 7.83125 93.7593 17.5 93.7593C27.1688 93.7593 35 85.9281 35 76.2593C35 66.5906 27.1688 58.7593 17.5 58.7593Z" fill="#969696"/>
<path d="M17.5 32.0047C25.6987 32.0047 32.375 38.6809 32.375 46.8797C32.375 55.0784 25.6987 61.7547 17.5 61.7547C9.30125 61.7547 2.625 55.0784 2.625 46.8797C2.625 38.6809 9.30125 32.0047 17.5 32.0047ZM17.5 29.3797C7.83125 29.3797 0 37.2109 0 46.8797C0 56.5484 7.83125 64.3797 17.5 64.3797C27.1688 64.3797 35 56.5484 35 46.8797C35 37.2109 27.1688 29.3797 17.5 29.3797Z" fill="#969696"/>
<path d="M17.5 2.625C25.6987 2.625 32.375 9.30125 32.375 17.5C32.375 25.6987 25.6987 32.375 17.5 32.375C9.30125 32.375 2.625 25.6987 2.625 17.5C2.625 9.30125 9.30125 2.625 17.5 2.625ZM17.5 0C7.83125 0 0 7.83125 0 17.5C0 27.1688 7.83125 35 17.5 35C27.1688 35 35 27.1688 35 17.5C35 7.83125 27.1688 0 17.5 0Z" fill="#969696"/>
<path d="M47.1707 2.625C55.3694 2.625 62.0457 9.30125 62.0457 17.5C62.0457 25.6987 55.3694 32.375 47.1707 32.375C38.9719 32.375 32.2957 25.6987 32.2957 17.5C32.2957 9.30125 38.9632 2.625 47.1707 2.625ZM47.1707 0C37.5019 0 29.6707 7.83125 29.6707 17.5C29.6707 27.1688 37.5019 35 47.1707 35C56.8394 35 64.6707 27.1688 64.6707 17.5C64.6707 7.83125 56.8307 0 47.1707 0Z" fill="#969696"/>
<path d="M76.8318 2.625C85.0305 2.625 91.7068 9.30125 91.7068 17.5C91.7068 25.6987 85.0305 32.375 76.8318 32.375C68.633 32.375 61.9568 25.6987 61.9568 17.5C61.9568 9.30125 68.633 2.625 76.8318 2.625ZM76.8318 0C67.163 0 59.3318 7.83125 59.3318 17.5C59.3318 27.1688 67.163 35 76.8318 35C86.5005 35 94.3318 27.1688 94.3318 17.5C94.3318 7.83125 86.5005 0 76.8318 0Z" fill="#969696"/>
<path d="M106.502 2.625C114.701 2.625 121.377 9.30125 121.377 17.5C121.377 25.6987 114.701 32.375 106.502 32.375C98.3037 32.375 91.6274 25.6987 91.6274 17.5C91.6274 9.30125 98.2949 2.625 106.502 2.625ZM106.502 0C96.8337 0 89.0024 7.83125 89.0024 17.5C89.0024 27.1688 96.8337 35 106.502 35C116.171 35 124.002 27.1688 124.002 17.5C124.002 7.83125 116.162 0 106.502 0Z" fill="#969696"/>
<path d="M136.163 2.625C144.362 2.625 151.038 9.30125 151.038 17.5C151.038 25.6987 144.362 32.375 136.163 32.375C127.965 32.375 121.288 25.6987 121.288 17.5C121.288 9.30125 127.965 2.625 136.163 2.625ZM136.163 0C126.495 0 118.663 7.83125 118.663 17.5C118.663 27.1688 126.495 35 136.163 35C145.832 35 153.663 27.1688 153.663 17.5C153.663 7.83125 145.832 0 136.163 0Z" fill="#969696"/>
<path d="M165.834 2.625C174.033 2.625 180.709 9.30125 180.709 17.5C180.709 25.6987 174.033 32.375 165.834 32.375C157.635 32.375 150.959 25.6987 150.959 17.5C150.959 9.30125 157.635 2.625 165.834 2.625ZM165.834 0C156.165 0 148.334 7.83125 148.334 17.5C148.334 27.1688 156.165 35 165.834 35C175.503 35 183.334 27.1688 183.334 17.5C183.334 7.83125 175.494 0 165.834 0Z" fill="#969696"/>
<path d="M195.495 2.625C203.694 2.625 210.37 9.30125 210.37 17.5C210.37 25.6987 203.694 32.375 195.495 32.375C187.296 32.375 180.62 25.6987 180.62 17.5C180.62 9.30125 187.296 2.625 195.495 2.625ZM195.495 0C185.826 0 177.995 7.83125 177.995 17.5C177.995 27.1688 185.826 35 195.495 35C205.164 35 212.995 27.1688 212.995 17.5C212.995 7.83125 205.164 0 195.495 0Z" fill="#969696"/>
<path d="M225.166 2.625C233.365 2.625 240.041 9.30125 240.041 17.5C240.041 25.6987 233.365 32.375 225.166 32.375C216.967 32.375 210.291 25.6987 210.291 17.5C210.291 9.30125 216.967 2.625 225.166 2.625ZM225.166 0C215.497 0 207.666 7.83125 207.666 17.5C207.666 27.1688 215.497 35 225.166 35C234.835 35 242.666 27.1688 242.666 17.5C242.666 7.83125 234.826 0 225.166 0Z" fill="#969696"/>
<path d="M254.827 2.625C263.025 2.625 269.702 9.30125 269.702 17.5C269.702 25.6987 263.025 32.375 254.827 32.375C246.628 32.375 239.952 25.6987 239.952 17.5C239.952 9.30125 246.628 2.625 254.827 2.625ZM254.827 0C245.158 0 237.327 7.83125 237.327 17.5C237.327 27.1688 245.158 35 254.827 35C264.495 35 272.327 27.1688 272.327 17.5C272.327 7.83125 264.495 0 254.827 0Z" fill="#969696"/>
<path d="M284.498 2.625C292.696 2.625 299.373 9.30125 299.373 17.5C299.373 25.6987 292.696 32.375 284.498 32.375C276.299 32.375 269.623 25.6987 269.623 17.5C269.623 9.30125 276.299 2.625 284.498 2.625ZM284.498 0C274.829 0 266.998 7.83125 266.998 17.5C266.998 27.1688 274.829 35 284.498 35C294.166 35 301.998 27.1688 301.998 17.5C301.998 7.83125 294.158 0 284.498 0Z" fill="#969696"/>
<path d="M314.158 2.625C322.357 2.625 329.033 9.30125 329.033 17.5C329.033 25.6987 322.357 32.375 314.158 32.375C305.96 32.375 299.283 25.6987 299.283 17.5C299.283 9.30125 305.96 2.625 314.158 2.625ZM314.158 0C304.49 0 296.658 7.83125 296.658 17.5C296.658 27.1688 304.49 35 314.158 35C323.827 35 331.658 27.1688 331.658 17.5C331.658 7.83125 323.827 0 314.158 0Z" fill="#969696"/>
<path d="M343.829 2.625C352.028 2.625 358.704 9.30125 358.704 17.5C358.704 25.6987 352.028 32.375 343.829 32.375C335.63 32.375 328.954 25.6987 328.954 17.5C328.954 9.30125 335.63 2.625 343.829 2.625ZM343.829 0C334.16 0 326.329 7.83125 326.329 17.5C326.329 27.1688 334.16 35 343.829 35C353.498 35 361.329 27.1688 361.329 17.5C361.329 7.83125 353.489 0 343.829 0Z" fill="#969696"/>
<path d="M373.49 2.625C381.689 2.625 388.365 9.30125 388.365 17.5C388.365 25.6987 381.689 32.375 373.49 32.375C365.291 32.375 358.615 25.6987 358.615 17.5C358.615 9.30125 365.291 2.625 373.49 2.625ZM373.49 0C363.821 0 355.99 7.83125 355.99 17.5C355.99 27.1688 363.821 35 373.49 35C383.159 35 390.99 27.1688 390.99 17.5C390.99 7.83125 383.159 0 373.49 0Z" fill="#969696"/>
<path d="M403.161 2.625C411.36 2.625 418.036 9.30125 418.036 17.5C418.036 25.6987 411.36 32.375 403.161 32.375C394.962 32.375 388.286 25.6987 388.286 17.5C388.286 9.30125 394.962 2.625 403.161 2.625ZM403.161 0C393.492 0 385.661 7.83125 385.661 17.5C385.661 27.1688 393.492 35 403.161 35C412.83 35 420.661 27.1688 420.661 17.5C420.661 7.83125 412.821 0 403.161 0Z" fill="#969696"/>
<path d="M432.822 2.625C441.021 2.625 447.697 9.30125 447.697 17.5C447.697 25.6987 441.021 32.375 432.822 32.375C424.623 32.375 417.947 25.6987 417.947 17.5C417.947 9.30125 424.623 2.625 432.822 2.625ZM432.822 0C423.153 0 415.322 7.83125 415.322 17.5C415.322 27.1688 423.153 35 432.822 35C442.491 35 450.322 27.1688 450.322 17.5C450.322 7.83125 442.491 0 432.822 0Z" fill="#969696"/>
<path d="M462.493 2.625C470.691 2.625 477.368 9.30125 477.368 17.5C477.368 25.6987 470.691 32.375 462.493 32.375C454.294 32.375 447.618 25.6987 447.618 17.5C447.618 9.30125 454.294 2.625 462.493 2.625ZM462.493 0C452.824 0 444.993 7.83125 444.993 17.5C444.993 27.1688 452.824 35 462.493 35C472.161 35 479.993 27.1688 479.993 17.5C479.993 7.83125 472.153 0 462.493 0Z" fill="#969696"/>
<path d="M492.154 2.625C500.352 2.625 507.029 9.30125 507.029 17.5C507.029 25.6987 500.352 32.375 492.154 32.375C483.955 32.375 477.279 25.6987 477.279 17.5C477.279 9.30125 483.955 2.625 492.154 2.625ZM492.154 0C482.485 0 474.654 7.83125 474.654 17.5C474.654 27.1688 482.485 35 492.154 35C501.822 35 509.654 27.1688 509.654 17.5C509.654 7.83125 501.822 0 492.154 0Z" fill="#969696"/>
<path d="M492.154 32.0047C500.352 32.0047 507.029 38.6809 507.029 46.8797C507.029 55.0784 500.352 61.7547 492.154 61.7547C483.955 61.7547 477.279 55.0784 477.279 46.8797C477.279 38.6809 483.955 32.0047 492.154 32.0047ZM492.154 29.3797C482.485 29.3797 474.654 37.2109 474.654 46.8797C474.654 56.5484 482.485 64.3797 492.154 64.3797C501.822 64.3797 509.654 56.5484 509.654 46.8797C509.654 37.2109 501.822 29.3797 492.154 29.3797Z" fill="#969696"/>
<path d="M492.154 61.3843C500.352 61.3843 507.029 68.0606 507.029 76.2593C507.029 84.4581 500.352 91.1343 492.154 91.1343C483.955 91.1343 477.279 84.4581 477.279 76.2593C477.279 68.0606 483.955 61.3843 492.154 61.3843ZM492.154 58.7593C482.485 58.7593 474.654 66.5906 474.654 76.2593C474.654 85.9281 482.485 93.7593 492.154 93.7593C501.822 93.7593 509.654 85.9281 509.654 76.2593C509.654 66.5906 501.822 58.7593 492.154 58.7593Z" fill="#969696"/>
<path d="M492.154 90.764C500.352 90.764 507.029 97.4402 507.029 105.639C507.029 113.838 500.352 120.514 492.154 120.514C483.955 120.514 477.279 113.838 477.279 105.639C477.279 97.4402 483.955 90.764 492.154 90.764ZM492.154 88.139C482.485 88.139 474.654 95.9702 474.654 105.639C474.654 115.308 482.485 123.139 492.154 123.139C501.822 123.139 509.654 115.308 509.654 105.639C509.654 95.9702 501.822 88.139 492.154 88.139Z" fill="#969696"/>
<path d="M492.154 120.144C500.352 120.144 507.029 126.82 507.029 135.019C507.029 143.217 500.352 149.894 492.154 149.894C483.955 149.894 477.279 143.217 477.279 135.019C477.279 126.82 483.955 120.144 492.154 120.144ZM492.154 117.519C482.485 117.519 474.654 125.35 474.654 135.019C474.654 144.687 482.485 152.519 492.154 152.519C501.822 152.519 509.654 144.687 509.654 135.019C509.654 125.35 501.822 117.519 492.154 117.519Z" fill="#969696"/>
<path d="M492.154 149.513C500.352 149.513 507.029 156.189 507.029 164.388C507.029 172.587 500.352 179.263 492.154 179.263C483.955 179.263 477.279 172.587 477.279 164.388C477.279 156.189 483.955 149.513 492.154 149.513ZM492.154 146.888C482.485 146.888 474.654 154.719 474.654 164.388C474.654 174.057 482.485 181.888 492.154 181.888C501.822 181.888 509.654 174.057 509.654 164.388C509.654 154.719 501.822 146.888 492.154 146.888Z" fill="#969696"/>
<path d="M492.154 178.893C500.352 178.893 507.029 185.569 507.029 193.768C507.029 201.967 500.352 208.643 492.154 208.643C483.955 208.643 477.279 201.967 477.279 193.768C477.279 185.569 483.955 178.893 492.154 178.893ZM492.154 176.268C482.485 176.268 474.654 184.099 474.654 193.768C474.654 203.437 482.485 211.268 492.154 211.268C501.822 211.268 509.654 203.437 509.654 193.768C509.654 184.099 501.822 176.268 492.154 176.268Z" fill="#969696"/>
<path d="M492.154 208.272C500.352 208.272 507.029 214.949 507.029 223.147C507.029 231.346 500.352 238.022 492.154 238.022C483.955 238.022 477.279 231.346 477.279 223.147C477.279 214.949 483.955 208.272 492.154 208.272ZM492.154 205.647C482.485 205.647 474.654 213.479 474.654 223.147C474.654 232.816 482.485 240.647 492.154 240.647C501.822 240.647 509.654 232.816 509.654 223.147C509.654 213.479 501.822 205.647 492.154 205.647Z" fill="#969696"/>
<path d="M492.154 237.652C500.352 237.652 507.029 244.328 507.029 252.527C507.029 260.726 500.352 267.402 492.154 267.402C483.955 267.402 477.279 260.726 477.279 252.527C477.279 244.328 483.955 237.652 492.154 237.652ZM492.154 235.027C482.485 235.027 474.654 242.858 474.654 252.527C474.654 262.196 482.485 270.027 492.154 270.027C501.822 270.027 509.654 262.196 509.654 252.527C509.654 242.858 501.822 235.027 492.154 235.027Z" fill="#969696"/>
<path d="M492.154 267.032C500.352 267.032 507.029 273.708 507.029 281.907C507.029 290.106 500.352 296.782 492.154 296.782C483.955 296.782 477.279 290.106 477.279 281.907C477.279 273.708 483.955 267.032 492.154 267.032ZM492.154 264.407C482.485 264.407 474.654 272.238 474.654 281.907C474.654 291.576 482.485 299.407 492.154 299.407C501.822 299.407 509.654 291.576 509.654 281.907C509.654 272.238 501.822 264.407 492.154 264.407Z" fill="#969696"/>
<path d="M462.493 267.032C470.691 267.032 477.368 273.708 477.368 281.907C477.368 290.106 470.691 296.782 462.493 296.782C454.294 296.782 447.618 290.106 447.618 281.907C447.618 273.708 454.294 267.032 462.493 267.032ZM462.493 264.407C452.824 264.407 444.993 272.238 444.993 281.907C444.993 291.576 452.824 299.407 462.493 299.407C472.161 299.407 479.993 291.576 479.993 281.907C479.993 272.238 472.161 264.407 462.493 264.407Z" fill="#969696"/>
<path d="M432.822 267.032C441.021 267.032 447.697 273.708 447.697 281.907C447.697 290.106 441.021 296.782 432.822 296.782C424.623 296.782 417.947 290.106 417.947 281.907C417.947 273.708 424.623 267.032 432.822 267.032ZM432.822 264.407C423.153 264.407 415.322 272.238 415.322 281.907C415.322 291.576 423.153 299.407 432.822 299.407C442.491 299.407 450.322 291.576 450.322 281.907C450.322 272.238 442.491 264.407 432.822 264.407Z" fill="#969696"/>
<path d="M403.161 267.032C411.36 267.032 418.036 273.708 418.036 281.907C418.036 290.106 411.36 296.782 403.161 296.782C394.962 296.782 388.286 290.106 388.286 281.907C388.286 273.708 394.962 267.032 403.161 267.032ZM403.161 264.407C393.492 264.407 385.661 272.238 385.661 281.907C385.661 291.576 393.492 299.407 403.161 299.407C412.83 299.407 420.661 291.576 420.661 281.907C420.661 272.238 412.83 264.407 403.161 264.407Z" fill="#969696"/>
<path d="M373.49 267.032C381.689 267.032 388.365 273.708 388.365 281.907C388.365 290.106 381.689 296.782 373.49 296.782C365.291 296.782 358.615 290.106 358.615 281.907C358.615 273.708 365.291 267.032 373.49 267.032ZM373.49 264.407C363.821 264.407 355.99 272.238 355.99 281.907C355.99 291.576 363.821 299.407 373.49 299.407C383.159 299.407 390.99 291.576 390.99 281.907C390.99 272.238 383.159 264.407 373.49 264.407Z" fill="#969696"/>
<path d="M343.829 267.032C352.028 267.032 358.704 273.708 358.704 281.907C358.704 290.106 352.028 296.782 343.829 296.782C335.63 296.782 328.954 290.106 328.954 281.907C328.954 273.708 335.63 267.032 343.829 267.032ZM343.829 264.407C334.16 264.407 326.329 272.238 326.329 281.907C326.329 291.576 334.16 299.407 343.829 299.407C353.498 299.407 361.329 291.576 361.329 281.907C361.329 272.238 353.498 264.407 343.829 264.407Z" fill="#969696"/>
<path d="M314.158 267.032C322.357 267.032 329.033 273.708 329.033 281.907C329.033 290.106 322.357 296.782 314.158 296.782C305.96 296.782 299.283 290.106 299.283 281.907C299.283 273.708 305.96 267.032 314.158 267.032ZM314.158 264.407C304.49 264.407 296.658 272.238 296.658 281.907C296.658 291.576 304.49 299.407 314.158 299.407C323.827 299.407 331.658 291.576 331.658 281.907C331.658 272.238 323.827 264.407 314.158 264.407Z" fill="#969696"/>
<path d="M284.498 267.032C292.696 267.032 299.373 273.708 299.373 281.907C299.373 290.106 292.696 296.782 284.498 296.782C276.299 296.782 269.623 290.106 269.623 281.907C269.623 273.708 276.299 267.032 284.498 267.032ZM284.498 264.407C274.829 264.407 266.998 272.238 266.998 281.907C266.998 291.576 274.829 299.407 284.498 299.407C294.166 299.407 301.998 291.576 301.998 281.907C301.998 272.238 294.166 264.407 284.498 264.407Z" fill="#969696"/>
<path d="M254.827 267.032C263.025 267.032 269.702 273.708 269.702 281.907C269.702 290.106 263.025 296.782 254.827 296.782C246.628 296.782 239.952 290.106 239.952 281.907C239.952 273.708 246.628 267.032 254.827 267.032ZM254.827 264.407C245.158 264.407 237.327 272.238 237.327 281.907C237.327 291.576 245.158 299.407 254.827 299.407C264.495 299.407 272.327 291.576 272.327 281.907C272.327 272.238 264.495 264.407 254.827 264.407Z" fill="#969696"/>
<path d="M225.166 267.032C233.365 267.032 240.041 273.708 240.041 281.907C240.041 290.106 233.365 296.782 225.166 296.782C216.967 296.782 210.291 290.106 210.291 281.907C210.291 273.708 216.967 267.032 225.166 267.032ZM225.166 264.407C215.497 264.407 207.666 272.238 207.666 281.907C207.666 291.576 215.497 299.407 225.166 299.407C234.835 299.407 242.666 291.576 242.666 281.907C242.666 272.238 234.835 264.407 225.166 264.407Z" fill="#969696"/>
<path d="M195.495 267.032C203.694 267.032 210.37 273.708 210.37 281.907C210.37 290.106 203.694 296.782 195.495 296.782C187.296 296.782 180.62 290.106 180.62 281.907C180.62 273.708 187.296 267.032 195.495 267.032ZM195.495 264.407C185.826 264.407 177.995 272.238 177.995 281.907C177.995 291.576 185.826 299.407 195.495 299.407C205.164 299.407 212.995 291.576 212.995 281.907C212.995 272.238 205.164 264.407 195.495 264.407Z" fill="#969696"/>
<path d="M165.834 267.032C174.033 267.032 180.709 273.708 180.709 281.907C180.709 290.106 174.033 296.782 165.834 296.782C157.635 296.782 150.959 290.106 150.959 281.907C150.959 273.708 157.635 267.032 165.834 267.032ZM165.834 264.407C156.165 264.407 148.334 272.238 148.334 281.907C148.334 291.576 156.165 299.407 165.834 299.407C175.503 299.407 183.334 291.576 183.334 281.907C183.334 272.238 175.503 264.407 165.834 264.407Z" fill="#969696"/>
<path d="M136.163 267.032C144.362 267.032 151.038 273.708 151.038 281.907C151.038 290.106 144.362 296.782 136.163 296.782C127.965 296.782 121.288 290.106 121.288 281.907C121.288 273.708 127.965 267.032 136.163 267.032ZM136.163 264.407C126.495 264.407 118.663 272.238 118.663 281.907C118.663 291.576 126.495 299.407 136.163 299.407C145.832 299.407 153.663 291.576 153.663 281.907C153.663 272.238 145.832 264.407 136.163 264.407Z" fill="#969696"/>
<path d="M106.502 267.032C114.701 267.032 121.377 273.708 121.377 281.907C121.377 290.106 114.701 296.782 106.502 296.782C98.3037 296.782 91.6274 290.106 91.6274 281.907C91.6274 273.708 98.3037 267.032 106.502 267.032ZM106.502 264.407C96.8337 264.407 89.0024 272.238 89.0024 281.907C89.0024 291.576 96.8337 299.407 106.502 299.407C116.171 299.407 124.002 291.576 124.002 281.907C124.002 272.238 116.171 264.407 106.502 264.407Z" fill="#969696"/>
<path d="M76.8318 267.032C85.0305 267.032 91.7068 273.708 91.7068 281.907C91.7068 290.106 85.0305 296.782 76.8318 296.782C68.633 296.782 61.9568 290.106 61.9568 281.907C61.9568 273.708 68.633 267.032 76.8318 267.032ZM76.8318 264.407C67.163 264.407 59.3318 272.238 59.3318 281.907C59.3318 291.576 67.163 299.407 76.8318 299.407C86.5005 299.407 94.3318 291.576 94.3318 281.907C94.3318 272.238 86.5005 264.407 76.8318 264.407Z" fill="#969696"/>
<path d="M47.1707 267.032C55.3694 267.032 62.0457 273.708 62.0457 281.907C62.0457 290.106 55.3694 296.782 47.1707 296.782C38.9719 296.782 32.2957 290.106 32.2957 281.907C32.2957 273.708 38.9719 267.032 47.1707 267.032ZM47.1707 264.407C37.5019 264.407 29.6707 272.238 29.6707 281.907C29.6707 291.576 37.5019 299.407 47.1707 299.407C56.8394 299.407 64.6707 291.576 64.6707 281.907C64.6707 272.238 56.8394 264.407 47.1707 264.407Z" fill="#969696"/>
<path d="M17.5 267.032C25.6987 267.032 32.375 273.708 32.375 281.907C32.375 290.106 25.6987 296.782 17.5 296.782C9.30125 296.782 2.625 290.106 2.625 281.907C2.625 273.708 9.30125 267.032 17.5 267.032ZM17.5 264.407C7.83125 264.407 0 272.238 0 281.907C0 291.576 7.83125 299.407 17.5 299.407C27.1688 299.407 35 291.576 35 281.907C35 272.238 27.1688 264.407 17.5 264.407Z" fill="#969696"/>
</svg>
