<svg width="510" height="295" viewBox="0 0 510 295" fill="none" xmlns="http://www.w3.org/2000/svg">
<path d="M17.6733 233.735C25.9532 233.735 32.6955 240.411 32.6955 248.61C32.6955 256.809 25.9532 263.485 17.6733 263.485C9.39334 263.485 2.65099 256.809 2.65099 248.61C2.65099 240.411 9.39334 233.735 17.6733 233.735ZM17.6733 231.11C7.90879 231.11 0 238.941 0 248.61C0 258.279 7.90879 266.11 17.6733 266.11C27.4377 266.11 35.3465 258.279 35.3465 248.61C35.3465 238.941 27.4377 231.11 17.6733 231.11Z" fill="#969696"/>
<path d="M17.6733 204.845C25.9532 204.845 32.6955 211.521 32.6955 219.72C32.6955 227.919 25.9532 234.595 17.6733 234.595C9.39334 234.595 2.65099 227.919 2.65099 219.72C2.65099 211.521 9.39334 204.845 17.6733 204.845ZM17.6733 202.22C7.90879 202.22 0 210.051 0 219.72C0 229.389 7.90879 237.22 17.6733 237.22C27.4377 237.22 35.3465 229.389 35.3465 219.72C35.3465 210.051 27.4377 202.22 17.6733 202.22Z" fill="#969696"/>
<path d="M17.6733 175.955C25.9532 175.955 32.6955 182.631 32.6955 190.83C32.6955 199.029 25.9532 205.705 17.6733 205.705C9.39334 205.705 2.65099 199.029 2.65099 190.83C2.65099 182.631 9.39334 175.955 17.6733 175.955ZM17.6733 173.33C7.90879 173.33 0 181.161 0 190.83C0 200.499 7.90879 208.33 17.6733 208.33C27.4377 208.33 35.3465 200.499 35.3465 190.83C35.3465 181.161 27.4377 173.33 17.6733 173.33Z" fill="#969696"/>
<path d="M17.6733 147.065C25.9532 147.065 32.6955 153.741 32.6955 161.94C32.6955 170.139 25.9532 176.815 17.6733 176.815C9.39334 176.815 2.65099 170.139 2.65099 161.94C2.65099 153.741 9.39334 147.065 17.6733 147.065ZM17.6733 144.44C7.90879 144.44 0 152.271 0 161.94C0 171.609 7.90879 179.44 17.6733 179.44C27.4377 179.44 35.3465 171.609 35.3465 161.94C35.3465 152.271 27.4377 144.44 17.6733 144.44Z" fill="#969696"/>
<path d="M17.6733 118.185C25.9532 118.185 32.6955 124.861 32.6955 133.06C32.6955 141.259 25.9532 147.935 17.6733 147.935C9.39334 147.935 2.65099 141.259 2.65099 133.06C2.65099 124.861 9.39334 118.185 17.6733 118.185ZM17.6733 115.56C7.90879 115.56 0 123.391 0 133.06C0 142.729 7.90879 150.56 17.6733 150.56C27.4377 150.56 35.3465 142.729 35.3465 133.06C35.3465 123.391 27.4377 115.56 17.6733 115.56Z" fill="#969696"/>
<path d="M17.6733 89.295C25.9532 89.295 32.6955 95.9712 32.6955 104.17C32.6955 112.369 25.9532 119.045 17.6733 119.045C9.39334 119.045 2.65099 112.369 2.65099 104.17C2.65099 95.9712 9.39334 89.295 17.6733 89.295ZM17.6733 86.67C7.90879 86.67 0 94.5012 0 104.17C0 113.839 7.90879 121.67 17.6733 121.67C27.4377 121.67 35.3465 113.839 35.3465 104.17C35.3465 94.5012 27.4377 86.67 17.6733 86.67Z" fill="#969696"/>
<path d="M17.6733 60.405C25.9532 60.405 32.6955 67.0813 32.6955 75.28C32.6955 83.4788 25.9532 90.155 17.6733 90.155C9.39334 90.155 2.65099 83.4788 2.65099 75.28C2.65099 67.0813 9.39334 60.405 17.6733 60.405ZM17.6733 57.78C7.90879 57.78 0 65.6113 0 75.28C0 84.9488 7.90879 92.78 17.6733 92.78C27.4377 92.78 35.3465 84.9488 35.3465 75.28C35.3465 65.6113 27.4377 57.78 17.6733 57.78Z" fill="#969696"/>
<path d="M17.6733 31.515C25.9532 31.515 32.6955 38.1913 32.6955 46.39C32.6955 54.5888 25.9532 61.265 17.6733 61.265C9.39334 61.265 2.65099 54.5888 2.65099 46.39C2.65099 38.1913 9.39334 31.515 17.6733 31.515ZM17.6733 28.89C7.90879 28.89 0 36.7213 0 46.39C0 56.0588 7.90879 63.89 17.6733 63.89C27.4377 63.89 35.3465 56.0588 35.3465 46.39C35.3465 36.7213 27.4377 28.89 17.6733 28.89Z" fill="#969696"/>
<path d="M17.6733 2.625C25.9532 2.625 32.6955 9.30125 32.6955 17.5C32.6955 25.6987 25.9532 32.375 17.6733 32.375C9.39334 32.375 2.65099 25.6987 2.65099 17.5C2.65099 9.30125 9.39334 2.625 17.6733 2.625ZM17.6733 0C7.90879 0 0 7.83125 0 17.5C0 27.1688 7.90879 35 17.6733 35C27.4377 35 35.3465 27.1688 35.3465 17.5C35.3465 7.83125 27.4377 0 17.6733 0Z" fill="#969696"/>
<path d="M47.3439 2.625C55.6238 2.625 62.3662 9.30125 62.3662 17.5C62.3662 25.6987 55.6238 32.375 47.3439 32.375C39.064 32.375 32.3216 25.6987 32.3216 17.5C32.3216 9.30125 39.0552 2.625 47.3439 2.625ZM47.3439 0C37.5794 0 29.6707 7.83125 29.6707 17.5C29.6707 27.1688 37.5794 35 47.3439 35C57.1084 35 65.0172 27.1688 65.0172 17.5C65.0172 7.83125 57.0996 0 47.3439 0Z" fill="#969696"/>
<path d="M77.0051 2.625C85.285 2.625 92.0273 9.30125 92.0273 17.5C92.0273 25.6987 85.285 32.375 77.0051 32.375C68.7251 32.375 61.9828 25.6987 61.9828 17.5C61.9828 9.30125 68.7251 2.625 77.0051 2.625ZM77.0051 0C67.2406 0 59.3318 7.83125 59.3318 17.5C59.3318 27.1688 67.2406 35 77.0051 35C86.7695 35 94.6783 27.1688 94.6783 17.5C94.6783 7.83125 86.7695 0 77.0051 0Z" fill="#969696"/>
<path d="M106.676 2.625C114.956 2.625 121.698 9.30125 121.698 17.5C121.698 25.6987 114.956 32.375 106.676 32.375C98.3958 32.375 91.6534 25.6987 91.6534 17.5C91.6534 9.30125 98.3869 2.625 106.676 2.625ZM106.676 0C96.9112 0 89.0024 7.83125 89.0024 17.5C89.0024 27.1687 96.9112 35 106.676 35C116.44 35 124.349 27.1687 124.349 17.5C124.349 7.83125 116.431 0 106.676 0Z" fill="#969696"/>
<path d="M136.337 2.625C144.617 2.625 151.359 9.30125 151.359 17.5C151.359 25.6987 144.617 32.375 136.337 32.375C128.057 32.375 121.314 25.6987 121.314 17.5C121.314 9.30125 128.057 2.625 136.337 2.625ZM136.337 0C126.572 0 118.663 7.83125 118.663 17.5C118.663 27.1688 126.572 35 136.337 35C146.101 35 154.01 27.1688 154.01 17.5C154.01 7.83125 146.101 0 136.337 0Z" fill="#969696"/>
<path d="M166.007 2.625C174.287 2.625 181.03 9.30125 181.03 17.5C181.03 25.6987 174.287 32.375 166.007 32.375C157.728 32.375 150.985 25.6987 150.985 17.5C150.985 9.30125 157.728 2.625 166.007 2.625ZM166.007 0C156.243 0 148.334 7.83125 148.334 17.5C148.334 27.1688 156.243 35 166.007 35C175.772 35 183.681 27.1688 183.681 17.5C183.681 7.83125 175.763 0 166.007 0Z" fill="#969696"/>
<path d="M195.668 2.625C203.948 2.625 210.691 9.30125 210.691 17.5C210.691 25.6987 203.948 32.375 195.668 32.375C187.388 32.375 180.646 25.6987 180.646 17.5C180.646 9.30125 187.388 2.625 195.668 2.625ZM195.668 0C185.904 0 177.995 7.83125 177.995 17.5C177.995 27.1688 185.904 35 195.668 35C205.433 35 213.342 27.1688 213.342 17.5C213.342 7.83125 205.433 0 195.668 0Z" fill="#969696"/>
<path d="M225.339 2.625C233.619 2.625 240.361 9.30125 240.361 17.5C240.361 25.6987 233.619 32.375 225.339 32.375C217.059 32.375 210.317 25.6987 210.317 17.5C210.317 9.30125 217.059 2.625 225.339 2.625ZM225.339 0C215.575 0 207.666 7.83125 207.666 17.5C207.666 27.1688 215.575 35 225.339 35C235.104 35 243.012 27.1688 243.012 17.5C243.012 7.83125 235.095 0 225.339 0Z" fill="#969696"/>
<path d="M255 2.625C263.28 2.625 270.022 9.30125 270.022 17.5C270.022 25.6987 263.28 32.375 255 32.375C246.72 32.375 239.978 25.6987 239.978 17.5C239.978 9.30125 246.72 2.625 255 2.625ZM255 0C245.235 0 237.327 7.83125 237.327 17.5C237.327 27.1688 245.235 35 255 35C264.764 35 272.673 27.1688 272.673 17.5C272.673 7.83125 264.764 0 255 0Z" fill="#969696"/>
<path d="M284.671 2.625C292.951 2.625 299.693 9.30125 299.693 17.5C299.693 25.6987 292.951 32.375 284.671 32.375C276.391 32.375 269.649 25.6987 269.649 17.5C269.649 9.30125 276.391 2.625 284.671 2.625ZM284.671 0C274.906 0 266.998 7.83125 266.998 17.5C266.998 27.1688 274.906 35 284.671 35C294.435 35 302.344 27.1688 302.344 17.5C302.344 7.83125 294.426 0 284.671 0Z" fill="#969696"/>
<path d="M314.332 2.625C322.612 2.625 329.354 9.30125 329.354 17.5C329.354 25.6987 322.612 32.375 314.332 32.375C306.052 32.375 299.309 25.6987 299.309 17.5C299.309 9.30125 306.052 2.625 314.332 2.625ZM314.332 0C304.567 0 296.658 7.83125 296.658 17.5C296.658 27.1688 304.567 35 314.332 35C324.096 35 332.005 27.1688 332.005 17.5C332.005 7.83125 324.096 0 314.332 0Z" fill="#969696"/>
<path d="M344.002 2.625C352.282 2.625 359.025 9.30125 359.025 17.5C359.025 25.6987 352.282 32.375 344.002 32.375C335.722 32.375 328.98 25.6987 328.98 17.5C328.98 9.30125 335.722 2.625 344.002 2.625ZM344.002 0C334.238 0 326.329 7.83125 326.329 17.5C326.329 27.1688 334.238 35 344.002 35C353.767 35 361.676 27.1688 361.676 17.5C361.676 7.83125 353.758 0 344.002 0Z" fill="#969696"/>
<path d="M373.664 2.625C381.943 2.625 388.686 9.30125 388.686 17.5C388.686 25.6987 381.943 32.375 373.664 32.375C365.384 32.375 358.641 25.6987 358.641 17.5C358.641 9.30125 365.384 2.625 373.664 2.625ZM373.664 0C363.899 0 355.99 7.83125 355.99 17.5C355.99 27.1688 363.899 35 373.664 35C383.428 35 391.337 27.1688 391.337 17.5C391.337 7.83125 383.428 0 373.664 0Z" fill="#969696"/>
<path d="M403.334 2.625C411.614 2.625 418.356 9.30125 418.356 17.5C418.356 25.6987 411.614 32.375 403.334 32.375C395.054 32.375 388.312 25.6987 388.312 17.5C388.312 9.30125 395.054 2.625 403.334 2.625ZM403.334 0C393.57 0 385.661 7.83125 385.661 17.5C385.661 27.1688 393.57 35 403.334 35C413.099 35 421.007 27.1688 421.007 17.5C421.007 7.83125 413.09 0 403.334 0Z" fill="#969696"/>
<path d="M432.995 2.625C441.275 2.625 448.017 9.30125 448.017 17.5C448.017 25.6987 441.275 32.375 432.995 32.375C424.715 32.375 417.973 25.6987 417.973 17.5C417.973 9.30125 424.715 2.625 432.995 2.625ZM432.995 0C423.231 0 415.322 7.83125 415.322 17.5C415.322 27.1688 423.231 35 432.995 35C442.76 35 450.668 27.1688 450.668 17.5C450.668 7.83125 442.76 0 432.995 0Z" fill="#969696"/>
<path d="M462.666 2.625C470.946 2.625 477.688 9.30125 477.688 17.5C477.688 25.6987 470.946 32.375 462.666 32.375C454.386 32.375 447.644 25.6987 447.644 17.5C447.644 9.30125 454.386 2.625 462.666 2.625ZM462.666 0C452.901 0 444.993 7.83125 444.993 17.5C444.993 27.1688 452.901 35 462.666 35C472.43 35 480.339 27.1688 480.339 17.5C480.339 7.83125 472.422 0 462.666 0Z" fill="#969696"/>
<path d="M492.327 2.625C500.607 2.625 507.349 9.30125 507.349 17.5C507.349 25.6987 500.607 32.375 492.327 32.375C484.047 32.375 477.305 25.6987 477.305 17.5C477.305 9.30125 484.047 2.625 492.327 2.625ZM492.327 0C482.562 0 474.654 7.83125 474.654 17.5C474.654 27.1688 482.562 35 492.327 35C502.091 35 510 27.1688 510 17.5C510 7.83125 502.091 0 492.327 0Z" fill="#969696"/>
<path d="M492.327 31.515C500.607 31.515 507.349 38.1913 507.349 46.39C507.349 54.5888 500.607 61.265 492.327 61.265C484.047 61.265 477.305 54.5888 477.305 46.39C477.305 38.1913 484.047 31.515 492.327 31.515ZM492.327 28.89C482.562 28.89 474.654 36.7213 474.654 46.39C474.654 56.0588 482.562 63.89 492.327 63.89C502.091 63.89 510 56.0588 510 46.39C510 36.7213 502.091 28.89 492.327 28.89Z" fill="#969696"/>
<path d="M492.327 60.405C500.607 60.405 507.349 67.0813 507.349 75.28C507.349 83.4788 500.607 90.155 492.327 90.155C484.047 90.155 477.305 83.4788 477.305 75.28C477.305 67.0813 484.047 60.405 492.327 60.405ZM492.327 57.78C482.562 57.78 474.654 65.6113 474.654 75.28C474.654 84.9488 482.562 92.78 492.327 92.78C502.091 92.78 510 84.9488 510 75.28C510 65.6113 502.091 57.78 492.327 57.78Z" fill="#969696"/>
<path d="M492.327 89.295C500.607 89.295 507.349 95.9712 507.349 104.17C507.349 112.369 500.607 119.045 492.327 119.045C484.047 119.045 477.305 112.369 477.305 104.17C477.305 95.9712 484.047 89.295 492.327 89.295ZM492.327 86.67C482.562 86.67 474.654 94.5012 474.654 104.17C474.654 113.839 482.562 121.67 492.327 121.67C502.091 121.67 510 113.839 510 104.17C510 94.5012 502.091 86.67 492.327 86.67Z" fill="#969696"/>
<path d="M492.327 118.185C500.607 118.185 507.349 124.861 507.349 133.06C507.349 141.259 500.607 147.935 492.327 147.935C484.047 147.935 477.305 141.259 477.305 133.06C477.305 124.861 484.047 118.185 492.327 118.185ZM492.327 115.56C482.562 115.56 474.654 123.391 474.654 133.06C474.654 142.729 482.562 150.56 492.327 150.56C502.091 150.56 510 142.729 510 133.06C510 123.391 502.091 115.56 492.327 115.56Z" fill="#969696"/>
<path d="M492.327 147.065C500.607 147.065 507.349 153.741 507.349 161.94C507.349 170.139 500.607 176.815 492.327 176.815C484.047 176.815 477.305 170.139 477.305 161.94C477.305 153.741 484.047 147.065 492.327 147.065ZM492.327 144.44C482.562 144.44 474.654 152.271 474.654 161.94C474.654 171.609 482.562 179.44 492.327 179.44C502.091 179.44 510 171.609 510 161.94C510 152.271 502.091 144.44 492.327 144.44Z" fill="#969696"/>
<path d="M492.327 175.955C500.607 175.955 507.349 182.631 507.349 190.83C507.349 199.029 500.607 205.705 492.327 205.705C484.047 205.705 477.305 199.029 477.305 190.83C477.305 182.631 484.047 175.955 492.327 175.955ZM492.327 173.33C482.562 173.33 474.654 181.161 474.654 190.83C474.654 200.499 482.562 208.33 492.327 208.33C502.091 208.33 510 200.499 510 190.83C510 181.161 502.091 173.33 492.327 173.33Z" fill="#969696"/>
<path d="M492.327 204.845C500.607 204.845 507.349 211.521 507.349 219.72C507.349 227.919 500.607 234.595 492.327 234.595C484.047 234.595 477.305 227.919 477.305 219.72C477.305 211.521 484.047 204.845 492.327 204.845ZM492.327 202.22C482.562 202.22 474.654 210.051 474.654 219.72C474.654 229.389 482.562 237.22 492.327 237.22C502.091 237.22 510 229.389 510 219.72C510 210.051 502.091 202.22 492.327 202.22Z" fill="#969696"/>
<path d="M492.327 233.735C500.607 233.735 507.349 240.411 507.349 248.61C507.349 256.809 500.607 263.485 492.327 263.485C484.047 263.485 477.305 256.809 477.305 248.61C477.305 240.411 484.047 233.735 492.327 233.735ZM492.327 231.11C482.562 231.11 474.654 238.941 474.654 248.61C474.654 258.279 482.562 266.11 492.327 266.11C502.091 266.11 510 258.279 510 248.61C510 238.941 502.091 231.11 492.327 231.11Z" fill="#969696"/>
<path d="M492.327 262.625C500.607 262.625 507.349 269.301 507.349 277.5C507.349 285.699 500.607 292.375 492.327 292.375C484.047 292.375 477.305 285.699 477.305 277.5C477.305 269.301 484.047 262.625 492.327 262.625ZM492.327 260C482.562 260 474.654 267.831 474.654 277.5C474.654 287.169 482.562 295 492.327 295C502.091 295 510 287.169 510 277.5C510 267.831 502.091 260 492.327 260Z" fill="#969696"/>
<path d="M462.666 262.625C470.946 262.625 477.688 269.301 477.688 277.5C477.688 285.699 470.946 292.375 462.666 292.375C454.386 292.375 447.644 285.699 447.644 277.5C447.644 269.301 454.386 262.625 462.666 262.625ZM462.666 260C452.901 260 444.993 267.831 444.993 277.5C444.993 287.169 452.901 295 462.666 295C472.43 295 480.339 287.169 480.339 277.5C480.339 267.831 472.43 260 462.666 260Z" fill="#969696"/>
<path d="M432.995 262.625C441.275 262.625 448.017 269.301 448.017 277.5C448.017 285.699 441.275 292.375 432.995 292.375C424.715 292.375 417.973 285.699 417.973 277.5C417.973 269.301 424.715 262.625 432.995 262.625ZM432.995 260C423.231 260 415.322 267.831 415.322 277.5C415.322 287.169 423.231 295 432.995 295C442.76 295 450.668 287.169 450.668 277.5C450.668 267.831 442.76 260 432.995 260Z" fill="#969696"/>
<path d="M403.334 262.625C411.614 262.625 418.356 269.301 418.356 277.5C418.356 285.699 411.614 292.375 403.334 292.375C395.054 292.375 388.312 285.699 388.312 277.5C388.312 269.301 395.054 262.625 403.334 262.625ZM403.334 260C393.57 260 385.661 267.831 385.661 277.5C385.661 287.169 393.57 295 403.334 295C413.099 295 421.007 287.169 421.007 277.5C421.007 267.831 413.099 260 403.334 260Z" fill="#969696"/>
<path d="M373.664 262.625C381.943 262.625 388.686 269.301 388.686 277.5C388.686 285.699 381.943 292.375 373.664 292.375C365.384 292.375 358.641 285.699 358.641 277.5C358.641 269.301 365.384 262.625 373.664 262.625ZM373.664 260C363.899 260 355.99 267.831 355.99 277.5C355.99 287.169 363.899 295 373.664 295C383.428 295 391.337 287.169 391.337 277.5C391.337 267.831 383.428 260 373.664 260Z" fill="#969696"/>
<path d="M344.002 262.625C352.282 262.625 359.025 269.301 359.025 277.5C359.025 285.699 352.282 292.375 344.002 292.375C335.722 292.375 328.98 285.699 328.98 277.5C328.98 269.301 335.722 262.625 344.002 262.625ZM344.002 260C334.238 260 326.329 267.831 326.329 277.5C326.329 287.169 334.238 295 344.002 295C353.767 295 361.676 287.169 361.676 277.5C361.676 267.831 353.767 260 344.002 260Z" fill="#969696"/>
<path d="M314.332 262.625C322.612 262.625 329.354 269.301 329.354 277.5C329.354 285.699 322.612 292.375 314.332 292.375C306.052 292.375 299.309 285.699 299.309 277.5C299.309 269.301 306.052 262.625 314.332 262.625ZM314.332 260C304.567 260 296.658 267.831 296.658 277.5C296.658 287.169 304.567 295 314.332 295C324.096 295 332.005 287.169 332.005 277.5C332.005 267.831 324.096 260 314.332 260Z" fill="#969696"/>
<path d="M284.671 262.625C292.951 262.625 299.693 269.301 299.693 277.5C299.693 285.699 292.951 292.375 284.671 292.375C276.391 292.375 269.649 285.699 269.649 277.5C269.649 269.301 276.391 262.625 284.671 262.625ZM284.671 260C274.906 260 266.998 267.831 266.998 277.5C266.998 287.169 274.906 295 284.671 295C294.435 295 302.344 287.169 302.344 277.5C302.344 267.831 294.435 260 284.671 260Z" fill="#969696"/>
<path d="M255 262.625C263.28 262.625 270.022 269.301 270.022 277.5C270.022 285.699 263.28 292.375 255 292.375C246.72 292.375 239.978 285.699 239.978 277.5C239.978 269.301 246.72 262.625 255 262.625ZM255 260C245.235 260 237.327 267.831 237.327 277.5C237.327 287.169 245.235 295 255 295C264.764 295 272.673 287.169 272.673 277.5C272.673 267.831 264.764 260 255 260Z" fill="#969696"/>
<path d="M225.339 262.625C233.619 262.625 240.361 269.301 240.361 277.5C240.361 285.699 233.619 292.375 225.339 292.375C217.059 292.375 210.317 285.699 210.317 277.5C210.317 269.301 217.059 262.625 225.339 262.625ZM225.339 260C215.575 260 207.666 267.831 207.666 277.5C207.666 287.169 215.575 295 225.339 295C235.104 295 243.012 287.169 243.012 277.5C243.012 267.831 235.104 260 225.339 260Z" fill="#969696"/>
<path d="M195.668 262.625C203.948 262.625 210.691 269.301 210.691 277.5C210.691 285.699 203.948 292.375 195.668 292.375C187.388 292.375 180.646 285.699 180.646 277.5C180.646 269.301 187.388 262.625 195.668 262.625ZM195.668 260C185.904 260 177.995 267.831 177.995 277.5C177.995 287.169 185.904 295 195.668 295C205.433 295 213.342 287.169 213.342 277.5C213.342 267.831 205.433 260 195.668 260Z" fill="#969696"/>
<path d="M166.007 262.625C174.287 262.625 181.03 269.301 181.03 277.5C181.03 285.699 174.287 292.375 166.007 292.375C157.728 292.375 150.985 285.699 150.985 277.5C150.985 269.301 157.728 262.625 166.007 262.625ZM166.007 260C156.243 260 148.334 267.831 148.334 277.5C148.334 287.169 156.243 295 166.007 295C175.772 295 183.681 287.169 183.681 277.5C183.681 267.831 175.772 260 166.007 260Z" fill="#969696"/>
<path d="M136.337 262.625C144.617 262.625 151.359 269.301 151.359 277.5C151.359 285.699 144.617 292.375 136.337 292.375C128.057 292.375 121.314 285.699 121.314 277.5C121.314 269.301 128.057 262.625 136.337 262.625ZM136.337 260C126.572 260 118.663 267.831 118.663 277.5C118.663 287.169 126.572 295 136.337 295C146.101 295 154.01 287.169 154.01 277.5C154.01 267.831 146.101 260 136.337 260Z" fill="#969696"/>
<path d="M106.676 262.625C114.956 262.625 121.698 269.301 121.698 277.5C121.698 285.699 114.956 292.375 106.676 292.375C98.3958 292.375 91.6534 285.699 91.6534 277.5C91.6534 269.301 98.3958 262.625 106.676 262.625ZM106.676 260C96.9112 260 89.0024 267.831 89.0024 277.5C89.0024 287.169 96.9112 295 106.676 295C116.44 295 124.349 287.169 124.349 277.5C124.349 267.831 116.44 260 106.676 260Z" fill="#969696"/>
<path d="M77.0051 262.625C85.285 262.625 92.0273 269.301 92.0273 277.5C92.0273 285.699 85.285 292.375 77.0051 292.375C68.7251 292.375 61.9828 285.699 61.9828 277.5C61.9828 269.301 68.7251 262.625 77.0051 262.625ZM77.0051 260C67.2406 260 59.3318 267.831 59.3318 277.5C59.3318 287.169 67.2406 295 77.0051 295C86.7695 295 94.6783 287.169 94.6783 277.5C94.6783 267.831 86.7695 260 77.0051 260Z" fill="#969696"/>
<path d="M47.3439 262.625C55.6238 262.625 62.3662 269.301 62.3662 277.5C62.3662 285.699 55.6238 292.375 47.3439 292.375C39.064 292.375 32.3216 285.699 32.3216 277.5C32.3216 269.301 39.064 262.625 47.3439 262.625ZM47.3439 260C37.5794 260 29.6707 267.831 29.6707 277.5C29.6707 287.169 37.5794 295 47.3439 295C57.1084 295 65.0172 287.169 65.0172 277.5C65.0172 267.831 57.1084 260 47.3439 260Z" fill="#969696"/>
<path d="M17.6733 262.625C25.9532 262.625 32.6955 269.301 32.6955 277.5C32.6955 285.699 25.9532 292.375 17.6733 292.375C9.39334 292.375 2.65099 285.699 2.65099 277.5C2.65099 269.301 9.39334 262.625 17.6733 262.625ZM17.6733 260C7.90879 260 0 267.831 0 277.5C0 287.169 7.90879 295 17.6733 295C27.4377 295 35.3465 287.169 35.3465 277.5C35.3465 267.831 27.4377 260 17.6733 260Z" fill="#969696"/>
</svg>
