<svg width="510" height="301" viewBox="0 0 510 301" fill="none" xmlns="http://www.w3.org/2000/svg">
<g clip-path="url(#clip0_201_4)">
<rect y="0.0644531" width="510" height="300" rx="20" fill="black"/>
<path d="M88.8628 69.6645H94.0468V92.0645H88.8628V69.6645ZM78.6868 92.0645H73.5028V69.6645H78.6868V92.0645ZM89.2468 82.8805H78.3028V78.4965H89.2468V82.8805ZM109.579 92.0645V88.7045L109.259 87.9685V81.9525C109.259 80.8858 108.928 80.0538 108.267 79.4565C107.627 78.8591 106.635 78.5605 105.291 78.5605C104.374 78.5605 103.467 78.7098 102.571 79.0085C101.696 79.2858 100.95 79.6698 100.331 80.1605L98.539 76.6725C99.4777 76.0111 100.608 75.4991 101.931 75.1365C103.254 74.7738 104.598 74.5925 105.963 74.5925C108.587 74.5925 110.624 75.2111 112.075 76.4485C113.526 77.6858 114.251 79.6165 114.251 82.2405V92.0645H109.579ZM104.331 92.3205C102.987 92.3205 101.835 92.0965 100.875 91.6485C99.915 91.1791 99.179 90.5498 98.667 89.7605C98.155 88.9711 97.899 88.0858 97.899 87.1045C97.899 86.0805 98.1443 85.1845 98.635 84.4165C99.147 83.6485 99.947 83.0511 101.035 82.6245C102.123 82.1765 103.542 81.9525 105.291 81.9525H109.867V84.8645H105.835C104.662 84.8645 103.851 85.0565 103.403 85.4405C102.976 85.8245 102.763 86.3045 102.763 86.8805C102.763 87.5205 103.008 88.0325 103.499 88.4165C104.011 88.7791 104.704 88.9605 105.579 88.9605C106.411 88.9605 107.158 88.7685 107.819 88.3845C108.48 87.9791 108.96 87.3925 109.259 86.6245L110.027 88.9285C109.664 90.0378 109.003 90.8805 108.043 91.4565C107.083 92.0325 105.846 92.3205 104.331 92.3205ZM130.332 87.9685L129.244 89.1205V74.8485H134.236V89.1205L133.083 87.9685H141.02L139.9 89.1205V74.8485H144.86V92.0645H118.588V74.8485H123.548V89.1205L122.428 87.9685H130.332ZM149.65 92.0645V74.8485H154.61V85.0885L162.994 74.8485H167.57V92.0645H162.61V81.8245L154.258 92.0645H149.65ZM181.431 92.0645V74.8485H198.551V92.0645H193.559V77.8245L194.679 78.9445H185.271L186.391 77.8245V92.0645H181.431ZM211.402 92.3205C209.567 92.3205 207.935 91.9365 206.506 91.1685C205.098 90.4005 203.978 89.3551 203.146 88.0325C202.335 86.6885 201.93 85.1631 201.93 83.4565C201.93 81.7285 202.335 80.2031 203.146 78.8805C203.978 77.5365 205.098 76.4911 206.506 75.7445C207.935 74.9765 209.567 74.5925 211.402 74.5925C213.215 74.5925 214.836 74.9765 216.266 75.7445C217.695 76.4911 218.815 77.5258 219.626 78.8485C220.436 80.1711 220.842 81.7071 220.842 83.4565C220.842 85.1631 220.436 86.6885 219.626 88.0325C218.815 89.3551 217.695 90.4005 216.266 91.1685C214.836 91.9365 213.215 92.3205 211.402 92.3205ZM211.402 88.2245C212.234 88.2245 212.98 88.0325 213.642 87.6485C214.303 87.2645 214.826 86.7205 215.21 86.0165C215.594 85.2911 215.786 84.4378 215.786 83.4565C215.786 82.4538 215.594 81.6005 215.21 80.8965C214.826 80.1925 214.303 79.6485 213.642 79.2645C212.98 78.8805 212.234 78.6885 211.402 78.6885C210.57 78.6885 209.823 78.8805 209.161 79.2645C208.5 79.6485 207.967 80.1925 207.562 80.8965C207.178 81.6005 206.986 82.4538 206.986 83.4565C206.986 84.4378 207.178 85.2911 207.562 86.0165C207.967 86.7205 208.5 87.2645 209.161 87.6485C209.823 88.0325 210.57 88.2245 211.402 88.2245ZM229.786 92.3845C228.464 92.3845 227.141 92.2458 225.819 91.9685C224.517 91.6911 223.312 91.2751 222.203 90.7205L223.547 87.2325C224.421 87.6591 225.371 87.9898 226.395 88.2245C227.44 88.4378 228.496 88.5445 229.562 88.5445C230.331 88.5445 230.992 88.4698 231.547 88.3205C232.123 88.1498 232.56 87.9151 232.859 87.6165C233.157 87.3178 233.307 86.9551 233.307 86.5285C233.307 85.9738 233.072 85.5578 232.603 85.2805C232.133 84.9818 231.451 84.8325 230.555 84.8325H227.035V81.7285H230.139C230.715 81.7285 231.205 81.6645 231.611 81.5365C232.016 81.4085 232.315 81.2271 232.507 80.9925C232.72 80.7365 232.827 80.4378 232.827 80.0965C232.827 79.7338 232.699 79.4245 232.443 79.1685C232.187 78.9125 231.813 78.7205 231.323 78.5925C230.832 78.4431 230.213 78.3685 229.467 78.3685C228.613 78.3685 227.728 78.4751 226.811 78.6885C225.893 78.8805 224.955 79.1685 223.995 79.5525L222.779 76.0965C223.909 75.6271 225.029 75.2538 226.139 74.9765C227.248 74.6991 228.347 74.5498 229.435 74.5285C231.035 74.4858 232.475 74.6565 233.755 75.0405C235.035 75.4245 236.037 75.9791 236.763 76.7045C237.509 77.4298 237.883 78.3151 237.883 79.3605C237.883 80.1925 237.627 80.9391 237.115 81.6005C236.624 82.2618 235.941 82.7845 235.067 83.1685C234.192 83.5311 233.211 83.7125 232.123 83.7125L232.251 82.7205C234.149 82.7205 235.643 83.1045 236.731 83.8725C237.819 84.6191 238.363 85.6431 238.363 86.9445C238.363 88.0538 237.979 89.0245 237.211 89.8565C236.464 90.6671 235.44 91.2965 234.139 91.7445C232.859 92.1711 231.408 92.3845 229.786 92.3845ZM253.771 89.8245V78.9445H248.139L248.043 81.1525C248.001 82.0698 247.947 82.9445 247.883 83.7765C247.819 84.6085 247.691 85.3658 247.499 86.0485C247.329 86.7098 247.073 87.2751 246.731 87.7445C246.39 88.1925 245.931 88.5018 245.355 88.6725L240.427 87.9685C241.046 87.9685 241.547 87.7871 241.931 87.4245C242.315 87.0405 242.614 86.5178 242.827 85.8565C243.041 85.1738 243.201 84.4058 243.307 83.5525C243.414 82.6778 243.489 81.7605 243.531 80.8005L243.755 74.8485H258.763V89.8245H253.771ZM239.851 95.7765V87.9685H261.227V95.7765H256.587V92.0645H244.491V95.7765H239.851ZM274.513 92.3205C273.062 92.3205 271.793 92.0005 270.705 91.3605C269.617 90.7205 268.763 89.7498 268.145 88.4485C267.547 87.1258 267.249 85.4618 267.249 83.4565C267.249 81.4298 267.537 79.7658 268.113 78.4645C268.689 77.1631 269.521 76.1925 270.609 75.5525C271.697 74.9125 272.998 74.5925 274.513 74.5925C276.134 74.5925 277.585 74.9658 278.865 75.7125C280.166 76.4378 281.19 77.4618 281.937 78.7845C282.705 80.1071 283.089 81.6645 283.089 83.4565C283.089 85.2698 282.705 86.8378 281.937 88.1605C281.19 89.4831 280.166 90.5071 278.865 91.2325C277.585 91.9578 276.134 92.3205 274.513 92.3205ZM264.337 98.2725V74.8485H269.105V78.3685L269.009 83.4885L269.329 88.5765V98.2725H264.337ZM273.649 88.2245C274.481 88.2245 275.217 88.0325 275.857 87.6485C276.518 87.2645 277.041 86.7205 277.425 86.0165C277.83 85.2911 278.033 84.4378 278.033 83.4565C278.033 82.4538 277.83 81.6005 277.425 80.8965C277.041 80.1925 276.518 79.6485 275.857 79.2645C275.217 78.8805 274.481 78.6885 273.649 78.6885C272.817 78.6885 272.07 78.8805 271.409 79.2645C270.747 79.6485 270.225 80.1925 269.841 80.8965C269.457 81.6005 269.265 82.4538 269.265 83.4565C269.265 84.4378 269.457 85.2911 269.841 86.0165C270.225 86.7205 270.747 87.2645 271.409 87.6485C272.07 88.0325 272.817 88.2245 273.649 88.2245ZM296.61 92.0645V88.7045L296.29 87.9685V81.9525C296.29 80.8858 295.96 80.0538 295.298 79.4565C294.658 78.8591 293.666 78.5605 292.322 78.5605C291.405 78.5605 290.498 78.7098 289.602 79.0085C288.728 79.2858 287.981 79.6698 287.362 80.1605L285.57 76.6725C286.509 76.0111 287.64 75.4991 288.962 75.1365C290.285 74.7738 291.629 74.5925 292.994 74.5925C295.618 74.5925 297.656 75.2111 299.106 76.4485C300.557 77.6858 301.282 79.6165 301.282 82.2405V92.0645H296.61ZM291.362 92.3205C290.018 92.3205 288.866 92.0965 287.906 91.6485C286.946 91.1791 286.21 90.5498 285.698 89.7605C285.186 88.9711 284.93 88.0858 284.93 87.1045C284.93 86.0805 285.176 85.1845 285.666 84.4165C286.178 83.6485 286.978 83.0511 288.066 82.6245C289.154 82.1765 290.573 81.9525 292.322 81.9525H296.898V84.8645H292.866C291.693 84.8645 290.882 85.0565 290.434 85.4405C290.008 85.8245 289.794 86.3045 289.794 86.8805C289.794 87.5205 290.04 88.0325 290.53 88.4165C291.042 88.7791 291.736 88.9605 292.61 88.9605C293.442 88.9605 294.189 88.7685 294.85 88.3845C295.512 87.9791 295.992 87.3925 296.29 86.6245L297.058 88.9285C296.696 90.0378 296.034 90.8805 295.074 91.4565C294.114 92.0325 292.877 92.3205 291.362 92.3205ZM305.619 92.0645V74.8485H314.419C316.573 74.8485 318.259 75.2431 319.475 76.0325C320.691 76.8005 321.299 77.8885 321.299 79.2965C321.299 80.7045 320.723 81.8138 319.571 82.6245C318.44 83.4138 316.936 83.8085 315.059 83.8085L315.571 82.6565C317.661 82.6565 319.219 83.0405 320.243 83.8085C321.288 84.5765 321.811 85.6965 321.811 87.1685C321.811 88.6831 321.235 89.8778 320.083 90.7525C318.931 91.6271 317.171 92.0645 314.803 92.0645H305.619ZM310.195 88.6725H314.387C315.304 88.6725 315.987 88.5231 316.435 88.2245C316.904 87.9045 317.139 87.4245 317.139 86.7845C317.139 86.1231 316.925 85.6431 316.499 85.3445C316.072 85.0245 315.4 84.8645 314.483 84.8645H310.195V88.6725ZM310.195 81.9205H313.971C314.845 81.9205 315.496 81.7605 315.923 81.4405C316.371 81.1205 316.595 80.6618 316.595 80.0645C316.595 79.4458 316.371 78.9871 315.923 78.6885C315.496 78.3898 314.845 78.2405 313.971 78.2405H310.195V81.9205ZM323.349 92.0325L323.605 87.9365C323.733 87.9578 323.861 87.9791 323.989 88.0005C324.117 88.0005 324.234 88.0005 324.341 88.0005C324.938 88.0005 325.408 87.8298 325.749 87.4885C326.09 87.1471 326.346 86.6885 326.517 86.1125C326.688 85.5151 326.805 84.8431 326.869 84.0965C326.954 83.3498 327.018 82.5711 327.061 81.7605L327.317 74.8485H342.037V92.0645H337.045V77.7285L338.165 78.9445H330.613L331.669 77.6645L331.445 81.9845C331.381 83.5205 331.253 84.9285 331.061 86.2085C330.89 87.4885 330.602 88.5978 330.197 89.5365C329.792 90.4538 329.248 91.1685 328.565 91.6805C327.882 92.1711 327.008 92.4165 325.941 92.4165C325.557 92.4165 325.152 92.3845 324.725 92.3205C324.298 92.2565 323.84 92.1605 323.349 92.0325ZM355.254 92.3205C353.291 92.3205 351.563 91.9365 350.07 91.1685C348.598 90.4005 347.456 89.3551 346.646 88.0325C345.835 86.6885 345.43 85.1631 345.43 83.4565C345.43 81.7285 345.824 80.2031 346.614 78.8805C347.424 77.5365 348.523 76.4911 349.91 75.7445C351.296 74.9765 352.864 74.5925 354.614 74.5925C356.299 74.5925 357.814 74.9551 359.158 75.6805C360.523 76.3845 361.6 77.4085 362.39 78.7525C363.179 80.0751 363.574 81.6645 363.574 83.5205C363.574 83.7125 363.563 83.9365 363.542 84.1925C363.52 84.4271 363.499 84.6511 363.478 84.8645H349.494V81.9525H360.854L358.934 82.8165C358.934 81.9205 358.752 81.1418 358.39 80.4805C358.027 79.8191 357.526 79.3071 356.886 78.9445C356.246 78.5605 355.499 78.3685 354.646 78.3685C353.792 78.3685 353.035 78.5605 352.374 78.9445C351.734 79.3071 351.232 79.8298 350.87 80.5125C350.507 81.1738 350.326 81.9631 350.326 82.8805V83.6485C350.326 84.5871 350.528 85.4191 350.934 86.1445C351.36 86.8485 351.947 87.3925 352.694 87.7765C353.462 88.1391 354.358 88.3205 355.382 88.3205C356.299 88.3205 357.099 88.1818 357.782 87.9045C358.486 87.6271 359.126 87.2111 359.702 86.6565L362.358 89.5365C361.568 90.4325 360.576 91.1258 359.382 91.6165C358.187 92.0858 356.811 92.3205 355.254 92.3205ZM367.4 92.0645V74.8485H372.36V81.5685H379.848V74.8485H384.84V92.0645H379.848V85.6325H372.36V92.0645H367.4ZM389.619 92.0645V74.8485H394.579V85.0885L402.963 74.8485H407.539V92.0645H402.579V81.8245L394.227 92.0645H389.619ZM423.186 92.0645V86.3365L423.89 87.1365H419.122C416.647 87.1365 414.706 86.6245 413.298 85.6005C411.89 84.5765 411.186 83.1045 411.186 81.1845C411.186 79.1365 411.922 77.5685 413.394 76.4805C414.887 75.3925 416.892 74.8485 419.41 74.8485H427.634V92.0645H423.186ZM410.93 92.0645L415.506 85.5045H420.594L416.242 92.0645H410.93ZM423.186 84.8005V77.6325L423.89 78.9125H419.506C418.482 78.9125 417.682 79.1045 417.106 79.4885C416.551 79.8725 416.274 80.4911 416.274 81.3445C416.274 82.9871 417.33 83.8085 419.442 83.8085H423.89L423.186 84.8005ZM432.687 84.2885L431.695 69.6645H437.647L436.655 84.2885H432.687ZM434.671 92.3205C433.775 92.3205 433.039 92.0325 432.463 91.4565C431.887 90.8805 431.599 90.1978 431.599 89.4085C431.599 88.5978 431.887 87.9258 432.463 87.3925C433.039 86.8378 433.775 86.5605 434.671 86.5605C435.589 86.5605 436.325 86.8378 436.879 87.3925C437.455 87.9258 437.743 88.5978 437.743 89.4085C437.743 90.1978 437.455 90.8805 436.879 91.4565C436.325 92.0325 435.589 92.3205 434.671 92.3205Z" fill="#F1CCCC"/>
<path d="M119.18 144.064V131.464H124.418C125.75 131.464 126.794 131.74 127.55 132.292C128.318 132.832 128.702 133.63 128.702 134.686C128.702 135.73 128.336 136.522 127.604 137.062C126.872 137.59 125.912 137.854 124.724 137.854L125.03 137.404C126.434 137.404 127.502 137.68 128.234 138.232C128.966 138.784 129.332 139.594 129.332 140.662C129.332 141.742 128.948 142.582 128.18 143.182C127.424 143.77 126.284 144.064 124.76 144.064H119.18ZM120.494 143.002H124.76C125.828 143.002 126.638 142.804 127.19 142.408C127.742 142.012 128.018 141.4 128.018 140.572C128.018 139.756 127.742 139.156 127.19 138.772C126.638 138.388 125.828 138.196 124.76 138.196H120.494V143.002ZM120.494 137.17H124.346C125.318 137.17 126.062 136.978 126.578 136.594C127.106 136.198 127.37 135.616 127.37 134.848C127.37 134.08 127.106 133.504 126.578 133.12C126.062 132.724 125.318 132.526 124.346 132.526H120.494V137.17ZM141.572 144.064V134.614H142.85V144.064H141.572ZM136.334 137.944C137.522 137.956 138.428 138.22 139.052 138.736C139.676 139.252 139.988 139.996 139.988 140.968C139.988 141.976 139.652 142.75 138.98 143.29C138.308 143.83 137.348 144.094 136.1 144.082L132.356 144.064V134.614H133.634V137.908L136.334 137.944ZM136.01 143.11C136.898 143.122 137.564 142.948 138.008 142.588C138.464 142.216 138.692 141.676 138.692 140.968C138.692 140.26 138.47 139.744 138.026 139.42C137.582 139.084 136.91 138.91 136.01 138.898L133.634 138.862V143.074L136.01 143.11ZM155.088 144.154C154.176 144.154 153.354 143.95 152.622 143.542C151.902 143.122 151.332 142.552 150.912 141.832C150.492 141.1 150.282 140.266 150.282 139.33C150.282 138.382 150.492 137.548 150.912 136.828C151.332 136.108 151.902 135.544 152.622 135.136C153.342 134.728 154.164 134.524 155.088 134.524C156.024 134.524 156.852 134.728 157.572 135.136C158.304 135.544 158.874 136.108 159.282 136.828C159.702 137.548 159.912 138.382 159.912 139.33C159.912 140.266 159.702 141.1 159.282 141.832C158.874 142.552 158.304 143.122 157.572 143.542C156.84 143.95 156.012 144.154 155.088 144.154ZM155.088 143.02C155.772 143.02 156.378 142.87 156.906 142.57C157.434 142.258 157.848 141.826 158.148 141.274C158.46 140.71 158.616 140.062 158.616 139.33C158.616 138.586 158.46 137.938 158.148 137.386C157.848 136.834 157.434 136.408 156.906 136.108C156.378 135.796 155.778 135.64 155.106 135.64C154.434 135.64 153.834 135.796 153.306 136.108C152.778 136.408 152.358 136.834 152.046 137.386C151.734 137.938 151.578 138.586 151.578 139.33C151.578 140.062 151.734 140.71 152.046 141.274C152.358 141.826 152.778 142.258 153.306 142.57C153.834 142.87 154.428 143.02 155.088 143.02ZM166.603 144.154C165.667 144.154 164.827 143.95 164.083 143.542C163.351 143.122 162.775 142.552 162.355 141.832C161.935 141.1 161.725 140.266 161.725 139.33C161.725 138.382 161.935 137.548 162.355 136.828C162.775 136.108 163.351 135.544 164.083 135.136C164.827 134.728 165.667 134.524 166.603 134.524C167.407 134.524 168.133 134.68 168.781 134.992C169.429 135.304 169.939 135.772 170.311 136.396L169.357 137.044C169.033 136.564 168.631 136.21 168.151 135.982C167.671 135.754 167.149 135.64 166.585 135.64C165.913 135.64 165.307 135.796 164.767 136.108C164.227 136.408 163.801 136.834 163.489 137.386C163.177 137.938 163.021 138.586 163.021 139.33C163.021 140.074 163.177 140.722 163.489 141.274C163.801 141.826 164.227 142.258 164.767 142.57C165.307 142.87 165.913 143.02 166.585 143.02C167.149 143.02 167.671 142.906 168.151 142.678C168.631 142.45 169.033 142.102 169.357 141.634L170.311 142.282C169.939 142.894 169.429 143.362 168.781 143.686C168.133 143.998 167.407 144.154 166.603 144.154ZM172.786 144.064V134.614H176.962C178.03 134.614 178.87 134.818 179.482 135.226C180.106 135.634 180.418 136.234 180.418 137.026C180.418 137.794 180.124 138.388 179.536 138.808C178.948 139.216 178.174 139.42 177.214 139.42L177.466 139.042C178.594 139.042 179.422 139.252 179.95 139.672C180.478 140.092 180.742 140.698 180.742 141.49C180.742 142.306 180.442 142.942 179.842 143.398C179.254 143.842 178.336 144.064 177.088 144.064H172.786ZM174.028 143.056H177.034C177.838 143.056 178.444 142.93 178.852 142.678C179.272 142.414 179.482 141.994 179.482 141.418C179.482 140.842 179.296 140.422 178.924 140.158C178.552 139.894 177.964 139.762 177.16 139.762H174.028V143.056ZM174.028 138.808H176.872C177.604 138.808 178.162 138.67 178.546 138.394C178.942 138.118 179.14 137.716 179.14 137.188C179.14 136.66 178.942 136.264 178.546 136C178.162 135.736 177.604 135.604 176.872 135.604H174.028V138.808ZM187.625 144.154C186.713 144.154 185.891 143.95 185.159 143.542C184.439 143.122 183.869 142.552 183.449 141.832C183.029 141.1 182.819 140.266 182.819 139.33C182.819 138.382 183.029 137.548 183.449 136.828C183.869 136.108 184.439 135.544 185.159 135.136C185.879 134.728 186.701 134.524 187.625 134.524C188.561 134.524 189.389 134.728 190.109 135.136C190.841 135.544 191.411 136.108 191.819 136.828C192.239 137.548 192.449 138.382 192.449 139.33C192.449 140.266 192.239 141.1 191.819 141.832C191.411 142.552 190.841 143.122 190.109 143.542C189.377 143.95 188.549 144.154 187.625 144.154ZM187.625 143.02C188.309 143.02 188.915 142.87 189.443 142.57C189.971 142.258 190.385 141.826 190.685 141.274C190.997 140.71 191.153 140.062 191.153 139.33C191.153 138.586 190.997 137.938 190.685 137.386C190.385 136.834 189.971 136.408 189.443 136.108C188.915 135.796 188.315 135.64 187.643 135.64C186.971 135.64 186.371 135.796 185.843 136.108C185.315 136.408 184.895 136.834 184.583 137.386C184.271 137.938 184.115 138.586 184.115 139.33C184.115 140.062 184.271 140.71 184.583 141.274C184.895 141.826 185.315 142.258 185.843 142.57C186.371 142.87 186.965 143.02 187.625 143.02ZM195.18 144.064V134.614H196.458V142.12L202.776 134.614H203.91V144.064H202.632V136.54L196.332 144.064H195.18ZM205.845 144.046L205.935 142.948C206.019 142.96 206.097 142.978 206.169 143.002C206.253 143.014 206.325 143.02 206.385 143.02C206.769 143.02 207.075 142.876 207.303 142.588C207.543 142.3 207.723 141.916 207.843 141.436C207.963 140.956 208.047 140.416 208.095 139.816C208.143 139.204 208.185 138.592 208.221 137.98L208.383 134.614H215.313V144.064H214.035V135.352L214.359 135.73H209.211L209.517 135.334L209.373 138.07C209.337 138.886 209.271 139.666 209.175 140.41C209.091 141.154 208.953 141.808 208.761 142.372C208.581 142.936 208.329 143.38 208.005 143.704C207.681 144.016 207.267 144.172 206.763 144.172C206.619 144.172 206.469 144.16 206.313 144.136C206.169 144.112 206.013 144.082 205.845 144.046ZM218.946 144.064V134.614H220.224V142.12L226.542 134.614H227.676V144.064H226.398V136.54L220.098 144.064H218.946ZM239.937 144.154C239.025 144.154 238.203 143.95 237.471 143.542C236.751 143.122 236.181 142.552 235.761 141.832C235.341 141.1 235.131 140.266 235.131 139.33C235.131 138.382 235.341 137.548 235.761 136.828C236.181 136.108 236.751 135.544 237.471 135.136C238.191 134.728 239.013 134.524 239.937 134.524C240.873 134.524 241.701 134.728 242.421 135.136C243.153 135.544 243.723 136.108 244.131 136.828C244.551 137.548 244.761 138.382 244.761 139.33C244.761 140.266 244.551 141.1 244.131 141.832C243.723 142.552 243.153 143.122 242.421 143.542C241.689 143.95 240.861 144.154 239.937 144.154ZM239.937 143.02C240.621 143.02 241.227 142.87 241.755 142.57C242.283 142.258 242.697 141.826 242.997 141.274C243.309 140.71 243.465 140.062 243.465 139.33C243.465 138.586 243.309 137.938 242.997 137.386C242.697 136.834 242.283 136.408 241.755 136.108C241.227 135.796 240.627 135.64 239.955 135.64C239.283 135.64 238.683 135.796 238.155 136.108C237.627 136.408 237.207 136.834 236.895 137.386C236.583 137.938 236.427 138.586 236.427 139.33C236.427 140.062 236.583 140.71 236.895 141.274C237.207 141.826 237.627 142.258 238.155 142.57C238.683 142.87 239.277 143.02 239.937 143.02ZM251.453 144.154C250.517 144.154 249.677 143.95 248.933 143.542C248.201 143.122 247.625 142.552 247.205 141.832C246.785 141.1 246.575 140.266 246.575 139.33C246.575 138.382 246.785 137.548 247.205 136.828C247.625 136.108 248.201 135.544 248.933 135.136C249.677 134.728 250.517 134.524 251.453 134.524C252.257 134.524 252.983 134.68 253.631 134.992C254.279 135.304 254.789 135.772 255.161 136.396L254.207 137.044C253.883 136.564 253.481 136.21 253.001 135.982C252.521 135.754 251.999 135.64 251.435 135.64C250.763 135.64 250.157 135.796 249.617 136.108C249.077 136.408 248.651 136.834 248.339 137.386C248.027 137.938 247.871 138.586 247.871 139.33C247.871 140.074 248.027 140.722 248.339 141.274C248.651 141.826 249.077 142.258 249.617 142.57C250.157 142.87 250.763 143.02 251.435 143.02C251.999 143.02 252.521 142.906 253.001 142.678C253.481 142.45 253.883 142.102 254.207 141.634L255.161 142.282C254.789 142.894 254.279 143.362 253.631 143.686C252.983 143.998 252.257 144.154 251.453 144.154ZM257.635 144.064V134.614H258.913V138.79H264.871V134.614H266.149V144.064H264.871V139.888H258.913V144.064H257.635ZM273.67 144.154C272.758 144.154 271.936 143.95 271.204 143.542C270.484 143.122 269.914 142.552 269.494 141.832C269.074 141.1 268.864 140.266 268.864 139.33C268.864 138.382 269.074 137.548 269.494 136.828C269.914 136.108 270.484 135.544 271.204 135.136C271.924 134.728 272.746 134.524 273.67 134.524C274.606 134.524 275.434 134.728 276.154 135.136C276.886 135.544 277.456 136.108 277.864 136.828C278.284 137.548 278.494 138.382 278.494 139.33C278.494 140.266 278.284 141.1 277.864 141.832C277.456 142.552 276.886 143.122 276.154 143.542C275.422 143.95 274.594 144.154 273.67 144.154ZM273.67 143.02C274.354 143.02 274.96 142.87 275.488 142.57C276.016 142.258 276.43 141.826 276.73 141.274C277.042 140.71 277.198 140.062 277.198 139.33C277.198 138.586 277.042 137.938 276.73 137.386C276.43 136.834 276.016 136.408 275.488 136.108C274.96 135.796 274.36 135.64 273.688 135.64C273.016 135.64 272.416 135.796 271.888 136.108C271.36 136.408 270.94 136.834 270.628 137.386C270.316 137.938 270.16 138.586 270.16 139.33C270.16 140.062 270.316 140.71 270.628 141.274C270.94 141.826 271.36 142.258 271.888 142.57C272.416 142.87 273.01 143.02 273.67 143.02ZM281.225 144.064V134.614H285.401C286.469 134.614 287.309 134.818 287.921 135.226C288.545 135.634 288.857 136.234 288.857 137.026C288.857 137.794 288.563 138.388 287.975 138.808C287.387 139.216 286.613 139.42 285.653 139.42L285.905 139.042C287.033 139.042 287.861 139.252 288.389 139.672C288.917 140.092 289.181 140.698 289.181 141.49C289.181 142.306 288.881 142.942 288.281 143.398C287.693 143.842 286.775 144.064 285.527 144.064H281.225ZM282.467 143.056H285.473C286.277 143.056 286.883 142.93 287.291 142.678C287.711 142.414 287.921 141.994 287.921 141.418C287.921 140.842 287.735 140.422 287.363 140.158C286.991 139.894 286.403 139.762 285.599 139.762H282.467V143.056ZM282.467 138.808H285.311C286.043 138.808 286.601 138.67 286.985 138.394C287.381 138.118 287.579 137.716 287.579 137.188C287.579 136.66 287.381 136.264 286.985 136C286.601 135.736 286.043 135.604 285.311 135.604H282.467V138.808ZM301.392 144.064V134.614H302.67V144.064H301.392ZM296.154 137.944C297.342 137.956 298.248 138.22 298.872 138.736C299.496 139.252 299.808 139.996 299.808 140.968C299.808 141.976 299.472 142.75 298.8 143.29C298.128 143.83 297.168 144.094 295.92 144.082L292.176 144.064V134.614H293.454V137.908L296.154 137.944ZM295.83 143.11C296.718 143.122 297.384 142.948 297.828 142.588C298.284 142.216 298.512 141.676 298.512 140.968C298.512 140.26 298.29 139.744 297.846 139.42C297.402 139.084 296.73 138.91 295.83 138.898L293.454 138.862V143.074L295.83 143.11ZM317.5 143.452V135.73H312.946L312.838 137.836C312.814 138.472 312.772 139.096 312.712 139.708C312.664 140.32 312.574 140.884 312.442 141.4C312.322 141.904 312.148 142.318 311.92 142.642C311.692 142.954 311.398 143.134 311.038 143.182L309.76 142.948C310.132 142.96 310.438 142.828 310.678 142.552C310.918 142.264 311.104 141.874 311.236 141.382C311.368 140.89 311.464 140.332 311.524 139.708C311.584 139.072 311.632 138.424 311.668 137.764L311.794 134.614H318.778V143.452H317.5ZM309.364 146.35V142.948H320.254V146.35H319.048V144.064H310.57V146.35H309.364ZM322.745 144.064V134.614H324.023V142.12L330.341 134.614H331.475V144.064H330.197V136.54L323.897 144.064H322.745ZM337.482 144.172C336.798 144.172 336.12 144.076 335.448 143.884C334.776 143.692 334.182 143.398 333.666 143.002L334.08 142.048C334.536 142.384 335.064 142.642 335.664 142.822C336.264 142.99 336.858 143.074 337.446 143.074C338.034 143.062 338.544 142.978 338.976 142.822C339.408 142.666 339.744 142.45 339.984 142.174C340.224 141.898 340.344 141.586 340.344 141.238C340.344 140.734 340.116 140.344 339.66 140.068C339.204 139.78 338.58 139.636 337.788 139.636H336.168V138.7H337.698C338.166 138.7 338.58 138.64 338.94 138.52C339.3 138.4 339.576 138.226 339.768 137.998C339.972 137.77 340.074 137.5 340.074 137.188C340.074 136.852 339.954 136.564 339.714 136.324C339.486 136.084 339.168 135.904 338.76 135.784C338.352 135.664 337.89 135.604 337.374 135.604C336.906 135.616 336.42 135.688 335.916 135.82C335.412 135.94 334.914 136.126 334.422 136.378L334.062 135.388C334.614 135.1 335.16 134.884 335.7 134.74C336.252 134.584 336.804 134.506 337.356 134.506C338.112 134.482 338.79 134.572 339.39 134.776C340.002 134.98 340.488 135.274 340.848 135.658C341.208 136.03 341.388 136.48 341.388 137.008C341.388 137.476 341.244 137.884 340.956 138.232C340.668 138.58 340.284 138.85 339.804 139.042C339.324 139.234 338.778 139.33 338.166 139.33L338.22 138.988C339.3 138.988 340.14 139.198 340.74 139.618C341.352 140.038 341.658 140.608 341.658 141.328C341.658 141.892 341.472 142.39 341.1 142.822C340.728 143.242 340.224 143.572 339.588 143.812C338.964 144.052 338.262 144.172 337.482 144.172ZM350.427 144.064V141.976L350.373 141.634V138.142C350.373 137.338 350.145 136.72 349.689 136.288C349.245 135.856 348.579 135.64 347.691 135.64C347.079 135.64 346.497 135.742 345.945 135.946C345.393 136.15 344.925 136.42 344.541 136.756L343.965 135.802C344.445 135.394 345.021 135.082 345.693 134.866C346.365 134.638 347.073 134.524 347.817 134.524C349.041 134.524 349.983 134.83 350.643 135.442C351.315 136.042 351.651 136.96 351.651 138.196V144.064H350.427ZM347.169 144.154C346.461 144.154 345.843 144.04 345.315 143.812C344.799 143.572 344.403 143.248 344.127 142.84C343.851 142.42 343.713 141.94 343.713 141.4C343.713 140.908 343.827 140.464 344.055 140.068C344.295 139.66 344.679 139.336 345.207 139.096C345.747 138.844 346.467 138.718 347.367 138.718H350.625V139.672H347.403C346.491 139.672 345.855 139.834 345.495 140.158C345.147 140.482 344.973 140.884 344.973 141.364C344.973 141.904 345.183 142.336 345.603 142.66C346.023 142.984 346.611 143.146 347.367 143.146C348.087 143.146 348.705 142.984 349.221 142.66C349.749 142.324 350.133 141.844 350.373 141.22L350.661 142.102C350.421 142.726 350.001 143.224 349.401 143.596C348.813 143.968 348.069 144.154 347.169 144.154ZM355.053 144.064V134.614H356.331V142.12L362.649 134.614H363.783V144.064H362.505V136.54L356.205 144.064H355.053ZM359.337 133.246C358.545 133.246 357.903 133.048 357.411 132.652C356.931 132.244 356.679 131.662 356.655 130.906H357.573C357.585 131.386 357.753 131.764 358.077 132.04C358.401 132.316 358.821 132.454 359.337 132.454C359.853 132.454 360.273 132.316 360.597 132.04C360.933 131.764 361.107 131.386 361.119 130.906H362.037C362.025 131.662 361.773 132.244 361.281 132.652C360.789 133.048 360.141 133.246 359.337 133.246ZM367.446 144.064V134.614H368.724V138.79H374.682V134.614H375.96V144.064H374.682V139.888H368.724V144.064H367.446ZM385.46 144.064V141.976L385.406 141.634V138.142C385.406 137.338 385.178 136.72 384.722 136.288C384.278 135.856 383.612 135.64 382.724 135.64C382.112 135.64 381.53 135.742 380.978 135.946C380.426 136.15 379.958 136.42 379.574 136.756L378.998 135.802C379.478 135.394 380.054 135.082 380.726 134.866C381.398 134.638 382.106 134.524 382.85 134.524C384.074 134.524 385.016 134.83 385.676 135.442C386.348 136.042 386.684 136.96 386.684 138.196V144.064H385.46ZM382.202 144.154C381.494 144.154 380.876 144.04 380.348 143.812C379.832 143.572 379.436 143.248 379.16 142.84C378.884 142.42 378.746 141.94 378.746 141.4C378.746 140.908 378.86 140.464 379.088 140.068C379.328 139.66 379.712 139.336 380.24 139.096C380.78 138.844 381.5 138.718 382.4 138.718H385.658V139.672H382.436C381.524 139.672 380.888 139.834 380.528 140.158C380.18 140.482 380.006 140.884 380.006 141.364C380.006 141.904 380.216 142.336 380.636 142.66C381.056 142.984 381.644 143.146 382.4 143.146C383.12 143.146 383.738 142.984 384.254 142.66C384.782 142.324 385.166 141.844 385.406 141.22L385.694 142.102C385.454 142.726 385.034 143.224 384.434 143.596C383.846 143.968 383.102 144.154 382.202 144.154ZM390.105 140.284L389.853 131.464H391.365L391.095 140.284H390.105ZM390.609 144.154C390.345 144.154 390.117 144.064 389.925 143.884C389.745 143.692 389.655 143.47 389.655 143.218C389.655 142.954 389.745 142.738 389.925 142.57C390.117 142.39 390.345 142.3 390.609 142.3C390.885 142.3 391.107 142.39 391.275 142.57C391.455 142.738 391.545 142.954 391.545 143.218C391.545 143.47 391.455 143.692 391.275 143.884C391.107 144.064 390.885 144.154 390.609 144.154Z" fill="#F1CCCC"/>
<path d="M169.144 203.264C168.05 203.264 167.044 203.084 166.124 202.724C165.204 202.364 164.404 201.864 163.724 201.224C163.044 200.571 162.517 199.811 162.144 198.944C161.77 198.064 161.584 197.104 161.584 196.064C161.584 195.024 161.77 194.071 162.144 193.204C162.517 192.324 163.044 191.564 163.724 190.924C164.404 190.271 165.204 189.764 166.124 189.404C167.044 189.044 168.044 188.864 169.124 188.864C170.217 188.864 171.217 189.044 172.124 189.404C173.044 189.764 173.844 190.271 174.524 190.924C175.204 191.564 175.73 192.324 176.104 193.204C176.477 194.071 176.664 195.024 176.664 196.064C176.664 197.104 176.477 198.064 176.104 198.944C175.73 199.824 175.204 200.584 174.524 201.224C173.844 201.864 173.044 202.364 172.124 202.724C171.217 203.084 170.224 203.264 169.144 203.264ZM169.124 200.984C169.83 200.984 170.484 200.864 171.084 200.624C171.684 200.384 172.204 200.044 172.644 199.604C173.084 199.151 173.424 198.631 173.664 198.044C173.917 197.444 174.044 196.784 174.044 196.064C174.044 195.344 173.917 194.691 173.664 194.104C173.424 193.504 173.084 192.984 172.644 192.544C172.204 192.091 171.684 191.744 171.084 191.504C170.484 191.264 169.83 191.144 169.124 191.144C168.417 191.144 167.764 191.264 167.164 191.504C166.577 191.744 166.057 192.091 165.604 192.544C165.164 192.984 164.817 193.504 164.564 194.104C164.324 194.691 164.204 195.344 164.204 196.064C164.204 196.771 164.324 197.424 164.564 198.024C164.817 198.624 165.164 199.151 165.604 199.604C166.044 200.044 166.564 200.384 167.164 200.624C167.764 200.864 168.417 200.984 169.124 200.984ZM181.302 203.064V193.904L181.882 194.504H177.542V192.384H187.542V194.504H183.222L183.802 193.904V203.064H181.302ZM187.073 203.044L187.193 200.944C187.286 200.958 187.373 200.971 187.453 200.984C187.533 200.998 187.606 201.004 187.673 201.004C188.086 201.004 188.406 200.878 188.633 200.624C188.86 200.371 189.026 200.031 189.133 199.604C189.253 199.164 189.333 198.678 189.373 198.144C189.426 197.598 189.466 197.051 189.493 196.504L189.673 192.384H198.313V203.064H195.813V193.824L196.393 194.504H191.313L191.853 193.804L191.713 196.624C191.673 197.571 191.593 198.451 191.473 199.264C191.366 200.064 191.193 200.764 190.953 201.364C190.726 201.964 190.406 202.431 189.993 202.764C189.593 203.098 189.08 203.264 188.453 203.264C188.253 203.264 188.033 203.244 187.793 203.204C187.566 203.164 187.326 203.111 187.073 203.044ZM201.68 203.064V192.384H204.18V199.424L210.08 192.384H212.36V203.064H209.86V196.024L203.98 203.064H201.68ZM222.463 198.844C221.956 199.084 221.416 199.284 220.843 199.444C220.283 199.591 219.69 199.664 219.063 199.664C217.716 199.664 216.67 199.351 215.923 198.724C215.176 198.098 214.803 197.124 214.803 195.804V192.384H217.303V195.644C217.303 196.351 217.503 196.864 217.903 197.184C218.316 197.504 218.883 197.664 219.603 197.664C220.083 197.664 220.563 197.604 221.043 197.484C221.523 197.364 221.996 197.198 222.463 196.984V198.844ZM222.283 203.064V192.384H224.783V203.064H222.283ZM228.145 203.064V192.384H230.645V196.724H236.025V192.384H238.525V203.064H236.025V198.844H230.645V203.064H228.145ZM248.355 203.064V200.904L248.215 200.444V196.664C248.215 195.931 247.995 195.364 247.555 194.964C247.115 194.551 246.449 194.344 245.555 194.344C244.955 194.344 244.362 194.438 243.775 194.624C243.202 194.811 242.715 195.071 242.315 195.404L241.335 193.584C241.909 193.144 242.589 192.818 243.375 192.604C244.175 192.378 245.002 192.264 245.855 192.264C247.402 192.264 248.595 192.638 249.435 193.384C250.289 194.118 250.715 195.258 250.715 196.804V203.064H248.355ZM244.995 203.204C244.195 203.204 243.495 203.071 242.895 202.804C242.295 202.524 241.829 202.144 241.495 201.664C241.175 201.171 241.015 200.618 241.015 200.004C241.015 199.404 241.155 198.864 241.435 198.384C241.729 197.904 242.202 197.524 242.855 197.244C243.509 196.964 244.375 196.824 245.455 196.824H248.555V198.484H245.635C244.782 198.484 244.209 198.624 243.915 198.904C243.622 199.171 243.475 199.504 243.475 199.904C243.475 200.358 243.655 200.718 244.015 200.984C244.375 201.251 244.875 201.384 245.515 201.384C246.129 201.384 246.675 201.244 247.155 200.964C247.649 200.684 248.002 200.271 248.215 199.724L248.635 201.224C248.395 201.851 247.962 202.338 247.335 202.684C246.722 203.031 245.942 203.204 244.995 203.204ZM260.589 203.064V199.424L260.949 199.844H257.749C256.282 199.844 255.129 199.538 254.289 198.924C253.462 198.298 253.049 197.398 253.049 196.224C253.049 194.971 253.489 194.018 254.369 193.364C255.262 192.711 256.449 192.384 257.929 192.384H262.829V203.064H260.589ZM252.909 203.064L255.789 198.984H258.349L255.589 203.064H252.909ZM260.589 198.624V193.824L260.949 194.484H258.009C257.236 194.484 256.636 194.631 256.209 194.924C255.796 195.204 255.589 195.664 255.589 196.304C255.589 197.504 256.369 198.104 257.929 198.104H260.949L260.589 198.624ZM277.639 203.204C276.772 203.204 275.979 203.004 275.259 202.604C274.552 202.204 273.986 201.604 273.559 200.804C273.146 199.991 272.939 198.964 272.939 197.724C272.939 196.471 273.139 195.444 273.539 194.644C273.952 193.844 274.512 193.251 275.219 192.864C275.926 192.464 276.732 192.264 277.639 192.264C278.692 192.264 279.619 192.491 280.419 192.944C281.232 193.398 281.872 194.031 282.339 194.844C282.819 195.658 283.059 196.618 283.059 197.724C283.059 198.831 282.819 199.798 282.339 200.624C281.872 201.438 281.232 202.071 280.419 202.524C279.619 202.978 278.692 203.204 277.639 203.204ZM271.719 206.944V192.384H274.099V194.904L274.019 197.744L274.219 200.584V206.944H271.719ZM277.359 201.064C277.959 201.064 278.492 200.931 278.959 200.664C279.439 200.398 279.819 200.011 280.099 199.504C280.379 198.998 280.519 198.404 280.519 197.724C280.519 197.031 280.379 196.438 280.099 195.944C279.819 195.438 279.439 195.051 278.959 194.784C278.492 194.518 277.959 194.384 277.359 194.384C276.759 194.384 276.219 194.518 275.739 194.784C275.259 195.051 274.879 195.438 274.599 195.944C274.319 196.438 274.179 197.031 274.179 197.724C274.179 198.404 274.319 198.998 274.599 199.504C274.879 200.011 275.259 200.398 275.739 200.664C276.219 200.931 276.759 201.064 277.359 201.064ZM291.89 203.064V200.904L291.75 200.444V196.664C291.75 195.931 291.53 195.364 291.09 194.964C290.65 194.551 289.984 194.344 289.09 194.344C288.49 194.344 287.897 194.438 287.31 194.624C286.737 194.811 286.25 195.071 285.85 195.404L284.87 193.584C285.444 193.144 286.124 192.818 286.91 192.604C287.71 192.378 288.537 192.264 289.39 192.264C290.937 192.264 292.13 192.638 292.97 193.384C293.824 194.118 294.25 195.258 294.25 196.804V203.064H291.89ZM288.53 203.204C287.73 203.204 287.03 203.071 286.43 202.804C285.83 202.524 285.364 202.144 285.03 201.664C284.71 201.171 284.55 200.618 284.55 200.004C284.55 199.404 284.69 198.864 284.97 198.384C285.264 197.904 285.737 197.524 286.39 197.244C287.044 196.964 287.91 196.824 288.99 196.824H292.09V198.484H289.17C288.317 198.484 287.744 198.624 287.45 198.904C287.157 199.171 287.01 199.504 287.01 199.904C287.01 200.358 287.19 200.718 287.55 200.984C287.91 201.251 288.41 201.384 289.05 201.384C289.664 201.384 290.21 201.244 290.69 200.964C291.184 200.684 291.537 200.271 291.75 199.724L292.17 201.224C291.93 201.851 291.497 202.338 290.87 202.684C290.257 203.031 289.477 203.204 288.53 203.204ZM302.444 203.264C301.564 203.264 300.777 203.131 300.084 202.864C299.391 202.598 298.791 202.191 298.284 201.644C297.791 201.084 297.411 200.378 297.144 199.524C296.877 198.671 296.744 197.658 296.744 196.484C296.744 195.631 296.817 194.851 296.964 194.144C297.111 193.438 297.331 192.804 297.624 192.244C297.917 191.671 298.284 191.164 298.724 190.724C299.177 190.284 299.704 189.918 300.304 189.624C300.904 189.331 301.584 189.104 302.344 188.944L307.304 187.884L307.664 190.124L303.164 191.044C302.911 191.098 302.604 191.178 302.244 191.284C301.897 191.378 301.537 191.524 301.164 191.724C300.804 191.911 300.464 192.184 300.144 192.544C299.837 192.891 299.584 193.344 299.384 193.904C299.197 194.451 299.104 195.138 299.104 195.964C299.104 196.218 299.111 196.411 299.124 196.544C299.151 196.664 299.171 196.798 299.184 196.944C299.211 197.078 299.224 197.278 299.224 197.544L298.284 196.564C298.551 195.884 298.917 195.304 299.384 194.824C299.864 194.331 300.417 193.958 301.044 193.704C301.684 193.438 302.377 193.304 303.124 193.304C304.124 193.304 305.011 193.511 305.784 193.924C306.557 194.338 307.164 194.918 307.604 195.664C308.044 196.411 308.264 197.258 308.264 198.204C308.264 199.191 308.024 200.064 307.544 200.824C307.064 201.584 306.384 202.184 305.504 202.624C304.637 203.051 303.617 203.264 302.444 203.264ZM302.644 201.244C303.244 201.244 303.771 201.118 304.224 200.864C304.691 200.598 305.051 200.238 305.304 199.784C305.571 199.331 305.704 198.824 305.704 198.264C305.704 197.704 305.571 197.218 305.304 196.804C305.051 196.378 304.691 196.038 304.224 195.784C303.771 195.531 303.231 195.404 302.604 195.404C302.004 195.404 301.464 195.524 300.984 195.764C300.517 196.004 300.151 196.338 299.884 196.764C299.631 197.178 299.504 197.658 299.504 198.204C299.504 198.764 299.637 199.278 299.904 199.744C300.171 200.211 300.537 200.578 301.004 200.844C301.484 201.111 302.031 201.244 302.644 201.244ZM315.444 203.204C314.351 203.204 313.377 202.971 312.524 202.504C311.671 202.024 310.997 201.371 310.504 200.544C310.011 199.718 309.764 198.778 309.764 197.724C309.764 196.658 310.011 195.718 310.504 194.904C310.997 194.078 311.671 193.431 312.524 192.964C313.377 192.498 314.351 192.264 315.444 192.264C316.551 192.264 317.531 192.498 318.384 192.964C319.251 193.431 319.924 194.071 320.404 194.884C320.897 195.698 321.144 196.644 321.144 197.724C321.144 198.778 320.897 199.718 320.404 200.544C319.924 201.371 319.251 202.024 318.384 202.504C317.531 202.971 316.551 203.204 315.444 203.204ZM315.444 201.064C316.057 201.064 316.604 200.931 317.084 200.664C317.564 200.398 317.937 200.011 318.204 199.504C318.484 198.998 318.624 198.404 318.624 197.724C318.624 197.031 318.484 196.438 318.204 195.944C317.937 195.438 317.564 195.051 317.084 194.784C316.604 194.518 316.064 194.384 315.464 194.384C314.851 194.384 314.304 194.518 313.824 194.784C313.357 195.051 312.984 195.438 312.704 195.944C312.424 196.438 312.284 197.031 312.284 197.724C312.284 198.404 312.424 198.998 312.704 199.504C312.984 200.011 313.357 200.398 313.824 200.664C314.304 200.931 314.844 201.064 315.444 201.064ZM325.443 203.064V193.904L326.023 194.504H321.683V192.384H331.683V194.504H327.363L327.943 193.904V203.064H325.443ZM339.976 203.064V200.904L339.836 200.444V196.664C339.836 195.931 339.616 195.364 339.176 194.964C338.736 194.551 338.07 194.344 337.176 194.344C336.576 194.344 335.983 194.438 335.396 194.624C334.823 194.811 334.336 195.071 333.936 195.404L332.956 193.584C333.53 193.144 334.21 192.818 334.996 192.604C335.796 192.378 336.623 192.264 337.476 192.264C339.023 192.264 340.216 192.638 341.056 193.384C341.91 194.118 342.336 195.258 342.336 196.804V203.064H339.976ZM336.616 203.204C335.816 203.204 335.116 203.071 334.516 202.804C333.916 202.524 333.45 202.144 333.116 201.664C332.796 201.171 332.636 200.618 332.636 200.004C332.636 199.404 332.776 198.864 333.056 198.384C333.35 197.904 333.823 197.524 334.476 197.244C335.13 196.964 335.996 196.824 337.076 196.824H340.176V198.484H337.256C336.403 198.484 335.83 198.624 335.536 198.904C335.243 199.171 335.096 199.504 335.096 199.904C335.096 200.358 335.276 200.718 335.636 200.984C335.996 201.251 336.496 201.384 337.136 201.384C337.75 201.384 338.296 201.244 338.776 200.964C339.27 200.684 339.623 200.271 339.836 199.724L340.256 201.224C340.016 201.851 339.583 202.338 338.956 202.684C338.343 203.031 337.563 203.204 336.616 203.204ZM345.55 198.424L345.07 189.064H348.03L347.53 198.424H345.55ZM346.55 203.204C346.083 203.204 345.697 203.051 345.39 202.744C345.083 202.438 344.93 202.071 344.93 201.644C344.93 201.218 345.083 200.858 345.39 200.564C345.697 200.258 346.083 200.104 346.55 200.104C347.017 200.104 347.397 200.258 347.69 200.564C347.983 200.858 348.13 201.218 348.13 201.644C348.13 202.071 347.983 202.438 347.69 202.744C347.397 203.051 347.017 203.204 346.55 203.204Z" fill="#F1CCCC"/>
<path d="M402.07 196.923L409.95 176.947C410.261 176.16 410.799 175.486 411.488 175.008L420.004 169.143C421.354 168.198 423.814 168.124 425.34 169.498C427.011 170.907 427.436 173.574 426.263 175.338L422.704 181.364C422.393 181.923 422.341 182.516 422.512 183.061C422.699 183.566 423.097 183.996 423.628 184.205L431.709 187.393C433.263 188.006 434.351 189.162 434.704 190.574C435.032 191.93 434.627 193.361 433.584 194.563L422.938 207.381C421.367 209.579 417.929 210.518 415.295 209.479L407.627 206.454C406.309 205.934 404.639 204.753 404.127 203.574L402.379 200.635C401.702 199.527 401.589 198.142 402.07 196.923Z" fill="#FFE457"/>
<path d="M405.211 170.642L403.185 169.843C400.138 168.641 398.434 169.332 397.286 172.242L389.483 192.022C388.336 194.932 389.109 196.6 392.156 197.802L394.182 198.601C397.229 199.803 398.933 199.112 400.081 196.202L407.884 176.422C409.032 173.513 408.258 171.844 405.211 170.642Z" fill="#FFE457"/>
<path d="M85.6797 215.162C90.1717 213.456 92.4329 208.426 90.727 203.934L87.6367 195.796L79.499 198.886C75.007 200.592 72.7458 205.622 74.4517 210.114C76.1576 214.606 81.1877 216.867 85.6797 215.162Z" fill="#0ACF83"/>
<path d="M68.271 193.839C66.5651 189.347 68.8263 184.317 73.3183 182.611L81.456 179.52L87.6367 195.796L79.4991 198.886C75.0071 200.592 69.9769 198.331 68.271 193.839Z" fill="#A259FF"/>
<path d="M62.0904 177.563C60.3845 173.071 62.6457 168.041 67.1377 166.335L75.2753 163.245L81.4561 179.52L73.3184 182.611C68.8264 184.317 63.7962 182.055 62.0904 177.563Z" fill="#F24E1E"/>
<path d="M75.2754 163.245L83.4131 160.155C87.9051 158.449 92.9352 160.71 94.6411 165.202C96.347 169.694 94.0858 174.724 89.5938 176.43L81.4561 179.52L75.2754 163.245Z" fill="#FF7262"/>
<path d="M100.822 181.477C102.528 185.969 100.266 191 95.7744 192.705C91.2824 194.411 86.2523 192.15 84.5464 187.658C82.8405 183.166 85.1017 178.136 89.5937 176.43C94.0857 174.724 99.1159 176.985 100.822 181.477Z" fill="#1ABCFE"/>
<path d="M17.6733 237.71C25.9532 237.71 32.6955 244.498 32.6955 252.834C32.6955 261.17 25.9532 267.958 17.6733 267.958C9.39334 267.958 2.65099 261.17 2.65099 252.834C2.65099 244.498 9.39334 237.71 17.6733 237.71ZM17.6733 235.041C7.90879 235.041 0 243.003 0 252.834C0 262.664 7.90879 270.627 17.6733 270.627C27.4377 270.627 35.3465 262.664 35.3465 252.834C35.3465 243.003 27.4377 235.041 17.6733 235.041Z" fill="#969696"/>
<path d="M17.6733 208.336C25.9532 208.336 32.6955 215.124 32.6955 223.46C32.6955 231.796 25.9532 238.584 17.6733 238.584C9.39334 238.584 2.65099 231.796 2.65099 223.46C2.65099 215.124 9.39334 208.336 17.6733 208.336ZM17.6733 205.667C7.90879 205.667 0 213.629 0 223.46C0 233.29 7.90879 241.253 17.6733 241.253C27.4377 241.253 35.3465 233.29 35.3465 223.46C35.3465 213.629 27.4377 205.667 17.6733 205.667Z" fill="#969696"/>
<path d="M17.6733 178.964C25.9532 178.964 32.6955 185.752 32.6955 194.088C32.6955 202.424 25.9532 209.212 17.6733 209.212C9.39334 209.212 2.65099 202.424 2.65099 194.088C2.65099 185.752 9.39334 178.964 17.6733 178.964ZM17.6733 176.295C7.90879 176.295 0 184.257 0 194.088C0 203.918 7.90879 211.88 17.6733 211.88C27.4377 211.88 35.3465 203.918 35.3465 194.088C35.3465 184.257 27.4377 176.295 17.6733 176.295Z" fill="#969696"/>
<path d="M17.6733 149.591C25.9532 149.591 32.6955 156.379 32.6955 164.715C32.6955 173.051 25.9532 179.839 17.6733 179.839C9.39334 179.839 2.65099 173.051 2.65099 164.715C2.65099 156.379 9.39334 149.591 17.6733 149.591ZM17.6733 146.922C7.90879 146.922 0 154.884 0 164.715C0 174.545 7.90879 182.507 17.6733 182.507C27.4377 182.507 35.3465 174.545 35.3465 164.715C35.3465 154.884 27.4377 146.922 17.6733 146.922Z" fill="#969696"/>
<path d="M17.6733 120.227C25.9532 120.227 32.6955 127.014 32.6955 135.35C32.6955 143.686 25.9532 150.474 17.6733 150.474C9.39334 150.474 2.65099 143.686 2.65099 135.35C2.65099 127.014 9.39334 120.227 17.6733 120.227ZM17.6733 117.558C7.90879 117.558 0 125.52 0 135.35C0 145.181 7.90879 153.143 17.6733 153.143C27.4377 153.143 35.3465 145.181 35.3465 135.35C35.3465 125.52 27.4377 117.558 17.6733 117.558Z" fill="#969696"/>
<path d="M17.6733 90.8535C25.9532 90.8535 32.6955 97.6414 32.6955 105.977C32.6955 114.313 25.9532 121.101 17.6733 121.101C9.39334 121.101 2.65099 114.313 2.65099 105.977C2.65099 97.6414 9.39334 90.8535 17.6733 90.8535ZM17.6733 88.1846C7.90879 88.1846 0 96.1468 0 105.977C0 115.808 7.90879 123.77 17.6733 123.77C27.4377 123.77 35.3465 115.808 35.3465 105.977C35.3465 96.1468 27.4377 88.1846 17.6733 88.1846Z" fill="#969696"/>
<path d="M17.6733 61.4804C25.9532 61.4804 32.6955 68.2684 32.6955 76.6043C32.6955 84.9402 25.9532 91.7282 17.6733 91.7282C9.39334 91.7282 2.65099 84.9402 2.65099 76.6043C2.65099 68.2684 9.39334 61.4804 17.6733 61.4804ZM17.6733 58.8115C7.90879 58.8115 0 66.7738 0 76.6043C0 86.4348 7.90879 94.3971 17.6733 94.3971C27.4377 94.3971 35.3465 86.4348 35.3465 76.6043C35.3465 66.7738 27.4377 58.8115 17.6733 58.8115Z" fill="#969696"/>
<path d="M17.6733 32.1064C25.9532 32.1064 32.6955 38.8944 32.6955 47.2303C32.6955 55.5662 25.9532 62.3542 17.6733 62.3542C9.39334 62.3542 2.65099 55.5662 2.65099 47.2303C2.65099 38.8944 9.39334 32.1064 17.6733 32.1064ZM17.6733 29.4375C7.90879 29.4375 0 37.3998 0 47.2303C0 57.0608 7.90879 65.0231 17.6733 65.0231C27.4377 65.0231 35.3465 57.0608 35.3465 47.2303C35.3465 37.3998 27.4377 29.4375 17.6733 29.4375Z" fill="#969696"/>
<path d="M17.6733 2.73337C25.9532 2.73337 32.6955 9.52132 32.6955 17.8572C32.6955 26.1932 25.9532 32.9811 17.6733 32.9811C9.39334 32.9811 2.65099 26.1932 2.65099 17.8572C2.65099 9.52132 9.39334 2.73337 17.6733 2.73337ZM17.6733 0.0644531C7.90879 0.0644531 0 8.02673 0 17.8572C0 27.6878 7.90879 35.65 17.6733 35.65C27.4377 35.65 35.3465 27.6878 35.3465 17.8572C35.3465 8.02673 27.4377 0.0644531 17.6733 0.0644531Z" fill="#969696"/>
<path d="M47.3439 2.73337C55.6238 2.73337 62.3662 9.52132 62.3662 17.8572C62.3662 26.1932 55.6238 32.9811 47.3439 32.9811C39.064 32.9811 32.3216 26.1932 32.3216 17.8572C32.3216 9.52132 39.0552 2.73337 47.3439 2.73337ZM47.3439 0.0644531C37.5794 0.0644531 29.6707 8.02673 29.6707 17.8572C29.6707 27.6878 37.5794 35.65 47.3439 35.65C57.1084 35.65 65.0172 27.6878 65.0172 17.8572C65.0172 8.02673 57.0996 0.0644531 47.3439 0.0644531Z" fill="#969696"/>
<path d="M77.0051 2.73337C85.285 2.73337 92.0273 9.52132 92.0273 17.8572C92.0273 26.1932 85.285 32.9811 77.0051 32.9811C68.7251 32.9811 61.9828 26.1932 61.9828 17.8572C61.9828 9.52132 68.7251 2.73337 77.0051 2.73337ZM77.0051 0.0644531C67.2406 0.0644531 59.3318 8.02673 59.3318 17.8572C59.3318 27.6878 67.2406 35.65 77.0051 35.65C86.7695 35.65 94.6783 27.6878 94.6783 17.8572C94.6783 8.02673 86.7695 0.0644531 77.0051 0.0644531Z" fill="#969696"/>
<path d="M106.676 2.73337C114.956 2.73337 121.698 9.52132 121.698 17.8572C121.698 26.1932 114.956 32.9811 106.676 32.9811C98.3958 32.9811 91.6534 26.1932 91.6534 17.8572C91.6534 9.52132 98.3869 2.73337 106.676 2.73337ZM106.676 0.0644531C96.9112 0.0644531 89.0024 8.02672 89.0024 17.8572C89.0024 27.6878 96.9112 35.65 106.676 35.65C116.44 35.65 124.349 27.6878 124.349 17.8572C124.349 8.02672 116.431 0.0644531 106.676 0.0644531Z" fill="#969696"/>
<path d="M136.337 2.73337C144.617 2.73337 151.359 9.52132 151.359 17.8572C151.359 26.1932 144.617 32.9811 136.337 32.9811C128.057 32.9811 121.314 26.1932 121.314 17.8572C121.314 9.52132 128.057 2.73337 136.337 2.73337ZM136.337 0.0644531C126.572 0.0644531 118.663 8.02673 118.663 17.8572C118.663 27.6878 126.572 35.65 136.337 35.65C146.101 35.65 154.01 27.6878 154.01 17.8572C154.01 8.02673 146.101 0.0644531 136.337 0.0644531Z" fill="#969696"/>
<path d="M166.007 2.73337C174.287 2.73337 181.03 9.52132 181.03 17.8572C181.03 26.1932 174.287 32.9811 166.007 32.9811C157.728 32.9811 150.985 26.1932 150.985 17.8572C150.985 9.52132 157.728 2.73337 166.007 2.73337ZM166.007 0.0644531C156.243 0.0644531 148.334 8.02673 148.334 17.8572C148.334 27.6878 156.243 35.65 166.007 35.65C175.772 35.65 183.681 27.6878 183.681 17.8572C183.681 8.02673 175.763 0.0644531 166.007 0.0644531Z" fill="#969696"/>
<path d="M195.668 2.73337C203.948 2.73337 210.691 9.52132 210.691 17.8572C210.691 26.1932 203.948 32.9811 195.668 32.9811C187.388 32.9811 180.646 26.1932 180.646 17.8572C180.646 9.52132 187.388 2.73337 195.668 2.73337ZM195.668 0.0644531C185.904 0.0644531 177.995 8.02673 177.995 17.8572C177.995 27.6878 185.904 35.65 195.668 35.65C205.433 35.65 213.342 27.6878 213.342 17.8572C213.342 8.02673 205.433 0.0644531 195.668 0.0644531Z" fill="#969696"/>
<path d="M225.339 2.73337C233.619 2.73337 240.361 9.52132 240.361 17.8572C240.361 26.1932 233.619 32.9811 225.339 32.9811C217.059 32.9811 210.317 26.1932 210.317 17.8572C210.317 9.52132 217.059 2.73337 225.339 2.73337ZM225.339 0.0644531C215.575 0.0644531 207.666 8.02673 207.666 17.8572C207.666 27.6878 215.575 35.65 225.339 35.65C235.104 35.65 243.012 27.6878 243.012 17.8572C243.012 8.02673 235.095 0.0644531 225.339 0.0644531Z" fill="#969696"/>
<path d="M255 2.73337C263.28 2.73337 270.022 9.52132 270.022 17.8572C270.022 26.1932 263.28 32.9811 255 32.9811C246.72 32.9811 239.978 26.1932 239.978 17.8572C239.978 9.52132 246.72 2.73337 255 2.73337ZM255 0.0644531C245.235 0.0644531 237.327 8.02673 237.327 17.8572C237.327 27.6878 245.235 35.65 255 35.65C264.764 35.65 272.673 27.6878 272.673 17.8572C272.673 8.02673 264.764 0.0644531 255 0.0644531Z" fill="#969696"/>
<path d="M284.671 2.73337C292.951 2.73337 299.693 9.52132 299.693 17.8572C299.693 26.1932 292.951 32.9811 284.671 32.9811C276.391 32.9811 269.649 26.1932 269.649 17.8572C269.649 9.52132 276.391 2.73337 284.671 2.73337ZM284.671 0.0644531C274.906 0.0644531 266.998 8.02673 266.998 17.8572C266.998 27.6878 274.906 35.65 284.671 35.65C294.435 35.65 302.344 27.6878 302.344 17.8572C302.344 8.02673 294.426 0.0644531 284.671 0.0644531Z" fill="#969696"/>
<path d="M314.332 2.73337C322.612 2.73337 329.354 9.52132 329.354 17.8572C329.354 26.1932 322.612 32.9811 314.332 32.9811C306.052 32.9811 299.309 26.1932 299.309 17.8572C299.309 9.52132 306.052 2.73337 314.332 2.73337ZM314.332 0.0644531C304.567 0.0644531 296.658 8.02673 296.658 17.8572C296.658 27.6878 304.567 35.65 314.332 35.65C324.096 35.65 332.005 27.6878 332.005 17.8572C332.005 8.02673 324.096 0.0644531 314.332 0.0644531Z" fill="#969696"/>
<path d="M344.002 2.73337C352.282 2.73337 359.025 9.52132 359.025 17.8572C359.025 26.1932 352.282 32.9811 344.002 32.9811C335.722 32.9811 328.98 26.1932 328.98 17.8572C328.98 9.52132 335.722 2.73337 344.002 2.73337ZM344.002 0.0644531C334.238 0.0644531 326.329 8.02673 326.329 17.8572C326.329 27.6878 334.238 35.65 344.002 35.65C353.767 35.65 361.676 27.6878 361.676 17.8572C361.676 8.02673 353.758 0.0644531 344.002 0.0644531Z" fill="#969696"/>
<path d="M373.664 2.73337C381.943 2.73337 388.686 9.52132 388.686 17.8572C388.686 26.1932 381.943 32.9811 373.664 32.9811C365.384 32.9811 358.641 26.1932 358.641 17.8572C358.641 9.52132 365.384 2.73337 373.664 2.73337ZM373.664 0.0644531C363.899 0.0644531 355.99 8.02673 355.99 17.8572C355.99 27.6878 363.899 35.65 373.664 35.65C383.428 35.65 391.337 27.6878 391.337 17.8572C391.337 8.02673 383.428 0.0644531 373.664 0.0644531Z" fill="#969696"/>
<path d="M403.334 2.73337C411.614 2.73337 418.356 9.52132 418.356 17.8572C418.356 26.1932 411.614 32.9811 403.334 32.9811C395.054 32.9811 388.312 26.1932 388.312 17.8572C388.312 9.52132 395.054 2.73337 403.334 2.73337ZM403.334 0.0644531C393.57 0.0644531 385.661 8.02673 385.661 17.8572C385.661 27.6878 393.57 35.65 403.334 35.65C413.099 35.65 421.007 27.6878 421.007 17.8572C421.007 8.02673 413.09 0.0644531 403.334 0.0644531Z" fill="#969696"/>
<path d="M432.995 2.73337C441.275 2.73337 448.017 9.52132 448.017 17.8572C448.017 26.1932 441.275 32.9811 432.995 32.9811C424.715 32.9811 417.973 26.1932 417.973 17.8572C417.973 9.52132 424.715 2.73337 432.995 2.73337ZM432.995 0.0644531C423.231 0.0644531 415.322 8.02673 415.322 17.8572C415.322 27.6878 423.231 35.65 432.995 35.65C442.76 35.65 450.668 27.6878 450.668 17.8572C450.668 8.02673 442.76 0.0644531 432.995 0.0644531Z" fill="#969696"/>
<path d="M462.666 2.73337C470.946 2.73337 477.688 9.52132 477.688 17.8572C477.688 26.1932 470.946 32.9811 462.666 32.9811C454.386 32.9811 447.644 26.1932 447.644 17.8572C447.644 9.52132 454.386 2.73337 462.666 2.73337ZM462.666 0.0644531C452.901 0.0644531 444.993 8.02673 444.993 17.8572C444.993 27.6878 452.901 35.65 462.666 35.65C472.43 35.65 480.339 27.6878 480.339 17.8572C480.339 8.02673 472.422 0.0644531 462.666 0.0644531Z" fill="#969696"/>
<path d="M492.327 2.73337C500.607 2.73337 507.349 9.52132 507.349 17.8572C507.349 26.1932 500.607 32.9811 492.327 32.9811C484.047 32.9811 477.305 26.1932 477.305 17.8572C477.305 9.52132 484.047 2.73337 492.327 2.73337ZM492.327 0.0644531C482.562 0.0644531 474.654 8.02673 474.654 17.8572C474.654 27.6878 482.562 35.65 492.327 35.65C502.091 35.65 510 27.6878 510 17.8572C510 8.02673 502.091 0.0644531 492.327 0.0644531Z" fill="#969696"/>
<path d="M492.327 32.1064C500.607 32.1064 507.349 38.8944 507.349 47.2303C507.349 55.5662 500.607 62.3542 492.327 62.3542C484.047 62.3542 477.305 55.5662 477.305 47.2303C477.305 38.8944 484.047 32.1064 492.327 32.1064ZM492.327 29.4375C482.562 29.4375 474.654 37.3998 474.654 47.2303C474.654 57.0608 482.562 65.0231 492.327 65.0231C502.091 65.0231 510 57.0608 510 47.2303C510 37.3998 502.091 29.4375 492.327 29.4375Z" fill="#969696"/>
<path d="M492.327 61.4804C500.607 61.4804 507.349 68.2684 507.349 76.6043C507.349 84.9402 500.607 91.7282 492.327 91.7282C484.047 91.7282 477.305 84.9402 477.305 76.6043C477.305 68.2684 484.047 61.4804 492.327 61.4804ZM492.327 58.8115C482.562 58.8115 474.654 66.7738 474.654 76.6043C474.654 86.4348 482.562 94.3971 492.327 94.3971C502.091 94.3971 510 86.4348 510 76.6043C510 66.7738 502.091 58.8115 492.327 58.8115Z" fill="#969696"/>
<path d="M492.327 90.8535C500.607 90.8535 507.349 97.6414 507.349 105.977C507.349 114.313 500.607 121.101 492.327 121.101C484.047 121.101 477.305 114.313 477.305 105.977C477.305 97.6414 484.047 90.8535 492.327 90.8535ZM492.327 88.1846C482.562 88.1846 474.654 96.1468 474.654 105.977C474.654 115.808 482.562 123.77 492.327 123.77C502.091 123.77 510 115.808 510 105.977C510 96.1468 502.091 88.1846 492.327 88.1846Z" fill="#969696"/>
<path d="M492.327 120.227C500.607 120.227 507.349 127.014 507.349 135.35C507.349 143.686 500.607 150.474 492.327 150.474C484.047 150.474 477.305 143.686 477.305 135.35C477.305 127.014 484.047 120.227 492.327 120.227ZM492.327 117.558C482.562 117.558 474.654 125.52 474.654 135.35C474.654 145.181 482.562 153.143 492.327 153.143C502.091 153.143 510 145.181 510 135.35C510 125.52 502.091 117.558 492.327 117.558Z" fill="#969696"/>
<path d="M492.327 149.591C500.607 149.591 507.349 156.379 507.349 164.715C507.349 173.051 500.607 179.839 492.327 179.839C484.047 179.839 477.305 173.051 477.305 164.715C477.305 156.379 484.047 149.591 492.327 149.591ZM492.327 146.922C482.562 146.922 474.654 154.884 474.654 164.715C474.654 174.545 482.562 182.507 492.327 182.507C502.091 182.507 510 174.545 510 164.715C510 154.884 502.091 146.922 492.327 146.922Z" fill="#969696"/>
<path d="M492.327 178.964C500.607 178.964 507.349 185.752 507.349 194.088C507.349 202.424 500.607 209.212 492.327 209.212C484.047 209.212 477.305 202.424 477.305 194.088C477.305 185.752 484.047 178.964 492.327 178.964ZM492.327 176.295C482.562 176.295 474.654 184.257 474.654 194.088C474.654 203.918 482.562 211.88 492.327 211.88C502.091 211.88 510 203.918 510 194.088C510 184.257 502.091 176.295 492.327 176.295Z" fill="#969696"/>
<path d="M492.327 208.336C500.607 208.336 507.349 215.124 507.349 223.46C507.349 231.796 500.607 238.584 492.327 238.584C484.047 238.584 477.305 231.796 477.305 223.46C477.305 215.124 484.047 208.336 492.327 208.336ZM492.327 205.667C482.562 205.667 474.654 213.629 474.654 223.46C474.654 233.29 482.562 241.253 492.327 241.253C502.091 241.253 510 233.29 510 223.46C510 213.629 502.091 205.667 492.327 205.667Z" fill="#969696"/>
<path d="M492.327 237.71C500.607 237.71 507.349 244.498 507.349 252.834C507.349 261.17 500.607 267.958 492.327 267.958C484.047 267.958 477.305 261.17 477.305 252.834C477.305 244.498 484.047 237.71 492.327 237.71ZM492.327 235.041C482.562 235.041 474.654 243.003 474.654 252.834C474.654 262.664 482.562 270.627 492.327 270.627C502.091 270.627 510 262.664 510 252.834C510 243.003 502.091 235.041 492.327 235.041Z" fill="#969696"/>
<path d="M492.327 267.083C500.607 267.083 507.349 273.871 507.349 282.207C507.349 290.543 500.607 297.331 492.327 297.331C484.047 297.331 477.305 290.543 477.305 282.207C477.305 273.871 484.047 267.083 492.327 267.083ZM492.327 264.414C482.562 264.414 474.654 272.376 474.654 282.207C474.654 292.037 482.562 300 492.327 300C502.091 300 510 292.037 510 282.207C510 272.376 502.091 264.414 492.327 264.414Z" fill="#969696"/>
<path d="M462.666 267.083C470.946 267.083 477.688 273.871 477.688 282.207C477.688 290.543 470.946 297.331 462.666 297.331C454.386 297.331 447.644 290.543 447.644 282.207C447.644 273.871 454.386 267.083 462.666 267.083ZM462.666 264.414C452.901 264.414 444.993 272.376 444.993 282.207C444.993 292.037 452.901 300 462.666 300C472.43 300 480.339 292.037 480.339 282.207C480.339 272.376 472.43 264.414 462.666 264.414Z" fill="#969696"/>
<path d="M432.995 267.083C441.275 267.083 448.017 273.871 448.017 282.207C448.017 290.543 441.275 297.331 432.995 297.331C424.715 297.331 417.973 290.543 417.973 282.207C417.973 273.871 424.715 267.083 432.995 267.083ZM432.995 264.414C423.231 264.414 415.322 272.376 415.322 282.207C415.322 292.037 423.231 300 432.995 300C442.76 300 450.668 292.037 450.668 282.207C450.668 272.376 442.76 264.414 432.995 264.414Z" fill="#969696"/>
<path d="M403.334 267.083C411.614 267.083 418.356 273.871 418.356 282.207C418.356 290.543 411.614 297.331 403.334 297.331C395.054 297.331 388.312 290.543 388.312 282.207C388.312 273.871 395.054 267.083 403.334 267.083ZM403.334 264.414C393.57 264.414 385.661 272.376 385.661 282.207C385.661 292.037 393.57 300 403.334 300C413.099 300 421.007 292.037 421.007 282.207C421.007 272.376 413.099 264.414 403.334 264.414Z" fill="#969696"/>
<path d="M373.664 267.083C381.943 267.083 388.686 273.871 388.686 282.207C388.686 290.543 381.943 297.331 373.664 297.331C365.384 297.331 358.641 290.543 358.641 282.207C358.641 273.871 365.384 267.083 373.664 267.083ZM373.664 264.414C363.899 264.414 355.99 272.376 355.99 282.207C355.99 292.037 363.899 300 373.664 300C383.428 300 391.337 292.037 391.337 282.207C391.337 272.376 383.428 264.414 373.664 264.414Z" fill="#969696"/>
<path d="M344.002 267.083C352.282 267.083 359.025 273.871 359.025 282.207C359.025 290.543 352.282 297.331 344.002 297.331C335.722 297.331 328.98 290.543 328.98 282.207C328.98 273.871 335.722 267.083 344.002 267.083ZM344.002 264.414C334.238 264.414 326.329 272.376 326.329 282.207C326.329 292.037 334.238 300 344.002 300C353.767 300 361.676 292.037 361.676 282.207C361.676 272.376 353.767 264.414 344.002 264.414Z" fill="#969696"/>
<path d="M314.332 267.083C322.612 267.083 329.354 273.871 329.354 282.207C329.354 290.543 322.612 297.331 314.332 297.331C306.052 297.331 299.309 290.543 299.309 282.207C299.309 273.871 306.052 267.083 314.332 267.083ZM314.332 264.414C304.567 264.414 296.658 272.376 296.658 282.207C296.658 292.037 304.567 300 314.332 300C324.096 300 332.005 292.037 332.005 282.207C332.005 272.376 324.096 264.414 314.332 264.414Z" fill="#969696"/>
<path d="M284.671 267.083C292.951 267.083 299.693 273.871 299.693 282.207C299.693 290.543 292.951 297.331 284.671 297.331C276.391 297.331 269.649 290.543 269.649 282.207C269.649 273.871 276.391 267.083 284.671 267.083ZM284.671 264.414C274.906 264.414 266.998 272.376 266.998 282.207C266.998 292.037 274.906 300 284.671 300C294.435 300 302.344 292.037 302.344 282.207C302.344 272.376 294.435 264.414 284.671 264.414Z" fill="#969696"/>
<path d="M255 267.083C263.28 267.083 270.022 273.871 270.022 282.207C270.022 290.543 263.28 297.331 255 297.331C246.72 297.331 239.978 290.543 239.978 282.207C239.978 273.871 246.72 267.083 255 267.083ZM255 264.414C245.235 264.414 237.327 272.376 237.327 282.207C237.327 292.037 245.235 300 255 300C264.764 300 272.673 292.037 272.673 282.207C272.673 272.376 264.764 264.414 255 264.414Z" fill="#969696"/>
<path d="M225.339 267.083C233.619 267.083 240.361 273.871 240.361 282.207C240.361 290.543 233.619 297.331 225.339 297.331C217.059 297.331 210.317 290.543 210.317 282.207C210.317 273.871 217.059 267.083 225.339 267.083ZM225.339 264.414C215.575 264.414 207.666 272.376 207.666 282.207C207.666 292.037 215.575 300 225.339 300C235.104 300 243.012 292.037 243.012 282.207C243.012 272.376 235.104 264.414 225.339 264.414Z" fill="#969696"/>
<path d="M195.668 267.083C203.948 267.083 210.691 273.871 210.691 282.207C210.691 290.543 203.948 297.331 195.668 297.331C187.388 297.331 180.646 290.543 180.646 282.207C180.646 273.871 187.388 267.083 195.668 267.083ZM195.668 264.414C185.904 264.414 177.995 272.376 177.995 282.207C177.995 292.037 185.904 300 195.668 300C205.433 300 213.342 292.037 213.342 282.207C213.342 272.376 205.433 264.414 195.668 264.414Z" fill="#969696"/>
<path d="M166.007 267.083C174.287 267.083 181.03 273.871 181.03 282.207C181.03 290.543 174.287 297.331 166.007 297.331C157.728 297.331 150.985 290.543 150.985 282.207C150.985 273.871 157.728 267.083 166.007 267.083ZM166.007 264.414C156.243 264.414 148.334 272.376 148.334 282.207C148.334 292.037 156.243 300 166.007 300C175.772 300 183.681 292.037 183.681 282.207C183.681 272.376 175.772 264.414 166.007 264.414Z" fill="#969696"/>
<path d="M136.337 267.083C144.617 267.083 151.359 273.871 151.359 282.207C151.359 290.543 144.617 297.331 136.337 297.331C128.057 297.331 121.314 290.543 121.314 282.207C121.314 273.871 128.057 267.083 136.337 267.083ZM136.337 264.414C126.572 264.414 118.663 272.376 118.663 282.207C118.663 292.037 126.572 300 136.337 300C146.101 300 154.01 292.037 154.01 282.207C154.01 272.376 146.101 264.414 136.337 264.414Z" fill="#969696"/>
<path d="M106.676 267.083C114.956 267.083 121.698 273.871 121.698 282.207C121.698 290.543 114.956 297.331 106.676 297.331C98.3958 297.331 91.6534 290.543 91.6534 282.207C91.6534 273.871 98.3958 267.083 106.676 267.083ZM106.676 264.414C96.9112 264.414 89.0024 272.376 89.0024 282.207C89.0024 292.037 96.9112 300 106.676 300C116.44 300 124.349 292.037 124.349 282.207C124.349 272.376 116.44 264.414 106.676 264.414Z" fill="#969696"/>
<path d="M77.0051 267.083C85.285 267.083 92.0273 273.871 92.0273 282.207C92.0273 290.543 85.285 297.331 77.0051 297.331C68.7251 297.331 61.9828 290.543 61.9828 282.207C61.9828 273.871 68.7251 267.083 77.0051 267.083ZM77.0051 264.414C67.2406 264.414 59.3318 272.376 59.3318 282.207C59.3318 292.037 67.2406 300 77.0051 300C86.7695 300 94.6783 292.037 94.6783 282.207C94.6783 272.376 86.7695 264.414 77.0051 264.414Z" fill="#969696"/>
<path d="M47.3439 267.083C55.6238 267.083 62.3662 273.871 62.3662 282.207C62.3662 290.543 55.6238 297.331 47.3439 297.331C39.064 297.331 32.3216 290.543 32.3216 282.207C32.3216 273.871 39.064 267.083 47.3439 267.083ZM47.3439 264.414C37.5794 264.414 29.6707 272.376 29.6707 282.207C29.6707 292.037 37.5794 300 47.3439 300C57.1084 300 65.0172 292.037 65.0172 282.207C65.0172 272.376 57.1084 264.414 47.3439 264.414Z" fill="#969696"/>
<path d="M17.6733 267.083C25.9532 267.083 32.6955 273.871 32.6955 282.207C32.6955 290.543 25.9532 297.331 17.6733 297.331C9.39334 297.331 2.65099 290.543 2.65099 282.207C2.65099 273.871 9.39334 267.083 17.6733 267.083ZM17.6733 264.414C7.90879 264.414 0 272.376 0 282.207C0 292.037 7.90879 300 17.6733 300C27.4377 300 35.3465 292.037 35.3465 282.207C35.3465 272.376 27.4377 264.414 17.6733 264.414Z" fill="#969696"/>
</g>
<defs>
<clipPath id="clip0_201_4">
<rect y="0.0644531" width="510" height="300" rx="20" fill="white"/>
</clipPath>
</defs>
</svg>
