<svg width="540" height="196" viewBox="0 0 540 196" fill="none" xmlns="http://www.w3.org/2000/svg">
<path d="M43.6293 44.519V59.0645H40.5895V47.019H34.7088V59.0645H31.669V44.519H43.6293ZM46.5004 63.1554V48.1554H49.4833V49.9877H49.6183C49.7508 49.6942 49.9426 49.3959 50.1935 49.0929C50.4492 48.7851 50.7807 48.5294 51.1879 48.3258C51.5998 48.1175 52.1112 48.0133 52.7219 48.0133C53.5174 48.0133 54.2513 48.2217 54.9237 48.6383C55.596 49.0502 56.1334 49.6729 56.5359 50.5062C56.9383 51.3348 57.1396 52.3741 57.1396 53.6241C57.1396 54.841 56.9431 55.8684 56.5501 56.7065C56.1618 57.5398 55.6315 58.1719 54.9592 58.6028C54.2915 59.0289 53.5434 59.242 52.7148 59.242C52.1277 59.242 51.6282 59.1449 51.2163 58.9508C50.8091 58.7567 50.4753 58.5128 50.2148 58.2193C49.9544 57.921 49.7556 57.6203 49.6183 57.3173H49.5259V63.1554H46.5004ZM49.462 53.6099C49.462 54.2586 49.552 54.8244 49.7319 55.3074C49.9118 55.7903 50.1722 56.1667 50.5131 56.4366C50.854 56.7018 51.2683 56.8343 51.756 56.8343C52.2485 56.8343 52.6651 56.6994 53.006 56.4295C53.3469 56.1549 53.605 55.7761 53.7802 55.2931C53.9601 54.8055 54.0501 54.2444 54.0501 53.6099C54.0501 52.9802 53.9625 52.4262 53.7873 51.948C53.6121 51.4698 53.354 51.0957 53.0131 50.8258C52.6722 50.5559 52.2532 50.421 51.756 50.421C51.2636 50.421 50.8469 50.5512 50.506 50.8116C50.1699 51.072 49.9118 51.4413 49.7319 51.9196C49.552 52.3978 49.462 52.9612 49.462 53.6099ZM64.0856 59.2775C62.9824 59.2775 62.0283 59.0431 61.2234 58.5744C60.4232 58.1009 59.8053 57.4428 59.3697 56.6C58.9341 55.7524 58.7163 54.7699 58.7163 53.6525C58.7163 52.5256 58.9341 51.5408 59.3697 50.698C59.8053 49.8504 60.4232 49.1923 61.2234 48.7235C62.0283 48.2501 62.9824 48.0133 64.0856 48.0133C65.1888 48.0133 66.1405 48.2501 66.9407 48.7235C67.7456 49.1923 68.3659 49.8504 68.8015 50.698C69.2371 51.5408 69.4549 52.5256 69.4549 53.6525C69.4549 54.7699 69.2371 55.7524 68.8015 56.6C68.3659 57.4428 67.7456 58.1009 66.9407 58.5744C66.1405 59.0431 65.1888 59.2775 64.0856 59.2775ZM64.0998 56.9338C64.6017 56.9338 65.0207 56.7917 65.3569 56.5076C65.6931 56.2188 65.9464 55.8258 66.1168 55.3287C66.292 54.8315 66.3796 54.2657 66.3796 53.6312C66.3796 52.9967 66.292 52.4309 66.1168 51.9338C65.9464 51.4366 65.6931 51.0436 65.3569 50.7548C65.0207 50.466 64.6017 50.3216 64.0998 50.3216C63.5932 50.3216 63.167 50.466 62.8214 50.7548C62.4805 51.0436 62.2224 51.4366 62.0472 51.9338C61.8768 52.4309 61.7915 52.9967 61.7915 53.6312C61.7915 54.2657 61.8768 54.8315 62.0472 55.3287C62.2224 55.8258 62.4805 56.2188 62.8214 56.5076C63.167 56.7917 63.5932 56.9338 64.0998 56.9338ZM76.3512 59.2775C75.2338 59.2775 74.2726 59.0408 73.4677 58.5673C72.6675 58.0891 72.052 57.4262 71.6211 56.5787C71.195 55.7311 70.9819 54.7557 70.9819 53.6525C70.9819 52.5351 71.1973 51.555 71.6282 50.7122C72.0638 49.8646 72.6817 49.2041 73.4819 48.7306C74.2821 48.2524 75.2338 48.0133 76.337 48.0133C77.2887 48.0133 78.122 48.1861 78.837 48.5318C79.552 48.8774 80.1178 49.3627 80.5344 49.9877C80.9511 50.6127 81.1808 51.3466 81.2234 52.1895H78.3683C78.2878 51.6449 78.0747 51.207 77.729 50.8755C77.3881 50.5394 76.9407 50.3713 76.3867 50.3713C75.918 50.3713 75.5084 50.4991 75.158 50.7548C74.8124 51.0057 74.5425 51.3727 74.3484 51.8556C74.1542 52.3386 74.0572 52.9234 74.0572 53.6099C74.0572 54.3059 74.1519 54.8978 74.3413 55.3855C74.5354 55.8732 74.8076 56.2449 75.158 56.5005C75.5084 56.7562 75.918 56.8841 76.3867 56.8841C76.7324 56.8841 77.0425 56.813 77.3171 56.671C77.5965 56.5289 77.8261 56.323 78.006 56.0531C78.1907 55.7785 78.3114 55.4494 78.3683 55.0659H81.2234C81.176 55.8992 80.9487 56.6331 80.5415 57.2676C80.1391 57.8973 79.5827 58.3897 78.8725 58.7449C78.1623 59.1 77.3219 59.2775 76.3512 59.2775ZM82.4165 50.5346V48.1554H92.3029V50.5346H88.7873V59.0645H85.9038V50.5346H82.4165ZM98.6754 59.2775C97.5722 59.2775 96.6181 59.0431 95.8132 58.5744C95.013 58.1009 94.3951 57.4428 93.9595 56.6C93.5239 55.7524 93.3061 54.7699 93.3061 53.6525C93.3061 52.5256 93.5239 51.5408 93.9595 50.698C94.3951 49.8504 95.013 49.1923 95.8132 48.7235C96.6181 48.2501 97.5722 48.0133 98.6754 48.0133C99.7786 48.0133 100.73 48.2501 101.531 48.7235C102.335 49.1923 102.956 49.8504 103.391 50.698C103.827 51.5408 104.045 52.5256 104.045 53.6525C104.045 54.7699 103.827 55.7524 103.391 56.6C102.956 57.4428 102.335 58.1009 101.531 58.5744C100.73 59.0431 99.7786 59.2775 98.6754 59.2775ZM98.6896 56.9338C99.1915 56.9338 99.6106 56.7917 99.9467 56.5076C100.283 56.2188 100.536 55.8258 100.707 55.3287C100.882 54.8315 100.969 54.2657 100.969 53.6312C100.969 52.9967 100.882 52.4309 100.707 51.9338C100.536 51.4366 100.283 51.0436 99.9467 50.7548C99.6106 50.466 99.1915 50.3216 98.6896 50.3216C98.183 50.3216 97.7569 50.466 97.4112 50.7548C97.0703 51.0436 96.8123 51.4366 96.6371 51.9338C96.4666 52.4309 96.3814 52.9967 96.3814 53.6312C96.3814 54.2657 96.4666 54.8315 96.6371 55.3287C96.8123 55.8258 97.0703 56.2188 97.4112 56.5076C97.7569 56.7917 98.183 56.9338 98.6896 56.9338ZM104.956 50.5346V48.1554H114.842V50.5346H111.326V59.0645H108.443V50.5346H104.956ZM119.396 59.2704C118.7 59.2704 118.08 59.1497 117.536 58.9082C116.991 58.662 116.56 58.2998 116.243 57.8216C115.93 57.3386 115.774 56.7373 115.774 56.0176C115.774 55.4115 115.885 54.9025 116.108 54.4906C116.33 54.0787 116.634 53.7472 117.017 53.4963C117.401 53.2453 117.836 53.0559 118.324 52.9281C118.816 52.8002 119.332 52.7103 119.872 52.6582C120.507 52.5919 121.018 52.5304 121.406 52.4735C121.795 52.412 122.076 52.322 122.251 52.2037C122.427 52.0853 122.514 51.9101 122.514 51.6781V51.6355C122.514 51.1857 122.372 50.8377 122.088 50.5914C121.809 50.3452 121.411 50.2221 120.895 50.2221C120.35 50.2221 119.917 50.3429 119.595 50.5843C119.273 50.8211 119.06 51.1194 118.956 51.4792L116.158 51.252C116.3 50.5891 116.579 50.0162 116.996 49.5332C117.412 49.0455 117.95 48.6715 118.608 48.411C119.271 48.1459 120.038 48.0133 120.909 48.0133C121.515 48.0133 122.095 48.0843 122.649 48.2264C123.208 48.3684 123.703 48.5886 124.134 48.8869C124.569 49.1852 124.912 49.5687 125.163 50.0375C125.414 50.5015 125.54 51.0578 125.54 51.7065V59.0645H122.67V57.5517H122.585C122.41 57.8926 122.176 58.1932 121.882 58.4537C121.589 58.7093 121.236 58.9106 120.824 59.0574C120.412 59.1994 119.936 59.2704 119.396 59.2704ZM120.263 57.1824C120.708 57.1824 121.101 57.0948 121.442 56.9196C121.783 56.7396 122.05 56.4982 122.244 56.1951C122.438 55.8921 122.536 55.5488 122.536 55.1653V54.0076C122.441 54.0692 122.311 54.126 122.145 54.1781C121.984 54.2254 121.802 54.2704 121.598 54.313C121.394 54.3509 121.191 54.3864 120.987 54.4196C120.784 54.448 120.599 54.474 120.433 54.4977C120.078 54.5498 119.768 54.6326 119.503 54.7463C119.238 54.8599 119.032 55.0138 118.885 55.2079C118.738 55.3973 118.665 55.6341 118.665 55.9181C118.665 56.3301 118.814 56.6449 119.112 56.8627C119.415 57.0758 119.799 57.1824 120.263 57.1824Z" fill="black"/>
<path d="M38.8494 108.883V119.064H37.6165V109.976H32.4858V119.064H31.2528V108.883H38.8494ZM44.2797 119.224C43.5903 119.224 42.9854 119.059 42.465 118.731C41.948 118.403 41.5436 117.944 41.252 117.354C40.9636 116.764 40.8194 116.075 40.8194 115.286C40.8194 114.491 40.9636 113.796 41.252 113.203C41.5436 112.61 41.948 112.149 42.465 111.821C42.9854 111.493 43.5903 111.329 44.2797 111.329C44.969 111.329 45.5723 111.493 46.0893 111.821C46.6097 112.149 47.014 112.61 47.3024 113.203C47.594 113.796 47.7399 114.491 47.7399 115.286C47.7399 116.075 47.594 116.764 47.3024 117.354C47.014 117.944 46.6097 118.403 46.0893 118.731C45.5723 119.059 44.969 119.224 44.2797 119.224ZM44.2797 118.17C44.8033 118.17 45.2342 118.035 45.5723 117.767C45.9103 117.498 46.1606 117.145 46.323 116.708C46.4854 116.27 46.5666 115.796 46.5666 115.286C46.5666 114.776 46.4854 114.3 46.323 113.859C46.1606 113.418 45.9103 113.062 45.5723 112.79C45.2342 112.519 44.8033 112.383 44.2797 112.383C43.756 112.383 43.3251 112.519 42.987 112.79C42.649 113.062 42.3987 113.418 42.2363 113.859C42.0739 114.3 41.9927 114.776 41.9927 115.286C41.9927 115.796 42.0739 116.27 42.2363 116.708C42.3987 117.145 42.649 117.498 42.987 117.767C43.3251 118.035 43.756 118.17 44.2797 118.17ZM52.6332 119.224C51.9173 119.224 51.3008 119.055 50.7837 118.716C50.2667 118.378 49.869 117.913 49.5906 117.319C49.3121 116.726 49.1729 116.048 49.1729 115.286C49.1729 114.51 49.3155 113.826 49.6005 113.233C49.8888 112.636 50.2899 112.171 50.8036 111.836C51.3207 111.498 51.9239 111.329 52.6133 111.329C53.1502 111.329 53.6341 111.428 54.065 111.627C54.4959 111.826 54.8488 112.104 55.1239 112.462C55.399 112.82 55.5697 113.238 55.636 113.715H54.4627C54.3732 113.367 54.1744 113.059 53.8661 112.79C53.5612 112.519 53.1502 112.383 52.6332 112.383C52.1758 112.383 51.7747 112.502 51.43 112.741C51.0887 112.976 50.8219 113.309 50.6296 113.74C50.4407 114.167 50.3462 114.67 50.3462 115.246C50.3462 115.836 50.439 116.35 50.6246 116.787C50.8136 117.225 51.0787 117.565 51.4201 117.807C51.7648 118.049 52.1692 118.17 52.6332 118.17C52.9381 118.17 53.2148 118.117 53.4634 118.01C53.712 117.904 53.9225 117.752 54.0948 117.553C54.2672 117.354 54.3898 117.116 54.4627 116.837H55.636C55.5697 117.288 55.4057 117.694 55.1438 118.055C54.8853 118.413 54.5423 118.698 54.1147 118.91C53.6905 119.119 53.1966 119.224 52.6332 119.224ZM60.4535 119.224C59.7641 119.224 59.1592 119.059 58.6388 118.731C58.1218 118.403 57.7174 117.944 57.4258 117.354C57.1374 116.764 56.9933 116.075 56.9933 115.286C56.9933 114.491 57.1374 113.796 57.4258 113.203C57.7174 112.61 58.1218 112.149 58.6388 111.821C59.1592 111.493 59.7641 111.329 60.4535 111.329C61.1429 111.329 61.7461 111.493 62.2631 111.821C62.7835 112.149 63.1879 112.61 63.4762 113.203C63.7679 113.796 63.9137 114.491 63.9137 115.286C63.9137 116.075 63.7679 116.764 63.4762 117.354C63.1879 117.944 62.7835 118.403 62.2631 118.731C61.7461 119.059 61.1429 119.224 60.4535 119.224ZM60.4535 118.17C60.9772 118.17 61.408 118.035 61.7461 117.767C62.0842 117.498 62.3344 117.145 62.4968 116.708C62.6592 116.27 62.7404 115.796 62.7404 115.286C62.7404 114.776 62.6592 114.3 62.4968 113.859C62.3344 113.418 62.0842 113.062 61.7461 112.79C61.408 112.519 60.9772 112.383 60.4535 112.383C59.9298 112.383 59.4989 112.519 59.1609 112.79C58.8228 113.062 58.5726 113.418 58.4102 113.859C58.2478 114.3 58.1665 114.776 58.1665 115.286C58.1665 115.796 58.2478 116.27 58.4102 116.708C58.5726 117.145 58.8228 117.498 59.1609 117.767C59.4989 118.035 59.9298 118.17 60.4535 118.17ZM70.4178 111.428V112.522H66.878V119.064H65.7047V111.428H70.4178ZM73.9812 119.243C73.4973 119.243 73.0581 119.152 72.6637 118.97C72.2693 118.784 71.9561 118.518 71.7241 118.17C71.4921 117.818 71.3761 117.394 71.3761 116.897C71.3761 116.459 71.4622 116.105 71.6346 115.833C71.8069 115.558 72.0373 115.342 72.3256 115.187C72.614 115.031 72.9322 114.915 73.2802 114.839C73.6315 114.759 73.9845 114.696 74.3391 114.65C74.8031 114.59 75.1793 114.545 75.4677 114.515C75.7594 114.482 75.9715 114.428 76.104 114.351C76.2399 114.275 76.3079 114.143 76.3079 113.954V113.914C76.3079 113.423 76.1737 113.042 75.9052 112.77C75.64 112.499 75.2373 112.363 74.6971 112.363C74.137 112.363 73.6978 112.485 73.3796 112.731C73.0614 112.976 72.8377 113.238 72.7085 113.516L71.5948 113.118C71.7937 112.654 72.0588 112.293 72.3903 112.035C72.725 111.773 73.0896 111.59 73.484 111.488C73.8817 111.382 74.2728 111.329 74.6573 111.329C74.9026 111.329 75.1843 111.358 75.5025 111.418C75.824 111.474 76.1339 111.592 76.4322 111.771C76.7338 111.95 76.984 112.22 77.1829 112.581C77.3817 112.943 77.4812 113.427 77.4812 114.033V119.064H76.3079V118.03H76.2482C76.1687 118.196 76.0361 118.373 75.8505 118.562C75.6649 118.751 75.418 118.912 75.1097 119.045C74.8015 119.177 74.4253 119.243 73.9812 119.243ZM74.1602 118.189C74.6242 118.189 75.0153 118.098 75.3335 117.916C75.6549 117.734 75.8969 117.498 76.0593 117.21C76.225 116.922 76.3079 116.618 76.3079 116.3V115.226C76.2582 115.286 76.1488 115.341 75.9798 115.39C75.814 115.437 75.6218 115.478 75.4031 115.515C75.1876 115.548 74.9772 115.578 74.7717 115.604C74.5695 115.627 74.4054 115.647 74.2795 115.664C73.9746 115.704 73.6895 115.768 73.4244 115.858C73.1625 115.944 72.9504 116.075 72.788 116.251C72.6289 116.423 72.5494 116.658 72.5494 116.956C72.5494 117.364 72.7002 117.672 73.0018 117.881C73.3067 118.087 73.6928 118.189 74.1602 118.189ZM82.8244 119.224C82.0886 119.224 81.4539 119.061 80.9203 118.736C80.39 118.408 79.9806 117.951 79.6923 117.364C79.4073 116.774 79.2647 116.088 79.2647 115.306C79.2647 114.524 79.4073 113.834 79.6923 113.238C79.9806 112.638 80.3817 112.171 80.8954 111.836C81.4125 111.498 82.0157 111.329 82.7051 111.329C83.1028 111.329 83.4956 111.395 83.8833 111.528C84.2711 111.66 84.6241 111.876 84.9423 112.174C85.2605 112.469 85.514 112.86 85.7029 113.347C85.8919 113.834 85.9863 114.434 85.9863 115.147V115.644H80.1V114.63H84.7931C84.7931 114.199 84.707 113.814 84.5346 113.476C84.3656 113.138 84.1236 112.872 83.8088 112.676C83.4972 112.48 83.1293 112.383 82.7051 112.383C82.2377 112.383 81.8334 112.499 81.492 112.731C81.1539 112.959 80.8938 113.258 80.7115 113.626C80.5292 113.993 80.438 114.388 80.438 114.809V115.485C80.438 116.062 80.5375 116.55 80.7363 116.952C80.9385 117.349 81.2186 117.653 81.5765 117.861C81.9345 118.067 82.3504 118.17 82.8244 118.17C83.1326 118.17 83.411 118.126 83.6596 118.04C83.9115 117.951 84.1286 117.818 84.3109 117.643C84.4932 117.464 84.6341 117.242 84.7335 116.976L85.867 117.295C85.7477 117.679 85.5472 118.017 85.2654 118.309C84.9837 118.597 84.6357 118.823 84.2214 118.985C83.8071 119.144 83.3414 119.224 82.8244 119.224ZM87.0602 112.522V111.428H93.2647V112.522H90.7591V119.064H89.5858V112.522H87.0602ZM31.8295 138.928C31.6307 138.928 31.4534 138.912 31.2976 138.878C31.1418 138.849 31.0341 138.819 30.9744 138.789L31.2727 137.755C31.5578 137.828 31.8097 137.854 32.0284 137.834C32.2472 137.814 32.4411 137.717 32.6101 137.541C32.7824 137.369 32.9399 137.089 33.0824 136.701L33.3011 136.104L30.4773 128.428H31.75L33.858 134.513H33.9375L36.0455 128.428H37.3182L34.0767 137.178C33.9309 137.573 33.7502 137.899 33.5348 138.157C33.3194 138.419 33.0691 138.613 32.7841 138.739C32.5024 138.865 32.1842 138.928 31.8295 138.928ZM37.4089 138.252V134.971H38.0453C38.2011 134.808 38.3353 134.633 38.448 134.444C38.5607 134.255 38.6584 134.031 38.7413 133.773C38.8275 133.511 38.9004 133.193 38.96 132.818C39.0197 132.44 39.0727 131.984 39.1191 131.451L39.3777 128.428H44.2299V134.971H45.4032V138.252H44.2299V136.064H38.5822V138.252H37.4089ZM39.3777 134.971H43.0566V129.522H40.4714L40.2725 131.451C40.1897 132.25 40.0869 132.947 39.9643 133.544C39.8417 134.14 39.6461 134.616 39.3777 134.971ZM50.1623 136.224C49.4265 136.224 48.7918 136.061 48.2582 135.736C47.7279 135.408 47.3185 134.951 47.0302 134.364C46.7451 133.774 46.6026 133.088 46.6026 132.306C46.6026 131.524 46.7451 130.834 47.0302 130.238C47.3185 129.638 47.7196 129.171 48.2333 128.836C48.7504 128.498 49.3536 128.329 50.043 128.329C50.4407 128.329 50.8335 128.395 51.2212 128.528C51.609 128.66 51.962 128.876 52.2802 129.174C52.5984 129.469 52.8519 129.86 53.0408 130.347C53.2298 130.834 53.3242 131.434 53.3242 132.147V132.644H47.4379V131.63H52.131C52.131 131.199 52.0449 130.814 51.8725 130.476C51.7035 130.138 51.4615 129.872 51.1467 129.676C50.8351 129.48 50.4672 129.383 50.043 129.383C49.5756 129.383 49.1713 129.499 48.8299 129.731C48.4918 129.959 48.2317 130.258 48.0494 130.626C47.8671 130.993 47.7759 131.388 47.7759 131.809V132.485C47.7759 133.062 47.8754 133.55 48.0742 133.952C48.2764 134.349 48.5565 134.653 48.9144 134.861C49.2724 135.067 49.6883 135.17 50.1623 135.17C50.4705 135.17 50.7489 135.126 50.9975 135.04C51.2494 134.951 51.4665 134.818 51.6488 134.643C51.8311 134.464 51.9719 134.242 52.0714 133.976L53.2049 134.295C53.0856 134.679 52.8851 135.017 52.6033 135.309C52.3216 135.597 51.9736 135.823 51.5593 135.985C51.145 136.144 50.6793 136.224 50.1623 136.224ZM55.109 138.928V128.428H56.2425V129.641H56.3817C56.4679 129.509 56.5872 129.34 56.7397 129.134C56.8955 128.925 57.1175 128.74 57.4059 128.577C57.6976 128.412 58.092 128.329 58.5891 128.329C59.2321 128.329 59.7989 128.489 60.2894 128.811C60.7799 129.132 61.1628 129.588 61.4379 130.178C61.7129 130.768 61.8505 131.464 61.8505 132.266C61.8505 133.075 61.7129 133.776 61.4379 134.369C61.1628 134.959 60.7816 135.416 60.2944 135.741C59.8072 136.063 59.2454 136.224 58.609 136.224C58.1185 136.224 57.7257 136.142 57.4308 135.98C57.1358 135.814 56.9087 135.627 56.7496 135.418C56.5906 135.206 56.4679 135.03 56.3817 134.891H56.2823V138.928H55.109ZM56.2624 132.246C56.2624 132.823 56.3469 133.332 56.516 133.773C56.685 134.21 56.9319 134.553 57.2567 134.802C57.5816 135.047 57.9793 135.17 58.4499 135.17C58.9405 135.17 59.3498 135.04 59.6779 134.782C60.0094 134.52 60.2579 134.169 60.4237 133.728C60.5927 133.284 60.6772 132.79 60.6772 132.246C60.6772 131.709 60.5943 131.225 60.4286 130.795C60.2662 130.36 60.0193 130.017 59.6879 129.765C59.3597 129.51 58.9471 129.383 58.4499 129.383C57.9727 129.383 57.5716 129.504 57.2468 129.746C56.922 129.984 56.6767 130.319 56.511 130.75C56.3453 131.177 56.2624 131.676 56.2624 132.246ZM62.8485 136.064L65.9508 132.187L62.8883 128.428H64.2804L66.8258 131.689H67.4622V128.428H68.6355V131.689H69.252L71.7974 128.428H73.1895L70.1468 132.187L73.2292 136.064H71.8173L69.2321 132.783H68.6355V136.064H67.4622V132.783H66.8656L64.2605 136.064H62.8485ZM76.0792 134.334L79.7582 128.428H81.1104V136.064H79.9371V130.158L76.2781 136.064H74.9059V128.428H76.0792V134.334ZM83.2594 136.064V128.428H86.3816C87.2035 128.428 87.8565 128.614 88.3404 128.985C88.8243 129.356 89.0662 129.847 89.0662 130.456C89.0662 130.921 88.9287 131.28 88.6536 131.535C88.3785 131.787 88.0255 131.958 87.5946 132.047C87.8764 132.087 88.1498 132.187 88.415 132.346C88.6834 132.505 88.9055 132.724 89.0811 133.002C89.2568 133.277 89.3446 133.615 89.3446 134.016C89.3446 134.407 89.2452 134.757 89.0463 135.065C88.8475 135.373 88.5624 135.617 88.1912 135.796C87.82 135.975 87.3759 136.064 86.8588 136.064H83.2594ZM84.373 134.991H86.8588C87.2632 134.991 87.5797 134.894 87.8084 134.702C88.0371 134.51 88.1515 134.248 88.1515 133.917C88.1515 133.522 88.0371 133.212 87.8084 132.987C87.5797 132.758 87.2632 132.644 86.8588 132.644H84.373V134.991ZM84.373 131.63H86.3816C86.6964 131.63 86.9666 131.587 87.1919 131.501C87.4173 131.411 87.5897 131.285 87.709 131.123C87.8316 130.957 87.8929 130.761 87.8929 130.536C87.8929 130.215 87.7587 129.963 87.4902 129.78C87.2218 129.595 86.8522 129.502 86.3816 129.502H84.373V131.63ZM93.3679 136.243C92.884 136.243 92.4448 136.152 92.0504 135.97C91.656 135.784 91.3428 135.518 91.1108 135.17C90.8788 134.818 90.7628 134.394 90.7628 133.897C90.7628 133.459 90.849 133.105 91.0213 132.833C91.1937 132.558 91.424 132.342 91.7124 132.187C92.0007 132.031 92.3189 131.915 92.6669 131.839C93.0182 131.759 93.3712 131.696 93.7259 131.65C94.1899 131.59 94.5661 131.545 94.8544 131.515C95.1461 131.482 95.3582 131.428 95.4908 131.351C95.6267 131.275 95.6946 131.143 95.6946 130.954V130.914C95.6946 130.423 95.5604 130.042 95.2919 129.77C95.0268 129.499 94.6241 129.363 94.0838 129.363C93.5237 129.363 93.0845 129.485 92.7663 129.731C92.4482 129.976 92.2244 130.238 92.0952 130.516L90.9815 130.118C91.1804 129.654 91.4455 129.293 91.777 129.035C92.1117 128.773 92.4763 128.59 92.8707 128.488C93.2685 128.382 93.6596 128.329 94.044 128.329C94.2893 128.329 94.571 128.358 94.8892 128.418C95.2107 128.474 95.5206 128.592 95.8189 128.771C96.1205 128.95 96.3707 129.22 96.5696 129.581C96.7685 129.943 96.8679 130.427 96.8679 131.033V136.064H95.6946V135.03H95.6349C95.5554 135.196 95.4228 135.373 95.2372 135.562C95.0516 135.751 94.8047 135.912 94.4964 136.045C94.1882 136.177 93.812 136.243 93.3679 136.243ZM93.5469 135.189C94.0109 135.189 94.402 135.098 94.7202 134.916C95.0417 134.734 95.2836 134.498 95.446 134.21C95.6117 133.922 95.6946 133.618 95.6946 133.3V132.226C95.6449 132.286 95.5355 132.341 95.3665 132.39C95.2008 132.437 95.0085 132.478 94.7898 132.515C94.5743 132.548 94.3639 132.578 94.1584 132.604C93.9562 132.627 93.7921 132.647 93.6662 132.664C93.3613 132.704 93.0762 132.768 92.8111 132.858C92.5492 132.944 92.3371 133.075 92.1747 133.251C92.0156 133.423 91.9361 133.658 91.9361 133.956C91.9361 134.364 92.0869 134.672 92.3885 134.881C92.6934 135.087 93.0795 135.189 93.5469 135.189ZM97.9703 129.522V128.428H104.175V129.522H101.669V136.064H100.496V129.522H97.9703ZM106.901 131.192H109.088C109.983 131.192 110.667 131.419 111.141 131.873C111.615 132.327 111.852 132.903 111.852 133.599C111.852 134.056 111.746 134.472 111.534 134.846C111.322 135.218 111.01 135.514 110.599 135.736C110.188 135.955 109.685 136.064 109.088 136.064H105.886V128.428H107.06V134.971H109.088C109.552 134.971 109.933 134.848 110.232 134.603C110.53 134.358 110.679 134.043 110.679 133.658C110.679 133.254 110.53 132.924 110.232 132.669C109.933 132.414 109.552 132.286 109.088 132.286H106.901V131.192ZM123.462 128.428V136.064H122.289V128.428H123.462ZM123.005 132.067V133.161C122.74 133.26 122.476 133.348 122.214 133.425C121.952 133.497 121.677 133.555 121.389 133.599C121.101 133.638 120.784 133.658 120.439 133.658C119.574 133.658 118.88 133.425 118.356 132.957C117.836 132.49 117.576 131.789 117.576 130.854V128.408H118.749V130.854C118.749 131.245 118.824 131.567 118.973 131.819C119.122 132.071 119.324 132.258 119.579 132.381C119.835 132.503 120.121 132.564 120.439 132.564C120.937 132.564 121.386 132.52 121.787 132.43C122.191 132.337 122.597 132.216 123.005 132.067ZM126.788 134.334L130.467 128.428H131.819V136.064H130.646V130.158L126.987 136.064H125.615V128.428H126.788V134.334ZM137.071 136.224C136.355 136.224 135.738 136.055 135.221 135.716C134.704 135.378 134.306 134.913 134.028 134.319C133.75 133.726 133.61 133.048 133.61 132.286C133.61 131.51 133.753 130.826 134.038 130.233C134.326 129.636 134.727 129.171 135.241 128.836C135.758 128.498 136.361 128.329 137.051 128.329C137.588 128.329 138.072 128.428 138.502 128.627C138.933 128.826 139.286 129.104 139.561 129.462C139.837 129.82 140.007 130.238 140.074 130.715H138.9C138.811 130.367 138.612 130.059 138.304 129.79C137.999 129.519 137.588 129.383 137.071 129.383C136.613 129.383 136.212 129.502 135.868 129.741C135.526 129.976 135.259 130.309 135.067 130.74C134.878 131.167 134.784 131.67 134.784 132.246C134.784 132.836 134.877 133.35 135.062 133.787C135.251 134.225 135.516 134.565 135.858 134.807C136.202 135.049 136.607 135.17 137.071 135.17C137.376 135.17 137.652 135.117 137.901 135.01C138.15 134.904 138.36 134.752 138.532 134.553C138.705 134.354 138.827 134.116 138.9 133.837H140.074C140.007 134.288 139.843 134.694 139.581 135.055C139.323 135.413 138.98 135.698 138.552 135.91C138.128 136.119 137.634 136.224 137.071 136.224ZM141.187 129.522V128.428H147.392V129.522H144.886V136.064H143.713V129.522H141.187ZM151.809 136.224C151.12 136.224 150.515 136.059 149.994 135.731C149.477 135.403 149.073 134.944 148.781 134.354C148.493 133.764 148.349 133.075 148.349 132.286C148.349 131.491 148.493 130.796 148.781 130.203C149.073 129.61 149.477 129.149 149.994 128.821C150.515 128.493 151.12 128.329 151.809 128.329C152.498 128.329 153.102 128.493 153.619 128.821C154.139 129.149 154.543 129.61 154.832 130.203C155.123 130.796 155.269 131.491 155.269 132.286C155.269 133.075 155.123 133.764 154.832 134.354C154.543 134.944 154.139 135.403 153.619 135.731C153.102 136.059 152.498 136.224 151.809 136.224ZM151.809 135.17C152.333 135.17 152.763 135.035 153.102 134.767C153.44 134.498 153.69 134.145 153.852 133.708C154.015 133.27 154.096 132.796 154.096 132.286C154.096 131.776 154.015 131.3 153.852 130.859C153.69 130.418 153.44 130.062 153.102 129.79C152.763 129.519 152.333 129.383 151.809 129.383C151.285 129.383 150.854 129.519 150.516 129.79C150.178 130.062 149.928 130.418 149.766 130.859C149.603 131.3 149.522 131.776 149.522 132.286C149.522 132.796 149.603 133.27 149.766 133.708C149.928 134.145 150.178 134.498 150.516 134.767C150.854 135.035 151.285 135.17 151.809 135.17ZM156.062 129.522V128.428H162.267V129.522H159.761V136.064H158.588V129.522H156.062ZM164.734 138.928C164.535 138.928 164.358 138.912 164.202 138.878C164.046 138.849 163.938 138.819 163.879 138.789L164.177 137.755C164.462 137.828 164.714 137.854 164.933 137.834C165.151 137.814 165.345 137.717 165.514 137.541C165.687 137.369 165.844 137.089 165.987 136.701L166.205 136.104L163.382 128.428H164.654L166.762 134.513H166.842L168.95 128.428H170.222L166.981 137.178C166.835 137.573 166.655 137.899 166.439 138.157C166.224 138.419 165.973 138.613 165.688 138.739C165.407 138.865 165.088 138.928 164.734 138.928ZM32.2472 151.334L35.9261 145.428H37.2784V153.064H36.1051V147.158L32.446 153.064H31.0739V145.428H32.2472V151.334ZM43.3649 153.064V145.428H49.3706V153.064H48.1973V146.522H44.5382V153.064H43.3649ZM51.5133 155.928V145.428H52.6468V146.641H52.786C52.8722 146.509 52.9915 146.34 53.144 146.134C53.2998 145.925 53.5218 145.74 53.8102 145.577C54.1019 145.412 54.4963 145.329 54.9934 145.329C55.6364 145.329 56.2032 145.489 56.6937 145.811C57.1842 146.132 57.5671 146.588 57.8422 147.178C58.1172 147.768 58.2548 148.464 58.2548 149.266C58.2548 150.075 58.1172 150.776 57.8422 151.369C57.5671 151.959 57.1859 152.416 56.6987 152.741C56.2115 153.063 55.6497 153.224 55.0133 153.224C54.5228 153.224 54.13 153.142 53.835 152.98C53.5401 152.814 53.313 152.627 53.1539 152.418C52.9949 152.206 52.8722 152.03 52.786 151.891H52.6866V155.928H51.5133ZM52.6667 149.246C52.6667 149.823 52.7512 150.332 52.9203 150.773C53.0893 151.21 53.3362 151.553 53.661 151.802C53.9859 152.047 54.3836 152.17 54.8542 152.17C55.3448 152.17 55.7541 152.04 56.0822 151.782C56.4136 151.52 56.6622 151.169 56.8279 150.728C56.997 150.284 57.0815 149.79 57.0815 149.246C57.0815 148.709 56.9986 148.225 56.8329 147.795C56.6705 147.36 56.4236 147.017 56.0922 146.765C55.764 146.51 55.3514 146.383 54.8542 146.383C54.377 146.383 53.9759 146.504 53.6511 146.746C53.3263 146.984 53.081 147.319 52.9153 147.75C52.7496 148.177 52.6667 148.676 52.6667 149.246ZM64.6383 153.064V146.502H62.6099C62.1525 146.502 61.7929 146.608 61.5311 146.82C61.2692 147.032 61.1383 147.324 61.1383 147.695C61.1383 148.06 61.256 148.346 61.4913 148.555C61.7299 148.764 62.0564 148.868 62.4707 148.868H64.9366V149.962H62.4707C61.9537 149.962 61.5079 149.871 61.1333 149.689C60.7588 149.506 60.4705 149.246 60.2683 148.908C60.0661 148.567 59.965 148.162 59.965 147.695C59.965 147.224 60.0711 146.82 60.2832 146.482C60.4953 146.144 60.7986 145.884 61.193 145.702C61.5907 145.519 62.063 145.428 62.6099 145.428H65.752V153.064H64.6383ZM59.5474 153.064L61.715 149.266H62.9877L60.8201 153.064H59.5474ZM72.082 151.474L74.7468 145.428H75.8604L72.5593 153.064H71.6048L68.3633 145.428H69.457L72.082 151.474ZM69.0792 145.428V153.064H67.9059V145.428H69.0792ZM75.0849 153.064V145.428H76.2582V153.064H75.0849ZM81.5082 153.224C80.8188 153.224 80.2139 153.059 79.6935 152.731C79.1765 152.403 78.7721 151.944 78.4805 151.354C78.1921 150.764 78.0479 150.075 78.0479 149.286C78.0479 148.491 78.1921 147.796 78.4805 147.203C78.7721 146.61 79.1765 146.149 79.6935 145.821C80.2139 145.493 80.8188 145.329 81.5082 145.329C82.1976 145.329 82.8008 145.493 83.3178 145.821C83.8382 146.149 84.2425 146.61 84.5309 147.203C84.8226 147.796 84.9684 148.491 84.9684 149.286C84.9684 150.075 84.8226 150.764 84.5309 151.354C84.2425 151.944 83.8382 152.403 83.3178 152.731C82.8008 153.059 82.1976 153.224 81.5082 153.224ZM81.5082 152.17C82.0318 152.17 82.4627 152.035 82.8008 151.767C83.1388 151.498 83.3891 151.145 83.5515 150.708C83.7139 150.27 83.7951 149.796 83.7951 149.286C83.7951 148.776 83.7139 148.3 83.5515 147.859C83.3891 147.418 83.1388 147.062 82.8008 146.79C82.4627 146.519 82.0318 146.383 81.5082 146.383C80.9845 146.383 80.5536 146.519 80.2156 146.79C79.8775 147.062 79.6272 147.418 79.4648 147.859C79.3024 148.3 79.2212 148.776 79.2212 149.286C79.2212 149.796 79.3024 150.27 79.4648 150.708C79.6272 151.145 79.8775 151.498 80.2156 151.767C80.5536 152.035 80.9845 152.17 81.5082 152.17ZM87.9327 151.334L91.6117 145.428H92.964V153.064H91.7907V147.158L88.1316 153.064H86.7594V145.428H87.9327V151.334ZM90.8361 142.883H91.9299C91.9299 143.42 91.7443 143.859 91.373 144.2C91.0018 144.541 90.498 144.712 89.8617 144.712C89.2353 144.712 88.7364 144.541 88.3652 144.2C87.9973 143.859 87.8134 143.42 87.8134 142.883H88.9071C88.9071 143.141 88.9784 143.368 89.1209 143.564C89.2667 143.759 89.5137 143.857 89.8617 143.857C90.2097 143.857 90.4583 143.759 90.6074 143.564C90.7599 143.368 90.8361 143.141 90.8361 142.883ZM99.0504 153.064V145.428H105.056V153.064H103.883V146.522H100.224V153.064H99.0504ZM107.681 155.928C107.482 155.928 107.305 155.912 107.149 155.878C106.993 155.849 106.886 155.819 106.826 155.789L107.124 154.755C107.409 154.828 107.661 154.854 107.88 154.834C108.099 154.814 108.293 154.717 108.462 154.541C108.634 154.369 108.791 154.089 108.934 153.701L109.153 153.104L106.329 145.428H107.602L109.71 151.513H109.789L111.897 145.428H113.17L109.928 154.178C109.782 154.573 109.602 154.899 109.386 155.157C109.171 155.419 108.921 155.613 108.636 155.739C108.354 155.865 108.036 155.928 107.681 155.928ZM114.281 146.522V145.428H120.485V146.522H117.98V153.064H116.806V146.522H114.281ZM123.211 148.192H125.399C126.294 148.192 126.978 148.419 127.452 148.873C127.926 149.327 128.163 149.903 128.163 150.599C128.163 151.056 128.057 151.472 127.845 151.846C127.633 152.218 127.321 152.514 126.91 152.736C126.499 152.955 125.995 153.064 125.399 153.064H122.197V145.428H123.37V151.971H125.399C125.863 151.971 126.244 151.848 126.542 151.603C126.84 151.358 126.99 151.043 126.99 150.658C126.99 150.254 126.84 149.924 126.542 149.669C126.244 149.414 125.863 149.286 125.399 149.286H123.211V148.192ZM133.886 153.064V145.428H135.06V148.749H135.835L138.58 145.428H140.091L137.009 149.107L140.131 153.064H138.619L136.114 149.843H135.06V153.064H133.886ZM151.349 145.428V151.971H152.423V155.53H151.25V153.064H145.343V145.428H146.517V151.971H150.176V145.428H151.349ZM157.35 153.224C156.614 153.224 155.979 153.061 155.446 152.736C154.915 152.408 154.506 151.951 154.218 151.364C153.933 150.774 153.79 150.088 153.79 149.306C153.79 148.524 153.933 147.834 154.218 147.238C154.506 146.638 154.907 146.171 155.421 145.836C155.938 145.498 156.541 145.329 157.23 145.329C157.628 145.329 158.021 145.395 158.409 145.528C158.797 145.66 159.15 145.876 159.468 146.174C159.786 146.469 160.039 146.86 160.228 147.347C160.417 147.834 160.512 148.434 160.512 149.147V149.644H154.625V148.63H159.319C159.319 148.199 159.232 147.814 159.06 147.476C158.891 147.138 158.649 146.872 158.334 146.676C158.023 146.48 157.655 146.383 157.23 146.383C156.763 146.383 156.359 146.499 156.017 146.731C155.679 146.959 155.419 147.258 155.237 147.626C155.055 147.993 154.963 148.388 154.963 148.809V149.485C154.963 150.062 155.063 150.55 155.262 150.952C155.464 151.349 155.744 151.653 156.102 151.861C156.46 152.067 156.876 152.17 157.35 152.17C157.658 152.17 157.936 152.126 158.185 152.04C158.437 151.951 158.654 151.818 158.836 151.643C159.019 151.464 159.159 151.242 159.259 150.976L160.392 151.295C160.273 151.679 160.073 152.017 159.791 152.309C159.509 152.597 159.161 152.823 158.747 152.985C158.333 153.144 157.867 153.224 157.35 153.224ZM161.62 153.064V151.971H161.899C162.127 151.971 162.318 151.926 162.471 151.836C162.623 151.744 162.746 151.583 162.838 151.354C162.935 151.122 163.007 150.801 163.057 150.39C163.11 149.975 163.148 149.448 163.172 148.809L163.311 145.428H168.402V153.064H167.228V146.522H164.424L164.305 149.246C164.279 149.873 164.222 150.425 164.136 150.902C164.053 151.376 163.926 151.773 163.753 152.095C163.584 152.416 163.359 152.658 163.077 152.821C162.795 152.983 162.442 153.064 162.018 153.064H161.62ZM171.728 151.334L175.407 145.428H176.759V153.064H175.586V147.158L171.926 153.064H170.554V145.428H171.728V151.334Z" fill="black"/>
<rect x="210" y="1.06445" width="150" height="124" rx="15" fill="#E8E8E8"/>
<rect x="210" y="0.564453" width="150" height="125" rx="15" fill="#E8E8E8"/>
<path d="M241.581 26.5645H240.289L244.027 16.3826H245.3L249.039 26.5645H247.746L244.703 17.9934H244.624L241.581 26.5645ZM242.059 22.5872H247.269V23.6809H242.059V22.5872ZM250.465 26.5645V18.9281H251.599V20.0815H251.679C251.818 19.7037 252.07 19.3971 252.434 19.1618C252.799 18.9264 253.21 18.8088 253.667 18.8088C253.753 18.8088 253.861 18.8104 253.99 18.8137C254.12 18.8171 254.217 18.822 254.284 18.8287V20.0218C254.244 20.0119 254.153 19.997 254.01 19.9771C253.871 19.9539 253.724 19.9423 253.568 19.9423C253.197 19.9423 252.865 20.0202 252.573 20.176C252.285 20.3284 252.056 20.5405 251.887 20.8123C251.722 21.0808 251.639 21.3874 251.639 21.7321V26.5645H250.465ZM258.644 26.7235C257.908 26.7235 257.273 26.5611 256.74 26.2363C256.209 25.9082 255.8 25.4508 255.512 24.8642C255.227 24.2742 255.084 23.5881 255.084 22.8059C255.084 22.0237 255.227 21.3343 255.512 20.7377C255.8 20.1378 256.201 19.6705 256.715 19.3358C257.232 18.9977 257.835 18.8287 258.524 18.8287C258.922 18.8287 259.315 18.8949 259.703 19.0275C260.09 19.1601 260.443 19.3755 260.762 19.6738C261.08 19.9688 261.333 20.3599 261.522 20.8471C261.711 21.3343 261.806 21.9342 261.806 22.6468V23.144H255.919V22.1298H260.612C260.612 21.6989 260.526 21.3145 260.354 20.9764C260.185 20.6383 259.943 20.3715 259.628 20.176C259.317 19.9804 258.949 19.8826 258.524 19.8826C258.057 19.8826 257.653 19.9986 257.311 20.2306C256.973 20.4593 256.713 20.7576 256.531 21.1255C256.349 21.4934 256.257 21.8878 256.257 22.3088V22.9849C256.257 23.5616 256.357 24.0505 256.556 24.4515C256.758 24.8493 257.038 25.1525 257.396 25.3613C257.754 25.5668 258.17 25.6696 258.644 25.6696C258.952 25.6696 259.23 25.6265 259.479 25.5403C259.731 25.4508 259.948 25.3182 260.13 25.1426C260.313 24.9636 260.453 24.7415 260.553 24.4764L261.686 24.7946C261.567 25.179 261.367 25.5171 261.085 25.8088C260.803 26.0971 260.455 26.3225 260.041 26.4849C259.626 26.644 259.161 26.7235 258.644 26.7235ZM268.284 29.4281C268.085 29.4281 267.907 29.4115 267.752 29.3784C267.596 29.3485 267.488 29.3187 267.429 29.2889L267.727 28.2548C268.012 28.3277 268.264 28.3542 268.483 28.3343C268.701 28.3145 268.895 28.2167 269.064 28.041C269.237 27.8687 269.394 27.5886 269.536 27.2008L269.755 26.6042L266.931 18.9281H268.204L270.312 25.0133H270.392L272.5 18.9281H273.772L270.531 27.6781C270.385 28.0725 270.204 28.399 269.989 28.6575C269.773 28.9193 269.523 29.1132 269.238 29.2392C268.956 29.3651 268.638 29.4281 268.284 29.4281ZM278.15 26.7235C277.46 26.7235 276.855 26.5595 276.335 26.2314C275.818 25.9032 275.414 25.4442 275.122 24.8542C274.834 24.2643 274.69 23.5749 274.69 22.786C274.69 21.9906 274.834 21.2962 275.122 20.7029C275.414 20.1097 275.818 19.649 276.335 19.3208C276.855 18.9927 277.46 18.8287 278.15 18.8287C278.839 18.8287 279.442 18.9927 279.959 19.3208C280.48 19.649 280.884 20.1097 281.172 20.7029C281.464 21.2962 281.61 21.9906 281.61 22.786C281.61 23.5749 281.464 24.2643 281.172 24.8542C280.884 25.4442 280.48 25.9032 279.959 26.2314C279.442 26.5595 278.839 26.7235 278.15 26.7235ZM278.15 25.6696C278.673 25.6696 279.104 25.5353 279.442 25.2669C279.78 24.9984 280.031 24.6454 280.193 24.2079C280.355 23.7704 280.437 23.2965 280.437 22.786C280.437 22.2756 280.355 21.8 280.193 21.3592C280.031 20.9184 279.78 20.5621 279.442 20.2903C279.104 20.0185 278.673 19.8826 278.15 19.8826C277.626 19.8826 277.195 20.0185 276.857 20.2903C276.519 20.5621 276.269 20.9184 276.106 21.3592C275.944 21.8 275.863 22.2756 275.863 22.786C275.863 23.2965 275.944 23.7704 276.106 24.2079C276.269 24.6454 276.519 24.9984 276.857 25.2669C277.195 25.5353 277.626 25.6696 278.15 25.6696ZM288.214 23.4423V18.9281H289.387V26.5645H288.214V25.2718H288.134C287.955 25.6596 287.677 25.9894 287.299 26.2612C286.921 26.5297 286.444 26.6639 285.867 26.6639C285.39 26.6639 284.965 26.5595 284.594 26.3507C284.223 26.1386 283.931 25.8204 283.719 25.3961C283.507 24.9686 283.401 24.43 283.401 23.7804V18.9281H284.574V23.7008C284.574 24.2576 284.73 24.7018 285.042 25.0332C285.357 25.3646 285.758 25.5304 286.245 25.5304C286.536 25.5304 286.833 25.4558 287.135 25.3066C287.44 25.1575 287.695 24.9288 287.9 24.6206C288.109 24.3123 288.214 23.9196 288.214 23.4423ZM300.882 20.6383L299.828 20.9366C299.762 20.7609 299.664 20.5903 299.535 20.4245C299.409 20.2555 299.237 20.1163 299.018 20.0069C298.799 19.8975 298.519 19.8429 298.178 19.8429C297.71 19.8429 297.321 19.9506 297.009 20.166C296.701 20.3781 296.547 20.6483 296.547 20.9764C296.547 21.2681 296.653 21.4984 296.865 21.6674C297.077 21.8365 297.409 21.9773 297.86 22.09L298.993 22.3684C299.676 22.5341 300.185 22.7877 300.519 23.1291C300.854 23.4672 301.022 23.903 301.022 24.4366C301.022 24.8741 300.896 25.2652 300.644 25.6099C300.395 25.9546 300.047 26.2264 299.6 26.4252C299.152 26.6241 298.632 26.7235 298.039 26.7235C297.26 26.7235 296.615 26.5545 296.105 26.2164C295.594 25.8784 295.271 25.3845 295.135 24.7349L296.249 24.4565C296.355 24.8675 296.555 25.1757 296.85 25.3812C297.149 25.5867 297.538 25.6895 298.019 25.6895C298.566 25.6895 299 25.5734 299.321 25.3414C299.646 25.1061 299.809 24.8244 299.809 24.4963C299.809 24.2311 299.716 24.0091 299.53 23.8301C299.344 23.6478 299.059 23.5119 298.675 23.4224L297.402 23.1241C296.703 22.9584 296.189 22.7015 295.861 22.3535C295.536 22.0022 295.374 21.563 295.374 21.036C295.374 20.6052 295.495 20.224 295.737 19.8926C295.982 19.5611 296.315 19.301 296.736 19.112C297.16 18.9231 297.641 18.8287 298.178 18.8287C298.934 18.8287 299.527 18.9944 299.958 19.3258C300.392 19.6573 300.7 20.0948 300.882 20.6383ZM307.6 23.4423V18.9281H308.774V26.5645H307.6V25.2718H307.521C307.342 25.6596 307.063 25.9894 306.685 26.2612C306.308 26.5297 305.83 26.6639 305.254 26.6639C304.776 26.6639 304.352 26.5595 303.981 26.3507C303.61 26.1386 303.318 25.8204 303.106 25.3961C302.894 24.9686 302.788 24.43 302.788 23.7804V18.9281H303.961V23.7008C303.961 24.2576 304.117 24.7018 304.428 25.0332C304.743 25.3646 305.144 25.5304 305.631 25.5304C305.923 25.5304 306.22 25.4558 306.521 25.3066C306.826 25.1575 307.082 24.9288 307.287 24.6206C307.496 24.3123 307.6 23.9196 307.6 23.4423ZM310.922 26.5645V18.9281H312.056V20.0815H312.136C312.275 19.7037 312.527 19.3971 312.891 19.1618C313.256 18.9264 313.667 18.8088 314.124 18.8088C314.21 18.8088 314.318 18.8104 314.447 18.8137C314.577 18.8171 314.674 18.822 314.741 18.8287V20.0218C314.701 20.0119 314.61 19.997 314.467 19.9771C314.328 19.9539 314.181 19.9423 314.025 19.9423C313.654 19.9423 313.322 20.0202 313.03 20.176C312.742 20.3284 312.513 20.5405 312.344 20.8123C312.179 21.0808 312.096 21.3874 312.096 21.7321V26.5645H310.922ZM319.101 26.7235C318.365 26.7235 317.73 26.5611 317.197 26.2363C316.666 25.9082 316.257 25.4508 315.969 24.8642C315.684 24.2742 315.541 23.5881 315.541 22.8059C315.541 22.0237 315.684 21.3343 315.969 20.7377C316.257 20.1378 316.658 19.6705 317.172 19.3358C317.689 18.9977 318.292 18.8287 318.981 18.8287C319.379 18.8287 319.772 18.8949 320.16 19.0275C320.547 19.1601 320.9 19.3755 321.219 19.6738C321.537 19.9688 321.79 20.3599 321.979 20.8471C322.168 21.3343 322.263 21.9342 322.263 22.6468V23.144H316.376V22.1298H321.07C321.07 21.6989 320.983 21.3145 320.811 20.9764C320.642 20.6383 320.4 20.3715 320.085 20.176C319.774 19.9804 319.406 19.8826 318.981 19.8826C318.514 19.8826 318.11 19.9986 317.768 20.2306C317.43 20.4593 317.17 20.7576 316.988 21.1255C316.806 21.4934 316.714 21.8878 316.714 22.3088V22.9849C316.714 23.5616 316.814 24.0505 317.013 24.4515C317.215 24.8493 317.495 25.1525 317.853 25.3613C318.211 25.5668 318.627 25.6696 319.101 25.6696C319.409 25.6696 319.687 25.6265 319.936 25.5403C320.188 25.4508 320.405 25.3182 320.587 25.1426C320.77 24.9636 320.91 24.7415 321.01 24.4764L322.143 24.7946C322.024 25.179 321.824 25.5171 321.542 25.8088C321.26 26.0971 320.912 26.3225 320.498 26.4849C320.083 26.644 319.618 26.7235 319.101 26.7235ZM325.579 23.7008V23.6412C325.585 23.0081 325.652 22.5043 325.778 22.1298C325.904 21.7553 326.083 21.452 326.315 21.22C326.547 20.988 326.825 20.7742 327.15 20.5787C327.345 20.4593 327.521 20.3185 327.677 20.1561C327.833 19.9904 327.955 19.7998 328.045 19.5843C328.137 19.3689 328.184 19.1303 328.184 18.8684C328.184 18.5436 328.108 18.2619 327.955 18.0233C327.803 17.7846 327.599 17.6007 327.344 17.4714C327.088 17.3422 326.805 17.2775 326.494 17.2775C326.222 17.2775 325.96 17.3339 325.708 17.4466C325.456 17.5592 325.246 17.7366 325.077 17.9785C324.908 18.2205 324.81 18.537 324.783 18.9281H323.53C323.557 18.3646 323.703 17.8824 323.968 17.4814C324.236 17.0803 324.589 16.7737 325.027 16.5616C325.468 16.3495 325.957 16.2434 326.494 16.2434C327.077 16.2434 327.584 16.3594 328.015 16.5914C328.449 16.8234 328.784 17.1416 329.019 17.546C329.258 17.9503 329.377 18.411 329.377 18.9281C329.377 19.2927 329.321 19.6225 329.208 19.9174C329.099 20.2124 328.94 20.4759 328.731 20.7079C328.525 20.9399 328.277 21.1454 327.985 21.3244C327.693 21.5067 327.46 21.6989 327.284 21.9011C327.108 22.1 326.981 22.3369 326.901 22.612C326.822 22.8871 326.779 23.2302 326.772 23.6412V23.7008H325.579ZM326.215 26.644C325.97 26.644 325.759 26.5562 325.584 26.3805C325.408 26.2048 325.32 25.9944 325.32 25.7491C325.32 25.5038 325.408 25.2934 325.584 25.1177C325.759 24.9421 325.97 24.8542 326.215 24.8542C326.46 24.8542 326.671 24.9421 326.847 25.1177C327.022 25.2934 327.11 25.5038 327.11 25.7491C327.11 25.9115 327.069 26.0607 326.986 26.1966C326.906 26.3324 326.798 26.4418 326.663 26.5247C326.53 26.6042 326.381 26.644 326.215 26.644Z" fill="black"/>
<rect x="242.5" y="39.5645" width="85" height="18" rx="9" fill="#3633D1"/>
<path d="M272.833 43.8826H274.578L277.238 48.5112H277.347L280.007 43.8826H281.752L278.058 50.0673V54.0645H276.527V50.0673L272.833 43.8826ZM285.117 54.2186C284.364 54.2186 283.716 54.0578 283.173 53.7363C282.633 53.4115 282.215 52.9558 281.92 52.3691C281.628 51.7792 281.482 51.0881 281.482 50.296C281.482 49.5138 281.628 48.8244 281.92 48.2278C282.215 47.6312 282.626 47.1655 283.153 46.8308C283.683 46.496 284.303 46.3287 285.012 46.3287C285.443 46.3287 285.861 46.3999 286.265 46.5424C286.669 46.685 287.032 46.9087 287.354 47.2136C287.675 47.5185 287.929 47.9146 288.115 48.4018C288.3 48.8857 288.393 49.474 288.393 50.1667V50.6937H282.323V49.5801H286.936C286.936 49.189 286.857 48.8426 286.698 48.541C286.539 48.2361 286.315 47.9958 286.026 47.8201C285.741 47.6445 285.407 47.5566 285.022 47.5566C284.605 47.5566 284.24 47.6594 283.928 47.8649C283.62 48.0671 283.382 48.3322 283.213 48.6603C283.047 48.9851 282.964 49.3381 282.964 49.7193V50.5893C282.964 51.0997 283.053 51.5339 283.232 51.8919C283.415 52.2498 283.668 52.5233 283.993 52.7122C284.318 52.8978 284.697 52.9906 285.132 52.9906C285.413 52.9906 285.67 52.9508 285.902 52.8713C286.134 52.7884 286.335 52.6658 286.504 52.5034C286.673 52.341 286.802 52.1404 286.892 51.9018L288.298 52.1554C288.186 52.5697 287.984 52.9326 287.692 53.2441C287.404 53.5524 287.041 53.7927 286.603 53.965C286.169 54.1341 285.673 54.2186 285.117 54.2186ZM295.765 48.2924L294.417 48.5311C294.361 48.3587 294.271 48.1947 294.149 48.0389C294.029 47.8831 293.867 47.7555 293.662 47.6561C293.456 47.5566 293.199 47.5069 292.891 47.5069C292.47 47.5069 292.119 47.6014 291.837 47.7903C291.555 47.9759 291.414 48.2162 291.414 48.5112C291.414 48.7664 291.509 48.9719 291.698 49.1277C291.887 49.2834 292.192 49.411 292.613 49.5105L293.826 49.7889C294.528 49.9513 295.052 50.2015 295.397 50.5396C295.741 50.8777 295.914 51.3168 295.914 51.8571C295.914 52.3145 295.781 52.7221 295.516 53.0801C295.254 53.4347 294.888 53.7131 294.417 53.9153C293.95 54.1175 293.408 54.2186 292.792 54.2186C291.936 54.2186 291.239 54.0363 290.699 53.6717C290.158 53.3038 289.827 52.7818 289.704 52.1056L291.141 51.8869C291.23 52.2614 291.414 52.5448 291.693 52.737C291.971 52.926 292.334 53.0204 292.782 53.0204C293.269 53.0204 293.658 52.9193 293.95 52.7172C294.242 52.5117 294.387 52.2614 294.387 51.9664C294.387 51.7278 294.298 51.5273 294.119 51.3649C293.943 51.2025 293.673 51.0798 293.309 50.997L292.016 50.7136C291.303 50.5512 290.776 50.2927 290.435 49.938C290.097 49.5834 289.928 49.1343 289.928 48.5907C289.928 48.14 290.054 47.7456 290.306 47.4075C290.558 47.0694 290.906 46.8059 291.35 46.617C291.794 46.4248 292.303 46.3287 292.876 46.3287C293.701 46.3287 294.351 46.5076 294.825 46.8656C295.299 47.2202 295.612 47.6958 295.765 48.2924Z" fill="#D5D5F4"/>
<rect x="241.5" y="67.5645" width="87" height="18" rx="9" fill="#D06767"/>
<path d="M263.119 71.8826H264.983L268.224 79.7974H268.344L271.585 71.8826H273.45V82.0645H271.988V74.6966H271.893L268.891 82.0495H267.678L264.675 74.6916H264.58V82.0645H263.119V71.8826ZM277.786 82.2335C277.302 82.2335 276.865 82.144 276.474 81.965C276.082 81.7827 275.773 81.5192 275.544 81.1745C275.318 80.8298 275.206 80.4073 275.206 79.9068C275.206 79.4759 275.289 79.1213 275.454 78.8429C275.62 78.5645 275.844 78.344 276.126 78.1816C276.407 78.0192 276.722 77.8966 277.07 77.8137C277.418 77.7309 277.773 77.6679 278.134 77.6248C278.591 77.5718 278.963 77.5287 279.248 77.4956C279.533 77.4591 279.74 77.4011 279.869 77.3216C279.998 77.242 280.063 77.1127 280.063 76.9338V76.899C280.063 76.4648 279.94 76.1284 279.695 75.8897C279.453 75.6511 279.092 75.5318 278.611 75.5318C278.111 75.5318 277.716 75.6428 277.428 75.8649C277.143 76.0836 276.946 76.3272 276.836 76.5957L275.439 76.2775C275.605 75.8135 275.847 75.439 276.165 75.1539C276.487 74.8656 276.856 74.6568 277.274 74.5275C277.692 74.3949 278.131 74.3287 278.591 74.3287C278.896 74.3287 279.22 74.3651 279.561 74.438C279.906 74.5076 280.227 74.6369 280.525 74.8258C280.827 75.0147 281.074 75.2849 281.266 75.6362C281.458 75.9842 281.555 76.4366 281.555 76.9934V82.0645H280.103V81.0204H280.043C279.947 81.2127 279.803 81.4016 279.611 81.5872C279.418 81.7728 279.171 81.9269 278.87 82.0495C278.568 82.1722 278.207 82.2335 277.786 82.2335ZM278.109 81.0403C278.52 81.0403 278.872 80.9591 279.163 80.7967C279.458 80.6343 279.682 80.4222 279.834 80.1603C279.99 79.8952 280.068 79.6118 280.068 79.3102V78.3258C280.015 78.3788 279.912 78.4286 279.76 78.475C279.611 78.5181 279.44 78.5562 279.248 78.5893C279.055 78.6191 278.868 78.6473 278.686 78.6738C278.504 78.697 278.351 78.7169 278.229 78.7335C277.94 78.7699 277.677 78.8313 277.438 78.9174C277.203 79.0036 277.014 79.1279 276.871 79.2903C276.732 79.4494 276.662 79.6615 276.662 79.9267C276.662 80.2946 276.798 80.573 277.07 80.7619C277.342 80.9475 277.688 81.0403 278.109 81.0403ZM284.201 84.9281C283.979 84.9281 283.776 84.9099 283.594 84.8734C283.412 84.8403 283.276 84.8038 283.186 84.764L283.544 83.546C283.816 83.6189 284.058 83.6504 284.27 83.6404C284.482 83.6305 284.67 83.551 284.832 83.4018C284.998 83.2527 285.144 83.0091 285.27 82.671L285.453 82.1639L282.659 74.4281H284.25L286.184 80.3542H286.264L288.198 74.4281H289.794L286.647 83.0836C286.501 83.4814 286.315 83.8178 286.09 84.0929C285.864 84.3713 285.596 84.5801 285.284 84.7193C284.973 84.8585 284.612 84.9281 284.201 84.9281ZM291.31 82.0645V71.8826H292.797V75.666H292.886C292.972 75.5069 293.096 75.323 293.259 75.1142C293.421 74.9054 293.647 74.7231 293.935 74.5673C294.223 74.4082 294.605 74.3287 295.078 74.3287C295.695 74.3287 296.245 74.4844 296.729 74.796C297.213 75.1075 297.592 75.5566 297.868 76.1433C298.146 76.7299 298.285 77.4359 298.285 78.2612C298.285 79.0865 298.148 79.7941 297.873 80.3841C297.597 80.9707 297.22 81.4231 296.739 81.7413C296.258 82.0562 295.71 82.2136 295.093 82.2136C294.629 82.2136 294.25 82.1357 293.955 81.9799C293.663 81.8242 293.435 81.6419 293.269 81.4331C293.103 81.2243 292.975 81.0386 292.886 80.8762H292.762V82.0645H291.31ZM292.767 78.2463C292.767 78.7832 292.845 79.2538 293 79.6582C293.156 80.0626 293.382 80.3791 293.676 80.6078C293.971 80.8332 294.333 80.9458 294.76 80.9458C295.204 80.9458 295.576 80.8282 295.874 80.5929C296.172 80.3542 296.398 80.0311 296.55 79.6234C296.706 79.2157 296.784 78.7567 296.784 78.2463C296.784 77.7425 296.708 77.2901 296.555 76.889C296.406 76.488 296.181 76.1715 295.879 75.9395C295.581 75.7074 295.208 75.5914 294.76 75.5914C294.329 75.5914 293.965 75.7025 293.667 75.9245C293.372 76.1466 293.148 76.4565 292.995 76.8542C292.843 77.252 292.767 77.716 292.767 78.2463ZM303.246 82.2186C302.493 82.2186 301.845 82.0578 301.302 81.7363C300.761 81.4115 300.344 80.9558 300.049 80.3691C299.757 79.7792 299.611 79.0881 299.611 78.296C299.611 77.5138 299.757 76.8244 300.049 76.2278C300.344 75.6312 300.755 75.1655 301.282 74.8308C301.812 74.496 302.432 74.3287 303.141 74.3287C303.572 74.3287 303.99 74.3999 304.394 74.5424C304.798 74.685 305.161 74.9087 305.483 75.2136C305.804 75.5185 306.058 75.9146 306.243 76.4018C306.429 76.8857 306.522 77.474 306.522 78.1667V78.6937H300.452V77.5801H305.065C305.065 77.189 304.986 76.8426 304.827 76.541C304.667 76.2361 304.444 75.9958 304.155 75.8201C303.87 75.6445 303.536 75.5566 303.151 75.5566C302.733 75.5566 302.369 75.6594 302.057 75.8649C301.749 76.0671 301.51 76.3322 301.341 76.6603C301.176 76.9851 301.093 77.3381 301.093 77.7193V78.5893C301.093 79.0997 301.182 79.5339 301.361 79.8919C301.544 80.2498 301.797 80.5233 302.122 80.7122C302.447 80.8978 302.826 80.9906 303.26 80.9906C303.542 80.9906 303.799 80.9508 304.031 80.8713C304.263 80.7884 304.464 80.6658 304.633 80.5034C304.802 80.341 304.931 80.1404 305.02 79.9018L306.427 80.1554C306.315 80.5697 306.113 80.9326 305.821 81.2441C305.532 81.5524 305.17 81.7927 304.732 81.965C304.298 82.1341 303.802 82.2186 303.246 82.2186Z" fill="#D5D5F4"/>
<rect x="241.5" y="95.5645" width="87" height="18" rx="9" fill="#77CF76"/>
<path d="M277.463 104.974C277.463 106.061 277.264 106.995 276.866 107.778C276.469 108.556 275.924 109.156 275.231 109.577C274.541 109.995 273.758 110.204 272.879 110.204C271.998 110.204 271.21 109.995 270.518 109.577C269.828 109.156 269.285 108.555 268.887 107.773C268.489 106.99 268.29 106.057 268.29 104.974C268.29 103.886 268.489 102.953 268.887 102.175C269.285 101.392 269.828 100.792 270.518 100.375C271.21 99.9539 271.998 99.7434 272.879 99.7434C273.758 99.7434 274.541 99.9539 275.231 100.375C275.924 100.792 276.469 101.392 276.866 102.175C277.264 102.953 277.463 103.886 277.463 104.974ZM275.942 104.974C275.942 104.145 275.808 103.447 275.539 102.881C275.274 102.31 274.909 101.88 274.445 101.588C273.985 101.293 273.463 101.145 272.879 101.145C272.293 101.145 271.769 101.293 271.308 101.588C270.848 101.88 270.483 102.31 270.214 102.881C269.949 103.447 269.817 104.145 269.817 104.974C269.817 105.802 269.949 106.501 270.214 107.072C270.483 107.638 270.848 108.069 271.308 108.364C271.769 108.656 272.293 108.802 272.879 108.802C273.463 108.802 273.985 108.656 274.445 108.364C274.909 108.069 275.274 107.638 275.539 107.072C275.808 106.501 275.942 105.802 275.942 104.974ZM280.626 107.474L280.616 105.66H280.875L283.917 102.428H285.697L282.227 106.107H281.993L280.626 107.474ZM279.259 110.064V99.8826H280.746V110.064H279.259ZM284.081 110.064L281.347 106.435L282.371 105.396L285.906 110.064H284.081ZM289.274 110.233C288.79 110.233 288.353 110.144 287.962 109.965C287.571 109.783 287.261 109.519 287.032 109.175C286.807 108.83 286.694 108.407 286.694 107.907C286.694 107.476 286.777 107.121 286.943 106.843C287.108 106.564 287.332 106.344 287.614 106.182C287.896 106.019 288.21 105.897 288.558 105.814C288.906 105.731 289.261 105.668 289.622 105.625C290.08 105.572 290.451 105.529 290.736 105.496C291.021 105.459 291.228 105.401 291.357 105.322C291.487 105.242 291.551 105.113 291.551 104.934V104.899C291.551 104.465 291.429 104.128 291.183 103.89C290.941 103.651 290.58 103.532 290.1 103.532C289.599 103.532 289.205 103.643 288.916 103.865C288.631 104.084 288.434 104.327 288.325 104.596L286.928 104.278C287.093 103.814 287.335 103.439 287.654 103.154C287.975 102.866 288.345 102.657 288.762 102.528C289.18 102.395 289.619 102.329 290.08 102.329C290.385 102.329 290.708 102.365 291.049 102.438C291.394 102.508 291.715 102.637 292.014 102.826C292.315 103.015 292.562 103.285 292.754 103.636C292.947 103.984 293.043 104.437 293.043 104.993V110.064H291.591V109.02H291.531C291.435 109.213 291.291 109.402 291.099 109.587C290.907 109.773 290.66 109.927 290.358 110.05C290.057 110.172 289.695 110.233 289.274 110.233ZM289.597 109.04C290.008 109.04 290.36 108.959 290.651 108.797C290.946 108.634 291.17 108.422 291.323 108.16C291.478 107.895 291.556 107.612 291.556 107.31V106.326C291.503 106.379 291.401 106.429 291.248 106.475C291.099 106.518 290.928 106.556 290.736 106.589C290.544 106.619 290.356 106.647 290.174 106.674C289.992 106.697 289.839 106.717 289.717 106.733C289.428 106.77 289.165 106.831 288.926 106.917C288.691 107.004 288.502 107.128 288.36 107.29C288.22 107.449 288.151 107.662 288.151 107.927C288.151 108.295 288.287 108.573 288.558 108.762C288.83 108.948 289.177 109.04 289.597 109.04ZM295.689 112.928C295.467 112.928 295.265 112.91 295.082 112.873C294.9 112.84 294.764 112.804 294.675 112.764L295.033 111.546C295.304 111.619 295.546 111.65 295.759 111.64C295.971 111.631 296.158 111.551 296.32 111.402C296.486 111.253 296.632 111.009 296.758 110.671L296.942 110.164L294.148 102.428H295.739L297.673 108.354H297.752L299.686 102.428H301.282L298.135 111.084C297.989 111.481 297.804 111.818 297.578 112.093C297.353 112.371 297.084 112.58 296.773 112.719C296.461 112.858 296.1 112.928 295.689 112.928Z" fill="#33333B"/>
<path d="M293.393 170.064L308.811 154.646C310.396 153.061 310.396 150.491 308.811 148.906L306.158 146.253C304.573 144.668 302.004 144.668 300.419 146.253L285 161.672L269.581 146.253C267.996 144.668 265.427 144.668 263.842 146.253L261.189 148.906C259.604 150.491 259.604 153.061 261.189 154.646L276.607 170.064L261.189 185.483C259.604 187.068 259.604 189.638 261.189 191.222L263.842 193.876C265.427 195.461 267.996 195.461 269.581 193.876L285 178.457L300.419 193.876C302.004 195.461 304.573 195.461 306.158 193.876L308.811 191.222C310.396 189.638 310.396 187.068 308.811 185.483L293.393 170.064Z" fill="#FF473E"/>
<rect x="390" y="1.06445" width="150" height="124" rx="15" fill="#E8E8E8"/>
<path d="M411.156 41.5645H409.864L413.602 31.3826H414.875L418.614 41.5645H417.321L414.279 32.9934H414.199L411.156 41.5645ZM411.634 37.5872H416.844V38.6809H411.634V37.5872ZM420.041 41.5645V33.9281H421.174V35.0815H421.254C421.393 34.7037 421.645 34.3971 422.009 34.1618C422.374 33.9264 422.785 33.8088 423.242 33.8088C423.329 33.8088 423.436 33.8104 423.566 33.8137C423.695 33.8171 423.793 33.822 423.859 33.8287V35.0218C423.819 35.0119 423.728 34.997 423.585 34.9771C423.446 34.9539 423.299 34.9423 423.143 34.9423C422.772 34.9423 422.44 35.0202 422.149 35.176C421.86 35.3284 421.632 35.5405 421.463 35.8123C421.297 36.0808 421.214 36.3874 421.214 36.7321V41.5645H420.041ZM428.219 41.7235C427.483 41.7235 426.848 41.5611 426.315 41.2363C425.785 40.9082 425.375 40.4508 425.087 39.8642C424.802 39.2742 424.659 38.5881 424.659 37.8059C424.659 37.0237 424.802 36.3343 425.087 35.7377C425.375 35.1378 425.776 34.6705 426.29 34.3358C426.807 33.9977 427.41 33.8287 428.1 33.8287C428.497 33.8287 428.89 33.8949 429.278 34.0275C429.666 34.1601 430.019 34.3755 430.337 34.6738C430.655 34.9688 430.909 35.3599 431.097 35.8471C431.286 36.3343 431.381 36.9342 431.381 37.6468V38.144H425.494V37.1298H430.188C430.188 36.6989 430.102 36.3145 429.929 35.9764C429.76 35.6383 429.518 35.3715 429.203 35.176C428.892 34.9804 428.524 34.8826 428.1 34.8826C427.632 34.8826 427.228 34.9986 426.887 35.2306C426.548 35.4593 426.288 35.7576 426.106 36.1255C425.924 36.4934 425.833 36.8878 425.833 37.3088V37.9849C425.833 38.5616 425.932 39.0505 426.131 39.4515C426.333 39.8493 426.613 40.1525 426.971 40.3613C427.329 40.5668 427.745 40.6696 428.219 40.6696C428.527 40.6696 428.806 40.6265 429.054 40.5403C429.306 40.4508 429.523 40.3182 429.705 40.1426C429.888 39.9636 430.029 39.7415 430.128 39.4764L431.262 39.7946C431.142 40.179 430.942 40.5171 430.66 40.8088C430.378 41.0971 430.03 41.3225 429.616 41.4849C429.202 41.644 428.736 41.7235 428.219 41.7235ZM437.859 44.4281C437.66 44.4281 437.483 44.4115 437.327 44.3784C437.171 44.3485 437.063 44.3187 437.004 44.2889L437.302 43.2548C437.587 43.3277 437.839 43.3542 438.058 43.3343C438.276 43.3145 438.47 43.2167 438.639 43.041C438.812 42.8687 438.969 42.5886 439.112 42.2008L439.33 41.6042L436.507 33.9281H437.779L439.887 40.0133H439.967L442.075 33.9281H443.347L440.106 42.6781C439.96 43.0725 439.78 43.399 439.564 43.6575C439.349 43.9193 439.098 44.1132 438.813 44.2392C438.532 44.3651 438.213 44.4281 437.859 44.4281ZM447.725 41.7235C447.036 41.7235 446.431 41.5595 445.91 41.2314C445.393 40.9032 444.989 40.4442 444.697 39.8542C444.409 39.2643 444.265 38.5749 444.265 37.786C444.265 36.9906 444.409 36.2962 444.697 35.7029C444.989 35.1097 445.393 34.649 445.91 34.3208C446.431 33.9927 447.036 33.8287 447.725 33.8287C448.414 33.8287 449.018 33.9927 449.535 34.3208C450.055 34.649 450.459 35.1097 450.748 35.7029C451.039 36.2962 451.185 36.9906 451.185 37.786C451.185 38.5749 451.039 39.2643 450.748 39.8542C450.459 40.4442 450.055 40.9032 449.535 41.2314C449.018 41.5595 448.414 41.7235 447.725 41.7235ZM447.725 40.6696C448.249 40.6696 448.68 40.5353 449.018 40.2669C449.356 39.9984 449.606 39.6454 449.768 39.2079C449.931 38.7704 450.012 38.2965 450.012 37.786C450.012 37.2756 449.931 36.8 449.768 36.3592C449.606 35.9184 449.356 35.5621 449.018 35.2903C448.68 35.0185 448.249 34.8826 447.725 34.8826C447.201 34.8826 446.77 35.0185 446.432 35.2903C446.094 35.5621 445.844 35.9184 445.682 36.3592C445.519 36.8 445.438 37.2756 445.438 37.786C445.438 38.2965 445.519 38.7704 445.682 39.2079C445.844 39.6454 446.094 39.9984 446.432 40.2669C446.77 40.5353 447.201 40.6696 447.725 40.6696ZM457.789 38.4423V33.9281H458.962V41.5645H457.789V40.2718H457.709C457.53 40.6596 457.252 40.9894 456.874 41.2612C456.496 41.5297 456.019 41.6639 455.442 41.6639C454.965 41.6639 454.541 41.5595 454.169 41.3507C453.798 41.1386 453.507 40.8204 453.294 40.3961C453.082 39.9686 452.976 39.43 452.976 38.7804V33.9281H454.15V38.7008C454.15 39.2576 454.305 39.7018 454.617 40.0332C454.932 40.3646 455.333 40.5304 455.82 40.5304C456.112 40.5304 456.408 40.4558 456.71 40.3066C457.015 40.1575 457.27 39.9288 457.475 39.6206C457.684 39.3123 457.789 38.9196 457.789 38.4423ZM470.458 35.6383L469.404 35.9366C469.337 35.7609 469.24 35.5903 469.11 35.4245C468.984 35.2555 468.812 35.1163 468.593 35.0069C468.374 34.8975 468.094 34.8429 467.753 34.8429C467.286 34.8429 466.896 34.9506 466.585 35.166C466.276 35.3781 466.122 35.6483 466.122 35.9764C466.122 36.2681 466.228 36.4984 466.441 36.6674C466.653 36.8365 466.984 36.9773 467.435 37.09L468.568 37.3684C469.251 37.5341 469.76 37.7877 470.095 38.1291C470.429 38.4672 470.597 38.903 470.597 39.4366C470.597 39.8741 470.471 40.2652 470.219 40.6099C469.97 40.9546 469.622 41.2264 469.175 41.4252C468.727 41.6241 468.207 41.7235 467.614 41.7235C466.835 41.7235 466.19 41.5545 465.68 41.2164C465.169 40.8784 464.846 40.3845 464.71 39.7349L465.824 39.4565C465.93 39.8675 466.131 40.1757 466.426 40.3812C466.724 40.5867 467.113 40.6895 467.594 40.6895C468.141 40.6895 468.575 40.5734 468.896 40.3414C469.221 40.1061 469.384 39.8244 469.384 39.4963C469.384 39.2311 469.291 39.0091 469.105 38.8301C468.92 38.6478 468.635 38.5119 468.25 38.4224L466.977 38.1241C466.278 37.9584 465.764 37.7015 465.436 37.3535C465.111 37.0022 464.949 36.563 464.949 36.036C464.949 35.6052 465.07 35.224 465.312 34.8926C465.557 34.5611 465.89 34.301 466.311 34.112C466.735 33.9231 467.216 33.8287 467.753 33.8287C468.509 33.8287 469.102 33.9944 469.533 34.3258C469.967 34.6573 470.275 35.0948 470.458 35.6383ZM477.175 38.4423V33.9281H478.349V41.5645H477.175V40.2718H477.096C476.917 40.6596 476.638 40.9894 476.261 41.2612C475.883 41.5297 475.406 41.6639 474.829 41.6639C474.352 41.6639 473.927 41.5595 473.556 41.3507C473.185 41.1386 472.893 40.8204 472.681 40.3961C472.469 39.9686 472.363 39.43 472.363 38.7804V33.9281H473.536V38.7008C473.536 39.2576 473.692 39.7018 474.004 40.0332C474.318 40.3646 474.719 40.5304 475.207 40.5304C475.498 40.5304 475.795 40.4558 476.097 40.3066C476.402 40.1575 476.657 39.9288 476.862 39.6206C477.071 39.3123 477.175 38.9196 477.175 38.4423ZM480.498 41.5645V33.9281H481.631V35.0815H481.711C481.85 34.7037 482.102 34.3971 482.466 34.1618C482.831 33.9264 483.242 33.8088 483.699 33.8088C483.786 33.8088 483.893 33.8104 484.023 33.8137C484.152 33.8171 484.25 33.822 484.316 33.8287V35.0218C484.276 35.0119 484.185 34.997 484.042 34.9771C483.903 34.9539 483.756 34.9423 483.6 34.9423C483.229 34.9423 482.897 35.0202 482.606 35.176C482.317 35.3284 482.089 35.5405 481.92 35.8123C481.754 36.0808 481.671 36.3874 481.671 36.7321V41.5645H480.498ZM488.676 41.7235C487.94 41.7235 487.305 41.5611 486.772 41.2363C486.242 40.9082 485.832 40.4508 485.544 39.8642C485.259 39.2742 485.116 38.5881 485.116 37.8059C485.116 37.0237 485.259 36.3343 485.544 35.7377C485.832 35.1378 486.233 34.6705 486.747 34.3358C487.264 33.9977 487.867 33.8287 488.557 33.8287C488.954 33.8287 489.347 33.8949 489.735 34.0275C490.123 34.1601 490.476 34.3755 490.794 34.6738C491.112 34.9688 491.366 35.3599 491.555 35.8471C491.743 36.3343 491.838 36.9342 491.838 37.6468V38.144H485.952V37.1298H490.645C490.645 36.6989 490.559 36.3145 490.386 35.9764C490.217 35.6383 489.975 35.3715 489.66 35.176C489.349 34.9804 488.981 34.8826 488.557 34.8826C488.089 34.8826 487.685 34.9986 487.344 35.2306C487.006 35.4593 486.745 35.7576 486.563 36.1255C486.381 36.4934 486.29 36.8878 486.29 37.3088V37.9849C486.29 38.5616 486.389 39.0505 486.588 39.4515C486.79 39.8493 487.07 40.1525 487.428 40.3613C487.786 40.5668 488.202 40.6696 488.676 40.6696C488.984 40.6696 489.263 40.6265 489.511 40.5403C489.763 40.4508 489.98 40.3182 490.162 40.1426C490.345 39.9636 490.486 39.7415 490.585 39.4764L491.719 39.7946C491.599 40.179 491.399 40.5171 491.117 40.8088C490.835 41.0971 490.487 41.3225 490.073 41.4849C489.659 41.644 489.193 41.7235 488.676 41.7235ZM498.316 44.4281C498.117 44.4281 497.94 44.4115 497.784 44.3784C497.628 44.3485 497.52 44.3187 497.461 44.2889L497.759 43.2548C498.044 43.3277 498.296 43.3542 498.515 43.3343C498.733 43.3145 498.927 43.2167 499.096 43.041C499.269 42.8687 499.426 42.5886 499.569 42.2008L499.787 41.6042L496.964 33.9281H498.236L500.344 40.0133H500.424L502.532 33.9281H503.805L500.563 42.6781C500.417 43.0725 500.237 43.399 500.021 43.6575C499.806 43.9193 499.555 44.1132 499.27 44.2392C498.989 44.3651 498.671 44.4281 498.316 44.4281ZM508.182 41.7235C507.493 41.7235 506.888 41.5595 506.367 41.2314C505.85 40.9032 505.446 40.4442 505.154 39.8542C504.866 39.2643 504.722 38.5749 504.722 37.786C504.722 36.9906 504.866 36.2962 505.154 35.7029C505.446 35.1097 505.85 34.649 506.367 34.3208C506.888 33.9927 507.493 33.8287 508.182 33.8287C508.871 33.8287 509.475 33.9927 509.992 34.3208C510.512 34.649 510.916 35.1097 511.205 35.7029C511.496 36.2962 511.642 36.9906 511.642 37.786C511.642 38.5749 511.496 39.2643 511.205 39.8542C510.916 40.4442 510.512 40.9032 509.992 41.2314C509.475 41.5595 508.871 41.7235 508.182 41.7235ZM508.182 40.6696C508.706 40.6696 509.137 40.5353 509.475 40.2669C509.813 39.9984 510.063 39.6454 510.225 39.2079C510.388 38.7704 510.469 38.2965 510.469 37.786C510.469 37.2756 510.388 36.8 510.225 36.3592C510.063 35.9184 509.813 35.5621 509.475 35.2903C509.137 35.0185 508.706 34.8826 508.182 34.8826C507.658 34.8826 507.227 35.0185 506.889 35.2903C506.551 35.5621 506.301 35.9184 506.139 36.3592C505.976 36.8 505.895 37.2756 505.895 37.786C505.895 38.2965 505.976 38.7704 506.139 39.2079C506.301 39.6454 506.551 39.9984 506.889 40.2669C507.227 40.5353 507.658 40.6696 508.182 40.6696ZM518.246 38.4423V33.9281H519.419V41.5645H518.246V40.2718H518.166C517.987 40.6596 517.709 40.9894 517.331 41.2612C516.953 41.5297 516.476 41.6639 515.899 41.6639C515.422 41.6639 514.998 41.5595 514.626 41.3507C514.255 41.1386 513.964 40.8204 513.751 40.3961C513.539 39.9686 513.433 39.43 513.433 38.7804V33.9281H514.607V38.7008C514.607 39.2576 514.762 39.7018 515.074 40.0332C515.389 40.3646 515.79 40.5304 516.277 40.5304C516.569 40.5304 516.865 40.4558 517.167 40.3066C517.472 40.1575 517.727 39.9288 517.933 39.6206C518.141 39.3123 518.246 38.9196 518.246 38.4423ZM408.748 58.5645L406.422 50.9281H407.655L409.305 56.7747H409.385L411.015 50.9281H412.268L413.879 56.7548H413.959L415.609 50.9281H416.842L414.515 58.5645H413.362L411.691 52.698H411.572L409.902 58.5645H408.748ZM420.64 58.7434C420.156 58.7434 419.717 58.6523 419.323 58.47C418.928 58.2844 418.615 58.0176 418.383 57.6696C418.151 57.3182 418.035 56.894 418.035 56.3968C418.035 55.9593 418.121 55.6047 418.294 55.3329C418.466 55.0578 418.696 54.8424 418.985 54.6866C419.273 54.5308 419.591 54.4148 419.939 54.3386C420.291 54.2591 420.644 54.1961 420.998 54.1497C421.462 54.09 421.839 54.0453 422.127 54.0154C422.419 53.9823 422.631 53.9276 422.763 53.8514C422.899 53.7752 422.967 53.6426 422.967 53.4537V53.4139C422.967 52.9234 422.833 52.5422 422.564 52.2704C422.299 51.9986 421.897 51.8627 421.356 51.8627C420.796 51.8627 420.357 51.9854 420.039 52.2306C419.721 52.4759 419.497 52.7377 419.368 53.0162L418.254 52.6184C418.453 52.1544 418.718 51.7931 419.049 51.5346C419.384 51.2728 419.749 51.0905 420.143 50.9877C420.541 50.8817 420.932 50.8287 421.316 50.8287C421.562 50.8287 421.843 50.8585 422.162 50.9181C422.483 50.9745 422.793 51.0922 423.091 51.2711C423.393 51.4501 423.643 51.7202 423.842 52.0815C424.041 52.4428 424.14 52.9267 424.14 53.5332V58.5645H422.967V57.5304H422.907C422.828 57.6961 422.695 57.8734 422.51 58.0623C422.324 58.2512 422.077 58.412 421.769 58.5446C421.461 58.6771 421.084 58.7434 420.64 58.7434ZM420.819 57.6895C421.283 57.6895 421.674 57.5983 421.993 57.416C422.314 57.2337 422.556 56.9984 422.718 56.71C422.884 56.4217 422.967 56.1184 422.967 55.8002V54.7264C422.917 54.786 422.808 54.8407 422.639 54.8904C422.473 54.9368 422.281 54.9783 422.062 55.0147C421.847 55.0479 421.636 55.0777 421.431 55.1042C421.229 55.1274 421.065 55.1473 420.939 55.1639C420.634 55.2037 420.349 55.2683 420.084 55.3578C419.822 55.444 419.61 55.5749 419.447 55.7505C419.288 55.9229 419.209 56.1582 419.209 56.4565C419.209 56.8642 419.359 57.1724 419.661 57.3812C419.966 57.5867 420.352 57.6895 420.819 57.6895ZM427.455 53.9707V58.5645H426.282V50.9281H427.415V52.1213H427.515C427.694 51.7335 427.966 51.4219 428.33 51.1866C428.695 50.948 429.165 50.8287 429.742 50.8287C430.259 50.8287 430.712 50.9347 431.099 51.1468C431.487 51.3556 431.789 51.6738 432.004 52.1014C432.22 52.5256 432.327 53.0626 432.327 53.7122V58.5645H431.154V53.7917C431.154 53.1918 430.998 52.7245 430.687 52.3897C430.375 52.0517 429.948 51.8826 429.404 51.8826C429.03 51.8826 428.695 51.9638 428.4 52.1262C428.108 52.2886 427.878 52.5256 427.709 52.8372C427.54 53.1487 427.455 53.5266 427.455 53.9707ZM437.792 50.9281V51.9224H433.835V50.9281H437.792ZM434.988 49.0985H436.162V56.377C436.162 56.7084 436.21 56.957 436.306 57.1227C436.405 57.2851 436.531 57.3945 436.684 57.4508C436.839 57.5038 437.004 57.5304 437.176 57.5304C437.305 57.5304 437.411 57.5237 437.494 57.5105C437.577 57.4939 437.643 57.4806 437.693 57.4707L437.932 58.5247C437.852 58.5545 437.741 58.5843 437.598 58.6142C437.456 58.6473 437.275 58.6639 437.057 58.6639C436.725 58.6639 436.4 58.5926 436.082 58.4501C435.767 58.3076 435.505 58.0905 435.297 57.7988C435.091 57.5072 434.988 57.1393 434.988 56.6951V49.0985ZM446.816 50.9281V51.9224H442.858V50.9281H446.816ZM444.012 49.0985H445.185V56.377C445.185 56.7084 445.233 56.957 445.329 57.1227C445.429 57.2851 445.555 57.3945 445.707 57.4508C445.863 57.5038 446.027 57.5304 446.199 57.5304C446.329 57.5304 446.435 57.5237 446.517 57.5105C446.6 57.4939 446.667 57.4806 446.716 57.4707L446.955 58.5247C446.875 58.5545 446.764 58.5843 446.622 58.6142C446.479 58.6473 446.299 58.6639 446.08 58.6639C445.749 58.6639 445.424 58.5926 445.106 58.4501C444.791 58.3076 444.529 58.0905 444.32 57.7988C444.115 57.5072 444.012 57.1393 444.012 56.6951V49.0985ZM451.601 58.7235C450.912 58.7235 450.307 58.5595 449.786 58.2314C449.269 57.9032 448.865 57.4442 448.573 56.8542C448.285 56.2643 448.141 55.5749 448.141 54.786C448.141 53.9906 448.285 53.2962 448.573 52.7029C448.865 52.1097 449.269 51.649 449.786 51.3208C450.307 50.9927 450.912 50.8287 451.601 50.8287C452.29 50.8287 452.894 50.9927 453.411 51.3208C453.931 51.649 454.335 52.1097 454.624 52.7029C454.915 53.2962 455.061 53.9906 455.061 54.786C455.061 55.5749 454.915 56.2643 454.624 56.8542C454.335 57.4442 453.931 57.9032 453.411 58.2314C452.894 58.5595 452.29 58.7235 451.601 58.7235ZM451.601 57.6696C452.125 57.6696 452.555 57.5353 452.894 57.2669C453.232 56.9984 453.482 56.6454 453.644 56.2079C453.807 55.7704 453.888 55.2965 453.888 54.786C453.888 54.2756 453.807 53.8 453.644 53.3592C453.482 52.9184 453.232 52.5621 452.894 52.2903C452.555 52.0185 452.125 51.8826 451.601 51.8826C451.077 51.8826 450.646 52.0185 450.308 52.2903C449.97 52.5621 449.72 52.9184 449.558 53.3592C449.395 53.8 449.314 54.2756 449.314 54.786C449.314 55.2965 449.395 55.7704 449.558 56.2079C449.72 56.6454 449.97 56.9984 450.308 57.2669C450.646 57.5353 451.077 57.6696 451.601 57.6696ZM463.892 58.7235C463.176 58.7235 462.56 58.5545 462.043 58.2164C461.525 57.8784 461.128 57.4127 460.849 56.8194C460.571 56.2261 460.432 55.5484 460.432 54.786C460.432 54.0105 460.574 53.3261 460.859 52.7328C461.148 52.1362 461.549 51.6705 462.062 51.3358C462.579 50.9977 463.183 50.8287 463.872 50.8287C464.409 50.8287 464.893 50.9281 465.324 51.127C465.755 51.3258 466.108 51.6042 466.383 51.9622C466.658 52.3201 466.829 52.7377 466.895 53.215H465.722C465.632 52.867 465.433 52.5588 465.125 52.2903C464.82 52.0185 464.409 51.8826 463.892 51.8826C463.435 51.8826 463.034 52.002 462.689 52.2406C462.347 52.4759 462.081 52.809 461.888 53.2399C461.699 53.6674 461.605 54.1696 461.605 54.7463C461.605 55.3362 461.698 55.85 461.883 56.2875C462.072 56.725 462.338 57.0647 462.679 57.3066C463.024 57.5486 463.428 57.6696 463.892 57.6696C464.197 57.6696 464.474 57.6165 464.722 57.5105C464.971 57.4044 465.181 57.252 465.354 57.0531C465.526 56.8542 465.649 56.6156 465.722 56.3372H466.895C466.829 56.7879 466.664 57.194 466.403 57.5552C466.144 57.9132 465.801 58.1982 465.373 58.4103C464.949 58.6191 464.455 58.7235 463.892 58.7235ZM471.712 58.7235C471.023 58.7235 470.418 58.5595 469.898 58.2314C469.381 57.9032 468.976 57.4442 468.685 56.8542C468.396 56.2643 468.252 55.5749 468.252 54.786C468.252 53.9906 468.396 53.2962 468.685 52.7029C468.976 52.1097 469.381 51.649 469.898 51.3208C470.418 50.9927 471.023 50.8287 471.712 50.8287C472.402 50.8287 473.005 50.9927 473.522 51.3208C474.042 51.649 474.447 52.1097 474.735 52.7029C475.027 53.2962 475.172 53.9906 475.172 54.786C475.172 55.5749 475.027 56.2643 474.735 56.8542C474.447 57.4442 474.042 57.9032 473.522 58.2314C473.005 58.5595 472.402 58.7235 471.712 58.7235ZM471.712 57.6696C472.236 57.6696 472.667 57.5353 473.005 57.2669C473.343 56.9984 473.593 56.6454 473.756 56.2079C473.918 55.7704 473.999 55.2965 473.999 54.786C473.999 54.2756 473.918 53.8 473.756 53.3592C473.593 52.9184 473.343 52.5621 473.005 52.2903C472.667 52.0185 472.236 51.8826 471.712 51.8826C471.189 51.8826 470.758 52.0185 470.42 52.2903C470.082 52.5621 469.831 52.9184 469.669 53.3592C469.507 53.8 469.425 54.2756 469.425 54.786C469.425 55.2965 469.507 55.7704 469.669 56.2079C469.831 56.6454 470.082 56.9984 470.42 57.2669C470.758 57.5353 471.189 57.6696 471.712 57.6696ZM478.137 53.9707V58.5645H476.964V50.9281H478.097V52.1213H478.196C478.375 51.7335 478.647 51.4219 479.012 51.1866C479.376 50.948 479.847 50.8287 480.424 50.8287C480.941 50.8287 481.393 50.9347 481.781 51.1468C482.169 51.3556 482.47 51.6738 482.686 52.1014C482.901 52.5256 483.009 53.0626 483.009 53.7122V58.5645H481.836V53.7917C481.836 53.1918 481.68 52.7245 481.368 52.3897C481.057 52.0517 480.629 51.8826 480.086 51.8826C479.711 51.8826 479.376 51.9638 479.081 52.1262C478.79 52.2886 478.559 52.5256 478.39 52.8372C478.221 53.1487 478.137 53.5266 478.137 53.9707ZM488.474 50.9281V51.9224H484.517V50.9281H488.474ZM485.67 49.0985H486.843V56.377C486.843 56.7084 486.891 56.957 486.987 57.1227C487.087 57.2851 487.213 57.3945 487.365 57.4508C487.521 57.5038 487.685 57.5304 487.858 57.5304C487.987 57.5304 488.093 57.5237 488.176 57.5105C488.259 57.4939 488.325 57.4806 488.375 57.4707L488.613 58.5247C488.534 58.5545 488.423 58.5843 488.28 58.6142C488.138 58.6473 487.957 58.6639 487.738 58.6639C487.407 58.6639 487.082 58.5926 486.764 58.4501C486.449 58.3076 486.187 58.0905 485.978 57.7988C485.773 57.5072 485.67 57.1393 485.67 56.6951V49.0985ZM490.239 58.5645V50.9281H491.412V58.5645H490.239ZM490.835 49.6554C490.607 49.6554 490.41 49.5775 490.244 49.4217C490.081 49.2659 490 49.0787 490 48.8599C490 48.6412 490.081 48.4539 490.244 48.2981C490.41 48.1423 490.607 48.0645 490.835 48.0645C491.064 48.0645 491.26 48.1423 491.422 48.2981C491.588 48.4539 491.671 48.6412 491.671 48.8599C491.671 49.0787 491.588 49.2659 491.422 49.4217C491.26 49.5775 491.064 49.6554 490.835 49.6554ZM494.734 53.9707V58.5645H493.561V50.9281H494.695V52.1213H494.794C494.973 51.7335 495.245 51.4219 495.609 51.1866C495.974 50.948 496.445 50.8287 497.021 50.8287C497.538 50.8287 497.991 50.9347 498.379 51.1468C498.766 51.3556 499.068 51.6738 499.283 52.1014C499.499 52.5256 499.607 53.0626 499.607 53.7122V58.5645H498.433V53.7917C498.433 53.1918 498.278 52.7245 497.966 52.3897C497.654 52.0517 497.227 51.8826 496.683 51.8826C496.309 51.8826 495.974 51.9638 495.679 52.1262C495.387 52.2886 495.157 52.5256 494.988 52.8372C494.819 53.1487 494.734 53.5266 494.734 53.9707ZM506.563 55.4423V50.9281H507.736V58.5645H506.563V57.2718H506.484C506.305 57.6596 506.026 57.9894 505.648 58.2612C505.271 58.5297 504.793 58.6639 504.217 58.6639C503.739 58.6639 503.315 58.5595 502.944 58.3507C502.573 58.1386 502.281 57.8204 502.069 57.3961C501.857 56.9686 501.751 56.43 501.751 55.7804V50.9281H502.924V55.7008C502.924 56.2576 503.08 56.7018 503.391 57.0332C503.706 57.3646 504.107 57.5304 504.594 57.5304C504.886 57.5304 505.183 57.4558 505.484 57.3066C505.789 57.1575 506.044 56.9288 506.25 56.6206C506.459 56.3123 506.563 55.9196 506.563 55.4423ZM513.087 58.7235C512.351 58.7235 511.717 58.5611 511.183 58.2363C510.653 57.9082 510.243 57.4508 509.955 56.8642C509.67 56.2742 509.527 55.5881 509.527 54.8059C509.527 54.0237 509.67 53.3343 509.955 52.7377C510.243 52.1378 510.644 51.6705 511.158 51.3358C511.675 50.9977 512.278 50.8287 512.968 50.8287C513.366 50.8287 513.758 50.8949 514.146 51.0275C514.534 51.1601 514.887 51.3755 515.205 51.6738C515.523 51.9688 515.777 52.3599 515.966 52.8471C516.155 53.3343 516.249 53.9342 516.249 54.6468V55.144H510.363V54.1298H515.056C515.056 53.6989 514.97 53.3145 514.797 52.9764C514.628 52.6383 514.386 52.3715 514.071 52.176C513.76 51.9804 513.392 51.8826 512.968 51.8826C512.5 51.8826 512.096 51.9986 511.755 52.2306C511.417 52.4593 511.156 52.7576 510.974 53.1255C510.792 53.4934 510.701 53.8878 510.701 54.3088V54.9849C510.701 55.5616 510.8 56.0505 510.999 56.4515C511.201 56.8493 511.481 57.1525 511.839 57.3613C512.197 57.5668 512.613 57.6696 513.087 57.6696C513.395 57.6696 513.674 57.6265 513.922 57.5403C514.174 57.4508 514.391 57.3182 514.574 57.1426C514.756 56.9636 514.897 56.7415 514.996 56.4764L516.13 56.7946C516.01 57.179 515.81 57.5171 515.528 57.8088C515.246 58.0971 514.898 58.3225 514.484 58.4849C514.07 58.644 513.604 58.7235 513.087 58.7235ZM519.565 55.7008V55.6412C519.572 55.0081 519.638 54.5043 519.764 54.1298C519.89 53.7553 520.069 53.452 520.301 53.22C520.533 52.988 520.811 52.7742 521.136 52.5787C521.332 52.4593 521.507 52.3185 521.663 52.1561C521.819 51.9904 521.941 51.7998 522.031 51.5843C522.124 51.3689 522.17 51.1303 522.17 50.8684C522.17 50.5436 522.094 50.2619 521.941 50.0233C521.789 49.7846 521.585 49.6007 521.33 49.4714C521.075 49.3422 520.791 49.2775 520.48 49.2775C520.208 49.2775 519.946 49.3339 519.694 49.4466C519.442 49.5592 519.232 49.7366 519.063 49.9785C518.894 50.2205 518.796 50.537 518.77 50.9281H517.517C517.543 50.3646 517.689 49.8824 517.954 49.4814C518.223 49.0803 518.576 48.7737 519.013 48.5616C519.454 48.3495 519.943 48.2434 520.48 48.2434C521.063 48.2434 521.57 48.3594 522.001 48.5914C522.435 48.8234 522.77 49.1416 523.005 49.546C523.244 49.9503 523.363 50.411 523.363 50.9281C523.363 51.2927 523.307 51.6225 523.194 51.9174C523.085 52.2124 522.926 52.4759 522.717 52.7079C522.512 52.9399 522.263 53.1454 521.971 53.3244C521.68 53.5067 521.446 53.6989 521.27 53.9011C521.095 54.1 520.967 54.3369 520.888 54.612C520.808 54.8871 520.765 55.2302 520.758 55.6412V55.7008H519.565ZM520.201 58.644C519.956 58.644 519.746 58.5562 519.57 58.3805C519.394 58.2048 519.307 57.9944 519.307 57.7491C519.307 57.5038 519.394 57.2934 519.57 57.1177C519.746 56.9421 519.956 56.8542 520.201 56.8542C520.447 56.8542 520.657 56.9421 520.833 57.1177C521.008 57.2934 521.096 57.5038 521.096 57.7491C521.096 57.9115 521.055 58.0607 520.972 58.1966C520.892 58.3324 520.785 58.4418 520.649 58.5247C520.516 58.6042 520.367 58.644 520.201 58.644Z" fill="black"/>
<rect x="418" y="71.5645" width="45" height="27" rx="10" fill="#272642"/>
<path d="M428.333 80.3826H430.078L432.738 85.0112H432.847L435.507 80.3826H437.252L433.558 86.5673V90.5645H432.027V86.5673L428.333 80.3826ZM440.617 90.7186C439.864 90.7186 439.216 90.5578 438.673 90.2363C438.133 89.9115 437.715 89.4558 437.42 88.8691C437.128 88.2792 436.982 87.5881 436.982 86.796C436.982 86.0138 437.128 85.3244 437.42 84.7278C437.715 84.1312 438.126 83.6655 438.653 83.3308C439.183 82.996 439.803 82.8287 440.512 82.8287C440.943 82.8287 441.361 82.8999 441.765 83.0424C442.169 83.185 442.532 83.4087 442.854 83.7136C443.175 84.0185 443.429 84.4146 443.615 84.9018C443.8 85.3857 443.893 85.974 443.893 86.6667V87.1937H437.823V86.0801H442.436C442.436 85.689 442.357 85.3426 442.198 85.041C442.039 84.7361 441.815 84.4958 441.526 84.3201C441.241 84.1445 440.907 84.0566 440.522 84.0566C440.105 84.0566 439.74 84.1594 439.428 84.3649C439.12 84.5671 438.882 84.8322 438.713 85.1603C438.547 85.4851 438.464 85.8381 438.464 86.2193V87.0893C438.464 87.5997 438.553 88.0339 438.732 88.3919C438.915 88.7498 439.168 89.0233 439.493 89.2122C439.818 89.3978 440.197 89.4906 440.632 89.4906C440.913 89.4906 441.17 89.4508 441.402 89.3713C441.634 89.2884 441.835 89.1658 442.004 89.0034C442.173 88.841 442.302 88.6404 442.392 88.4018L443.798 88.6554C443.686 89.0697 443.484 89.4326 443.192 89.7441C442.904 90.0524 442.541 90.2927 442.103 90.465C441.669 90.6341 441.173 90.7186 440.617 90.7186ZM451.265 84.7924L449.917 85.0311C449.861 84.8587 449.771 84.6947 449.649 84.5389C449.529 84.3831 449.367 84.2555 449.162 84.1561C448.956 84.0566 448.699 84.0069 448.391 84.0069C447.97 84.0069 447.619 84.1014 447.337 84.2903C447.055 84.4759 446.914 84.7162 446.914 85.0112C446.914 85.2664 447.009 85.4719 447.198 85.6277C447.387 85.7834 447.692 85.911 448.113 86.0105L449.326 86.2889C450.028 86.4513 450.552 86.7015 450.897 87.0396C451.241 87.3777 451.414 87.8168 451.414 88.3571C451.414 88.8145 451.281 89.2221 451.016 89.5801C450.754 89.9347 450.388 90.2131 449.917 90.4153C449.45 90.6175 448.908 90.7186 448.292 90.7186C447.436 90.7186 446.739 90.5363 446.199 90.1717C445.658 89.8038 445.327 89.2818 445.204 88.6056L446.641 88.3869C446.73 88.7614 446.914 89.0448 447.193 89.237C447.471 89.426 447.834 89.5204 448.282 89.5204C448.769 89.5204 449.158 89.4193 449.45 89.2172C449.742 89.0117 449.887 88.7614 449.887 88.4664C449.887 88.2278 449.798 88.0273 449.619 87.8649C449.443 87.7025 449.173 87.5798 448.809 87.497L447.516 87.2136C446.803 87.0512 446.276 86.7927 445.935 86.438C445.597 86.0834 445.428 85.6343 445.428 85.0907C445.428 84.64 445.554 84.2456 445.806 83.9075C446.058 83.5694 446.406 83.3059 446.85 83.117C447.294 82.9248 447.803 82.8287 448.376 82.8287C449.201 82.8287 449.851 83.0076 450.325 83.3656C450.799 83.7202 451.112 84.1958 451.265 84.7924Z" fill="#FAFAFA"/>
<rect x="473" y="71.5645" width="39" height="27" rx="10" fill="#B2B2CA"/>
<path d="M492.337 80.3826V90.5645H490.925L485.749 83.0971H485.655V90.5645H484.119V80.3826H485.54L490.721 87.8599H490.815V80.3826H492.337ZM497.675 90.7186C496.959 90.7186 496.334 90.5545 495.801 90.2264C495.267 89.8983 494.853 89.4392 494.558 88.8493C494.263 88.2593 494.115 87.5699 494.115 86.7811C494.115 85.9889 494.263 85.2962 494.558 84.7029C494.853 84.1097 495.267 83.649 495.801 83.3208C496.334 82.9927 496.959 82.8287 497.675 82.8287C498.391 82.8287 499.016 82.9927 499.549 83.3208C500.083 83.649 500.497 84.1097 500.792 84.7029C501.087 85.2962 501.235 85.9889 501.235 86.7811C501.235 87.5699 501.087 88.2593 500.792 88.8493C500.497 89.4392 500.083 89.8983 499.549 90.2264C499.016 90.5545 498.391 90.7186 497.675 90.7186ZM497.68 89.4707C498.144 89.4707 498.528 89.3481 498.833 89.1028C499.138 88.8575 499.364 88.5311 499.509 88.1234C499.659 87.7157 499.733 87.2666 499.733 86.7761C499.733 86.2889 499.659 85.8414 499.509 85.4338C499.364 85.0228 499.138 84.693 498.833 84.4444C498.528 84.1958 498.144 84.0716 497.68 84.0716C497.213 84.0716 496.825 84.1958 496.517 84.4444C496.212 84.693 495.985 85.0228 495.835 85.4338C495.69 85.8414 495.617 86.2889 495.617 86.7761C495.617 87.2666 495.69 87.7157 495.835 88.1234C495.985 88.5311 496.212 88.8575 496.517 89.1028C496.825 89.3481 497.213 89.4707 497.68 89.4707Z" fill="#121231"/>
<path d="M489.014 149.796L481.316 145.334C480.368 144.784 479.15 145.102 478.597 146.044L459.724 178.147L447.298 170.945C446.529 170.499 445.542 170.756 445.093 171.52L440.22 179.809C439.771 180.572 440.031 181.552 440.799 181.998L462.964 194.846C463.733 195.292 464.72 195.034 465.169 194.271L465.348 193.965C465.352 193.959 465.356 193.954 465.36 193.948L489.729 152.496C490.282 151.555 489.962 150.346 489.014 149.796Z" fill="#61A05F"/>
</svg>
