<svg width="510" height="326" viewBox="0 0 510 326" fill="none" xmlns="http://www.w3.org/2000/svg">
<rect x="1.68651" y="1.75096" width="506.627" height="322.46" rx="11.131" stroke="#A33CB3" stroke-width="3.37302"/>
<path d="M132.92 155.909L141.975 187.042H142.32L151.375 155.909H164.915L150.34 200.064H133.955L119.38 155.909H132.92ZM181.156 155.909V200.064H169.168V155.909H181.156ZM210.64 169.707C210.525 168.27 209.986 167.149 209.023 166.344C208.074 165.539 206.629 165.136 204.689 165.136C203.453 165.136 202.44 165.287 201.649 165.589C200.873 165.877 200.298 166.272 199.924 166.775C199.55 167.278 199.356 167.853 199.342 168.5C199.313 169.032 199.407 169.513 199.622 169.944C199.852 170.361 200.212 170.742 200.7 171.087C201.189 171.418 201.814 171.72 202.576 171.993C203.338 172.266 204.243 172.51 205.293 172.726L208.915 173.502C211.358 174.019 213.45 174.702 215.189 175.55C216.928 176.398 218.351 177.397 219.458 178.547C220.565 179.683 221.377 180.962 221.894 182.385C222.426 183.808 222.699 185.36 222.714 187.042C222.699 189.945 221.973 192.403 220.536 194.416C219.099 196.428 217.043 197.959 214.37 199.008C211.711 200.057 208.512 200.582 204.775 200.582C200.937 200.582 197.588 200.014 194.728 198.879C191.882 197.743 189.669 195.997 188.087 193.639C186.521 191.268 185.73 188.235 185.716 184.541H197.1C197.172 185.892 197.509 187.028 198.113 187.947C198.717 188.867 199.565 189.565 200.657 190.039C201.764 190.513 203.079 190.75 204.603 190.75C205.882 190.75 206.953 190.592 207.815 190.276C208.678 189.96 209.332 189.521 209.777 188.961C210.223 188.4 210.453 187.761 210.467 187.042C210.453 186.366 210.23 185.777 209.799 185.274C209.382 184.757 208.692 184.297 207.729 183.894C206.766 183.477 205.465 183.089 203.827 182.73L199.428 181.781C195.519 180.933 192.435 179.517 190.179 177.534C187.937 175.536 186.823 172.812 186.837 169.362C186.823 166.559 187.57 164.109 189.079 162.01C190.603 159.897 192.709 158.252 195.396 157.073C198.099 155.894 201.196 155.305 204.689 155.305C208.254 155.305 211.337 155.901 213.938 157.094C216.54 158.287 218.545 159.969 219.954 162.14C221.377 164.296 222.096 166.818 222.11 169.707H210.64ZM253.405 155.909H265.393V184.196C265.393 187.559 264.588 190.47 262.978 192.928C261.382 195.371 259.154 197.262 256.294 198.598C253.434 199.921 250.113 200.582 246.333 200.582C242.524 200.582 239.189 199.921 236.329 198.598C233.469 197.262 231.241 195.371 229.645 192.928C228.064 190.47 227.274 187.559 227.274 184.196V155.909H239.261V183.161C239.261 184.527 239.563 185.748 240.167 186.826C240.77 187.89 241.604 188.724 242.668 189.327C243.746 189.931 244.968 190.233 246.333 190.233C247.713 190.233 248.935 189.931 249.998 189.327C251.062 188.724 251.896 187.89 252.499 186.826C253.103 185.748 253.405 184.527 253.405 183.161V155.909ZM282.56 200.064H269.624L284.199 155.909H300.585L315.159 200.064H302.223L292.564 168.069H292.219L282.56 200.064ZM280.145 182.644H304.465V191.613H280.145V182.644ZM319.412 200.064V155.909H331.4V190.405H349.252V200.064H319.412ZM377.9 169.707C377.785 168.27 377.246 167.149 376.283 166.344C375.335 165.539 373.89 165.136 371.95 165.136C370.714 165.136 369.7 165.287 368.91 165.589C368.134 165.877 367.559 166.272 367.185 166.775C366.811 167.278 366.617 167.853 366.603 168.5C366.574 169.032 366.667 169.513 366.883 169.944C367.113 170.361 367.472 170.742 367.961 171.087C368.45 171.418 369.075 171.72 369.837 171.993C370.599 172.266 371.504 172.51 372.553 172.726L376.176 173.502C378.619 174.019 380.71 174.702 382.45 175.55C384.189 176.398 385.612 177.397 386.719 178.547C387.825 179.683 388.638 180.962 389.155 182.385C389.687 183.808 389.96 185.36 389.974 187.042C389.96 189.945 389.234 192.403 387.797 194.416C386.359 196.428 384.304 197.959 381.63 199.008C378.971 200.057 375.773 200.582 372.036 200.582C368.198 200.582 364.849 200.014 361.989 198.879C359.143 197.743 356.929 195.997 355.348 193.639C353.781 191.268 352.991 188.235 352.977 184.541H364.36C364.432 185.892 364.77 187.028 365.374 187.947C365.977 188.867 366.826 189.565 367.918 190.039C369.025 190.513 370.34 190.75 371.864 190.75C373.143 190.75 374.214 190.592 375.076 190.276C375.938 189.96 376.592 189.521 377.038 188.961C377.484 188.4 377.714 187.761 377.728 187.042C377.714 186.366 377.491 185.777 377.06 185.274C376.643 184.757 375.953 184.297 374.99 183.894C374.027 183.477 372.726 183.089 371.087 182.73L366.689 181.781C362.779 180.933 359.696 179.517 357.44 177.534C355.197 175.536 354.083 172.812 354.098 169.362C354.083 166.559 354.831 164.109 356.34 162.01C357.864 159.897 359.969 158.252 362.657 157.073C365.359 155.894 368.457 155.305 371.95 155.305C375.514 155.305 378.598 155.901 381.199 157.094C383.801 158.287 385.806 159.969 387.215 162.14C388.638 164.296 389.356 166.818 389.371 169.707H377.9Z" fill="#424242"/>
<rect x="186.528" y="61.8311" width="51.9444" height="53.2937" rx="25.9722" fill="url(#paint0_linear_60_1833)"/>
<path d="M195.635 80.0454L212.5 96.9105L229.365 80.0454" stroke="black" stroke-width="4.72222"/>
<rect x="18.5515" y="67.9023" width="127.4" height="42.4" rx="3.57" fill="url(#paint1_linear_60_1833)"/>
<path d="M41.7079 86.9889H38.1329C38.1075 86.6931 38.0399 86.4248 37.93 86.1839C37.8244 85.943 37.6765 85.7359 37.4863 85.5627C37.3004 85.3852 37.0743 85.25 36.8081 85.157C36.5418 85.0598 36.2397 85.0112 35.9016 85.0112C35.31 85.0112 34.8092 85.1549 34.3993 85.4422C33.9936 85.7296 33.6851 86.1416 33.4739 86.6783C33.2668 87.215 33.1633 87.8594 33.1633 88.6116C33.1633 89.4061 33.2689 90.0717 33.4802 90.6083C33.6957 91.1408 34.0063 91.5423 34.412 91.8127C34.8177 92.0789 35.3058 92.2121 35.8763 92.2121C36.2016 92.2121 36.4932 92.1719 36.751 92.0916C37.0088 92.0071 37.2327 91.8867 37.4229 91.7303C37.6131 91.574 37.7673 91.3859 37.8856 91.1662C38.0082 90.9422 38.0906 90.6907 38.1329 90.4118L41.7079 90.4372C41.6657 90.9866 41.5114 91.5465 41.2452 92.117C40.979 92.6832 40.6008 93.2072 40.1106 93.689C39.6246 94.1665 39.0224 94.5511 38.304 94.8426C37.5856 95.1342 36.751 95.28 35.8002 95.28C34.6085 95.28 33.5394 95.0244 32.5928 94.513C31.6504 94.0017 30.9045 93.2495 30.3552 92.2564C29.81 91.2634 29.5375 90.0484 29.5375 88.6116C29.5375 87.1664 29.8164 85.9493 30.3742 84.9605C30.932 83.9674 31.6842 83.2173 32.6308 82.7102C33.5774 82.1989 34.6339 81.9432 35.8002 81.9432C36.62 81.9432 37.3743 82.0552 38.0631 82.2792C38.7519 82.5032 39.3562 82.8307 39.876 83.2617C40.3958 83.6885 40.8142 84.2146 41.1311 84.8401C41.448 85.4655 41.6403 86.1818 41.7079 86.9889ZM43.3069 95.1025V82.1207H46.8312V92.2628H52.0798V95.1025H43.3069ZM57.0288 82.1207V95.1025H53.5044V82.1207H57.0288ZM70.8188 86.9889H67.2437C67.2183 86.6931 67.1507 86.4248 67.0409 86.1839C66.9352 85.943 66.7873 85.7359 66.5971 85.5627C66.4112 85.3852 66.1851 85.25 65.9189 85.157C65.6527 85.0598 65.3505 85.0112 65.0124 85.0112C64.4208 85.0112 63.9201 85.1549 63.5102 85.4422C63.1045 85.7296 62.796 86.1416 62.5847 86.6783C62.3776 87.215 62.2741 87.8594 62.2741 88.6116C62.2741 89.4061 62.3797 90.0717 62.591 90.6083C62.8065 91.1408 63.1171 91.5423 63.5228 91.8127C63.9285 92.0789 64.4166 92.2121 64.9871 92.2121C65.3125 92.2121 65.6041 92.1719 65.8618 92.0916C66.1196 92.0071 66.3436 91.8867 66.5338 91.7303C66.7239 91.574 66.8782 91.3859 66.9965 91.1662C67.119 90.9422 67.2014 90.6907 67.2437 90.4118L70.8188 90.4372C70.7765 90.9866 70.6223 91.5465 70.356 92.117C70.0898 92.6832 69.7116 93.2072 69.2214 93.689C68.7354 94.1665 68.1332 94.5511 67.4148 94.8426C66.6964 95.1342 65.8618 95.28 64.911 95.28C63.7193 95.28 62.6502 95.0244 61.7036 94.513C60.7612 94.0017 60.0154 93.2495 59.466 92.2564C58.9209 91.2634 58.6483 90.0484 58.6483 88.6116C58.6483 87.1664 58.9272 85.9493 59.485 84.9605C60.0428 83.9674 60.795 83.2173 61.7416 82.7102C62.6882 82.1989 63.7447 81.9432 64.911 81.9432C65.7308 81.9432 66.4852 82.0552 67.174 82.2792C67.8628 82.5032 68.4671 82.8307 68.9869 83.2617C69.5066 83.6885 69.925 84.2146 70.2419 84.8401C70.5589 85.4655 70.7512 86.1818 70.8188 86.9889ZM72.4177 95.1025V82.1207H75.9421V87.3692H76.1196L80.0243 82.1207H84.1318L79.7453 87.9017L84.2332 95.1025H80.0243L77.1084 90.2344L75.9421 91.7557V95.1025H72.4177ZM88.7337 95.1025V82.1207H92.2581V87.1917H96.9234V82.1207H100.448V95.1025H96.9234V90.0315H92.2581V95.1025H88.7337ZM102.121 95.1025V82.1207H111.477V84.9605H105.646V87.1917H110.996V90.0315H105.646V92.2628H111.452V95.1025H102.121ZM113.225 95.1025V82.1207H118.829C119.792 82.1207 120.635 82.2961 121.358 82.6468C122.08 82.9976 122.643 83.5026 123.044 84.1618C123.445 84.821 123.646 85.6113 123.646 86.5325C123.646 87.4622 123.439 88.2461 123.025 88.8842C122.615 89.5223 122.038 90.004 121.294 90.3294C120.555 90.6548 119.691 90.8175 118.702 90.8175H115.355V88.0792H117.992C118.406 88.0792 118.759 88.0285 119.051 87.927C119.346 87.8214 119.572 87.6545 119.729 87.4263C119.889 87.1981 119.97 86.9002 119.97 86.5325C119.97 86.1606 119.889 85.8585 119.729 85.6261C119.572 85.3894 119.346 85.2162 119.051 85.1063C118.759 84.9922 118.406 84.9351 117.992 84.9351H116.75V95.1025H113.225ZM120.832 89.1441L124.077 95.1025H120.249L117.079 89.1441H120.832ZM125.148 95.1025V82.1207H134.504V84.9605H128.673V87.1917H134.023V90.0315H128.673V92.2628H134.479V95.1025H125.148Z" fill="#1B0505"/>
<rect x="18.9937" y="222.198" width="155.204" height="85.3401" rx="8.40136" stroke="url(#paint2_linear_60_1833)" stroke-width="0.884354"/>
<path d="M46.0134 261.575V259.113H55.7959V261.575H52.4105V270.368H49.3988V261.575H46.0134ZM60.0236 265.62V270.368H56.9899V259.113H59.9137V263.531H60.0016C60.1921 262.993 60.509 262.573 60.9524 262.273C61.3957 261.969 61.9288 261.817 62.5516 261.817C63.1489 261.817 63.6673 261.952 64.107 262.223C64.5503 262.495 64.8929 262.868 65.1347 263.345C65.3802 263.821 65.5011 264.367 65.4974 264.982V270.368H62.4637V265.62C62.4674 265.202 62.363 264.874 62.1504 264.636C61.9416 264.398 61.643 264.279 61.2546 264.279C61.0092 264.279 60.793 264.334 60.6061 264.444C60.4229 264.55 60.28 264.704 60.1775 264.905C60.0785 265.103 60.0272 265.341 60.0236 265.62ZM66.995 270.368V261.927H70.0287V270.368H66.995ZM68.5118 261.047C68.1015 261.047 67.7498 260.912 67.4567 260.641C67.1635 260.369 67.017 260.043 67.017 259.662C67.017 259.281 67.1635 258.955 67.4567 258.684C67.7498 258.413 68.1015 258.277 68.5118 258.277C68.9259 258.277 69.2776 258.413 69.567 258.684C69.8602 258.955 70.0067 259.281 70.0067 259.662C70.0067 260.043 69.8602 260.369 69.567 260.641C69.2776 260.912 68.9259 261.047 68.5118 261.047ZM79.2905 264.675H76.4986C76.484 264.502 76.4235 264.354 76.3173 264.229C76.211 264.105 76.0736 264.01 75.9051 263.944C75.7402 263.874 75.557 263.839 75.3555 263.839C75.0954 263.839 74.8719 263.887 74.685 263.982C74.4982 264.077 74.4066 264.213 74.4102 264.389C74.4066 264.513 74.4597 264.629 74.5696 264.735C74.6832 264.841 74.9012 264.924 75.2236 264.982L76.9383 265.29C77.803 265.448 78.446 265.713 78.8673 266.087C79.2923 266.457 79.5067 266.953 79.5103 267.576C79.5067 268.177 79.3271 268.699 78.9717 269.143C78.62 269.582 78.1382 269.923 77.5263 270.165C76.9181 270.403 76.2238 270.522 75.4434 270.522C74.1537 270.522 73.1444 270.258 72.4152 269.731C71.6898 269.203 71.2849 268.507 71.2007 267.642H74.2124C74.2527 267.91 74.3846 268.117 74.6081 268.263C74.8352 268.406 75.121 268.478 75.4654 268.478C75.7439 268.478 75.9729 268.43 76.1524 268.335C76.3356 268.239 76.429 268.104 76.4327 267.928C76.429 267.767 76.3484 267.639 76.1909 267.543C76.037 267.448 75.7952 267.371 75.4654 267.312L73.9706 267.049C73.1095 266.898 72.4647 266.613 72.036 266.191C71.6074 265.77 71.3949 265.228 71.3985 264.565C71.3949 263.978 71.5487 263.482 71.8602 263.075C72.1753 262.665 72.6241 262.353 73.2066 262.141C73.7929 261.925 74.4872 261.817 75.2895 261.817C76.5096 261.817 77.4714 262.069 78.1748 262.575C78.882 263.081 79.2539 263.781 79.2905 264.675ZM83.7558 270.368V261.927H86.7895V270.368H83.7558ZM85.2727 261.047C84.8623 261.047 84.5106 260.912 84.2175 260.641C83.9244 260.369 83.7778 260.043 83.7778 259.662C83.7778 259.281 83.9244 258.955 84.2175 258.684C84.5106 258.413 84.8623 258.277 85.2727 258.277C85.6867 258.277 86.0384 258.413 86.3279 258.684C86.621 258.955 86.7675 259.281 86.7675 259.662C86.7675 260.043 86.621 260.369 86.3279 260.641C86.0384 260.912 85.6867 261.047 85.2727 261.047ZM96.0513 264.675H93.2595C93.2448 264.502 93.1844 264.354 93.0781 264.229C92.9718 264.105 92.8345 264.01 92.6659 263.944C92.501 263.874 92.3178 263.839 92.1163 263.839C91.8562 263.839 91.6327 263.887 91.4458 263.982C91.259 264.077 91.1674 264.213 91.1711 264.389C91.1674 264.513 91.2205 264.629 91.3304 264.735C91.444 264.841 91.662 264.924 91.9844 264.982L93.6991 265.29C94.5638 265.448 95.2068 265.713 95.6282 266.087C96.0532 266.457 96.2675 266.953 96.2712 267.576C96.2675 268.177 96.088 268.699 95.7326 269.143C95.3808 269.582 94.899 269.923 94.2872 270.165C93.679 270.403 92.9847 270.522 92.2043 270.522C90.9146 270.522 89.9052 270.258 89.1761 269.731C88.4506 269.203 88.0458 268.507 87.9615 267.642H90.9732C91.0135 267.91 91.1454 268.117 91.3689 268.263C91.5961 268.406 91.8818 268.478 92.2263 268.478C92.5047 268.478 92.7337 268.43 92.9132 268.335C93.0964 268.239 93.1898 268.104 93.1935 267.928C93.1898 267.767 93.1092 267.639 92.9517 267.543C92.7978 267.448 92.556 267.371 92.2263 267.312L90.7314 267.049C89.8704 266.898 89.2255 266.613 88.7969 266.191C88.3682 265.77 88.1557 265.228 88.1594 264.565C88.1557 263.978 88.3096 263.482 88.621 263.075C88.9361 262.665 89.3849 262.353 89.9675 262.141C90.5537 261.925 91.248 261.817 92.0504 261.817C93.2705 261.817 94.2322 262.069 94.9357 262.575C95.6428 263.081 96.0147 263.781 96.0513 264.675ZM102.869 270.5C102.33 270.5 101.854 270.412 101.44 270.236C101.03 270.057 100.707 269.786 100.473 269.423C100.238 269.06 100.121 268.599 100.121 268.038C100.121 267.576 100.2 267.182 100.357 266.856C100.515 266.527 100.735 266.257 101.017 266.048C101.299 265.84 101.627 265.68 102.001 265.57C102.378 265.46 102.785 265.389 103.221 265.356C103.693 265.319 104.072 265.275 104.358 265.224C104.648 265.169 104.857 265.094 104.985 264.999C105.113 264.9 105.177 264.77 105.177 264.609V264.587C105.177 264.367 105.093 264.198 104.924 264.081C104.756 263.964 104.54 263.905 104.276 263.905C103.986 263.905 103.75 263.969 103.567 264.097C103.387 264.222 103.279 264.414 103.243 264.675H100.451C100.487 264.162 100.65 263.689 100.94 263.257C101.233 262.821 101.66 262.473 102.22 262.212C102.781 261.949 103.481 261.817 104.32 261.817C104.924 261.817 105.467 261.888 105.947 262.031C106.427 262.17 106.835 262.366 107.172 262.619C107.509 262.868 107.766 263.161 107.942 263.498C108.121 263.832 108.211 264.195 108.211 264.587V270.368H105.375V269.181H105.309C105.14 269.496 104.935 269.751 104.693 269.945C104.455 270.139 104.182 270.28 103.875 270.368C103.571 270.456 103.235 270.5 102.869 270.5ZM103.858 268.588C104.089 268.588 104.305 268.54 104.507 268.445C104.712 268.349 104.879 268.212 105.007 268.032C105.135 267.853 105.199 267.635 105.199 267.378V266.675C105.119 266.708 105.032 266.739 104.941 266.768C104.853 266.798 104.758 266.825 104.655 266.851C104.556 266.876 104.45 266.9 104.336 266.922C104.226 266.944 104.111 266.964 103.99 266.983C103.756 267.019 103.563 267.08 103.413 267.164C103.266 267.245 103.156 267.345 103.083 267.466C103.014 267.584 102.979 267.716 102.979 267.862C102.979 268.097 103.061 268.276 103.226 268.401C103.391 268.525 103.602 268.588 103.858 268.588ZM116.81 270.522C115.894 270.522 115.11 270.341 114.458 269.978C113.806 269.612 113.306 269.102 112.958 268.45C112.61 267.794 112.436 267.034 112.436 266.169C112.436 265.305 112.61 264.546 112.958 263.894C113.306 263.238 113.806 262.729 114.458 262.366C115.11 262 115.894 261.817 116.81 261.817C117.638 261.817 118.355 261.967 118.959 262.267C119.567 262.564 120.038 262.985 120.372 263.531C120.705 264.074 120.874 264.711 120.877 265.444H118.063C118.023 265.001 117.895 264.664 117.679 264.433C117.466 264.198 117.191 264.081 116.854 264.081C116.591 264.081 116.36 264.158 116.162 264.312C115.964 264.462 115.81 264.691 115.7 264.999C115.59 265.303 115.535 265.686 115.535 266.147C115.535 266.609 115.59 266.994 115.7 267.302C115.81 267.606 115.964 267.835 116.162 267.988C116.36 268.139 116.591 268.214 116.854 268.214C117.078 268.214 117.276 268.163 117.448 268.06C117.62 267.954 117.759 267.8 117.866 267.598C117.975 267.393 118.041 267.144 118.063 266.851H120.877C120.866 267.595 120.696 268.243 120.366 268.796C120.036 269.346 119.569 269.771 118.965 270.071C118.364 270.372 117.646 270.522 116.81 270.522ZM124.481 270.5C123.943 270.5 123.466 270.412 123.052 270.236C122.642 270.057 122.319 269.786 122.085 269.423C121.85 269.06 121.733 268.599 121.733 268.038C121.733 267.576 121.812 267.182 121.97 266.856C122.127 266.527 122.347 266.257 122.629 266.048C122.911 265.84 123.239 265.68 123.613 265.57C123.99 265.46 124.397 265.389 124.833 265.356C125.306 265.319 125.685 265.275 125.971 265.224C126.26 265.169 126.469 265.094 126.597 264.999C126.725 264.9 126.789 264.77 126.789 264.609V264.587C126.789 264.367 126.705 264.198 126.537 264.081C126.368 263.964 126.152 263.905 125.888 263.905C125.599 263.905 125.362 263.969 125.179 264.097C125 264.222 124.891 264.414 124.855 264.675H122.063C122.1 264.162 122.263 263.689 122.552 263.257C122.845 262.821 123.272 262.473 123.833 262.212C124.393 261.949 125.093 261.817 125.932 261.817C126.537 261.817 127.079 261.888 127.559 262.031C128.039 262.17 128.447 262.366 128.784 262.619C129.121 262.868 129.378 263.161 129.554 263.498C129.733 263.832 129.823 264.195 129.823 264.587V270.368H126.987V269.181H126.921C126.753 269.496 126.548 269.751 126.306 269.945C126.068 270.139 125.795 270.28 125.487 270.368C125.183 270.456 124.848 270.5 124.481 270.5ZM125.47 268.588C125.701 268.588 125.917 268.54 126.119 268.445C126.324 268.349 126.491 268.212 126.619 268.032C126.747 267.853 126.811 267.635 126.811 267.378V266.675C126.731 266.708 126.645 266.739 126.553 266.768C126.465 266.798 126.37 266.825 126.267 266.851C126.168 266.876 126.062 266.9 125.949 266.922C125.839 266.944 125.723 266.964 125.602 266.983C125.368 267.019 125.175 267.08 125.025 267.164C124.879 267.245 124.769 267.345 124.695 267.466C124.626 267.584 124.591 267.716 124.591 267.862C124.591 268.097 124.673 268.276 124.838 268.401C125.003 268.525 125.214 268.588 125.47 268.588ZM131.273 270.368V261.927H134.218V263.531H134.306C134.46 262.938 134.704 262.504 135.037 262.229C135.374 261.954 135.768 261.817 136.219 261.817C136.351 261.817 136.481 261.828 136.609 261.85C136.741 261.868 136.867 261.895 136.988 261.932V264.521C136.838 264.469 136.653 264.431 136.433 264.405C136.213 264.38 136.025 264.367 135.867 264.367C135.57 264.367 135.303 264.435 135.065 264.57C134.83 264.702 134.645 264.889 134.51 265.131C134.374 265.369 134.306 265.649 134.306 265.972V270.368H131.273ZM140.555 270.478C139.954 270.478 139.401 270.321 138.895 270.005C138.393 269.69 137.99 269.212 137.686 268.571C137.386 267.93 137.236 267.122 137.236 266.147C137.236 265.129 137.393 264.301 137.708 263.663C138.027 263.026 138.437 262.559 138.939 262.262C139.445 261.965 139.976 261.817 140.533 261.817C140.951 261.817 141.317 261.89 141.632 262.037C141.947 262.179 142.211 262.372 142.424 262.614C142.636 262.852 142.797 263.114 142.907 263.399H142.951V259.113H145.985V270.368H142.973V268.983H142.907C142.79 269.269 142.621 269.525 142.402 269.753C142.185 269.976 141.922 270.154 141.61 270.286C141.302 270.414 140.951 270.478 140.555 270.478ZM141.676 268.148C141.955 268.148 142.193 268.067 142.391 267.906C142.592 267.741 142.746 267.51 142.852 267.214C142.962 266.913 143.017 266.558 143.017 266.147C143.017 265.73 142.962 265.372 142.852 265.076C142.746 264.775 142.592 264.546 142.391 264.389C142.193 264.228 141.955 264.147 141.676 264.147C141.398 264.147 141.16 264.228 140.962 264.389C140.768 264.546 140.617 264.775 140.511 265.076C140.408 265.372 140.357 265.73 140.357 266.147C140.357 266.565 140.408 266.924 140.511 267.225C140.617 267.521 140.768 267.75 140.962 267.912C141.16 268.069 141.398 268.148 141.676 268.148Z" fill="#9373D7"/>
<rect x="178.62" y="222.198" width="155.204" height="85.3401" rx="8.40136" stroke="url(#paint3_linear_60_1833)" stroke-width="0.884354"/>
<path d="M205.639 261.575V259.113H215.422V261.575H212.036V270.368H209.025V261.575H205.639ZM219.65 265.62V270.368H216.616V259.113H219.54V263.531H219.628C219.818 262.993 220.135 262.573 220.578 262.273C221.022 261.969 221.555 261.817 222.178 261.817C222.775 261.817 223.293 261.952 223.733 262.223C224.176 262.495 224.519 262.868 224.761 263.345C225.006 263.821 225.127 264.367 225.123 264.982V270.368H222.09V265.62C222.093 265.202 221.989 264.874 221.776 264.636C221.568 264.398 221.269 264.279 220.881 264.279C220.635 264.279 220.419 264.334 220.232 264.444C220.049 264.55 219.906 264.704 219.803 264.905C219.705 265.103 219.653 265.341 219.65 265.62ZM226.621 270.368V261.927H229.655V270.368H226.621ZM228.138 261.047C227.727 261.047 227.376 260.912 227.083 260.641C226.79 260.369 226.643 260.043 226.643 259.662C226.643 259.281 226.79 258.955 227.083 258.684C227.376 258.413 227.727 258.277 228.138 258.277C228.552 258.277 228.904 258.413 229.193 258.684C229.486 258.955 229.633 259.281 229.633 259.662C229.633 260.043 229.486 260.369 229.193 260.641C228.904 260.912 228.552 261.047 228.138 261.047ZM238.916 264.675H236.125C236.11 264.502 236.049 264.354 235.943 264.229C235.837 264.105 235.7 264.01 235.531 263.944C235.366 263.874 235.183 263.839 234.981 263.839C234.721 263.839 234.498 263.887 234.311 263.982C234.124 264.077 234.033 264.213 234.036 264.389C234.033 264.513 234.086 264.629 234.196 264.735C234.309 264.841 234.527 264.924 234.85 264.982L236.564 265.29C237.429 265.448 238.072 265.713 238.493 266.087C238.918 266.457 239.133 266.953 239.136 267.576C239.133 268.177 238.953 268.699 238.598 269.143C238.246 269.582 237.764 269.923 237.152 270.165C236.544 270.403 235.85 270.522 235.069 270.522C233.78 270.522 232.77 270.258 232.041 269.731C231.316 269.203 230.911 268.507 230.827 267.642H233.838C233.879 267.91 234.011 268.117 234.234 268.263C234.461 268.406 234.747 268.478 235.091 268.478C235.37 268.478 235.599 268.43 235.778 268.335C235.962 268.239 236.055 268.104 236.059 267.928C236.055 267.767 235.974 267.639 235.817 267.543C235.663 267.448 235.421 267.371 235.091 267.312L233.597 267.049C232.736 266.898 232.091 266.613 231.662 266.191C231.233 265.77 231.021 265.228 231.024 264.565C231.021 263.978 231.175 263.482 231.486 263.075C231.801 262.665 232.25 262.353 232.833 262.141C233.419 261.925 234.113 261.817 234.916 261.817C236.136 261.817 237.097 262.069 237.801 262.575C238.508 263.081 238.88 263.781 238.916 264.675ZM243.382 270.368V261.927H246.416V270.368H243.382ZM244.899 261.047C244.488 261.047 244.137 260.912 243.843 260.641C243.55 260.369 243.404 260.043 243.404 259.662C243.404 259.281 243.55 258.955 243.843 258.684C244.137 258.413 244.488 258.277 244.899 258.277C245.313 258.277 245.664 258.413 245.954 258.684C246.247 258.955 246.394 259.281 246.394 259.662C246.394 260.043 246.247 260.369 245.954 260.641C245.664 260.912 245.313 261.047 244.899 261.047ZM255.677 264.675H252.885C252.871 264.502 252.81 264.354 252.704 264.229C252.598 264.105 252.46 264.01 252.292 263.944C252.127 263.874 251.944 263.839 251.742 263.839C251.482 263.839 251.259 263.887 251.072 263.982C250.885 264.077 250.793 264.213 250.797 264.389C250.793 264.513 250.846 264.629 250.956 264.735C251.07 264.841 251.288 264.924 251.61 264.982L253.325 265.29C254.19 265.448 254.833 265.713 255.254 266.087C255.679 266.457 255.893 266.953 255.897 267.576C255.893 268.177 255.714 268.699 255.359 269.143C255.007 269.582 254.525 269.923 253.913 270.165C253.305 270.403 252.611 270.522 251.83 270.522C250.541 270.522 249.531 270.258 248.802 269.731C248.077 269.203 247.672 268.507 247.587 267.642H250.599C250.639 267.91 250.771 268.117 250.995 268.263C251.222 268.406 251.508 268.478 251.852 268.478C252.131 268.478 252.36 268.43 252.539 268.335C252.722 268.239 252.816 268.104 252.819 267.928C252.816 267.767 252.735 267.639 252.578 267.543C252.424 267.448 252.182 267.371 251.852 267.312L250.357 267.049C249.496 266.898 248.852 266.613 248.423 266.191C247.994 265.77 247.782 265.228 247.785 264.565C247.782 263.978 247.936 263.482 248.247 263.075C248.562 262.665 249.011 262.353 249.593 262.141C250.18 261.925 250.874 261.817 251.676 261.817C252.896 261.817 253.858 262.069 254.562 262.575C255.269 263.081 255.641 263.781 255.677 264.675ZM262.495 270.5C261.956 270.5 261.48 270.412 261.066 270.236C260.656 270.057 260.333 269.786 260.099 269.423C259.864 269.06 259.747 268.599 259.747 268.038C259.747 267.576 259.826 267.182 259.983 266.856C260.141 266.527 260.361 266.257 260.643 266.048C260.925 265.84 261.253 265.68 261.627 265.57C262.004 265.46 262.411 265.389 262.847 265.356C263.319 265.319 263.698 265.275 263.984 265.224C264.274 265.169 264.483 265.094 264.611 264.999C264.739 264.9 264.803 264.77 264.803 264.609V264.587C264.803 264.367 264.719 264.198 264.55 264.081C264.382 263.964 264.166 263.905 263.902 263.905C263.612 263.905 263.376 263.969 263.193 264.097C263.013 264.222 262.905 264.414 262.869 264.675H260.077C260.113 264.162 260.276 263.689 260.566 263.257C260.859 262.821 261.286 262.473 261.846 262.212C262.407 261.949 263.107 261.817 263.946 261.817C264.55 261.817 265.093 261.888 265.573 262.031C266.052 262.17 266.461 262.366 266.798 262.619C267.135 262.868 267.392 263.161 267.567 263.498C267.747 263.832 267.837 264.195 267.837 264.587V270.368H265.001V269.181H264.935C264.766 269.496 264.561 269.751 264.319 269.945C264.081 270.139 263.808 270.28 263.501 270.368C263.196 270.456 262.861 270.5 262.495 270.5ZM263.484 268.588C263.715 268.588 263.931 268.54 264.133 268.445C264.338 268.349 264.504 268.212 264.633 268.032C264.761 267.853 264.825 267.635 264.825 267.378V266.675C264.744 266.708 264.658 266.739 264.567 266.768C264.479 266.798 264.384 266.825 264.281 266.851C264.182 266.876 264.076 266.9 263.962 266.922C263.852 266.944 263.737 266.964 263.616 266.983C263.382 267.019 263.189 267.08 263.039 267.164C262.892 267.245 262.782 267.345 262.709 267.466C262.64 267.584 262.605 267.716 262.605 267.862C262.605 268.097 262.687 268.276 262.852 268.401C263.017 268.525 263.228 268.588 263.484 268.588ZM276.436 270.522C275.52 270.522 274.736 270.341 274.084 269.978C273.432 269.612 272.932 269.102 272.584 268.45C272.236 267.794 272.062 267.034 272.062 266.169C272.062 265.305 272.236 264.546 272.584 263.894C272.932 263.238 273.432 262.729 274.084 262.366C274.736 262 275.52 261.817 276.436 261.817C277.264 261.817 277.981 261.967 278.585 262.267C279.193 262.564 279.664 262.985 279.998 263.531C280.331 264.074 280.5 264.711 280.503 265.444H277.689C277.649 265.001 277.521 264.664 277.305 264.433C277.092 264.198 276.817 264.081 276.48 264.081C276.217 264.081 275.986 264.158 275.788 264.312C275.59 264.462 275.436 264.691 275.326 264.999C275.216 265.303 275.161 265.686 275.161 266.147C275.161 266.609 275.216 266.994 275.326 267.302C275.436 267.606 275.59 267.835 275.788 267.988C275.986 268.139 276.217 268.214 276.48 268.214C276.704 268.214 276.902 268.163 277.074 268.06C277.246 267.954 277.385 267.8 277.492 267.598C277.601 267.393 277.667 267.144 277.689 266.851H280.503C280.492 267.595 280.322 268.243 279.992 268.796C279.662 269.346 279.195 269.771 278.591 270.071C277.99 270.372 277.272 270.522 276.436 270.522ZM284.107 270.5C283.569 270.5 283.092 270.412 282.678 270.236C282.268 270.057 281.945 269.786 281.711 269.423C281.476 269.06 281.359 268.599 281.359 268.038C281.359 267.576 281.438 267.182 281.596 266.856C281.753 266.527 281.973 266.257 282.255 266.048C282.537 265.84 282.865 265.68 283.239 265.57C283.616 265.46 284.023 265.389 284.459 265.356C284.931 265.319 285.311 265.275 285.596 265.224C285.886 265.169 286.095 265.094 286.223 264.999C286.351 264.9 286.415 264.77 286.415 264.609V264.587C286.415 264.367 286.331 264.198 286.163 264.081C285.994 263.964 285.778 263.905 285.514 263.905C285.225 263.905 284.988 263.969 284.805 264.097C284.626 264.222 284.517 264.414 284.481 264.675H281.689C281.726 264.162 281.889 263.689 282.178 263.257C282.471 262.821 282.898 262.473 283.459 262.212C284.019 261.949 284.719 261.817 285.558 261.817C286.163 261.817 286.705 261.888 287.185 262.031C287.665 262.17 288.073 262.366 288.41 262.619C288.747 262.868 289.004 263.161 289.18 263.498C289.359 263.832 289.449 264.195 289.449 264.587V270.368H286.613V269.181H286.547C286.379 269.496 286.174 269.751 285.932 269.945C285.694 270.139 285.421 270.28 285.113 270.368C284.809 270.456 284.474 270.5 284.107 270.5ZM285.096 268.588C285.327 268.588 285.543 268.54 285.745 268.445C285.95 268.349 286.117 268.212 286.245 268.032C286.373 267.853 286.437 267.635 286.437 267.378V266.675C286.357 266.708 286.271 266.739 286.179 266.768C286.091 266.798 285.996 266.825 285.893 266.851C285.794 266.876 285.688 266.9 285.575 266.922C285.465 266.944 285.349 266.964 285.228 266.983C284.994 267.019 284.801 267.08 284.651 267.164C284.505 267.245 284.395 267.345 284.321 267.466C284.252 267.584 284.217 267.716 284.217 267.862C284.217 268.097 284.299 268.276 284.464 268.401C284.629 268.525 284.84 268.588 285.096 268.588ZM290.899 270.368V261.927H293.844V263.531H293.932C294.086 262.938 294.33 262.504 294.663 262.229C295 261.954 295.394 261.817 295.845 261.817C295.977 261.817 296.107 261.828 296.235 261.85C296.367 261.868 296.493 261.895 296.614 261.932V264.521C296.464 264.469 296.279 264.431 296.059 264.405C295.839 264.38 295.651 264.367 295.493 264.367C295.196 264.367 294.929 264.435 294.691 264.57C294.456 264.702 294.271 264.889 294.136 265.131C294 265.369 293.932 265.649 293.932 265.972V270.368H290.899ZM300.181 270.478C299.58 270.478 299.027 270.321 298.521 270.005C298.019 269.69 297.616 269.212 297.312 268.571C297.012 267.93 296.862 267.122 296.862 266.147C296.862 265.129 297.019 264.301 297.334 263.663C297.653 263.026 298.063 262.559 298.565 262.262C299.071 261.965 299.602 261.817 300.159 261.817C300.577 261.817 300.943 261.89 301.258 262.037C301.573 262.179 301.837 262.372 302.05 262.614C302.262 262.852 302.423 263.114 302.533 263.399H302.577V259.113H305.611V270.368H302.599V268.983H302.533C302.416 269.269 302.247 269.525 302.028 269.753C301.811 269.976 301.548 270.154 301.236 270.286C300.928 270.414 300.577 270.478 300.181 270.478ZM301.302 268.148C301.581 268.148 301.819 268.067 302.017 267.906C302.218 267.741 302.372 267.51 302.478 267.214C302.588 266.913 302.643 266.558 302.643 266.147C302.643 265.73 302.588 265.372 302.478 265.076C302.372 264.775 302.218 264.546 302.017 264.389C301.819 264.228 301.581 264.147 301.302 264.147C301.024 264.147 300.786 264.228 300.588 264.389C300.393 264.546 300.243 264.775 300.137 265.076C300.034 265.372 299.983 265.73 299.983 266.147C299.983 266.565 300.034 266.924 300.137 267.225C300.243 267.521 300.393 267.75 300.588 267.912C300.786 268.069 301.024 268.148 301.302 268.148Z" fill="#9373D7"/>
<circle cx="269.89" cy="97.2969" r="12.5293" fill="#877BD7"/>
<circle cx="269.796" cy="97.2022" r="4.97959" stroke="black" stroke-width="5.46148"/>
<rect x="388.809" y="246.573" width="70.4581" height="36.0494" rx="18.0247" fill="#110303"/>
<rect x="388.809" y="246.573" width="70.4581" height="36.0494" rx="18.0247" stroke="url(#paint4_linear_60_1833)" stroke-width="2.49852"/>
<circle cx="441.242" cy="264.597" r="14.2769" fill="#877BD7"/>
<rect x="469.524" y="19.6684" width="20.2381" height="213.175" rx="10.119" fill="#444444"/>
<rect x="469.524" y="19.6684" width="20.2381" height="213.175" rx="10.119" stroke="#7D7D7D" stroke-width="3.37302"/>
<rect x="474.583" y="24.728" width="10.119" height="134.921" rx="5.05952" fill="#A666D7"/>
<rect x="290.583" y="39.0615" width="142.683" height="28.2673" rx="5.88902" fill="#444444"/>
<rect x="290.583" y="39.0615" width="142.683" height="28.2673" rx="5.88902" stroke="#7D7D7D" stroke-width="1.68258"/>
<path d="M295.781 50.5032V48.6295H303.225V50.5032H300.649V57.1953H298.357V50.5032H295.781ZM304.803 59.6045C304.538 59.6045 304.286 59.5835 304.046 59.5417C303.806 59.5027 303.596 59.4483 303.415 59.3786L303.917 57.739C304.106 57.806 304.279 57.8492 304.435 57.8687C304.594 57.8882 304.729 57.8771 304.841 57.8352C304.955 57.7934 305.038 57.7139 305.088 57.5968L305.138 57.4797L302.879 50.7709H305.288L306.326 55.2212H306.393L307.447 50.7709H309.873L307.53 57.7307C307.413 58.0848 307.243 58.4027 307.02 58.6843C306.8 58.9687 306.51 59.1932 306.15 59.3577C305.79 59.5222 305.341 59.6045 304.803 59.6045ZM310.529 59.6045V50.7709H312.821V51.8918H312.871C312.955 51.6744 313.078 51.475 313.239 51.2937C313.401 51.1097 313.602 50.9633 313.842 50.8546C314.082 50.743 314.36 50.6873 314.678 50.6873C315.102 50.6873 315.505 50.8002 315.887 51.0261C316.272 51.2519 316.584 51.6074 316.824 52.0926C317.067 52.5778 317.188 53.208 317.188 53.9831C317.188 54.7248 317.072 55.3397 316.841 55.8276C316.612 56.3156 316.305 56.6795 315.921 56.9193C315.538 57.1591 315.119 57.279 314.662 57.279C314.36 57.279 314.091 57.2302 313.854 57.1326C313.62 57.0322 313.419 56.897 313.252 56.7269C313.088 56.554 312.961 56.3588 312.871 56.1413H312.838V59.6045H310.529ZM312.788 53.9831C312.788 54.2954 312.828 54.5659 312.909 54.7945C312.993 55.0204 313.11 55.1961 313.26 55.3215C313.414 55.4442 313.596 55.5056 313.808 55.5056C314.02 55.5056 314.2 55.4456 314.348 55.3257C314.498 55.203 314.613 55.0288 314.691 54.8029C314.772 54.5743 314.812 54.301 314.812 53.9831C314.812 53.6652 314.772 53.3934 314.691 53.1675C314.613 52.9389 314.498 52.7646 314.348 52.6447C314.2 52.522 314.02 52.4607 313.808 52.4607C313.596 52.4607 313.414 52.522 313.26 52.6447C313.11 52.7646 312.993 52.9389 312.909 53.1675C312.828 53.3934 312.788 53.6652 312.788 53.9831ZM321.233 57.3124C320.547 57.3124 319.956 57.1814 319.46 56.9193C318.966 56.6544 318.586 56.2752 318.318 55.7816C318.053 55.2853 317.921 54.6914 317.921 53.9999C317.921 53.3362 318.055 52.7562 318.322 52.2599C318.59 51.7636 318.968 51.3774 319.456 51.1013C319.944 50.8253 320.52 50.6873 321.183 50.6873C321.668 50.6873 322.108 50.7626 322.501 50.9131C322.894 51.0637 323.23 51.2826 323.509 51.5698C323.788 51.8542 324.002 52.2 324.153 52.6071C324.303 53.0142 324.379 53.4729 324.379 53.9831V54.5185H318.64V53.247H322.254C322.251 53.063 322.204 52.9012 322.112 52.7618C322.022 52.6196 321.901 52.5095 321.748 52.4314C321.597 52.3505 321.426 52.3101 321.233 52.3101C321.047 52.3101 320.875 52.3505 320.719 52.4314C320.563 52.5095 320.437 52.6182 320.342 52.7576C320.25 52.8971 320.202 53.0602 320.196 53.247V54.6189C320.196 54.8252 320.239 55.0092 320.326 55.171C320.412 55.3327 320.536 55.4596 320.698 55.5516C320.86 55.6436 321.055 55.6896 321.284 55.6896C321.443 55.6896 321.587 55.6673 321.719 55.6227C321.852 55.5781 321.967 55.5139 322.062 55.4303C322.156 55.3438 322.226 55.2407 322.271 55.1208H324.379C324.306 55.5669 324.135 55.9545 323.864 56.2835C323.594 56.6098 323.235 56.8635 322.789 57.0447C322.346 57.2232 321.827 57.3124 321.233 57.3124ZM329.976 53.5816V57.1953H327.667V48.6295H329.892V51.9922H329.959C330.104 51.5823 330.345 51.2631 330.683 51.0344C331.02 50.803 331.426 50.6873 331.9 50.6873C332.354 50.6873 332.749 50.7904 333.084 50.9968C333.421 51.2031 333.682 51.4875 333.866 51.85C334.053 52.2125 334.145 52.628 334.142 53.0964V57.1953H331.833V53.5816C331.836 53.2637 331.756 53.0142 331.595 52.8329C331.436 52.6517 331.208 52.5611 330.913 52.5611C330.726 52.5611 330.561 52.6029 330.419 52.6865C330.28 52.7674 330.171 52.8845 330.093 53.0379C330.018 53.1884 329.979 53.3697 329.976 53.5816ZM338.36 57.3124C337.674 57.3124 337.083 57.1814 336.586 56.9193C336.093 56.6544 335.712 56.2752 335.445 55.7816C335.18 55.2853 335.047 54.6914 335.047 53.9999C335.047 53.3362 335.181 52.7562 335.449 52.2599C335.716 51.7636 336.094 51.3774 336.582 51.1013C337.07 50.8253 337.646 50.6873 338.31 50.6873C338.795 50.6873 339.234 50.7626 339.627 50.9131C340.02 51.0637 340.356 51.2826 340.635 51.5698C340.914 51.8542 341.129 52.2 341.279 52.6071C341.43 53.0142 341.505 53.4729 341.505 53.9831V54.5185H335.767V53.247H339.38C339.378 53.063 339.33 52.9012 339.238 52.7618C339.149 52.6196 339.028 52.5095 338.874 52.4314C338.724 52.3505 338.552 52.3101 338.36 52.3101C338.173 52.3101 338.002 52.3505 337.845 52.4314C337.689 52.5095 337.564 52.6182 337.469 52.7576C337.377 52.8971 337.328 53.0602 337.323 53.247V54.6189C337.323 54.8252 337.366 55.0092 337.452 55.171C337.539 55.3327 337.663 55.4596 337.824 55.5516C337.986 55.6436 338.181 55.6896 338.41 55.6896C338.569 55.6896 338.714 55.6673 338.845 55.6227C338.979 55.5781 339.093 55.5139 339.188 55.4303C339.283 55.3438 339.352 55.2407 339.397 55.1208H341.505C341.433 55.5669 341.261 55.9545 340.991 56.2835C340.72 56.6098 340.362 56.8635 339.916 57.0447C339.472 57.2232 338.954 57.3124 338.36 57.3124ZM342.447 57.1953V50.7709H344.689V51.9922H344.756C344.873 51.5405 345.059 51.2101 345.312 51.001C345.569 50.7918 345.869 50.6873 346.212 50.6873C346.312 50.6873 346.411 50.6956 346.508 50.7124C346.609 50.7263 346.705 50.7472 346.797 50.7751V52.7451C346.683 52.7061 346.542 52.6768 346.375 52.6573C346.207 52.6377 346.064 52.628 345.944 52.628C345.718 52.628 345.514 52.6796 345.333 52.7827C345.155 52.8831 345.014 53.0253 344.911 53.2094C344.808 53.3906 344.756 53.6039 344.756 53.8493V57.1953H342.447ZM350.264 57.3124C349.578 57.3124 348.987 57.1814 348.491 56.9193C347.997 56.6544 347.617 56.2752 347.349 55.7816C347.084 55.2853 346.952 54.6914 346.952 53.9999C346.952 53.3362 347.086 52.7562 347.353 52.2599C347.621 51.7636 347.999 51.3774 348.487 51.1013C348.975 50.8253 349.551 50.6873 350.214 50.6873C350.699 50.6873 351.139 50.7626 351.532 50.9131C351.925 51.0637 352.261 51.2826 352.54 51.5698C352.819 51.8542 353.033 52.2 353.184 52.6071C353.334 53.0142 353.41 53.4729 353.41 53.9831V54.5185H347.671V53.247H351.285C351.282 53.063 351.235 52.9012 351.143 52.7618C351.054 52.6196 350.932 52.5095 350.779 52.4314C350.628 52.3505 350.457 52.3101 350.264 52.3101C350.078 52.3101 349.906 52.3505 349.75 52.4314C349.594 52.5095 349.468 52.6182 349.374 52.7576C349.281 52.8971 349.233 53.0602 349.227 53.247V54.6189C349.227 54.8252 349.27 55.0092 349.357 55.171C349.443 55.3327 349.567 55.4596 349.729 55.5516C349.891 55.6436 350.086 55.6896 350.315 55.6896C350.474 55.6896 350.619 55.6673 350.75 55.6227C350.883 55.5781 350.998 55.5139 351.093 55.4303C351.187 55.3438 351.257 55.2407 351.302 55.1208H353.41C353.337 55.5669 353.166 55.9545 352.895 56.2835C352.625 56.6098 352.266 56.8635 351.82 57.0447C351.377 57.2232 350.858 57.3124 350.264 57.3124ZM355.607 57.3292C355.283 57.3292 355.006 57.2162 354.774 56.9904C354.546 56.7617 354.433 56.4843 354.435 56.158C354.433 55.8402 354.546 55.5683 354.774 55.3424C355.006 55.1166 355.283 55.0037 355.607 55.0037C355.913 55.0037 356.184 55.1166 356.418 55.3424C356.655 55.5683 356.775 55.8402 356.778 56.158C356.775 56.3755 356.718 56.5735 356.606 56.752C356.497 56.9276 356.355 57.0684 356.18 57.1744C356.004 57.2776 355.813 57.3292 355.607 57.3292ZM359.287 57.3292C358.964 57.3292 358.686 57.2162 358.455 56.9904C358.226 56.7617 358.113 56.4843 358.116 56.158C358.113 55.8402 358.226 55.5683 358.455 55.3424C358.686 55.1166 358.964 55.0037 359.287 55.0037C359.594 55.0037 359.864 55.1166 360.099 55.3424C360.336 55.5683 360.456 55.8402 360.458 56.158C360.456 56.3755 360.398 56.5735 360.287 56.752C360.178 56.9276 360.036 57.0684 359.86 57.1744C359.685 57.2776 359.494 57.3292 359.287 57.3292ZM362.968 57.3292C362.644 57.3292 362.367 57.2162 362.135 56.9904C361.907 56.7617 361.794 56.4843 361.797 56.158C361.794 55.8402 361.907 55.5683 362.135 55.3424C362.367 55.1166 362.644 55.0037 362.968 55.0037C363.275 55.0037 363.545 55.1166 363.779 55.3424C364.016 55.5683 364.136 55.8402 364.139 56.158C364.136 56.3755 364.079 56.5735 363.967 56.752C363.859 56.9276 363.716 57.0684 363.541 57.1744C363.365 57.2776 363.174 57.3292 362.968 57.3292Z" fill="#7D7D7D"/>
<defs>
<linearGradient id="paint0_linear_60_1833" x1="197.955" y1="115.125" x2="257.97" y2="63.3587" gradientUnits="userSpaceOnUse">
<stop stop-color="#41ABD9"/>
<stop offset="1" stop-color="#CB4CD6"/>
</linearGradient>
<linearGradient id="paint1_linear_60_1833" x1="46.5795" y1="110.302" x2="78.3874" y2="25.7239" gradientUnits="userSpaceOnUse">
<stop stop-color="#41ABD9"/>
<stop offset="1" stop-color="#CB4CD6"/>
</linearGradient>
<linearGradient id="paint2_linear_60_1833" x1="52.891" y1="307.98" x2="141.078" y2="166.704" gradientUnits="userSpaceOnUse">
<stop stop-color="#41ABD9"/>
<stop offset="1" stop-color="#CB4CD6"/>
</linearGradient>
<linearGradient id="paint3_linear_60_1833" x1="212.517" y1="307.98" x2="300.704" y2="166.704" gradientUnits="userSpaceOnUse">
<stop stop-color="#41ABD9"/>
<stop offset="1" stop-color="#CB4CD6"/>
</linearGradient>
<linearGradient id="paint4_linear_60_1833" x1="403.61" y1="283.871" x2="442.242" y2="219.167" gradientUnits="userSpaceOnUse">
<stop stop-color="#41ABD9"/>
<stop offset="1" stop-color="#CB4CD6"/>
</linearGradient>
</defs>
</svg>
