<svg width="540" height="162" viewBox="0 0 540 162" fill="none" xmlns="http://www.w3.org/2000/svg">
<path d="M31.517 38.0645V20.6099H38.5057C39.7898 20.6099 40.8608 20.8002 41.7188 21.1809C42.5767 21.5616 43.2216 22.09 43.6534 22.7662C44.0852 23.4366 44.3011 24.2093 44.3011 25.0843C44.3011 25.7662 44.1648 26.3656 43.892 26.8826C43.6193 27.394 43.2443 27.8145 42.767 28.144C42.2955 28.4679 41.7557 28.698 41.1477 28.8343V29.0048C41.8125 29.0332 42.4347 29.2207 43.0142 29.5673C43.5994 29.9139 44.0739 30.3997 44.4375 31.0247C44.8011 31.644 44.983 32.3826 44.983 33.2406C44.983 34.1667 44.7528 34.9934 44.2926 35.7207C43.8381 36.4423 43.1648 37.0133 42.2727 37.4338C41.3807 37.8542 40.2813 38.0645 38.9744 38.0645H31.517ZM35.2074 35.0474H38.2159C39.2443 35.0474 39.9943 34.8514 40.4659 34.4593C40.9375 34.0616 41.1733 33.5332 41.1733 32.8741C41.1733 32.3912 41.0568 31.965 40.8239 31.5957C40.5909 31.2264 40.2585 30.9366 39.8267 30.7264C39.4006 30.5162 38.892 30.411 38.3011 30.411H35.2074V35.0474ZM35.2074 27.9139H37.9432C38.4489 27.9139 38.8977 27.8258 39.2898 27.6497C39.6875 27.4679 40 27.2122 40.2273 26.8826C40.4602 26.5531 40.5767 26.1582 40.5767 25.698C40.5767 25.0673 40.3523 24.5588 39.9034 24.1724C39.4602 23.786 38.8295 23.5929 38.0114 23.5929H35.2074V27.9139ZM50.7848 33.2747L55.4979 24.9735H59.0774V38.0645H55.6172V29.7377L50.9212 38.0645H47.3161V24.9735H50.7848V33.2747ZM61.3146 34.3571H64.8345C64.8516 34.7889 65.0447 35.1298 65.4141 35.3798C65.7834 35.6298 66.2607 35.7548 66.8459 35.7548C67.4368 35.7548 67.9339 35.6184 68.3374 35.3457C68.7408 35.0673 68.9425 34.6696 68.9425 34.1525C68.9425 33.8343 68.8629 33.5588 68.7038 33.3258C68.5447 33.0872 68.3232 32.8997 68.0391 32.7633C67.755 32.627 67.4254 32.5588 67.0504 32.5588H65.1669V30.1809H67.0504C67.6129 30.1809 68.0447 30.0502 68.3459 29.7889C68.6527 29.5275 68.8061 29.2008 68.8061 28.8088C68.8061 28.3656 68.647 28.0105 68.3288 27.7434C68.0163 27.4707 67.593 27.3343 67.0589 27.3343C66.5192 27.3343 66.0703 27.4565 65.7124 27.7008C65.3601 27.9395 65.1783 28.252 65.1669 28.6383H61.6641C61.6754 27.8542 61.9112 27.1752 62.3714 26.6014C62.8374 26.0275 63.4624 25.5843 64.2464 25.2718C65.0362 24.9593 65.9197 24.8031 66.897 24.8031C67.9652 24.8031 68.8857 24.9537 69.6584 25.2548C70.4368 25.5502 71.0334 25.9735 71.4482 26.5247C71.8686 27.0758 72.0788 27.7321 72.0788 28.4934C72.0788 29.1866 71.8516 29.7662 71.397 30.2321C70.9425 30.698 70.3061 31.0304 69.4879 31.2292V31.3656C70.0277 31.3997 70.5163 31.5446 70.9538 31.8002C71.3913 32.0559 71.7408 32.4082 72.0021 32.8571C72.2635 33.3002 72.3942 33.8258 72.3942 34.4338C72.3942 35.2463 72.1555 35.9423 71.6783 36.5218C71.2067 37.1014 70.5533 37.5474 69.718 37.8599C68.8885 38.1667 67.9368 38.3201 66.8629 38.3201C65.8175 38.3201 64.88 38.1696 64.0504 37.8684C63.2266 37.5616 62.5703 37.1127 62.0817 36.5218C61.5987 35.9309 61.343 35.2093 61.3146 34.3571ZM76.8622 42.9735C76.402 42.9735 75.9702 42.9366 75.5668 42.8627C75.169 42.7946 74.8395 42.7065 74.5781 42.5985L75.3963 39.8883C75.8224 40.019 76.206 40.09 76.5469 40.1014C76.8935 40.1127 77.1918 40.0332 77.4418 39.8627C77.6974 39.6923 77.9048 39.4025 78.0639 38.9934L78.277 38.4395L73.581 24.9735H77.3991L80.1094 34.5872H80.2457L82.9815 24.9735H86.8253L81.7372 39.4792C81.4929 40.1838 81.1605 40.7974 80.7401 41.3201C80.3253 41.8485 79.7997 42.2548 79.1634 42.5389C78.527 42.8287 77.7599 42.9735 76.8622 42.9735ZM92.0646 38.3116C91.2294 38.3116 90.4851 38.1667 89.8317 37.877C89.1783 37.5815 88.6612 37.1468 88.2805 36.573C87.9055 35.9934 87.718 35.2718 87.718 34.4082C87.718 33.6809 87.8516 33.0701 88.1186 32.5758C88.3857 32.0815 88.7493 31.6838 89.2095 31.3826C89.6697 31.0815 90.1925 30.8542 90.7777 30.7008C91.3686 30.5474 91.9879 30.4395 92.6357 30.377C93.397 30.2974 94.0107 30.2235 94.4766 30.1554C94.9425 30.0815 95.2805 29.9735 95.4908 29.8315C95.701 29.6895 95.8061 29.4792 95.8061 29.2008V29.1497C95.8061 28.6099 95.6357 28.1923 95.2947 27.8968C94.9595 27.6014 94.4822 27.4537 93.8629 27.4537C93.2095 27.4537 92.6896 27.5985 92.3033 27.8883C91.9169 28.1724 91.6612 28.5304 91.5362 28.9622L88.1783 28.6895C88.3487 27.894 88.6839 27.2065 89.1839 26.627C89.6839 26.0417 90.3288 25.5929 91.1186 25.2804C91.9141 24.9622 92.8345 24.8031 93.88 24.8031C94.6072 24.8031 95.3033 24.8883 95.968 25.0588C96.6385 25.2292 97.2322 25.4934 97.7493 25.8514C98.272 26.2093 98.6839 26.6696 98.9851 27.2321C99.2862 27.7889 99.4368 28.4565 99.4368 29.2349V38.0645H95.9936V36.2491H95.8913C95.6811 36.6582 95.3999 37.019 95.0476 37.3315C94.6953 37.6383 94.272 37.8798 93.7777 38.0559C93.2834 38.2264 92.7124 38.3116 92.0646 38.3116ZM93.1044 35.8059C93.6385 35.8059 94.1101 35.7008 94.5192 35.4906C94.9283 35.2747 95.2493 34.9849 95.4822 34.6213C95.7152 34.2576 95.8317 33.8457 95.8317 33.3855V31.9963C95.718 32.0701 95.5618 32.1383 95.3629 32.2008C95.1697 32.2576 94.951 32.3116 94.7067 32.3627C94.4624 32.4082 94.218 32.4508 93.9737 32.4906C93.7294 32.5247 93.5078 32.5559 93.3089 32.5843C92.8828 32.6468 92.5107 32.7463 92.1925 32.8826C91.8743 33.019 91.6271 33.2037 91.451 33.4366C91.2749 33.6639 91.1868 33.948 91.1868 34.2889C91.1868 34.7832 91.3658 35.161 91.7237 35.4224C92.0874 35.6781 92.5476 35.8059 93.1044 35.8059ZM101.487 38.0645L101.469 35.1838H101.904C102.211 35.1838 102.475 35.1099 102.697 34.9622C102.924 34.8088 103.112 34.5616 103.259 34.2207C103.407 33.8798 103.523 33.4281 103.609 32.8656C103.694 32.2974 103.751 31.5985 103.779 30.769L103.992 24.9735H113.947V38.0645H110.487V27.8287H107.256L107.052 31.8258C107.001 32.9224 106.867 33.8656 106.651 34.6554C106.441 35.4451 106.148 36.0929 105.773 36.5985C105.398 37.0985 104.947 37.4679 104.418 37.7065C103.89 37.9451 103.276 38.0645 102.577 38.0645H101.487ZM119.037 28.9963H122.949C124.682 28.9963 126.034 29.411 127.006 30.2406C127.977 31.0645 128.463 32.1667 128.463 33.5474C128.463 34.4451 128.244 35.2349 127.807 35.9167C127.369 36.5929 126.739 37.1213 125.915 37.502C125.091 37.877 124.102 38.0645 122.949 38.0645H116.761V24.9735H120.23V35.2093H122.949C123.557 35.2093 124.057 35.0559 124.449 34.7491C124.841 34.4423 125.04 34.0502 125.045 33.573C125.04 33.0673 124.841 32.6554 124.449 32.3372C124.057 32.0133 123.557 31.8514 122.949 31.8514H119.037V28.9963ZM139.982 30.0701V32.9252H133.146V30.0701H139.982ZM134.339 24.9735V38.0645H130.871V24.9735H134.339ZM142.257 24.9735V38.0645H138.814V24.9735H142.257ZM148.807 38.3116C147.972 38.3116 147.227 38.1667 146.574 37.877C145.92 37.5815 145.403 37.1468 145.023 36.573C144.648 35.9934 144.46 35.2718 144.46 34.4082C144.46 33.6809 144.594 33.0701 144.861 32.5758C145.128 32.0815 145.491 31.6838 145.952 31.3826C146.412 31.0815 146.935 30.8542 147.52 30.7008C148.111 30.5474 148.73 30.4395 149.378 30.377C150.139 30.2974 150.753 30.2235 151.219 30.1554C151.685 30.0815 152.023 29.9735 152.233 29.8315C152.443 29.6895 152.548 29.4792 152.548 29.2008V29.1497C152.548 28.6099 152.378 28.1923 152.037 27.8968C151.702 27.6014 151.224 27.4537 150.605 27.4537C149.952 27.4537 149.432 27.5985 149.045 27.8883C148.659 28.1724 148.403 28.5304 148.278 28.9622L144.92 28.6895C145.091 27.894 145.426 27.2065 145.926 26.627C146.426 26.0417 147.071 25.5929 147.861 25.2804C148.656 24.9622 149.577 24.8031 150.622 24.8031C151.349 24.8031 152.045 24.8883 152.71 25.0588C153.381 25.2292 153.974 25.4934 154.491 25.8514C155.014 26.2093 155.426 26.6696 155.727 27.2321C156.028 27.7889 156.179 28.4565 156.179 29.2349V38.0645H152.736V36.2491H152.634C152.423 36.6582 152.142 37.019 151.79 37.3315C151.438 37.6383 151.014 37.8798 150.52 38.0559C150.026 38.2264 149.455 38.3116 148.807 38.3116ZM149.847 35.8059C150.381 35.8059 150.852 35.7008 151.261 35.4906C151.67 35.2747 151.991 34.9849 152.224 34.6213C152.457 34.2576 152.574 33.8457 152.574 33.3855V31.9963C152.46 32.0701 152.304 32.1383 152.105 32.2008C151.912 32.2576 151.693 32.3116 151.449 32.3627C151.205 32.4082 150.96 32.4508 150.716 32.4906C150.472 32.5247 150.25 32.5559 150.051 32.5843C149.625 32.6468 149.253 32.7463 148.935 32.8826C148.616 33.019 148.369 33.2037 148.193 33.4366C148.017 33.6639 147.929 33.948 147.929 34.2889C147.929 34.7832 148.108 35.161 148.466 35.4224C148.83 35.6781 149.29 35.8059 149.847 35.8059ZM166.666 38.0645V27.8201H164.212C163.547 27.8201 163.041 27.9735 162.695 28.2804C162.348 28.5872 162.178 28.9508 162.183 29.3713C162.178 29.7974 162.342 30.1582 162.678 30.4537C163.018 30.7434 163.518 30.8883 164.178 30.8883H167.876V33.3429H164.178C163.058 33.3429 162.089 33.1724 161.271 32.8315C160.453 32.4906 159.822 32.0162 159.379 31.4082C158.936 30.7946 158.717 30.0815 158.723 29.269C158.717 28.4167 158.936 27.6696 159.379 27.0275C159.822 26.3798 160.456 25.877 161.28 25.519C162.109 25.1554 163.087 24.9735 164.212 24.9735H170.05V38.0645H166.666ZM158.348 38.0645L161.987 31.2463H165.456L161.825 38.0645H158.348ZM34.9176 62.2747L39.6307 53.9735H43.2102V67.0645H39.75V58.7377L35.054 67.0645H31.4489V53.9735H34.9176V62.2747ZM52.0866 67.3201C50.7401 67.3201 49.581 67.0474 48.6094 66.502C47.6435 65.9508 46.8991 65.1724 46.3764 64.1667C45.8537 63.1554 45.5923 61.9593 45.5923 60.5787C45.5923 59.2321 45.8537 58.0502 46.3764 57.0332C46.8991 56.0162 47.6349 55.2235 48.5838 54.6554C49.5384 54.0872 50.6577 53.8031 51.9418 53.8031C52.8054 53.8031 53.6094 53.9423 54.3537 54.2207C55.1037 54.4934 55.7571 54.9054 56.3139 55.4565C56.8764 56.0076 57.3139 56.7008 57.6264 57.536C57.9389 58.3656 58.0952 59.3372 58.0952 60.4508V61.448H47.0412V59.198H54.6776C54.6776 58.6752 54.5639 58.2122 54.3366 57.8088C54.1094 57.4054 53.794 57.09 53.3906 56.8627C52.9929 56.6298 52.5298 56.5133 52.0014 56.5133C51.4503 56.5133 50.9616 56.6412 50.5355 56.8968C50.1151 57.1468 49.7855 57.4849 49.5469 57.911C49.3082 58.3315 49.1861 58.8002 49.1804 59.3173V61.4565C49.1804 62.1042 49.2997 62.6639 49.5384 63.1355C49.7827 63.6071 50.1264 63.9707 50.5696 64.2264C51.0128 64.4821 51.5384 64.6099 52.1463 64.6099C52.5497 64.6099 52.919 64.5531 53.2543 64.4395C53.5895 64.3258 53.8764 64.1554 54.1151 63.9281C54.3537 63.7008 54.5355 63.4224 54.6605 63.0929L58.0185 63.3145C57.848 64.1213 57.4986 64.8258 56.9702 65.4281C56.4474 66.0247 55.7713 66.4906 54.9418 66.8258C54.1179 67.1554 53.1662 67.3201 52.0866 67.3201ZM60.4645 71.9735V53.9735H64.044V56.1724H64.206C64.3651 55.8201 64.5952 55.4622 64.8963 55.0985C65.2031 54.7292 65.6009 54.4224 66.0895 54.1781C66.5838 53.9281 67.1974 53.8031 67.9304 53.8031C68.8849 53.8031 69.7656 54.0531 70.5724 54.5531C71.3793 55.0474 72.0241 55.7946 72.5071 56.7946C72.9901 57.7889 73.2315 59.036 73.2315 60.536C73.2315 61.9963 72.9957 63.2292 72.5241 64.2349C72.0582 65.2349 71.4219 65.9934 70.6151 66.5105C69.8139 67.0218 68.9162 67.2775 67.9219 67.2775C67.2173 67.2775 66.6179 67.161 66.1236 66.9281C65.6349 66.6951 65.2344 66.4025 64.9219 66.0502C64.6094 65.6923 64.3707 65.3315 64.206 64.9679H64.0952V71.9735H60.4645ZM64.0185 60.519C64.0185 61.2974 64.1264 61.9764 64.3423 62.5559C64.5582 63.1355 64.8707 63.5872 65.2798 63.911C65.6889 64.2292 66.1861 64.3883 66.7713 64.3883C67.3622 64.3883 67.8622 64.2264 68.2713 63.9025C68.6804 63.573 68.9901 63.1184 69.2003 62.5389C69.4162 61.9537 69.5241 61.2804 69.5241 60.519C69.5241 59.7633 69.419 59.0985 69.2088 58.5247C68.9986 57.9508 68.6889 57.502 68.2798 57.1781C67.8707 56.8542 67.3679 56.6923 66.7713 56.6923C66.1804 56.6923 65.6804 56.8485 65.2713 57.161C64.8679 57.4735 64.5582 57.9167 64.3423 58.4906C64.1264 59.0645 64.0185 59.7406 64.0185 60.519ZM79.3849 67.3116C78.5497 67.3116 77.8054 67.1667 77.152 66.877C76.4986 66.5815 75.9815 66.1468 75.6009 65.573C75.2259 64.9934 75.0384 64.2718 75.0384 63.4082C75.0384 62.6809 75.1719 62.0701 75.4389 61.5758C75.706 61.0815 76.0696 60.6838 76.5298 60.3826C76.9901 60.0815 77.5128 59.8542 78.098 59.7008C78.6889 59.5474 79.3082 59.4395 79.956 59.377C80.7173 59.2974 81.331 59.2235 81.7969 59.1554C82.2628 59.0815 82.6009 58.9735 82.8111 58.8315C83.0213 58.6895 83.1264 58.4792 83.1264 58.2008V58.1497C83.1264 57.6099 82.956 57.1923 82.6151 56.8968C82.2798 56.6014 81.8026 56.4537 81.1832 56.4537C80.5298 56.4537 80.0099 56.5985 79.6236 56.8883C79.2372 57.1724 78.9815 57.5304 78.8565 57.9622L75.4986 57.6895C75.669 56.894 76.0043 56.2065 76.5043 55.627C77.0043 55.0417 77.6491 54.5929 78.4389 54.2804C79.2344 53.9622 80.1548 53.8031 81.2003 53.8031C81.9276 53.8031 82.6236 53.8883 83.2884 54.0588C83.9588 54.2292 84.5526 54.4934 85.0696 54.8514C85.5923 55.2093 86.0043 55.6696 86.3054 56.2321C86.6065 56.7889 86.7571 57.4565 86.7571 58.2349V67.0645H83.3139V65.2491H83.2116C83.0014 65.6582 82.7202 66.019 82.3679 66.3315C82.0156 66.6383 81.5923 66.8798 81.098 67.0559C80.6037 67.2264 80.0327 67.3116 79.3849 67.3116ZM80.4247 64.8059C80.9588 64.8059 81.4304 64.7008 81.8395 64.4906C82.2486 64.2747 82.5696 63.9849 82.8026 63.6213C83.0355 63.2576 83.152 62.8457 83.152 62.3855V60.9963C83.0384 61.0701 82.8821 61.1383 82.6832 61.2008C82.4901 61.2576 82.2713 61.3116 82.027 61.3627C81.7827 61.4082 81.5384 61.4508 81.294 61.4906C81.0497 61.5247 80.8281 61.5559 80.6293 61.5843C80.2031 61.6468 79.831 61.7463 79.5128 61.8826C79.1946 62.019 78.9474 62.2037 78.7713 62.4366C78.5952 62.6639 78.5071 62.948 78.5071 63.2889C78.5071 63.7832 78.6861 64.161 79.044 64.4224C79.4077 64.6781 79.8679 64.8059 80.4247 64.8059ZM89.5739 71.9735V53.9735H93.1534V56.1724H93.3153C93.4744 55.8201 93.7045 55.4622 94.0057 55.0985C94.3125 54.7292 94.7102 54.4224 95.1989 54.1781C95.6932 53.9281 96.3068 53.8031 97.0398 53.8031C97.9943 53.8031 98.875 54.0531 99.6818 54.5531C100.489 55.0474 101.134 55.7946 101.616 56.7946C102.099 57.7889 102.341 59.036 102.341 60.536C102.341 61.9963 102.105 63.2292 101.634 64.2349C101.168 65.2349 100.531 65.9934 99.7244 66.5105C98.9233 67.0218 98.0256 67.2775 97.0312 67.2775C96.3267 67.2775 95.7273 67.161 95.233 66.9281C94.7443 66.6951 94.3438 66.4025 94.0312 66.0502C93.7188 65.6923 93.4801 65.3315 93.3153 64.9679H93.2045V71.9735H89.5739ZM93.1278 60.519C93.1278 61.2974 93.2358 61.9764 93.4517 62.5559C93.6676 63.1355 93.9801 63.5872 94.3892 63.911C94.7983 64.2292 95.2955 64.3883 95.8807 64.3883C96.4716 64.3883 96.9716 64.2264 97.3807 63.9025C97.7898 63.573 98.0994 63.1184 98.3097 62.5389C98.5256 61.9537 98.6335 61.2804 98.6335 60.519C98.6335 59.7633 98.5284 59.0985 98.3182 58.5247C98.108 57.9508 97.7983 57.502 97.3892 57.1781C96.9801 56.8542 96.4773 56.6923 95.8807 56.6923C95.2898 56.6923 94.7898 56.8485 94.3807 57.161C93.9773 57.4735 93.6676 57.9167 93.4517 58.4906C93.2358 59.0645 93.1278 59.7406 93.1278 60.519ZM107.327 53.9735L109.73 58.5502L112.193 53.9735H115.918L112.125 60.519L116.02 67.0645H112.312L109.73 62.5389L107.19 67.0645H103.44L107.327 60.519L103.577 53.9735H107.327ZM121.543 62.2747L126.256 53.9735H129.835V67.0645H126.375V58.7377L121.679 67.0645H118.074V53.9735H121.543V62.2747ZM140.416 67.0645V56.8201H137.962C137.297 56.8201 136.791 56.9735 136.445 57.2804C136.098 57.5872 135.928 57.9508 135.933 58.3713C135.928 58.7974 136.092 59.1582 136.428 59.4537C136.768 59.7434 137.268 59.8883 137.928 59.8883H141.626V62.3429H137.928C136.808 62.3429 135.839 62.1724 135.021 61.8315C134.203 61.4906 133.572 61.0162 133.129 60.4082C132.686 59.7946 132.467 59.0815 132.473 58.269C132.467 57.4167 132.686 56.6696 133.129 56.0275C133.572 55.3798 134.206 54.877 135.03 54.519C135.859 54.1554 136.837 53.9735 137.962 53.9735H143.8V67.0645H140.416ZM132.098 67.0645L135.737 60.2463H139.206L135.575 67.0645H132.098Z" fill="black"/>
<path d="M38.8494 98.8826V109.064H37.6165V99.9764H32.4858V109.064H31.2528V98.8826H38.8494ZM44.2797 109.224C43.5903 109.224 42.9854 109.059 42.465 108.731C41.948 108.403 41.5436 107.944 41.252 107.354C40.9636 106.764 40.8194 106.075 40.8194 105.286C40.8194 104.491 40.9636 103.796 41.252 103.203C41.5436 102.61 41.948 102.149 42.465 101.821C42.9854 101.493 43.5903 101.329 44.2797 101.329C44.969 101.329 45.5723 101.493 46.0893 101.821C46.6097 102.149 47.014 102.61 47.3024 103.203C47.594 103.796 47.7399 104.491 47.7399 105.286C47.7399 106.075 47.594 106.764 47.3024 107.354C47.014 107.944 46.6097 108.403 46.0893 108.731C45.5723 109.059 44.969 109.224 44.2797 109.224ZM44.2797 108.17C44.8033 108.17 45.2342 108.035 45.5723 107.767C45.9103 107.498 46.1606 107.145 46.323 106.708C46.4854 106.27 46.5666 105.796 46.5666 105.286C46.5666 104.776 46.4854 104.3 46.323 103.859C46.1606 103.418 45.9103 103.062 45.5723 102.79C45.2342 102.519 44.8033 102.383 44.2797 102.383C43.756 102.383 43.3251 102.519 42.987 102.79C42.649 103.062 42.3987 103.418 42.2363 103.859C42.0739 104.3 41.9927 104.776 41.9927 105.286C41.9927 105.796 42.0739 106.27 42.2363 106.708C42.3987 107.145 42.649 107.498 42.987 107.767C43.3251 108.035 43.756 108.17 44.2797 108.17ZM53.707 107.474L56.3718 101.428H57.4854L54.1843 109.064H53.2298L49.9883 101.428H51.082L53.707 107.474ZM50.7042 101.428V109.064H49.5309V101.428H50.7042ZM56.7099 109.064V101.428H57.8832V109.064H56.7099ZM63.1332 109.224C62.4438 109.224 61.8389 109.059 61.3185 108.731C60.8015 108.403 60.3971 107.944 60.1055 107.354C59.8171 106.764 59.6729 106.075 59.6729 105.286C59.6729 104.491 59.8171 103.796 60.1055 103.203C60.3971 102.61 60.8015 102.149 61.3185 101.821C61.8389 101.493 62.4438 101.329 63.1332 101.329C63.8226 101.329 64.4258 101.493 64.9428 101.821C65.4632 102.149 65.8675 102.61 66.1559 103.203C66.4476 103.796 66.5934 104.491 66.5934 105.286C66.5934 106.075 66.4476 106.764 66.1559 107.354C65.8675 107.944 65.4632 108.403 64.9428 108.731C64.4258 109.059 63.8226 109.224 63.1332 109.224ZM63.1332 108.17C63.6568 108.17 64.0877 108.035 64.4258 107.767C64.7638 107.498 65.0141 107.145 65.1765 106.708C65.3389 106.27 65.4201 105.796 65.4201 105.286C65.4201 104.776 65.3389 104.3 65.1765 103.859C65.0141 103.418 64.7638 103.062 64.4258 102.79C64.0877 102.519 63.6568 102.383 63.1332 102.383C62.6095 102.383 62.1786 102.519 61.8406 102.79C61.5025 103.062 61.2522 103.418 61.0898 103.859C60.9274 104.3 60.8462 104.776 60.8462 105.286C60.8462 105.796 60.9274 106.27 61.0898 106.708C61.2522 107.145 61.5025 107.498 61.8406 107.767C62.1786 108.035 62.6095 108.17 63.1332 108.17ZM73.0975 101.428V102.522H69.5577V109.064H68.3844V101.428H73.0975ZM76.6609 109.243C76.177 109.243 75.7378 109.152 75.3434 108.97C74.949 108.784 74.6358 108.518 74.4038 108.17C74.1718 107.818 74.0558 107.394 74.0558 106.897C74.0558 106.459 74.1419 106.105 74.3143 105.833C74.4866 105.558 74.717 105.342 75.0053 105.187C75.2937 105.031 75.6119 104.915 75.9599 104.839C76.3112 104.759 76.6642 104.696 77.0188 104.65C77.4828 104.59 77.859 104.545 78.1474 104.515C78.439 104.482 78.6512 104.428 78.7837 104.351C78.9196 104.275 78.9876 104.143 78.9876 103.954V103.914C78.9876 103.423 78.8533 103.042 78.5849 102.77C78.3197 102.499 77.917 102.363 77.3768 102.363C76.8166 102.363 76.3775 102.485 76.0593 102.731C75.7411 102.976 75.5174 103.238 75.3881 103.516L74.2745 103.118C74.4734 102.654 74.7385 102.293 75.07 102.035C75.4047 101.773 75.7693 101.59 76.1637 101.488C76.5614 101.382 76.9525 101.329 77.337 101.329C77.5823 101.329 77.864 101.358 78.1822 101.418C78.5037 101.474 78.8136 101.592 79.1119 101.771C79.4135 101.95 79.6637 102.22 79.8626 102.581C80.0614 102.943 80.1609 103.427 80.1609 104.033V109.064H78.9876V108.03H78.9279C78.8484 108.196 78.7158 108.373 78.5302 108.562C78.3446 108.751 78.0977 108.912 77.7894 109.045C77.4812 109.177 77.105 109.243 76.6609 109.243ZM76.8398 108.189C77.3039 108.189 77.695 108.098 78.0131 107.916C78.3346 107.734 78.5766 107.498 78.739 107.21C78.9047 106.922 78.9876 106.618 78.9876 106.3V105.226C78.9379 105.286 78.8285 105.341 78.6594 105.39C78.4937 105.437 78.3015 105.478 78.0827 105.515C77.8673 105.548 77.6568 105.578 77.4513 105.604C77.2492 105.627 77.0851 105.647 76.9592 105.664C76.6542 105.704 76.3692 105.768 76.104 105.858C75.8422 105.944 75.6301 106.075 75.4677 106.251C75.3086 106.423 75.229 106.658 75.229 106.956C75.229 107.364 75.3799 107.672 75.6815 107.881C75.9864 108.087 76.3725 108.189 76.8398 108.189ZM85.5041 109.224C84.7683 109.224 84.1336 109.061 83.6 108.736C83.0697 108.408 82.6603 107.951 82.372 107.364C82.0869 106.774 81.9444 106.088 81.9444 105.306C81.9444 104.524 82.0869 103.834 82.372 103.238C82.6603 102.638 83.0614 102.171 83.5751 101.836C84.0922 101.498 84.6954 101.329 85.3848 101.329C85.7825 101.329 86.1752 101.395 86.563 101.528C86.9508 101.66 87.3038 101.876 87.622 102.174C87.9402 102.469 88.1937 102.86 88.3826 103.347C88.5716 103.834 88.666 104.434 88.666 105.147V105.644H82.7797V104.63H87.4728C87.4728 104.199 87.3867 103.814 87.2143 103.476C87.0453 103.138 86.8033 102.872 86.4885 102.676C86.1769 102.48 85.809 102.383 85.3848 102.383C84.9174 102.383 84.5131 102.499 84.1717 102.731C83.8336 102.959 83.5734 103.258 83.3912 103.626C83.2089 103.993 83.1177 104.388 83.1177 104.809V105.485C83.1177 106.062 83.2172 106.55 83.416 106.952C83.6182 107.349 83.8983 107.653 84.2562 107.861C84.6142 108.067 85.0301 108.17 85.5041 108.17C85.8123 108.17 86.0907 108.126 86.3393 108.04C86.5912 107.951 86.8083 107.818 86.9906 107.643C87.1729 107.464 87.3137 107.242 87.4132 106.976L88.5467 107.295C88.4274 107.679 88.2269 108.017 87.9451 108.309C87.6634 108.597 87.3154 108.823 86.9011 108.985C86.4868 109.144 86.0211 109.224 85.5041 109.224ZM89.7399 102.522V101.428H95.9444V102.522H93.4387V109.064H92.2654V102.522H89.7399ZM101.593 109.064V101.428H104.716C105.538 101.428 106.19 101.614 106.674 101.985C107.158 102.356 107.4 102.847 107.4 103.456C107.4 103.921 107.263 104.28 106.988 104.535C106.712 104.787 106.359 104.958 105.929 105.047C106.21 105.087 106.484 105.187 106.749 105.346C107.017 105.505 107.239 105.724 107.415 106.002C107.591 106.277 107.679 106.615 107.679 107.016C107.679 107.407 107.579 107.757 107.38 108.065C107.181 108.373 106.896 108.617 106.525 108.796C106.154 108.975 105.71 109.064 105.193 109.064H101.593ZM102.707 107.991H105.193C105.597 107.991 105.914 107.894 106.142 107.702C106.371 107.51 106.485 107.248 106.485 106.917C106.485 106.522 106.371 106.212 106.142 105.987C105.914 105.758 105.597 105.644 105.193 105.644H102.707V107.991ZM102.707 104.63H104.716C105.03 104.63 105.301 104.587 105.526 104.501C105.751 104.411 105.924 104.285 106.043 104.123C106.166 103.957 106.227 103.761 106.227 103.536C106.227 103.215 106.093 102.963 105.824 102.78C105.556 102.595 105.186 102.502 104.716 102.502H102.707V104.63ZM110.469 104.192H112.656C113.551 104.192 114.236 104.419 114.71 104.873C115.184 105.327 115.421 105.903 115.421 106.599C115.421 107.056 115.315 107.472 115.102 107.846C114.89 108.218 114.579 108.514 114.168 108.736C113.757 108.955 113.253 109.064 112.656 109.064H109.455V101.428H110.628V107.971H112.656C113.12 107.971 113.502 107.848 113.8 107.603C114.098 107.358 114.247 107.043 114.247 106.658C114.247 106.254 114.098 105.924 113.8 105.669C113.502 105.414 113.12 105.286 112.656 105.286H110.469V104.192ZM116.634 109.064V101.428H117.807V109.064H116.634ZM119.139 111.252V107.971H119.776C119.932 107.808 120.066 107.633 120.178 107.444C120.291 107.255 120.389 107.031 120.472 106.773C120.558 106.511 120.631 106.193 120.691 105.818C120.75 105.44 120.803 104.984 120.85 104.451L121.108 101.428H125.96V107.971H127.134V111.252H125.96V109.064H120.313V111.252H119.139ZM121.108 107.971H124.787V102.522H122.202L122.003 104.451C121.92 105.25 121.817 105.947 121.695 106.544C121.572 107.14 121.377 107.616 121.108 107.971ZM131.893 109.224C131.157 109.224 130.522 109.061 129.989 108.736C129.458 108.408 129.049 107.951 128.761 107.364C128.476 106.774 128.333 106.088 128.333 105.306C128.333 104.524 128.476 103.834 128.761 103.238C129.049 102.638 129.45 102.171 129.964 101.836C130.481 101.498 131.084 101.329 131.773 101.329C132.171 101.329 132.564 101.395 132.952 101.528C133.339 101.66 133.692 101.876 134.011 102.174C134.329 102.469 134.582 102.86 134.771 103.347C134.96 103.834 135.055 104.434 135.055 105.147V105.644H129.168V104.63H133.862C133.862 104.199 133.775 103.814 133.603 103.476C133.434 103.138 133.192 102.872 132.877 102.676C132.566 102.48 132.198 102.383 131.773 102.383C131.306 102.383 130.902 102.499 130.56 102.731C130.222 102.959 129.962 103.258 129.78 103.626C129.598 103.993 129.506 104.388 129.506 104.809V105.485C129.506 106.062 129.606 106.55 129.805 106.952C130.007 107.349 130.287 107.653 130.645 107.861C131.003 108.067 131.419 108.17 131.893 108.17C132.201 108.17 132.479 108.126 132.728 108.04C132.98 107.951 133.197 107.818 133.379 107.643C133.562 107.464 133.702 107.242 133.802 106.976L134.935 107.295C134.816 107.679 134.616 108.017 134.334 108.309C134.052 108.597 133.704 108.823 133.29 108.985C132.875 109.144 132.41 109.224 131.893 109.224ZM136.163 109.064V107.971H136.442C136.67 107.971 136.861 107.926 137.013 107.836C137.166 107.744 137.289 107.583 137.381 107.354C137.478 107.122 137.55 106.801 137.6 106.39C137.653 105.975 137.691 105.448 137.714 104.809L137.854 101.428H142.945V109.064H141.771V102.522H138.967L138.848 105.246C138.821 105.873 138.765 106.425 138.679 106.902C138.596 107.376 138.469 107.773 138.296 108.095C138.127 108.416 137.902 108.658 137.62 108.821C137.338 108.983 136.985 109.064 136.561 109.064H136.163ZM146.271 107.334L149.95 101.428H151.302V109.064H150.129V103.158L146.469 109.064H145.097V101.428H146.271V107.334ZM152.412 102.522V101.428H158.616V102.522H156.111V109.064H154.937V102.522H152.412ZM161.342 104.192H163.529C164.424 104.192 165.109 104.419 165.583 104.873C166.057 105.327 166.294 105.903 166.294 106.599C166.294 107.056 166.188 107.472 165.975 107.846C165.763 108.218 165.452 108.514 165.041 108.736C164.63 108.955 164.126 109.064 163.529 109.064H160.328V101.428H161.501V107.971H163.529C163.993 107.971 164.375 107.848 164.673 107.603C164.971 107.358 165.12 107.043 165.12 106.658C165.12 106.254 164.971 105.924 164.673 105.669C164.375 105.414 163.993 105.286 163.529 105.286H161.342V104.192ZM33.5994 119.422C33.3343 119.426 33.0675 119.494 32.799 119.626C32.5339 119.759 32.3118 119.934 32.1328 120.153C31.9571 120.369 31.8693 120.609 31.8693 120.874H30.7159C30.7159 120.543 30.7955 120.224 30.9545 119.92C31.1136 119.615 31.3274 119.343 31.5959 119.104C31.8677 118.866 32.1759 118.677 32.5206 118.537C32.8686 118.398 33.2282 118.329 33.5994 118.329C34.2955 118.329 34.8854 118.504 35.3693 118.856C35.8565 119.207 36.2261 119.671 36.478 120.248C36.7332 120.824 36.8608 121.451 36.8608 122.127V122.405C36.8608 123.078 36.7332 123.705 36.478 124.285C36.2261 124.861 35.8565 125.325 35.3693 125.677C34.8854 126.028 34.2955 126.204 33.5994 126.204C33.0426 126.204 32.5471 126.081 32.1129 125.836C31.6787 125.587 31.3374 125.256 31.0888 124.841C30.8402 124.427 30.7159 123.966 30.7159 123.459H31.8693C31.8693 123.748 31.9505 124.018 32.1129 124.27C32.2786 124.518 32.4924 124.72 32.7543 124.876C33.0194 125.029 33.3011 125.107 33.5994 125.11C34.0436 125.107 34.4214 124.967 34.733 124.692C35.0445 124.417 35.2815 124.073 35.4439 123.658C35.6063 123.244 35.6875 122.826 35.6875 122.405V122.127C35.6875 121.696 35.6063 121.275 35.4439 120.864C35.2848 120.45 35.0495 120.107 34.7379 119.835C34.4297 119.563 34.0502 119.426 33.5994 119.422ZM36.1648 121.67V122.763H32.8239V121.67H36.1648ZM37.9719 126.064V124.971H38.2504C38.479 124.971 38.6696 124.926 38.8221 124.836C38.9746 124.744 39.0972 124.583 39.19 124.354C39.2861 124.122 39.359 123.801 39.4087 123.39C39.4618 122.975 39.4999 122.448 39.5231 121.809L39.6623 118.428H44.7532V126.064H43.5799V119.522H40.7759L40.6566 122.246C40.6301 122.873 40.5737 123.425 40.4876 123.902C40.4047 124.376 40.2771 124.773 40.1048 125.095C39.9357 125.416 39.7103 125.658 39.4286 125.821C39.1469 125.983 38.7939 126.064 38.3697 126.064H37.9719ZM50.1076 126.224C49.3718 126.224 48.7371 126.061 48.2035 125.736C47.6732 125.408 47.2638 124.951 46.9755 124.364C46.6905 123.774 46.5479 123.088 46.5479 122.306C46.5479 121.524 46.6905 120.834 46.9755 120.238C47.2638 119.638 47.6649 119.171 48.1786 118.836C48.6957 118.498 49.2989 118.329 49.9883 118.329C50.386 118.329 50.7788 118.395 51.1665 118.528C51.5543 118.66 51.9073 118.876 52.2255 119.174C52.5437 119.469 52.7972 119.86 52.9862 120.347C53.1751 120.834 53.2695 121.434 53.2695 122.147V122.644H47.3832V121.63H52.0763C52.0763 121.199 51.9902 120.814 51.8178 120.476C51.6488 120.138 51.4068 119.872 51.092 119.676C50.7804 119.48 50.4125 119.383 49.9883 119.383C49.521 119.383 49.1166 119.499 48.7752 119.731C48.4371 119.959 48.177 120.258 47.9947 120.626C47.8124 120.993 47.7212 121.388 47.7212 121.809V122.485C47.7212 123.062 47.8207 123.55 48.0195 123.952C48.2217 124.349 48.5018 124.653 48.8597 124.861C49.2177 125.067 49.6336 125.17 50.1076 125.17C50.4158 125.17 50.6942 125.126 50.9428 125.04C51.1947 124.951 51.4118 124.818 51.5941 124.643C51.7764 124.464 51.9173 124.242 52.0167 123.976L53.1502 124.295C53.0309 124.679 52.8304 125.017 52.5487 125.309C52.2669 125.597 51.9189 125.823 51.5046 125.985C51.0903 126.144 50.6246 126.224 50.1076 126.224ZM59.2305 124.474L61.8952 118.428H63.0089L59.7077 126.064H58.7532L55.5117 118.428H56.6055L59.2305 124.474ZM56.2276 118.428V126.064H55.0543V118.428H56.2276ZM62.2333 126.064V118.428H63.4066V126.064H62.2333ZM68.756 126.224C68.0202 126.224 67.3855 126.061 66.8519 125.736C66.3216 125.408 65.9123 124.951 65.6239 124.364C65.3389 123.774 65.1964 123.088 65.1964 122.306C65.1964 121.524 65.3389 120.834 65.6239 120.238C65.9123 119.638 66.3133 119.171 66.8271 118.836C67.3441 118.498 67.9473 118.329 68.6367 118.329C69.0344 118.329 69.4272 118.395 69.815 118.528C70.2028 118.66 70.5558 118.876 70.8739 119.174C71.1921 119.469 71.4457 119.86 71.6346 120.347C71.8235 120.834 71.918 121.434 71.918 122.147V122.644H66.0316V121.63H70.7248C70.7248 121.199 70.6386 120.814 70.4663 120.476C70.2972 120.138 70.0553 119.872 69.7404 119.676C69.4289 119.48 69.061 119.383 68.6367 119.383C68.1694 119.383 67.765 119.499 67.4237 119.731C67.0856 119.959 66.8254 120.258 66.6431 120.626C66.4608 120.993 66.3697 121.388 66.3697 121.809V122.485C66.3697 123.062 66.4691 123.55 66.668 123.952C66.8701 124.349 67.1502 124.653 67.5082 124.861C67.8661 125.067 68.2821 125.17 68.756 125.17C69.0643 125.17 69.3427 125.126 69.5913 125.04C69.8432 124.951 70.0603 124.818 70.2425 124.643C70.4248 124.464 70.5657 124.242 70.6651 123.976L71.7987 124.295C71.6793 124.679 71.4788 125.017 71.1971 125.309C70.9154 125.597 70.5674 125.823 70.1531 125.985C69.7388 126.144 69.2731 126.224 68.756 126.224ZM78.8136 121.709V122.803H74.5977V121.709H78.8136ZM74.8761 118.428V126.064H73.7028V118.428H74.8761ZM79.7085 118.428V126.064H78.5352V118.428H79.7085ZM80.8121 119.522V118.428H87.0167V119.522H84.511V126.064H83.3377V119.522H80.8121ZM89.7424 121.192H91.9299C92.8248 121.192 93.5092 121.419 93.9831 121.873C94.4571 122.327 94.6941 122.903 94.6941 123.599C94.6941 124.056 94.588 124.472 94.3759 124.846C94.1638 125.218 93.8522 125.514 93.4412 125.736C93.0302 125.955 92.5265 126.064 91.9299 126.064H88.7282V118.428H89.9015V124.971H91.9299C92.3939 124.971 92.775 124.848 93.0733 124.603C93.3716 124.358 93.5208 124.043 93.5208 123.658C93.5208 123.254 93.3716 122.924 93.0733 122.669C92.775 122.414 92.3939 122.286 91.9299 122.286H89.7424V121.192ZM95.9071 126.064V118.428H97.0804V126.064H95.9071ZM103.166 126.064V118.428H109.171V126.064H107.998V119.522H104.339V126.064H103.166ZM114.416 126.224C113.727 126.224 113.122 126.059 112.602 125.731C112.085 125.403 111.68 124.944 111.389 124.354C111.1 123.764 110.956 123.075 110.956 122.286C110.956 121.491 111.1 120.796 111.389 120.203C111.68 119.61 112.085 119.149 112.602 118.821C113.122 118.493 113.727 118.329 114.416 118.329C115.106 118.329 115.709 118.493 116.226 118.821C116.746 119.149 117.151 119.61 117.439 120.203C117.731 120.796 117.877 121.491 117.877 122.286C117.877 123.075 117.731 123.764 117.439 124.354C117.151 124.944 116.746 125.403 116.226 125.731C115.709 126.059 115.106 126.224 114.416 126.224ZM114.416 125.17C114.94 125.17 115.371 125.035 115.709 124.767C116.047 124.498 116.297 124.145 116.46 123.708C116.622 123.27 116.703 122.796 116.703 122.286C116.703 121.776 116.622 121.3 116.46 120.859C116.297 120.418 116.047 120.062 115.709 119.79C115.371 119.519 114.94 119.383 114.416 119.383C113.893 119.383 113.462 119.519 113.124 119.79C112.786 120.062 112.535 120.418 112.373 120.859C112.211 121.3 112.129 121.776 112.129 122.286C112.129 122.796 112.211 123.27 112.373 123.708C112.535 124.145 112.786 124.498 113.124 124.767C113.462 125.035 113.893 125.17 114.416 125.17ZM31.0739 143.064V135.428H34.196C35.018 135.428 35.6709 135.614 36.1548 135.985C36.6387 136.356 36.8807 136.847 36.8807 137.456C36.8807 137.921 36.7431 138.28 36.468 138.535C36.1929 138.787 35.84 138.958 35.4091 139.047C35.6908 139.087 35.9643 139.187 36.2294 139.346C36.4979 139.505 36.7199 139.724 36.8956 140.002C37.0713 140.277 37.1591 140.615 37.1591 141.016C37.1591 141.407 37.0597 141.757 36.8608 142.065C36.6619 142.373 36.3769 142.617 36.0057 142.796C35.6345 142.975 35.1903 143.064 34.6733 143.064H31.0739ZM32.1875 141.991H34.6733C35.0777 141.991 35.3942 141.894 35.6229 141.702C35.8516 141.51 35.9659 141.248 35.9659 140.917C35.9659 140.522 35.8516 140.212 35.6229 139.987C35.3942 139.758 35.0777 139.644 34.6733 139.644H32.1875V141.991ZM32.1875 138.63H34.196C34.5109 138.63 34.781 138.587 35.0064 138.501C35.2318 138.411 35.4041 138.285 35.5234 138.123C35.6461 137.957 35.7074 137.761 35.7074 137.536C35.7074 137.215 35.5732 136.963 35.3047 136.78C35.0362 136.595 34.6667 136.502 34.196 136.502H32.1875V138.63ZM41.1824 143.243C40.6984 143.243 40.2593 143.152 39.8649 142.97C39.4705 142.784 39.1573 142.518 38.9252 142.17C38.6932 141.818 38.5772 141.394 38.5772 140.897C38.5772 140.459 38.6634 140.105 38.8358 139.833C39.0081 139.558 39.2385 139.342 39.5268 139.187C39.8152 139.031 40.1333 138.915 40.4814 138.839C40.8327 138.759 41.1857 138.696 41.5403 138.65C42.0043 138.59 42.3805 138.545 42.6689 138.515C42.9605 138.482 43.1726 138.428 43.3052 138.351C43.4411 138.275 43.5091 138.143 43.5091 137.954V137.914C43.5091 137.423 43.3748 137.042 43.1064 136.77C42.8412 136.499 42.4385 136.363 41.8983 136.363C41.3381 136.363 40.899 136.485 40.5808 136.731C40.2626 136.976 40.0389 137.238 39.9096 137.516L38.796 137.118C38.9949 136.654 39.26 136.293 39.5914 136.035C39.9262 135.773 40.2908 135.59 40.6852 135.488C41.0829 135.382 41.474 135.329 41.8585 135.329C42.1038 135.329 42.3855 135.358 42.7037 135.418C43.0252 135.474 43.335 135.592 43.6333 135.771C43.935 135.95 44.1852 136.22 44.3841 136.581C44.5829 136.943 44.6824 137.427 44.6824 138.033V143.064H43.5091V142.03H43.4494C43.3699 142.196 43.2373 142.373 43.0517 142.562C42.8661 142.751 42.6191 142.912 42.3109 143.045C42.0027 143.177 41.6265 143.243 41.1824 143.243ZM41.3613 142.189C41.8253 142.189 42.2164 142.098 42.5346 141.916C42.8561 141.734 43.0981 141.498 43.2605 141.21C43.4262 140.922 43.5091 140.618 43.5091 140.3V139.226C43.4593 139.286 43.35 139.341 43.1809 139.39C43.0152 139.437 42.823 139.478 42.6042 139.515C42.3888 139.548 42.1783 139.578 41.9728 139.604C41.7707 139.627 41.6066 139.647 41.4806 139.664C41.1757 139.704 40.8907 139.768 40.6255 139.858C40.3637 139.944 40.1516 140.075 39.9892 140.251C39.8301 140.423 39.7505 140.658 39.7505 140.956C39.7505 141.364 39.9013 141.672 40.2029 141.881C40.5079 142.087 40.894 142.189 41.3613 142.189ZM46.3466 143.064L49.4489 139.187L46.3864 135.428H47.7784L50.3239 138.689H50.9602V135.428H52.1335V138.689H52.75L55.2955 135.428H56.6875L53.6449 139.187L56.7273 143.064H55.3153L52.7301 139.783H52.1335V143.064H50.9602V139.783H50.3636L47.7585 143.064H46.3466ZM63.5147 138.709V139.803H59.2988V138.709H63.5147ZM59.5772 135.428V143.064H58.4039V135.428H59.5772ZM64.4096 135.428V143.064H63.2363V135.428H64.4096ZM69.6547 143.224C68.9653 143.224 68.3604 143.059 67.84 142.731C67.323 142.403 66.9186 141.944 66.627 141.354C66.3386 140.764 66.1944 140.075 66.1944 139.286C66.1944 138.491 66.3386 137.796 66.627 137.203C66.9186 136.61 67.323 136.149 67.84 135.821C68.3604 135.493 68.9653 135.329 69.6547 135.329C70.344 135.329 70.9473 135.493 71.4643 135.821C71.9847 136.149 72.389 136.61 72.6774 137.203C72.969 137.796 73.1149 138.491 73.1149 139.286C73.1149 140.075 72.969 140.764 72.6774 141.354C72.389 141.944 71.9847 142.403 71.4643 142.731C70.9473 143.059 70.344 143.224 69.6547 143.224ZM69.6547 142.17C70.1783 142.17 70.6092 142.035 70.9473 141.767C71.2853 141.498 71.5356 141.145 71.698 140.708C71.8604 140.27 71.9416 139.796 71.9416 139.286C71.9416 138.776 71.8604 138.3 71.698 137.859C71.5356 137.418 71.2853 137.062 70.9473 136.79C70.6092 136.519 70.1783 136.383 69.6547 136.383C69.131 136.383 68.7001 136.519 68.362 136.79C68.024 137.062 67.7737 137.418 67.6113 137.859C67.4489 138.3 67.3677 138.776 67.3677 139.286C67.3677 139.796 67.4489 140.27 67.6113 140.708C67.7737 141.145 68.024 141.498 68.362 141.767C68.7001 142.035 69.131 142.17 69.6547 142.17ZM78.0082 143.224C77.2923 143.224 76.6758 143.055 76.1587 142.716C75.6417 142.378 75.244 141.913 74.9656 141.319C74.6871 140.726 74.5479 140.048 74.5479 139.286C74.5479 138.51 74.6905 137.826 74.9755 137.233C75.2638 136.636 75.6649 136.171 76.1786 135.836C76.6957 135.498 77.2989 135.329 77.9883 135.329C78.5252 135.329 79.0091 135.428 79.44 135.627C79.8709 135.826 80.2238 136.104 80.4989 136.462C80.774 136.82 80.9447 137.238 81.011 137.715H79.8377C79.7482 137.367 79.5494 137.059 79.2411 136.79C78.9362 136.519 78.5252 136.383 78.0082 136.383C77.5508 136.383 77.1497 136.502 76.805 136.741C76.4637 136.976 76.1969 137.309 76.0046 137.74C75.8157 138.167 75.7212 138.67 75.7212 139.246C75.7212 139.836 75.814 140.35 75.9996 140.787C76.1886 141.225 76.4537 141.565 76.7951 141.807C77.1398 142.049 77.5442 142.17 78.0082 142.17C78.3131 142.17 78.5898 142.117 78.8384 142.01C79.087 141.904 79.2975 141.752 79.4698 141.553C79.6422 141.354 79.7648 141.116 79.8377 140.837H81.011C80.9447 141.288 80.7807 141.694 80.5188 142.055C80.2603 142.413 79.9173 142.698 79.4897 142.91C79.0655 143.119 78.5716 143.224 78.0082 143.224ZM82.1246 136.522V135.428H88.3292V136.522H85.8235V143.064H84.6502V136.522H82.1246ZM91.214 141.334L94.8929 135.428H96.2452V143.064H95.0719V137.158L91.4128 143.064H90.0407V135.428H91.214V141.334Z" fill="black"/>
<path d="M249.138 25.5645V12.4735H251.906V17.8748H257.524V12.4735H260.286V25.5645H257.524V20.1568H251.906V25.5645H249.138ZM266.991 25.7562C265.981 25.7562 265.112 25.5517 264.383 25.1426C263.658 24.7292 263.1 24.1454 262.708 23.3912C262.316 22.6326 262.12 21.7356 262.12 20.7001C262.12 19.6902 262.316 18.8038 262.708 18.041C263.1 17.2782 263.652 16.6838 264.364 16.2576C265.08 15.8315 265.919 15.6184 266.882 15.6184C267.53 15.6184 268.133 15.7228 268.691 15.9316C269.254 16.1362 269.744 16.4451 270.161 16.8585C270.583 17.2718 270.911 17.7917 271.146 18.4181C271.38 19.0403 271.497 19.769 271.497 20.6042V21.3521H263.207V19.6646H268.934C268.934 19.2725 268.849 18.9252 268.678 18.6227C268.508 18.3201 268.271 18.0836 267.969 17.9132C267.67 17.7385 267.323 17.6511 266.927 17.6511C266.513 17.6511 266.147 17.747 265.827 17.9387C265.512 18.1262 265.265 18.3798 265.086 18.6994C264.907 19.0147 264.815 19.3663 264.811 19.7541V21.3585C264.811 21.8443 264.901 22.264 265.08 22.6177C265.263 22.9714 265.521 23.2441 265.853 23.4359C266.185 23.6277 266.58 23.7235 267.036 23.7235C267.338 23.7235 267.615 23.6809 267.866 23.5957C268.118 23.5105 268.333 23.3826 268.512 23.2122C268.691 23.0417 268.827 22.8329 268.921 22.5858L271.44 22.752C271.312 23.3571 271.05 23.8855 270.653 24.3372C270.261 24.7846 269.754 25.1341 269.132 25.3855C268.514 25.6326 267.8 25.7562 266.991 25.7562ZM276.074 25.7498C275.447 25.7498 274.889 25.6412 274.399 25.4238C273.909 25.2022 273.521 24.8762 273.236 24.4458C272.955 24.0112 272.814 23.47 272.814 22.8223C272.814 22.2768 272.914 21.8187 273.114 21.448C273.315 21.0772 273.587 20.7789 273.933 20.5531C274.278 20.3272 274.67 20.1568 275.109 20.0417C275.552 19.9267 276.016 19.8457 276.502 19.7988C277.073 19.7392 277.533 19.6838 277.883 19.6326C278.232 19.5772 278.486 19.4963 278.643 19.3897C278.801 19.2832 278.88 19.1255 278.88 18.9167V18.8784C278.88 18.4735 278.752 18.1603 278.496 17.9387C278.245 17.7172 277.887 17.6064 277.423 17.6064C276.933 17.6064 276.543 17.715 276.253 17.9324C275.963 18.1454 275.771 18.4139 275.678 18.7377L273.159 18.5332C273.287 17.9366 273.538 17.421 273.913 16.9863C274.288 16.5474 274.772 16.2108 275.364 15.9764C275.961 15.7377 276.651 15.6184 277.435 15.6184C277.981 15.6184 278.503 15.6824 279.001 15.8102C279.504 15.938 279.95 16.1362 280.337 16.4047C280.729 16.6731 281.038 17.0183 281.264 17.4402C281.49 17.8578 281.603 18.3585 281.603 18.9423V25.5645H279.021V24.2029H278.944C278.786 24.5098 278.575 24.7804 278.311 25.0147C278.047 25.2449 277.729 25.426 277.359 25.5581C276.988 25.6859 276.56 25.7498 276.074 25.7498ZM276.854 23.8706C277.254 23.8706 277.608 23.7917 277.915 23.6341C278.222 23.4721 278.462 23.2548 278.637 22.9821C278.812 22.7093 278.899 22.4004 278.899 22.0552V21.0133C278.814 21.0687 278.697 21.1199 278.548 21.1667C278.403 21.2093 278.239 21.2498 278.055 21.2882C277.872 21.3223 277.689 21.3542 277.506 21.3841C277.322 21.4096 277.156 21.4331 277.007 21.4544C276.688 21.5012 276.408 21.5758 276.17 21.6781C275.931 21.7804 275.746 21.9189 275.614 22.0936C275.482 22.264 275.415 22.4771 275.415 22.7328C275.415 23.1035 275.55 23.3869 275.818 23.5829C276.091 23.7747 276.436 23.8706 276.854 23.8706ZM287.333 25.7243C286.588 25.7243 285.912 25.5325 285.307 25.149C284.706 24.7612 284.229 24.1923 283.875 23.4423C283.526 22.688 283.351 21.7633 283.351 20.6681C283.351 19.5431 283.532 18.6078 283.895 17.862C284.257 17.112 284.738 16.5517 285.339 16.1809C285.944 15.8059 286.607 15.6184 287.327 15.6184C287.877 15.6184 288.335 15.7122 288.701 15.8997C289.072 16.0829 289.37 16.313 289.596 16.59C289.826 16.8627 290.001 17.1312 290.12 17.3954H290.203V12.4735H292.92V25.5645H290.235V23.992H290.12C289.993 24.2647 289.811 24.5353 289.577 24.8038C289.347 25.068 289.047 25.2875 288.676 25.4622C288.309 25.6369 287.862 25.7243 287.333 25.7243ZM288.196 23.5574C288.635 23.5574 289.006 23.438 289.309 23.1994C289.615 22.9565 289.85 22.6177 290.012 22.1831C290.178 21.7484 290.261 21.2392 290.261 20.6554C290.261 20.0716 290.18 19.5645 290.018 19.1341C289.856 18.7037 289.622 18.3713 289.315 18.1369C289.008 17.9025 288.635 17.7853 288.196 17.7853C287.749 17.7853 287.372 17.9068 287.065 18.1497C286.758 18.3926 286.526 18.7292 286.368 19.1596C286.211 19.59 286.132 20.0886 286.132 20.6554C286.132 21.2264 286.211 21.7314 286.368 22.1703C286.53 22.6049 286.762 22.9458 287.065 23.193C287.372 23.4359 287.749 23.5574 288.196 23.5574ZM295.159 25.5645V15.7463H297.882V25.5645H295.159ZM296.527 14.4806C296.122 14.4806 295.775 14.3464 295.485 14.0779C295.199 13.8052 295.057 13.4792 295.057 13.1C295.057 12.725 295.199 12.4032 295.485 12.1348C295.775 11.862 296.122 11.7257 296.527 11.7257C296.932 11.7257 297.277 11.862 297.562 12.1348C297.852 12.4032 297.997 12.725 297.997 13.1C297.997 13.4792 297.852 13.8052 297.562 14.0779C297.277 14.3464 296.932 14.4806 296.527 14.4806ZM302.786 19.8883V25.5645H300.063V15.7463H302.658V17.4785H302.773C302.991 16.9075 303.355 16.4558 303.866 16.1234C304.378 15.7868 304.998 15.6184 305.727 15.6184C306.408 15.6184 307.003 15.7676 307.51 16.0659C308.017 16.3642 308.411 16.7903 308.692 17.3443C308.974 17.894 309.114 18.5502 309.114 19.313V25.5645H306.391V19.7988C306.396 19.198 306.242 18.7292 305.931 18.3926C305.62 18.0517 305.192 17.8812 304.646 17.8812C304.28 17.8812 303.956 17.96 303.675 18.1177C303.398 18.2754 303.18 18.5055 303.023 18.8081C302.869 19.1064 302.79 19.4664 302.786 19.8883ZM315.684 29.4508C314.802 29.4508 314.045 29.3294 313.415 29.0865C312.788 28.8478 312.29 28.5218 311.919 28.1085C311.548 27.6951 311.307 27.2306 311.197 26.715L313.715 26.3762C313.792 26.5723 313.913 26.7555 314.079 26.926C314.246 27.0964 314.465 27.2328 314.738 27.335C315.015 27.4416 315.351 27.4949 315.748 27.4949C316.34 27.4949 316.828 27.35 317.211 27.0602C317.599 26.7747 317.793 26.2953 317.793 25.622V23.8258H317.678C317.559 24.0985 317.38 24.3564 317.141 24.5993C316.903 24.8422 316.596 25.0403 316.221 25.1937C315.846 25.3471 315.398 25.4238 314.878 25.4238C314.141 25.4238 313.47 25.2534 312.865 24.9125C312.264 24.5673 311.785 24.041 311.427 23.3336C311.073 22.622 310.896 21.7228 310.896 20.6362C310.896 19.524 311.077 18.595 311.439 17.8493C311.802 17.1035 312.283 16.5453 312.884 16.1745C313.489 15.8038 314.152 15.6184 314.872 15.6184C315.422 15.6184 315.882 15.7122 316.253 15.8997C316.623 16.0829 316.922 16.313 317.148 16.59C317.378 16.8627 317.555 17.1312 317.678 17.3954H317.78V15.7463H320.484V25.6603C320.484 26.4956 320.28 27.1944 319.871 27.7569C319.461 28.3194 318.895 28.7413 318.17 29.0225C317.45 29.3081 316.621 29.4508 315.684 29.4508ZM315.741 23.3784C316.18 23.3784 316.551 23.2697 316.854 23.0524C317.16 22.8308 317.395 22.5154 317.557 22.1064C317.723 21.693 317.806 21.1987 317.806 20.6234C317.806 20.0481 317.725 19.5495 317.563 19.1277C317.401 18.7015 317.167 18.3713 316.86 18.1369C316.553 17.9025 316.18 17.7853 315.741 17.7853C315.294 17.7853 314.917 17.9068 314.61 18.1497C314.303 18.3883 314.071 18.7207 313.913 19.1468C313.756 19.573 313.677 20.0652 313.677 20.6234C313.677 21.1902 313.756 21.6802 313.913 22.0936C314.075 22.5027 314.307 22.8201 314.61 23.046C314.917 23.2676 315.294 23.3784 315.741 23.3784Z" fill="black"/>
<path d="M240.239 48.2385C240.188 47.7228 239.969 47.3223 239.581 47.0368C239.193 46.7512 238.667 46.6085 238.002 46.6085C237.55 46.6085 237.169 46.6724 236.858 46.8002C236.547 46.9238 236.308 47.0964 236.142 47.318C235.98 47.5396 235.899 47.791 235.899 48.0723C235.891 48.3066 235.94 48.5112 236.046 48.6859C236.157 48.8606 236.308 49.0119 236.5 49.1397C236.692 49.2633 236.913 49.372 237.165 49.4657C237.416 49.5552 237.685 49.6319 237.97 49.6958L239.146 49.9771C239.717 50.1049 240.241 50.2754 240.719 50.4885C241.196 50.7015 241.609 50.9636 241.959 51.2747C242.308 51.5858 242.579 51.9522 242.771 52.3741C242.967 52.796 243.067 53.2797 243.071 53.8251C243.067 54.6262 242.862 55.3208 242.457 55.9089C242.057 56.4927 241.477 56.9466 240.719 57.2704C239.964 57.59 239.055 57.7498 237.989 57.7498C236.933 57.7498 236.012 57.5879 235.228 57.264C234.448 56.9402 233.839 56.4608 233.4 55.8258C232.965 55.1866 232.737 54.3961 232.716 53.4544H235.394C235.424 53.8933 235.55 54.2598 235.771 54.5538C235.997 54.8436 236.298 55.063 236.673 55.2122C237.052 55.3571 237.48 55.4295 237.957 55.4295C238.426 55.4295 238.833 55.3613 239.178 55.225C239.528 55.0886 239.798 54.899 239.99 54.6561C240.182 54.4132 240.278 54.1341 240.278 53.8187C240.278 53.5247 240.19 53.2775 240.016 53.0772C239.845 52.877 239.594 52.7065 239.261 52.5659C238.933 52.4252 238.531 52.2974 238.053 52.1824L236.628 51.8244C235.524 51.5559 234.653 51.1362 234.013 50.5652C233.374 49.9941 233.057 49.225 233.061 48.2576C233.057 47.465 233.268 46.7725 233.694 46.1802C234.124 45.5879 234.714 45.1255 235.464 44.7931C236.214 44.4608 237.067 44.2946 238.021 44.2946C238.993 44.2946 239.841 44.4608 240.565 44.7931C241.294 45.1255 241.861 45.5879 242.266 46.1802C242.67 46.7725 242.879 47.4586 242.892 48.2385H240.239ZM251.178 53.3841V47.7463H253.901V57.5645H251.286V55.7811H251.184C250.963 56.3564 250.594 56.8187 250.078 57.1681C249.567 57.5176 248.943 57.6923 248.205 57.6923C247.549 57.6923 246.972 57.5431 246.473 57.2449C245.975 56.9466 245.585 56.5225 245.303 55.9728C245.026 55.4231 244.886 54.7647 244.882 53.9977V47.7463H247.605V53.5119C247.609 54.0914 247.764 54.5495 248.071 54.8862C248.378 55.2228 248.789 55.3912 249.305 55.3912C249.633 55.3912 249.94 55.3166 250.225 55.1674C250.511 55.014 250.741 54.7882 250.916 54.4899C251.095 54.1916 251.182 53.823 251.178 53.3841ZM256.13 57.5645V44.4735H258.853V49.3954H258.936C259.055 49.1312 259.228 48.8627 259.454 48.59C259.684 48.313 259.982 48.0829 260.349 47.8997C260.719 47.7122 261.18 47.6184 261.729 47.6184C262.445 47.6184 263.106 47.8059 263.711 48.1809C264.316 48.5517 264.8 49.112 265.162 49.862C265.524 50.6078 265.705 51.5431 265.705 52.6681C265.705 53.7633 265.528 54.688 265.175 55.4423C264.825 56.1923 264.348 56.7612 263.743 57.149C263.142 57.5325 262.469 57.7243 261.723 57.7243C261.195 57.7243 260.745 57.6369 260.374 57.4622C260.008 57.2875 259.707 57.068 259.473 56.8038C259.239 56.5353 259.06 56.2647 258.936 55.992H258.815V57.5645H256.13ZM258.795 52.6554C258.795 53.2392 258.876 53.7484 259.038 54.1831C259.2 54.6177 259.435 54.9565 259.741 55.1994C260.048 55.438 260.421 55.5574 260.86 55.5574C261.303 55.5574 261.678 55.4359 261.985 55.193C262.292 54.9458 262.524 54.6049 262.682 54.1703C262.844 53.7314 262.925 53.2264 262.925 52.6554C262.925 52.0886 262.846 51.59 262.688 51.1596C262.531 50.7292 262.298 50.3926 261.991 50.1497C261.685 49.9068 261.308 49.7853 260.86 49.7853C260.417 49.7853 260.042 49.9025 259.735 50.1369C259.433 50.3713 259.2 50.7037 259.038 51.1341C258.876 51.5645 258.795 52.0716 258.795 52.6554ZM270.245 51.8883V57.5645H267.522V44.4735H270.169V49.4785H270.284C270.505 48.899 270.863 48.4451 271.357 48.117C271.852 47.7846 272.472 47.6184 273.218 47.6184C273.899 47.6184 274.494 47.7676 275.001 48.0659C275.512 48.3599 275.909 48.7839 276.19 49.3379C276.475 49.8876 276.616 50.546 276.612 51.313V57.5645H273.889V51.7988C273.893 51.1937 273.74 50.7228 273.428 50.3862C273.122 50.0495 272.691 49.8812 272.137 49.8812C271.767 49.8812 271.438 49.96 271.153 50.1177C270.872 50.2754 270.65 50.5055 270.488 50.8081C270.33 51.1064 270.249 51.4664 270.245 51.8883ZM283.229 57.7562C282.219 57.7562 281.35 57.5517 280.621 57.1426C279.897 56.7292 279.338 56.1454 278.946 55.3912C278.554 54.6326 278.358 53.7356 278.358 52.7001C278.358 51.6902 278.554 50.8038 278.946 50.041C279.338 49.2782 279.89 48.6838 280.602 48.2576C281.318 47.8315 282.157 47.6184 283.12 47.6184C283.768 47.6184 284.371 47.7228 284.929 47.9316C285.492 48.1362 285.982 48.4451 286.4 48.8585C286.821 49.2718 287.15 49.7917 287.384 50.4181C287.618 51.0403 287.735 51.769 287.735 52.6042V53.3521H279.445V51.6646H285.172C285.172 51.2725 285.087 50.9252 284.917 50.6227C284.746 50.3201 284.51 50.0836 284.207 49.9132C283.909 49.7385 283.561 49.6511 283.165 49.6511C282.752 49.6511 282.385 49.747 282.066 49.9387C281.75 50.1262 281.503 50.3798 281.324 50.6994C281.145 51.0147 281.054 51.3663 281.049 51.7541V53.3585C281.049 53.8443 281.139 54.264 281.318 54.6177C281.501 54.9714 281.759 55.2441 282.091 55.4359C282.424 55.6277 282.818 55.7235 283.274 55.7235C283.576 55.7235 283.853 55.6809 284.105 55.5957C284.356 55.5105 284.571 55.3826 284.75 55.2122C284.929 55.0417 285.066 54.8329 285.159 54.5858L287.678 54.752C287.55 55.3571 287.288 55.8855 286.892 56.3372C286.5 56.7846 285.993 57.1341 285.37 57.3855C284.752 57.6326 284.039 57.7562 283.229 57.7562ZM292.312 57.7498C291.686 57.7498 291.127 57.6412 290.637 57.4238C290.147 57.2022 289.76 56.8762 289.474 56.4458C289.193 56.0112 289.052 55.47 289.052 54.8223C289.052 54.2768 289.152 53.8187 289.353 53.448C289.553 53.0772 289.826 52.7789 290.171 52.5531C290.516 52.3272 290.908 52.1568 291.347 52.0417C291.79 51.9267 292.255 51.8457 292.74 51.7988C293.311 51.7392 293.772 51.6838 294.121 51.6326C294.471 51.5772 294.724 51.4963 294.882 51.3897C295.039 51.2832 295.118 51.1255 295.118 50.9167V50.8784C295.118 50.4735 294.99 50.1603 294.735 49.9387C294.483 49.7172 294.125 49.6064 293.661 49.6064C293.171 49.6064 292.781 49.715 292.491 49.9324C292.201 50.1454 292.01 50.4139 291.916 50.7377L289.397 50.5332C289.525 49.9366 289.777 49.421 290.152 48.9863C290.527 48.5474 291.01 48.2108 291.603 47.9764C292.199 47.7377 292.89 47.6184 293.674 47.6184C294.219 47.6184 294.741 47.6824 295.24 47.8102C295.743 47.938 296.188 48.1362 296.576 48.4047C296.968 48.6731 297.277 49.0183 297.502 49.4402C297.728 49.8578 297.841 50.3585 297.841 50.9423V57.5645H295.259V56.2029H295.182C295.025 56.5098 294.814 56.7804 294.549 57.0147C294.285 57.2449 293.968 57.426 293.597 57.5581C293.226 57.6859 292.798 57.7498 292.312 57.7498ZM293.092 55.8706C293.493 55.8706 293.846 55.7917 294.153 55.6341C294.46 55.4721 294.701 55.2548 294.875 54.9821C295.05 54.7093 295.137 54.4004 295.137 54.0552V53.0133C295.052 53.0687 294.935 53.1199 294.786 53.1667C294.641 53.2093 294.477 53.2498 294.294 53.2882C294.11 53.3223 293.927 53.3542 293.744 53.3841C293.561 53.4096 293.395 53.4331 293.245 53.4544C292.926 53.5012 292.647 53.5758 292.408 53.6781C292.169 53.7804 291.984 53.9189 291.852 54.0936C291.72 54.264 291.654 54.4771 291.654 54.7328C291.654 55.1035 291.788 55.3869 292.056 55.5829C292.329 55.7747 292.674 55.8706 293.092 55.8706ZM303.572 57.7243C302.826 57.7243 302.151 57.5325 301.545 57.149C300.945 56.7612 300.467 56.1923 300.114 55.4423C299.764 54.688 299.589 53.7633 299.589 52.6681C299.589 51.5431 299.771 50.6078 300.133 49.862C300.495 49.112 300.977 48.5517 301.577 48.1809C302.183 47.8059 302.845 47.6184 303.565 47.6184C304.115 47.6184 304.573 47.7122 304.94 47.8997C305.31 48.0829 305.609 48.313 305.835 48.59C306.065 48.8627 306.239 49.1312 306.359 49.3954H306.442V44.4735H309.158V57.5645H306.474V55.992H306.359C306.231 56.2647 306.05 56.5353 305.815 56.8038C305.585 57.068 305.285 57.2875 304.914 57.4622C304.548 57.6369 304.1 57.7243 303.572 57.7243ZM304.435 55.5574C304.874 55.5574 305.244 55.438 305.547 55.1994C305.854 54.9565 306.088 54.6177 306.25 54.1831C306.416 53.7484 306.499 53.2392 306.499 52.6554C306.499 52.0716 306.418 51.5645 306.256 51.1341C306.094 50.7037 305.86 50.3713 305.553 50.1369C305.246 49.9025 304.874 49.7853 304.435 49.7853C303.987 49.7853 303.61 49.9068 303.303 50.1497C302.996 50.3926 302.764 50.7292 302.607 51.1596C302.449 51.59 302.37 52.0886 302.37 52.6554C302.37 53.2264 302.449 53.7314 302.607 54.1703C302.768 54.6049 303.001 54.9458 303.303 55.193C303.61 55.4359 303.987 55.5574 304.435 55.5574ZM311.397 57.5645V47.7463H314.12V57.5645H311.397ZM312.765 46.4806C312.36 46.4806 312.013 46.3464 311.723 46.0779C311.438 45.8052 311.295 45.4792 311.295 45.1C311.295 44.725 311.438 44.4032 311.723 44.1348C312.013 43.862 312.36 43.7257 312.765 43.7257C313.17 43.7257 313.515 43.862 313.801 44.1348C314.09 44.4032 314.235 44.725 314.235 45.1C314.235 45.4792 314.09 45.8052 313.801 46.0779C313.515 46.3464 313.17 46.4806 312.765 46.4806ZM319.025 51.8883V57.5645H316.301V47.7463H318.897V49.4785H319.012C319.229 48.9075 319.593 48.4558 320.105 48.1234C320.616 47.7868 321.236 47.6184 321.965 47.6184C322.647 47.6184 323.241 47.7676 323.748 48.0659C324.255 48.3642 324.65 48.7903 324.931 49.3443C325.212 49.894 325.353 50.5502 325.353 51.313V57.5645H322.63V51.7988C322.634 51.198 322.48 50.7292 322.169 50.3926C321.858 50.0517 321.43 49.8812 320.885 49.8812C320.518 49.8812 320.194 49.96 319.913 50.1177C319.636 50.2754 319.419 50.5055 319.261 50.8081C319.108 51.1064 319.029 51.4664 319.025 51.8883ZM331.922 61.4508C331.04 61.4508 330.284 61.3294 329.653 61.0865C329.026 60.8478 328.528 60.5218 328.157 60.1085C327.786 59.6951 327.546 59.2306 327.435 58.715L329.953 58.3762C330.03 58.5723 330.151 58.7555 330.318 58.926C330.484 59.0964 330.703 59.2328 330.976 59.335C331.253 59.4416 331.59 59.4949 331.986 59.4949C332.578 59.4949 333.066 59.35 333.45 59.0602C333.838 58.7747 334.031 58.2953 334.031 57.622V55.8258H333.916C333.797 56.0985 333.618 56.3564 333.379 56.5993C333.141 56.8422 332.834 57.0403 332.459 57.1937C332.084 57.3471 331.637 57.4238 331.117 57.4238C330.379 57.4238 329.708 57.2534 329.103 56.9125C328.502 56.5673 328.023 56.041 327.665 55.3336C327.311 54.622 327.134 53.7228 327.134 52.6362C327.134 51.524 327.316 50.595 327.678 49.8493C328.04 49.1035 328.521 48.5453 329.122 48.1745C329.727 47.8038 330.39 47.6184 331.11 47.6184C331.66 47.6184 332.12 47.7122 332.491 47.8997C332.862 48.0829 333.16 48.313 333.386 48.59C333.616 48.8627 333.793 49.1312 333.916 49.3954H334.019V47.7463H336.722V57.6603C336.722 58.4956 336.518 59.1944 336.109 59.7569C335.7 60.3194 335.133 60.7413 334.409 61.0225C333.688 61.3081 332.86 61.4508 331.922 61.4508ZM331.98 55.3784C332.419 55.3784 332.789 55.2697 333.092 55.0524C333.399 54.8308 333.633 54.5154 333.795 54.1064C333.961 53.693 334.044 53.1987 334.044 52.6234C334.044 52.0481 333.963 51.5495 333.801 51.1277C333.639 50.7015 333.405 50.3713 333.098 50.1369C332.791 49.9025 332.419 49.7853 331.98 49.7853C331.532 49.7853 331.155 49.9068 330.848 50.1497C330.541 50.3883 330.309 50.7207 330.151 51.1468C329.994 51.573 329.915 52.0652 329.915 52.6234C329.915 53.1902 329.994 53.6802 330.151 54.0936C330.313 54.5027 330.546 54.8201 330.848 55.046C331.155 55.2676 331.532 55.3784 331.98 55.3784Z" fill="black"/>
<path d="M263.638 89.5645V76.4735H268.879C269.842 76.4735 270.646 76.6163 271.289 76.9018C271.933 77.1873 272.416 77.5836 272.74 78.0907C273.064 78.5936 273.226 79.1731 273.226 79.8294C273.226 80.3407 273.124 80.7903 272.919 81.1781C272.714 81.5616 272.433 81.877 272.075 82.1241C271.722 82.367 271.317 82.5396 270.861 82.6419V82.7697C271.359 82.791 271.826 82.9316 272.261 83.1916C272.7 83.4515 273.055 83.8159 273.328 84.2846C273.601 84.7491 273.737 85.3031 273.737 85.9466C273.737 86.6412 273.565 87.2612 273.219 87.8066C272.879 88.3478 272.374 88.7761 271.705 89.0914C271.036 89.4068 270.211 89.5645 269.231 89.5645H263.638ZM266.406 87.3017H268.662C269.433 87.3017 269.996 87.1547 270.349 86.8606C270.703 86.5623 270.88 86.166 270.88 85.6717C270.88 85.3095 270.793 84.9899 270.618 84.7129C270.443 84.4359 270.194 84.2186 269.87 84.0609C269.55 83.9032 269.169 83.8244 268.726 83.8244H266.406V87.3017ZM266.406 81.9515H268.457C268.837 81.9515 269.173 81.8855 269.467 81.7534C269.766 81.617 270 81.4252 270.17 81.1781C270.345 80.9309 270.433 80.6348 270.433 80.2896C270.433 79.8166 270.264 79.4352 269.928 79.1454C269.595 78.8556 269.122 78.7108 268.509 78.7108H266.406V81.9515ZM279.923 89.7562C278.93 89.7562 278.072 89.5453 277.347 89.1234C276.627 88.6973 276.071 88.1049 275.679 87.3464C275.287 86.5836 275.091 85.6994 275.091 84.6937C275.091 83.6795 275.287 82.7931 275.679 82.0346C276.071 81.2718 276.627 80.6795 277.347 80.2576C278.072 79.8315 278.93 79.6184 279.923 79.6184C280.916 79.6184 281.773 79.8315 282.493 80.2576C283.217 80.6795 283.775 81.2718 284.167 82.0346C284.559 82.7931 284.756 83.6795 284.756 84.6937C284.756 85.6994 284.559 86.5836 284.167 87.3464C283.775 88.1049 283.217 88.6973 282.493 89.1234C281.773 89.5453 280.916 89.7562 279.923 89.7562ZM279.936 87.6468C280.388 87.6468 280.765 87.519 281.067 87.2633C281.37 87.0034 281.598 86.6497 281.751 86.2022C281.909 85.7548 281.988 85.2456 281.988 84.6745C281.988 84.1035 281.909 83.5943 281.751 83.1468C281.598 82.6994 281.37 82.3457 281.067 82.0858C280.765 81.8258 280.388 81.6958 279.936 81.6958C279.48 81.6958 279.096 81.8258 278.785 82.0858C278.479 82.3457 278.246 82.6994 278.089 83.1468C277.935 83.5943 277.858 84.1035 277.858 84.6745C277.858 85.2456 277.935 85.7548 278.089 86.2022C278.246 86.6497 278.479 87.0034 278.785 87.2633C279.096 87.519 279.48 87.6468 279.936 87.6468ZM290.144 89.7243C289.398 89.7243 288.723 89.5325 288.118 89.149C287.517 88.7612 287.04 88.1923 286.686 87.4423C286.336 86.688 286.162 85.7633 286.162 84.6681C286.162 83.5431 286.343 82.6078 286.705 81.862C287.067 81.112 287.549 80.5517 288.15 80.1809C288.755 79.8059 289.417 79.6184 290.138 79.6184C290.687 79.6184 291.145 79.7122 291.512 79.8997C291.883 80.0829 292.181 80.313 292.407 80.59C292.637 80.8627 292.812 81.1312 292.931 81.3954H293.014V76.4735H295.731V89.5645H293.046V87.992H292.931C292.803 88.2647 292.622 88.5353 292.388 88.8038C292.157 89.068 291.857 89.2875 291.486 89.4622C291.12 89.6369 290.672 89.7243 290.144 89.7243ZM291.007 87.5574C291.446 87.5574 291.817 87.438 292.119 87.1994C292.426 86.9565 292.66 86.6177 292.822 86.1831C292.988 85.7484 293.072 85.2392 293.072 84.6554C293.072 84.0716 292.991 83.5645 292.829 83.1341C292.667 82.7037 292.432 82.3713 292.126 82.1369C291.819 81.9025 291.446 81.7853 291.007 81.7853C290.559 81.7853 290.182 81.9068 289.876 82.1497C289.569 82.3926 289.336 82.7292 289.179 83.1596C289.021 83.59 288.942 84.0886 288.942 84.6554C288.942 85.2264 289.021 85.7314 289.179 86.1703C289.341 86.6049 289.573 86.9458 289.876 87.193C290.182 87.4359 290.559 87.5574 291.007 87.5574ZM299.651 93.2463C299.305 93.2463 298.982 93.2186 298.679 93.1632C298.381 93.112 298.134 93.046 297.938 92.965L298.551 90.9324C298.871 91.0304 299.158 91.0836 299.414 91.0922C299.674 91.1007 299.898 91.041 300.085 90.9132C300.277 90.7853 300.433 90.568 300.552 90.2612L300.712 89.8457L297.19 79.7463H300.053L302.086 86.9565H302.188L304.24 79.7463H307.123L303.307 90.6255C303.124 91.1539 302.874 91.6142 302.559 92.0062C302.248 92.4025 301.854 92.7072 301.376 92.9203C300.899 93.1376 300.324 93.2463 299.651 93.2463Z" fill="black"/>
<path d="M293.393 128.564L308.811 113.146C310.396 111.561 310.396 108.991 308.811 107.406L306.158 104.753C304.573 103.168 302.004 103.168 300.419 104.753L285 120.172L269.581 104.753C267.996 103.168 265.427 103.168 263.842 104.753L261.189 107.406C259.604 108.991 259.604 111.561 261.189 113.146L276.607 128.564L261.189 143.983C259.604 145.568 259.604 148.138 261.189 149.722L263.842 152.376C265.427 153.961 267.996 153.961 269.581 152.376L285 136.957L300.419 152.376C302.004 153.961 304.573 153.961 306.158 152.376L308.811 149.722C310.396 148.138 310.396 145.568 308.811 143.983L293.393 128.564Z" fill="#FF473E"/>
<path d="M429.138 18.0645V4.97354H431.906V10.3748H437.524V4.97354H440.286V18.0645H437.524V12.6568H431.906V18.0645H429.138ZM446.991 18.2562C445.981 18.2562 445.112 18.0517 444.383 17.6426C443.658 17.2292 443.1 16.6454 442.708 15.8912C442.316 15.1326 442.12 14.2356 442.12 13.2001C442.12 12.1902 442.316 11.3038 442.708 10.541C443.1 9.77823 443.652 9.18377 444.364 8.75763C445.08 8.3315 445.919 8.11843 446.882 8.11843C447.53 8.11843 448.133 8.22283 448.691 8.43164C449.254 8.63619 449.744 8.94513 450.161 9.35849C450.583 9.77184 450.911 10.2917 451.146 10.9181C451.38 11.5403 451.497 12.269 451.497 13.1042V13.8521H443.207V12.1646H448.934C448.934 11.7725 448.849 11.4252 448.678 11.1227C448.508 10.8201 448.271 10.5836 447.969 10.4132C447.67 10.2385 447.323 10.1511 446.927 10.1511C446.513 10.1511 446.147 10.247 445.827 10.4387C445.512 10.6262 445.265 10.8798 445.086 11.1994C444.907 11.5147 444.815 11.8663 444.811 12.2541V13.8585C444.811 14.3443 444.901 14.764 445.08 15.1177C445.263 15.4714 445.521 15.7441 445.853 15.9359C446.185 16.1277 446.58 16.2235 447.036 16.2235C447.338 16.2235 447.615 16.1809 447.866 16.0957C448.118 16.0105 448.333 15.8826 448.512 15.7122C448.691 15.5417 448.827 15.3329 448.921 15.0858L451.44 15.252C451.312 15.8571 451.05 16.3855 450.653 16.8372C450.261 17.2846 449.754 17.6341 449.132 17.8855C448.514 18.1326 447.8 18.2562 446.991 18.2562ZM456.074 18.2498C455.447 18.2498 454.889 18.1412 454.399 17.9238C453.909 17.7022 453.521 17.3762 453.236 16.9458C452.955 16.5112 452.814 15.97 452.814 15.3223C452.814 14.7768 452.914 14.3187 453.114 13.948C453.315 13.5772 453.587 13.2789 453.933 13.0531C454.278 12.8272 454.67 12.6568 455.109 12.5417C455.552 12.4267 456.016 12.3457 456.502 12.2988C457.073 12.2392 457.533 12.1838 457.883 12.1326C458.232 12.0772 458.486 11.9963 458.643 11.8897C458.801 11.7832 458.88 11.6255 458.88 11.4167V11.3784C458.88 10.9735 458.752 10.6603 458.496 10.4387C458.245 10.2172 457.887 10.1064 457.423 10.1064C456.933 10.1064 456.543 10.215 456.253 10.4324C455.963 10.6454 455.771 10.9139 455.678 11.2377L453.159 11.0332C453.287 10.4366 453.538 9.92099 453.913 9.48633C454.288 9.04741 454.772 8.71076 455.364 8.47638C455.961 8.23775 456.651 8.11843 457.435 8.11843C457.981 8.11843 458.503 8.18235 459.001 8.31019C459.504 8.43803 459.95 8.63619 460.337 8.90465C460.729 9.17312 461.038 9.51829 461.264 9.94016C461.49 10.3578 461.603 10.8585 461.603 11.4423V18.0645H459.021V16.7029H458.944C458.786 17.0098 458.575 17.2804 458.311 17.5147C458.047 17.7449 457.729 17.926 457.359 18.0581C456.988 18.1859 456.56 18.2498 456.074 18.2498ZM456.854 16.3706C457.254 16.3706 457.608 16.2917 457.915 16.1341C458.222 15.9721 458.462 15.7548 458.637 15.4821C458.812 15.2093 458.899 14.9004 458.899 14.5552V13.5133C458.814 13.5687 458.697 13.6199 458.548 13.6667C458.403 13.7093 458.239 13.7498 458.055 13.7882C457.872 13.8223 457.689 13.8542 457.506 13.8841C457.322 13.9096 457.156 13.9331 457.007 13.9544C456.688 14.0012 456.408 14.0758 456.17 14.1781C455.931 14.2804 455.746 14.4189 455.614 14.5936C455.482 14.764 455.415 14.9771 455.415 15.2328C455.415 15.6035 455.55 15.8869 455.818 16.0829C456.091 16.2747 456.436 16.3706 456.854 16.3706ZM467.333 18.2243C466.588 18.2243 465.912 18.0325 465.307 17.649C464.706 17.2612 464.229 16.6923 463.875 15.9423C463.526 15.188 463.351 14.2633 463.351 13.1681C463.351 12.0431 463.532 11.1078 463.895 10.362C464.257 9.61204 464.738 9.05167 465.339 8.68093C465.944 8.30593 466.607 8.11843 467.327 8.11843C467.877 8.11843 468.335 8.21218 468.701 8.39968C469.072 8.58292 469.37 8.81303 469.596 9.09002C469.826 9.36275 470.001 9.63121 470.12 9.89542H470.203V4.97354H472.92V18.0645H470.235V16.492H470.12C469.993 16.7647 469.811 17.0353 469.577 17.3038C469.347 17.568 469.047 17.7875 468.676 17.9622C468.309 18.1369 467.862 18.2243 467.333 18.2243ZM468.196 16.0574C468.635 16.0574 469.006 15.938 469.309 15.6994C469.615 15.4565 469.85 15.1177 470.012 14.6831C470.178 14.2484 470.261 13.7392 470.261 13.1554C470.261 12.5716 470.18 12.0645 470.018 11.6341C469.856 11.2037 469.622 10.8713 469.315 10.6369C469.008 10.4025 468.635 10.2853 468.196 10.2853C467.749 10.2853 467.372 10.4068 467.065 10.6497C466.758 10.8926 466.526 11.2292 466.368 11.6596C466.211 12.09 466.132 12.5886 466.132 13.1554C466.132 13.7264 466.211 14.2314 466.368 14.6703C466.53 15.1049 466.762 15.4458 467.065 15.693C467.372 15.9359 467.749 16.0574 468.196 16.0574ZM475.159 18.0645V8.24627H477.882V18.0645H475.159ZM476.527 6.98065C476.122 6.98065 475.775 6.84641 475.485 6.57795C475.199 6.30522 475.057 5.97923 475.057 5.59996C475.057 5.22496 475.199 4.90323 475.485 4.63477C475.775 4.36204 476.122 4.22567 476.527 4.22567C476.932 4.22567 477.277 4.36204 477.562 4.63477C477.852 4.90323 477.997 5.22496 477.997 5.59996C477.997 5.97923 477.852 6.30522 477.562 6.57795C477.277 6.84641 476.932 6.98065 476.527 6.98065ZM482.786 12.3883V18.0645H480.063V8.24627H482.658V9.97852H482.773C482.991 9.40749 483.355 8.95579 483.866 8.6234C484.378 8.28675 484.998 8.11843 485.727 8.11843C486.408 8.11843 487.003 8.26758 487.51 8.56587C488.017 8.86417 488.411 9.2903 488.692 9.84428C488.974 10.394 489.114 11.0502 489.114 11.813V18.0645H486.391V12.2988C486.396 11.698 486.242 11.2292 485.931 10.8926C485.62 10.5517 485.192 10.3812 484.646 10.3812C484.28 10.3812 483.956 10.46 483.675 10.6177C483.398 10.7754 483.18 11.0055 483.023 11.3081C482.869 11.6064 482.79 11.9664 482.786 12.3883ZM495.684 21.9508C494.802 21.9508 494.045 21.8294 493.415 21.5865C492.788 21.3478 492.29 21.0218 491.919 20.6085C491.548 20.1951 491.307 19.7306 491.197 19.215L493.715 18.8762C493.792 19.0723 493.913 19.2555 494.079 19.426C494.246 19.5964 494.465 19.7328 494.738 19.835C495.015 19.9416 495.351 19.9949 495.748 19.9949C496.34 19.9949 496.828 19.85 497.211 19.5602C497.599 19.2747 497.793 18.7953 497.793 18.122V16.3258H497.678C497.559 16.5985 497.38 16.8564 497.141 17.0993C496.903 17.3422 496.596 17.5403 496.221 17.6937C495.846 17.8471 495.398 17.9238 494.878 17.9238C494.141 17.9238 493.47 17.7534 492.865 17.4125C492.264 17.0673 491.785 16.541 491.427 15.8336C491.073 15.122 490.896 14.2228 490.896 13.1362C490.896 12.024 491.077 11.095 491.439 10.3493C491.802 9.60352 492.283 9.04528 492.884 8.67454C493.489 8.3038 494.152 8.11843 494.872 8.11843C495.422 8.11843 495.882 8.21218 496.253 8.39968C496.623 8.58292 496.922 8.81303 497.148 9.09002C497.378 9.36275 497.555 9.63121 497.678 9.89542H497.78V8.24627H500.484V18.1603C500.484 18.9956 500.28 19.6944 499.871 20.2569C499.461 20.8194 498.895 21.2413 498.17 21.5225C497.45 21.8081 496.621 21.9508 495.684 21.9508ZM495.741 15.8784C496.18 15.8784 496.551 15.7697 496.854 15.5524C497.16 15.3308 497.395 15.0154 497.557 14.6064C497.723 14.193 497.806 13.6987 497.806 13.1234C497.806 12.5481 497.725 12.0495 497.563 11.6277C497.401 11.2015 497.167 10.8713 496.86 10.6369C496.553 10.4025 496.18 10.2853 495.741 10.2853C495.294 10.2853 494.917 10.4068 494.61 10.6497C494.303 10.8883 494.071 11.2207 493.913 11.6468C493.756 12.073 493.677 12.5652 493.677 13.1234C493.677 13.6902 493.756 14.1802 493.913 14.5936C494.075 15.0027 494.307 15.3201 494.61 15.546C494.917 15.7676 495.294 15.8784 495.741 15.8784Z" fill="black"/>
<path d="M429.908 48.8109C429.869 48.4099 429.698 48.0983 429.396 47.8762C429.095 47.6542 428.685 47.5431 428.168 47.5431C427.817 47.5431 427.52 47.5929 427.278 47.6923C427.036 47.7884 426.851 47.9226 426.722 48.095C426.596 48.2673 426.533 48.4629 426.533 48.6816C426.526 48.8639 426.564 49.023 426.647 49.1589C426.733 49.2948 426.851 49.4125 427 49.5119C427.149 49.608 427.321 49.6925 427.517 49.7654C427.713 49.835 427.921 49.8947 428.143 49.9444L429.058 50.1632C429.502 50.2626 429.91 50.3952 430.281 50.5609C430.652 50.7266 430.974 50.9305 431.246 51.1724C431.518 51.4144 431.728 51.6994 431.877 52.0275C432.03 52.3556 432.107 52.7318 432.111 53.1561C432.107 53.7792 431.948 54.3194 431.634 54.7768C431.322 55.2309 430.871 55.5839 430.281 55.8358C429.695 56.0843 428.987 56.2086 428.158 56.2086C427.336 56.2086 426.621 56.0827 426.011 55.8308C425.404 55.5789 424.93 55.206 424.589 54.7122C424.251 54.215 424.073 53.6002 424.057 52.8677H426.14C426.163 53.2091 426.261 53.4941 426.433 53.7228C426.609 53.9482 426.843 54.1189 427.134 54.2349C427.429 54.3476 427.762 54.4039 428.134 54.4039C428.498 54.4039 428.815 54.3509 429.083 54.2449C429.355 54.1388 429.565 53.9913 429.714 53.8024C429.864 53.6135 429.938 53.3964 429.938 53.1511C429.938 52.9224 429.87 52.7302 429.734 52.5744C429.602 52.4186 429.406 52.286 429.148 52.1767C428.893 52.0673 428.579 51.9679 428.208 51.8784L427.099 51.6C426.241 51.3912 425.563 51.0647 425.066 50.6206C424.569 50.1764 424.322 49.5782 424.325 48.8258C424.322 48.2093 424.486 47.6708 424.817 47.21C425.152 46.7493 425.611 46.3897 426.195 46.1312C426.778 45.8727 427.441 45.7434 428.183 45.7434C428.939 45.7434 429.598 45.8727 430.162 46.1312C430.729 46.3897 431.17 46.7493 431.484 47.21C431.799 47.6708 431.962 48.2044 431.972 48.8109H429.908ZM438.416 52.813V48.4281H440.534V56.0645H438.501V54.6774H438.421C438.249 55.1248 437.962 55.4844 437.561 55.7562C437.163 56.028 436.678 56.1639 436.104 56.1639C435.594 56.1639 435.145 56.0479 434.757 55.8159C434.369 55.5839 434.066 55.2541 433.847 54.8265C433.632 54.399 433.522 53.8869 433.519 53.2903V48.4281H435.637V52.9125C435.64 53.3632 435.761 53.7195 436 53.9814C436.238 54.2432 436.558 54.3741 436.959 54.3741C437.215 54.3741 437.453 54.3161 437.675 54.2001C437.897 54.0808 438.076 53.9051 438.212 53.6731C438.351 53.4411 438.419 53.1544 438.416 52.813ZM442.268 56.0645V45.8826H444.386V49.7108H444.45C444.543 49.5053 444.677 49.2965 444.853 49.0843C445.032 48.8689 445.264 48.6899 445.549 48.5474C445.837 48.4016 446.195 48.3287 446.623 48.3287C447.18 48.3287 447.693 48.4745 448.164 48.7662C448.635 49.0545 449.011 49.4904 449.293 50.0737C449.574 50.6537 449.715 51.3812 449.715 52.2562C449.715 53.108 449.578 53.8272 449.303 54.4139C449.031 54.9972 448.66 55.4397 448.189 55.7413C447.722 56.0396 447.198 56.1887 446.618 56.1887C446.207 56.1887 445.857 56.1208 445.569 55.9849C445.284 55.849 445.05 55.6783 444.868 55.4728C444.686 55.264 444.546 55.0536 444.45 54.8414H444.356V56.0645H442.268ZM444.341 52.2463C444.341 52.7003 444.404 53.0964 444.53 53.4345C444.656 53.7725 444.838 54.036 445.077 54.225C445.315 54.4106 445.605 54.5034 445.947 54.5034C446.291 54.5034 446.583 54.4089 446.822 54.22C447.06 54.0278 447.241 53.7626 447.364 53.4245C447.49 53.0832 447.553 52.6904 447.553 52.2463C447.553 51.8055 447.491 51.4177 447.369 51.0829C447.246 50.7482 447.065 50.4863 446.827 50.2974C446.588 50.1085 446.295 50.014 445.947 50.014C445.602 50.014 445.31 50.1052 445.072 50.2875C444.836 50.4698 444.656 50.7283 444.53 51.063C444.404 51.3978 444.341 51.7922 444.341 52.2463ZM453.246 51.6497V56.0645H451.128V45.8826H453.187V49.7754H453.276C453.448 49.3246 453.727 48.9716 454.111 48.7164C454.496 48.4579 454.978 48.3287 455.558 48.3287C456.088 48.3287 456.551 48.4447 456.945 48.6767C457.343 48.9054 457.651 49.2351 457.87 49.666C458.092 50.0936 458.201 50.6056 458.198 51.2022V56.0645H456.08V51.5801C456.083 51.1094 455.964 50.7432 455.722 50.4814C455.483 50.2195 455.149 50.0886 454.718 50.0886C454.43 50.0886 454.174 50.1499 453.952 50.2725C453.733 50.3952 453.561 50.5742 453.435 50.8095C453.313 51.0415 453.25 51.3216 453.246 51.6497ZM463.345 56.2136C462.559 56.2136 461.883 56.0545 461.316 55.7363C460.753 55.4148 460.319 54.9608 460.014 54.3741C459.709 53.7841 459.556 53.0865 459.556 52.2811C459.556 51.4956 459.709 50.8062 460.014 50.2129C460.319 49.6196 460.748 49.1573 461.301 48.8258C461.858 48.4944 462.511 48.3287 463.26 48.3287C463.764 48.3287 464.233 48.4099 464.667 48.5723C465.105 48.7314 465.486 48.9716 465.811 49.2931C466.139 49.6146 466.394 50.019 466.576 50.5062C466.759 50.9901 466.85 51.5569 466.85 52.2065V52.7882H460.402V51.4757H464.856C464.856 51.1708 464.79 50.9006 464.657 50.6653C464.525 50.43 464.341 50.246 464.105 50.1135C463.873 49.9776 463.603 49.9096 463.295 49.9096C462.974 49.9096 462.689 49.9842 462.44 50.1333C462.195 50.2792 462.002 50.4764 461.863 50.725C461.724 50.9702 461.653 51.2437 461.65 51.5453V52.7931C461.65 53.171 461.719 53.4975 461.858 53.7725C462.001 54.0476 462.201 54.2598 462.46 54.4089C462.718 54.5581 463.025 54.6326 463.38 54.6326C463.615 54.6326 463.83 54.5995 464.026 54.5332C464.221 54.4669 464.389 54.3675 464.528 54.2349C464.667 54.1023 464.773 53.9399 464.846 53.7477L466.805 53.877C466.706 54.3476 466.502 54.7586 466.194 55.1099C465.889 55.4579 465.494 55.7297 465.01 55.9252C464.53 56.1175 463.975 56.2136 463.345 56.2136ZM470.409 56.2086C469.922 56.2086 469.488 56.1241 469.107 55.9551C468.726 55.7827 468.424 55.5292 468.202 55.1944C467.983 54.8564 467.874 54.4354 467.874 53.9316C467.874 53.5074 467.952 53.1511 468.108 52.8627C468.263 52.5744 468.475 52.3424 468.744 52.1667C469.012 51.9911 469.317 51.8585 469.659 51.769C470.003 51.6795 470.365 51.6165 470.743 51.5801C471.187 51.5337 471.545 51.4906 471.816 51.4508C472.088 51.4077 472.285 51.3448 472.408 51.2619C472.531 51.179 472.592 51.0564 472.592 50.894V50.8642C472.592 50.5493 472.493 50.3057 472.294 50.1333C472.098 49.961 471.82 49.8748 471.458 49.8748C471.077 49.8748 470.774 49.9593 470.549 50.1284C470.323 50.2941 470.174 50.5029 470.101 50.7548L468.142 50.5957C468.242 50.1317 468.437 49.7306 468.729 49.3926C469.021 49.0512 469.397 48.7894 469.858 48.6071C470.322 48.4215 470.859 48.3287 471.468 48.3287C471.893 48.3287 472.299 48.3784 472.686 48.4778C473.078 48.5772 473.424 48.7314 473.725 48.9402C474.03 49.149 474.271 49.4174 474.446 49.7456C474.622 50.0704 474.71 50.4598 474.71 50.9139V56.0645H472.701V55.0055H472.642C472.519 55.2441 472.355 55.4546 472.15 55.6369C471.944 55.8159 471.697 55.9567 471.409 56.0595C471.12 56.1589 470.787 56.2086 470.409 56.2086ZM471.016 54.747C471.328 54.747 471.603 54.6857 471.841 54.563C472.08 54.4371 472.267 54.2681 472.403 54.0559C472.539 53.8438 472.607 53.6035 472.607 53.335V52.5247C472.541 52.5678 472.449 52.6075 472.333 52.644C472.221 52.6771 472.093 52.7086 471.951 52.7385C471.808 52.765 471.666 52.7898 471.523 52.813C471.381 52.8329 471.251 52.8511 471.135 52.8677C470.887 52.9042 470.67 52.9622 470.484 53.0417C470.298 53.1213 470.154 53.229 470.051 53.3649C469.949 53.4975 469.897 53.6632 469.897 53.862C469.897 54.1504 470.002 54.3708 470.211 54.5233C470.423 54.6724 470.691 54.747 471.016 54.747ZM479.167 56.1887C478.587 56.1887 478.062 56.0396 477.591 55.7413C477.124 55.4397 476.752 54.9972 476.477 54.4139C476.205 53.8272 476.07 53.108 476.07 52.2562C476.07 51.3812 476.21 50.6537 476.492 50.0737C476.774 49.4904 477.148 49.0545 477.616 48.7662C478.086 48.4745 478.602 48.3287 479.162 48.3287C479.589 48.3287 479.946 48.4016 480.231 48.5474C480.519 48.6899 480.751 48.8689 480.927 49.0843C481.106 49.2965 481.242 49.5053 481.335 49.7108H481.399V45.8826H483.512V56.0645H481.424V54.8414H481.335C481.235 55.0536 481.094 55.264 480.912 55.4728C480.733 55.6783 480.499 55.849 480.211 55.9849C479.926 56.1208 479.578 56.1887 479.167 56.1887ZM479.838 54.5034C480.179 54.5034 480.468 54.4106 480.703 54.225C480.942 54.036 481.124 53.7725 481.25 53.4345C481.379 53.0964 481.444 52.7003 481.444 52.2463C481.444 51.7922 481.381 51.3978 481.255 51.063C481.129 50.7283 480.947 50.4698 480.708 50.2875C480.469 50.1052 480.179 50.014 479.838 50.014C479.49 50.014 479.197 50.1085 478.958 50.2974C478.719 50.4863 478.539 50.7482 478.416 51.0829C478.294 51.4177 478.232 51.8055 478.232 52.2463C478.232 52.6904 478.294 53.0832 478.416 53.4245C478.542 53.7626 478.723 54.0278 478.958 54.22C479.197 54.4089 479.49 54.5034 479.838 54.5034ZM485.253 56.0645V48.4281H487.371V56.0645H485.253ZM486.317 47.4437C486.002 47.4437 485.732 47.3393 485.507 47.1305C485.285 46.9184 485.174 46.6648 485.174 46.3699C485.174 46.0782 485.285 45.8279 485.507 45.6191C485.732 45.407 486.002 45.301 486.317 45.301C486.632 45.301 486.901 45.407 487.123 45.6191C487.348 45.8279 487.461 46.0782 487.461 46.3699C487.461 46.6648 487.348 46.9184 487.123 47.1305C486.901 47.3393 486.632 47.4437 486.317 47.4437ZM491.186 51.6497V56.0645H489.068V48.4281H491.086V49.7754H491.176C491.345 49.3313 491.628 48.9799 492.026 48.7214C492.424 48.4596 492.906 48.3287 493.473 48.3287C494.003 48.3287 494.465 48.4447 494.86 48.6767C495.254 48.9087 495.561 49.2401 495.779 49.671C495.998 50.0985 496.108 50.609 496.108 51.2022V56.0645H493.99V51.5801C493.993 51.1127 493.874 50.7482 493.632 50.4863C493.39 50.2212 493.057 50.0886 492.632 50.0886C492.347 50.0886 492.096 50.1499 491.877 50.2725C491.661 50.3952 491.492 50.5742 491.37 50.8095C491.25 51.0415 491.189 51.3216 491.186 51.6497ZM501.217 59.0872C500.531 59.0872 499.943 58.9927 499.452 58.8038C498.965 58.6182 498.577 58.3646 498.289 58.0431C498.001 57.7217 497.813 57.3604 497.727 56.9593L499.686 56.6958C499.746 56.8483 499.84 56.9908 499.969 57.1234C500.099 57.256 500.269 57.362 500.481 57.4416C500.697 57.5244 500.959 57.5659 501.267 57.5659C501.728 57.5659 502.107 57.4532 502.405 57.2278C502.707 57.0057 502.858 56.6329 502.858 56.1092V54.7122H502.768C502.675 54.9243 502.536 55.1248 502.351 55.3137C502.165 55.5027 501.926 55.6568 501.635 55.7761C501.343 55.8954 500.995 55.9551 500.591 55.9551C500.017 55.9551 499.495 55.8225 499.025 55.5574C498.557 55.2889 498.184 54.8796 497.906 54.3294C497.631 53.7759 497.493 53.0765 497.493 52.2314C497.493 51.3663 497.634 50.6438 497.916 50.0637C498.198 49.4837 498.572 49.0495 499.04 48.7612C499.51 48.4728 500.026 48.3287 500.586 48.3287C501.013 48.3287 501.371 48.4016 501.66 48.5474C501.948 48.6899 502.18 48.8689 502.356 49.0843C502.535 49.2965 502.672 49.5053 502.768 49.7108H502.848V48.4281H504.951V56.139C504.951 56.7886 504.792 57.3322 504.474 57.7697C504.155 58.2072 503.715 58.5353 503.151 58.7541C502.591 58.9761 501.946 59.0872 501.217 59.0872ZM501.262 54.3642C501.603 54.3642 501.892 54.2797 502.127 54.1106C502.366 53.9383 502.548 53.693 502.674 53.3748C502.803 53.0533 502.868 52.6689 502.868 52.2214C502.868 51.774 502.805 51.3862 502.679 51.0581C502.553 50.7266 502.371 50.4698 502.132 50.2875C501.893 50.1052 501.603 50.014 501.262 50.014C500.914 50.014 500.621 50.1085 500.382 50.2974C500.143 50.483 499.963 50.7415 499.84 51.073C499.717 51.4044 499.656 51.7872 499.656 52.2214C499.656 52.6622 499.717 53.0434 499.84 53.3649C499.966 53.6831 500.147 53.93 500.382 54.1056C500.621 54.278 500.914 54.3642 501.262 54.3642Z" fill="black"/>
<path d="M453.132 89.0645V81.7917H456.044C456.579 81.7917 457.025 81.871 457.383 82.0297C457.74 82.1883 458.009 82.4084 458.189 82.6902C458.369 82.9695 458.459 83.2915 458.459 83.6561C458.459 83.9402 458.402 84.1899 458.288 84.4054C458.175 84.6184 458.018 84.7936 457.82 84.9309C457.623 85.0659 457.398 85.1618 457.145 85.2186V85.2896C457.422 85.3014 457.681 85.3796 457.923 85.524C458.166 85.6684 458.364 85.8708 458.516 86.1312C458.667 86.3893 458.743 86.697 458.743 87.0545C458.743 87.4404 458.647 87.7849 458.455 88.0879C458.266 88.3886 457.985 88.6265 457.614 88.8017C457.242 88.9769 456.784 89.0645 456.239 89.0645H453.132ZM454.67 87.8074H455.923C456.352 87.8074 456.664 87.7257 456.861 87.5623C457.057 87.3966 457.156 87.1764 457.156 86.9018C457.156 86.7006 457.107 86.523 457.01 86.3691C456.913 86.2153 456.774 86.0945 456.594 86.0069C456.417 85.9193 456.205 85.8755 455.959 85.8755H454.67V87.8074ZM454.67 84.835H455.81C456.02 84.835 456.207 84.7984 456.371 84.725C456.536 84.6492 456.667 84.5427 456.761 84.4054C456.858 84.2681 456.907 84.1035 456.907 83.9118C456.907 83.649 456.813 83.4371 456.626 83.2761C456.442 83.1151 456.179 83.0346 455.838 83.0346H454.67V84.835ZM462.18 89.171C461.628 89.171 461.151 89.0538 460.748 88.8194C460.348 88.5827 460.039 88.2536 459.822 87.8322C459.604 87.4084 459.495 86.9172 459.495 86.3585C459.495 85.795 459.604 85.3026 459.822 84.8812C460.039 84.4574 460.348 84.1284 460.748 83.894C461.151 83.6573 461.628 83.5389 462.18 83.5389C462.731 83.5389 463.207 83.6573 463.607 83.894C464.01 84.1284 464.32 84.4574 464.537 84.8812C464.755 85.3026 464.864 85.795 464.864 86.3585C464.864 86.9172 464.755 87.4084 464.537 87.8322C464.32 88.2536 464.01 88.5827 463.607 88.8194C463.207 89.0538 462.731 89.171 462.18 89.171ZM462.187 87.9991C462.438 87.9991 462.647 87.9281 462.815 87.786C462.983 87.6416 463.11 87.4451 463.195 87.1966C463.283 86.948 463.327 86.6651 463.327 86.3478C463.327 86.0306 463.283 85.7477 463.195 85.4991C463.11 85.2505 462.983 85.054 462.815 84.9096C462.647 84.7652 462.438 84.693 462.187 84.693C461.933 84.693 461.72 84.7652 461.547 84.9096C461.377 85.054 461.248 85.2505 461.16 85.4991C461.075 85.7477 461.032 86.0306 461.032 86.3478C461.032 86.6651 461.075 86.948 461.16 87.1966C461.248 87.4451 461.377 87.6416 461.547 87.786C461.72 87.9281 461.933 87.9991 462.187 87.9991ZM467.858 89.1532C467.443 89.1532 467.068 89.0467 466.732 88.8336C466.398 88.6182 466.133 88.3021 465.937 87.8855C465.742 87.4664 465.645 86.9527 465.645 86.3443C465.645 85.7193 465.746 85.1996 465.947 84.7853C466.148 84.3687 466.416 84.0574 466.75 83.8514C467.086 83.6431 467.454 83.5389 467.854 83.5389C468.16 83.5389 468.414 83.591 468.618 83.6951C468.824 83.7969 468.989 83.9248 469.115 84.0787C469.243 84.2302 469.34 84.3793 469.406 84.5261H469.452V81.7917H470.961V89.0645H469.47V88.1909H469.406C469.335 88.3424 469.234 88.4927 469.104 88.6419C468.976 88.7886 468.809 88.9106 468.604 89.0076C468.4 89.1047 468.151 89.1532 467.858 89.1532ZM468.337 87.9494C468.581 87.9494 468.787 87.8831 468.955 87.7505C469.126 87.6156 469.256 87.4274 469.346 87.1859C469.438 86.9444 469.484 86.6615 469.484 86.3372C469.484 86.0128 469.439 85.7311 469.349 85.492C469.259 85.2529 469.129 85.0682 468.959 84.938C468.788 84.8078 468.581 84.7427 468.337 84.7427C468.089 84.7427 467.879 84.8102 467.709 84.9451C467.538 85.0801 467.409 85.2671 467.322 85.5062C467.234 85.7453 467.19 86.0223 467.19 86.3372C467.19 86.6544 467.234 86.935 467.322 87.1788C467.412 87.4203 467.541 87.6097 467.709 87.747C467.879 87.8819 468.089 87.9494 468.337 87.9494ZM473.139 91.1099C472.947 91.1099 472.768 91.0945 472.599 91.0637C472.434 91.0353 472.296 90.9986 472.188 90.9537L472.528 89.8244C472.706 89.8788 472.866 89.9084 473.008 89.9132C473.152 89.9179 473.277 89.8848 473.381 89.8137C473.487 89.7427 473.574 89.622 473.64 89.4515L473.729 89.2207L471.772 83.6099H473.363L474.492 87.6156H474.549L475.689 83.6099H477.29L475.17 89.6539C475.069 89.9475 474.93 90.2032 474.755 90.421C474.582 90.6412 474.363 90.8104 474.098 90.9288C473.833 91.0495 473.513 91.1099 473.139 91.1099Z" fill="black"/>
<path d="M489.014 115.796L481.316 111.334C480.368 110.784 479.15 111.102 478.597 112.044L459.724 144.147L447.298 136.945C446.529 136.499 445.542 136.756 445.093 137.52L440.22 145.809C439.771 146.572 440.031 147.552 440.799 147.998L462.964 160.846C463.733 161.292 464.72 161.034 465.169 160.271L465.348 159.965C465.352 159.959 465.356 159.954 465.36 159.948L489.729 118.496C490.282 117.555 489.962 116.346 489.014 115.796Z" fill="#61A05F"/>
</svg>
